<?xml version="1.0" encoding="utf-8"?>
<!-- Generator: Adobe Illustrator 26.0.2, SVG Export Plug-In . SVG Version: 6.00 Build 0)  -->
<svg version="1.1" id="Layer_1" xmlns="http://www.w3.org/2000/svg" xmlns:xlink="http://www.w3.org/1999/xlink" x="0px" y="0px"
	 viewBox="0 0 750 500" style="enable-background:new 0 0 750 500;" xml:space="preserve">
<style type="text/css">
	.st0{fill:#E7ECF1;}
	.st1{fill:#E0E0E0;}
	.st2{fill:#F5F5F5;}
	.st3{fill:#FFFFFF;}
	.st4{fill:#263238;}
	.st5{fill:#EF3F3D;}
	.st6{opacity:0.3;}
	.st7{fill:#2F4B59;}
	.st8{opacity:0.4;}
	.st9{fill:#455A64;}
	.st10{fill:#FFBF9D;}
	.st11{fill:#FF9A6C;}
	.st12{fill:#EBEBEB;}
</style>
<g id="freepik--background-complete--inject-10">
	<path class="st0" d="M172.2,172.1c-1,3-3.8,5-7,5c-5.4,0-8.6-3.9-8.6-9.7c0-6.5,3.3-10.6,8.4-10.6c4.4,0,7,2.6,7,8.2h-11.6
		c-0.1,0.8-0.1,1.6-0.1,2.4c0,5.1,2.8,8.1,5.7,8.1c2.2,0,4.2-0.9,5.5-3.7L172.2,172.1z M160.4,164.4h8.1c0.1-3.6-1-6.8-3.5-6.8
		C162.7,157.6,160.8,159.7,160.4,164.4z"/>
	<path class="st0" d="M654.4,244.9c0,1.3,0,2.5,0.1,3.3h-0.9c-0.6-5.6-1.2-7.6-6.2-7.6h-2.2v23.1c0,3.3,0.7,3.8,4.1,3.9v0.8
		c-1.4-0.1-3.8-0.1-6-0.1c-2.4,0-4.7,0-6,0.1v-0.8c3.4-0.1,4.1-0.6,4.1-3.9v-23.1h-2.2c-5.1,0-5.7,1.9-6.2,7.6H632
		c0.1-0.9,0.1-2,0.1-3.3c0-1-0.1-3.1-0.3-5.2c3.4,0.1,8.1,0.1,11.4,0.1s8,0,11.4-0.1C654.5,241.8,654.4,243.9,654.4,244.9z"/>
	
		<rect x="163.7" y="67.8" transform="matrix(1 -5.410494e-03 5.410494e-03 1 -0.4701 0.9082)" class="st0" width="7.9" height="39.1"/>
	
		<rect x="95.6" y="67.9" transform="matrix(1 -5.410494e-03 5.410494e-03 1 -0.4245 0.5734)" class="st0" width="20.3" height="21.6"/>
	
		<rect x="115.9" y="67.8" transform="matrix(1 -5.410494e-03 5.410494e-03 1 -0.4236 0.683)" class="st0" width="20.3" height="21.6"/>
	<path class="st1" d="M95.6,74c13.5,0.1,27.1,0,40.6-0.2c0.1,0,0.2-0.1,0.2-0.3c0-0.1-0.1-0.2-0.2-0.2c-13.5-0.1-27.1,0-40.6,0.2
		c-0.1,0-0.2,0.1-0.1,0.2C95.4,73.9,95.5,74,95.6,74L95.6,74z"/>
	
		<rect x="83.4" y="88.7" transform="matrix(0.9999 -9.999500e-03 9.999500e-03 0.9999 -0.9701 1.0233)" class="st0" width="37" height="17.6"/>
	<rect x="119.7" y="89" transform="matrix(1 -5.410494e-03 5.410494e-03 1 -0.5271 0.749)" class="st0" width="37" height="17.6"/>
	<path class="st1" d="M82.9,94.2c24.6,0.3,49.2,0,73.7-0.4c0.1,0,0.2-0.1,0.2-0.3c0-0.1-0.1-0.2-0.2-0.2
		c-24.6-0.1-49.2-0.1-73.7,0.4c-0.1,0-0.2,0.1-0.1,0.2C82.8,94.1,82.8,94.2,82.9,94.2z"/>
	<rect x="69.1" y="106.9" class="st0" width="143.2" height="6.3"/>
	<rect x="92.5" y="109.9" class="st0" width="5.8" height="16.5"/>
	<rect x="179.3" y="109.9" class="st0" width="5.8" height="16.5"/>
	
		<rect x="171.8" y="52.4" transform="matrix(0.9999 -9.999500e-03 9.999500e-03 0.9999 -0.7842 1.7608)" class="st0" width="7.9" height="53.8"/>
	
		<rect x="179.3" y="63.3" transform="matrix(1 -5.410494e-03 5.410494e-03 1 -0.4574 1.0043)" class="st2" width="12.2" height="43.6"/>
	<path class="st1" d="M191.3,71.6c-2,0.2-4.1,0.3-6.1,0.2c-2,0.1-4.1,0-6.1-0.2c2-0.2,4.1-0.3,6.1-0.2
		C187.2,71.3,189.3,71.4,191.3,71.6z"/>
	<path class="st1" d="M191.3,69.8c-2,0.2-4.1,0.3-6.1,0.2c-2,0.1-4.1,0-6.1-0.2c2-0.2,4.1-0.3,6.1-0.2
		C187.2,69.5,189.3,69.6,191.3,69.8z"/>
	<path class="st1" d="M191.3,100.2c-2,0.2-4.1,0.3-6.1,0.2c-2,0.1-4.1,0-6.1-0.2c2-0.2,4.1-0.3,6.1-0.2
		C187.2,99.9,189.3,100,191.3,100.2z"/>
	<path class="st1" d="M191.3,98.4c-2,0.2-4.1,0.3-6.1,0.2c-2,0.1-4.1,0-6.1-0.2c2-0.2,4.1-0.3,6.1-0.2
		C187.2,98.1,189.3,98.2,191.3,98.4z"/>
	<path class="st1" d="M185.4,94.4c-0.1,0-0.2-4.4-0.2-9.8s0.1-9.8,0.2-9.8s0.2,4.4,0.2,9.8S185.5,94.4,185.4,94.4z"/>
	<rect x="191.4" y="73.9" class="st0" width="13.3" height="32.9"/>
	<path class="st1" d="M177.3,62.4c0,1.2-1,2.3-2.2,2.3c-1.2,0-2.3-1-2.3-2.3c0-1.2,1-2.3,2.2-2.3c0,0,0,0,0,0
		C176.3,60.1,177.3,61.1,177.3,62.4z"/>
	<rect x="174.4" y="68.6" class="st1" width="1.4" height="32"/>
	<rect x="592.7" y="54.7" class="st1" width="83.9" height="121.6"/>
	<rect x="588.5" y="54.7" class="st0" width="83.9" height="121.6"/>
	<rect x="598.9" y="67.8" class="st3" width="63.1" height="95.3"/>
	<path class="st1" d="M662,163.1c0,0,0-0.2,0-0.5s0-0.8,0-1.4c0-1.2,0-3,0-5.2c0-4.6,0-11.2,0-19.6c0-16.8-0.1-40.6-0.1-68.6
		l0.2,0.2h-63l0,0l0.2-0.2c0,35.9,0,69.1,0,95.3l-0.2-0.2L645,163h12.7h3.3h1.2c0,0-0.4,0-1.1,0h-3.3l-12.6,0.1l-46,0.1h-0.2V163
		c0-26.2,0-59.3,0-95.3v-0.2h0.2h63h0.2v0.2c0,28.1-0.1,51.9-0.1,68.8c0,8.4,0,15-0.1,19.6c0,2.3,0,4,0,5.2v1.3
		C662,163,662,163.1,662,163.1z"/>
	<path class="st1" d="M689.6,54.7c-0.4,0.8-0.9,1.5-1.5,2.2c-1,1.3-2.4,3.1-3.9,5s-3.1,3.6-4.2,4.8c-0.6,0.7-1.2,1.3-1.8,1.9
		c0.5-0.7,1-1.4,1.6-2.1l4-4.9l4-4.9C688.4,55.9,689,55.3,689.6,54.7z"/>
	<path class="st3" d="M679.3,162.8c3.1,5,6.8,9.6,11,13.8"/>
	<path class="st1" d="M690.3,176.6c-0.7-0.5-1.3-1.1-1.9-1.7c-1.5-1.5-2.8-3.1-4.1-4.7c-1.3-1.6-2.5-3.3-3.7-5.1
		c-0.5-0.7-0.9-1.5-1.3-2.2c0.6,0.6,1.1,1.3,1.5,2.1c0.9,1.3,2.2,3.1,3.7,5s3,3.6,4,4.8C689.2,175.2,689.8,175.9,690.3,176.6z"/>
	<path class="st3" d="M605.5,176.2l11-13.6"/>
	<path class="st1" d="M616.5,162.6c-1.6,2.4-3.4,4.7-5.3,6.9c-1.8,2.3-3.7,4.5-5.7,6.6c1.6-2.4,3.4-4.7,5.3-6.9
		C612.6,167,614.5,164.7,616.5,162.6z"/>
	<path class="st1" d="M605.5,54.7c1.9,2,3.7,4.1,5.3,6.3c1.8,2.1,3.5,4.4,5,6.7c-1.9-2-3.7-4.2-5.3-6.4
		C608.7,59.2,607,57,605.5,54.7z"/>
	<rect x="621.2" y="87.2" class="st0" width="21.1" height="60"/>
	<path class="st0" d="M386,85.9c1,2.5,2.4,3.1,3.5,3.2v1c-1.4-0.1-3.5-0.1-5.3-0.1c-2.6,0-5,0-6.4,0.1v-1c2.4-0.1,3.5-0.5,3.5-1.8
		c-0.1-0.8-0.3-1.6-0.6-2.3l-3-8.1h-12l-2,5.3c-0.6,1.3-0.9,2.7-1,4.1c0,2.2,1.5,2.9,4.3,3v1c-1.9-0.1-4-0.1-5.7-0.1
		c-1.2,0-2.5,0-3.7,0.1v-1c1.3-0.3,2.8-1.3,3.9-4.3l11.7-30.1h0.8L386,85.9z M371.8,60.9l-5.7,14.8h11.2L371.8,60.9z"/>
	<path class="st0" d="M592.8,377.3c0,5,1.5,7.4,6.4,7.4v1.8c-1.8-0.2-3.5-0.2-5.2-0.2c-3-0.1-5.9,0.3-8.7,1.2v-7.5
		c-2,5-6.1,7.7-11.9,7.7c-10.5,0-17.2-7.5-17.1-22.7c-0.1-15.3,8.9-22.8,19-22.8c4,0,7.9,1.4,10.1,5v-16.3c0-5-1.5-7.4-6.4-7.4v-1.8
		c1.8,0.2,3.5,0.2,5.2,0.2c3,0.1,5.9-0.3,8.7-1.2L592.8,377.3z M585.2,375.4v-24.9c-1.6-4.5-5-6.5-9.4-6.5
		c-6.6,0-11.6,6.7-11.5,20.9c-0.1,13.6,3.9,20.2,11.4,20.2C580,385.1,583.9,381.8,585.2,375.4z"/>
	<path class="st0" d="M596.2,196.4c2.3,2.3,2.9,5,2.9,10.1v20c0,2.3,0.6,3.4,2.2,3.4c1.2-0.1,2.4-0.6,3.2-1.5l0.8,1.2
		c-2,1.5-3.5,2.6-6.6,2.6c-5,0-6.2-3-6.2-6.4c-2.2,4-6.4,6.4-11,6.4c-4.8,0-9.1-2.4-9.1-8s4.4-8.2,11.6-11.2c4.8-2,8.6-3.2,8.6-6.1
		v-4.5c0-6-2.9-7.2-6.7-7.2c-2.5,0-5.5,0.5-7.1,2.6c2,0.5,3.4,2.3,3.4,4.4c0,2.5-1.7,3.9-4.2,3.9s-3.9-1.9-3.9-4.5
		c0-2.1,1.4-3.8,3.4-5.1c3-1.8,6.5-2.8,10.1-2.7C591.6,193.7,594.6,194.7,596.2,196.4z M592.6,209.8c-0.8,1.2-2.3,1.9-6.9,4.1
		c-3.2,1.5-7,3.6-7,9.1c0,4.3,2.5,6.3,5.8,6.3c2.9,0,5.7-1.5,8.1-5.4L592.6,209.8z"/>
	<path class="st0" d="M159.1,283.9c0,12.9-7.4,19.5-16,19.5c-3.6,0-7.1-1.5-9.5-4.2l-5.1,4.4l-1.2-0.5c0.3-1.4,0.5-2.8,0.5-4.1
		v-44.1c0-4.3-1.3-6.3-5.5-6.3v-1.5c1.5,0.1,3,0.2,4.5,0.2c2.5,0.1,5.1-0.3,7.5-1v26c1.8-4.6,6.3-7.7,11.2-7.7
		C153.2,264.4,159.1,270.8,159.1,283.9z M152.1,283.9c0-11.6-2.8-17.4-8.8-17.4c-3.8,0-7.6,3-9.1,9v22.7c2.2,2.3,5.1,3.6,8.3,3.6
		C148.9,301.7,152.1,296.1,152.1,283.9L152.1,283.9z"/>
	<path class="st0" d="M112.1,221c1.1,1.8,2.8,3,4.8,3.4v1.1c-1.8-0.1-4.8-0.2-6.6-0.2c-1.3,0-3,0-5.7,0.2v-1.1
		c1.7-0.1,2.5-0.4,2.5-1.2c-0.1-0.5-0.3-0.9-0.6-1.3l-8.1-12.2c-2.2-3.3-3.2-3.9-5.8-4v13.9c0,4,0.7,4.6,4.5,4.7v1.1
		c-1.7-0.1-4.5-0.2-7-0.2c-2.9,0-5.5,0-7.1,0.2v-1.1c3.8-0.2,4.5-0.7,4.5-4.7v-27.4c0-4-0.7-4.6-4.5-4.7v-1.1
		c1.5,0.1,4.2,0.2,7.1,0.2c2.5,0,5.3-0.1,7-0.2v1.1c-3.8,0.2-4.5,0.7-4.5,4.7v12.4c2.5,0,4.8-1.1,6.3-3.1l5.3-6.7
		c1.8-2.3,2.8-4.1,2.8-5.3s-1.1-1.9-3.4-2v-1.1c2.1,0.1,4.4,0.2,6.3,0.2s3.6-0.1,4.7-0.2v1.1c-2.6,0.4-5,1.8-6.5,4l-9,11.5
		L112.1,221z"/>
</g>
<g id="freepik--Floor--inject-10">
	<path class="st4" d="M701.5,460.7c0,0,0.9,0,2.7,0h8.3v0.1L379.3,461L136,460.9l-73.7-0.1l-20,0H37h-1.8H37h5.2l20,0l73.7-0.2
		l243.4-0.1l333.1,0.2v0.1h-8.3C702.3,460.7,701.5,460.7,701.5,460.7z"/>
</g>
<g id="freepik--Plant--inject-10">
	<path class="st4" d="M643.9,426.5c0,0-4.9-33.7-4.5-53.4s0-41.7,0-41.7h2.3c0,0-1.5,39,0.1,62.5s6,32.6,6,32.6L643.9,426.5"/>
	<path class="st5" d="M658.5,293.5c-0.4-1.2-1.1-2.2-2.1-3c-1.4-0.9-3.3-0.5-4.9,0c-6.8,2.4-12.9,15.1-15.7,21.9l9.1,30.6
		C661.3,327.7,664.1,307.8,658.5,293.5z"/>
	<path class="st4" d="M655.9,291.7c0,0.1-0.1,0.3-0.1,0.4c-0.1,0.3-0.3,0.7-0.4,1.1c-0.4,1-1,2.4-1.6,4.1c-1.3,3.5-3,8.3-4.5,13.8
		s-2.6,10.5-3.2,14.2c-0.3,1.8-0.6,3.3-0.7,4.4c-0.1,0.5-0.1,0.9-0.2,1.2c0,0.1,0,0.3-0.1,0.4c0-0.1,0-0.3,0-0.4
		c0-0.3,0.1-0.7,0.1-1.2c0.1-1,0.3-2.5,0.6-4.4c0.8-4.8,1.8-9.5,3.1-14.2c1.3-4.7,2.9-9.3,4.7-13.8c0.7-1.7,1.3-3.1,1.7-4.1l0.5-1.1
		C655.7,291.9,655.8,291.8,655.9,291.7z"/>
	<path class="st5" d="M640.9,350.2c-8.5-4.7-13.5-13.5-14-23.2c-0.3-6.8,1.8-13.4,4.1-19.8c0.2-0.6,0.5-1.1,1-1.4
		c0.8-0.3,1.7-0.1,2.3,0.4c6.2,3.5,9.9,10.2,11.9,17c1.4,4.5,1.9,9.3,1.4,14C646.8,342.1,644.5,346.7,640.9,350.2"/>
	<path class="st4" d="M640.9,350.2c0-0.1,0-0.3,0-0.4c0-0.3,0-0.7,0-1.2c0-1,0-2.5-0.1-4.3c-0.2-4.7-0.8-9.4-1.6-14.1
		c-0.9-5.5-2.1-10.4-2.9-13.9c-0.4-1.7-0.8-3.1-1-4.2c-0.1-0.5-0.2-0.9-0.3-1.1c-0.1,0-0.2-0.1-0.2-0.2c0-0.1,0.1-0.2,0.2-0.2
		c0.1,0,0.2,0.1,0.2,0.2c0,0.1-0.1,0.1-0.2,0.2c0.1,0.3,0.2,0.7,0.3,1.1c0.3,1,0.7,2.4,1.1,4.2c0.9,3.5,2.1,8.4,3,13.9
		c0.8,4.7,1.3,9.4,1.5,14.1c0,1.8,0,3.3,0,4.3c0,0.5,0,0.9,0,1.2C640.9,350,640.9,350.1,640.9,350.2z"/>
	<g class="st6">
		<path d="M640.5,349.5c-8.5-4.7-13.5-13.5-14-23.2c-0.3-6.8,1.8-13.4,4.1-19.8c0.2-0.6,0.5-1.1,1-1.4c0.8-0.3,1.7-0.1,2.3,0.4
			c6.2,3.5,9.9,10.2,11.9,17c1.4,4.5,1.9,9.3,1.4,14C646.4,341.4,644.1,346,640.5,349.5"/>
	</g>
	<path class="st5" d="M650.5,401.8c8.4,1.8,15.2,7.7,23.3,10.6c5.3,1.9,11.4,2.6,15.7,6.3c-1-2.6-3.5-4.3-5.8-5.8
		c-6.6-4.2-13.7-7.5-21.1-10.1c-3.8-1.3-7.9-2.4-11.8-1.3"/>
	<path class="st5" d="M638.4,409.3c-10.5-0.2-21.5-9.1-31.9-9.6C617.3,396.2,633,399,638.4,409.3"/>
	<path class="st5" d="M642.5,384.2c5.4-1.8,11.2-2.2,16.8-1.2c5.6,1,11,2.5,16.3,4.4c-0.5-3.6-3.5-6.4-6.2-8.8c-2-1.9-4.2-3.5-6.6-5
		c-2.4-1.5-5.1-2.3-7.9-2.2c-3.4,0.2-6.5,1.8-8.7,4.4C644.1,378.1,642.8,381.1,642.5,384.2"/>
	<path class="st5" d="M621,372.6c-6.6-5.6-16.6-5.1-25.3-4.9c13.9,6.6,27.1,14.8,39.2,24.4C635.2,386,629.3,379.7,621,372.6z"/>
	<g class="st6">
		<path d="M621,372.7c-6.6-5.6-16.6-5.1-25.3-4.9c13.9,6.6,27.1,14.8,39.2,24.4C635.2,386.1,629.3,379.8,621,372.7z"/>
	</g>
	<path class="st5" d="M645.4,364.8c3.2-2.2,6.6-4.2,10.1-5.9c3.5-1.6,6.7-4.1,10.1-5.9c4.3-2.4,8.1-5.6,12.1-8.5s8.4-5.5,13.3-6.3
		c-4-0.7-8.2-0.5-12.1,0.7c-3.9,1.2-7.7,2.7-11.4,4.4c-5.2,2.3-10.4,4.7-14.6,8.5S645,359.2,645.4,364.8"/>
	<path class="st4" d="M673.6,409.3c-0.1,0-0.2-0.1-0.3-0.1l-0.9-0.5c-0.8-0.4-1.9-1-3.3-1.8c-0.7-0.4-1.5-0.8-2.3-1.2
		s-1.8-0.8-2.7-1.2c-2.1-0.9-4.2-1.7-6.5-2.2c-2.2-0.6-4.5-0.7-6.7-0.2c-1,0.2-1.9,0.5-2.8,0.9c-2,0.8-3.7,2-5.2,3.6
		c-0.6,0.6-0.9,1-0.9,1c0-0.1,0.1-0.2,0.2-0.3c0.2-0.3,0.4-0.6,0.6-0.8c0.8-1,1.8-1.8,2.9-2.5c0.7-0.5,1.5-0.9,2.3-1.2
		c0.9-0.4,1.9-0.7,2.9-0.9c2.3-0.5,4.6-0.5,6.9,0.1c2.2,0.6,4.4,1.3,6.5,2.3c1,0.4,1.9,0.9,2.7,1.3s1.6,0.8,2.3,1.2
		c1.4,0.8,2.5,1.4,3.3,1.9l0.9,0.5C673.5,409.2,673.6,409.3,673.6,409.3z"/>
	<path class="st4" d="M630.6,404.1c0.2,0,0.4,0.1,0.7,0.2c0.6,0.2,1.2,0.5,1.7,0.7c1.8,0.9,3.5,2.1,5,3.5c1.5,1.4,2.8,3.1,3.8,4.9
		c0.3,0.5,0.6,1.1,0.8,1.7c0.1,0.2,0.2,0.4,0.2,0.6c-0.1,0-0.5-0.9-1.3-2.2c-1.1-1.7-2.3-3.3-3.8-4.7c-1.5-1.4-3.1-2.6-4.9-3.6
		C631.4,404.5,630.5,404.2,630.6,404.1z"/>
	<path class="st4" d="M607.4,372.1c0.2,0,0.3,0.1,0.5,0.1l1.3,0.5l2,0.7c0.8,0.3,1.6,0.7,2.6,1.1c4.9,2.3,9.5,5.2,13.6,8.7
		c2.3,1.9,4.4,4,6.4,6.3c1.6,1.8,3.1,3.7,4.5,5.7c1.2,1.7,2.1,3.1,2.7,4.1c0.3,0.5,0.5,0.8,0.7,1.1c0.1,0.1,0.2,0.3,0.2,0.4
		c-0.1-0.1-0.2-0.2-0.3-0.4c-0.2-0.2-0.5-0.6-0.8-1.1c-0.7-1-1.6-2.3-2.8-4s-2.8-3.6-4.6-5.6c-2-2.2-4.1-4.3-6.3-6.2
		c-4.1-3.5-8.7-6.4-13.5-8.7c-0.9-0.4-1.8-0.9-2.5-1.2l-2-0.8l-1.2-0.5C607.6,372.2,607.5,372.1,607.4,372.1z"/>
	<path class="st4" d="M658.2,378.3c-0.3,0-0.6,0-0.8-0.1l-1-0.2c-0.4-0.1-0.8-0.1-1.3-0.1c-2.5-0.2-5,0.3-7.2,1.4
		c-1.2,0.6-2.3,1.5-3.3,2.4c-0.8,0.8-1.5,1.7-2.1,2.6c-0.5,0.9-1,1.8-1.4,2.8c0-0.3,0.1-0.6,0.2-0.8c0.3-0.7,0.6-1.4,1-2.1
		c0.6-1,1.3-1.9,2.1-2.7c1-1,2.1-1.9,3.3-2.5c2.3-1.2,4.8-1.7,7.4-1.4c0.4,0,0.9,0.1,1.3,0.2l1,0.2
		C657.7,378.1,657.9,378.2,658.2,378.3z"/>
	<path class="st4" d="M668.7,345.6c-0.1,0.1-0.3,0.2-0.4,0.2l-1.2,0.6c-1,0.5-2.5,1.4-4.3,2.4s-3.8,2.4-6.1,4
		c-2.4,1.7-4.7,3.6-6.8,5.7c-1.1,1.1-2,2.3-2.8,3.6c-0.7,1.3-1.3,2.6-2,3.8c-1.1,2.2-2.1,4.4-2.9,6.6c-0.6,1.5-1,3.1-1.4,4.7
		c-0.3,1.1-0.4,1.8-0.4,1.7c0-0.2,0-0.3,0-0.5c0-0.3,0.1-0.8,0.2-1.3c0.3-1.6,0.8-3.2,1.3-4.7c0.8-2.3,1.8-4.5,2.8-6.7
		c0.6-1.2,1.2-2.5,1.9-3.8c0.8-1.3,1.7-2.6,2.8-3.7c2.1-2.1,4.4-4,6.8-5.7c2.2-1.6,4.3-2.9,6.1-3.9s3.3-1.8,4.3-2.3l1.2-0.6
		C668.4,345.7,668.6,345.6,668.7,345.6z"/>
	<path class="st4" d="M639.3,377.3c-0.1-0.3-0.2-0.6-0.2-0.9c-0.1-0.6-0.3-1.5-0.5-2.4c-1-5.3-2.7-10.5-5-15.4l-1-2.2
		c-0.1-0.3-0.2-0.6-0.3-0.9c0.2,0.2,0.3,0.5,0.5,0.8c0.3,0.5,0.7,1.3,1.1,2.2c2.5,4.9,4.2,10.1,5,15.5c0.2,1,0.3,1.9,0.3,2.5
		C639.3,376.7,639.4,377,639.3,377.3z"/>
	<path class="st5" d="M638.6,353.5c-0.3-4-1.5-7.8-3.4-11.3c-5.2-9.7-14.5-16.6-25.3-18.9l23.4,34.9l3,6.2
		C638.4,361.1,638.8,357.4,638.6,353.5z"/>
	<rect x="617.7" y="422.3" class="st7" width="54.5" height="9.7"/>
	<polygon class="st7" points="621.8,430.1 626.4,460 662.6,460 668.1,430.1 	"/>
	<path class="st4" d="M672.2,432c0,0.1-12.3,0.2-27.5,0.2s-27.5-0.1-27.5-0.2s12.3-0.2,27.5-0.2S672.2,431.9,672.2,432z"/>
</g>
<g id="freepik--Books--inject-10">
	<path class="st7" d="M174.9,379.2h-73c-11.2,0-20.3-9.1-20.3-20.3c0,0,0,0,0,0l0,0c0-11.2,9.1-20.3,20.3-20.3c0,0,0,0,0,0h73
		L174.9,379.2z"/>
	<path class="st7" d="M154.7,338.6h162.8c1.6,0,2.9,1.3,2.9,2.9v0.9c0,1.6-1.3,2.9-2.9,2.9H154.7l0,0V338.6L154.7,338.6z"/>
	<path class="st7" d="M154.7,372.4h162.8c1.6,0,2.9,1.3,2.9,2.9v0.9c0,1.6-1.3,2.9-2.9,2.9H154.7l0,0V372.4L154.7,372.4z"/>
	<path class="st2" d="M315.5,372.4H173.2c-7.5,0-13.5-6.1-13.6-13.5c0,0,0,0,0,0l0,0c0-7.5,6.1-13.5,13.5-13.5c0,0,0,0,0,0h142.3
		C311.6,354,311.6,363.8,315.5,372.4z"/>
	<g class="st6">
		<path d="M159.6,379.2H102c-11.2,0-20.4-9.1-20.4-20.3c0,0,0,0,0-0.1l0,0c0-11.2,9.1-20.2,20.2-20.2h59.4
			C146.5,347.5,147.6,368.8,159.6,379.2z"/>
	</g>
	<path class="st4" d="M298.2,360.1c0,0.1-29.2,0.2-65.2,0.2s-65.2-0.1-65.2-0.2s29.2-0.2,65.2-0.2S298.2,360,298.2,360.1z"/>
	<path class="st4" d="M311.6,366.2c0,0.1-29.2,0.2-65.2,0.2s-65.2-0.1-65.2-0.2s29.2-0.2,65.2-0.2S311.6,366,311.6,366.2z"/>
	<path class="st4" d="M307.6,351.6c0,0.1-29.2,0.2-65.2,0.2s-65.2-0.1-65.2-0.2s29.2-0.2,65.2-0.2S307.6,351.5,307.6,351.6z"/>
	<path class="st4" d="M152.5,376.3c0,0.1-13.7,0.2-30.5,0.2s-30.5-0.1-30.5-0.2s13.7-0.2,30.5-0.2S152.5,376.2,152.5,376.3z"/>
	<path class="st4" d="M152.5,342c0,0.1-13.7,0.2-30.5,0.2s-30.5-0.1-30.5-0.2s13.7-0.2,30.5-0.2S152.5,341.8,152.5,342z"/>
	<path class="st7" d="M73.1,407.6h94.6l0,0v52.2l0,0H73.1c-14.1,0-25.6-11.5-25.6-25.6v-1C47.5,419.1,58.9,407.7,73.1,407.6
		C73.1,407.6,73.1,407.6,73.1,407.6z"/>
	<path class="st7" d="M141.6,407.6h210.5c1.6,0,2.9,1.3,2.9,2.9v2.8c0,1.6-1.3,2.9-2.9,2.9H141.6l0,0V407.6L141.6,407.6z"/>
	<path class="st7" d="M141.6,451.2h210.5c1.6,0,2.9,1.3,2.9,2.9v2.9c0,1.6-1.3,2.9-2.9,2.9H141.6l0,0V451.2L141.6,451.2z"/>
	<path class="st2" d="M348.6,451.2H165.4c-9.6,0-17.4-7.8-17.4-17.4l0,0c0-9.6,7.8-17.5,17.4-17.5l0,0h183.2
		C343.7,427.4,343.7,440.1,348.6,451.2z"/>
	<g class="st8">
		<path d="M148,459.9H73.3c-14.3,0-25.8-11.6-25.8-25.8c0,0,0,0,0,0l0,0c0-14.6,11.8-26.4,26.4-26.4H150
			C131.1,419.1,132.5,446.5,148,459.9z"/>
	</g>
	<path class="st4" d="M326.4,435.4c0,0.1-37.6,0.2-84,0.2s-84-0.1-84-0.2s37.6-0.2,84-0.2S326.4,435.2,326.4,435.4z"/>
	<path class="st4" d="M343.7,443.1c0,0.1-37.6,0.2-84,0.2s-84-0.1-84-0.2s37.6-0.2,84-0.2S343.7,443,343.7,443.1z"/>
	<path class="st4" d="M338.6,428.2c0,0.1-37.6,0.2-84,0.2s-84-0.1-84-0.2s37.6-0.2,84-0.2S338.6,428,338.6,428.2z"/>
	<path class="st4" d="M138.8,456.2c0,0.1-17.6,0.2-39.3,0.2s-39.3-0.1-39.3-0.2s17.6-0.2,39.3-0.2S138.8,456.1,138.8,456.2z"/>
	<path class="st4" d="M138.8,412c0,0.1-17.6,0.2-39.3,0.2s-39.3-0.1-39.3-0.2s17.6-0.2,39.3-0.2S138.8,411.8,138.8,412z"/>
	<path class="st9" d="M198.8,407.8h-82.7c-8.3,0-15-6.7-15-15l0,0c0-8.3,6.7-15,15-15h82.7V407.8z"/>
	<path class="st9" d="M177.7,377.9H348c1.7,0,3.1,1.4,3.1,3.1l0,0v0.9c0,1.7-1.4,3.1-3,3.1c0,0,0,0,0,0H177.7l0,0V377.9L177.7,377.9
		L177.7,377.9z"/>
	<path class="st9" d="M177.7,400.8H348c1.7,0,3.1,1.4,3.1,3.1l0,0v0.9c0,1.7-1.4,3.1-3.1,3.1l0,0H177.7l0,0V400.8L177.7,400.8z"/>
	<path class="st2" d="M345.9,400.8H190.8c-4.4,0-7.9-3.5-7.9-7.9l0,0l0,0c0-4.4,3.5-7.9,7.9-7.9c0,0,0,0,0,0h155.1
		C341.9,390.2,341.9,395.5,345.9,400.8z"/>
	<g class="st6">
		<path d="M182.9,407.8h-66.8c-8.2,0-14.8-6.6-14.8-14.8c0,0,0,0,0,0l0,0c0-8.3,6.8-15.1,15.1-15.1h68.2
			C169.1,384.5,170.3,400.2,182.9,407.8z"/>
	</g>
	<path class="st4" d="M327.8,391.6c0,0.1-30.6,0.2-68.2,0.2s-68.2-0.1-68.2-0.2s30.6-0.2,68.2-0.2S327.8,391.5,327.8,391.6z"/>
	<path class="st4" d="M341.9,395.9c0,0.1-30.5,0.2-68.2,0.2s-68.2-0.1-68.2-0.2s30.5-0.2,68.2-0.2S341.9,395.8,341.9,395.9z"/>
	<path class="st4" d="M175.4,404.9c0,0.1-14.3,0.2-31.9,0.2s-31.9-0.1-31.9-0.2s14.3-0.2,31.9-0.2S175.4,404.7,175.4,404.9z"/>
	<path class="st4" d="M175.4,381.4c0,0.1-14.3,0.2-31.9,0.2s-31.9-0.1-31.9-0.2s14.3-0.2,31.9-0.2S175.4,381.3,175.4,381.4z"/>
	<path class="st4" d="M349,377.9c0,0.1-52.5,0.2-117.2,0.2s-117.2-0.1-117.2-0.2s52.4-0.2,117.2-0.2S349,377.8,349,377.9z"/>
	<polygon class="st5" points="219.9,351.8 219.9,368 225.6,364.4 231.9,368 231.9,351.8 	"/>
</g>
<g id="freepik--Letters--inject-10">
	<path class="st4" d="M270.9,251.5c-4.6,0.2-5.5,0.9-5.5,5.8v33.4c0,4.9,0.9,5.6,5.5,5.8v1.4c-2.1-0.1-5.5-0.2-8.6-0.2
		c-3.5,0-6.7,0.1-8.6,0.2v-1.4c4.6-0.2,5.4-0.9,5.4-5.8v-36.1l-16.2,43.5h-1.1l-17-43.7V290c0,4.9,0.9,6.3,6.1,6.5v1.4
		c-1.6-0.1-4.6-0.2-6.9-0.2s-4.8,0.1-6.2,0.2v-1.3c4.6-0.2,5.5-1.5,5.5-6.5v-32.8c0-4.9-0.9-5.6-5.5-5.8v-1.4c1.5,0.1,4,0.2,6.2,0.2
		c2,0,4.3-0.1,5.8-0.2l14.8,39.1l14.5-38.9h3.2c3.1,0,6.5-0.1,8.6-0.2L270.9,251.5z"/>
	<path class="st4" d="M202.1,316.6c3.1,0,5.8,1.1,5.8,4.6c0,4.4-4.3,10.2-13.9,10.2c-5,0-10-1.5-10-4.6c0-2.4,3.1-4.6,6.2-6.1H190
		c-1.8,0-5-0.5-5-3.8c0-2.1,1.5-4.1,6.2-6.3c-2.8-1.1-4.6-3.4-4.6-7.1c0-5.5,3.9-7.8,9.2-7.8c1.2,0,2.4,0.1,3.5,0.4
		c0.2-1.6,0.8-3.1,1.8-4.4c0.8-1.1,2.1-1.7,3.4-1.6c1.3-0.1,2.5,0.9,2.6,2.2c0,0.1,0,0.2,0,0.4c0,1.3-1,2.3-2.3,2.4c0,0-0.1,0-0.1,0
		c-1.8,0-2.3-1.2-2.6-3.1c-0.6,0.7-1.1,1.5-1.3,2.4c-0.2,0.7-0.4,1.4-0.5,2.1c3,1,5,3.9,4.8,7.1c0,5.5-4,7.9-9.2,7.9
		c-1.2,0-2.5-0.1-3.7-0.5c-2.2,1.2-4.2,2.4-4.2,3.9c0,1.1,0.7,1.6,2.4,1.6L202.1,316.6z M204.5,323.6c0-1.8-0.8-2.8-3.8-2.8h-9.2
		c-2,0.9-3.2,2.8-3.4,5c0,3.4,3.9,4.8,7.3,4.8C199.5,330.6,204.5,328.4,204.5,323.6L204.5,323.6z M191.3,303.7c0,5.3,1.7,7,4.5,7
		s4.5-1.6,4.5-7s-1.8-7-4.5-7S191.3,298.4,191.3,303.7z"/>
	<path class="st4" d="M554.8,233.7c0,3.2-1.5,6.5-5.1,6.5c-1,0-2-0.4-2.6-1.2v2.8c0,1.3,0.8,1.6,2.1,1.6v0.5c-0.7,0-1.9-0.1-3.2-0.1
		c-0.9,0-1.9,0.1-2.4,0.1v-0.5c1.1,0,1.5-0.3,1.5-1.4v-11.2c0-1.3-0.4-1.9-1.7-1.9v-0.5c0.5,0,0.9,0.1,1.4,0.1
		c0.8,0,1.6-0.1,2.3-0.3v2.3c0.6-1.5,2-2.4,3.5-2.4C553.1,228.2,554.8,230.1,554.8,233.7z M552.7,234c0-3.5-0.9-5.1-2.6-5.1
		c-1.3,0-2.5,0.9-2.9,2.8v6.6c0.4,0.9,1.4,1.5,2.3,1.4C552,239.7,552.7,237.1,552.7,234L552.7,234z"/>
	<path class="st4" d="M571.5,263.5c0.9,0.7,1.4,1.7,1.4,2.8c0.1,1.3-0.9,2.3-2.2,2.4c-0.1,0-0.1,0-0.2,0c-1.3,0.1-2.4-0.9-2.5-2.2
		c0-0.1,0-0.1,0-0.2c0-1.1,0.8-2.1,1.9-2.3c-0.2-0.5-0.9-1-2.2-1c-1.2,0-2.4,0.6-2.9,1.7c-0.7,1.2-0.8,3.4-0.8,8.6v1.2h4.8v0.9h-4.8
		V293c0,2.9,1.8,3.7,4.8,3.7v0.9c-1.4,0-4.1-0.2-6.9-0.2c-2.1,0-4.3,0.1-5.3,0.2v-0.9c2.5,0,3.4-0.7,3.4-3.2v-18.1h-3.6v-0.9h3.6
		c0-5.3,0.6-7.8,2.3-9.8c1.4-1.5,3.3-2.3,5.3-2.3C569,262.3,570.3,262.7,571.5,263.5z"/>
	<path class="st4" d="M269.6,316.7v0.5c-0.6,0.1-1.3,0.6-1.8,2l-5.3,13.7h-0.4l-5.5-14.2c-0.5-1.1-1.1-1.4-1.6-1.5v-0.5
		c0.6,0,1.6,0.1,2.4,0.1c1.2,0,2.3,0,2.9-0.1v0.5c-1.1,0-1.6,0.2-1.6,0.8c0,0.4,0.1,0.7,0.3,1.1l4.1,10.9l3.7-9.6
		c0.3-0.6,0.4-1.2,0.5-1.9c0-1-0.7-1.3-2-1.4v-0.5c0.9,0,1.8,0.1,2.6,0.1C268.5,316.8,269.1,316.8,269.6,316.7z"/>
	<path class="st4" d="M235.1,319.3c3.4,0.5,4.3,2.1,4.3,3.8c0,2.4-1.9,4.1-5.1,4.1c-0.6,0-1.9-0.1-3.6-0.1c-1,0-2,0-2.6,0.1v-0.4
		c1.4-0.1,1.7-0.3,1.7-1.8v-10.5c0-1.5-0.3-1.8-1.7-1.8v-0.4c0.6,0,1.6,0.1,2.6,0.1c1.3,0,2.7,0,3.2,0c3,0,4.5,1.4,4.5,3.3
		C238.3,317.1,237.4,318.5,235.1,319.3L235.1,319.3z M231.7,314.4v4.8h1.4c2.5,0,3.1-1.6,3.1-3.5c0-2.1-0.9-3.1-3-3.1
		C232,312.6,231.7,313,231.7,314.4L231.7,314.4z M237.3,323c0-2.1-1.1-3.4-3.8-3.4h-1.8v5.4c0,1.5,0.3,1.8,1.6,1.8
		C236.1,326.7,237.3,325.4,237.3,323L237.3,323z"/>
	<path class="st4" d="M447.3,244.3c0.5-1.6,2-2.6,3.6-2.5c0.8-0.1,1.6,0.2,2.2,0.8c0.6,0.8,0.9,1.8,0.8,2.8v5.6
		c0,1.2,0.4,1.5,1.6,1.5v0.5c-0.5,0-1.6-0.1-2.5-0.1s-1.9,0.1-2.4,0.1v-0.4c1,0,1.4-0.3,1.4-1.5v-6.1c0-1.3-0.2-2.4-1.7-2.4
		c-1.7,0-3,1.6-3,3.8v4.7c0,1.2,0.4,1.5,1.4,1.5v0.5c-0.4,0-1.4-0.1-2.4-0.1s-2.1,0.1-2.5,0.1v-0.4c1.2,0,1.6-0.3,1.6-1.5v-12
		c0-1.3-0.4-1.9-1.6-1.9v-0.4c0.4,0,0.9,0.1,1.3,0.1c0.7,0,1.5-0.1,2.2-0.3L447.3,244.3z"/>
	<path class="st4" d="M205.2,259.8c0.5-1.6,2-2.6,3.6-2.5c0.8-0.1,1.6,0.2,2.2,0.8c0.6,0.8,0.9,1.8,0.7,2.8v5.6
		c0,1.2,0.4,1.5,1.6,1.5v0.4c-0.5,0-1.6-0.1-2.5-0.1s-1.9,0.1-2.4,0.1V268c1,0,1.4-0.4,1.4-1.5v-6.1c0-1.3-0.2-2.4-1.7-2.4
		c-1.7,0-3,1.6-3,3.8v4.7c0,1.2,0.4,1.5,1.4,1.5v0.4c-0.4,0-1.4-0.1-2.4-0.1s-2,0.1-2.5,0.1V268c1.2,0,1.6-0.4,1.6-1.5v-12.1
		c0-1.3-0.4-1.9-1.6-1.9v-0.4c0.4,0,0.9,0.1,1.3,0.1c0.7,0,1.5-0.1,2.2-0.3L205.2,259.8z"/>
	<path class="st4" d="M559.5,330.1c0.3,0.5,0.6,0.8,1.1,0.8v0.3c-0.2,0-0.8-0.1-1.2-0.1c-0.7,0-1.4,0-1.7,0.1v-0.3
		c0.3,0,0.5-0.1,0.5-0.3c0-0.1,0-0.2-0.1-0.2l-1.8-2.6c-0.2-0.4-0.7-0.7-1.2-0.7v2.7c0,0.9,0.3,1.1,1,1.1v0.3
		c-0.3,0-1.1-0.1-1.7-0.1s-1.5,0-1.9,0.1v-0.3c0.8,0,1.2-0.2,1.2-1.1V321c0-0.9-0.3-1.4-1.2-1.4v-0.3c0.3,0,0.7,0,1,0
		c0.5,0,1.1-0.1,1.6-0.2v7.6c0.5,0,1-0.3,1.3-0.6l1.1-1.2c0.3-0.2,0.4-0.5,0.5-0.9c0-0.4-0.5-0.5-1.1-0.5v-0.3
		c0.5,0,1.3,0.1,1.7,0.1s1,0,1.3-0.1v0.3c-0.5,0.1-1,0.3-1.4,0.7l-1.9,2L559.5,330.1z"/>
	<path class="st4" d="M595.5,284.6c-0.2,0.7-0.5,1.3-1,1.8c-0.6,0.5-1.3,0.7-2.1,0.7c-1.6,0-3-1-4.9-1.6l-0.4-0.1
		c-0.4,0.1-0.8,0.2-1.3,0.2c-0.4,0-0.7-0.1-0.7-0.3s0.3-0.3,0.8-0.3c0.4,0,0.8,0,1.2,0.1c0.6-0.2,1.2-0.4,1.7-0.7
		c-2.6-0.2-4.3-2.3-4.3-5.5c0-3.4,2-5.8,4.9-5.8s4.9,2,4.9,5.6c0,3.2-1.8,5.5-4.4,5.7l0,0c-0.8,0.2-1.5,0.4-2.3,0.8
		c1.6,0.4,3.2,0.6,4.9,0.7c1.5,0,2.3-0.4,2.7-1.3L595.5,284.6z M589.5,284.1c2,0,3.3-2.2,3.3-5.4s-1.5-5.4-3.4-5.4s-3.3,2.2-3.3,5.4
		S587.6,284.1,589.5,284.1L589.5,284.1z"/>
	<path class="st4" d="M379.7,173.5c3.1,0,5.8,1.1,5.8,4.6c0,4.4-4.3,10.2-13.9,10.2c-5,0-10-1.5-10-4.6c0-2.4,3.1-4.6,6.2-6.1h-0.2
		c-1.8,0-5-0.5-5-3.8c0-2.1,1.5-4.1,6.2-6.3c-2.8-1.1-4.6-3.4-4.6-7.1c0-5.5,4-7.8,9.2-7.8c1.2,0,2.4,0.1,3.5,0.4
		c0.2-1.6,0.8-3.1,1.8-4.4c0.8-1.1,2.1-1.7,3.4-1.6c1.3-0.1,2.5,0.9,2.6,2.2c0,0.1,0,0.2,0,0.4c0,1.3-1,2.3-2.3,2.4c0,0-0.1,0-0.1,0
		c-1.8,0-2.3-1.2-2.6-3.1c-0.6,0.7-1.1,1.5-1.3,2.4c-0.2,0.7-0.4,1.4-0.5,2.1c3,1,5,3.9,4.8,7.1c0,5.4-4,7.9-9.2,7.9
		c-1.2,0-2.5-0.1-3.7-0.5c-2.2,1.2-4.2,2.4-4.2,3.9c0,1.1,0.7,1.6,2.4,1.6L379.7,173.5z M382.1,180.4c0-1.8-0.8-2.8-3.8-2.8h-9.2
		c-2,0.9-3.2,2.8-3.4,5c0,3.4,3.9,4.8,7.2,4.8C377.1,187.4,382.1,185.2,382.1,180.4L382.1,180.4z M369,160.5c0,5.3,1.8,7,4.5,7
		s4.5-1.6,4.5-7s-1.7-7-4.5-7S369,155.2,369,160.5z"/>
	<path class="st4" d="M302.2,140.9c0,16.5-10,27.4-27.4,27.4c-2.3,0-7.4-0.2-10.6-0.2c-3.6,0-7.3,0.1-9.4,0.2v-1.5
		c5.1-0.2,6.1-1,6.1-6.5v-37.6c0-5.5-1-6.3-6.1-6.5v-1.5c1.7,0.1,4.6,0.3,7.4,0.3c0.6,0,1.2,0,1.9,0c3.5-0.1,8.5-0.2,11.4-0.2
		C293.5,114.7,302.2,124,302.2,140.9z M267.9,122.5v37.9c0,5.3,1,6.5,5.7,6.5c16.5,0,21-9.2,21-25.7c0-17-5.4-25.2-21-25.2
		C268.9,116,267.9,117.3,267.9,122.5z"/>
	<path class="st4" d="M325.3,162.2c-1,0-1.2,0.2-1.2,1.3v7.4c0,1.1,0.2,1.2,1.2,1.2h1.1c1.9,0,2.2-0.7,2.4-2.8h0.3
		c0,0.3,0,0.7,0,1.2s0,1.1,0.1,1.9c-1,0-2.4,0-3.4,0s-2.9,0-4.3,0v-0.3c1,0,1.2-0.2,1.2-1.3v-7.4c0-1.1-0.2-1.2-1.2-1.3v-0.3
		c0.4,0,1.1,0,1.9,0s1.4,0,1.9,0V162.2z"/>
	<path class="st4" d="M361.9,133.3c0,10.1-6,16.9-14.3,16.9c-8.6,0-14.3-6-14.3-16.3c0-10.1,5.9-16.9,14.3-16.9
		C356.2,117,361.9,123,361.9,133.3z M337.8,133.7c0,9.6,4.4,15.7,10,15.7c5.9,0,9.6-6.5,9.6-15.9c0-9.6-4.4-15.7-10-15.7
		C341.6,117.8,337.8,124.3,337.8,133.7z"/>
	<path class="st4" d="M410.2,166.9c-0.6,1.7-2.2,2.8-4,2.8c-3.1,0-4.9-2.2-4.9-5.5c0-3.7,1.9-6,4.8-6c2.5,0,4,1.5,4,4.6h-6.6
		c-0.1,0.4-0.1,0.9-0.1,1.4c0,2.9,1.6,4.6,3.2,4.6c1.4,0,2.6-0.8,3.1-2.1L410.2,166.9z M403.5,162.5h4.6c0.1-2.1-0.6-3.9-2-3.9
		C404.8,158.6,403.7,159.8,403.5,162.5L403.5,162.5z"/>
	<path class="st4" d="M324,116.7c0.5,0.7,0.9,1,1.5,1.1v0.4c-0.3,0-1.1-0.1-1.7-0.1c-0.9,0-1.9,0.1-2.4,0.1v-0.4
		c0.4,0,0.6-0.2,0.6-0.4c0-0.1,0-0.2-0.1-0.3l-2.4-3.6c-0.3-0.6-0.9-0.9-1.6-0.9v3.7c0,1.2,0.4,1.5,1.4,1.5v0.4
		c-0.5,0-1.5-0.1-2.4-0.1s-2.1,0.1-2.6,0.1v-0.4c1.2,0,1.6-0.3,1.6-1.5v-12.1c0-1.3-0.4-1.9-1.6-1.9v-0.4c0.4,0,0.9,0.1,1.3,0.1
		c0.7,0,1.5-0.1,2.2-0.3v10.5c0.7-0.1,1.3-0.4,1.8-0.9l1.6-1.6c0.4-0.3,0.6-0.7,0.7-1.2c0-0.5-0.7-0.7-1.6-0.7v-0.4
		c0.7,0,1.8,0.1,2.4,0.1s1.4,0,1.8-0.1v0.4c-0.7,0.1-1.4,0.4-1.9,1l-2.6,2.7L324,116.7z"/>
</g>
<g id="freepik--Paper--inject-10">
	<path class="st1" d="M164.8,232.9l90.8,2.3c0,0-29.5-71.9-72.5-48.6C183.1,186.6,165.3,196.2,164.8,232.9z"/>
	<path class="st3" d="M196.8,181.9c0,0,47.2-2.5,64.9,86.1c15.4,77.2,27.9,191.7,104,193.2s143.5,0,143.5,0h30.7
		c-76.1-1.5-88.3-116.1-104-193.2S371,181.9,371,181.9H196.8"/>
	<path class="st4" d="M196.8,181.9h3h8.9l34.5-0.1l127.8-0.1l0,0c5.6,1.4,11,3.7,16,6.7c5.2,3.1,10,6.7,14.4,10.9
		c9.2,8.9,16.8,19.3,22.2,30.9c2.9,6,5.4,12.3,7.4,18.7c2.1,6.6,3.8,13.3,5.2,20.1c2.8,13.7,5.3,27.9,8.1,42.4s5.9,29.3,9.6,44.3
		c3.7,15.3,8.5,30.4,14.5,45c3.1,7.5,6.8,14.7,10.9,21.7c4.2,7.1,9.3,13.6,15.1,19.4c5.9,5.9,12.9,10.7,20.6,14
		c7.8,3.3,16.2,5.1,24.7,5.2v0.5H511c-3.3,0-6.5,0.1-9.8,0.1c-13.2,0.2-26.6,0.4-40.1,0.4c-27.4,0.2-54.4,0-80.9-0.3l-9.9-0.2
		c-3.3-0.1-6.6-0.1-9.9-0.4c-3.3-0.3-6.5-0.8-9.7-1.6c-3.2-0.7-6.3-1.7-9.3-3c-3-1.2-5.9-2.7-8.6-4.4c-2.8-1.7-5.4-3.5-7.9-5.6
		c-2.5-2-4.8-4.2-7-6.5c-2.2-2.3-4.3-4.7-6.2-7.2c-7.7-10-13.5-21.2-18.2-32.5c-4.6-11.2-8.4-22.7-11.6-34.3
		c-6.3-23-10.6-45.6-14.7-67.3s-7.3-42.8-14.4-61.6c-3.3-9.2-7.7-18.1-13.1-26.3c-5-7.8-11.5-14.6-19-20c-3.6-2.5-7.5-4.6-11.7-6.2
		c-2-0.8-4.1-1.4-6.2-1.8c-2.1-0.5-4.2-0.7-6.3-0.7c-4.1,0.4-8.1,1.5-11.7,3.4c-3.5,1.9-6.6,4.4-9.1,7.4c-2.4,2.9-4.4,6.2-5.9,9.7
		c-1.5,3.3-2.6,6.8-3.4,10.4c-0.8,3.4-1.3,6.9-1.6,10.3c-0.3,3.3-0.4,6.6-0.3,9.9l-0.1-0.1c14.1,0,26.7,0.3,37.6,0.6l27.6,0.8
		l22.8,0.6c0,0-0.5,0-1.5,0l-4.3-0.1l-17-0.4L202,234c-10.9-0.3-23.5-0.5-37.6-0.5h-0.1v-0.1c-0.1-3.3,0-6.7,0.3-10
		c0.3-3.5,0.9-6.9,1.6-10.3c0.8-3.6,2-7.1,3.4-10.5c1.5-3.5,3.5-6.8,6-9.8c2.6-3.1,5.7-5.6,9.2-7.5c3.7-1.9,7.7-3.1,11.9-3.5
		c2.1,0,4.3,0.2,6.4,0.7c2.1,0.4,4.2,1,6.2,1.8c4.2,1.6,8.1,3.6,11.8,6.2c7.6,5.4,14.1,12.2,19.1,20.1c5.4,8.2,9.8,17.1,13.1,26.4
		c3.5,9.7,6.3,19.7,8.4,29.9c2.1,10.4,4,21,6.1,31.9c4.1,21.7,8.4,44.3,14.7,67.2c3.1,11.6,7,23.1,11.5,34.2
		c4.8,11.3,10.5,22.4,18.2,32.4c1.9,2.5,4,4.9,6.1,7.2c2.2,2.3,4.5,4.5,7,6.5c2.5,2,5.1,3.9,7.8,5.5c2.7,1.7,5.6,3.1,8.6,4.4
		c3,1.3,6.1,2.3,9.2,3c3.2,0.8,6.4,1.3,9.6,1.6c3.2,0.3,6.5,0.3,9.8,0.4l9.9,0.2c26.4,0.4,53.4,0.5,80.9,0.3
		c13.5-0.1,26.9-0.2,40-0.4c3.3,0,6.6-0.2,9.8-0.1h28.9v0.5c-8.6-0.1-17-1.9-24.9-5.2c-7.7-3.4-14.8-8.2-20.7-14.2
		c-5.8-5.9-10.9-12.4-15.2-19.5c-4.2-7-7.8-14.2-11-21.8c-5.9-14.6-10.8-29.7-14.5-45c-3.8-15-6.8-29.8-9.6-44.3s-5.4-28.7-8.1-42.4
		c-1.4-6.8-3.1-13.4-5.2-20c-2-6.4-4.5-12.6-7.4-18.6c-5.4-11.5-12.9-22-22.1-30.8c-4.4-4.1-9.2-7.8-14.4-10.8
		c-4.9-3-10.3-5.3-15.8-6.7l0,0H243.2h-34.5h-8.9L196.8,181.9z"/>
	<path class="st1" d="M424.6,425.9c0.3,18.1-13.4,33.5-31.4,35.2l185.6,1.2c27.8,0,29.2-36.5,29.2-36.5H424.6z"/>
	<path class="st4" d="M581.1,462.4l0.9-0.1c0.9-0.1,1.7-0.2,2.5-0.4c3.2-0.6,6.3-1.9,9-3.9c4.2-3.1,7.4-7.3,9.5-12.2
		c2.8-6.3,4.4-13.1,4.8-20l0.2,0.2l-93.8,0.1h-89.6l0.2-0.2c0,4-0.7,7.9-2,11.6c-1.2,3.3-2.9,6.5-4.9,9.4
		c-5.4,7.7-13.8,12.8-23.1,14.2c-1.2,0.2-2.5,0.3-3.8,0.3l1-0.1c0.6,0,1.6-0.1,2.8-0.4c3.5-0.6,7-1.7,10.2-3.4
		c5.1-2.6,9.4-6.4,12.6-11c2-2.9,3.6-6,4.8-9.3c1.3-3.7,2-7.6,1.9-11.5v-0.2h0.2l89.6-0.1H608h0.2v0.2c-0.2,3.7-0.8,7.3-1.7,10.8
		c-0.8,3.2-1.8,6.3-3.2,9.2c-2.1,4.9-5.4,9.1-9.7,12.2c-2.7,1.9-5.8,3.2-9.1,3.8c-0.8,0.2-1.7,0.3-2.6,0.3
		C581.4,462.4,581.1,462.4,581.1,462.4z"/>
	<path class="st5" d="M382.8,213c0,0.1-27.7,0.3-61.9,0.3S259,213.1,259,213s27.7-0.3,61.9-0.3S382.8,212.8,382.8,213z"/>
	<path class="st5" d="M382.8,225.4c0,0.1-26.6,0.3-59.4,0.3s-59.4-0.1-59.4-0.3s26.6-0.3,59.4-0.3S382.8,225.3,382.8,225.4z"/>
	<path class="st5" d="M379.7,236.6c0,0.1-24.6,0.3-55.1,0.3s-55.1-0.1-55.1-0.3s24.6-0.3,55.1-0.3S379.7,236.4,379.7,236.6z"/>
</g>
<g id="freepik--speech-bubble--inject-10">
	
		<ellipse transform="matrix(0.9946 -0.1035 0.1035 0.9946 -8.1915 45.7582)" class="st3" cx="436.9" cy="101.8" rx="27.2" ry="27.2"/>
	<path class="st4" d="M446.2,127.4c-0.1,0.1-0.3,0.1-0.4,0.2l-1.2,0.4l-0.9,0.3c-0.3,0.1-0.7,0.2-1.1,0.2c-0.9,0.2-1.9,0.4-2.9,0.5
		c-2.6,0.3-5.3,0.2-7.9-0.3c-3.5-0.6-6.7-1.9-9.7-3.8c-3.6-2.3-6.6-5.4-8.8-9.1c-2.5-4.2-3.8-9.1-3.8-14c0-1.3,0.1-2.6,0.2-3.9
		c0.1-0.7,0.2-1.3,0.4-2c0.1-0.7,0.3-1.3,0.5-2c0.4-1.3,0.9-2.5,1.5-3.7c0.6-1.2,1.3-2.5,2-3.6c1.6-2.4,3.5-4.5,5.8-6.3
		c4.6-3.7,10.4-5.8,16.3-5.9c2.9-0.1,5.7,0.3,8.5,1.1c1.3,0.4,2.6,0.9,3.9,1.4c1.2,0.6,2.4,1.3,3.6,2c0.6,0.4,1.1,0.7,1.6,1.2
		c0.5,0.4,1,0.8,1.5,1.3c1,0.9,1.9,1.8,2.7,2.8c6,7.2,7.9,16.9,5.1,25.8c-1.1,3.4-2.8,6.5-5,9.2c-1.7,2-3.6,3.8-5.9,5.3
		c-0.8,0.5-1.6,1-2.5,1.5c-0.4,0.2-0.7,0.4-1,0.5l-0.9,0.4l-1.2,0.5C446.4,127.4,446.3,127.4,446.2,127.4l0.4-0.2l1.2-0.5l0.9-0.4
		c0.3-0.2,0.6-0.4,1-0.6c0.8-0.4,1.7-0.9,2.4-1.5c2.2-1.5,4.1-3.3,5.7-5.3c8.2-10.1,8.1-24.5-0.3-34.4c-0.8-1-1.7-1.9-2.7-2.8
		c-0.5-0.4-1-0.8-1.5-1.2c-0.5-0.4-1.1-0.8-1.6-1.2c-1.1-0.7-2.3-1.4-3.5-2c-1.2-0.5-2.5-1-3.8-1.4c-2.7-0.8-5.5-1.2-8.3-1.1
		c-5.8,0.1-11.4,2.2-16,5.8c-2.2,1.7-4.1,3.8-5.7,6.2c-0.7,1.1-1.4,2.3-2,3.6c-0.6,1.2-1,2.5-1.4,3.8c-0.2,0.6-0.4,1.3-0.5,1.9
		c-0.1,0.7-0.3,1.3-0.4,1.9c-0.2,1.3-0.3,2.6-0.2,3.8c0,13,9.2,24.1,21.9,26.6c2.6,0.5,5.2,0.6,7.8,0.4c1-0.1,1.9-0.2,2.8-0.4
		c0.4-0.1,0.8-0.1,1.1-0.2l0.9-0.3l1.2-0.4L446.2,127.4z"/>
	<path class="st4" d="M430.4,102.3c0,1.7-1.4,3.1-3.1,3.1c-1.7,0-3.1-1.4-3.1-3.1s1.4-3.1,3.1-3.1l0,0
		C429,99.2,430.4,100.6,430.4,102.3z"/>
	<path class="st4" d="M440,102.3c0,1.7-1.4,3.1-3.1,3.1c-1.7,0-3.1-1.4-3.1-3.1s1.4-3.1,3.1-3.1l0,0C438.6,99.2,440,100.6,440,102.3
		z"/>
	<path class="st4" d="M449.6,102.3c0,1.7-1.4,3.1-3.1,3.1c-1.7,0-3.1-1.4-3.1-3.1s1.4-3.1,3.1-3.1l0,0
		C448.2,99.2,449.6,100.6,449.6,102.3z"/>
	<circle class="st3" cx="469.2" cy="119.2" r="3.5"/>
	<path class="st4" d="M472.7,119.2c0,0,0-0.3-0.2-0.8c-0.2-0.7-0.7-1.3-1.3-1.8c-1.4-1.1-3.5-0.8-4.5,0.7c-1.1,1.4-0.8,3.5,0.7,4.5
		c1.1,0.8,2.7,0.8,3.8,0c0.6-0.4,1.1-1.1,1.3-1.8C472.6,119.5,472.6,119.2,472.7,119.2c0.1,0.3,0.1,0.6,0,0.9
		c-0.2,0.8-0.6,1.5-1.2,2c-1,0.8-2.3,1-3.5,0.6c-1.9-0.7-2.9-2.8-2.2-4.7c0.4-1,1.2-1.9,2.2-2.2c1.2-0.4,2.5-0.2,3.5,0.6
		c0.6,0.5,1.1,1.2,1.2,2C472.8,118.6,472.8,118.9,472.7,119.2z"/>
</g>
<g id="freepik--Character--inject-10">
	<path class="st5" d="M633.8,65.7c-1.1-2.9-16.6-9.2-46.7,1c-2.1,6.2-4.2,12.5-6.3,18.8c-0.6-5.6-0.2-11.3,1-16.8l-0.3,0.1
		c-33.8,13-94.6,45.1-112.1,59.9c-9.8,8.3-17.9,19.3-23,27.4c-4.1,6.4-10.4,16.6-9.2,24.1l-0.2,3l8.2,8.4c0,0,31.3,9.1,39.1,8.5
		s66.4-37.2,78.4-47.9l-6.3-3.1H567c0,0,14-11.1,28.5-23.4L578.1,110c8.1,2.6,15.9,6.2,23,10.8c9.5-8.3,18.5-16.6,22.8-22
		C635.4,84.2,635,68.7,633.8,65.7z"/>
	<g class="st6">
		<path d="M542,167.1l3.2-11.9c1-2.9,1.5-6,1.5-9.1c-0.1-3.1-1.4-6.2-3.9-8c18.6-18.7,38.4-36,59.4-51.9l-72.1,46.6l-2.9,14.2
			l7.6,24.6L542,167.1z"/>
	</g>
	<path class="st4" d="M571.2,78.2c-0.2,0.5-0.4,1-0.6,1.5c-0.5,1-1.1,2.3-1.8,4c-1.5,3.3-3.6,8-5.7,13.3s-3.8,10.1-4.9,13.6
		l-1.4,4.2c-0.1,0.5-0.3,1-0.5,1.5c0.1-0.5,0.2-1.1,0.3-1.6c0.3-1,0.7-2.4,1.2-4.2c1.1-3.5,2.7-8.4,4.8-13.7s4.2-9.9,5.8-13.2
		c0.8-1.7,1.5-3,2-3.9C570.6,79.2,570.9,78.7,571.2,78.2z"/>
	<path class="st4" d="M556.3,99.7c-0.7,2.4-1.6,4.7-2.6,7c-0.9,2.3-1.9,4.6-3.1,6.8c0.7-2.4,1.6-4.7,2.6-7
		C554.1,104.2,555.1,101.9,556.3,99.7z"/>
	<path class="st4" d="M535.6,124.5c0.5,0.2,1,0.4,1.4,0.7c0.9,0.5,2.2,1.1,3.8,1.9c4.2,2.1,8.5,3.9,12.9,5.5c4.4,1.6,8.9,2.9,13.5,4
		c1.8,0.4,3.2,0.7,4.2,1c0.5,0.1,1,0.2,1.5,0.4c-0.5,0-1-0.1-1.6-0.2c-1-0.1-2.4-0.4-4.2-0.8c-4.6-1-9.1-2.3-13.6-3.9
		c-4.4-1.6-8.7-3.5-12.9-5.7c-1.6-0.8-2.9-1.6-3.7-2.1C536.4,125.2,536,124.9,535.6,124.5z"/>
	<path class="st4" d="M607.4,104.3c-0.3,0-0.7,0-1,0c-0.7,0-1.6-0.2-2.8-0.3c-2.3-0.3-5.6-0.8-9.1-1.6s-6.6-1.7-8.9-2.5
		c-1.1-0.4-2-0.7-2.6-0.9c-0.3-0.1-0.6-0.3-0.9-0.4c1.2,0.3,2.5,0.6,3.7,1c2.3,0.7,5.4,1.5,8.9,2.3s6.7,1.4,9,1.8
		C604.9,103.8,606.2,104,607.4,104.3z"/>
	<path class="st4" d="M602.9,97.9c-0.8,0.2-1.6,0.3-2.4,0.2c-1.9,0-3.9,0-5.8-0.2c-1.9-0.2-3.8-0.5-5.7-0.9
		c-0.8-0.1-1.6-0.4-2.3-0.7c0.8,0,1.6,0.2,2.4,0.3c1.5,0.2,3.5,0.6,5.7,0.8s4.2,0.3,5.7,0.4C601.3,97.7,602.1,97.7,602.9,97.9z"/>
	<path class="st4" d="M455.9,167.8c22.9-13.2,45.7-28.7,68.5-41.9c22.3-12.9,80.2-44.9,104.2-58.2c0.4-0.2,0.8-0.1,1,0.3l0,0
		c0.2,0.4,0.1,0.8-0.2,1.1c-10.8,7.4-21.8,14.5-32.8,21.7c-37.9,25.1-96.1,62.2-133.3,88.3C447,190.2,425,205.6,408,215.7l-8.8-12.6
		C416.9,192.9,438,178.3,455.9,167.8z"/>
	<path class="st9" d="M455.9,167.8c0,0-0.3,0.2-1,0.6l-2.9,1.8c-2.6,1.6-6.4,3.9-11.2,7l-17.7,11.4c-6.9,4.4-14.8,9.5-23.9,14.8
		l0-0.2c2.8,3.9,5.7,8.2,8.8,12.6l-0.2-0.1c21.3-12.7,45.1-29.9,72-48.3s57-37.8,88.5-58.3c15.9-10.3,31.4-20.6,46.3-30.4l11.1-7.3
		l2.8-1.8l0.7-0.4c0.2-0.1,0.3-0.3,0.3-0.5c0-0.3-0.2-0.6-0.5-0.6c-0.1,0-0.2,0-0.2,0l-5.6,3.1l-22.1,12.3l-76.3,42.6
		c-10.8,6.2-20.3,12.2-28.7,17.4s-15.6,9.8-21.5,13.4s-10.5,6.4-13.7,8.3l-3.6,2.1C456.4,167.6,455.9,167.8,455.9,167.8l1.2-0.7
		l3.6-2.1c3.1-1.9,7.8-4.7,13.7-8.3l21.5-13.5c8.4-5.2,17.9-11.2,28.7-17.5l76.3-42.7l22.1-12.3l5.7-3.2c0.3-0.1,0.7-0.1,1,0.1
		c0.5,0.4,0.5,1,0.2,1.5c-0.1,0.1-0.2,0.2-0.3,0.3l-0.7,0.4l-2.7,1.8L615,78.9c-15,9.9-30.4,20.1-46.3,30.5
		c-31.5,20.5-61.5,40-88.5,58.3s-50.8,35.6-72.1,48.2l-0.1,0.1l-0.1-0.1c-3.1-4.4-6-8.7-8.8-12.6l-0.1-0.2l0.2-0.1
		c9-5.2,17-10.3,23.9-14.7l17.8-11.3c4.9-3.1,8.7-5.4,11.2-6.9l3-1.7L455.9,167.8z"/>
	<path class="st4" d="M507.1,139.3c2-13.1,4.8-26,8.5-38.7"/>
	<path class="st4" d="M507.7,112.2c0,0.3-0.1,0.7-0.2,1c-0.2,0.8-0.4,1.7-0.6,2.8c-0.5,2.4-1.2,5.7-1.7,9.3c-0.5,3.7-0.9,7-1.1,9.4
		c-0.1,1.1-0.2,2.1-0.2,2.9c0,0.3-0.1,0.7-0.2,1c0-0.4,0-0.7,0-1.1c0-0.7,0-1.7,0.1-2.9c0.1-2.4,0.4-5.8,1-9.5s1.2-7,1.8-9.4
		c0.3-1.2,0.6-2.1,0.8-2.8C507.5,112.8,507.6,112.5,507.7,112.2z"/>
	<path class="st1" d="M373.1,215.9c0,0,13-3.6,19.1-6.4c4.4-2,6.4-8.2,6.4-8.2l3.3-0.3l9.6,12.6l-1.8,3.3c0,0-6.5-1.3-10.9,2.4
		s-12,14.8-12,14.8c-7.7-0.9-15.5,0.4-22.4,3.8l-0.6-0.9l16-10.6l0.4,0.4c1,0.8,2.3,1.2,3.6,0.9c2-0.5,3.2-2.5,2.8-4.5
		c0-0.1-0.1-0.2-0.1-0.3c-0.6-2.1-2.8-3.5-5-3c-2,0.5-3.2,2.5-2.7,4.5c0,0.1,0.1,0.2,0.1,0.3L363,235.9l-0.7-1.1
		C362.3,234.8,373.1,224.7,373.1,215.9z"/>
	<path class="st4" d="M373.1,215.9c0,0.1,0,0.3,0,0.4l0,1.1c0,0.5-0.2,1.1-0.3,1.8c-0.2,0.8-0.5,1.6-0.8,2.4
		c-1.4,3.6-4.5,8.3-9.5,13.2v-0.2l0.7,1.1h-0.2l15.6-11.2l-0.1,0.2c-0.3-0.9-0.2-1.8,0.1-2.7c0.3-0.9,1-1.6,1.9-2.1
		c1.8-0.9,4-0.4,5.3,1.2c0.7,0.8,1,1.7,1.1,2.8c0.1,2.2-1.6,4-3.8,4c0,0,0,0,0,0c-1.1,0-2.1-0.3-2.9-1l0,0l-0.4-0.4h0.3l-16,10.6
		l0.1-0.4l0.6,0.9l-0.3-0.1c3.2-1.6,6.6-2.7,10.1-3.3c4.1-0.7,8.3-0.9,12.5-0.5l-0.2,0.1c3-4.4,6.3-8.5,9.8-12.5
		c0.8-1,1.8-1.9,2.8-2.6c1-0.8,2.2-1.3,3.4-1.7c2.4-0.7,4.8-0.8,7.2-0.4l-0.2,0.1c0.6-1.1,1.2-2.2,1.8-3.3v0.2l-9.5-12.6l0.2,0.1
		l-3.3,0.3l0.2-0.1c-0.8,2.2-1.9,4.2-3.4,5.9c-0.7,0.8-1.5,1.5-2.4,2c-0.4,0.2-0.9,0.5-1.4,0.6c-0.5,0.2-0.9,0.4-1.3,0.6
		c-3.5,1.4-6.6,2.3-9.2,3.1s-4.5,1.4-5.9,1.7l-1.5,0.4C373.3,215.9,373.1,215.9,373.1,215.9c0.2-0.1,0.3-0.2,0.5-0.2l1.5-0.5
		l5.9-1.8c2.5-0.8,5.6-1.8,9.1-3.2c0.9-0.3,1.8-0.7,2.6-1.2c0.9-0.5,1.7-1.2,2.3-2c1.5-1.7,2.6-3.7,3.3-5.8v-0.1h0.1l3.3-0.3h0.1
		l0.1,0.1l9.6,12.6l0.1,0.1l-0.1,0.1l-1.8,3.3l-0.1,0.1h-0.2c-2.3-0.4-4.7-0.2-7,0.4c-1.2,0.3-2.3,0.9-3.2,1.6
		c-1,0.8-1.9,1.6-2.7,2.6c-3.5,4-6.7,8.1-9.7,12.5l-0.1,0.1h-0.1c-4.1-0.4-8.3-0.3-12.3,0.5c-3.5,0.6-6.8,1.7-10,3.3l-0.2,0.1
		l-0.1-0.2l-0.6-0.9l-0.1-0.2l0.2-0.1l16-10.6l0.2-0.1l0.1,0.1l0.4,0.4l0,0c0.7,0.6,1.7,0.9,2.6,0.9c1.9,0,3.4-1.6,3.4-3.5
		c0,0,0-0.1,0-0.1c0-0.9-0.4-1.8-1-2.5c-1.1-1.4-3.1-1.8-4.7-1.1c-1.5,0.8-2.2,2.6-1.7,4.2l0,0.1l-0.1,0.1L363.1,236l-0.1,0.1
		l-0.1-0.1c-0.3-0.4-0.5-0.8-0.7-1.1l-0.1-0.1l0.1-0.1c5-4.9,8.1-9.6,9.6-13.1C372.5,219.8,373,217.9,373.1,215.9z"/>
	<path class="st4" d="M398.9,202c0.6,0.7,1.2,1.4,1.7,2.2l3.9,5.5c1.5,2.1,3,4,4.1,5.3c0.6,0.7,1.2,1.4,1.8,2.2
		c-0.7-0.6-1.4-1.2-2-1.9c-1.5-1.7-3-3.4-4.3-5.3c-1.5-2.1-2.8-4.1-3.7-5.6C399.7,203.6,399.3,202.8,398.9,202z"/>
	<path class="st9" d="M481.3,152.2c-0.3,0.3-0.7,0.6-1.1,0.8l-3,2c-2.6,1.6-6.1,3.8-10.1,6.3s-7.5,4.6-10.2,6.1l-3.1,1.8
		c-0.4,0.2-0.8,0.4-1.2,0.6c0.3-0.3,0.7-0.5,1.1-0.8l3-1.9c2.6-1.6,6.1-3.9,10.1-6.3s7.5-4.6,10.2-6.1c1.2-0.7,2.3-1.3,3.1-1.8
		C480.5,152.6,480.9,152.4,481.3,152.2z"/>
	<path class="st10" d="M457.4,166.8c0,0-1.4-5.9-3.3-7c-0.9-0.5-2.1,1.3-1.8,2.9s0.9,6.6,0.9,6.6L457.4,166.8z"/>
	<path class="st10" d="M425.2,199.3c0,0,1.7-6,2.2-7s-1.1-5.6-0.5-6.7s-0.5-2.9-2.5-1.6s-3.1,5-2.2,7.4c0,0-5.9-6.3-7-6.1
		c-1.1,0.2-1.9,1.2-1.9,2.3c0,0-2.9-1.9-3.8,1.9c0,0-2.1-0.6-2.5,2.9c0,0-1.5-0.4-1.6,2.2s-0.5,5.2,1.5,6.4s11.9,7.9,11.9,7.9
		l9.7,7.6l11.8-7.4L425.2,199.3z"/>
	<path class="st11" d="M415.9,192.1c-0.4-0.8-0.8-1.6-1.4-2.3c-0.4-0.8-0.9-1.5-1.5-2.2c0.1,0.9,0.5,1.8,1.1,2.5
		C414.8,191.4,415.8,192.2,415.9,192.1z"/>
	<path class="st11" d="M411.3,195.3c-0.3-1.9-0.9-3.8-1.9-5.5c0.1,1,0.3,1.9,0.7,2.9C410.4,193.6,410.8,194.5,411.3,195.3z"/>
	<path class="st11" d="M408.1,196.9c0.1-0.8,0.1-1.6-0.2-2.3c-0.1-0.8-0.3-1.5-0.7-2.2C407.2,193.9,407.5,195.5,408.1,196.9z"/>
	<path class="st11" d="M417.8,194.1c0.1,0,0.4-0.6,1-0.9s1.2-0.2,1.3-0.4s-0.1-0.2-0.4-0.3c-0.8-0.2-1.6,0.3-1.9,1
		C417.7,193.9,417.8,194,417.8,194.1z"/>
	<path class="st11" d="M414.4,196.6c0.1,0.1,0.5-0.4,1.1-0.8s1.2-0.3,1.3-0.4s-0.7-0.4-1.5,0S414.3,196.6,414.4,196.6z"/>
	<path class="st11" d="M410.1,199.3c0.1,0,0.4-0.5,1-0.9s1.2-0.4,1.2-0.5s-0.1-0.2-0.4-0.2c-0.4,0-0.8,0.1-1.1,0.3
		c-0.3,0.2-0.6,0.5-0.7,0.9C410,199.1,410,199.2,410.1,199.3z"/>
	<path class="st4" d="M503.9,95.9c-3.6-1.1-7.4-0.7-10.7,1.1c-2.8-3.6-8-4.2-11.5-1.5c-1.2,0.9-2.1,2.2-2.7,3.6
		c-3.6-1.3-7.7,0.5-9,4.1c-1,2.7-0.2,5.8,2,7.7c-4.6,1.9-6.7,7.2-4.8,11.8c0.3,0.6,0.6,1.2,1,1.8c-2.7,1.3-3.1,4.9-2.7,7.9
		s1.2,6.1-0.1,8.8c-1,2.1-3.1,3.3-4.6,5.1s-1.9,4.9,0,6.1c-3.4,0.5-5.7,3.7-5.2,7.1c0.5,3.4,3.7,5.7,7.1,5.2c0.1,0,0.2,0,0.3-0.1
		c-1,2.4-0.7,5.2,0.8,7.3c1.5,2.1,3.7,3.7,6.1,4.5c7.2,2.5,15.2,0.2,20-5.6l22-68.1C510.4,99.5,507.5,97,503.9,95.9z"/>
	<path class="st9" d="M458.5,436.3l2.1,21.6c0,0-23.6,8.8-23.8,13.2l44.6,0.1V468l-1.9-11.1l-2.8-21.6L458.5,436.3z"/>
	<path class="st1" d="M474,454.6c0.9,0.3,1.5,1.2,1.3,2.1c-0.2,0.9-1.2,1.5-2.1,1.3c-1-0.3-1.5-1.3-1.4-2.3c0.4-0.9,1.4-1.4,2.3-1.1
		"/>
	<path class="st4" d="M481.3,471.2V468l-42.7,0.8c0,0-2,0.9-1.8,2.3L481.3,471.2z"/>
	<path class="st4" d="M459.9,457.7c0,0.2,1.1,0.3,2.2,1s1.7,1.6,1.9,1.6s-0.1-1.4-1.5-2.2S459.8,457.5,459.9,457.7z"/>
	<path class="st4" d="M455.1,459.7c0,0.2,0.9,0.6,1.7,1.5s1,1.9,1.2,1.9s0.4-1.3-0.6-2.4S455.1,459.5,455.1,459.7z"/>
	<path class="st4" d="M452.4,465.4c0.2,0,0.5-1.1-0.1-2.3s-1.6-1.7-1.7-1.5s0.5,0.8,1,1.8S452.1,465.4,452.4,465.4z"/>
	<path class="st4" d="M458.3,452.5c0.1,0.2,1.1-0.1,2.4,0s2.2,0.5,2.4,0.3s-0.8-1-2.3-1.1S458.2,452.3,458.3,452.5z"/>
	<path class="st9" d="M513.3,436.9l1.9,21.2c0,0-23.2,8.5-23.5,12.8l43.8,0.4v-3.2l-1.8-10.9l-2.6-21.2L513.3,436.9z"/>
	<path class="st1" d="M528.4,455c0.9,0.3,1.4,1.2,1.2,2.1c-0.2,0.9-1.1,1.5-2.1,1.3c-0.9-0.3-1.5-1.3-1.3-2.2
		c0.4-0.9,1.4-1.4,2.3-1.1"/>
	<path class="st4" d="M535.5,471.4v-3.2l-42,0.5c0,0-2,0.9-1.8,2.3L535.5,471.4z"/>
	<path class="st4" d="M514.5,458c0,0.2,1.1,0.3,2.2,1s1.6,1.6,1.8,1.5s-0.1-1.4-1.4-2.2S514.4,457.8,514.5,458z"/>
	<path class="st4" d="M509.8,459.9c0,0.2,0.9,0.6,1.6,1.5s1,1.9,1.2,1.9s0.4-1.2-0.6-2.4S509.8,459.7,509.8,459.9z"/>
	<path class="st4" d="M507.1,465.5c0.2,0,0.5-1,0-2.2s-1.6-1.7-1.7-1.5s0.5,0.8,1,1.8S506.8,465.5,507.1,465.5z"/>
	<path class="st4" d="M512.9,452.8c0.1,0.2,1.1-0.1,2.3,0s2.2,0.5,2.3,0.3s-0.8-1-2.3-1.1S512.8,452.7,512.9,452.8z"/>
	<path class="st4" d="M457.6,248.2c0,0-10.6,30.6-10.9,53.4s-0.7,58.9,4,98.9s6.9,56,6.9,56h24c1.5-15.8,2.3-31.6,2.2-47.5
		c-0.4-22.4-2.1-29.5,0-54.1s5.6-39.4,9.1-46.9c0,0,9.9-11.8,10.6-28c0.3-10.3-1.4-20.5-5-30.1L457.6,248.2z"/>
	<path class="st4" d="M478.9,291.2c0.4,1.2,7.5,51.4,12.7,73.5s11,28,12,46c1.2,20.7,6.8,45.8,6.8,45.8h25.6c0,0-3.6-38.3-7.2-68.2
		s-8.8-66.8-8-77.8s2.8-24.7,0-40.2s-8.8-19.6-8.8-19.6l-21.7-1L478.9,291.2z"/>
	<path class="st9" d="M503,262.5c0.2,0.2,0.3,0.5,0.4,0.8c0.3,0.8,0.6,1.6,0.9,2.4c0.7,3,1,6.1,0.8,9.2c-0.2,4.6-0.9,9.1-2.1,13.5
		c-0.7,2.6-1.6,5.2-2.8,7.6c-1.3,2.6-2.9,5-4.6,7.3c-3.5,4.8-5.2,10.2-6.5,15.2c-1.1,4.4-1.9,8.9-2.4,13.4c-0.5,3.9-0.8,7-1,9.1
		c-0.1,1-0.2,1.9-0.2,2.5c0,0.3-0.1,0.6-0.1,0.9c0-0.3,0-0.6,0-0.9c0-0.6,0.1-1.5,0.1-2.5c0.1-2.2,0.4-5.3,0.8-9.2
		c0.5-4.5,1.3-9,2.3-13.5c0.6-2.6,1.5-5.2,2.4-7.7c0.5-1.3,1.1-2.6,1.8-3.9c0.7-1.3,1.5-2.5,2.3-3.8c1.7-2.3,3.3-4.7,4.6-7.3
		c1.2-2.4,2.1-4.9,2.8-7.5c1.2-4.4,2-8.9,2.2-13.4c0.2-3,0-6.1-0.7-9.1c-0.2-0.8-0.5-1.6-0.8-2.4C503.2,263,503.1,262.8,503,262.5z"
		/>
	<path class="st10" d="M454.3,168.6c0,0-4.5-2.7-5.9-2.1c-0.9,0.4-1.6,1-2.1,1.8c0,0-2.8-0.5-2.6,2.6c0,0-2.6,0-2.4,3
		c0,0-1.8-0.4-1.4,2.1c0.8,3.1,2.1,6.1,3.8,8.8c1.5,1.7,2.4-0.3,2.1-1.2s-1.8-6-1.8-6s2.9,7.4,4.5,6.6c0.9-0.5,1-1.5,0.3-3.6
		c-0.5-1.5-1.3-4.4-1.3-4.4l2.5,4.7c0.3,0.6,1,0.8,1.6,0.5c0.2-0.1,0.4-0.3,0.5-0.6c0.1-0.4,0.2-0.8,0.1-1.3
		c-0.4-1.7-0.9-3.3-1.5-4.9l2.1,3.1c0.4,0.7,1.3,0.8,2,0.4c0,0,0.1-0.1,0.1-0.1c0.5-0.3,0.7-0.9,0.5-1.5c-0.4-1.6-3.5-6.6-3.5-6.6
		L454.3,168.6z"/>
	<path class="st10" d="M514.4,114.8l0.3-3.7l-21.8-5.5c-6.8-1.1-14.5,5.2-15.4,12.1c-0.9,7.6-1.8,16.8-1.2,22.6
		c1.1,11.5,9.8,13.5,9.8,13.5l-0.6,11.3l25.2,1.8L514.4,114.8z"/>
	<path class="st4" d="M480.2,128.5c-0.1,0.8,0.5,1.5,1.3,1.6c0.8,0.1,1.5-0.4,1.6-1.2c0,0,0,0,0,0c0.1-0.8-0.5-1.5-1.3-1.6
		C481,127.2,480.3,127.7,480.2,128.5C480.2,128.4,480.2,128.5,480.2,128.5z"/>
	<path class="st4" d="M479.6,122.6c0.2,0.2,1.3-0.6,2.9-0.4s2.7,0.9,2.9,0.8s-0.1-0.4-0.5-0.8c-0.7-0.5-1.4-0.8-2.3-0.9
		c-0.8,0-1.6,0.2-2.3,0.6C479.7,122.2,479.5,122.5,479.6,122.6z"/>
	<path class="st4" d="M494,129.4c-0.1,0.8,0.5,1.5,1.3,1.6c0.8,0.1,1.5-0.4,1.6-1.2c0,0,0,0,0,0c0.1-0.8-0.5-1.5-1.3-1.6
		C494.8,128,494.1,128.6,494,129.4C494,129.3,494,129.3,494,129.4z"/>
	<path class="st4" d="M495,123.8c0.2,0.2,1.3-0.6,2.9-0.4s2.7,0.9,2.9,0.8s-0.1-0.4-0.5-0.8c-0.7-0.5-1.5-0.8-2.3-0.8
		c-0.8-0.1-1.6,0.1-2.3,0.6C495.2,123.4,495,123.8,495,123.8z"/>
	<path class="st4" d="M488.6,135.2c-0.8-0.3-1.7-0.5-2.5-0.6c-0.4-0.1-0.8-0.2-0.8-0.4c0-0.4,0.1-0.8,0.3-1.2l1.4-3
		c1.9-4.3,3.3-7.8,3.1-7.8s-1.9,3.3-3.8,7.6l-1.3,3c-0.3,0.5-0.4,1-0.3,1.6c0.1,0.3,0.3,0.5,0.6,0.6c0.2,0.1,0.4,0.1,0.7,0.1
		C486.9,135.2,487.8,135.2,488.6,135.2z"/>
	<path class="st11" d="M486,153.7c5.5,0.4,11-0.7,15.9-3.2c0,0-4.3,7.8-16.1,6L486,153.7z"/>
	<path class="st4" d="M495.4,118.4c0.2,0.4,1.7,0.2,3.6,0.4s3.3,0.7,3.6,0.3c0.1-0.2-0.2-0.6-0.8-1c-1.6-1-3.6-1.3-5.5-0.6
		C495.7,117.9,495.3,118.2,495.4,118.4z"/>
	<path class="st4" d="M480,118.7c0.3,0.4,1.4,0.1,2.7,0.2s2.4,0.4,2.7,0c0.1-0.2,0-0.6-0.5-0.9c-0.6-0.5-1.4-0.7-2.1-0.7
		c-0.8,0-1.5,0.2-2.2,0.6C480,118.2,479.9,118.6,480,118.7z"/>
	<path class="st4" d="M477.5,109.4c2.6-3.4,6.3-5.8,10.4-6.9l18.5,2.3h1.6c0.3-1.2,2.3-1.8,2.3-1.8c1.7-1.3,7.7-1.4,11.9,3
		c1.5,1.6,2.6,5.6,2.6,7.7c0,0.8-0.9,2-0.2,2.4c0.8,0.1,1.7,0.2,2.5,0.2c4.7,1,7.6,5.2,6.8,11.4c-0.1,0.3-0.1,0.6-0.1,0.9
		c0.2,0.5,0.4,0.9,0.8,1.2c2.2,2.5,2.8,6.1,1.3,9.1c-0.6,0.8-1,1.8-1.3,2.7c-0.3,1.8,1,3.4,2,4.9c3,4.5,3.7,11,0.1,15
		c-0.9,1-2,1.9-2.3,3.1c-0.1,0.6-0.2,1.3-0.1,1.9c0,3.2-1.7,6.9-4.9,7.6c-1.8,0.4-3.9-0.1-5.2,1.2c-0.5,0.6-0.9,1.3-1.1,2
		c-1.4,2.7-4.6,4.1-7.6,3.3c-2.9-0.9-3.8-12.5-3.4-15.5c-3.5-1.3-6-1.5-5.9-5.2c0,0,0.5-6.3-0.5-9.4s1-9.7,2.2-12.9
		s-0.2-10.6-0.5-13.6c0-0.9,0.1-1.7,0.2-2.5l0,0c0.1-0.7,0.3-1.5,0.5-2.4s0.7-5.1,0.7-5.9c0-2.8-3.5-1.3-6.2-0.4
		c-0.6,0.2-1.3,0.3-2,0.4c-2.2,0-4.3-1-5.7-2.7c-2.6,2.7-6.4,3.7-10,2.8c-1.3,2.1-2.9,3.9-4.7,5.6c-1.9,1.6-4.3,2.5-6.8,2.3
		C473.6,117,474.9,112.9,477.5,109.4z"/>
	<path class="st11" d="M489.8,139c0.6-0.8,1.5-1.2,2.4-1.1c0.7,0,1.3,0.3,1.8,0.9c0.5,0.5,0.5,1.2,0.2,1.8c-0.5,0.6-1.3,0.8-2,0.6
		c-0.7-0.2-1.4-0.6-2-1.1c-0.2-0.1-0.3-0.3-0.5-0.4C489.7,139.5,489.7,139.2,489.8,139"/>
	<path class="st4" d="M493.5,136.1c-0.2,0-0.2,1.7-1.5,2.9s-3.2,1.2-3.2,1.4s0.4,0.3,1.2,0.3c1,0,1.9-0.4,2.6-1.1
		c0.7-0.6,1.1-1.5,1.2-2.5C493.8,136.5,493.6,136.1,493.5,136.1z"/>
	<path class="st9" d="M527.1,167.4l-41.5-5.8c0,0-14.5,19.6-19,42.1s-9.7,45-9.7,45l40.4,5c4.2,0.5,8.5,0.5,12.7-0.2l4.2-0.6
		l-3.5-14.3c5.8-14.4,10-26.8,12.5-37C528.7,179.5,527.1,167.4,527.1,167.4z"/>
	<path class="st9" d="M428,198.4l18.4,12.4c0,0,11.8-20.8,15.2-28.2s8.9-16.9,14.7-19.6s15.3-0.6,15.3-0.6l-6.2,24.8l-9.8,21.9
		c0,0-10.9,21.9-17.4,26.3s-14.3,1.7-18-0.8s-22.4-23.1-22.4-23.1L428,198.4z"/>
	<path class="st4" d="M448.4,222.3c-0.6-1.7-1.1-3.6-1.3-5.4c-0.4-1.8-0.7-3.6-0.8-5.5c0.6,1.7,1.1,3.5,1.3,5.4
		C448,218.6,448.3,220.5,448.4,222.3z"/>
	<g class="st6">
		<path d="M471.8,215.5c4.4-1.9,8.1-5.3,10.4-9.5c2.1-4.6,2.7-9.7,1.7-14.6C480.2,198.9,475.5,209,471.8,215.5z"/>
	</g>
	<g class="st6">
		<path d="M525.7,172.4l-27.4-2.4c-0.9,2.3,0.3,5,2.6,5.9c0.1,0,0.2,0.1,0.3,0.1c-2.4,4.3-0.9,9.7,3.3,12.1c1.1,0.6,2.4,1,3.7,1.1
			c0.7,0,1.5,0.1,2.2,0.3c1.5,0.6,2.2,2.2,3.2,3.5c1.2,1.8,3,3.1,5.1,3.5c2.1,0.4,4.3-0.3,5.8-1.9c1.3-1.6,1.6-3.9,1.7-6
			C526.4,183.2,526.2,177.7,525.7,172.4z"/>
	</g>
	<path class="st4" d="M532,155.5l-23.3-26c0.9,6.6-1.6,13.2-4.6,19.1c-1.7,3.4-3.6,7.4-1.8,10.7c-1.5,1.6-2.8,3.3-3.9,5.3
		c-1,2-1.1,4.3-0.2,6.3c1,2,3.4,3.2,5.4,2.5c-1.4,3.7,0.5,7.8,4.2,9.1c1.8,0.7,3.8,0.6,5.6-0.3c0.6,2.7,2.1,5.1,4.4,6.8
		c2.3,1.6,5.3,1.8,7.8,0.5c2.5-1.5,3.5-4.5,2.3-7.1c5.1-1.1,8.3-6.7,8.5-11.9S534.3,160.2,532,155.5z"/>
	<path class="st9" d="M483.7,112.7c-0.1,0.1-0.2,0.1-0.4,0.2c-0.4,0.1-0.8,0.1-1.2,0.1c-1.5-0.2-2.8-1.1-3.5-2.4
		c-0.5-0.9-0.7-2-0.5-3c0.2-1.2,0.8-2.3,1.6-3.1c0.9-1,2-1.6,3.3-1.9c1.4-0.3,2.8-0.3,4.1,0c0.8,0.2,1.5,0.5,2.3,0.8l-0.4,0.1
		c0.9-2.2,2.7-4,4.9-5c1.8-0.8,3.7-1,5.6-0.6c1.3,0.3,2.4,0.8,3.5,1.5c0.3,0.2,0.5,0.4,0.8,0.7c0.2,0.2,0.2,0.3,0.2,0.3
		s-0.4-0.3-1.1-0.8c-1-0.7-2.2-1.1-3.4-1.3c-1.8-0.3-3.7-0.1-5.4,0.7c-2.1,1-3.7,2.7-4.6,4.8l-0.1,0.3l-0.2-0.1
		c-0.7-0.3-1.4-0.6-2.2-0.8c-1.3-0.3-2.6-0.3-3.9,0c-1.2,0.3-2.3,0.9-3.1,1.8c-0.8,0.8-1.3,1.8-1.5,2.9c-0.2,0.9,0,1.9,0.4,2.8
		c0.6,1.3,1.8,2.1,3.2,2.4C482.6,112.8,483.2,112.8,483.7,112.7z"/>
	<path class="st9" d="M533.2,129c0,0,0.2-0.5,0.5-1.4c0.3-1.3,0.4-2.6,0.2-3.9c-0.3-1.9-1.3-3.7-2.7-5c-1.8-1.6-4.3-2.4-6.7-2.2H524
		l0.1-0.4c1-3.5,0.2-7.2-2.1-9.9c-1.5-1.7-3.4-2.9-5.6-3.4c-1.5-0.3-3-0.4-4.5-0.1c-1.1,0.2-1.6,0.4-1.6,0.4s0.1-0.1,0.4-0.2
		c0.4-0.2,0.8-0.3,1.2-0.4c3.9-0.9,7.9,0.4,10.5,3.4c2.5,2.9,3.3,6.8,2.3,10.4l-0.3-0.3c2.6-0.2,5.1,0.6,7,2.3
		c1.5,1.4,2.5,3.3,2.8,5.3c0.2,1.3,0.1,2.7-0.4,4c-0.1,0.3-0.3,0.7-0.4,1C533.3,128.9,533.2,129,533.2,129z"/>
	<path class="st9" d="M510.9,173.5c0,0-0.1-0.1-0.3-0.2c-0.3-0.2-0.6-0.5-0.8-0.7c-2.4-2.5-3.3-6-2.3-9.3c0.8-2.4,2.4-4.4,4.6-5.6
		c0.9-0.5,1.9-0.8,2.9-1l-0.2,0.4c-1.4-1.6-2.1-3.8-1.8-5.9c0.2-1.7,1.1-3.2,2.4-4.4c0.9-0.7,1.9-1.2,3-1.5c0.3-0.1,0.6-0.1,0.9-0.1
		c0.1,0,0.2,0,0.3,0c0,0.1-0.4,0.1-1.2,0.3c-1,0.3-2,0.9-2.8,1.6c-1.2,1.1-2,2.5-2.2,4.1c-0.2,2,0.4,4,1.7,5.5l0.3,0.4l-0.5,0.1
		c-0.9,0.2-1.9,0.5-2.7,1c-2.1,1.2-3.6,3-4.4,5.3c-0.6,1.9-0.5,3.8,0.1,5.7c0.4,1.2,1.1,2.4,1.9,3.4
		C510.5,173.1,510.9,173.5,510.9,173.5z"/>
	<path class="st4" d="M510.5,116.3l-0.7-3.3c-2.5,4.7-3.3,10.2-2.3,15.5c0.5,2.4,1.3,5,0.2,7.3c-0.7,1.5-2.2,2.6-3,4
		c-1.1,1.9-0.3,6.7-0.6,7.7c-0.6,2.2-2.7,3.6-3.2,6.2s0.1,5.8,2.5,7.1c4.5-7.4,9-15,10.1-23.6C514.3,130.2,512.7,123.1,510.5,116.3z
		"/>
	<path class="st9" d="M524,134c0,0-0.1,0-0.4,0c-0.4,0-0.7-0.1-1.1-0.1c-1.3-0.2-2.6-0.8-3.7-1.6c-0.7-0.6-1.3-1.4-1.6-2.3
		c-0.4-1-0.4-2.2,0-3.2c0.5-1.2,1.5-2,2.8-2.3c0.7-0.2,1.4-0.1,2,0.3c0.7,0.4,1.1,1.1,1,1.8c0,0.4-0.3,0.8-0.6,1
		c-0.3,0.2-0.6,0.3-1,0.3c-0.7,0-1.3-0.1-1.9-0.5c-1.1-0.5-2-1.3-2.8-2.2c-2.3-2.6-2.8-6.3-1.5-9.4c0.1-0.3,0.3-0.7,0.5-1
		c0.1-0.2,0.2-0.3,0.2-0.3s-0.2,0.5-0.5,1.3c-0.4,1.2-0.6,2.5-0.5,3.8c0.2,3.1,2.1,5.9,4.9,7.3c0.5,0.3,1.1,0.4,1.6,0.4
		c0.5,0,1-0.3,1.1-0.8c0.1-0.5-0.2-1.1-0.7-1.3c-0.5-0.3-1.1-0.3-1.6-0.2c-1.1,0.2-2,1-2.4,2c-0.4,0.9-0.4,2-0.1,2.9
		c0.3,0.8,0.8,1.6,1.4,2.2c1,0.9,2.2,1.4,3.5,1.7C523.5,133.9,524,133.9,524,134z"/>
	<path class="st9" d="M534.2,142.5c0.3-0.7,0.6-1.4,1-2c0.8-1.6,1.3-3.4,1.4-5.1c0-1.8-0.6-3.5-1.7-4.9c-0.5-0.5-1.1-1-1.7-1.5
		c0,0,0.2,0,0.6,0.2c0.5,0.3,1,0.6,1.4,1c1.3,1.4,2,3.3,1.9,5.2c-0.1,1.9-0.6,3.7-1.6,5.3C535.1,141.3,534.7,141.9,534.2,142.5z"/>
	<path class="st4" d="M510.1,239.2c-0.9,0.4-1.8,0.6-2.8,0.8c-2.3,0.5-4.5,0.8-6.8,0.9c-2.3,0.1-4.6,0-6.9-0.3
		c-1-0.1-1.9-0.3-2.8-0.6c1,0,1.9,0.1,2.8,0.2c4.5,0.4,9.1,0.2,13.6-0.5C508.2,239.4,509.1,239.3,510.1,239.2z"/>
	<path class="st4" d="M484.2,190.8c-0.1,0.2-0.1,0.5-0.2,0.7c-0.2,0.4-0.5,1.1-0.8,1.9c-0.8,1.6-1.9,4-3.3,6.9
		c-2.9,5.8-6.9,13.8-11.5,22.4c-1.2,2.2-2.3,4.3-3.5,6.3c-1.2,1.9-2.6,3.6-4.3,5.2c-1.5,1.4-3.3,2.5-5.2,3.2
		c-1.7,0.6-3.5,0.9-5.3,0.8c-2.6-0.2-5.1-0.9-7.4-2c-0.8-0.4-1.4-0.7-1.8-1c-0.2-0.1-0.4-0.2-0.6-0.4c0.2,0.1,0.5,0.2,0.7,0.3
		c0.4,0.2,1,0.5,1.9,0.9c2.3,1.1,4.8,1.7,7.3,1.9c1.7,0.1,3.5-0.2,5.1-0.8c1.9-0.7,3.6-1.8,5-3.2c1.6-1.5,3-3.2,4.2-5.1
		c1.2-1.9,2.3-4.1,3.5-6.2c4.6-8.7,8.7-16.6,11.6-22.3l3.4-6.8c0.4-0.8,0.7-1.4,0.9-1.9C484,191.2,484.1,191,484.2,190.8z"/>
</g>
<g id="freepik--Ink--inject-10">
	<path class="st1" d="M343.3,461.8h-30v-67.7h29.7c2.7,0,4.9,2.2,4.9,4.9v58.3C347.8,459.8,345.8,461.8,343.3,461.8
		C343.3,461.8,343.3,461.8,343.3,461.8z"/>
	<path class="st4" d="M343.3,461.8c0.7,0,1.3-0.2,1.9-0.5c0.7-0.4,1.4-0.9,1.8-1.6c0.3-0.4,0.5-0.9,0.6-1.4c0.1-0.6,0.1-1.2,0.1-1.8
		c0-5.1,0-12.4-0.1-21.5s0-19.9,0-31.9c0-1.5,0-3,0-4.5c-0.1-1.5-0.9-2.9-2.2-3.6c-0.6-0.4-1.4-0.6-2.1-0.6c-0.8,0-1.6,0-2.4,0
		h-27.6l0.3-0.3c0,26.4,0,50.2-0.1,67.7l-0.2-0.2l22,0.1l6,0h1.5L343.3,461.8c0.1-0.1-0.1-0.1-0.5-0.1h-1.5l-6,0l-22,0.1h-0.2v-0.2
		c0-17.5,0-41.3-0.1-67.7v-0.3h27.8c0.8,0,1.6,0,2.4,0c0.8,0,1.6,0.3,2.4,0.7c1.4,0.9,2.3,2.3,2.4,4c0,1.6,0,3.1,0,4.6
		c0,12,0,22.8-0.1,31.9s-0.1,16.4-0.1,21.5c0,0.6,0,1.2-0.1,1.8c-0.1,0.5-0.3,1-0.6,1.5c-0.5,0.7-1.1,1.3-1.9,1.6
		c-0.5,0.2-1,0.4-1.5,0.4C343.6,461.7,343.4,461.7,343.3,461.8z"/>
	<path class="st12" d="M321.8,393.8h-15.5V368h2.2c2.7-0.1,4.8-2.4,4.7-5.1c-0.1-2.5-2.1-4.5-4.7-4.7h-46.9
		c-2.7,0.1-4.8,2.4-4.7,5.1c0.1,2.5,2.1,4.5,4.7,4.7h2.2v25.8h-39.2c-2.6,0-4.8,2.1-4.8,4.8c0,0,0,0,0,0V457c0,2.6,2.1,4.8,4.8,4.8
		h97.2c2.6,0,4.8-2.1,4.8-4.8v-58.5C326.5,395.9,324.4,393.8,321.8,393.8C321.8,393.8,321.8,393.8,321.8,393.8z"/>
	<path class="st4" d="M321.8,393.8c0.4,0,0.7,0,1.1,0.1c1.9,0.4,3.4,2,3.7,4c0.1,0.9,0,1.9,0.1,2.9c0,2.1,0,4.5,0,7.3
		c0,11,0,26.8,0.1,46.3c0,0.6,0,1.2,0,1.9c0,0.6,0,1.3-0.1,1.9c-0.3,1.3-1.1,2.4-2.2,3.1c-0.6,0.4-1.2,0.6-1.9,0.7
		c-0.7,0.1-1.3,0.1-2,0h-20.6h-36.7h-38c-0.9,0.1-1.8-0.1-2.7-0.5c-1.7-0.8-2.9-2.5-2.9-4.4c0-1.8,0-3.6,0-5.4V441
		c0-7.3,0-14.6,0-22.1c0-5.9,0-11.7,0-17.4v-2.2c0-0.7,0-1.5,0.2-2.2c0.4-1.5,1.5-2.7,2.9-3.2c0.7-0.3,1.4-0.4,2.2-0.4h39l-0.2,0.2
		c0-8.9,0-17.5,0-25.8l0.2,0.2h-1.5c-0.5,0-1.1,0-1.6-0.1c-1.1-0.2-2-0.7-2.8-1.5c-1.9-2-1.9-5.3,0.2-7.2c0.3-0.3,0.7-0.6,1.1-0.8
		c0.5-0.2,0.9-0.4,1.4-0.5c0.5-0.1,1-0.1,1.5-0.1h5.8h21.8c6.9,0,13.4,0,19.5,0.1c2.8,0.2,4.8,2.6,4.6,5.4c-0.2,2-1.5,3.7-3.4,4.3
		c-0.6,0.2-1.3,0.3-2,0.3h-2l0.1-0.1c0,10.7,0,19.3-0.1,25.8l-0.1-0.1l11.6,0h3L321.8,393.8c0-0.1-0.3-0.1-1-0.1h-3h-11.6h-0.1v-0.1
		c0-6.5,0-15.1,0-25.8v-0.1h2.1c0.7,0,1.3-0.1,1.9-0.3c2.4-0.9,3.7-3.6,2.8-6.1c-0.6-1.7-2.1-2.8-3.9-3c-6-0.1-12.6,0-19.5,0h-21.8
		H262c-0.5,0-0.9,0-1.4,0.1c-0.5,0.1-0.9,0.3-1.3,0.5c-0.8,0.5-1.5,1.2-1.9,2c-0.9,1.8-0.5,3.9,0.8,5.3c0.7,0.7,1.6,1.2,2.5,1.3
		c0.5,0.1,1,0.1,1.5,0.1h1.8v0.4c0,8.3,0,16.9,0,25.8v0.2h-39.2c-0.7,0-1.4,0.1-2,0.3c-1.3,0.5-2.2,1.6-2.6,2.9
		c-0.2,0.7-0.2,1.4-0.2,2v2.2c0,5.7,0,11.5,0,17.4c0,7.5,0,14.8,0,22.1v10.8c0,1.8,0,3.6,0,5.3c0,1.7,1.1,3.3,2.6,4
		c0.8,0.3,1.6,0.5,2.5,0.4h38h36.7h16.6h4c0.6,0,1.3,0,1.9,0c0.6-0.1,1.2-0.3,1.7-0.6c1.1-0.6,1.8-1.7,2.1-2.9
		c0.1-0.6,0.2-1.2,0.1-1.8c0-0.6,0-1.2,0-1.9c0-19.6,0.1-35.4,0.1-46.3c0-2.7,0-5.2,0-7.3c0-1,0.1-2,0-2.9c-0.3-1.9-1.7-3.5-3.5-3.9
		C322.5,393.8,322.1,393.8,321.8,393.8z"/>
	<path class="st4" d="M300.2,367.8c0,0.1-9.8,0.3-21.8,0.3s-21.8-0.1-21.8-0.3s9.8-0.3,21.8-0.3S300.2,367.6,300.2,367.8z"/>
	<path class="st5" d="M224.5,433.6h96.7l0,0v18c0,2.4-1.9,4.3-4.3,4.3h-88.1c-2.4,0-4.3-1.9-4.3-4.3V433.6L224.5,433.6z"/>
	<path class="st4" d="M321.2,403.9c0.1,0,0.3,7.2,0.3,16s-0.1,16-0.3,16s-0.3-7.1-0.3-16S321.1,403.9,321.2,403.9z"/>
	<path class="st4" d="M224.7,405.6c0.1,0,0.3,7.1,0.3,15.8s-0.1,15.8-0.3,15.8s-0.3-7.1-0.3-15.8S224.5,405.6,224.7,405.6z"/>
	<path class="st5" d="M330.5,433.6h13l0,0v17.7c0,2.6-2.1,4.7-4.7,4.7l0,0h-8.3l0,0L330.5,433.6L330.5,433.6z"/>
</g>
</svg>
