<?xml version="1.0" encoding="utf-8"?>
<!-- Generator: Adobe Illustrator 26.0.2, SVG Export Plug-In . SVG Version: 6.00 Build 0)  -->
<svg version="1.1" id="Layer_1" xmlns="http://www.w3.org/2000/svg" xmlns:xlink="http://www.w3.org/1999/xlink" x="0px" y="0px"
	 viewBox="0 0 750 500" style="enable-background:new 0 0 750 500;" xml:space="preserve">
<style type="text/css">
	.st0{fill:#E7ECF1;}
	.st1{opacity:0.4;fill:#EF3F3D;}
	.st2{fill:#FAFAFA;}
	.st3{fill:#E0E0E0;}
	.st4{fill:#FFFFFF;}
	.st5{fill:#F5F5F5;}
	.st6{fill:#263238;}
	.st7{fill:#2F4B59;}
	.st8{opacity:0.7;fill:#FFFFFF;enable-background:new    ;}
	.st9{opacity:0.4;fill:#FFFFFF;enable-background:new    ;}
	.st10{opacity:0.3;enable-background:new    ;}
	.st11{fill:#EF3F3D;}
	.st12{fill:#455A64;}
	.st13{fill:#AE7461;}
	.st14{fill:#6F4439;}
	.st15{opacity:0.3;}
	.st16{fill:#FF9A6C;}
	.st17{fill:#FFBF9D;}
	.st18{opacity:0.5;fill:#FFFFFF;enable-background:new    ;}
	.st19{opacity:0.3;fill:#FFFFFF;enable-background:new    ;}
	.st20{opacity:0.6;}
</style>
<g id="freepik--background-complete--inject-6">
	<path class="st0" d="M264.1,220.4l-3.5,0.2l-8.1-10.1l-0.4-6.9c0,0-5.4,0-4.2,8.9s0.3,6.7,0.3,6.7S237,220,236.1,221
		c-0.6,0.8-0.3,12-0.1,18.1c0,3,2.1,5.7,5,6.4c0.4,0.1,0.8,0.1,1.2,0.1c2.8-0.2,17.1-3.2,17.1-3.2l6-0.3L264.1,220.4z"/>
	<polygon class="st0" points="273.9,217.9 273,241.6 267.1,242 265.9,218.9 	"/>
	<path class="st0" d="M502.9,303.2l4.3,0.2l10-12.5l0.5-8.5c0,0,6.6,0,5.2,11.1s-0.4,8.3-0.4,8.3s14,0.8,15.1,2.1
		c0.8,0.9,0.4,14.9,0.1,22.4c0,3.8-2.6,7-6.2,7.9c-0.5,0.1-1,0.1-1.5,0.1c-3.5-0.2-21.2-4-21.2-4l-7.4-0.4L502.9,303.2z"/>
	<polygon class="st0" points="490.8,300.1 491.8,329.5 499.1,329.9 500.7,301.3 	"/>
	<path class="st1" d="M195.4,357.8c-3.6-2.3-7.7-3.7-11.9-4.1c-2-0.2-4.1-0.1-5.6,1c-0.4,0.2-0.6,0.6-0.6,1c0.1,0.3,0.3,0.5,0.6,0.7
		C182.9,360,189.7,360.6,195.4,357.8"/>
	<path class="st1" d="M195.1,357.4c-2.8-2-5.3-4.3-7.7-6.8c-2.4-2.5-4-5.6-4.8-8.9c-0.3-1-0.2-2.1,0.4-3
		C189.1,343.5,193.9,349.7,195.1,357.4"/>
	<path class="st1" d="M195.3,357.7c-0.6-3.3-0.5-6.8,0.1-10.1c0.7-3.4,2.6-6.3,5.4-8.3c1.1,2.5,0.6,5.3-0.1,7.9
		c-1.2,4-3,7.8-5.3,11.2"/>
	<path class="st1" d="M201.3,368.5c-3.6,0.6-6.9,2.3-9.6,4.8c-2.7,2.5-4.6,5.8-5.5,9.4c3.6-0.2,6.6-2.7,8.8-5.6
		S198.8,371.2,201.3,368.5"/>
	<path class="st1" d="M202.6,370.2c-2.9-7.4-1.9-15.8,2.7-22.3C207.4,355.3,206.7,363.7,202.6,370.2"/>
	<path class="st1" d="M210.6,379.7c-6.8-0.4-13.2,3.2-16.3,9.3c-0.2,0.4-0.4,0.9-0.1,1.3c0.3,0.3,0.7,0.4,1.1,0.3
		c3.2-0.2,6.1-2.1,8.4-4.3S208,381.5,210.6,379.7"/>
	<path class="st1" d="M210.3,379.1c-1.7-5.5-1.8-11.4-0.3-16.9c0.6-2.2,1.6-4.5,3.6-5.5c0.2-0.1,0.4-0.1,0.6-0.1
		c0.2,0.1,0.3,0.2,0.4,0.4c0.7,1.5,1,3.2,0.9,4.9c-0.1,1.7-0.4,3.3-0.8,4.9c-0.6,3-1,6.2-2.6,8.8c-0.4,0.6-0.7,1.3-1.1,1.9
		c-0.3,0.7-0.3,0.9-0.6,1.4"/>
	<path class="st1" d="M231.3,382.3c-1.4-6.3,0-12.9,3.8-18c0.3-0.4,0.6-0.7,1.1-0.7c0.7,0.1,0.9,1,0.8,1.7
		C236.8,371.3,234.8,377.2,231.3,382.3"/>
	<path class="st1" d="M233.2,383.6c7.4,1.8,15.3,0.2,21.4-4.4c-3.6-1.8-7.7-2.3-11.6-1.4C239.2,378.5,235.7,380.5,233.2,383.6"/>
	<path class="st1" d="M234.8,379.6c4.3-6.6,11.5-10.8,19.5-11.2c-1.1,3.1-3.4,5.6-6.4,7c-3,1.3-6.1,2.3-9.3,2.7
		C237.3,378.4,235.6,378.6,234.8,379.6"/>
	<path class="st1" d="M231.7,360.5c1.2-3.7,2.1-7.5,2.5-11.4c0.4-3.9-0.4-7.8-2.3-11.3c-3.9,7.2-4,15.8-0.3,23.1"/>
	<path class="st1" d="M244.4,354.1c4.4-8,13.4-14.4,22.5-15.3C263.4,347.5,253.8,354.3,244.4,354.1"/>
	<path class="st1" d="M241.6,355.7c6.6,1,12.2,5.2,18.3,7.7c1.3,0.6,2.7,0.9,4.1,0.8c1.8,0,3.2-1.5,3.2-3.3c0-0.9-0.4-1.8-1.2-2.4
		c-0.9-0.8-1.9-1.4-3-1.8c-6.7-2.8-13.9-2.9-20.9-1.2"/>
	<path class="st1" d="M237.8,360.3c1.5,0.4,2,1.2,3.2,2.2c4,3.4,8.8,5.9,13.9,7.1c0.5,0.1,1.2,0.2,1.5-0.3s-0.1-0.9-0.4-1.3
		c-2.2-2.6-5.1-4.6-8.4-5.7c-3.2-1.2-6-2.6-9.8-2.3"/>
	<path class="st1" d="M233.5,332.5c5.4,5,12.8,7.5,20.1,6.9c0.3,0,0.7-0.1,0.9-0.3c0.5-0.5-0.1-1.4-0.7-1.9
		C248,332.5,240.8,330.6,233.5,332.5"/>
	<path class="st1" d="M238.6,330.6c7.2-5.3,16.6-6.9,25.1-4.1c-3.3,3.1-7.5,4.9-12,5.2C247.3,332.1,242.9,331.7,238.6,330.6"/>
	<path class="st1" d="M236.6,317.8c-0.6-5.9-0.2-10.6-0.6-16.5c0-0.5-0.1-1-0.6-1.2c-0.6-0.2-1.1,0.5-1.3,1.1
		c-1.7,5.6-0.8,11.6,2.5,16.4"/>
	<path class="st1" d="M236.2,318.5c3.9-2.5,7.2-5.7,9.8-9.5c1.9-2.6,3.6-5.8,3.1-9c-2.8,0.1-5.3,1.4-7.1,3.5
		c-1.7,2.1-2.9,4.6-3.6,7.2C237.7,313.3,237.1,316,236.2,318.5"/>
	<path class="st1" d="M245.8,315.8c8.8-3.3,17-8.1,24.1-14.2c-2.9-1.2-6.2-0.5-9,0.7c-6.5,2.5-11.9,7.3-15.2,13.4"/>
	<path class="st1" d="M238.9,321.7c4.4,0.6,8.9,0.6,13.4,0.1c4.3-0.9,8.5-2.3,12.5-4.1c0.4-0.1,0.7-0.3,0.9-0.6
		c0.1-0.4,0-0.8-0.3-1.1c-0.3-0.2-0.7-0.4-1.1-0.5c-4.5-1.1-9.2-0.8-13.5,0.8C246.6,317.6,242.6,319.5,238.9,321.7"/>
	<path class="st1" d="M213.5,332.6c-2.9-6.2-3-13.3-0.2-19.6c1.8,2.8,2.1,6.4,1.7,9.7s-1.4,6.8-1.4,10.1"/>
	<path class="st1" d="M201.4,326.5c-7.7-0.1-15,3-20.3,8.6c3.8,0.5,7.7-0.3,11.1-2.1c3.4-1.8,6.6-3.9,9.5-6.4"/>
	<path class="st1" d="M193.2,323.8c-3.7-0.3-7.3-0.8-10.8,0.3c-3.6,1-6.6,3.6-8.2,7c3.5,0.3,7-0.4,10.1-1.9
		C187.4,327.7,190.4,325.9,193.2,323.8"/>
	<path class="st1" d="M205.3,323.9c-3.3-2.2-6.8-4.4-10.6-5.3s-8.4-0.2-11.1,2.7c3.1,1.8,6.9,2.1,10.6,2.1s8.1,0,11.5,1.2"/>
	<path class="st1" d="M205.3,324.1c-5.7-5.6-7.9-15.6-5.6-23.3C204.2,307.7,206.2,315.9,205.3,324.1"/>
	<path class="st1" d="M221,308.3c1.1-2.5,1.8-5.1,2.8-7.7c0.9-2.6,2.2-5,4-7.1c1.8-2.1,4.3-3.4,7.1-3.6c-1.8,7.8-6.7,14.5-13.7,18.4
		"/>
	<path class="st1" d="M218.1,311.6c-1.8-2.5-3.8-5.8-6.2-7.6s-5.6-2.9-8.5-2.2C206.5,307.2,212,310.8,218.1,311.6"/>
	<path class="st1" d="M218.7,308.5c-1.3-2.9-2.2-6-2.8-9.1c-0.6-3.2-0.1-6.4,1.4-9.2c3.1,5.9,4.1,12.2,1.5,18.4"/>
	<path class="st1" d="M221,290.1c1.8-5.9,7.1-10.2,12.9-12.2c0.7-0.3,1.5-0.4,2.3-0.3c0.8,0.1,1.4,0.6,1.7,1.4
		c0.2,1-0.6,1.9-1.4,2.6C232,285.4,226.7,288.3,221,290.1"/>
	<path class="st1" d="M221.1,285.3c0.2-3.8,0.5-7.6,1.7-11.2s3.6-6.9,7.1-8.5c0.6,3.8-1.1,7.6-3.1,10.9s-4.5,6.4-5.7,10"/>
	<path class="st1" d="M221,287.9c-1.5-4.3-1.6-9.7-4.2-13.4c-1.8-2.6-4.6-4.4-6.2-7.1c-0.9,2.6-0.8,5.5,0.4,8.1
		c1.2,2.5,2.8,4.8,4.7,6.8C217.6,284.2,219.2,285.8,221,287.9"/>
	<path class="st1" d="M221,413.7c-0.1,0-0.2-28.5-0.2-63.6s0.1-63.6,0.2-63.6s0.2,28.5,0.2,63.6S221.1,413.7,221,413.7z"/>
	<path class="st1" d="M245.9,328.4c-0.3,0.2-0.7,0.3-1.1,0.4l-3,1c-2.5,0.9-5.9,2.1-9.6,3.6s-7.1,2.9-9.1,4.6
		c-0.8,0.7-1.4,1.5-1.8,2.4c-0.3,0.7-0.3,1.1-0.4,1.1c0-0.1,0-0.2,0-0.3c0-0.3,0.1-0.6,0.2-0.8c0.4-1,1-1.9,1.8-2.6
		c1.2-1,2.5-1.8,3.9-2.5c1.6-0.7,3.3-1.5,5.2-2.3c3.7-1.5,7.2-2.7,9.7-3.5c1.2-0.4,2.3-0.7,3-0.9
		C245.1,328.5,245.5,328.4,245.9,328.4z"/>
	<path class="st1" d="M254.1,308.3c-0.1,0.1-0.2,0.2-0.3,0.3l-0.9,0.9l-3.4,3.1l-11.4,10.1c-4.4,4-8.3,7.7-10.9,10.6
		c-1.3,1.4-2.4,2.6-3.1,3.4l-0.8,0.9c-0.1,0.1-0.2,0.2-0.3,0.3c0.1-0.1,0.2-0.2,0.2-0.4c0.2-0.2,0.4-0.6,0.8-1
		c0.7-0.9,1.7-2.1,3-3.5c3.4-3.7,7.1-7.3,10.9-10.7c4.4-3.9,8.5-7.5,11.4-10l3.5-3l1-0.8C253.8,308.5,254,308.4,254.1,308.3z"/>
	<path class="st1" d="M233.3,326.7c-0.1,0,0.8-2.2,1.7-4.9s1.4-5,1.5-5c-0.1,1.7-0.5,3.5-1.1,5.1c-0.4,1.2-0.9,2.3-1.4,3.4
		C233.9,325.8,233.6,326.3,233.3,326.7z"/>
	<path class="st1" d="M221,344c-0.3-0.2-0.5-0.5-0.7-0.8l-1.8-2.2c-1.5-1.9-3.5-4.5-5.8-7.4s-4.4-5.5-5.9-7.3l-1.8-2.3
		c-0.2-0.3-0.4-0.5-0.6-0.8c0.3,0.2,0.5,0.5,0.7,0.7c0.5,0.5,1.1,1.2,1.9,2.1c1.6,1.8,3.7,4.4,6,7.2s4.3,5.5,5.7,7.5
		c0.7,1,1.3,1.8,1.6,2.3C220.7,343.4,220.9,343.7,221,344z"/>
	<path class="st1" d="M215.6,337c-1.1-1.2-1.9-2.7-2.3-4.3c-0.4-1.4-0.6-2.9-0.5-4.3h0.2c-0.1,0.3-0.1,0.5-0.2,0.5s0-0.2,0-0.5h0.2
		c0.1,1.4,0.3,2.8,0.7,4.2C214.2,334.1,214.8,335.6,215.6,337z"/>
	<path class="st1" d="M208.5,328.1c-0.5-0.4-1-0.7-1.6-0.9c-1.4-0.4-2.9-0.5-4.4-0.4c-1.5,0.1-3,0.4-4.5,0.7
		c-0.6,0.2-1.2,0.3-1.8,0.4c0.5-0.3,1.1-0.6,1.8-0.7c1.5-0.5,3-0.7,4.5-0.9c1.5-0.2,3.1,0,4.6,0.5
		C207.7,327.1,208.2,327.5,208.5,328.1z"/>
	<path class="st1" d="M206.9,325.9c0,0.1-0.9-0.4-2.4-0.9c-4-1.4-8.2-1.7-12.3-0.9c-1.6,0.3-2.5,0.6-2.6,0.5
		c0.2-0.1,0.4-0.2,0.6-0.3c0.6-0.2,1.2-0.4,1.9-0.5c4.2-0.9,8.5-0.6,12.5,1c0.6,0.2,1.2,0.5,1.8,0.8
		C206.7,325.8,206.9,325.9,206.9,325.9z"/>
	<path class="st1" d="M221,316.9c-0.7-2-1.3-4.1-1.8-6.2c-0.6-2.1-1.1-4.2-1.4-6.3c0.7,2,1.3,4.1,1.8,6.2
		C220.2,312.6,220.7,314.7,221,316.9z"/>
	<path class="st1" d="M221.1,316.9c-0.6-1.3-1.2-2.5-2-3.7c-0.8-1.1-1.8-2.1-2.9-3c0.4,0.1,0.8,0.3,1.1,0.6c0.8,0.6,1.5,1.3,2.1,2.2
		C220.3,314.1,220.9,315.4,221.1,316.9z"/>
	<path class="st1" d="M221,398.5c0,0-0.1-0.7-0.4-1.9c-0.5-1.7-1.1-3.4-1.9-4.9c-2.7-5.2-6.1-9.9-10.1-14.2c-2.2-2.6-4.4-5-6.3-7.3
		c-1.7-2-3.2-4.2-4.5-6.5c-0.9-1.5-1.7-3.2-2.3-4.8c-0.2-0.6-0.4-1.1-0.4-1.4c-0.1-0.2-0.1-0.3-0.1-0.5c0,0,0.2,0.6,0.7,1.8
		c0.7,1.6,1.5,3.2,2.4,4.7c1.4,2.2,2.9,4.4,4.6,6.4c1.9,2.3,4,4.7,6.3,7.3c4,4.3,7.4,9.2,10.1,14.4c0.8,1.6,1.4,3.3,1.8,5
		c0.1,0.5,0.2,1,0.3,1.4C221,398.2,221,398.3,221,398.5z"/>
	<path class="st1" d="M243.5,373.1c-0.4,0.2-0.8,0.5-1.2,0.7c-1.1,0.6-2.1,1.3-3.1,2c-1.4,1.1-2.8,2.3-4,3.7
		c-1.4,1.5-2.9,3.2-4.3,5.1c-3,3.7-5.7,7-7.4,9.6c-0.8,1.3-1.4,2.4-1.9,3.2c-0.2,0.4-0.4,0.8-0.6,1.2c0-0.1,0.1-0.2,0.1-0.3
		c0.1-0.2,0.2-0.5,0.4-0.9c0.5-1.1,1.1-2.2,1.8-3.2c2.2-3.4,4.7-6.6,7.3-9.7c1.5-1.9,2.9-3.6,4.4-5.1c1.3-1.3,2.6-2.5,4.1-3.6
		c1-0.7,2-1.4,3.1-1.9c0.4-0.2,0.7-0.3,0.9-0.4C243.3,373.1,243.4,373.1,243.5,373.1z"/>
	<path class="st1" d="M244,381.3c-0.8,0.2-1.7,0.3-2.5,0.4c-2,0.2-4,0.6-5.9,1.2c-1.9,0.6-3.7,1.6-5.3,2.8c-1.2,0.9-1.8,1.7-1.9,1.7
		c0.1-0.2,0.2-0.4,0.4-0.6c0.4-0.5,0.8-0.9,1.3-1.3c1.6-1.3,3.4-2.3,5.4-2.9c2-0.6,4-0.9,6-1.1C242.3,381.3,243.2,381.3,244,381.3z"
		/>
	<path class="st1" d="M229.1,386.4c-0.1-0.1,1-1.8,1.9-4.1s1-4.4,1.2-4.3c0.1,0.4,0.1,0.9,0,1.3c-0.1,1.1-0.4,2.1-0.7,3.1
		c-0.4,1-0.9,2-1.4,2.9C229.8,385.8,229.5,386.1,229.1,386.4z"/>
	<path class="st1" d="M250.8,351c-0.1,0.1-0.3,0.2-0.4,0.2l-1.2,0.5c-0.5,0.2-1.1,0.5-1.8,0.9s-1.5,0.7-2.4,1.2l-1.4,0.8
		c-0.5,0.3-0.9,0.6-1.4,0.9c-1,0.6-2,1.4-3.1,2.1c-4.6,3.4-8.6,7.6-11.9,12.3c-0.7,1.1-1.4,2.1-2,3.1c-0.3,0.5-0.6,1-0.9,1.5
		s-0.5,0.9-0.7,1.4c-0.5,0.9-0.8,1.7-1.2,2.4s-0.6,1.3-0.8,1.9l-0.5,1.2c-0.1,0.1-0.1,0.3-0.2,0.4c0-0.1,0.1-0.3,0.1-0.4
		c0.1-0.3,0.2-0.7,0.4-1.2s0.4-1.2,0.7-1.9s0.6-1.6,1.1-2.5l0.7-1.4c0.2-0.5,0.6-1,0.8-1.5c0.6-1,1.3-2.1,2-3.2
		c3.2-4.8,7.3-9,11.9-12.4c1.1-0.8,2.1-1.5,3.1-2.1c0.5-0.3,1-0.6,1.4-0.9l1.4-0.8c0.9-0.5,1.7-0.9,2.4-1.2s1.4-0.6,1.9-0.8l1.2-0.5
		C250.5,351.1,250.6,351,250.8,351z"/>
	<path class="st1" d="M233,362.9c0.2-0.6,0.5-1.1,1-1.5c1.1-1,2.5-1.5,3.9-1.5c1.4,0,2.8,0.3,4.1,0.8c0.6,0.2,1.1,0.4,1.6,0.8
		c-0.6-0.1-1.1-0.3-1.7-0.5c-1.3-0.4-2.7-0.7-4.1-0.7c-1.4,0-2.7,0.5-3.8,1.3C233.8,362,233.4,362.5,233,362.9z"/>
	<path class="st1" d="M230.3,365.6c0.5-1.2,0.9-2.4,1.1-3.6c0.1-1.3,0-2.6-0.2-3.8c0.2,0.3,0.4,0.7,0.5,1.1c0.2,0.9,0.3,1.9,0.2,2.8
		c-0.1,0.9-0.4,1.8-0.8,2.7C230.7,365.4,230.4,365.7,230.3,365.6z"/>
	<path class="st0" d="M201.3,402.6c0.6,10.9,3.9,22,8.9,33.2h21.9c4.8-11.1,7.9-22.1,8.4-33.2H201.3z"/>
	<path class="st2" d="M237.1,420.2c0,0.1-7.2,0.2-16.1,0.2s-16.1-0.1-16.1-0.2s7.2-0.2,16.1-0.2S237.1,420.1,237.1,420.2z"/>
	<path class="st2" d="M236.6,424.2c0,0.1-6.8,0.2-15.1,0.2s-15.1-0.1-15.1-0.2s6.8-0.2,15.1-0.2S236.6,424,236.6,424.2z"/>
	<path class="st2" d="M210.6,409.7c0.3,3.4,0.3,6.7,0,10.1C210.4,416.5,210.4,413.1,210.6,409.7z"/>
	<path class="st2" d="M222.4,409.7c0.3,3.5,0.3,7,0,10.5C222.1,416.7,222.1,413.2,222.4,409.7z"/>
	<path class="st2" d="M233.4,409.7c0.3,3.6,0.3,7.1,0,10.7C233.2,416.8,233.2,413.2,233.4,409.7z"/>
	<path class="st2" d="M239.9,409.7c0,0.1-8.5,0.2-18.9,0.2s-18.9-0.1-18.9-0.2s8.5-0.2,18.9-0.2S239.9,409.6,239.9,409.7z"/>
	<rect x="455.1" y="84.7" class="st3" width="89.8" height="148.6"/>
	<rect x="452.1" y="84.7" class="st0" width="89.8" height="148.6"/>
	<rect x="456" y="87.7" class="st4" width="82.1" height="142.6"/>
	<rect x="471.6" y="106.2" class="st0" width="50.5" height="105.5"/>
	<path class="st0" d="M471.6,174.4c-0.1-9.9,8.8-19.5,18.5-20.9c4.6-0.7,9.6,0.3,13.9-1.5c7.8-3.2,10.2-13.5,18.1-16.6l0.3,76.3
		h-50.9V174.4z"/>
	<path class="st1" d="M684.1,376.3c3.2-1.5,6.9-2,10.4-1.3c1.9,0.2,3.7,1,5.1,2.3c1.3,1.4,1.5,3.9,0.1,5.1c-0.9,0.6-2.1,0.9-3.2,0.8
		c-2.8,0-5.8-0.5-8,1.1c-1.2,1-2.1,2.5-3.6,3c-1.5,0.4-3.1-0.3-3.9-1.7c-0.7-1.4-0.9-3-0.4-4.5C680.9,379.1,682.2,377.3,684.1,376.3
		z"/>
	<path class="st1" d="M676.8,362.3c1.9,2.8,5.7,1.9,7.4,0.2s2.5-4.1,3.2-6.5c1.5-5.3,3.1-10.9,1.9-16.3c-0.3-1.6-1-3.2-2.1-4.4
		c-1.1-1.3-2.8-1.8-4.5-1.5c-1.9,0.5-3.1,2.4-3.9,4.1c-2.5,5.2-3.8,10.9-3.9,16.7C675,357.3,675.3,360.1,676.8,362.3"/>
	<path class="st1" d="M671.5,366.3c2-2.6,2.6-6.1,1.6-9.3c-1.1-3.1-3-5.9-5.5-8c-2.9-2.6-6.2-4.5-9.8-5.8c-1.4-0.6-2.9-0.8-4.4-0.8
		c-1.5,0.1-2.9,0.9-3.7,2.2c-1,2,0,4.4,1,6.3c1.9,3.4,4,6.7,6.5,9.8c1.9,2.5,4.1,5,7.1,6.1s6,1,7.6-1"/>
	<path class="st1" d="M676.7,404c0.1-0.4,0.2-0.8,0.2-1.3c0.1-0.9,0.2-2.1,0.3-3.4c0.2-1.7,0.4-3.3,0.8-5c0.4-2,1.1-4,1.8-5.9
		c0.7-1.9,1.8-3.7,3-5.4c1-1.3,2.3-2.4,3.8-3.2c1-0.5,2.1-0.8,3.2-1c0.4,0,0.8-0.1,1.2-0.2c-0.4,0-0.9,0-1.3,0
		c-1.2,0.1-2.3,0.4-3.4,0.9c-1.6,0.8-2.9,1.8-4,3.2c-1.3,1.7-2.4,3.5-3.1,5.5c-0.8,1.9-1.4,4-1.8,6c-0.3,1.7-0.6,3.4-0.7,5.1
		c-0.1,1.5-0.2,2.6-0.2,3.5C676.7,403.2,676.7,403.6,676.7,404z"/>
	<path class="st1" d="M677,401.4c0-0.2,0-0.4,0-0.6c0-0.4,0-1,0-1.7c0-1.4,0-3.5,0.1-6.1c0.1-5.2,0.6-10.7,1.4-18.6
		c0.8-7.4,1.9-16,3.1-21.5c0.2-1.3,0.5-2.4,0.7-3.4s0.4-1.9,0.6-2.6s0.3-1.2,0.4-1.6c0.1-0.2,0.1-0.4,0.1-0.6
		c-0.1,0.2-0.2,0.4-0.2,0.5c-0.1,0.4-0.3,0.9-0.5,1.6s-0.4,1.5-0.7,2.5s-0.5,2.1-0.8,3.4c-1.4,6.6-2.5,13.3-3.2,20
		c-0.9,7.9-1.2,15-1.3,20.2c0,2.6,0,4.7,0.1,6.1c0,0.7,0.1,1.2,0.1,1.7C676.9,401,677,401.2,677,401.4z"/>
	<path class="st1" d="M677,387.6c0-0.6,0-1.2,0-1.7c-0.1-1.1-0.2-2.7-0.5-4.7c-0.4-2.3-0.9-4.6-1.5-6.9c-0.7-2.8-1.7-5.5-2.9-8.1
		c-2-4.8-4.9-9.3-8.5-13.1c-0.6-0.7-1.3-1.3-2-1.8c-0.3-0.3-0.6-0.5-0.8-0.7l-0.8-0.5c-0.5-0.3-1-0.7-1.5-0.9
		c1.7,1.3,3.3,2.8,4.8,4.3c3.5,3.9,6.2,8.3,8.2,13.1c1.1,2.6,2.1,5.3,2.9,8c0.8,2.5,1.2,4.9,1.6,6.8s0.6,3.6,0.7,4.7
		C676.8,386.4,676.9,387,677,387.6z"/>
	<polygon class="st0" points="663.7,411.9 665,430.8 689.4,430.8 690.8,411.9 	"/>
	<rect x="661.3" y="404.4" class="st0" width="32.3" height="7.5"/>
	<polygon class="st0" points="661.3,430.1 661.3,432.2 662.8,432.2 693.1,432.2 693.1,430.1 	"/>
	<polygon class="st0" points="664.3,435.8 662.8,432.2 692,432.2 690.2,435.8 	"/>
	<path class="st5" d="M690.3,418.1c0,0.1-0.1,0.1-0.1,0.2l-0.4,0.5l-1.4,1.8l-0.1,0.1l-0.1-0.1l-3.5-4.8h0.2l-3.4,4.9l-0.1,0.1
		l-0.1-0.1c-1.3-1.5-2.6-3.1-4.1-4.8h0.2l-0.2,0.3l-3.6,4.5l-0.1,0.2l-0.1-0.2l-3.4-4.9h0.2l-4.2,4.8l-0.1,0.1l-0.1-0.1l-1.3-2.2
		l-0.3-0.6c0-0.1-0.1-0.1-0.1-0.2c0.1,0.1,0.1,0.1,0.2,0.2c0.1,0.1,0.2,0.3,0.4,0.6c0.3,0.5,0.8,1.3,1.4,2.2h-0.1l4.2-4.9l0.1-0.1
		l0.1,0.1l3.5,4.8h-0.2l3.6-4.6l0.2-0.3l0.1-0.1l0.1,0.1l4,4.9h-0.2c1.2-1.8,2.4-3.4,3.5-4.8l0.1-0.1l0.1,0.1l3.4,4.9h-0.1l1.5-1.8
		l0.4-0.5L690.3,418.1z"/>
	<path class="st5" d="M691.1,411.8c0,0.1-6.1,0.1-13.6,0.1s-13.6-0.1-13.6-0.1s6.1-0.1,13.6-0.1S691.1,411.7,691.1,411.8z"/>
	<path class="st5" d="M692.3,432.4c0,0.1-6.6,0.1-14.8,0.1s-14.8-0.1-14.8-0.1s6.6-0.1,14.8-0.1S692.3,432.3,692.3,432.4z"/>
	<rect x="30.7" y="118.2" class="st0" width="33.3" height="54.6"/>
	<rect x="65.3" y="118.2" class="st0" width="36" height="54.6"/>
	<rect x="65.3" y="176.6" class="st0" width="36" height="52.8"/>
	<polygon class="st0" points="105.9,117.3 143.8,117.3 143.8,68.8 145.1,68.8 145.1,117.3 175.9,117.3 175.9,67.8 105.9,67.8 	"/>
	<rect x="145.1" y="118.2" class="st0" width="30.8" height="54.6"/>
	<rect x="145.1" y="176.6" class="st0" width="30.8" height="52.8"/>
	<rect x="30.7" y="176.6" class="st0" width="33.3" height="52.8"/>
	<rect x="105.9" y="176.6" class="st0" width="37.9" height="52.8"/>
	<rect x="30.7" y="230.4" class="st0" width="33.3" height="47.5"/>
	<rect x="145.1" y="230.4" class="st0" width="30.8" height="47.5"/>
	<polygon class="st0" points="64,117.3 64,68.8 65.3,68.8 65.3,117.3 101.3,117.3 101.3,67.8 30.7,67.8 30.7,117.3 	"/>
	<rect x="105.9" y="230.4" class="st0" width="37.9" height="47.5"/>
	<rect x="65.3" y="230.4" class="st0" width="36" height="47.5"/>
	<rect x="105.9" y="118.2" class="st0" width="37.9" height="54.6"/>
	<rect x="572.3" y="117.1" class="st0" width="33.3" height="54.6"/>
	<rect x="606.8" y="117.1" class="st0" width="36" height="54.6"/>
	<rect x="606.8" y="175.6" class="st0" width="36" height="52.8"/>
	<polygon class="st0" points="647.4,116.2 685.3,116.2 685.3,67.8 686.6,67.8 686.6,116.2 717.4,116.2 717.4,66.7 647.4,66.7 	"/>
	<rect x="686.6" y="117.1" class="st0" width="30.8" height="54.6"/>
	<rect x="686.6" y="175.6" class="st0" width="30.8" height="52.8"/>
	<rect x="572.3" y="175.6" class="st0" width="33.3" height="52.8"/>
	<rect x="647.4" y="175.6" class="st0" width="37.9" height="52.8"/>
	<rect x="572.3" y="229.3" class="st0" width="33.3" height="47.5"/>
	<rect x="686.6" y="229.3" class="st0" width="30.8" height="47.5"/>
	<polygon class="st0" points="605.5,116.2 605.5,67.8 606.8,67.8 606.8,116.2 642.8,116.2 642.8,66.7 572.3,66.7 572.3,116.2 	"/>
	<rect x="647.4" y="229.3" class="st0" width="37.9" height="47.5"/>
	<rect x="606.8" y="229.3" class="st0" width="36" height="47.5"/>
	<rect x="647.4" y="117.1" class="st0" width="37.9" height="54.6"/>
	<polygon class="st3" points="314,103.6 314,179.2 205.4,179.2 201.5,104.2 	"/>
	<rect x="201.5" y="104.2" class="st0" width="108.5" height="74.9"/>
	<rect x="213.3" y="113.5" class="st4" width="85" height="56.3"/>
	<path class="st3" d="M298.3,113.5h-0.4h-1.2H292l-17.5,0.1l-61.2,0.1l0.2-0.2c0,17.2,0,36.2,0,56.3l0,0l-0.3-0.3l85,0.1l-0.2,0.2
		c0-17.1,0.1-31.2,0.1-41c0-4.9,0-8.7,0-11.3c0-1.3,0-2.3,0-3s0-1,0-1s0,0.3,0,1s0,1.7,0,2.9c0,2.6,0,6.4,0.1,11.3
		c0,9.8,0.1,23.9,0.1,41.1v0.4h-0.2l-85,0.1H213v-0.3l0,0c0-20,0-39.1,0-56.3v-0.2h0.2l61.4,0.1l17.5,0.1h4.6h1.2L298.3,113.5z"/>
	<path class="st3" d="M201.5,104c0.7,0.3,1.3,0.7,1.9,1.2c1.1,0.8,2.6,1.9,4.2,3.2s3.1,2.6,4.1,3.5c0.6,0.5,1.1,1,1.6,1.6
		c-0.1,0.1-2.7-2-6-4.6C205.3,107.4,203.4,105.7,201.5,104z"/>
	<path class="st3" d="M310.1,104.2c-1.8,1.8-3.7,3.4-5.7,4.9c-1.9,1.6-3.9,3.1-6,4.4c1.8-1.8,3.6-3.4,5.6-4.9
		C305.9,107,307.9,105.5,310.1,104.2z"/>
	<path class="st4" d="M310,179.1l-12.1-9.8"/>
	<path class="st3" d="M297.9,169.2c2.2,1.4,4.3,3,6.2,4.7c2.1,1.6,4,3.3,5.9,5.1c-2.2-1.4-4.3-3-6.2-4.7
		C301.7,172.8,299.7,171.1,297.9,169.2z"/>
	<path class="st3" d="M201.5,179c1.8-1.7,3.7-3.3,5.7-4.8c1.9-1.6,3.9-3.1,6-4.4c-1.8,1.7-3.7,3.3-5.6,4.8
		C205.7,176.2,203.7,177.7,201.5,179z"/>
	<rect x="230.6" y="131" class="st0" width="53.5" height="18.8"/>
</g>
<g id="freepik--Floor--inject-6">
	<path class="st6" d="M717.3,436.1c0,0.1-153.3,0.3-342.3,0.3s-342.4-0.1-342.4-0.3s153.2-0.3,342.4-0.3S717.3,436,717.3,436.1z"/>
</g>
<g id="freepik--spotlight-2--inject-6">
	<rect x="377.4" y="14.4" class="st6" width="6" height="16.9"/>
	<path class="st6" d="M355.9,65.2c0.1-0.7,9.4-37.5,9.4-37.5c9.6-4.4,19.4-4.2,29.4,0l8.4,37.5H355.9z"/>
	<polygon class="st7" points="403.1,65.2 355.9,65.2 250.4,458.9 506.5,461.1 	"/>
	<polygon class="st8" points="403.1,65.3 355.9,65.4 250.4,458.9 506.5,461.2 	"/>
	<ellipse class="st4" cx="379.4" cy="65.2" rx="23.6" ry="8"/>
	<path class="st6" d="M403,65.2c-0.1-0.3-0.1-0.7-0.3-1c-0.4-0.9-1.1-1.7-2-2.2c-2.1-1.5-5.9-2.8-10.5-3.7
		c-5.5-0.9-11.1-1.1-16.6-0.6c-3.3,0.3-6.5,0.8-9.6,1.7c-1.7,0.5-3.3,1.1-4.8,2c-0.8,0.4-1.5,0.9-2.1,1.6c-0.6,0.6-1,1.4-1,2.2
		c0,0.8,0.4,1.6,1,2.2c0.6,0.6,1.3,1.1,2.1,1.5c1.5,0.9,3.1,1.5,4.8,2c3.2,0.9,6.4,1.5,9.7,1.8c5.5,0.5,11.1,0.3,16.6-0.6
		c4.7-0.8,8.4-2.1,10.5-3.6c0.9-0.5,1.6-1.3,2-2.2C402.9,65.9,403,65.6,403,65.2c0.1,0.4,0,0.8-0.1,1.1c-0.4,1-1.1,1.8-2,2.4
		c-2.2,1.6-5.9,3-10.6,3.8c-5.5,1-11.1,1.2-16.7,0.7c-3.3-0.2-6.6-0.8-9.8-1.7c-1.7-0.5-3.3-1.2-4.9-2c-0.8-0.4-1.5-1-2.2-1.7
		c-1.4-1.3-1.6-3.5-0.3-4.9c0.1-0.1,0.2-0.2,0.3-0.3c0.6-0.7,1.4-1.3,2.2-1.7c1.5-0.9,3.2-1.5,4.9-2c3.2-0.9,6.5-1.5,9.8-1.7
		c5.6-0.5,11.2-0.2,16.7,0.7c4.7,0.8,8.4,2.2,10.6,3.8c0.9,0.6,1.6,1.4,2,2.4C403,64.5,403,64.8,403,65.2z"/>
	<ellipse class="st7" cx="378.4" cy="459.9" rx="128.4" ry="25.7"/>
	<ellipse class="st9" cx="378.4" cy="459.9" rx="128.4" ry="25.7"/>
	<path class="st10" d="M360.9,478.9c0,0,4.1,2.5,10.4-0.8s15.8-11.4,19.8-11s3.1-0.2,9.9,3s14.9,3.4,25.5,1.5s17.7-2.7,13.8-7.1
		s-17.3-6.8-21.3-8.8s-39.4-2-41.6-0.3S360.9,478.9,360.9,478.9z"/>
	<path class="st4" d="M395.4,74.6c-0.4,0.2-0.9,0.3-1.4,0.4c-0.9,0.2-2.2,0.5-3.9,0.7c-4.3,0.6-8.7,0.8-13.1,0.5
		c-4.4-0.3-8.7-1-12.9-2.2c-1.6-0.4-2.9-0.9-3.8-1.2c-0.5-0.1-0.9-0.3-1.3-0.6c0.5,0.1,1,0.2,1.4,0.4c0.9,0.3,2.2,0.6,3.8,1.1
		c4.2,1.1,8.5,1.7,12.8,2c4.3,0.3,8.7,0.1,13-0.4c1.7-0.2,3-0.4,3.9-0.6C394.4,74.6,394.9,74.6,395.4,74.6z"/>
	<path class="st4" d="M355.5,434.2h-0.2l-0.7,0l-2.6,0.1c-1.1,0-2.5,0.1-4.1,0.2s-3.4,0.2-5.5,0.4c-8.1,0.6-19.2,1.6-31.5,3.3
		s-23.3,3.7-31.2,5.5c-4,0.9-7.1,1.7-9.3,2.3l-2.5,0.7l-0.6,0.2c-0.1,0-0.2,0-0.2,0c0.1,0,0.1-0.1,0.2-0.1l0.6-0.2l2.5-0.8
		c2.2-0.7,5.3-1.5,9.3-2.5c7.9-1.9,18.9-4,31.2-5.6s23.4-2.7,31.5-3.2c2-0.1,3.9-0.2,5.5-0.3s3-0.1,4.1-0.1h2.6h0.7
		C355.4,434.1,355.4,434.1,355.5,434.2z"/>
</g>
<g id="freepik--speech-bubble--inject-6">
	<path class="st4" d="M426.1,179.5l2-6.1c-2.1-3.2-3.3-6.8-3.4-10.6c-0.4-11.4,8.5-20.9,19.8-21.3c11.4-0.4,20.9,8.5,21.3,19.8
		c0.4,11.4-8.5,20.9-19.8,21.3c-4.5,0.2-9-1.2-12.7-3.8l0,0L426.1,179.5z"/>
	<path class="st11" d="M426.1,179.5l0.5-0.1l1.4-0.2l5.3-0.6l0,0.1l0,0c0,0,0-0.1,0-0.1c0,0,0,0,0,0c0,0,0,0,0.1,0
		c2.8,2,6,3.2,9.5,3.7c1.1,0.1,2.1,0.2,3.2,0.1c1.1-0.1,2.3-0.2,3.4-0.4c11.1-2.2,18.2-13,16-24.1c-0.7-3.7-2.5-7.1-5.1-9.9
		c-2.3-2.4-5.1-4.3-8.2-5.4c-3-1-6.2-1.4-9.3-1c-3,0.4-5.8,1.4-8.3,3c-4.5,2.9-7.7,7.3-8.9,12.5c-0.1,0.3-0.1,0.6-0.2,0.9
		c-0.1,0.3-0.1,0.6-0.1,0.9c-0.1,0.6-0.1,1.1-0.2,1.7c-0.1,1.1-0.1,2.1,0,3.2c0.3,3.4,1.4,6.7,3.3,9.5l0,0c-0.7,2-1.2,3.5-1.5,4.5
		c-0.2,0.5-0.3,0.9-0.4,1.2S426,179.4,426.1,179.5l0.1-0.5c0.1-0.3,0.2-0.7,0.4-1.2c0.3-1.1,0.8-2.6,1.5-4.6l0,0
		c-1.9-2.8-3.1-6.1-3.4-9.6c-0.1-1.1-0.1-2.1,0-3.2c0.1-0.6,0.1-1.1,0.2-1.7c0-0.3,0.1-0.6,0.1-0.9c0.1-0.3,0.1-0.6,0.2-0.9
		c1.2-5.2,4.5-9.8,9-12.7c2.5-1.6,5.4-2.7,8.4-3.1c3.2-0.4,6.4-0.1,9.5,1c3.2,1.1,6.1,3,8.4,5.4c0.3,0.3,0.6,0.6,0.8,0.9l0.8,1
		l0.7,1c0.2,0.3,0.5,0.7,0.6,1.1l0.6,1.1c0.2,0.4,0.3,0.7,0.5,1.1c0.1,0.4,0.3,0.8,0.5,1.1s0.2,0.8,0.3,1.2
		c3.1,11-3.3,22.3-14.3,25.4c-0.5,0.1-1,0.3-1.6,0.4c-1.1,0.2-2.3,0.4-3.4,0.4c-1.1,0-2.1,0-3.2-0.1c-3.4-0.4-6.7-1.7-9.5-3.7
		l0.1-0.1l0,0c0,0,0,0.1,0,0.1c0,0,0,0,0,0l0,0l-5.4,0.6l-1.4,0.1L426.1,179.5z"/>
	<polygon class="st11" points="435.7,162.5 438.6,159.4 444.7,164.2 453.7,153.9 456.7,156.7 444.5,170.1 	"/>
</g>
<g id="freepik--spotlights-1--inject-6">
	<path class="st6" d="M107.2,65.2c0.1-0.7,9.3-37.5,9.3-37.5c9.6-4.4,19.4-4.2,29.4,0l8.4,37.5H107.2z"/>
	<ellipse class="st4" cx="130.8" cy="65.2" rx="23.6" ry="8"/>
	<path class="st6" d="M154.4,65.2c-0.1-0.3-0.1-0.7-0.2-1c-0.4-0.9-1.1-1.7-2-2.2c-2.1-1.5-5.9-2.8-10.5-3.7
		c-5.5-0.9-11.1-1.1-16.6-0.6c-3.3,0.3-6.5,0.9-9.7,1.8c-1.7,0.5-3.3,1.1-4.8,2c-0.7,0.4-1.4,0.9-2,1.5c-0.6,0.6-1,1.4-1,2.2
		c0,0.8,0.4,1.6,1,2.2c0.6,0.6,1.3,1.1,2.1,1.5c1.5,0.9,3.1,1.5,4.8,2c3.2,0.9,6.4,1.5,9.7,1.7c5.5,0.5,11.1,0.3,16.6-0.6
		c4.7-0.8,8.4-2.1,10.5-3.6c0.9-0.5,1.6-1.3,2-2.2C154.3,65.9,154.3,65.6,154.4,65.2c0.1,0.4,0,0.7-0.1,1.1c-0.4,1-1.1,1.8-1.9,2.4
		c-2.2,1.6-5.9,3-10.6,3.8c-5.5,1-11.1,1.2-16.7,0.7c-3.3-0.2-6.6-0.8-9.8-1.7c-1.7-0.5-3.3-1.2-4.9-2c-0.8-0.4-1.5-1-2.2-1.7
		c-0.7-0.7-1.1-1.6-1.2-2.6c0.1-1,0.5-1.9,1.2-2.6c0.6-0.7,1.4-1.2,2.2-1.7c1.5-0.9,3.2-1.5,4.9-2c3.2-0.9,6.5-1.5,9.8-1.7
		c5.6-0.5,11.2-0.2,16.7,0.7c4.7,0.8,8.4,2.2,10.6,3.8c0.9,0.6,1.5,1.4,1.9,2.4C154.4,64.5,154.4,64.8,154.4,65.2z"/>
	<rect x="128.7" y="14.4" class="st6" width="6" height="16.9"/>
	<path class="st6" d="M586.9,65.2c0.1-0.7,9.4-37.5,9.4-37.5c9.6-4.4,19.4-4.2,29.4,0l8.4,37.5H586.9z"/>
	<ellipse class="st4" cx="610.5" cy="65.2" rx="23.6" ry="8"/>
	<path class="st6" d="M634,65.2c0-0.3-0.1-0.7-0.2-1c-0.4-0.9-1.1-1.7-2-2.2c-2.2-1.5-5.8-2.8-10.5-3.7c-5.5-0.9-11.1-1.1-16.6-0.6
		c-3.3,0.3-6.5,0.8-9.6,1.7c-1.7,0.5-3.3,1.1-4.8,2c-0.8,0.4-1.4,1-2,1.6c-1.2,1.1-1.4,2.9-0.3,4.2c0.1,0.1,0.2,0.2,0.3,0.3
		c0.6,0.6,1.3,1.1,2.1,1.5c1.5,0.9,3.1,1.5,4.8,2c3.2,0.9,6.4,1.5,9.7,1.8c5.5,0.5,11.1,0.3,16.6-0.6c4.7-0.8,8.4-2.1,10.5-3.6
		c0.9-0.5,1.6-1.3,2-2.2C633.9,65.9,634,65.6,634,65.2c0.1,0.4,0,0.8-0.1,1.1c-0.4,1-1.1,1.8-2,2.4c-2.2,1.6-5.9,3-10.6,3.8
		c-5.5,1-11.1,1.2-16.7,0.7c-3.3-0.2-6.6-0.8-9.8-1.7c-1.7-0.5-3.3-1.1-4.9-2c-0.8-0.4-1.5-1-2.2-1.7c-1.4-1.3-1.6-3.5-0.3-4.9
		c0.1-0.1,0.2-0.2,0.3-0.3c0.7-0.7,1.4-1.3,2.2-1.7c1.5-0.8,3.2-1.5,4.9-2c3.2-0.9,6.5-1.5,9.8-1.7c5.6-0.5,11.2-0.2,16.7,0.7
		c4.7,0.8,8.4,2.2,10.6,3.8c0.9,0.6,1.6,1.4,2,2.4C634,64.5,634.1,64.8,634,65.2z"/>
	<rect x="608.4" y="14.4" class="st6" width="6" height="16.9"/>
</g>
<g id="freepik--character-3--inject-6">
	<path class="st6" d="M606.8,456v1c0,0,16.7,6.9,16.8,10.1l-33.2-0.5l0.6-11.1C596,458,601.7,458.1,606.8,456z"/>
	<path class="st12" d="M590.4,466.6l0.2-2.7l31.8,1.5c0,0,1.5,0.7,1.3,1.7L590.4,466.6z"/>
	<path class="st4" d="M606.9,457.1c0,0.2-0.8,0.2-1.6,0.7s-1.2,1.2-1.4,1.1s0.1-1,1.1-1.6S607,457,606.9,457.1z"/>
	<path class="st4" d="M610.4,458.6c0,0.2-0.7,0.4-1.2,1.1s-0.7,1.4-0.9,1.4s-0.3-0.9,0.5-1.8S610.4,458.4,610.4,458.6z"/>
	<path class="st4" d="M612.3,462.8c-0.2,0-0.4-0.8,0.1-1.7s1.2-1.2,1.3-1.1s-0.4,0.6-0.8,1.3S612.5,462.8,612.3,462.8z"/>
	<path class="st6" d="M583,446l14.2,4l-3.5,8l3.7,20.3c0.2,1.2-0.5,2.3-1.6,2.6c-0.9,0.2-1.8,0-2.4-0.7c-3.1-3.5-14.6-16.5-14.3-18
		l0.5-4.2c0.3-1.1,0.6-2.1,0.9-3.1L583,446z"/>
	<path class="st12" d="M595.3,481l-16.1-20.2l-0.1,0.9c-0.1,0.8,0.1,1.6,0.7,2.1c1.3,2,4.9,6.7,13.5,16.5
		C593.8,480.8,594.5,481.1,595.3,481L595.3,481z"/>
	<path class="st4" d="M591.1,471c1.1-1.4,3-2.1,4.8-1.8c0-0.1-0.2-0.2-0.8-0.4c-0.7-0.1-1.4-0.1-2,0.2c-0.7,0.2-1.2,0.6-1.6,1.2
		C591.1,470.7,591,471,591.1,471z"/>
	<path class="st4" d="M592.4,474.1c0.7-0.3,1.4-0.5,2.1-0.8c0.7-0.1,1.5-0.1,2.2-0.1c-0.7-0.5-1.5-0.6-2.3-0.4
		C593,473.1,592.3,474,592.4,474.1z"/>
	<path class="st4" d="M588.4,467c1-0.5,2-1,3.1-1.4c1.1-0.2,2.3-0.4,3.4-0.5c-1.1-0.4-2.4-0.4-3.5,0
		C590.2,465.4,589.2,466.1,588.4,467z"/>
	<path class="st12" d="M594.4,462.3c0.3,1.9,0.7,3.7,0.9,4.9c0.1,0.7,0.3,1.4,0.5,2c0-0.7-0.1-1.4-0.2-2.1c-0.2-1.3-0.5-3-0.8-5
		c-0.3-1.6-0.6-3.1-0.8-4.3l0,0c0-0.9,0-1.8-0.2-2.7c-0.1,0.9-0.2,1.8-0.2,2.7l0,0l0,0"/>
	<path class="st6" d="M577.9,324.6c-1.1-4.9-1.3-10-0.7-15.1c1.8-12.2,3-16.7,9.2-29.9l1.5,0.4l46.6-0.4l1.8,2.8
		c4,10.8,6.8,17.2,7.9,25.1c1.3,9.1-1,22.3-6,35.6c-10.9,28.7-17,51.7-17.4,57.9s-1.1,12.6-6.8,32.2c-4.2,14.3-7.3,22.9-7.3,22.9
		c-4.3,2.5-9,3.1-13.2,0.7l-12.8-4.9c0,0,3.9-33.7,8.5-42.7c3.3-6.4,8.7-9.5,6.2-17.9S581.3,341.1,577.9,324.6z"/>
	<path class="st12" d="M625.3,297.2l-0.2,0.2l-0.5,0.7c-0.4,0.6-1.1,1.5-1.9,2.6l-7,10.1l0,0l0,0c0.3,3.8,0.5,8.1,0.7,13
		s0.5,10.2,0.8,16s0.6,11.9,1,18.4s0.7,13.2,1.3,20.1c0.7,5.8,1.3,11.4,0.8,16.9c-0.1,1.3-0.3,2.7-0.5,4c-0.2,1.3-0.6,2.6-1,3.9
		c-0.9,2.5-2,4.8-3,7.1c-4.1,9.2-7.9,17.5-11.1,24.4l-7.6,16.4c-0.9,1.9-1.6,3.4-2,4.5l-0.5,1.2c-0.1,0.3-0.2,0.4-0.2,0.4
		s0.1-0.1,0.2-0.4s0.3-0.7,0.6-1.1c0.5-1,1.2-2.5,2.1-4.4c1.8-3.9,4.5-9.5,7.7-16.3s7.1-15.1,11.2-24.4c1-2.3,2.1-4.7,3-7.1
		c0.4-1.3,0.8-2.6,1-3.9c0.3-1.3,0.4-2.7,0.6-4.1c0.5-5.5-0.1-11.2-0.8-17c-0.6-6.9-1-13.7-1.4-20.1s-0.7-12.6-1-18.4
		s-0.6-11.1-0.8-16s-0.4-9.2-0.8-13v0.1l6.9-10.1c0.8-1.2,1.4-2.1,1.8-2.7l0.5-0.7C625.3,297.3,625.3,297.3,625.3,297.2z"/>
	<path class="st6" d="M649.5,237.6c0-0.7-0.4-1.4-1.1-1.8c-9.5-6.3-16.6-20.2-17.3-32l-0.1-2l0,0c-0.5-16.8-3-37.3-5.2-42.7
		c-4.1-10.1-18-11-18-11c-18.5-1.3-21.8,12.9-23.7,25.8c-1.2,8-5.6,36.8-5.6,36.8l3.4,1.3c4,11.9,13,21.4,24.7,25.9
		c3.4,1.3,6.3,1.8,7.6,0.7c5.4,5.5,12.1,9.5,19.5,11.8c3,1,6.1,1.4,9.2,1.2c2-0.2,4.2-0.9,5.3-2.5c1.5-2.1,1.1-5-1-6.5
		c-0.9-0.6-1.9-1-3-0.9C645,239.5,649.6,240.1,649.5,237.6z"/>
	<path class="st13" d="M610.2,153.3l-1.2-1.1l-12.5,5c-1.8,0.1-3.2,1.6-3.3,3.4l0.1,40.7c-0.1,2.6,0.6,5.2,2.2,7.4l1.8,2.3
		c3.1,4.1,8.8,4.9,12.9,1.9c1-0.8,1.9-1.7,2.5-2.9c0.2-0.3,0.3-0.7,0.4-1.1c0.1-0.3,0.1-0.6,0.2-0.9c0.4-3.3,0.4-6.1,0.4-6.1
		c0.2-3.6,0.3-5.1,0.3-5s7.7-0.9,9.7-10.7c1-4.9,0.8-11.6,0.5-18.2C623.9,158.9,617.6,153.3,610.2,153.3z"/>
	<path class="st6" d="M608.2,174.2c0,0.7-0.6,1.2-1.3,1.2c-0.7,0-1.2-0.5-1.2-1.2c0,0,0,0,0,0c0-0.7,0.6-1.3,1.3-1.2
		C607.7,173,608.2,173.5,608.2,174.2z"/>
	<path class="st6" d="M620.7,174.2c0,0.7-0.6,1.2-1.3,1.2c-0.7,0-1.2-0.5-1.2-1.2c0,0,0,0,0,0c0-0.7,0.6-1.2,1.3-1.2
		C620.2,173,620.7,173.5,620.7,174.2C620.7,174.2,620.7,174.2,620.7,174.2z"/>
	<path class="st6" d="M623,170.6c-0.2,0.2-1.1-0.6-2.5-0.7s-2.4,0.6-2.5,0.4s0.1-0.4,0.5-0.7c0.6-0.4,1.3-0.5,2-0.5
		c0.7,0,1.4,0.3,2,0.7C623,170.2,623.1,170.6,623,170.6z"/>
	<path class="st6" d="M609.2,170.8c-0.2,0.1-1-0.7-2.4-0.9s-2.5,0.3-2.6,0.1s0.1-0.4,0.6-0.6c0.6-0.3,1.4-0.4,2.1-0.3
		c0.7,0.1,1.4,0.4,1.9,0.9C609.2,170.4,609.2,170.7,609.2,170.8z"/>
	<path class="st6" d="M613.9,180.7c0.7-0.2,1.5-0.3,2.2-0.3c0.3,0,0.7-0.1,0.8-0.3c0-0.4,0-0.7-0.2-1.1c-0.3-0.9-0.6-1.8-0.9-2.7
		c-1.2-3.9-2.1-7-2-7.1c1,2.2,1.9,4.5,2.5,6.9c0.3,0.9,0.6,1.9,0.9,2.7c0.2,0.4,0.2,0.9,0.1,1.4c-0.1,0.2-0.3,0.4-0.6,0.5
		c-0.2,0-0.4,0.1-0.6,0.1C615.4,180.9,614.7,180.8,613.9,180.7z"/>
	<path class="st14" d="M614.1,196.9c-4.7-0.2-9.2-1.6-13.1-4.2c0,0,3,7,13,6.6L614.1,196.9z"/>
	<path class="st14" d="M613.2,184c-0.5-0.7-1.3-1.1-2.2-1c-0.6,0-1.2,0.3-1.6,0.8c-0.4,0.5-0.5,1.1-0.2,1.6c0.4,0.5,1.1,0.7,1.8,0.5
		c0.7-0.2,1.3-0.6,1.8-1c0.2-0.1,0.3-0.2,0.4-0.4C613.3,184.4,613.3,184.2,613.2,184"/>
	<path class="st6" d="M609.9,181.5c0.2,0,0.2,1.5,1.4,2.6s2.8,1,2.8,1.2s-0.4,0.3-1,0.3c-0.9,0-1.7-0.4-2.3-1c-0.6-0.6-1-1.3-1-2.2
		C609.6,181.8,609.8,181.4,609.9,181.5z"/>
	<path class="st6" d="M610.5,165.4c-0.2,0.4-1.5,0-3.1-0.1s-3,0.2-3.1-0.2c-0.1-0.2,0.2-0.5,0.8-0.8c1.5-0.7,3.3-0.6,4.8,0.2
		C610.3,164.9,610.5,165.3,610.5,165.4z"/>
	<path class="st6" d="M622.8,164.8c-0.2,0.3-1.2-0.1-2.3-0.1s-2.1,0.1-2.3-0.2c-0.1-0.2,0.1-0.5,0.5-0.7c0.6-0.3,1.2-0.5,1.9-0.4
		c0.7,0,1.3,0.3,1.8,0.7C622.8,164.3,623,164.6,622.8,164.8z"/>
	<path class="st6" d="M593.5,178c0,0,7,2.2,11-15.1c1.4-5.9,6.8-10.7,6.8-10.7l-2.2-0.7c0,0-13.8,3.9-14,4.1s-3.5,7.1-3.5,7.1
		L593.5,178z"/>
	<path class="st13" d="M595.2,177.4c0-0.7-0.7-2.5-1.5-2.7c-1.9-0.4-5.4-0.4-5.7,4.5c-0.4,6.8,6.5,5.8,6.5,5.6
		S595.1,179.9,595.2,177.4z"/>
	<path class="st14" d="M592.7,182.1c0,0-0.1,0.1-0.3,0.1c-0.3,0.1-0.6,0.1-0.9,0c-0.9-0.6-1.3-1.6-1.2-2.7c0-0.6,0.2-1.1,0.4-1.7
		c0.1-0.4,0.5-0.7,0.9-0.9c0.3-0.1,0.6,0.1,0.7,0.4c0.1,0.2,0,0.3,0.1,0.3s0.2-0.1,0.1-0.4c0-0.2-0.1-0.3-0.2-0.4
		c-0.2-0.2-0.4-0.2-0.6-0.2c-0.6,0.1-1.1,0.5-1.3,1c-0.3,0.6-0.5,1.2-0.5,1.9c0,1.4,0.6,2.7,1.5,3c0.4,0.1,0.8,0.1,1.1-0.1
		C592.6,182.3,592.7,182.1,592.7,182.1z"/>
	<path class="st12" d="M589,203.5c0-0.1-0.1-0.2-0.1-0.3c0-0.2-0.1-0.6-0.2-1c-0.2-0.9-0.3-2.1-0.6-3.7h0.2l0.1,0.8l0,0l0.1,0.3
		l-0.2,0.1c-1-3.6-1.8-7.2-2.2-10.9c-0.3-2.3-0.4-4.7-0.4-7c-0.1-2.6,0.1-5.2,0.7-7.7c0.3-1.1,0.7-2.1,1.2-3.1
		c0.5-0.9,1.2-1.8,1.9-2.6c1.4-1.6,2.9-2.9,4.2-4.3l7.2-7.1c2-2,3.7-3.6,4.9-4.8l1.3-1.3l0.3-0.3l0.1-0.1c0,0-0.1,0.1-0.1,0.1
		l-0.3,0.4l-1.3,1.3l-4.8,4.9l-7.2,7.2c-1.3,1.4-2.8,2.7-4.2,4.3c-1.4,1.6-2.5,3.5-3,5.5c-0.5,2.5-0.8,5.1-0.7,7.6
		c0,2.3,0.1,4.7,0.4,7c0.4,3.7,1.1,7.3,2.1,10.9l-0.2,0.1l-0.1-0.3l0,0l-0.1-0.8h0.2c0.2,1.6,0.4,2.8,0.5,3.7c0.1,0.4,0.1,0.7,0.1,1
		C589,203.4,589,203.4,589,203.5z"/>
	<path class="st12" d="M584.5,170.8c0-0.1,0.1-0.2,0.1-0.3l0.4-0.8c0.3-0.7,0.9-1.7,1.6-2.8s1.6-2.6,2.7-4s2.3-3,3.7-4.6
		s2.8-3,4.2-4.2s2.6-2.3,3.7-3.1s2-1.5,2.7-1.9l0.7-0.5c0.1-0.1,0.2-0.1,0.3-0.1c0,0-0.1,0.1-0.2,0.2l-0.7,0.5
		c-0.6,0.4-1.5,1.1-2.6,2s-2.3,1.9-3.7,3.1s-2.7,2.6-4.1,4.2s-2.6,3.1-3.7,4.6s-2,2.8-2.7,4s-1.3,2.1-1.7,2.8l-0.5,0.8
		C584.7,170.7,584.6,170.7,584.5,170.8z"/>
	<path class="st4" d="M627.4,223.5c0-0.2-10.1-20-10.1-20l-3.2-4.6l-0.1,2.2l-1.5,8.3l-19.3-11.9c0,0-1.6,3-1.8,3.4l11.7,36.6
		l6.4,37.7l3.7,5.9l20.1-1.5l-1.2-27.1l1.3-8.3C633.6,244.3,627.4,223.8,627.4,223.5z"/>
	<path class="st7" d="M588,205.9l-12.1,4.6l12.2,54.4c0,0-2.5,8.9-4.9,14.8c-8.9,22.5-10.7,35.8-10.7,35.8L607,318
		c0,0,9.6-42.7,8.9-52.3s-2-23.1-5.8-32.6s-18.5-32.9-18.5-32.9L588,205.9z"/>
	<path class="st7" d="M614.6,199.2l5.5,4.5l15.1,2.2c0,0,7.1,25.8,5.8,36s0.5,27.8,0.5,27.8l8.2,46.4l-13.1,0.6
		c0,0-4.2-50.1-4.4-49.6c0,0-0.7-24.1-2.3-31.2S617,206,617,206L614.6,199.2z"/>
	<path class="st7" d="M654.2,263.5c0,0,6.1-2.8,6.1-8.2s-3.7-13.1-4.5-16S637,205.6,635.2,206l-1.8,0.4l9.5,41.7l-14,3.9l6,15.6
		L654.2,263.5z"/>
	<path class="st13" d="M635.7,250.1l2.7-8.6l0.5-5.9l6.3-4.2c0,0,1.7,0.2,1.2,1.5s-3.1,3.6-3.1,3.6l-1.5,4.2l2.4-4.2l3.6-1.8
		l3.5,0.3c0,0,0.7,1.6-1,1.6h-1.8l-2.7,2.1l-1.7,4l2.5-3.9l3.7-1.3l2.3,0.6c0,0,0.7,1-0.5,1.2s-2,0.1-2,0.1l-2.1,1.3l-1.9,4l3.3-2.7
		l4.3-0.5c0,0,0.7,1-0.4,1.4c-1.1,0.5-2.2,1-3.3,1.6l-2.4,2.9L635.7,250.1z"/>
	<path class="st6" d="M614.4,275.6c0-0.1,0-0.1-0.1-0.2l-0.2-0.6c-0.1-0.5-0.3-1.3-0.6-2.2c-0.5-2-1.2-4.8-2-8.2s-1.9-7.6-3.1-12.2
		c-0.6-2.3-1.2-4.7-1.9-7.2c-0.3-1.2-0.7-2.5-1.1-3.8c-0.2-0.6-0.4-1.3-0.6-1.9c-0.2-0.6-0.5-1.3-0.8-1.9c-2.2-4.4-4.5-8.6-6.5-12.5
		l-5.6-10.4v-0.1l0.1-0.1c0.4-0.4,0.8-0.7,1.2-1.1c0.2-0.2,0.4-0.3,0.6-0.5c0,0,0.1,0,0.1,0l0,0l0,0l0,0c0,0,0,0.1,0,0.1l0,0h-0.5
		c-1,0-1.9,0-2.8,0h-0.1V213c-0.9-2.2-1.5-4-2-5.2c-0.2-0.6-0.4-1.1-0.5-1.4l-0.1-0.4c0,0,0-0.1,0-0.1c0,0,0,0,0.1,0.1l0.2,0.4
		c0.1,0.3,0.3,0.8,0.6,1.4c0.5,1.2,1.2,3,2.1,5.2h-0.1c0.9,0,1.8-0.1,2.8-0.1h0.3c0.1,0,0.1,0,0.2,0l0,0l0,0c0,0,0,0.1,0,0.1v0.1
		h-0.1l0,0h-0.1c-0.2,0.1-0.4,0.3-0.6,0.5c-0.4,0.3-0.8,0.7-1.2,1.1v-0.1l5.6,10.4c2.1,3.9,4.3,8.1,6.6,12.5
		c0.3,0.6,0.6,1.2,0.8,1.9c0.2,0.6,0.4,1.3,0.6,1.9c0.4,1.3,0.7,2.5,1.1,3.8c0.7,2.5,1.3,4.9,1.9,7.2c1.2,4.6,2.2,8.7,3,12.2
		l1.9,8.2l0.5,2.2l0.1,0.6C614.4,275.5,614.5,275.6,614.4,275.6z"/>
	<path class="st6" d="M633.6,246.3c0-0.2,0-0.3,0-0.5c0-0.3,0-0.8,0.1-1.3c0-0.3,0-0.6,0.1-1v-1.1c0-0.8,0-1.8-0.1-2.8
		c-0.3-5.4-1.4-10.6-3.1-15.7c-0.7-2.1-1.6-4.2-2.5-6.2l0,0c-0.9-2-1.8-3.9-2.9-5.7c-1-1.7-1.9-3.1-2.6-4.4s-1.3-2.1-1.8-2.8
		l-0.5-0.8c-0.1-0.1-0.1-0.2-0.2-0.3c0.1,0.1,0.1,0.2,0.2,0.2c0.1,0.2,0.3,0.4,0.5,0.7c0.4,0.6,1.1,1.6,1.8,2.8s1.7,2.6,2.7,4.3
		c1.1,1.8,2.1,3.8,3,5.7l0,0c1,2,1.9,4.1,2.6,6.3c1.8,5.1,2.8,10.4,3,15.8c0.1,1,0,2,0,2.8c0,0.4,0,0.8,0,1.1s-0.1,0.7-0.1,0.9
		c0,0.6-0.1,1-0.1,1.3C633.7,246,633.6,246.1,633.6,246.3z"/>
	<path class="st6" d="M654.6,263.3c-0.1,0-0.2,0.1-0.4,0.1l-1.1,0.2l-4.1,0.9l-14.3,3h-0.1v-0.1c-1.2-3.5-2.5-7.4-3.9-11.5l-1.4-4.2
		l-0.1-0.2h0.2l10.7-2.5l4.6-1.1l2.1-0.5c0.7-0.2,1.3-0.3,2-0.3c1.1,0,2.3,0.2,3.3,0.7c0.8,0.4,1.5,0.8,2.1,1.4
		c0.4,0.4,0.8,0.8,1.1,1.2l0.2,0.4c0,0,0.1,0.1,0.1,0.1c-0.4-0.6-0.9-1.1-1.4-1.6c-0.6-0.5-1.3-1-2.1-1.3c-1-0.5-2.1-0.7-3.2-0.6
		c-0.6,0-1.3,0.2-1.9,0.4l-2.1,0.5l-4.6,1.1l-10.8,2.6l0.1-0.2l1.4,4.2l3.9,11.5l-0.2-0.1l14.3-2.9l4.1-0.8l1.1-0.2L654.6,263.3z"/>
	<polygon class="st7" points="584.7,284 604.5,285.9 601.1,291.9 580.2,289.9 	"/>
	<path class="st6" d="M584.7,284l-0.1,0.1l-0.2,0.3l-0.9,1.2l-3.2,4.3l-0.1-0.2l20.1,1.9l0.7,0.1l-0.2,0.1l3.4-6.1l0.1,0.2
		l-14.2-1.4l-4.1-0.4l-1.1-0.1C585,284.1,584.8,284,584.7,284h0.4l1.1,0.1l4.1,0.3l14.2,1.2h0.2l-0.1,0.2l-3.4,6.1v0.1h-0.1
		l-0.7-0.1l-20.1-2h-0.2l0.1-0.1l3.3-4.3l0.9-1.1L584.7,284z"/>
	<polygon class="st7" points="638,286.1 641.2,291.9 647.8,290.5 644.3,285.2 	"/>
	<path class="st6" d="M638,286.1l0.4-0.1l1.2-0.2c1.1-0.2,2.7-0.5,4.6-0.7h0.1v0.1l3.5,5.4l0.1,0.2h-0.2l-0.3,0.1l-6.3,1.3H641l0,0
		c-0.9-1.8-1.7-3.3-2.2-4.3l-0.6-1.2C638.1,286.4,638.1,286.2,638,286.1c0.1,0.2,0.2,0.3,0.2,0.5l0.7,1.2c0.6,1,1.4,2.4,2.3,4.2
		l-0.2-0.1l6.3-1.3l0.3-0.1l-0.1,0.2l-3.5-5.4l0.1,0c-1.8,0.3-3.4,0.4-4.5,0.6l-1.3,0.1C638.4,286.1,638.2,286.1,638,286.1z"/>
	<g class="st15">
		<polygon points="582.7,290.1 581.8,291.9 602.4,293.8 604,286.9 601.1,291.9 		"/>
	</g>
	<g class="st15">
		<path d="M586.9,263.4c0,0,3.2,6.8,7.4,8.8c5.7,2.7,20.1,0.9,20.1,0.9V269l-16.6,1L586.9,263.4z"/>
	</g>
	<path class="st7" d="M576.7,210.1c0,0-5.8,0.4-5.9,15.6s17.7,40.7,20.7,43.2s6.5,4.2,15.7,2.8c11.5-1.7,19.5-3.2,19.5-3.2
		l-1.6-13.9l-20.5-0.9l-16.6-34.2C587.9,219.5,582.4,209.4,576.7,210.1z"/>
	<g class="st15">
		<path d="M630,260.4c-2.3-0.8-4.8-1.1-7.2-1h-9.7c-2.1-0.1-4.2,0.1-6.2,0.5c-2.1,0.4-3.9,1.7-5.1,3.4l-5.1,4.2
			c6.5,1.6,13.3,1.2,19.5-1.1c1.5-0.7,3.1-1.2,4.8-1.5c4.4-0.7,8.8,1.9,13.2,1C634.2,263.4,632.2,261.3,630,260.4z"/>
	</g>
	<path class="st13" d="M597.2,246.3c1.9,0.8,3.8,1.4,5.8,1.9c2.5,0.5,4.9,1.3,7.2,2.3c1.6,0.6,3.2,1.4,4.8,2.2l3,10.6
		c-3.3,1.9-7,3-10.8,3c-5.7-0.2-10.8,1.7-11.5,1.2s-0.8-1.4,0-1.8c1.4-0.4,2.8-0.7,4.3-0.9l3-1.2c0,0-10.2,0.9-11,0.5
		s-1.6-1-1.3-1.9c0.2-0.5,0.6-0.9,1.1-0.9c0,0-2.2,0.1-2.1-0.8c0.1-0.8,0.6-1.4,1.2-1.9c0.3-0.2,4.6-1.9,4.6-1.9l5.5-1.1l-5.3-0.2
		l-4.6,1.3c0,0-1.8,0.2-1.4-1.3s6.1-3.3,6.1-3.3l7.2-0.5c0,0-5.6-0.8-6.1-2.5C596.4,248.1,596.6,247,597.2,246.3z"/>
	<polygon class="st13" points="615,252.7 615.3,252.7 629.4,252.1 633.6,264.3 618,263.3 	"/>
	<path class="st16" d="M602.7,259.6c-0.6,0.1-1.1,0.1-1.7,0.1c-1.1,0.1-2.5,0.2-4.1,0.4s-3,0.5-4.1,0.8c-0.6,0.2-1.1,0.3-1.7,0.4
		c0.5-0.3,1.1-0.5,1.6-0.6c2.7-0.8,5.4-1.2,8.2-1.2C601.6,259.5,602.2,259.6,602.7,259.6z"/>
	<path class="st6" d="M592.2,227.2c-0.2-0.2-0.3-0.4-0.5-0.7c-0.3-0.4-0.7-1.1-1.2-1.9c-1.3-2-2.8-4-4.3-5.9
		c-1.5-1.9-3.3-3.6-5.2-5.1c-0.8-0.6-1.7-1.1-2.5-1.6c0.3,0.1,0.5,0.2,0.8,0.3c0.3,0.1,0.6,0.3,0.8,0.5c0.4,0.2,0.7,0.4,1.1,0.7
		c2,1.5,3.7,3.2,5.3,5.1c1.6,1.9,3,3.9,4.3,6c0.5,0.8,0.9,1.5,1.1,1.9C592,226.7,592.1,227,592.2,227.2z"/>
	<path class="st6" d="M601.3,247.4c-0.1-0.2-0.2-0.4-0.3-0.7c-0.2-0.5-0.5-1.1-0.8-1.9c-0.6-1.6-1.5-3.8-2.6-6.2s-2-4.6-2.8-6.1
		l-0.9-1.9c-0.1-0.2-0.2-0.5-0.3-0.7c0.1,0.2,0.3,0.4,0.4,0.6c0.2,0.4,0.6,1,1,1.8c0.8,1.5,1.8,3.7,2.9,6.1s1.9,4.6,2.5,6.3
		c0.3,0.8,0.5,1.5,0.7,1.9C601.2,246.9,601.3,247.2,601.3,247.4z"/>
	<path class="st6" d="M634.5,211.7l-0.5-0.2l0.1-0.1c0.4,1.3,1.4,5.7,2.6,10.8c0.7,3.1,1.4,6,1.8,8c0.2,1,0.4,1.8,0.5,2.4
		c0.1,0.3,0.1,0.6,0.2,0.9c-0.1-0.3-0.2-0.6-0.3-0.9c-0.2-0.6-0.4-1.4-0.6-2.4c-0.5-2-1.2-4.9-1.9-8c-1.2-5.1-2.2-9.5-2.4-10.9v-0.1
		l0.1,0.1C634.4,211.6,634.6,211.7,634.5,211.7z"/>
	<path class="st6" d="M616,270.2c-0.1,0.1-0.2,0.1-0.4,0.1l-1.1,0.3c-0.9,0.2-2.3,0.5-4,0.9c-2,0.4-4,0.6-6,0.7
		c-2.5,0.2-4.9,0-7.3-0.5c-1.3-0.3-2.5-0.7-3.6-1.3c-0.5-0.3-1.1-0.6-1.6-0.9c-0.5-0.4-0.9-0.8-1.3-1.2c-1.3-1.5-2.6-3.1-3.7-4.7
		c-1-1.4-1.7-2.5-2.3-3.4c-0.2-0.4-0.4-0.7-0.6-0.9c-0.1-0.1-0.1-0.2-0.2-0.3c0.1,0.1,0.2,0.2,0.2,0.3l0.6,0.9
		c0.5,0.8,1.3,1.9,2.3,3.3c1.2,1.6,2.4,3.2,3.7,4.6c0.4,0.4,0.8,0.8,1.2,1.1c0.5,0.3,1,0.6,1.5,0.9c1.1,0.6,2.3,1,3.5,1.2
		c2.4,0.5,4.8,0.7,7.2,0.5c2-0.1,4-0.3,5.9-0.6c1.7-0.3,3-0.6,4-0.8l1.1-0.2C615.7,270.2,615.9,270.2,616,270.2z"/>
	<g class="st15">
		<polygon points="588.6,207.3 590.2,214.7 591.5,213.9 590.7,215.7 606.8,244.8 604.7,238.2 592.2,214.5 594.2,212.9 590.8,212.9 
					"/>
	</g>
	<circle class="st11" cx="592.9" cy="185.8" r="2.9"/>
</g>
<g id="freepik--character-2--inject-6">
	<path class="st6" d="M395.9,158.9c3.7,3.1,5.6,7.8,5.1,12.6c-0.2,2.3-0.9,4.9,0.5,6.6s4.3,1.8,5.6,3.6c1.6,2.1,0.1,5.2,0.6,7.8
		c0.6,2.5,2.9,4.2,5.5,4.1c-3,2.3-6.6,3.7-10.3,4.1c-0.9-1.2-1.8-2.5-2.8-3.7c0.9,1.5,0.8,3.4-0.4,4.6c-1.2,1.2-2.7,2-4.3,2.4
		c-7.8,2.2-16.3,0.6-22.8-4.4"/>
	<path class="st6" d="M352.5,177.8c0.8-1.7,1.5-3.4,2-5.1c0.9-3.8-0.8-8.2,1.1-11.7c1.4-2.4,4.3-3.6,7-4.3s5.6-1.4,7.7-3.3
		c1.5-1.4,2.4-3.4,3.9-4.8c2.1-2,5.2-2.6,8.2-2.7c3-0.2,6.1,0.4,8.8,1.7c2.8,1.4,4.7,3.9,5.2,6.9c0.2,1.5,0,3,0.4,4.4
		s1.6,2.8,2.3,4.2c1.4,3.2,0.5,7-2.2,9.2l-21.4,26.1c-4.4,1.5-14.9-0.8-18.1-4.1S350.9,182.2,352.5,177.8z"/>
	<path class="st17" d="M396.5,169c-0.7-6.1-5.1-13.4-11.1-12.4l-18.8,5.7c-1.8,0.3-3.1,1.9-3,3.8l4.2,44c0,0-1.4,1.1-2.3,0.7
		c-0.1-0.1-0.3,0-0.3,0.1c0,0.1,0,0.2,0,0.2c2.1,3.3,12.3,17.8,23.2,13.8c2.5-0.9,0-8.6,0.4-11.4l-0.1-7.2c-0.1-3.7-0.2-5.2-0.2-5.2
		s7.7-1.7,8.9-11.9C398,184,397.3,175.8,396.5,169z"/>
	<path class="st6" d="M394,178.3c0,0.7-0.5,1.3-1.2,1.4c-0.7,0.1-1.3-0.4-1.4-1.1c0,0,0,0,0,0c0-0.7,0.5-1.3,1.2-1.4
		C393.3,177.1,393.9,177.5,394,178.3C394,178.2,394,178.3,394,178.3z"/>
	<path class="st6" d="M381,178.7c0,0.7-0.5,1.3-1.2,1.4c-0.7,0.1-1.3-0.4-1.4-1.1c0,0,0,0,0,0c0-0.7,0.5-1.3,1.2-1.4
		C380.3,177.5,380.9,178,381,178.7C381,178.6,381,178.7,381,178.7z"/>
	<path class="st6" d="M395.6,174c-0.1,0.2-1.3-0.6-2.9-0.4s-2.5,1.2-2.7,1s0-0.5,0.5-1c0.6-0.6,1.3-1,2.1-1.1
		c0.8-0.1,1.6,0.1,2.3,0.6C395.5,173.5,395.7,173.9,395.6,174z"/>
	<path class="st6" d="M381.9,174.8c-0.2,0.2-1.4-0.7-3-0.7s-2.8,0.9-3,0.7s0.1-0.5,0.6-0.9c0.7-0.5,1.5-0.8,2.4-0.8
		c0.9,0,1.7,0.3,2.4,0.8C381.9,174.3,382,174.6,381.9,174.8z"/>
	<path class="st6" d="M386.8,184.5c0.7-0.3,1.5-0.4,2.2-0.5c0.4-0.1,0.7-0.1,0.7-0.4c0-0.4-0.1-0.7-0.3-1.1l-1.2-2.7
		c-1.7-3.8-2.9-7-2.7-7s1.6,3,3.3,6.8c0.4,0.9,0.8,1.8,1.1,2.7c0.3,0.4,0.3,0.9,0.2,1.4c-0.1,0.3-0.3,0.5-0.6,0.6
		c-0.2,0.1-0.4,0.1-0.6,0.1C388.3,184.5,387.5,184.6,386.8,184.5z"/>
	<path class="st16" d="M388.5,201.1c-4.8,0.3-9.6-0.7-13.8-3c0,0,3.8,7,13.9,5.5L388.5,201.1z"/>
	<path class="st16" d="M382.4,188.4c0.2-0.3,0.4-0.6,0.7-0.8c0.4-0.2,0.8-0.2,1.2-0.1c0.6,0.1,1.1,0.4,1.6,0.9
		c0.4,0.5,0.6,1.1,0.4,1.7l0,0c-0.2,0.6-1,0.9-1.6,1c-0.6,0.1-1.2-0.1-1.7-0.4c-0.5-0.2-0.8-0.7-0.9-1.2
		C382,189.1,382.2,188.7,382.4,188.4z"/>
	<path class="st6" d="M382.7,186.5c0.2,0,0.3,1.5,1.7,2.5s3,0.8,3,1s-0.3,0.3-1,0.4c-0.9,0-1.8-0.2-2.5-0.7
		c-0.7-0.5-1.2-1.3-1.3-2.1C382.5,186.9,382.6,186.5,382.7,186.5z"/>
	<path class="st6" d="M382,169.3c-0.1,0.4-1.5,0.3-3.2,0.6s-2.9,0.8-3.2,0.5c-0.1-0.1,0.1-0.5,0.6-0.9c1.4-1,3.2-1.3,4.8-0.8
		C381.7,168.8,382,169.1,382,169.3z"/>
	<path class="st6" d="M394.9,168.9c-0.3,0.3-1.4,0-2.7,0.1s-2.5,0.3-2.7,0c-0.1-0.1,0-0.5,0.5-0.8c0.7-0.4,1.4-0.6,2.2-0.6
		c0.8,0,1.5,0.2,2.2,0.5C394.8,168.4,395,168.7,394.9,168.9z"/>
	<path class="st6" d="M362.5,163.6c1.1-1.3,2.6-2.3,4.3-2.7c7-2.5,14.3-4.1,21.7-4.9c0.9,1.5,0,3.6-1.4,4.6c-1.5,0.9-3.2,1.6-4.9,2
		c-1.7,0.6-3.4,1.5-4.1,3.1s-0.2,3.8-0.9,5.5c-1.2,3-5.5,3.9-6.6,6.9c-0.9,2.3,0.4,4.8,0.6,7.2c0.5,4.8-2.9,9.1-7.7,9.6
		c-0.4,0-0.8,0.1-1.1,0.1c-0.3-8.7-0.5-17.5-0.8-26.2C361.5,167.1,361.5,165.1,362.5,163.6z"/>
	<path class="st6" d="M344.3,185.2c1.4-1.2,3.2-2.2,3.8-4c0.9-2.6-1.1-5.6,0.3-7.9c1.3-2.1,4.9-1.9,6-4c0.9-1.7,0-3.2,0.3-4.7
		c0.7-1.6,2.3-2.6,4.1-2.5l11.4,17.6c0.9,5.8,2,8.9,0.6,12.3c-0.9,1.8-1.5,3.7-2,5.6c-0.3,1.9,0.1,4.2,1.7,5.4
		c-7.1,0.4-13.7-3.6-19.8-7.3l-6.4-4c-0.7-0.4-1.3-0.9-1.8-1.6C341.7,188.4,342.9,186.4,344.3,185.2z"/>
	<path class="st12" d="M350.7,193.8c0.2,0.1,0.5,0.1,0.8,0.2c0.7,0.1,1.5,0.1,2.2-0.1c1.2-0.2,2.3-0.8,3.1-1.6
		c1.2-1.1,1.9-2.5,2.1-4.1c0.1-0.9,0.1-1.8-0.1-2.7c-0.3-0.9-0.7-1.9-1.2-2.7c-0.6-0.9-1-1.8-1.3-2.8c-0.3-1-0.1-2.1,0.5-3
		c0.7-0.9,1.9-1,3-1.4c0.6-0.2,1.2-0.6,1.5-1.1c0.4-0.5,0.6-1.2,0.5-1.9c-0.1-1.3-0.4-2.5-0.7-3.7c-0.1-0.6-0.1-1.2,0-1.8
		c0.2-0.6,0.6-1.1,1.1-1.4c1.1-0.6,2.4-0.9,3.6-0.9c1.3,0,2.6-0.4,3.7-1c1.1-0.6,2-1.5,2.6-2.6c0.5-1.1,0.8-2.2,1-3.4
		c0.2-1.1,0.4-2.2,0.8-3.2c0.4-0.9,1-1.8,1.8-2.5c2.6-2.3,6.4-2.7,9.4-1c1,0.6,1.9,1.3,2.7,2.2c0.6,0.8,1.2,1.6,1.6,2.5
		c0,0,0-0.1-0.1-0.2s-0.1-0.3-0.2-0.5c-0.9-1.7-2.2-3.2-3.9-4.1c-1.4-0.8-2.9-1.2-4.5-1.1c-1.9,0.1-3.8,0.8-5.2,2.1
		c-0.8,0.7-1.4,1.6-1.9,2.6c-0.4,1.1-0.7,2.1-0.8,3.2c-0.2,1.1-0.5,2.2-1,3.3c-0.6,1-1.4,1.9-2.5,2.5c-1.1,0.6-2.3,0.9-3.5,0.9
		c-1.3,0-2.7,0.3-3.8,0.9c-0.6,0.4-1,1-1.2,1.6c-0.2,0.7-0.2,1.3,0,2c0.3,1.2,0.6,2.4,0.7,3.7c0,0.6-0.2,1.1-0.5,1.6
		c-0.3,0.5-0.8,0.8-1.4,1c-0.5,0.2-1.1,0.4-1.7,0.6c-0.6,0.2-1.1,0.5-1.5,1c-0.7,1-0.9,2.2-0.5,3.3c0.3,1,0.8,2,1.3,2.9
		c0.5,0.8,0.9,1.7,1.2,2.6c0.2,0.9,0.3,1.7,0.2,2.6c-0.2,1.5-0.9,2.9-2,4c-0.8,0.8-1.9,1.3-3,1.6C352.6,194,351.6,194,350.7,193.8z"
		/>
	<path class="st6" d="M416.4,187.6c0.2,0.6,0.2,1.3-0.1,1.9c-0.3,0.7-0.8,1.2-1.5,1.5c-0.9,0.3-1.9-0.1-2.6-0.8
		c-0.4-0.4-0.6-0.9-0.6-1.5c0-0.6,0.1-1.2,0.3-1.8c0.4-1.2,1.2-2.5,1.1-4.1c0-1.6-0.8-3.1-2-4.2c-0.6-0.5-1.4-1-2.2-1.2
		c-0.8-0.3-1.7-0.4-2.5-0.4c-0.8,0-1.7-0.1-2.5-0.3c-0.8-0.2-1.4-0.6-1.9-1.2c-0.4-0.6-0.6-1.4-0.6-2.1c0-0.7,0.1-1.5,0.2-2.2
		c0.4-1.3,0.7-2.7,0.8-4.1c0-1.3-0.4-2.5-1.2-3.5c-0.6-0.8-1.4-1.5-2.3-2c-0.6-0.4-1.2-0.8-1.8-1.3c-0.5-0.4-0.9-1-1.1-1.5
		c0,0,0,0,0,0.1c0,0.1,0.1,0.2,0.1,0.4c0.2,0.4,0.5,0.8,0.9,1.2c0.6,0.5,1.2,1,1.8,1.4c0.8,0.5,1.6,1.2,2.1,2c0.7,1,1.1,2.1,1.1,3.3
		c-0.1,1.4-0.4,2.7-0.8,4.1c-0.2,0.7-0.3,1.5-0.3,2.3c0,0.8,0.2,1.6,0.7,2.3c0.5,0.7,1.3,1.2,2.1,1.4c0.8,0.2,1.7,0.3,2.5,0.4
		c0.8,0,1.6,0.2,2.4,0.4c0.8,0.3,1.4,0.6,2.1,1.1c1.2,1,1.9,2.4,1.9,3.9c0.1,1.4-0.7,2.7-1.1,3.9c-0.2,0.6-0.3,1.3-0.3,1.9
		c0,0.6,0.3,1.2,0.7,1.7c0.7,0.8,1.8,1.1,2.9,0.8c0.8-0.3,1.4-0.9,1.6-1.6c0.2-0.5,0.2-1,0.1-1.4
		C416.6,187.9,416.5,187.7,416.4,187.6z"/>
	<path class="st18" d="M372,151.4c0,0-0.4,0.5-1.3,1.7s-3.3,2.3-4.2,2.6s-4.5,1.2-6,1.7c-1.4,0.6-2.7,1.4-3.8,2.6
		c-1.5,1.2-1.6,2.7-2,3.9s0.1,2.5,0.1,3.6c-0.1,1-0.4,1.9-1,2.7c-0.6,1.1-3.5,1.6-4.8,2.4s-1.1,2.4-1.1,3.1c0.1,1,0.2,1.9,0.4,2.9
		c0.1,0.6,0.1,1.3,0,1.9c-0.1,0.7-0.4,1.3-0.8,1.9c-0.6,0.7-1.3,1.3-2,1.9l-1.3,1.1c-1.4,1.2-2.5,3.1-1.6,4.7c0.4,0.7,1,1.2,1.8,1.6
		l0,0c0,0,2.9-1.2,5-5.4c1.1-2.4,1.6-4.9,1.7-8.9c0-3.6,3.9-3.4,5.3-6c2.5-4.7,0.2-6.9,3.3-9.2c3.6-2.6,5.1,0.4,11.2-5.6
		c4.6-4.5,5.1-6.8,10.8-8.7c5.9-2,12.3,2,12.3,2c-0.8-0.8-1.7-1.5-2.7-2c-2.7-1.3-5.8-1.9-8.8-1.7c-2.9,0.1-6,0.7-8.2,2.7
		c-0.5,0.4-0.9,0.9-1.3,1.4l-0.2,0.3"/>
	<path class="st18" d="M399.9,180.1c1.9,2.5,4.8,2.7,4.8,6.4s3.4,8.6,3.4,8.6v1.3c1.9-0.7,3.6-1.7,5.2-2.9c-2.6,0.2-4.9-1.6-5.5-4.1
		c-0.5-2.6,1-5.7-0.6-7.8c-1.4-1.8-4.2-1.8-5.6-3.6s-0.7-4.4-0.5-6.6c0.4-3.9-0.8-7.7-3.2-10.7c0,0,0,0,0-0.1
		c0.3,0.3,0.7,0.6,1.2,0.9c0.8,0.5,1.6,1.2,2.1,2c0.7,1,1.1,2.1,1.1,3.3c-0.1,1.4-0.4,2.7-0.8,4.1c-0.2,0.7-0.3,1.5-0.3,2.3
		c0,0.8,0.2,1.6,0.7,2.3c0.5,0.7,1.3,1.2,2.1,1.4c0.8,0.2,1.7,0.3,2.5,0.3c0.8,0,1.6,0.2,2.4,0.4c0.8,0.3,1.4,0.6,2.1,1.1
		c1.2,1,1.9,2.4,1.9,3.9c0.1,1.4-0.7,2.7-1.1,3.9c-0.2,0.6-0.3,1.3-0.3,1.9c0,0.6,0.3,1.2,0.7,1.7c0.7,0.8,1.8,1.1,2.9,0.8
		c1.2-0.5,2-1.8,1.7-3.1c0-0.2-0.1-0.3-0.2-0.5c0.2,0.6,0.2,1.3-0.1,1.9c-0.3,0.7-0.8,1.2-1.5,1.5c-0.9,0.3-1.9,0-2.6-0.8
		c-0.4-0.4-0.6-1-0.6-1.5c0-0.6,0.1-1.2,0.3-1.8c0.4-1.2,1.2-2.5,1.1-4.1c0-1.6-0.8-3.1-2-4.2c-0.6-0.5-1.4-1-2.2-1.2
		c-0.8-0.3-1.7-0.4-2.5-0.4c-0.8,0-1.7-0.1-2.5-0.3c-0.8-0.2-1.4-0.6-1.9-1.2c-0.4-0.6-0.6-1.4-0.6-2.1c0-0.7,0.1-1.5,0.2-2.2
		c0.4-1.3,0.7-2.7,0.8-4.1c0-1.3-0.4-2.5-1.2-3.5c-0.6-0.8-1.4-1.5-2.3-2c-0.5-0.3-1.1-0.7-1.5-1.1c-0.2-0.4-0.4-0.8-0.6-1.3
		c-0.4-1.4-0.2-2.9-0.4-4.4c-0.3-1.9-1.2-3.6-2.5-4.9c1.6,3.5,2.7,7.5,2.1,10.5c-0.3,1.6,2.7,3.1,3,7.4S398.9,178.8,399.9,180.1z"/>
	<path class="st4" d="M396.5,154.9c0,0-0.1-0.6-0.4-1.5c-0.4-1.3-1.2-2.6-2.3-3.5c-1.6-1.4-3.5-2.4-5.5-3c-2.4-0.8-5.1-1-7.6-0.6
		c-2.5,0.4-4.9,1.5-6.9,3.2c-0.8,0.7-1.6,1.6-2.2,2.6c-0.5,0.9-1.2,1.6-2,2.3c-1.2,0.9-2.5,1.5-3.9,1.8c-0.4,0.1-0.8,0.2-1.2,0.2
		c-0.3,0-0.4,0-0.4,0s0.5-0.1,1.5-0.4c1.4-0.4,2.6-1.1,3.8-1.9c0.7-0.6,1.4-1.4,1.9-2.2c0.6-1,1.4-1.9,2.2-2.7c2-1.8,4.5-3,7.1-3.4
		c2.6-0.4,5.3-0.2,7.9,0.7c2.1,0.7,4,1.7,5.6,3.2c1.1,1,1.8,2.3,2.2,3.7c0.1,0.4,0.2,0.8,0.2,1.2
		C396.5,154.7,396.5,154.9,396.5,154.9z"/>
	<path class="st4" d="M408,190.4c0,0-0.1-0.1-0.2-0.3c-0.1-0.3-0.2-0.7-0.3-1c-0.1-1.2-0.1-2.4,0-3.6c0.1-0.8,0-1.6-0.2-2.4
		c-0.2-0.9-0.8-1.6-1.6-2.1c-0.9-0.5-1.8-1-2.8-1.5c-1.1-0.5-2-1.3-2.6-2.3c-0.4-1.1-0.5-2.3-0.2-3.5c0.2-1,0.4-2.1,0.4-3.1
		c0.1-1.8-0.2-3.5-0.8-5.2c-0.6-1.5-1.4-3-2.3-4.3c0,0,0.1,0.1,0.3,0.2c0.2,0.2,0.4,0.5,0.6,0.8c0.7,1,1.3,2,1.8,3.2
		c0.7,1.7,1,3.5,0.9,5.3c0,1.1-0.2,2.1-0.4,3.2c-0.3,1.1-0.2,2.2,0.1,3.2c0.6,0.9,1.4,1.7,2.4,2.1c1,0.4,1.9,1,2.8,1.5
		c0.9,0.6,1.5,1.4,1.7,2.4c0.2,0.8,0.2,1.7,0.1,2.6c-0.2,1.2-0.2,2.4-0.1,3.6C407.9,189.9,408.1,190.4,408,190.4z"/>
	<path class="st4" d="M364.2,156.3c-1.5,0.3-3,0.8-4.5,1.4c-1.5,0.7-2.8,1.9-3.7,3.2c-0.5,0.8-0.9,1.7-1.1,2.7
		c-0.1,1.1-0.2,2.1-0.1,3.2c0.1,1.1-0.2,2.3-0.8,3.3c-0.7,0.8-1.7,1.3-2.7,1.6c-0.9,0.2-1.7,0.6-2.4,1.1c-0.5,0.5-0.9,1.2-1,2
		c-0.2,1.1-0.1,2.3,0.2,3.4c0.1,0.4,0.2,0.8,0.3,1.2c-0.2-0.4-0.4-0.8-0.5-1.2c-0.4-1.1-0.5-2.3-0.4-3.5c0.1-0.8,0.5-1.6,1.1-2.2
		c0.7-0.6,1.6-1.1,2.5-1.3c0.9-0.2,1.8-0.7,2.5-1.4c0.6-0.9,0.8-1.9,0.7-3c-0.1-1.1,0-2.2,0.1-3.3c0.2-1,0.6-2,1.2-2.9
		c1-1.5,2.4-2.6,4-3.4c1.1-0.5,2.2-0.8,3.4-1C363.4,156.3,363.8,156.3,364.2,156.3z"/>
	<path class="st4" d="M397.5,185.3c-0.1-0.4-0.1-0.8-0.1-1.2c0-0.9-0.1-1.9-0.1-3.2c-0.1-2.7-0.4-6.3-0.8-10.4
		c-0.3-3.4-1.4-6.8-3.3-9.6c-0.9-1.1-1.9-2.1-3-3c0.4,0.1,0.7,0.3,1,0.6c0.9,0.6,1.7,1.4,2.3,2.2c2,2.9,3.3,6.3,3.5,9.8
		c0.4,4.1,0.6,7.8,0.6,10.4c0,1.3,0,2.4,0,3.2C397.6,184.6,397.6,184.9,397.5,185.3z"/>
	<polygon class="st6" points="361.9,432.3 364.4,459.9 376.5,458.4 378,431.3 	"/>
	<path class="st6" d="M376.7,452.9c0,0-8.3,6.6-12.7,1.5l-1,2.7l-4,18.8c-0.3,1.2,0.3,2.4,1.5,2.9c0.9,0.3,1.8,0.1,2.5-0.6
		c3.4-3.6,15.7-16.9,15.5-18.6l-0.2-4.5C378.2,454.1,377.6,453.3,376.7,452.9L376.7,452.9z"/>
	<path class="st12" d="M360.9,478.9l17.5-20.9v1c0.1,0.8-0.2,1.6-0.8,2.2c-1.4,2.1-5.3,6.9-14.6,17
		C362.4,478.8,361.6,479.1,360.9,478.9L360.9,478.9z"/>
	<path class="st2" d="M365.7,468.4c-0.1,0.1-0.7-1.1-2.1-1.7c-0.9-0.3-1.8-0.4-2.7-0.4c0-0.1,0.3-0.3,0.8-0.4
		c1.4-0.2,2.9,0.4,3.7,1.6C365.7,468,365.8,468.4,365.7,468.4z"/>
	<path class="st2" d="M364.2,471.6c-0.1,0.1-0.9-0.6-2.1-0.9c-0.7-0.1-1.5-0.2-2.3-0.2c0.7-0.5,1.6-0.6,2.4-0.3
		C363.6,470.5,364.3,471.5,364.2,471.6z"/>
	<path class="st2" d="M368.6,464.2c-1-0.6-2-1.2-3.1-1.6c-1.1-0.3-2.3-0.5-3.4-0.7c1.2-0.4,2.5-0.3,3.6,0.2
		C366.9,462.4,367.9,463.2,368.6,464.2z"/>
	<path class="st6" d="M368.8,458.5c0,0.1-1.3-0.3-3-0.3s-3,0.5-3,0.3c0.9-0.6,1.9-0.9,3-0.9C366.8,457.6,367.9,457.9,368.8,458.5z"
		/>
	<path class="st2" d="M364.8,458.2c0-0.3,0-0.6,0.1-0.9c0.2-0.8,0.5-1.5,1-2.2c0.3-0.5,0.8-0.9,1.3-1.1c0.4-0.1,0.8,0,1,0.4
		c0.2,0.3,0.3,0.7,0.2,1.1c-0.3,1.6-1.7,2.7-3.3,2.7c-1.6-0.1-2.9-1.1-3.5-2.6c-0.1-0.4-0.1-0.8,0.1-1.1c0.2-0.3,0.6-0.5,1-0.4
		c0.5,0.2,1,0.5,1.4,1c0.5,0.6,1,1.3,1.3,2c0.1,0.3,0.2,0.6,0.2,0.9c-0.5-1-1.1-1.8-1.8-2.6c-0.3-0.4-0.8-0.7-1.2-0.9
		c-0.2-0.1-0.4,0-0.6,0.2c-0.1,0.2-0.1,0.5,0,0.8c0.5,1.3,1.7,2.1,3,2.2c1.4,0,2.6-0.9,2.9-2.3c0.1-0.3,0-0.5-0.1-0.8
		c-0.1-0.2-0.3-0.3-0.6-0.2c-0.5,0.2-0.9,0.5-1.1,0.9C365.6,456.2,365.1,457.2,364.8,458.2z"/>
	<path class="st6" d="M409.1,455.3c-0.3-0.4-2.5-9.7-2.5-9.7l15.7-3.8l1.8,13.3L409.1,455.3z"/>
	<path class="st6" d="M424.1,452.5v1.1c0,0,17,7.5,17.1,10.9l-34-0.7l0.7-11.9C412.9,454.6,418.9,454.8,424.1,452.5z"/>
	<path class="st12" d="M407.2,463.8l0.2-2.9l32.5,1.7c0,0,1.5,0.7,1.3,1.8L407.2,463.8z"/>
	<path class="st2" d="M424.2,453.7c0,0.2-0.8,0.2-1.7,0.8s-1.3,1.3-1.4,1.2s0.1-1.1,1.1-1.7S424.2,453.5,424.2,453.7z"/>
	<path class="st2" d="M427.7,455.3c0,0.2-0.7,0.5-1.3,1.2s-0.8,1.5-0.9,1.5s-0.2-1,0.5-1.9S427.7,455.1,427.7,455.3z"/>
	<path class="st2" d="M429.6,459.8c-0.1,0-0.4-0.8,0.1-1.8s1.2-1.3,1.3-1.2s-0.4,0.6-0.8,1.4S429.8,459.8,429.6,459.8z"/>
	<path class="st6" d="M400.7,282.3c0,0,10,45.2,16.1,89.9c5,36.8,6.5,76.5,6.5,76.5l-17.7,0.5c0,0-9.5-45.7-16.9-78.6
		c-6.9-30.3-12.7-46.3-12.7-46.3l-4.7-44.4L400.7,282.3z"/>
	<path class="st6" d="M354.8,279.5c0,0-16.1,20.5-15.4,42.4c0.4,13.1,22.7,130,22.7,130h17.8l-2.8-123.6l6.5-40.2L354.8,279.5z"/>
	<path class="st4" d="M426.1,200.4c-0.2,1.6-0.5,3.2-1.1,4.7c-0.4,1.6-0.9,3.1-1.6,4.6c0.2-1.6,0.5-3.2,1.1-4.7
		C424.9,203.4,425.4,201.9,426.1,200.4z"/>
	<path class="st17" d="M425.9,200.2l-3.1,10.2l-1.1,1.7c0,0-0.9,5.6-0.9,6.9s1.8,7.4,1.8,7.4l-3.3,5.7l9.8,3.4c0,0,2.4-5.2,3.1-5.8
		c0.8-1,1.2-2.2,1.3-3.4c0.1-1.1,1.4-7.8,1.4-7.8s4-7.4,2.2-7.8c-0.4,0-0.9,0-1.3,0.1c0,0-2.4,4.9-3.1,5l-1-0.5c0,0,1.8-7.4,1.8-8.8
		s-0.3-2.3-1.3-2.5c0,0-0.8,0.4-0.8,0.7s-1.8,8.6-2.2,8.5s-0.3-0.9-0.3-0.9s2.3-10,2.2-10.6c-0.1-0.8-0.8-1.4-1.6-1.3l-1.9,5.5
		c0,0,0.8-4.6,0-5.4C427.1,200,426.5,199.9,425.9,200.2z"/>
	<path class="st16" d="M428.8,222.4c-0.1,0,0-0.9-0.4-2.2c-0.5-1.8-1.6-3.4-3.2-4.5l-0.1-0.1v-0.2c0.1-0.7,0.3-1.5,0.5-2.3v-0.1l0,0
		c0.2-0.2,0.3-0.5,0.5-0.8c0.5-0.9,0.8-1.9,1-2.9c0.1-0.5,0.1-0.9-0.1-1.4c-0.1-0.4-0.4-0.6-0.8-0.7l0.2-0.1c-1.1,1.1-2,2.1-2.7,2.7
		c-0.3,0.4-0.7,0.7-1.1,1c0.3-0.4,0.6-0.8,0.9-1.1c0.6-0.7,1.5-1.7,2.6-2.9l0.1-0.1h0.1c0.6,0.1,1,0.5,1.2,1
		c0.1,0.5,0.2,1.1,0.1,1.6c-0.1,1.1-0.5,2.1-1,3.1c-0.2,0.3-0.3,0.6-0.5,0.9v-0.1c-0.2,0.8-0.3,1.6-0.5,2.3l-0.1-0.2
		c1.6,1.2,2.7,2.9,3.2,4.9c0.1,0.6,0.2,1.1,0.2,1.7C428.8,222.2,428.8,222.4,428.8,222.4z"/>
	<path class="st16" d="M428.5,214.3c1.1,0.1,2.2,0.6,3.1,1.2c1,0.5,1.9,1.3,2.5,2.2c-1-0.5-1.9-1.1-2.8-1.8
		C430.3,215.4,429.4,214.9,428.5,214.3z"/>
	<path class="st6" d="M403.9,224.6c0,0.2,0.1,0.4,0.1,0.6c0,0.5,0,1.1,0.1,1.9c0.1,1.6,0.1,4,0.1,6.9c0,5.8-0.5,13.8-1.4,22.6
		c-0.8,8.8-1.6,16.8-1.8,22.6c-0.1,2.9-0.2,5.2-0.3,6.9c0,0.8,0,1.4-0.1,1.9c0,0.2,0,0.4,0,0.6c0-0.2-0.1-0.4,0-0.6
		c0-0.5,0-1.1,0-1.9c0-1.6,0-4,0.1-6.9c0.2-5.8,0.9-13.8,1.7-22.6s1.4-16.8,1.5-22.6c0.1-2.9,0.1-5.2,0.1-6.9c0-0.8,0-1.4,0-1.9
		C403.8,225,403.8,224.8,403.9,224.6z"/>
	<path class="st7" d="M418.2,229l-4.1,13.6l-6.5-24.8c-0.7-2.8-2.8-5-5.5-5.9l-5.7-1.5l5,49.4l1.3,3.7c0.9,2.3,2.7,4.1,4.9,5.2
		c5.9,2.9,13.6,0.1,15.3-6.2l9.1-29.3L418.2,229z"/>
	<path class="st4" d="M357.5,225l2.9,56.2l36.7,1.3l3.4,3.6l0.3-45.1l-11.8-32.4l0,0c-1.6,2.8-4.5,3.7-8,3.4
		c-2.4-0.2-6.7-0.8-8.6-2.3l-4.9-4.8L357.5,225z"/>
	<path class="st7" d="M367.3,202.2l-4,4.5l-19.5,7.1l10.2,57.7l-9.7,22c-1,2.3-1.9,4.7-2.6,7.1l-6.2,21.6c0,0,22.2,9.6,27.2,6.9
		s11.2-32.8,13.2-39.3s2.8-27.3,1.8-37.8s-2.7-25.9-3.7-31.2S367.3,202.2,367.3,202.2z"/>
	<path class="st7" d="M389,204.4l2.7,4.4l11.5,3.3c0,0,2.6,15.4,2.5,19.6s-3.2,50.7-3.2,52.9s10.8,35.7,10,37.5
		c-0.5,1.1-5.4,1.1-8.5,1.9c-1.9,0.5-3.8-0.6-4.3-2.5c0-0.2-0.1-0.4-0.1-0.5c-0.8-8.3-3.1-27.7-2.9-34.5c0.2-8.8,1-30-0.5-40.7
		s-7.3-37.1-7.3-37.1V204.4z"/>
	<path class="st6" d="M397.4,291.8c0-0.1,0-0.1,0-0.2c0-0.2,0-0.4,0-0.6c0-0.6,0.1-1.4,0.1-2.5c0.1-2.2,0.3-5.2,0.5-9
		c0.4-7.6,1-18.2,1.5-29.8c0.1-1.5,0.1-2.9,0.1-4.3s-0.1-2.8-0.1-4.2c-0.1-2.8-0.3-5.4-0.5-7.9s-0.4-4.9-0.7-7.1
		c-0.3-2-0.8-4.1-1.5-6c-1-2.8-2.2-5.6-3.6-8.3l-1.1-2.2c-0.1-0.2-0.2-0.4-0.3-0.6s-0.1-0.2-0.1-0.2c0,0.1,0.1,0.1,0.1,0.2l0.3,0.6
		c0.3,0.5,0.7,1.2,1.2,2.1c1.4,2.7,2.7,5.4,3.8,8.2c0.7,2,1.3,4,1.6,6.1c0.3,2.2,0.6,4.6,0.8,7.1s0.4,5.2,0.5,7.9
		c0.1,1.4,0.2,2.8,0.1,4.2s-0.1,2.9-0.1,4.3c-0.5,11.7-1.2,22.2-1.7,29.8c-0.3,3.8-0.5,6.9-0.6,9c-0.1,1-0.1,1.9-0.2,2.5
		c0,0.3,0,0.5-0.1,0.6C397.4,291.6,397.4,291.7,397.4,291.8z"/>
	<path class="st6" d="M376.3,273.6c-0.1-0.2-0.1-0.5-0.1-0.7c0-0.5-0.1-1.1-0.1-2c-0.1-1.7-0.1-4.2,0-7.3c0.1-1.5,0.2-3.2,0.4-5
		c0.1-1.9-0.1-3.8-0.5-5.7c-1-4.3-2.3-8.5-3.9-12.6c-1.6-4.4-3.3-8.5-4.9-12.3c-0.8-1.8-1.5-3.6-2.1-5.4c-0.4-1.6-0.8-3.3-1-4.9
		c-0.5-3-0.8-5.5-0.9-7.2c-0.1-0.9-0.1-1.5-0.1-2c0-0.2,0-0.5,0-0.7c0.1,0.2,0.1,0.5,0.1,0.7l0.2,2c0.2,1.7,0.5,4.2,1,7.2
		c0.3,1.6,0.7,3.3,1.1,4.9c0.6,1.8,1.3,3.6,2.1,5.3c1.6,3.7,3.3,7.9,5,12.3c1.6,4.1,2.9,8.4,3.8,12.7c0.4,1.9,0.6,3.8,0.5,5.8
		c-0.2,1.8-0.3,3.5-0.4,5c-0.2,3.1-0.2,5.5-0.2,7.3c0,0.8,0,1.5,0,2S376.3,273.6,376.3,273.6z"/>
	<path class="st6" d="M405.6,225.3c0,0.2,0.1,0.4,0.1,0.6c0,0.4,0,1,0.1,1.7c0.1,1.5,0.1,3.7,0.1,6.4c0,5.4-0.5,12.8-1.3,20.9
		s-1.4,15.5-1.7,20.9c-0.1,2.7-0.2,4.9-0.2,6.4l0,1.7c0,0.2,0,0.4,0,0.6c0-0.2-0.1-0.4,0-0.6c0-0.4,0-1,0-1.7c0-1.5,0-3.7,0.1-6.4
		c0.2-5.4,0.8-12.8,1.6-20.9s1.3-15.5,1.4-20.9c0.1-2.7,0.1-4.9,0.1-6.4c0-0.7,0-1.3,0-1.7C405.6,225.7,405.6,225.5,405.6,225.3z"/>
	<path class="st6" d="M352.4,244.8c0-0.4,0-0.8,0-1.2c0-0.8,0-1.9-0.1-3.3c-0.2-3.6-0.6-7.2-1.5-10.6c-0.8-3.5-2-6.9-3.5-10.2
		c-0.6-1.3-1-2.3-1.4-3c-0.2-0.3-0.4-0.7-0.5-1.1c0.3,0.3,0.5,0.6,0.7,1c0.4,0.7,0.9,1.6,1.5,2.9c1.6,3.3,2.8,6.7,3.6,10.2
		c0.8,3.5,1.3,7.1,1.3,10.8c0,1.4,0,2.5-0.1,3.3C352.6,244,352.5,244.4,352.4,244.8z"/>
	<path class="st17" d="M347.1,316c0,0,4.1,3.3,5,4.6s3,5.8,4.7,7.2c-0.1,0.7-0.8,1.2-1.5,1.1c-0.2,0-0.4-0.1-0.6-0.3
		c-1.7-1-3.2-2.4-4.4-4c-0.7-1.1-1.5-0.5-1.5,0.5s0.6,7.5,0.6,7.5s1.8,7.2,1.2,8c-0.4,0.6-1.3,0.7-1.8,0.2c-0.1-0.1-0.2-0.1-0.2-0.2
		c-0.3-0.4-2.4-6.5-2.4-6.5l-0.5-3.3c0,0,0.9,10.4,0.2,11.2c-0.4,0.5-1.1,0.6-1.6,0.2c-0.1-0.1-0.2-0.1-0.2-0.2
		c-0.4-0.4-0.8-5-0.8-5l-0.9-6.1l-0.1,11.7c0,0-0.2,1.1-1,1.1s-1.4-1.3-1.4-1.3l-0.9-12c0,0,0.2,6.7-0.2,7s-1.2,0.3-1.3-0.2
		c-0.4-2.3-0.7-4.7-0.8-7.1l-0.2-11.5l-0.4-5.5l10.7-0.4L347.1,316z"/>
	<path class="st7" d="M352.5,245.3l-8.8-31.6c0,0-5.2,6.1-6.7,12c-2.7,10-8.9,42.3-8.6,48.7s3.9,43.5,3.9,43.5l16.6-3.3l-1.8-42.2
		L352.5,245.3z"/>
	<path class="st6" d="M384,258.6c0.5-0.6,1-1.2,1.3-1.9c0.7-1.7,1.3-3.6,1.7-5.4c0.4-1.8,0.7-3.7,0.9-5.6c0-0.8,0.1-1.6,0.2-2.4
		c0.1,0.8,0.2,1.6,0.1,2.4c0,1.9-0.3,3.8-0.7,5.7c-0.4,1.9-1,3.7-1.9,5.4C385.3,257.6,384.7,258.2,384,258.6z"/>
	<path class="st18" d="M431,201.7c-0.1-0.8-0.8-1.4-1.6-1.3l-1.9,5.5c0,0,0.8-4.6,0-5.4c-0.4-0.5-1-0.6-1.6-0.3l-3.1,10.2l-0.1,0.1
		c-0.1,0.2-0.2,0.3-0.2,0.3l-0.9,1.3c0,0-0.9,5.6-0.9,6.9s1.8,7.4,1.8,7.4l-1.9,3.3l-2.5-0.8l-4.1,13.6l-6.5-24.8
		c-0.6-2.3-2.2-4.3-4.3-5.4v-0.2l-11.5-3.3c0,0,11.7,4.4,13.6,8.3c2.5,5.2,5.4,24.8,7.8,27s6.1-13.5,6.1-13.5l5.5,0.3l-1.8-13.6
		l0.5-5l3.5-5.1c0,0,0.4,0.1,0.9-0.4s1.5-5.2,1.9-5.2C430.2,201.6,430.6,201.6,431,201.7z"/>
	<path class="st18" d="M343.8,213.7L343.8,213.7c0,0-0.1,0.1-0.3,0.4s-0.5,0.6-0.9,1.1c-1.1,1.5-2.2,3.1-3.1,4.7
		c-0.7,1.2-1.3,2.4-1.8,3.7c-0.6,1.5-1,3.1-1.4,4.7c-0.8,3.4-1.7,7.3-2.6,11.6s-1.8,9-2.7,14.1s-1.9,10.5-2.5,16.3
		c-0.2,1.5-0.2,3-0.2,4.4c0.1,1.5,0.3,3,0.4,4.5c0.3,3,0.5,6.1,0.8,9.2s2.8,26.3,3,29.5l-0.4-21.4c-0.5-8.4-2.3-19.3,1.6-33.5
		s9.6-37.8,11.5-42.7s18.1-13.6,18.1-13.6L343.8,213.7z"/>
	<path class="st4" d="M407.8,218.4c-0.4-1.3-1-2.5-1.7-3.7c-0.9-1-1.9-1.9-3-2.7c0.4,0,0.8,0.2,1.2,0.4c1.8,1,3.1,2.7,3.5,4.7
		C407.9,217.5,407.9,218,407.8,218.4z"/>
	<path class="st4" d="M421.6,211.4c-0.3,2.4-0.5,4.9-0.4,7.3c0.2,2.4,0.7,4.8,1.3,7.2c-0.4-0.6-0.7-1.3-0.9-2
		c-0.5-1.7-0.9-3.4-1-5.2c-0.1-1.8,0-3.5,0.3-5.2C421,212.7,421.3,212,421.6,211.4z"/>
	<path class="st4" d="M363.3,206.6l-0.3,0.1l-0.8,0.3l-3.1,1.1c-2.7,1-6.7,2.4-11.5,4.2l-1.9,0.7c-0.6,0.2-1.2,0.5-1.8,0.8
		c-1.1,1-2,2.1-2.8,3.3c-1.8,2.7-3.1,5.6-4,8.8c-0.5,1.7-0.8,3.4-1.1,5.1c-0.3,1.8-0.7,3.6-1,5.4c-0.7,3.6-1.4,7.4-2.2,11.3
		c-1.5,7.8-3,15.1-4.2,21.8c-0.4,3.2-0.4,6.4,0,9.6c0.3,3,0.6,5.8,0.8,8.4l1.2,12.2c0.1,1.4,0.2,2.5,0.3,3.3c0,0.4,0,0.6,0.1,0.9
		c0,0.1,0,0.2,0,0.3c0-0.1,0-0.2,0-0.2l-0.1-0.9c-0.1-0.8-0.2-1.9-0.4-3.3c-0.3-2.9-0.8-7.1-1.3-12.2c-0.3-2.6-0.6-5.4-0.9-8.4
		c-0.5-3.2-0.5-6.5-0.1-9.7c1.2-6.8,2.7-14.1,4.1-21.9c0.8-3.9,1.5-7.6,2.2-11.3c0.3-1.8,0.7-3.6,1-5.4c0.3-1.7,0.7-3.4,1.2-5.1
		c0.9-3.1,2.3-6.1,4-8.9c0.8-1.2,1.8-2.4,2.9-3.4c0.6-0.3,1.3-0.6,2-0.9l1.9-0.7c4.9-1.8,8.8-3.1,11.6-4l3.2-1l0.8-0.3
		C363.1,206.7,363.2,206.7,363.3,206.6z"/>
	<polygon class="st19" points="350.9,253.9 357.5,269.8 349,282.7 354,271.4 	"/>
	<path class="st6" d="M352.1,247.4c0,0.2,0,0.3,0,0.5c-0.1,0.4-0.1,0.8-0.2,1.4c-0.2,1.2-0.6,3-1,5.2l-3.5,18l0,0
		c0.2,5.1,0.5,10.8,0.7,16.7c0.4,9.6,0.7,18.5,1,25.5v0.2h-0.2l-11.9,2.3l-3.3,0.6l-0.9,0.1c-0.1,0-0.2,0-0.3,0
		c0.1,0,0.2-0.1,0.3-0.1l0.9-0.2l3.3-0.7l11.9-2.5l-0.2,0.2c-0.3-7-0.7-15.9-1.1-25.5c-0.2-6-0.5-11.6-0.7-16.7v-0.1
		c1.5-7.3,2.8-13.5,3.7-18c0.5-2.2,0.8-3.9,1.1-5.1c0.1-0.6,0.2-1,0.3-1.4C352,247.7,352.1,247.6,352.1,247.4z"/>
	<path class="st6" d="M348.5,304.6c0.3,0,0.6,0.1,0.8,0.2l2.2,0.7c1.9,0.6,4.5,1.5,7.6,2.6l-0.3,0.1c0.7-1.7,1.5-3.6,2.2-5.5
		l0.9-2.1l0.1,0.3c-4-1.4-7.5-2.6-10-3.5l-2.9-1.1c-0.4-0.1-0.7-0.3-1-0.5c0.4,0.1,0.8,0.1,1.1,0.3l3,1c2.5,0.8,6,2,10,3.4l0.3,0.1
		l-0.1,0.2l-0.9,2.1c-0.8,1.9-1.6,3.8-2.3,5.5l-0.1,0.2l-0.2-0.1c-3.1-1.1-5.7-2-7.5-2.7l-2.1-0.8
		C348.9,304.8,348.7,304.7,348.5,304.6z"/>
	<path class="st6" d="M414.4,241.7c-0.2,0.8-0.4,1.6-0.8,2.3c-0.5,1.4-1.1,3.4-1.6,5.6c-0.4,1.9-0.8,3.8-1,5.7
		c0,0.8-0.2,1.6-0.4,2.4c-0.1-0.8-0.1-1.6,0-2.4c0.1-2,0.4-3.9,0.9-5.8c0.4-1.9,1-3.8,1.8-5.6C413.6,243.1,414,242.4,414.4,241.7z"
		/>
	<path class="st4" d="M359.7,439.1c-0.1-0.2-0.1-0.5-0.2-0.7l-0.4-2l-1.4-7.5c-1.2-6.3-3-15-4.9-24.5s-3.7-18.3-4.8-24.6
		c-0.6-3.2-1-5.7-1.2-7.5c-0.1-0.9-0.2-1.5-0.3-2c0-0.2-0.1-0.5-0.1-0.7c0.1,0.2,0.1,0.5,0.2,0.7c0.1,0.5,0.2,1.2,0.4,2
		c0.3,1.8,0.8,4.4,1.4,7.5c1.2,6.3,3,15,4.9,24.6s3.7,18.3,4.8,24.6c0.6,3.2,1,5.7,1.2,7.5c0.1,0.8,0.2,1.5,0.3,2
		C359.6,438.6,359.7,438.9,359.7,439.1z"/>
</g>
<g id="freepik--character-1--inject-6">
	<path class="st17" d="M85.3,165.1l0.7,11.6l0.8,2.1c0,0-0.5,6.2-0.8,7.5s-3.7,7.4-3.7,7.4l2,6.9L73,201.6c0,0-1.2-6.1-1.8-6.9
		s-0.7-2.7-0.5-3.9s0.6-8.6,0.6-8.6s-2.4-8.9-0.4-8.8H71c0.7,0.1,1.3,0.7,1.5,1.4c0.4,1.7,1.2,4.8,1.8,5.1l1.2-0.3
		c0,0,0-8.3,0.3-9.8s0.9-2.4,2-2.3c0,0,0.7,0.6,0.7,1s-0.3,9.6,0.2,9.5s0.5-0.9,0.5-0.9s0.1-11.2,0.4-11.8c0.3-0.8,1.2-1.3,2.1-1
		l0.6,6.3c0,0,0.3-5.1,1.4-5.7C84.1,164.6,84.8,164.6,85.3,165.1z"/>
	<path class="st16" d="M76.7,187.9c0.1,0,0.3-0.9,1-2.2c1-1.8,2.6-3.2,4.5-4l0.2-0.1v-0.2c0-0.8,0.1-1.7,0.1-2.6v-0.1l0,0
		c-0.1-0.3-0.2-0.6-0.3-1c-0.3-1.1-0.4-2.2-0.3-3.4c0-0.5,0.2-1,0.4-1.4c0.2-0.4,0.6-0.6,1-0.6l-0.2-0.1c0.9,1.5,1.6,2.7,2.2,3.6
		c0.3,0.5,0.6,0.9,0.9,1.3c-0.2-0.5-0.4-1-0.7-1.4c-0.5-0.9-1.2-2.2-2-3.7V172h-0.1c-0.6-0.1-1.2,0.2-1.5,0.8
		c-0.3,0.5-0.5,1.1-0.5,1.6c-0.1,1.2,0,2.4,0.3,3.6c0.1,0.4,0.2,0.7,0.3,1v-0.1c0,0.9,0,1.7-0.1,2.6l0.2-0.2c-2,0.9-3.6,2.4-4.6,4.3
		c-0.3,0.5-0.5,1.1-0.6,1.7C76.8,187.5,76.7,187.7,76.7,187.9z"/>
	<path class="st16" d="M79.1,179.4c-1.2-0.1-2.5,0-3.6,0.5c-1.2,0.3-2.3,0.9-3.2,1.7c1.2-0.3,2.3-0.7,3.4-1.2
		C76.8,180.1,78,179.8,79.1,179.4z"/>
	<path class="st6" d="M146,136c-0.8-1.6-2.6-2.5-4.4-2.3c-2.1-1.6-5.1-1.6-7.2,0c-2.4-1.5-5.6-0.8-7.1,1.7c-0.5,0.7-0.7,1.6-0.8,2.4
		c-2.4-0.4-4.6,1.2-5,3.5c-0.2,1.3,0.2,2.7,1.1,3.7c-2.2,0.7-3.5,3-2.8,5.2c0.6,1.9,2.4,3.2,4.4,3l21-12.3
		C146.4,139.6,146.8,137.6,146,136z"/>
	<path class="st17" d="M123.6,153.7c0.9-9.2,8.7-16.1,17.9-15.9h0.9c9.9,0.8,14.7,9.6,13.6,19.4l-2.1,32.8l-1.4,4.1l-17,21.3
		l-4.3-19.2l-0.1-8.9c0,0-9.4-1.7-9.4-11.1C121.9,171.7,122.7,162.2,123.6,153.7z"/>
	<path class="st16" d="M131.2,187.4c4.4,0.1,8.7-1.1,12.4-3.4c0,0-3,6.8-12.4,5.8L131.2,187.4z"/>
	<path class="st6" d="M127.8,163c0,0.7,0.5,1.4,1.3,1.4c0.7,0.1,1.3-0.5,1.4-1.2c0,0,0,0,0,0c0-0.7-0.5-1.4-1.3-1.4
		C128.5,161.7,127.9,162.3,127.8,163C127.8,163,127.8,163,127.8,163z"/>
	<path class="st6" d="M140.8,163c0,0.7,0.5,1.3,1.3,1.4c0.7,0.1,1.3-0.4,1.4-1.1c0,0,0,0,0,0c0-0.7-0.5-1.3-1.3-1.4
		C141.5,161.7,140.9,162.2,140.8,163C140.8,163,140.8,163,140.8,163z"/>
	<path class="st6" d="M125.4,158.9c0.2,0.2,1.2-0.6,2.7-0.5c1.5,0,2.5,0.8,2.7,0.6s-0.1-0.4-0.6-0.8c-0.6-0.5-1.4-0.7-2.1-0.7
		c-0.8,0-1.5,0.2-2.1,0.6C125.5,158.5,125.3,158.8,125.4,158.9z"/>
	<path class="st6" d="M140,159.6c0.2,0.2,1.2-0.6,2.7-0.5s2.5,0.8,2.7,0.6s-0.1-0.4-0.6-0.8c-0.6-0.5-1.4-0.7-2.1-0.7
		c-0.8,0-1.5,0.2-2.1,0.6C140.1,159.2,139.9,159.5,140,159.6z"/>
	<path class="st6" d="M134.3,169.7c-0.8-0.3-1.6-0.4-2.4-0.5c-0.4,0-0.7-0.1-0.8-0.4c0-0.4,0.1-0.8,0.3-1.1c0.4-0.9,0.8-1.8,1.2-2.8
		c1.6-4,2.8-7.3,2.6-7.4s-1.6,3.1-3.2,7.1l-1.1,2.8c-0.2,0.4-0.3,1-0.2,1.5c0.1,0.3,0.3,0.5,0.6,0.6c0.2,0.1,0.4,0.1,0.6,0.1
		C132.7,169.7,133.5,169.7,134.3,169.7z"/>
	<path class="st6" d="M139.7,155.9c0.2,0.4,1.4,0.1,2.9,0.1s2.8,0.4,3,0c0.1-0.2-0.2-0.5-0.7-0.9c-0.7-0.4-1.5-0.6-2.2-0.6
		c-0.8,0-1.6,0.2-2.2,0.5C139.9,155.4,139.6,155.7,139.7,155.9z"/>
	<path class="st6" d="M125.8,154.9c0.2,0.4,1.2,0.1,2.4,0.2s2.2,0.4,2.5,0.1c0.1-0.2,0-0.5-0.4-0.9c-0.6-0.4-1.2-0.7-1.9-0.8
		c-0.7-0.1-1.4,0.1-2,0.5C125.9,154.4,125.7,154.7,125.8,154.9z"/>
	<path class="st6" d="M124.6,149.4c0,0,2.6-5.9,5.5-7.2c3.5-1.6,4.9,2.2,8.2,1.4s6.7-2.4,10,0.2c3.6,2.9,1.9,4.8,2,9
		c0.6,17.1,3.6,22,4.6,13.9c0.1-0.9,2.6-1.5,3-5.2c0.6-4.8,0.9-10.7-0.1-14.1c-0.9-2.9-2.4-4.9-5.4-7.2c-4.6-3.6-11-3.8-15.3-3.4
		S124.3,141.9,124.6,149.4z"/>
	<path class="st17" d="M154.4,166.5c0.1-1.4,1.3-2.5,2.7-2.4c0,0,0.1,0,0.1,0c1.8,0.2,3.7,1.2,3.5,4.9c-0.3,6.5-6.8,4.8-6.8,4.6
		S154.2,169.2,154.4,166.5z"/>
	<path class="st16" d="M155.5,171.2c0,0,0.1,0.1,0.3,0.2c0.3,0.1,0.6,0.1,0.8,0.1c0.9-0.5,1.4-1.4,1.4-2.4c0-0.6,0-1.1-0.2-1.6
		c-0.1-0.4-0.4-0.8-0.8-0.9c-0.3-0.1-0.6,0-0.7,0.3c-0.1,0.2-0.1,0.3-0.1,0.3s-0.1-0.1-0.1-0.4c0-0.2,0.1-0.3,0.3-0.4
		c0.2-0.1,0.4-0.2,0.6-0.1c0.5,0.1,1,0.5,1.1,1.1c0.2,0.6,0.3,1.2,0.3,1.8c0,1.2-0.7,2.3-1.8,2.7c-0.4,0.1-0.7,0-1-0.2
		C155.5,171.3,155.5,171.2,155.5,171.2z"/>
	<path class="st6" d="M154.5,153.9c-0.8,0.6-1.8,1-2.8,1.2c-1,0.1-2-0.5-2.3-1.5c-0.1-0.4,0.1-1-0.2-1.3s-1-0.3-1.6-0.3
		c-2,0.1-3.7-1.2-4.2-3.1c-0.6,0.7-1.6,0.7-2.3,0.2c-0.7-0.6-1.2-1.2-1.7-1.9c-0.5-0.7-1.3-1.2-2.2-1.2c-0.5,0.2-0.9,0.2-1.4,0.3
		c-0.9-0.1-1.2-1.1-1.4-1.9s-0.2-1.8-0.9-2.3c-0.7-0.3-1.6-0.3-2.3-0.1c-0.8,0.1-1.8-0.1-2-0.9c-0.1-0.4,0.1-0.8,0.3-1.2
		c1.1-1.6,3.2-2.2,5-1.5c1-3,4.2-4.6,7.1-3.7c1.4,0.5,2.6,1.5,3.3,2.8c2.4-2.1,6-1.8,8.1,0.6c0.4,0.5,0.8,1.1,1,1.7
		c2.2-0.5,4.5,0.8,5.1,3.1c0.3,1.1,0.1,2.2-0.5,3.1c1.2,0.6,2,1.8,2.1,3.2c0,1.3-1,2.3-2.3,2.3c-0.1,0-0.2,0-0.4,0
		c0.4,1.2-0.2,2.5-1.4,3c-0.9,0.3-2,0-2.6-0.7"/>
	<path class="st16" d="M137.9,172.1c0.1-0.1,0.3-0.1,0.4-0.1c0.1,0.1,0.2,0.2,0.2,0.3c0.4,1,0.3,2.2-0.4,3.1l0,0
		c-0.8,0.9-2.1,1.1-3.1,0.3c-0.3-0.2-0.5-0.5-0.6-0.8l-0.5-1.1L137.9,172.1z"/>
	<path class="st6" d="M134.9,175.5c-0.1,0,0.4,0.7,1.6,0.8c0.3,0,0.7,0,1-0.1c0.4-0.1,0.7-0.4,0.9-0.7c0.5-0.7,0.7-1.5,0.6-2.4
		c0-0.2,0-0.4,0-0.7c0-0.3-0.2-0.5-0.4-0.6c-0.2-0.1-0.5-0.1-0.8,0l-0.5,0.2l-1.7,0.9c-0.5,0.2-1.1,0.6-1.5,0.9
		c0.6-0.2,1.1-0.4,1.7-0.6l1.8-0.8c0.3-0.1,0.7-0.4,0.9-0.3s0.2,0.6,0.2,0.9c0,0.7-0.1,1.5-0.5,2.1c-0.2,0.2-0.4,0.4-0.7,0.6
		c-0.2,0.1-0.5,0.2-0.8,0.2C136,176,135.4,175.8,134.9,175.5z"/>
	<path class="st12" d="M158.7,151.5c0,0.5-0.1,0.9-0.4,1.2c-0.3,0.4-0.8,0.7-1.3,0.8c-0.7,0.1-1.3-0.1-1.8-0.6h0.3
		c-0.4,0.6-0.8,1.1-1.3,1.6c-0.4,0.3-0.8,0.6-1.2,0.7c-1.2,0.4-2.4,0-3.2-1c-0.3-0.4-0.4-0.9-0.5-1.4c0-0.2,0-0.3,0-0.5
		c0,0,0.1,0.2,0.2,0.5c0.1,0.4,0.3,0.9,0.6,1.2c0.9,1.1,2.6,1.3,3.7,0.3c0.1,0,0.1-0.1,0.2-0.2c0.5-0.4,0.9-0.9,1.3-1.5l0.1-0.2
		l0.2,0.1c0.8,0.7,2,0.7,2.7,0c0,0,0,0,0,0C158.4,152.3,158.6,151.9,158.7,151.5z"/>
	<path class="st12" d="M146.8,136.4c0,0-0.2,0-0.5,0.2c-0.4,0.2-0.8,0.5-1,0.8l-0.1,0.1l-0.1-0.1c-0.8-1.1-1.9-2-3.1-2.6
		c-0.8-0.4-1.7-0.6-2.5-0.6c-1,0-1.9,0.2-2.8,0.7c-0.7,0.4-1.2,0.9-1.7,1.5c-0.4,0.6-0.7,1.2-0.8,1.9v0.2h-0.2
		c-0.9-0.3-1.9-0.2-2.7,0.3c-0.7,0.3-1.2,0.9-1.5,1.6c-0.3,0.6-0.4,1.2-0.4,1.9c-0.1-0.2-0.1-0.4-0.1-0.5c0-0.5,0.1-1,0.3-1.5
		c0.3-0.7,0.9-1.3,1.6-1.7c0.9-0.5,2-0.6,2.9-0.4l-0.2,0.1c0.1-0.8,0.4-1.5,0.8-2.1c0.5-0.7,1.1-1.2,1.8-1.6c0.9-0.5,1.9-0.8,3-0.8
		c0.9,0,1.8,0.3,2.7,0.7c1.3,0.6,2.3,1.6,3.1,2.8h-0.2c0.3-0.4,0.7-0.7,1.2-0.8C146.6,136.4,146.8,136.4,146.8,136.4z"/>
	<path class="st6" d="M125.8,434.7l-0.1,17.8c0,0-18.2,5.9-18.5,9.1l34.5,1.5l1.3-27.7L125.8,434.7z"/>
	<path class="st3" d="M136.4,451.5c0.7,0.2,1.1,1,0.9,1.6c-0.2,0.7-0.9,1.1-1.6,0.9c-0.7-0.2-1.2-1-1-1.8
		C135,451.6,135.8,451.2,136.4,451.5"/>
	<path class="st12" d="M141.7,463.1v-2.8l-33.1-0.4c0,0-1.6,0.6-1.4,1.7L141.7,463.1z"/>
	<path class="st4" d="M125.1,452.3c0,0.2,0.8,0.3,1.7,0.9s1.2,1.3,1.4,1.2s0-1-1-1.7S125.1,452.1,125.1,452.3z"/>
	<path class="st4" d="M121.4,453.6c0,0.2,0.7,0.5,1.2,1.2s0.7,1.5,0.8,1.5s0.3-1-0.4-1.9S121.4,453.5,121.4,453.6z"/>
	<path class="st4" d="M119.2,457.9c0.2,0,0.4-0.8,0-1.7s-1.2-1.3-1.2-1.2s0.4,0.7,0.7,1.4S119,457.9,119.2,457.9z"/>
	<path class="st4" d="M125.6,448.2c0.1,0.1,0.8,0,1.8,0.1c0.9,0.1,1.7,0.4,1.8,0.3s-0.6-0.8-1.7-0.9S125.5,448.1,125.6,448.2z"/>
	<path class="st6" d="M165.8,438.5l1.9,21.5l-3.4,17.4c-0.2,1.2,0.5,2.4,1.7,2.6c0,0,0.1,0,0.1,0l0,0c0.7,0.1,1.4-0.2,1.9-0.7
		c3.1-3.4,14.4-15.8,14.1-17.3c-0.3-1.8-0.5-22.8-0.5-22.8L165.8,438.5z"/>
	<path class="st12" d="M166.2,480l15.9-19.5l0.1,0.9c0.1,0.8-0.2,1.6-0.6,2.2c-1.3,1.7-4.9,6.3-13.4,15.7
		C167.6,479.9,166.9,480.1,166.2,480L166.2,480z"/>
	<g class="st20">
		<path class="st4" d="M177.2,453.8c-0.5,0.4-0.6,1.2-0.2,1.8c0.4,0.5,1.2,0.7,1.8,0.3c0.6-0.5,0.7-1.3,0.3-1.9
			C178.5,453.5,177.7,453.4,177.2,453.8"/>
	</g>
	<path class="st4" d="M170.5,470.3c-0.6-0.6-1.2-1.2-2-1.5c-0.8-0.3-1.7-0.4-2.5-0.3c0,0,0.2-0.2,0.7-0.3c0.7-0.1,1.3,0,1.9,0.2
		c0.6,0.3,1.2,0.7,1.5,1.2C170.5,469.9,170.5,470.2,170.5,470.3z"/>
	<path class="st4" d="M169.1,473.2c-0.6-0.3-1.3-0.6-2-0.8c-0.7-0.1-1.4-0.1-2.1-0.1c0.6-0.5,1.5-0.6,2.2-0.3
		C168.6,472.3,169.2,473.2,169.1,473.2z"/>
	<path class="st4" d="M173.1,466.4c-1-0.6-2-1-3-1.4c-1.1-0.3-2.1-0.4-3.2-0.5C169.1,463.8,171.5,464.6,173.1,466.4L173.1,466.4z"/>
	<path class="st4" d="M173.1,459.8c0,0.1-1.3-0.3-2.8-0.2s-2.8,0.5-2.8,0.4C169.2,458.9,171.3,458.8,173.1,459.8z"/>
	<path class="st4" d="M172.7,453.5c-1-0.2-1.9-0.4-2.9-0.3c-1,0.2-1.9,0.5-2.8,0.9c0,0,0.2-0.3,0.7-0.6c1.3-0.8,2.9-1,4.3-0.4
		C172.4,453.2,172.7,453.4,172.7,453.5z"/>
	<path class="st4" d="M169.7,452c-0.1-0.3-0.1-0.5-0.1-0.8c0-0.8,0.2-1.5,0.5-2.2c0.2-0.5,0.5-1,1-1.3c0.3-0.2,0.7-0.1,1,0.1
		c0.3,0.3,0.4,0.6,0.4,1c0,1.5-1.1,2.7-2.6,3c-1.4,0.2-2.9-0.4-3.7-1.7c-0.2-0.3-0.2-0.7-0.1-1c0.1-0.3,0.5-0.6,0.9-0.5
		c0.5,0.1,1,0.3,1.5,0.6c0.6,0.4,1.2,1,1.6,1.6c0.3,0.4,0.4,0.7,0.4,0.7c-0.6-0.8-1.3-1.4-2.1-2c-0.4-0.3-0.8-0.5-1.3-0.5
		c-0.2,0-0.4,0.1-0.5,0.3c-0.1,0.2,0,0.5,0.1,0.7c0.7,1.1,1.9,1.6,3.2,1.4c1.2-0.2,2.1-1.3,2.2-2.6c0-0.2-0.1-0.5-0.2-0.7
		c-0.1-0.1-0.4-0.2-0.6-0.1c-0.4,0.3-0.7,0.6-0.9,1C170,450.1,169.8,451,169.7,452z"/>
	<path class="st6" d="M107.5,287c-1.7,7.4-2.2,15-1.7,22.5c0.4,4.8,16.5,137.1,16.5,137.1h21.8L138,322.2l1.8,0.4
		c0,0,11.9,53,12.9,61.6c0.9,7.7,11.6,68.4,11.6,68.4l20.6-0.2l-7.6-78.3l-7.4-71.2l-2.7-20.7L107.5,287z"/>
	<path class="st6" d="M141.4,309.5c-0.3,0.2-0.6,0.4-0.9,0.5c-0.9,0.4-1.8,0.8-2.7,1c-0.7,0.1-1.3,0.1-2,0c-0.8-0.1-1.5-0.5-2.1-1
		c-0.6-0.6-1-1.4-1.3-2.2c-0.3-0.9-0.4-1.7-0.6-2.6c-0.7-3.6-1.2-6.9-1.4-9.2c-0.1-1.2-0.2-2.1-0.3-2.8c0-0.3,0-0.7,0-1
		c0.1,0.3,0.2,0.7,0.2,1c0.1,0.8,0.2,1.7,0.4,2.8c0.4,2.4,0.9,5.6,1.6,9.2c0.4,1.8,0.6,3.6,1.7,4.6c1,0.9,2.4,1.2,3.8,1
		c0.9-0.2,1.8-0.4,2.7-0.8C140.8,309.7,141.1,309.6,141.4,309.5z"/>
	<path class="st6" d="M134.9,292.7c0,0,0.1-0.1,0.4-0.1c0.4,0,0.9,0.1,1.2,0.4c0.5,0.4,0.9,1,0.9,1.7c0,0.9-0.6,1.6-1.4,1.9
		c-0.8,0.3-1.7,0.1-2.3-0.5c-0.4-0.5-0.6-1.2-0.4-1.9c0.1-0.4,0.3-0.8,0.6-1.1c0.2-0.2,0.4-0.2,0.4-0.2c-0.4,0.4-0.7,0.8-0.8,1.4
		c-0.1,0.5,0.1,1.1,0.4,1.5c0.7,0.7,1.8,0.6,2.5-0.1c0.2-0.3,0.4-0.6,0.4-1c0-0.6-0.3-1.1-0.7-1.4
		C135.9,292.9,135.4,292.7,134.9,292.7z"/>
	<path class="st6" d="M169.4,301.6c0,0-0.3,0.1-0.7,0.1c-0.7,0-1.3,0-2,0c-2.3-0.1-4.5-0.6-6.6-1.5c-2.1-0.9-4-2.1-5.7-3.6
		c-0.5-0.5-1-0.9-1.4-1.5c-0.2-0.2-0.3-0.4-0.4-0.6c0.1-0.1,0.8,0.7,2.1,1.8c3.4,2.9,7.6,4.6,12,5.1
		C168.4,301.6,169.4,301.5,169.4,301.6z"/>
	<path class="st6" d="M116.4,293.1c-0.2,0.8-0.6,1.5-1,2.2c-0.9,1.7-2.1,3.3-3.4,4.7c-1.3,1.4-2.7,2.6-4.3,3.6
		c-0.6,0.5-1.3,0.8-2,1.1c0.6-0.5,1.2-0.9,1.9-1.4c1.5-1.1,2.9-2.3,4.1-3.7c1.3-1.4,2.4-2.9,3.4-4.5
		C116,293.9,116.4,293,116.4,293.1z"/>
	<path class="st5" d="M153.8,188.1l-11,8.6L137,201l-2.2,0.1l-1.5-4.7l-1.8-7.2l-3,3l-7.6,16.2l-8.6,78.5c0,0,15,4.4,22.7,4.9
		s20.1-1.6,20.1-1.6v-41.3l4.3-40.9l-5.3-15.7L153.8,188.1z"/>
	<path class="st6" d="M131.5,291.3c0,0,0-0.1,0-0.2v-0.6c0-0.6,0.1-1.4,0.1-2.5c0.1-2.2,0.2-5.3,0.3-9.1c0.3-7.7,0.7-18.4,1.3-30.1
		s1.3-22.4,1.8-30.1c0.3-3.8,0.5-6.9,0.6-9.1c0.1-1.1,0.1-1.9,0.2-2.5c0-0.3,0-0.5,0-0.6s0-0.2,0-0.2c0,0.1,0,0.1,0,0.2
		c0,0.2,0,0.4-0.1,0.6c0,0.6-0.1,1.4-0.2,2.5c-0.2,2.1-0.4,5.3-0.7,9.1c-0.6,7.7-1.3,18.4-1.9,30.1c-0.6,11.8-1,22.4-1.2,30.2
		c-0.1,3.9-0.2,7-0.2,9.1c0,1.1,0,1.9,0,2.5v0.6C131.4,291.1,131.5,291.2,131.5,291.3z"/>
	<path class="st6" d="M155.5,192.2l2.6,3.5l20.9,11l-11.6,35.5l-3.1,19.9l11.8,47.3c0,0-14.3,4.9-15.5,3.3c-1.4-2.5-2.6-5.1-3.6-7.8
		c-3.1-7.4-5.1-15.2-6-23.2c-0.9-8-1.7-18.3-1.1-25.3c1.1-13,2.8-34.5,3-40.1s1.2-26.9,1.2-26.9L155.5,192.2z"/>
	<path class="st6" d="M131.1,189.4l-6.4,3.1l-17.7,3.6l-2.3,20.6l2,40.7l-10.3,50.3c0,0,7.5,2.7,10.5,1.6s7.1-7.8,7.2-11.9
		s6-43.6,6-43.6l4.9-46.4c0.5-4.4,1.7-8.7,3.7-12.8L131.1,189.4z"/>
	<path class="st12" d="M122.6,194.1c-0.1,0.1-0.2,0.2-0.3,0.3l-0.8,1c-0.7,0.9-1.7,2.1-2.9,3.6l-0.1,0.1l0.1,0.1l2.4,1.9v-0.2
		l-2.9,0.9h-0.1v0.1c0.1,5.1,0.1,11.5,0.2,18.5c0.1,8.5,0.2,16.2,0.3,21.8c0,2.8,0.1,5,0.1,6.6c0,0.8,0,1.4,0,1.8c0,0.2,0,0.4,0,0.5
		s0,0.2,0,0.2s0-0.1,0-0.2s0-0.3,0-0.5c0-0.4,0-1,0-1.8c0-1.6,0-3.8,0-6.6c0-5.6-0.1-13.3-0.2-21.8c-0.1-7-0.2-13.4-0.3-18.5
		l-0.1,0.1l2.8-0.9l0.2-0.1l-0.2-0.1l-2.5-1.8v0.1l2.8-3.7c0.3-0.4,0.6-0.7,0.7-1C122.3,194.3,122.4,194.2,122.6,194.1z"/>
	<path class="st12" d="M150.4,249.7c0,0,0-0.1,0.1-0.1l0.1-0.5l0.6-1.8c0.5-1.5,1.2-3.7,2.2-6.4l1.6-4.4c0.6-1.7,1.2-3.4,1.6-5.1
		c1-4,1.7-8.1,2.2-12.1c0.8-5.6,1.3-11,1.6-15.6v-0.1h-0.1l-2.5-2.4v0.2c0.8-0.6,1.6-1.2,2.3-1.8l0.1-0.1l-0.1-0.1l-4.2-5.7
		c-0.5-0.6-0.9-1.2-1.2-1.5l-0.3-0.4c-0.1-0.1-0.1-0.1-0.1-0.1l0.1,0.1l0.3,0.4l1.1,1.6l4.1,5.8v-0.2l-2.4,1.8l-0.1,0.1l0.1,0.1
		l2.4,2.4v-0.1c-0.3,4.6-0.9,9.9-1.6,15.5c-0.5,4.1-1.3,8.1-2.2,12.1c-0.5,1.8-1,3.6-1.6,5.1s-1.1,3.1-1.6,4.4
		c-0.9,2.7-1.6,4.9-2.1,6.5c-0.2,0.8-0.4,1.4-0.5,1.8l-0.1,0.5C150.4,249.7,150.4,249.7,150.4,249.7z"/>
	<polygon class="st6" points="112,276.7 110.1,282.5 99.5,281.5 102.8,276 	"/>
	<path class="st12" d="M112,276.7c-0.2,0-0.4-0.1-0.6-0.1l-1.8-0.2c-1.6-0.2-3.9-0.4-6.7-0.6h-0.1v0.1l-3.3,5.5l-0.1,0.2h0.3l0.5,0
		l10,0.9h0.1v-0.1c0.6-1.8,1-3.3,1.3-4.3l0.3-1.1C111.9,276.9,112,276.8,112,276.7c-0.1,0.1-0.1,0.3-0.2,0.4
		c-0.1,0.3-0.2,0.7-0.4,1.2c-0.3,1-0.8,2.5-1.4,4.2l0.1-0.1l-10-1l-0.5,0l0.1,0.2l3.3-5.5l-0.1,0.1c2.7,0.2,4.9,0.3,6.6,0.4l1.9,0.1
		C111.7,276.7,112,276.7,112,276.7z"/>
	<path class="st10" d="M118.3,201.8l-1.7,2.4c0,0,0.5,36.5,2.3,45.6L118.3,201.8z"/>
	<path class="st6" d="M190.8,269.9c0.5-2.5,0.9-4.9,1.2-7.5c0-2.1-0.1-4.3-0.4-6.4c-0.9-7.2-12.7-49.3-12.7-49.3l-11.9,32.8
		l6.2,21.8l-7.1,43.5l16.6,3.3C182.7,308.1,188.4,279.8,190.8,269.9z"/>
	<path class="st12" d="M164.2,262.1c0.1,0,2.2-10.8,4.7-24.2s4.3-24.2,4.1-24.3s-2.2,10.8-4.7,24.2S164.1,262.1,164.2,262.1z"/>
	<path class="st12" d="M173.2,261.2c-0.1,0.2-0.1,0.4-0.1,0.6c-0.1,0.5-0.2,1-0.3,1.8l-1.1,6.4c-0.9,5.5-2.2,13-3.6,21.3
		c-0.8,4.9-1.5,9.4-2.2,13.4v0.2h0.2l12,2.3l3.4,0.6c0.4,0.1,0.8,0.2,1.2,0.2c-0.4-0.1-0.8-0.2-1.2-0.3l-3.4-0.7l-12-2.5l0.2,0.3
		c0.7-4,1.4-8.6,2.2-13.4c1.3-8.3,2.5-15.8,3.4-21.3l1-6.5c0.1-0.7,0.2-1.3,0.2-1.8C173.2,261.6,173.2,261.4,173.2,261.2z"/>
	<polygon class="st3" points="84.8,201 84.8,197.4 70.1,197 70.1,200.7 	"/>
	<path class="st6" d="M107,196.1c-2.2,1.2-4.5,3.8-9.2,12.4l-11.7,13.4L85.4,201l-15.8-0.3c0,0-0.2,23.5,0,29.4
		c0.2,7.4,2.3,16.2,13.3,15.4c10.4-0.7,24.5-18.4,24.5-18.4L107,196.1z"/>
	<path class="st12" d="M103.3,209.4c0.1,0,1,10.2,1.9,22.9s1.6,22.9,1.4,22.9s-1-10.2-1.9-22.9S103.2,209.5,103.3,209.4z"/>
	<path class="st12" d="M85.5,233.8c0.4-2.3,0.6-4.7,0.7-7c0-3.9-0.5-7-0.4-7.1c0.3,0.6,0.4,1.3,0.5,2c0.3,1.7,0.4,3.3,0.4,5
		c0,1.7-0.2,3.4-0.6,5C86,232.4,85.8,233.1,85.5,233.8z"/>
	<path class="st6" d="M153.6,195.7c-0.2,0.3-0.4,0.5-0.7,0.8c-0.4,0.5-1.1,1.1-1.9,2c-1.6,1.6-3.9,3.9-6.5,6.4l-1.7,1.6l-0.3,0.3
		l-0.1-0.4c-0.9-2.3-1.6-4.4-2.2-6.1l0.3,0.1c-0.9,0.8-1.6,1.5-2.2,1.9c-0.3,0.3-0.5,0.5-0.8,0.7c0,0,0.2-0.3,0.7-0.8s1.2-1.2,2-2.1
		l0.2-0.2l0.1,0.3l2.4,6.1l-0.4-0.1l1.7-1.6c2.6-2.5,4.9-4.7,6.6-6.2c0.9-0.8,1.6-1.4,2-1.9S153.6,195.6,153.6,195.7z"/>
	<path class="st6" d="M134,202.1c-0.6-1.1-1.1-2.2-1.6-3.3l0.3,0.1c-1.2,1.6-2.2,3.4-3,5.3c-0.1,0.3-0.3,0.6-0.4,1l-0.3,0.8
		l-0.2-0.8c-0.6-2-0.9-4.1-0.9-6.2c-0.1-0.9,0-1.7,0.2-2.6c0.1,0.8,0.2,1.7,0.2,2.5c0.1,2.1,0.5,4.1,1,6.1h-0.5
		c0.1-0.3,0.2-0.6,0.4-1c0.8-1.9,1.9-3.7,3.2-5.3l0.2-0.3l0.1,0.3C133.3,199.8,133.7,200.9,134,202.1z"/>
	<polygon class="st11" points="132.1,204.2 134.2,207.3 137.3,207.3 139,204.2 137.4,200.9 134.7,200.5 	"/>
	<polygon class="st11" points="134.1,205.7 124.7,276.5 132.8,287.3 140.8,275.8 137.2,205.7 	"/>
	<path class="st12" d="M115.9,282.6c0,0.5,0,1-0.1,1.6l-0.5,4.2c-0.2,1.8-0.5,3.9-0.8,6.3c-0.4,2.6-1,5.1-1.9,7.5
		c-1,2.5-2.2,5.1-4.4,6.4c-1,0.6-2.2,0.8-3.3,0.8c-1,0-2-0.1-3-0.2c-1.4-0.2-2.8-0.6-4.1-1c-0.5-0.1-1-0.3-1.5-0.6
		c0.5,0.1,1,0.2,1.5,0.4c1.4,0.4,2.8,0.7,4.2,0.9c1,0.1,1.9,0.2,2.9,0.2c1.1,0,2.2-0.2,3.1-0.8c2-1.2,3.2-3.6,4.1-6.2
		c1.9-5.1,2.2-10.1,2.8-13.7c0.3-1.7,0.5-3.1,0.6-4.2C115.6,283.7,115.7,283.1,115.9,282.6z"/>
	<path class="st11" d="M181.1,341.6c0,0-2.1-20.5-6.9-22.8s-11.4-3.9-13.2-0.8c-2.3,3.9-3.8,8.1-4.5,12.5c-0.5,4.1-0.6,8.2-0.4,12.4
		l5.4-0.6c0,0-0.1-20.4,1.6-23.4s10.1-0.5,10.9,3.1s2.8,19.9,2.8,19.9L181.1,341.6z"/>
	<path class="st11" d="M199.9,370.6c-0.2-8.4-0.9-27-1.2-35.2c-0.1-2.2-1.9-4-4.1-4l-50.1-0.1c-2.2,0-4.1,1.8-4.2,4L139,370
		c-0.1,2.3,1.7,4.2,4,4.3c0,0,0.1,0,0.1,0l52.5,0.6c2.3,0,4.2-1.8,4.2-4.1C199.9,370.7,199.9,370.7,199.9,370.6z"/>
	<path class="st6" d="M143.7,344c0,0,0,0.1,0,0.4s0,0.6,0,1.1c0,1,0,2.5,0,4.3c0,3.8,0,9.2,0,16v1.3c0,0.5,0.1,0.9,0.3,1.3
		c0.2,0.4,0.6,0.8,1,1c0.4,0.2,0.9,0.3,1.4,0.2h5.7l12.6,0.1l14,0.1h7.4h3.8h1c0.3,0,0.7,0,1,0c0.7-0.2,1.3-0.6,1.6-1.3
		c0.1-0.3,0.2-0.6,0.2-0.9c0-0.3,0-0.5,0-0.8c0-0.5,0-1.1,0-1.6c0-1.1,0-2.2,0-3.2c0-2.2,0-4.3-0.1-6.4c-0.1-4.2-0.1-8.2-0.2-12.1
		v-0.2h-0.2c-14.4,0.8-26.8,0.9-35.5,0.9c-4.4,0-7.9-0.1-10.2-0.1h-2.7h-0.9h0.2h0.7l2.7,0.1c2.4,0.1,5.9,0.2,10.2,0.2
		c8.8,0.1,21.1,0,35.5-0.8l-0.2-0.2c0.1,3.9,0.1,7.9,0.1,12.1c0,2.1,0,4.2,0.1,6.4c0,1.1,0,2.2,0,3.3v1.6c0.1,0.5,0,1-0.2,1.5
		c-0.3,0.5-0.7,0.9-1.3,1c-0.3,0.1-0.6,0.1-0.9,0h-1h-3.8h-7.4l-14,0h-12.6h-5.7c-0.4,0-0.9,0-1.3-0.2c-0.4-0.2-0.7-0.5-0.9-0.8
		c-0.2-0.4-0.3-0.8-0.2-1.2c0-0.4,0-0.9,0-1.3c-0.1-6.7-0.1-12.1-0.1-15.9c0-1.9,0-3.3-0.1-4.4c0-0.5,0-0.9,0-1.1
		S143.7,344,143.7,344z"/>
	<path class="st6" d="M157.9,366.4c0,0-0.3,0-0.9-0.1c-0.8-0.2-1.6-0.6-2.2-1.2c-0.9-1-1.4-2.3-1.2-3.7c0-1.6,0-3.4,0-5.3
		c0-1,0-2,0-3.1c-0.1-1.1,0.2-2.2,0.9-3.1c0.7-0.9,1.8-1.5,3-1.5c1.2,0,2.5,0,3.8,0h17c1.5,0,2.8,0.8,3.6,2c0.4,0.6,0.6,1.3,0.6,2
		c0,0.7,0,1.4,0,2.1c0,1.4,0,2.8,0,4.2v2c0,0.7,0,1.3,0,2c-0.3,1.9-1.8,3.3-3.6,3.5c-0.6,0-1.2,0-1.8,0h-6.5l-9.4,0.1h-2.6h-0.7
		h-0.2h0.2h0.7h2.6h9.4h6.5c0.6,0,1.2,0,1.8,0c0.6-0.1,1.2-0.3,1.8-0.6c1.2-0.7,1.9-1.9,2.1-3.2c0.1-0.7,0.1-1.3,0.1-2v-2
		c0-1.4,0-2.8,0-4.2c0-0.7,0-1.4,0-2.2c0-0.8-0.2-1.5-0.6-2.2c-0.8-1.4-2.3-2.2-3.9-2.2h-17c-1.3,0-2.6,0-3.8,0
		c-1.3,0.1-2.4,0.7-3.2,1.7c-0.7,0.9-1.1,2.1-1,3.2c0,1.1,0,2.1,0,3.1c0,2,0,3.8,0,5.3c0,0.4,0,0.8,0,1.1c0,0.4,0.1,0.7,0.2,1
		c0.2,0.6,0.6,1.1,1,1.6c0.6,0.6,1.4,1,2.2,1.2C157.2,366.2,157.6,366.3,157.9,366.4z"/>
	<g class="st15">
		<path d="M192,369.6c-15,4.4-31,4.3-45.9-0.2L192,369.6z"/>
	</g>
	<path class="st3" d="M163.7,353.5h5.9c0.9,0,1.7-0.8,1.7-1.7l0,0c0-0.9-0.8-1.7-1.7-1.7c0,0,0,0,0,0h-5.9c-0.9,0-1.7,0.8-1.7,1.7
		l0,0C162,352.8,162.8,353.5,163.7,353.5C163.7,353.5,163.7,353.5,163.7,353.5z"/>
	<path class="st17" d="M162.6,312.1c-1,1-1.8,2.1-2.5,3.3c-0.6,1.3-1.5,6.9-1.5,6.9s1.1,0.8,2.7-2.2c0.8-1.4,1.5-2.9,2-4.5
		L162.6,312.1z"/>
	<path class="st17" d="M160.7,322.3l1.8-10.1l5.4-6.7l12.4,2.2l-2,12.3c0,0-2.9,4.9-3.9,5.7s-2.6-0.3-2.6-0.3
		c-1.2,1.3-3.7,0.2-3.7,0.2c-1.6,1.2-3.2-0.6-3.2-0.6s-2,1.2-2.8,1c-0.3-0.1-0.6-0.4-0.7-0.7C160.7,324.5,160.5,323.4,160.7,322.3z"
		/>
	<path class="st16" d="M173.1,323c-0.1-0.1-0.5,0.4-0.9,1.1s-0.6,1.2-0.5,1.3s0.5-0.4,0.9-1.1S173.3,323.1,173.1,323z"/>
	<path class="st16" d="M170,322.3c-0.1,0-0.5,0.8-1,1.8s-1,1.7-0.9,1.8s0.7-0.6,1.3-1.6C169.8,323.6,170,323,170,322.3z"/>
	<path class="st16" d="M166.3,321.9c-0.1,0-0.4,0.7-0.7,1.6s-0.7,1.6-0.6,1.7s0.6-0.6,1-1.5S166.4,321.9,166.3,321.9z"/>
	<path class="st16" d="M162,315.4c-0.5,1.2-0.8,2.5-0.9,3.8c-0.3,1.3-0.5,2.6-0.5,3.9c0.5-1.2,0.8-2.5,0.9-3.8
		C161.8,318,162,316.7,162,315.4z"/>
	<path class="st16" d="M173.7,321.1c-0.1,0,0,0.2,0.2,0.4c0.5,0.5,1.3,0.5,1.9,0c0.2-0.2,0.2-0.3,0.2-0.4s-0.5,0.3-1.1,0.3
		S173.8,321,173.7,321.1z"/>
	<path class="st16" d="M169.9,320.9c0,0,0,0.2,0.3,0.4c0.3,0.2,0.6,0.3,1,0.3c0.4,0,0.7-0.1,1-0.3c0.2-0.2,0.3-0.3,0.3-0.4
		s-0.6,0.2-1.3,0.2S170,320.8,169.9,320.9z"/>
	<path class="st16" d="M162.9,318.8c0-0.1-0.3,0.2-0.1,0.7c0.3,0.5,0.8,0.9,1.4,1c0.6,0.2,1.1,0.1,1.7,0c0.4-0.2,0.6-0.4,0.6-0.4
		c-0.7,0.1-1.4,0.1-2.1,0c-0.5-0.1-0.9-0.4-1.2-0.7C162.9,319,163,318.8,162.9,318.8z"/>
</g>
</svg>
