<?xml version="1.0" encoding="utf-8"?>
<!-- Generator: Adobe Illustrator 26.0.2, SVG Export Plug-In . SVG Version: 6.00 Build 0)  -->
<svg version="1.1" id="Layer_1" xmlns="http://www.w3.org/2000/svg" xmlns:xlink="http://www.w3.org/1999/xlink" x="0px" y="0px"
	 viewBox="0 0 500 500" style="enable-background:new 0 0 500 500;" xml:space="preserve">
<style type="text/css">
	.st0{fill:#E7EBF1;}
	.st1{fill:#FFFFFF;}
	.st2{fill:#F5F5F5;}
	.st3{fill:#EF3F3D;}
	.st4{opacity:0.2;fill:#EF3F3D;enable-background:new    ;}
	.st5{fill:#263238;}
	.st6{opacity:0.5;fill:#FFFFFF;enable-background:new    ;}
	.st7{opacity:0.2;fill:#FFFFFF;enable-background:new    ;}
	.st8{fill:#2F4B59;}
	.st9{opacity:0.7;fill:#FFFFFF;enable-background:new    ;}
	.st10{opacity:0.1;enable-background:new    ;}
	.st11{opacity:0.7;}
	.st12{opacity:0.2;}
	.st13{opacity:0.8;}
	.st14{opacity:0.3;}
	.st15{opacity:0.1;}
	.st16{fill:#EBC0BB;}
	.st17{opacity:0.3;enable-background:new    ;}
	.st18{fill:#EEC1BB;}
	.st19{opacity:0.2;enable-background:new    ;}
	.st20{fill:#D4827D;}
	.st21{fill:#A02724;}
	.st22{opacity:0.4;}
	.st23{opacity:0.1;fill:#FFFFFF;enable-background:new    ;}
	.st24{fill:#E4897B;}
	.st25{fill:#DE5753;}
	.st26{opacity:0.5;}
	.st27{fill:#E9B376;}
	.st28{opacity:0.6;}
	.st29{fill:#EBB376;}
	.st30{fill:#D58745;}
	.st31{opacity:0.6;fill:#FFFFFF;enable-background:new    ;}
</style>
<g id="freepik--background-complete--inject-30">
	<rect y="382.4" class="st0" width="500" height="0.2"/>
	<rect x="416.8" y="398.5" class="st0" width="33.1" height="0.2"/>
	<rect x="322.5" y="401.2" class="st0" width="8.7" height="0.2"/>
	<rect x="396.6" y="389.2" class="st0" width="19.2" height="0.2"/>
	<rect x="52.5" y="390.9" class="st0" width="43.2" height="0.2"/>
	<rect x="104.6" y="390.9" class="st0" width="6.3" height="0.2"/>
	<rect x="131.5" y="395.1" class="st0" width="93.7" height="0.2"/>
	<path class="st0" d="M237,337.8H43.9c-3.1,0-5.7-2.6-5.7-5.7V60.7c0-3.1,2.6-5.7,5.7-5.7H237c3.2,0,5.7,2.6,5.7,5.7c0,0,0,0,0,0
		v271.4C242.7,335.2,240.2,337.8,237,337.8z M43.9,55.2c-3,0-5.5,2.4-5.5,5.5v271.4c0,3,2.4,5.5,5.5,5.5H237c3,0,5.5-2.4,5.5-5.5
		V60.7c0-3-2.4-5.5-5.5-5.5H43.9z"/>
	<path class="st0" d="M453.3,337.8H260.2c-3.2,0-5.7-2.6-5.7-5.7V60.7c0-3.1,2.6-5.7,5.7-5.7h193.1c3.1,0,5.7,2.5,5.7,5.7v271.4
		C459,335.2,456.5,337.8,453.3,337.8z M260.2,55.2c-3,0-5.5,2.4-5.5,5.5v271.4c0,3,2.4,5.5,5.5,5.5h193.1c3,0,5.5-2.4,5.5-5.5V60.7
		c0-3-2.4-5.5-5.5-5.5H260.2z"/>
	<circle class="st0" cx="123.4" cy="108.3" r="20.9"/>
	<path class="st0" d="M127.6,103.1c0,2.3-1.9,4.2-4.2,4.2s-4.2-1.9-4.2-4.2c0-2.3,1.9-4.2,4.2-4.2
		C125.7,98.8,127.6,100.7,127.6,103.1L127.6,103.1z"/>
	<path class="st0" d="M131.6,117.8c0-6-3.7-10.8-8.2-10.8s-8.2,4.8-8.2,10.8H131.6z"/>
	<path class="st0" d="M137,87.4h6.2c1.4,0,2.6,1.2,2.6,2.6v6.2c0,1.4-1.2,2.6-2.6,2.6H137c-1.4,0-2.6-1.2-2.6-2.6V90
		C134.4,88.6,135.6,87.4,137,87.4z"/>
	<rect x="139.1" y="89.2" class="st0" width="2" height="7.8"/>
	<rect x="136.2" y="92.1" class="st0" width="7.8" height="2"/>
	<circle class="st0" cx="394" cy="357" r="20.9"/>
	<circle class="st1" cx="394" cy="351.8" r="4.2"/>
	<path class="st1" d="M402.2,366.4c0-6-3.7-10.8-8.2-10.8s-8.2,4.8-8.2,10.8H402.2z"/>
	<path class="st0" d="M101.3,349.4l-4.4-2l-1.2,2.2c-1.6-0.4-3.2-0.4-4.8-0.1l-1.1-2.2l-4.5,1.7l0.7,2.4c-1.4,0.9-2.6,2-3.5,3.3
		l-2.3-0.8l-2,4.4l2.2,1.2c-0.4,1.6-0.4,3.2-0.2,4.8l-2.2,1.1l1.7,4.5l2.4-0.7c0.9,1.4,2,2.6,3.3,3.5l-0.8,2.4l4.4,2l1.2-2.2
		c1.6,0.4,3.2,0.4,4.8,0.2l1.1,2.2l4.5-1.7l-0.7-2.4c1.4-0.9,2.6-2,3.5-3.3l2.4,0.8l2-4.4l-2.2-1.2c0.4-1.6,0.4-3.2,0.2-4.8l2.2-1.1
		l-1.7-4.5l-2.4,0.7c-0.9-1.4-2-2.6-3.3-3.5L101.3,349.4z M98.8,364.9c-1.5,3.3-5.4,4.7-8.6,3.2c-3.3-1.5-4.7-5.4-3.2-8.6
		c1.5-3.3,5.4-4.7,8.6-3.2C98.8,357.8,100.3,361.6,98.8,364.9C98.8,364.9,98.8,364.9,98.8,364.9z"/>
	<path class="st0" d="M85.1,333.1l-1.6,0.8l1.2,3.2l1.7-0.5c0.6,1,1.4,1.8,2.4,2.5l-0.6,1.7l3.2,1.4l0.9-1.5
		c1.1,0.3,2.3,0.3,3.5,0.1l0.8,1.6l3.2-1.2l-0.5-1.7c1-0.6,1.8-1.4,2.5-2.4l1.7,0.6l1.4-3.1l-1.6-0.9c0.3-1.1,0.3-2.3,0.1-3.5
		l1.6-0.8l-1.2-3.2l-1.7,0.5c-0.6-1-1.4-1.8-2.4-2.5l0.6-1.7l-3.2-1.4l-0.9,1.5c-1.1-0.3-2.3-0.3-3.5-0.1l-0.8-1.6l-3.2,1.2l0.5,1.7
		c-1,0.6-1.8,1.4-2.5,2.4l-1.7-0.6l-1.4,3.1l1.6,0.9C84.9,330.8,84.9,332,85.1,333.1z M96.2,327.4c2.4,1.1,3.4,3.8,2.3,6.2
		c-1.1,2.4-3.8,3.4-6.2,2.3c-2.4-1.1-3.4-3.8-2.3-6.2c0,0,0,0,0,0C91.1,327.4,93.8,326.4,96.2,327.4L96.2,327.4z"/>
	<path class="st0" d="M57.3,337.5c-0.3,1.4-0.3,2.8-0.1,4.1l-1.9,0.9l1.5,3.9l2.1-0.6c0.7,1.2,1.7,2.2,2.8,3l-0.7,2l3.8,1.7l1.1-1.9
		c1.4,0.3,2.8,0.3,4.1,0.1l0.9,1.9l3.9-1.5l-0.6-2.1c1.2-0.7,2.2-1.7,3-2.8l2,0.7l1.7-3.8l-1.8-1c0.3-1.4,0.3-2.8,0.1-4.1l1.9-0.9
		l-1.4-3.9l-2.1,0.6c-0.7-1.2-1.7-2.2-2.8-3l0.7-2l-3.8-1.7l-1.1,1.9c-1.4-0.3-2.8-0.3-4.1-0.1l-0.9-2l-3.9,1.5l0.6,2.1
		c-1.2,0.7-2.2,1.7-3,2.8l-2-0.7l-1.7,3.8L57.3,337.5z M70.5,334.8c2.8,1.3,4,4.6,2.8,7.4c-1.3,2.8-4.6,4-7.4,2.8
		c-2.8-1.3-4-4.6-2.8-7.4C64.3,334.8,67.7,333.5,70.5,334.8z"/>
	<path class="st0" d="M321.6,301.3c-4.4-0.1-7.9-3.7-7.9-8.1c0-2.2,1-4.3,2.6-5.8c0.8-0.7,0.9-1.9,0.2-2.7c-0.4-0.4-0.9-0.7-1.5-0.7
		h-28.4v-24.7l1.4,0.5c1.3,0.5,2.7,0.7,4.1,0.7c6.5,0,11.8-5.3,11.8-11.8c0-6.5-5.3-11.8-11.8-11.8c-1.4,0-2.8,0.2-4.1,0.7l-1.4,0.5
		V214H315c1.1,0,1.9-0.9,1.9-1.9c0-0.5-0.2-1.1-0.6-1.4c-1.7-1.5-2.7-3.7-2.7-6c0-4.4,3.6-7.9,7.9-7.9s7.9,3.6,7.9,7.9
		c0,2.3-1,4.5-2.7,6c-0.8,0.7-0.9,1.9-0.1,2.7c0.4,0.4,0.9,0.6,1.4,0.6h28.5v24.2l-1.3-0.5c-6.1-2.3-12.9,0.8-15.2,6.9
		c-2.3,6.1,0.8,12.9,6.9,15.2c2.7,1,5.6,1,8.3,0l1.3-0.5V284h-28.5c-1.1,0-1.9,0.8-1.9,1.9c0,0.6,0.2,1.1,0.7,1.5
		c1.7,1.5,2.7,3.7,2.7,6C329.5,297.8,326,301.3,321.6,301.3z"/>
	<path class="st0" d="M258.1,284l0.5-1.4c2.3-6.1-0.8-12.9-7-15.2c-6.1-2.3-12.9,0.8-15.2,7c-0.5,1.3-0.7,2.7-0.7,4.1
		c0,1.4,0.2,2.8,0.7,4.1l0.5,1.4h-24.2v-28.7c0-0.8-0.5-1.5-1.2-1.8c-0.2-0.1-0.5-0.1-0.7-0.1c-0.5,0-1.1,0.2-1.4,0.6
		c-2.9,3.3-7.9,3.6-11.2,0.7c-3.3-2.9-3.6-7.9-0.7-11.2c2.9-3.3,7.9-3.6,11.2-0.7c0.2,0.2,0.5,0.4,0.7,0.7c0.4,0.4,0.9,0.6,1.4,0.6
		c0.2,0,0.5,0,0.7-0.1c0.8-0.3,1.2-1,1.2-1.8V214h24.2l-0.5,1.4c-2.3,6.1,0.9,12.9,7,15.2c1.3,0.5,2.7,0.7,4.1,0.7
		c6.5,0,11.8-5.3,11.8-11.8c0-1.4-0.2-2.8-0.7-4.1l-0.5-1.4h24.7v28.2c0,0.8,0.5,1.5,1.2,1.8c0.2,0.1,0.5,0.1,0.7,0.1
		c0.6,0,1.1-0.2,1.5-0.7c2.9-3.3,7.9-3.6,11.2-0.7s3.6,7.9,0.7,11.2s-7.9,3.6-11.2,0.7c-0.2-0.2-0.4-0.4-0.7-0.7
		c-0.7-0.8-1.9-0.9-2.7-0.2c-0.4,0.4-0.6,0.9-0.7,1.4V284H258.1z"/>
	<path class="st0" d="M332.2,358l0.5-1.4c2.3-6.1-0.8-12.9-7-15.2c-6.1-2.3-12.9,0.8-15.2,7c-1,2.7-1,5.6,0,8.2l0.5,1.4h-24.3v-28.6
		c0-0.8-0.5-1.5-1.2-1.8c-0.2-0.1-0.5-0.1-0.7-0.1c-0.6,0-1.1,0.2-1.5,0.6c-1.5,1.7-3.7,2.7-6,2.7c-4.4,0-7.9-3.5-7.9-7.9
		c0-4.4,3.5-7.9,7.9-7.9c2.3,0,4.5,1,6,2.7c0.4,0.4,0.9,0.7,1.5,0.7c0.2,0,0.4,0,0.7-0.1c0.8-0.3,1.3-1,1.3-1.8v-28.4H311l-0.5,1.4
		c-2.3,6.1,0.8,12.9,7,15.2c6.1,2.3,12.9-0.8,15.2-7c1-2.7,1-5.6,0-8.2l-0.5-1.4h24.5v28.4c0,0.8,0.5,1.5,1.3,1.8
		c0.2,0.1,0.4,0.1,0.7,0.1c0.6,0,1.1-0.2,1.5-0.6c2.9-3.3,7.9-3.6,11.2-0.7c3.3,2.9,3.6,7.9,0.7,11.2c-1.5,1.7-3.7,2.7-5.9,2.7
		c-2.3,0-4.5-1-6-2.7c-0.4-0.4-0.9-0.6-1.5-0.6c-0.2,0-0.5,0-0.7,0.1c-0.7,0.3-1.2,1-1.2,1.8V358H332.2z"/>
	<path class="st0" d="M247.5,227.4c-4.4,0-7.9-3.5-7.9-7.9c0-2.3,1-4.5,2.7-6c0.8-0.7,0.8-2,0.1-2.7c-0.4-0.4-0.9-0.6-1.4-0.6h-28.2
		v-24.9l1.4,0.5c1.3,0.5,2.7,0.7,4.1,0.7c6.5,0,11.8-5.3,11.8-11.8c0-6.5-5.3-11.8-11.8-11.8c-1.4,0-2.8,0.3-4.1,0.7l-1.4,0.5V140
		h28.2c1.1,0,1.9-0.9,2-1.9c0-0.6-0.2-1.1-0.6-1.5c-1.7-1.5-2.7-3.7-2.7-6c0-4.4,3.6-7.9,8-7.9c4.4,0,7.9,3.6,7.9,8
		c0,2.3-1,4.4-2.7,5.9c-0.8,0.7-0.9,1.9-0.1,2.7c0.4,0.4,0.9,0.6,1.4,0.6h28.8v24.1l-1.4-0.5c-6.1-2.3-12.9,0.8-15.2,6.9
		s0.8,12.9,6.9,15.2c1.3,0.5,2.7,0.7,4.1,0.7c1.4,0,2.8-0.2,4.1-0.7l1.4-0.5v24.9H254c-0.8,0-1.5,0.5-1.8,1.2
		c-0.3,0.8-0.1,1.6,0.5,2.1c3.3,2.9,3.6,7.9,0.7,11.2C251.9,226.4,249.7,227.3,247.5,227.4L247.5,227.4z"/>
	<path class="st0" d="M315.1,145.9c-0.2-0.8-0.8-1.3-1.6-1.5h-0.3c-0.7,0-1.3,0.4-1.7,1c-1.1,2-3,3.4-5.2,4
		c-0.6,0.2-1.3,0.2-1.9,0.2c-4.4,0.1-8-3.4-8.1-7.8c-0.1-3.8,2.5-7.1,6.2-7.9c2.2-0.5,4.6-0.1,6.5,1.2c0.3,0.2,0.7,0.3,1.1,0.3
		c0.4,0,0.8-0.1,1.1-0.4c0.7-0.5,1-1.3,0.8-2.1l-6.7-27.3l23.6-5.9l-0.2,1.4c-0.2,1.4-0.1,2.8,0.3,4.2c1.3,5.3,6,9,11.5,9
		c6.5,0,11.8-5.3,11.8-11.8c0-0.9-0.1-1.9-0.3-2.8c-0.3-1.4-0.9-2.7-1.7-3.8l-0.8-1.2l23.8-5.9l6.7,27.3c0.2,0.8,0.9,1.3,1.6,1.5
		h0.3c0.7,0,1.3-0.4,1.7-1c1.1-2,2.9-3.5,5.2-4c0.6-0.2,1.3-0.2,1.9-0.2c4.4,0,7.9,3.5,7.9,7.9c0,3.7-2.5,6.9-6.1,7.7
		c-0.6,0.2-1.3,0.2-1.9,0.2c-1.6,0-3.2-0.5-4.5-1.4c-0.3-0.2-0.7-0.3-1.1-0.3c-1.1,0-1.9,0.9-1.9,1.9c0,0.2,0,0.3,0.1,0.5l6.9,28
		l-23.8,5.9l0.2-1.4c0.7-6.5-3.9-12.3-10.4-13.1c-6.5-0.7-12.3,3.9-13.1,10.4c-0.3,2.8,0.4,5.7,2,8l0.8,1.2l-23.7,5.8L315.1,145.9z"
		/>
	<path class="st0" d="M184,210.1l0.5-1.4c0.5-1.3,0.8-2.7,0.8-4.1c0-6.5-5.3-11.8-11.8-11.8c-6.5,0-11.8,5.3-11.8,11.8
		c0,1.4,0.3,2.8,0.8,4.1l0.5,1.4h-24.1v-28.9c0-0.8-0.5-1.5-1.2-1.8c-0.2-0.1-0.5-0.1-0.7-0.1c-0.5,0-1.1,0.2-1.4,0.6
		c-1.5,1.7-3.7,2.7-6,2.6c-4.4,0-7.9-3.6-7.9-8c0-4.4,3.6-7.9,8-7.9c2.3,0,4.4,1,5.9,2.7c0.4,0.4,0.9,0.6,1.4,0.6
		c0.2,0,0.5,0,0.7-0.1c0.7-0.3,1.2-1,1.2-1.8V140h24.1l-0.5,1.4c-0.5,1.3-0.8,2.7-0.8,4.1c0,6.5,5.3,11.8,11.8,11.8
		c6.5,0,11.8-5.3,11.8-11.8c0-1.4-0.3-2.8-0.8-4.1L184,140h24.9v28.1c0,0.8,0.5,1.5,1.2,1.8c0.2,0.1,0.5,0.1,0.7,0.1
		c0.6,0,1.1-0.2,1.4-0.6c2.9-3.3,7.9-3.6,11.2-0.7c3.3,2.9,3.6,7.9,0.7,11.2c-1.5,1.7-3.7,2.7-5.9,2.7c-2.3,0-4.5-1-6-2.6
		c-0.4-0.4-0.9-0.6-1.4-0.6c-0.2,0-0.5,0-0.7,0.1c-0.7,0.3-1.2,1-1.2,1.8v28.9L184,210.1z"/>
	<path class="st0" d="M173.4,301.3c-4.4,0-7.9-3.6-7.9-7.9c0-2.3,1-4.4,2.7-6c0.8-0.7,0.9-1.9,0.2-2.7c-0.4-0.4-0.9-0.7-1.5-0.7
		h-28.1v-24.7l1.4,0.5c6.1,2.3,12.9-0.8,15.2-6.9s-0.8-12.9-6.9-15.2c-2.7-1-5.6-1-8.3,0l-1.4,0.5V214h28.1c1.1,0,1.9-0.9,1.9-1.9
		c0-0.6-0.2-1.1-0.7-1.5c-3.3-2.9-3.6-7.9-0.7-11.2c2.9-3.3,7.9-3.6,11.2-0.7c1.7,1.5,2.7,3.6,2.7,5.9c0,2.3-1,4.5-2.7,6
		c-0.8,0.7-0.9,1.9-0.2,2.7c0.4,0.4,0.9,0.7,1.5,0.7h28.9v24.2l-1.3-0.5c-6.1-2.3-12.9,0.8-15.2,6.9c-2.3,6.1,0.8,12.9,6.9,15.2
		c2.7,1,5.6,1,8.3,0l1.3-0.5V284h-28.9c-1.1,0-1.9,0.9-1.9,1.9c0,0.5,0.2,1.1,0.6,1.4c1.7,1.5,2.7,3.7,2.7,6
		C181.3,297.8,177.8,301.3,173.4,301.3z"/>
	<path class="st0" d="M184,358l0.5-1.4c0.5-1.3,0.8-2.7,0.8-4.1c0-6.5-5.3-11.8-11.8-11.8c-6.5,0-11.8,5.3-11.8,11.8
		c0,1.4,0.3,2.8,0.8,4.1l0.5,1.4h-24.1v-28.6c0-0.8-0.5-1.5-1.2-1.8c-0.2-0.1-0.5-0.1-0.7-0.1c-0.5,0-1.1,0.2-1.4,0.6
		c-2.9,3.3-7.9,3.6-11.2,0.7c-3.3-2.9-3.6-7.9-0.7-11.2c1.5-1.7,3.6-2.7,5.9-2.7c2.3,0,4.5,1,6,2.7c0.4,0.4,0.9,0.7,1.5,0.7
		c0.2,0,0.5,0,0.7-0.1c0.8-0.3,1.2-1,1.2-1.8v-28.4h24.1l-0.5,1.4c-0.5,1.3-0.8,2.7-0.8,4.1c0,6.5,5.3,11.8,11.8,11.8
		c6.5,0,11.8-5.3,11.8-11.8l0,0c0-1.4-0.3-2.8-0.8-4.1l-0.5-1.4h24.9v28.4c0,0.8,0.5,1.5,1.3,1.8c0.2,0.1,0.4,0.1,0.7,0.1
		c0.6,0,1.1-0.2,1.4-0.6c2.9-3.3,7.9-3.6,11.2-0.7s3.6,7.9,0.7,11.2c-2.9,3.3-7.9,3.6-11.2,0.7c-0.3-0.2-0.5-0.5-0.7-0.7
		c-0.4-0.4-0.9-0.6-1.4-0.6c-0.2,0-0.5,0-0.7,0.1c-0.7,0.3-1.2,1-1.2,1.8V358H184z"/>
	<path class="st0" d="M247.5,375.3c-4.4,0-7.9-3.6-7.9-7.9c0-2.3,1-4.5,2.7-6c0.6-0.5,0.8-1.4,0.5-2.1c-0.3-0.7-1-1.2-1.8-1.2h-28.2
		v-24.5l1.4,0.5c1.3,0.5,2.7,0.8,4.1,0.8c6.5,0,11.8-5.3,11.8-11.8c0-6.5-5.3-11.8-11.8-11.8c-1.4,0-2.8,0.3-4.1,0.7l-1.4,0.5v-24.4
		h28.2c1.1,0,1.9-0.9,2-1.9c0-0.6-0.2-1.1-0.6-1.5c-1.7-1.5-2.7-3.7-2.7-6c0-4.4,3.6-7.9,8-7.9c4.4,0,7.9,3.6,7.9,8
		c0,2.3-1,4.4-2.7,5.9c-0.6,0.5-0.8,1.4-0.5,2.1c0.3,0.8,1,1.3,1.8,1.2h28.8v24.4l-1.4-0.5c-6.1-2.3-12.9,0.8-15.2,7
		c-2.3,6.1,0.8,12.9,7,15.2c1.3,0.5,2.7,0.7,4.1,0.7c1.4,0,2.8-0.3,4.1-0.8l1.4-0.5V358H254c-1.1,0-1.9,0.9-1.9,1.9
		c0,0.6,0.2,1.1,0.7,1.5c3.3,3,3.5,8,0.5,11.3C251.7,374.3,249.6,375.3,247.5,375.3L247.5,375.3z"/>
	<path class="st0" d="M67.3,199.5l12.7-2c2.9-0.5,5.6,1.5,6.1,4.4l2,12.7c0.5,2.9-1.5,5.6-4.4,6.1l-12.7,2c-2.9,0.5-5.6-1.5-6.1-4.4
		l-2-12.7C62.4,202.7,64.4,200,67.3,199.5z"/>
	
		<rect x="73.4" y="202.1" transform="matrix(0.9875 -0.1576 0.1576 0.9875 -32.178 14.5305)" class="st0" width="4.1" height="16.1"/>
	
		<rect x="67.5" y="208.1" transform="matrix(0.9875 -0.1576 0.1576 0.9875 -32.1798 14.5275)" class="st0" width="16.1" height="4.1"/>
	<path class="st0" d="M396.1,228.2l-4.4-2l-1.2,2.2c-1.6-0.4-3.2-0.4-4.8-0.1l-1.1-2.3l-4.5,1.7l0.7,2.4c-1.4,0.9-2.6,2-3.5,3.3
		l-2.4-0.8l-2,4.4l2.2,1.2c-0.4,1.6-0.4,3.2-0.1,4.8l-2.2,1.1l1.7,4.5l2.4-0.7c0.9,1.4,2,2.6,3.3,3.5l-0.8,2.4l4.4,2l1.2-2.2
		c1.6,0.4,3.2,0.4,4.8,0.2l1.1,2.2l4.5-1.7l-0.7-2.4c1.4-0.9,2.6-2,3.5-3.3l2.4,0.8l2-4.4l-2.2-1.2c0.4-1.6,0.4-3.2,0.2-4.8l2.2-1.1
		l-1.7-4.5l-2.4,0.7c-0.9-1.4-2-2.6-3.3-3.5L396.1,228.2z M393.6,243.8c-1.5,3.3-5.4,4.7-8.6,3.2c-3.3-1.5-4.7-5.4-3.2-8.6
		c1.5-3.3,5.4-4.7,8.6-3.2c0,0,0,0,0,0C393.7,236.6,395.1,240.5,393.6,243.8C393.6,243.7,393.6,243.7,393.6,243.8L393.6,243.8z"/>
</g>
<g id="freepik--Shadow--inject-30">
	<ellipse id="freepik--path--inject-30" class="st2" cx="250" cy="416.2" rx="193.9" ry="11.3"/>
</g>
<g id="freepik--Plant--inject-30">
	<path class="st3" d="M340.9,386.6c0-0.3-1.1-32.6-6.3-37.7c-5-4.9-10.9-0.2-11.1,0l-0.6-0.8c0.1-0.1,6.8-5.5,12.5,0
		c5.5,5.4,6.6,37.1,6.6,38.4L340.9,386.6z"/>
	<path class="st3" d="M341.3,393c-0.1-1.6-3.6-38.9,10.5-55l0.8,0.7c-13.8,15.8-10.3,53.9-10.2,54.3L341.3,393z"/>
	<path class="st3" d="M341,388.9l-1-0.1c0-0.4,2.8-43.7-7.5-53.1l0.7-0.7C343.7,344.8,341.1,387.1,341,388.9z"/>
	<path class="st3" d="M342.3,388.9h-1c0-1.2,0.3-29.3,8.4-33.9c1.6-1,3.5-1.2,5.2-0.5c4.9,2,7.2,10.6,7.4,11l-1,0.3
		c0-0.1-2.4-8.5-6.8-10.3c-1.4-0.6-3.1-0.4-4.4,0.5C342.6,360.2,342.3,388.6,342.3,388.9z"/>
	<path class="st3" d="M339.2,388.9l-1-0.1c0-0.2,1.2-22.1-4.7-29.8c-1.4-1.8-3-2.7-4.6-2.6c-3.8,0.3-7.1,5.9-7.1,6l-0.9-0.5
		c0.1-0.2,3.5-6.2,7.9-6.5c2-0.1,3.8,0.9,5.4,3C340.4,366.4,339.2,388,339.2,388.9z"/>
	<path class="st3" d="M340.3,391.9c-0.2-2.1-3.9-52.2,2.7-61.1l0.8,0.6c-6.3,8.5-2.5,59.9-2.5,60.4L340.3,391.9z"/>
	<path class="st3" d="M356.6,359.7c0,0-3.9,1.4-2.8,4.9s13.5,9,13.5,9s5.2-4.8,0.4-12.5S356.7,357.2,356.6,359.7z"/>
	<path class="st4" d="M356.6,359.7c0,0-3.9,1.4-2.8,4.9s13.5,9,13.5,9s5.2-4.8,0.4-12.5S356.7,357.2,356.6,359.7z"/>
	<path class="st3" d="M339.6,353.2c0,0,4.2-0.2,4.4,3.4s-9,13.5-9,13.5s-6.6-2.4-5.2-11.4S338.6,351,339.6,353.2z"/>
	<path class="st4" d="M339.6,353.2c0,0,4.2-0.2,4.4,3.4s-9,13.5-9,13.5s-6.6-2.4-5.2-11.4S338.6,351,339.6,353.2z"/>
	<path class="st3" d="M336.1,336c0,0,2.8-0.3,2.6-2s-10.8-6-17,1c0,0,4,6.9,9.8,7S336.1,336,336.1,336z"/>
	<path class="st4" d="M336.1,336c0,0,2.8-0.3,2.6-2s-10.8-6-17,1c0,0,4,6.9,9.8,7S336.1,336,336.1,336z"/>
	<path class="st3" d="M341.2,331.9c0,0-2.5,1.2-3.2-0.3s6-10.9,15-8.2c0,0,0.2,7.9-4.6,11.1S341.2,331.9,341.2,331.9z"/>
	<path class="st4" d="M341.2,331.9c0,0-2.5,1.2-3.2-0.3s6-10.9,15-8.2c0,0,0.2,7.9-4.6,11.1S341.2,331.9,341.2,331.9z"/>
	<path class="st3" d="M328.1,358.3c0,0,1.9-1.5-0.1-2.3s-12.2-0.5-12.3,9.5c0,0,11.8,2,13.3-1.9S328.1,358.3,328.1,358.3z"/>
	<path class="st4" d="M328.1,358.3c0,0,1.9-1.5-0.1-2.3s-12.2-0.5-12.3,9.5c0,0,11.8,2,13.3-1.9S328.1,358.3,328.1,358.3z"/>
	<path class="st3" d="M352.2,335.7c0,0-1.9-1.5,0.1-2.3s12.2-0.5,12.3,9.5c0,0-11.8,2-13.3-1.9S352.2,335.7,352.2,335.7z"/>
	<path class="st4" d="M352.2,335.7c0,0-1.9-1.5,0.1-2.3s12.2-0.5,12.3,9.5c0,0-11.8,2-13.3-1.9S352.2,335.7,352.2,335.7z"/>
	<path class="st3" d="M346,343.8c0,0-0.2-1.9,1.4-1.1s6.8,6.5,1.3,11.9c0,0-7.4-5.5-6.1-8.3S346,343.8,346,343.8z"/>
	<path class="st4" d="M346,343.8c0,0-0.2-1.9,1.4-1.1s6.8,6.5,1.3,11.9c0,0-7.4-5.5-6.1-8.3S346,343.8,346,343.8z"/>
	<path class="st3" d="M326.4,346.5c0,0,1.1-1.5-0.5-1.7s-9.2,1.8-7.5,9.3c0,0,9.2-0.7,9.6-3.8S326.4,346.5,326.4,346.5z"/>
	<path class="st4" d="M326.4,346.5c0,0,1.1-1.5-0.5-1.7s-9.2,1.8-7.5,9.3c0,0,9.2-0.7,9.6-3.8S326.4,346.5,326.4,346.5z"/>
	<polygon class="st5" points="357.4,416.8 325.9,416.8 322.5,382.3 360.8,382.3 	"/>
	<polygon class="st6" points="357.4,416.8 325.9,416.8 322.5,382.3 360.8,382.3 	"/>
	<rect x="320.8" y="378.5" class="st5" width="41.6" height="7.6"/>
	<rect x="320.8" y="378.5" class="st7" width="41.6" height="7.6"/>
</g>
<g id="freepik--Sheets--inject-30">
	<polygon class="st8" points="183,401.7 183,402.8 186.9,404.3 183,404.3 183,407 186.3,407 189.9,409.3 187.2,409.3 190.7,411.3 
		187.2,411.3 187.2,416.6 124.8,416.6 124.8,413.7 122.5,411.3 125.3,411.3 125.3,404.8 120.2,404.8 120.2,402.6 117.7,402.6 
		117.7,401.7 	"/>
	<polygon class="st9" points="183,401.7 183,402.8 186.9,404.3 183,404.3 183,407 186.3,407 189.9,409.3 187.2,409.3 190.7,411.3 
		187.2,411.3 187.2,416.6 124.8,416.6 124.8,413.7 122.5,411.3 125.3,411.3 125.3,404.8 120.2,404.8 120.2,402.6 117.7,402.6 
		117.7,401.7 	"/>
	<polygon class="st10" points="183,401.7 183,402.8 186.9,404.3 183,404.3 183,407 186.3,407 189.9,409.3 187.2,409.3 190.7,411.3 
		187.2,411.3 187.2,416.6 153.2,416.6 153.2,413.7 150.9,411.3 153.8,411.3 153.8,404.8 148.7,404.8 148.7,402.6 146.1,402.6 
		146.1,401.7 	"/>
	<polygon class="st10" points="125.3,404.8 153.8,404.8 153.9,406.8 	"/>
	<polygon class="st10" points="120.2,402.6 148.7,402.6 120.2,403.6 	"/>
	<polygon class="st10" points="125.3,411.3 153.8,411.3 125.3,410.3 	"/>
	<polygon class="st10" points="124.8,413.7 153.2,413.7 153.2,414.8 	"/>
	<polygon class="st10" points="183,402.8 153.8,402.6 183,401.9 	"/>
	<polygon class="st10" points="183,404.3 153.2,404.3 183,405.3 	"/>
	<polygon class="st10" points="187.2,409.3 154.2,409.3 154.2,410.3 	"/>
	<polygon class="st10" points="187.2,411.3 163.3,411.3 187.2,412 	"/>
	<polygon class="st8" points="188.8,387 188.8,388.1 192.7,389.6 188.8,389.6 188.8,392.3 192.2,392.3 195.7,394.6 193.1,394.6 
		196.6,396.6 193.1,396.6 193.1,401.9 130.7,401.9 130.7,399 128.3,396.6 131.2,396.6 131.2,390.1 126.1,390.1 126.1,387.9 
		123.5,387.9 123.5,387 	"/>
	<polygon class="st9" points="188.8,387 188.8,388.1 192.7,389.6 188.8,389.6 188.8,392.3 192.2,392.3 195.7,394.6 193.1,394.6 
		196.6,396.6 193.1,396.6 193.1,401.9 130.7,401.9 130.7,399 128.3,396.6 131.2,396.6 131.2,390.1 126.1,390.1 126.1,387.9 
		123.5,387.9 123.5,387 	"/>
	<polygon class="st10" points="188.8,387 188.8,388.1 192.7,389.6 188.8,389.6 188.8,392.3 192.2,392.3 195.7,394.6 193.1,394.6 
		196.6,396.6 193.1,396.6 193.1,401.9 159.1,401.9 159.1,399 156.8,396.6 159.6,396.6 159.6,390.1 154.5,390.1 154.5,387.9 
		151.9,387.9 151.9,387 	"/>
	<polygon class="st10" points="131.2,390.1 159.6,390.1 159.7,392 	"/>
	<polygon class="st10" points="126.1,387.9 154.5,387.9 126.1,388.9 	"/>
	<polygon class="st10" points="131.2,396.6 159.6,396.6 131.2,395.6 	"/>
	<polygon class="st10" points="130.7,399 159.1,399 159.1,400 	"/>
	<polygon class="st10" points="188.8,388.1 159.6,387.9 188.8,387.2 	"/>
	<polygon class="st10" points="188.8,389.6 159.1,389.6 188.8,390.6 	"/>
	<polygon class="st10" points="193.1,394.6 160.1,394.6 160.1,395.6 	"/>
	<polygon class="st10" points="193.1,396.6 169.1,396.6 193.1,397.3 	"/>
</g>
<g id="freepik--office-tools--inject-30">
	
		<rect x="186.5" y="373.8" transform="matrix(0.9885 -0.1509 0.1509 0.9885 -56.8969 32.9764)" class="st8" width="4.6" height="35.1"/>
	<g class="st11">
		
			<rect x="186.5" y="373.8" transform="matrix(0.9885 -0.1509 0.1509 0.9885 -56.8969 32.9764)" class="st1" width="4.6" height="35.1"/>
	</g>
	<g class="st12">
		<rect x="184" y="375.1" transform="matrix(0.9885 -0.1509 0.1509 0.9885 -54.5154 32.1704)" width="1.3" height="0.4"/>
		<rect x="184.2" y="376.1" transform="matrix(0.9885 -0.1513 0.1513 0.9885 -54.7889 32.2937)" width="1.3" height="0.4"/>
		<rect x="184.4" y="377.1" transform="matrix(0.9885 -0.1513 0.1513 0.9885 -54.9425 32.3322)" width="1.3" height="0.4"/>
		<rect x="184.5" y="378.2" transform="matrix(0.9885 -0.1509 0.1509 0.9885 -54.9811 32.2778)" width="1.3" height="0.4"/>
		<rect x="184.7" y="379.2" transform="matrix(0.9885 -0.1509 0.1509 0.9885 -55.1382 32.3151)" width="1.3" height="0.4"/>
		<rect x="184.9" y="380.3" transform="matrix(0.9885 -0.1509 0.1509 0.9885 -55.293 32.3535)" width="1.3" height="0.4"/>
		<rect x="185" y="381.3" transform="matrix(0.9885 -0.1509 0.1509 0.9885 -55.4482 32.3872)" width="1.3" height="0.4"/>
		<rect x="185.2" y="382.3" transform="matrix(0.9885 -0.1511 0.1511 0.9885 -55.6596 32.472)" width="1.3" height="0.4"/>
		<rect x="185.2" y="384.1" transform="matrix(0.9887 -0.1498 0.1498 0.9887 -55.473 32.1842)" width="1.3" height="0.4"/>
		<rect x="185.5" y="384.4" transform="matrix(0.9885 -0.1513 0.1513 0.9885 -56.0346 32.5812)" width="1.3" height="0.4"/>
		<rect x="185.6" y="385.5" transform="matrix(0.9885 -0.1509 0.1509 0.9885 -56.0698 32.5303)" width="1.3" height="0.4"/>
		<rect x="185.8" y="386.5" transform="matrix(0.9885 -0.1509 0.1509 0.9885 -56.2247 32.5672)" width="1.3" height="0.4"/>
		<rect x="185.9" y="387.6" transform="matrix(0.9885 -0.1509 0.1509 0.9885 -56.3814 32.601)" width="1.3" height="0.4"/>
		<rect x="186.1" y="388.6" transform="matrix(0.9885 -0.1509 0.1509 0.9885 -56.5355 32.6378)" width="1.3" height="0.4"/>
		<rect x="186.3" y="389.6" transform="matrix(0.9885 -0.1509 0.1509 0.9885 -56.6903 32.6763)" width="1.3" height="0.4"/>
		<rect x="186.4" y="390.7" transform="matrix(0.9885 -0.1509 0.1509 0.9885 -56.8469 32.7103)" width="1.3" height="0.4"/>
		<rect x="186.4" y="392.6" transform="matrix(0.9887 -0.1498 0.1498 0.9887 -56.7227 32.4527)" width="1.3" height="0.4"/>
		<rect x="186.8" y="392.8" transform="matrix(0.9885 -0.1509 0.1509 0.9885 -57.1574 32.7841)" width="1.3" height="0.4"/>
		<rect x="186.9" y="393.8" transform="matrix(0.9885 -0.1509 0.1509 0.9885 -57.3126 32.8178)" width="1.3" height="0.4"/>
		<rect x="187.1" y="394.9" transform="matrix(0.9885 -0.1509 0.1509 0.9885 -57.4682 32.8546)" width="1.3" height="0.4"/>
		<rect x="187.1" y="396.6" transform="matrix(0.9887 -0.1498 0.1498 0.9887 -57.3284 32.6098)" width="1.3" height="0.4"/>
		<rect x="187.4" y="397" transform="matrix(0.9885 -0.1509 0.1509 0.9885 -57.7801 32.9241)" width="1.3" height="0.4"/>
		<rect x="187.5" y="398" transform="matrix(0.9885 -0.1509 0.1509 0.9885 -57.9357 32.961)" width="1.3" height="0.4"/>
		<rect x="187.7" y="399" transform="matrix(0.9885 -0.1513 0.1513 0.9885 -58.2141 33.0894)" width="1.3" height="0.4"/>
	</g>
	<rect x="193.3" y="379.2" class="st8" width="1.8" height="23.3"/>
	<polygon class="st8" points="194.9,376.6 193.4,376.6 193.3,379.2 195,379.2 	"/>
	<g class="st13">
		<polygon class="st1" points="194.9,376.6 193.4,376.6 193.3,379.2 195,379.2 		"/>
	</g>
	<g class="st14">
		<rect x="193.3" y="379.2" width="1.8" height="23.3"/>
	</g>
	
		<rect x="190" y="392.7" transform="matrix(0.1265 -0.992 0.992 0.1265 -214.0187 543.823)" class="st5" width="23.6" height="1.6"/>
	<path class="st5" d="M204.8,379.9l-0.5-0.5l0.1-3.1l-1-0.1l-1.2,5.5l0.1,1.2l1.5,0.2l0.2-0.6l-0.3,4.1h0.2
		C204.4,384.3,204.7,382.1,204.8,379.9z"/>
	<g class="st15">
		<path class="st1" d="M204.8,379.9l-0.5-0.5l0.1-3.1l-1-0.1l-1.2,5.5l0.1,1.2l1.5,0.2l0.2-0.6l-0.3,4.1h0.2
			C204.4,384.3,204.7,382.1,204.8,379.9z"/>
	</g>
	<polygon class="st5" points="201.4,387.3 196.6,387.5 196.7,382.7 200.7,382.5 	"/>
	<polygon class="st8" points="201.4,387.3 196.6,387.5 197.7,400.6 201.6,400.4 	"/>
	<polygon class="st5" points="203.2,394 185.3,394 186.8,416.8 201.8,416.8 	"/>
	<rect x="185.1" y="393.1" class="st5" width="18.4" height="2.3"/>
	<g class="st12">
		<rect x="185.1" y="393.1" class="st1" width="18.4" height="2.3"/>
	</g>
</g>
<g id="freepik--character-5--inject-30">
	<rect x="323.6" y="197.1" class="st8" width="95.9" height="95.9"/>
	<rect x="323.6" y="197.1" class="st9" width="95.9" height="95.9"/>
	<rect x="328.4" y="201.9" class="st9" width="86.3" height="86.3"/>
	<path class="st16" d="M363.1,260.4c-0.6,0.6-1,1.1-1.5,1.6s-1,1-1.5,1.4c-1,0.9-2,1.8-3.1,2.7c-2.1,1.7-4.4,3.3-6.8,4.7
		c-2.4,1.5-5,2.7-7.6,3.6c-2.8,1.1-5.8,1.7-8.7,1.9h-1.2c-0.6,0-1.3-0.1-1.9-0.2c-1.2-0.2-2.3-0.7-3.4-1.4c-1.6-1.1-2.9-2.5-3.8-4.2
		c-1.4-2.6-2.4-5.4-3-8.2c-1.1-5.2-1.5-10.5-1.3-15.9l5.1-0.3c0.9,4.8,2.1,9.4,3.7,14c0.7,2,1.6,3.9,2.8,5.7
		c0.3,0.5,0.8,0.9,1.4,1.2c0.1,0,0.1,0,0.1,0l0,0l0.7-0.1c3.9-0.5,8-2.4,11.8-4.9c1.9-1.3,3.8-2.6,5.6-4.1c0.9-0.7,1.8-1.5,2.7-2.3
		l1.3-1.2l1.2-1.1L363.1,260.4z"/>
	<path class="st5" d="M339.9,263.2l5.5,12.2c0,0,0.6-0.2,1.6-0.5l2.7-1c6.1-2.4,15.9-7.6,18.2-11.5c3.4-5.9-2.3-10.2-12.6-7.9
		c-4.4,1-8.4,4.4-11.4,6.3c-1,0.6-1.8,1.1-2.5,1.6C340.5,262.8,339.9,263.2,339.9,263.2z"/>
	<path class="st17" d="M367.6,263c-1.4-2.6-4.9,0.2-10.8,0.9c-2.6,0.3-11.7,7-12.4,9.1l1.1,2.4C345.4,275.4,364.4,268.9,367.6,263z"
		/>
	<path class="st18" d="M324.5,248.1l1.4-7.7l-7.4,1.1c0,0-0.1,7.4,2.1,7.9L324.5,248.1z"/>
	<polygon class="st18" points="321.5,234.9 316.5,237.1 318.4,241.6 325.8,240.4 	"/>
	<path class="st5" d="M396,256.6c-0.2,0.7-0.4,1.4-0.7,2.1c-2.8,9.6-4.7,19.4-5.8,29.3v0.2h-38.7c1.4-22.6,7.5-34.2,7.5-34.2
		s1.4-0.3,3.8-0.6c1.9-0.2,4.2-0.4,6.6-0.5c5.1,0.1,10.3,0.5,15.4,1.2c2.7,0.3,5.4,0.9,7.5,1.4C394.2,256,396,256.6,396,256.6z"/>
	<path class="st17" d="M389.5,288c1.1-9.9,3-19.7,5.8-29.3c-2.4-0.4-6.6-0.5-7.5,3.4C386.8,266.2,387,276.2,389.5,288z"/>
	<path class="st16" d="M397.8,261c0.6,1.2,1.2,2.2,1.7,3.3s1,2.2,1.5,3.3c1,2.2,1.9,4.5,2.7,6.7c1.7,4.7,2.8,9.5,3.5,14.4l0.1,0.5
		v0.4v0.5c0,0.5,0,1-0.1,1.5c0,0.1,0,0.3-0.1,0.4s-0.1,0.4-0.2,0.5s-0.1,0.3-0.2,0.5s-0.2,0.4-0.3,0.6c-0.2,0.4-0.5,0.7-0.9,1
		c-0.3,0.3-0.7,0.6-1.1,0.8c-0.3,0.2-0.7,0.3-1.1,0.5c-0.3,0.1-0.6,0.2-0.9,0.2c-0.8,0.1-1.6,0.1-2.3-0.1c-0.9-0.2-1.7-0.5-2.5-0.9
		c-0.7-0.3-1.3-0.6-1.9-1c-2.1-1.3-4.2-2.7-6.1-4.3c-3.7-3-7.2-6.1-10.5-9.6l3.2-4c3.9,2.4,7.8,4.8,11.7,7.1c1.8,1.1,3.7,2.1,5.7,3
		c0.4,0.2,0.8,0.3,1.3,0.5c0.2,0.1,0.5,0.2,0.8,0.2c0,0-0.1-0.1-0.6,0c-0.2,0-0.3,0.1-0.5,0.1c-0.2,0.1-0.5,0.2-0.7,0.3
		c-0.3,0.1-0.5,0.3-0.7,0.5c-0.2,0.2-0.4,0.4-0.6,0.7c-0.4,0.5-0.6,1.2-0.6,1.8v0.1c0,0,0,0.1,0,0v-0.1l-0.1-0.4
		c-0.4-2.1-1-4.1-1.6-6.1c-0.7-2-1.4-4.1-2.2-6.1s-1.7-4.1-2.6-6.1s-1.9-4.1-2.8-5.9L397.8,261z"/>
	<path class="st5" d="M386.1,268.2c1.2,4.6,7.9,15.1,7.9,15.1l13.2-2.7c0,0-0.1-0.6-0.4-1.6c-0.2-0.7-0.4-1.7-0.7-2.9
		c-1.8-6.7-5.6-18.7-10.1-19.7C389.3,255.1,384,259.8,386.1,268.2z"/>
	<path class="st18" d="M385,236.8l-4.4,3.1l-6,4.2c0.1,0.8,0.2,1.5,0.2,2.3c0.1,3.1-0.9,5.8-5.5,6.5c0,0-5.6,3.1,2.3,4.3
		c0,0.9,0,1.7,0.2,2.6c0.8-0.9,1.7-1.7,2.7-2.3c8.6,0.5,10.1-3.4,10.1-3.4C381.6,250.6,383.5,241.7,385,236.8z"/>
	<path class="st19" d="M374.7,244.2c0.1,0.8,0.2,1.5,0.2,2.3c2.1-0.3,5.1-2.3,5.5-4.4c0.2-0.7,0.2-1.4,0.2-2.1L374.7,244.2z"/>
	<path class="st5" d="M372.8,218.5c-3.5,1.3-6,10.5-1.9,12.9S379.4,216.1,372.8,218.5z"/>
	<path class="st18" d="M387.3,229.8c-1.9,6.5-2.7,10.4-6.8,13.1c-4,2.7-9.5,1.7-12.2-2.4c-1-1.5-1.5-3.2-1.5-5
		c0-6.2,3.1-15.7,10.2-17.1c4.8-1,9.5,2,10.6,6.8C387.8,226.8,387.8,228.3,387.3,229.8z"/>
	<path class="st5" d="M384.5,225.4c-1.9,3.4-1,9.2,0.8,10.3c2,2,6.3-1.3,7.5-3.3c1-1.8,1.9-6.2,1.1-8.2L384.5,225.4z"/>
	<path class="st18" d="M388.3,236.8c-1.2,1.2-2.7,2-4.4,2.2c-2.1,0.2-2.4-1.8-1.2-3.5c1.1-1.6,3.5-3.6,5.3-3
		S389.8,235.3,388.3,236.8z"/>
	<path class="st5" d="M376.9,229.7c-0.1,0.5-0.5,0.9-0.9,0.8s-0.5-0.6-0.4-1.1s0.5-0.9,0.9-0.8S377,229.2,376.9,229.7z"/>
	<path class="st5" d="M370.8,228.5c-0.1,0.5-0.5,0.9-0.9,0.8s-0.5-0.6-0.4-1.1s0.5-0.9,0.9-0.8S370.9,228,370.8,228.5z"/>
	<path class="st20" d="M372.6,229.1c-1,1.5-2.2,2.9-3.6,4.1c0.6,0.7,1.5,1,2.5,1L372.6,229.1z"/>
	<path class="st5" d="M379.2,228.1h0.2c0.2-0.1,0.2-0.3,0.2-0.4c0,0,0,0,0,0c-0.4-0.9-1.3-1.6-2.3-1.8c-0.2,0-0.3,0.1-0.4,0.3
		c0,0,0,0,0,0c0,0.2,0.1,0.3,0.3,0.3c0,0,0,0,0,0c0.8,0.2,1.4,0.7,1.8,1.4C379,228.1,379.1,228.1,379.2,228.1z"/>
	<path class="st5" d="M368.6,225.9c0.1,0,0.2,0,0.3-0.1c0.5-0.7,1.3-1.1,2.1-1.1c0.2,0,0.4-0.1,0.4-0.2c0-0.2-0.1-0.4-0.2-0.4
		c0,0-0.1,0-0.1,0l0,0c-1,0-2,0.5-2.7,1.3c-0.1,0.1-0.1,0.3,0,0.4C368.5,225.9,368.6,225.9,368.6,225.9z"/>
	<path class="st5" d="M370.3,235.4c0,0,1.9-0.5,7.4-0.4c-0.7,2-1.9,3.7-4.7,3.6S370.3,235.4,370.3,235.4z"/>
	<path class="st21" d="M374.4,237.1c-1.1-0.1-2.2,0.2-3.1,0.9c0.5,0.4,1.1,0.7,1.7,0.7c1.1,0.1,2.2-0.3,3-0.9
		C375.6,237.3,375,237.1,374.4,237.1z"/>
	<path class="st1" d="M370.5,235.4c0.1,0.4,0.3,0.9,0.8,1c1.6,0,3.2-0.1,4.8-0.4c0.6-0.1,1.1-0.5,1.2-1
		C375.1,234.9,372.8,235,370.5,235.4z"/>
	<path class="st3" d="M333.4,259.4L333.4,259.4c0.7,0.1,1.4-0.4,1.5-1.1l0.2-1.1l38.6,6.7l-0.2,1.1c-0.1,0.7,0.4,1.4,1.1,1.5
		c0,0,0,0,0,0l0,0c2,0.3,3.4,2.1,3.4,4.1c-0.2,2.1-2,3.7-4.2,3.6c-0.1,0-0.2,0-0.4,0h-0.2c-0.7-0.1-1.4,0.4-1.5,1.1c0,0,0,0,0,0
		l-0.2,1.1l-38.6-6.7l0.2-1.1c0.1-0.7-0.3-1.4-1-1.5c0,0,0,0,0,0h-0.2c-2.1-0.4-3.5-2.4-3.1-4.5c0-0.1,0-0.2,0.1-0.4
		C329.4,260.3,331.4,259.1,333.4,259.4z"/>
	<path class="st19" d="M331.6,262c-0.7,0.4-0.9,1.2-0.6,1.9c0.4,0.7,1.2,0.9,1.9,0.6c0.1,0,0.1-0.1,0.2-0.1c0.6-0.5,0.8-1.3,0.3-2
		C333,261.8,332.2,261.7,331.6,262z"/>
	
		<rect x="331.3" y="262.9" transform="matrix(0.8484 -0.5293 0.5293 0.8484 -88.9201 215.8383)" class="st19" width="2.1" height="0.5"/>
	<path class="st19" d="M373.7,271.7c0.7,0.3,1.5-0.1,1.8-0.8c0.3-0.6,0-1.4-0.6-1.7c-0.7-0.4-1.5-0.2-1.9,0.5
		c-0.4,0.7-0.2,1.5,0.5,1.9C373.6,271.6,373.6,271.7,373.7,271.7z"/>
	
		<rect x="374.1" y="269.4" transform="matrix(0.4499 -0.8931 0.8931 0.4499 -35.654 483.0822)" class="st19" width="0.5" height="2.1"/>
	<g class="st22">
		<path class="st1" d="M346.6,271.1c-0.3,0-0.5-0.2-0.6-0.4c-0.5-1.1,0.2-3.7,1.5-5.2c0.3-0.4,0.7-0.7,1.1-1
			c0.2-0.8,0.3-1.5,0.4-2.3c-0.8,0.6-1.5,1.3-2.1,2.1c-1.3,1.5-2.7,3-4,3.1c-0.5,0.1-1.1-0.2-1.3-0.7c-0.2-0.3-0.2-0.7-0.2-1
			c-1.4,0-2.7-0.2-4-0.6l0.3-0.9c1.2,0.4,2.5,0.5,3.8,0.5c0.1-0.5,0.3-1,0.6-1.4c0.3-0.4,0.8-0.7,1.2-0.6l0.3,0.1
			c0.5,0.1,0.9,0.2,1,0.6s-0.2,0.8-1.1,1.6c-0.4,0.3-0.8,0.5-1.2,0.6c0,0.2,0,0.4,0.1,0.6c0.1,0.1,0.1,0.2,0.4,0.2
			c0.9,0,2.2-1.5,3.3-2.8c0.7-1,1.7-1.8,2.8-2.4c0.4-0.2,0.8,0,1,0.3c0,0,0,0.1,0,0.1c0.1,0.8,0.1,1.7-0.1,2.5c0.3-0.1,0.7-0.1,1,0
			c0.9,0.2,1.7,0.3,2.6,0.4c1.5,0.1,2.7,0.2,3.2,1.3c0.4-0.1,0.7-0.1,1.1-0.1c1.6,0.1,1.8,1.5,1.9,2.3c0,0.2,0.1,0.4,0.1,0.6
			c0.9-0.3,1.8-0.8,2.5-1.5l0.8-0.6v2.2h5.9v1h-6.9v-1.2c-0.7,0.6-1.6,1-2.5,1.1c-0.7-0.1-0.8-0.8-0.9-1.4c-0.1-1-0.3-1.4-1-1.4
			c-0.3,0-0.6,0-0.9,0.1c-0.1,1.2-0.8,2.2-1.9,2.8c-0.5,0.3-1.1,0.2-1.4-0.3c0,0,0,0,0,0c-0.2-0.5-0.2-1,0.1-1.5
			c0.5-0.7,1.2-1.3,2-1.6c-0.3-0.4-1-0.5-2.4-0.6c-0.9-0.1-1.8-0.2-2.7-0.4c-0.4-0.1-0.7,0-1.1,0.1c-0.6,2.6-1.8,5.6-2.5,5.9
			C346.7,271.1,346.7,271.1,346.6,271.1z M348.1,266.2c-0.7,1-1.2,2.2-1.3,3.4C347.3,268.5,347.7,267.4,348.1,266.2L348.1,266.2z
			 M355.6,267.1c-0.5,0.3-1,0.6-1.3,1.1c-0.1,0.1-0.2,0.4-0.1,0.5s0.4-0.1,0.9-0.7C355.3,267.7,355.5,267.4,355.6,267.1L355.6,267.1
			z M343,263.6c0,0-0.1,0-0.3,0.2c-0.1,0.2-0.2,0.4-0.3,0.6c0.1-0.1,0.3-0.1,0.4-0.2l0.5-0.5L343,263.6L343,263.6z"/>
	</g>
	<path class="st18" d="M383.3,277.2l-3-6.2l-4.3,7.4c0,0,3.6,5,6,2.9L383.3,277.2z"/>
	<polygon class="st18" points="374.2,269.2 370.9,275.5 376,278.4 380.3,271 	"/>
	<path class="st5" d="M373.7,213.7c0,0,1-3.4-1-3.4c-4.4-0.1-5.4,9.3-0.9,11.2s11.7,0,11.7,0c0.4,2,0.5,4,0.3,6
		c-0.3,2.8,9.4,4.6,10,2.2c0.7-2.6,1.1-10-2.4-12.8s-9.3-3.7-9.3-3.7s4.5-3.1,3-3.7c-3.3-1.5-7.1,3.5-7.1,3.5s3.4-3.8,1.1-4.5
		C375.2,207.1,373.7,213.7,373.7,213.7z"/>
	<path class="st5" d="M374.6,257.6l2.2,4.3c0,0,8.9-2.1,11.9-7l-4.2-3.1C382.1,254.9,378.5,257,374.6,257.6z"/>
	<path class="st5" d="M371.7,257.3l-5.4,2.6c0,0-0.9-4,0.5-6.9l4.9-2.1C370.9,252.9,370.9,255.2,371.7,257.3z"/>
	<path class="st7" d="M374.6,257.6l2.2,4.3c0,0,8.9-2.1,11.9-7l-4.2-3.1C382.1,254.9,378.5,257,374.6,257.6z"/>
	<path class="st7" d="M371.7,257.3l-5.4,2.6c0,0-0.9-4,0.5-6.9l4.9-2.1C370.9,252.9,370.9,255.2,371.7,257.3z"/>
	<path class="st19" d="M419.5,197.1v16.1c-0.9,0.2-1.8,0.4-2.8,0.4c-6,0-10.9-4.9-10.9-10.9c0-2,0.5-3.9,1.6-5.6H419.5z"/>
	
		<ellipse transform="matrix(0.7071 -0.7071 0.7071 0.7071 -20.1156 351.9077)" class="st3" cx="414.7" cy="200.2" rx="10.9" ry="10.9"/>
	<path class="st1" d="M417.2,200.2l3.6,2l-1.2,2.1l-3.7-2.1v4.1h-2.4v-4l-3.6,2.1l-1.3-2.1l3.6-2l-3.6-2l1.3-2.2l3.6,2.1v-4h2.4v4.1
		l3.7-2.2l1.2,2.2L417.2,200.2z"/>
</g>
<g id="freepik--character-4--inject-30">
	<rect x="206.6" y="253.9" class="st8" width="95.9" height="95.9"/>
	<rect x="206.6" y="253.9" class="st9" width="95.9" height="95.9"/>
	<rect x="211.4" y="258.7" class="st9" width="86.3" height="86.3"/>
	<path class="st5" d="M287.9,345h-10.3c-0.1-0.8-0.2-1.7-0.3-2.7c0-0.1,0-0.2,0-0.2c0-0.2,0-0.4-0.1-0.7s0-0.2,0-0.4
		c-0.1-0.8-0.2-1.7-0.3-2.6c0-0.3,0-0.6-0.1-0.9c0-0.5-0.1-1-0.2-1.5c-1.1-10.4-1.9-23.6,2.2-23.3
		C285.3,313.2,287.5,343.6,287.9,345L287.9,345z"/>
	<path class="st19" d="M284.9,345h-7.3c-0.1-0.8-0.2-1.7-0.3-2.7c0-0.1,0-0.2,0-0.2c0-0.2,0-0.4-0.1-0.7s0-0.2,0-0.4
		c-0.1-1.1-0.2-2.3-0.4-3.5c0-0.5-0.1-1-0.2-1.5c2.2-6.2,4.3-11.1,4.3-11.1C283,331.5,284.3,338.2,284.9,345z"/>
	<path class="st5" d="M280.5,345h-37.8c0-1.3-0.1-2.6-0.1-3.9s-0.1-2.6-0.2-3.9c0-0.4-0.1-0.7-0.1-1.1c-0.1-1.1-0.2-2.3-0.3-3.4
		c0-0.3-0.1-0.5-0.1-0.8c-0.1-1.1-0.3-2.3-0.5-3.3c0-0.3-0.1-0.5-0.1-0.8s-0.1-0.5-0.1-0.8l-0.1-0.7c-0.2-1.1-0.4-2.1-0.7-3
		c-0.1-0.3-0.2-0.6-0.3-0.9c-0.3-1-0.7-2.1-1.1-3.2c-0.5-1.4,0.3-3,1.7-3.5c0,0,0.1,0,0.1,0c3.4-1,6.9-1.8,10.4-2.3
		c4.7-0.8,9.5-1.3,14.3-1.5c6.2,0,13.3,0.6,13.3,0.6l0,0l0,0l0,0l0,0c0,0,0.1,0.1,0.1,0.1l0.1,0.2c0.1,0.2,0.2,0.5,0.3,0.7
		c0,0.1,0.1,0.1,0.1,0.2l0.1,0.2c0,0.1,0,0.1,0.1,0.2c0,0.2,0.1,0.3,0.1,0.5l0.1,0.4c0,0.1,0.1,0.3,0.1,0.4s0.1,0.5,0.1,0.8
		c0.1,0.8,0.3,1.8,0.4,3.1c0,0.4,0.1,0.8,0.1,1.3s0.1,1,0.2,1.6C281.3,329.8,281.3,337.4,280.5,345z"/>
	<path class="st23" d="M280.5,345h-37.8c-0.1-2.6-0.2-5.3-0.4-7.8c0-0.4-0.1-0.7-0.1-1.1c-0.1-1.1-0.2-2.3-0.3-3.4
		c0-0.3-0.1-0.5-0.1-0.8c-0.1-1.1-0.3-2.3-0.5-3.3c0-0.3-0.1-0.5-0.1-0.8s-0.1-0.5-0.1-0.8l-0.1-0.7c-0.2-1.1-0.4-2.1-0.7-3
		c-0.1-0.3-0.2-0.6-0.3-0.9c-0.3-1-0.7-2.1-1.1-3.2c-0.5-1.4,0.3-3,1.7-3.5c0,0,0.1,0,0.1,0c3.4-1,6.9-1.8,10.4-2.3
		c4.7-0.8,9.5-1.3,14.3-1.5c6.2,0,13.3,0.6,13.3,0.6l0,0l0,0l0,0l0,0c0.2,0.3,0.4,0.6,0.5,1c0,0.1,0.1,0.1,0.1,0.2
		c0.1,0.4,0.3,0.8,0.3,1.3c0,0.1,0.1,0.3,0.1,0.4c0.2,0.9,0.4,2.2,0.5,3.8c0.1,0.7,0.2,1.7,0.3,2.8
		C281.3,329.8,281.3,337.4,280.5,345z"/>
	<path class="st19" d="M249.6,345h-6.9c-0.1-2.6-0.2-5.3-0.4-7.8c0-0.4-0.1-0.7-0.1-1.1c-0.1-1.1-0.2-2.3-0.3-3.4
		c0-0.3-0.1-0.5-0.1-0.8C244.8,336.1,247.4,340.5,249.6,345z"/>
	<path class="st8" d="M258.9,310.4c0,0-8.5-0.7-10.6,3.7s1.9,10.8,1.9,10.8l6.1-4.6l12.6,4.6l3.2-4.4l2.5,1.3
		C274.7,321.9,274.8,308.5,258.9,310.4z"/>
	<path class="st7" d="M258.9,310.4c0,0-8.5-0.7-10.6,3.7s1.9,10.8,1.9,10.8l6.1-4.6l12.6,4.6l3.2-4.4l2.5,1.3
		C274.7,321.9,274.8,308.5,258.9,310.4z"/>
	<path class="st24" d="M252.7,314.7c0,0,3.2,4.6,15.2,8.6c0,0,5.4-6.8-2.8-9.9c0,0-1.7-0.5-2.1-3.2c-0.2-1.9,0.1-3.8,0.7-5.6
		c0.1-0.3,0.2-0.6,0.3-0.9l-9.9-6.2C254.2,297.5,257.7,310,252.7,314.7z"/>
	<path class="st19" d="M256.4,301.1c0,0,0.5,7.1,6.7,9.1c-0.2-1.9,0.1-3.8,0.7-5.6C260.2,302.7,256.4,301.1,256.4,301.1z"/>
	<polygon class="st24" points="229.7,311.3 228.8,322.8 222.8,323 224.8,310.4 	"/>
	<path class="st5" d="M269.1,280.4c0.6-5-2.7-9.7-7.6-11c-2.1-0.6-4.4-0.7-6.5-0.2c-7.3,1.7-12.4,8.1-12.6,15.5
		c-0.3,8.1,1.6,18.5,13.3,17.5C274.6,300.8,269.1,280.4,269.1,280.4z"/>
	<path class="st24" d="M259,277.4c8.2-0.8,11.2,3.4,12.6,11.7c1.7,10.5,0.1,18.1-10.3,16.9C247.1,304.2,245.4,278.7,259,277.4z"/>
	<path class="st25" d="M266.3,289.2c0.8,1.2,1.7,2.2,2.7,3.2c-0.4,0.7-1.2,1.2-2.1,1.1L266.3,289.2z"/>
	<path class="st5" d="M261.2,289c0.1,0.7-0.2,1.3-0.7,1.3s-0.9-0.5-1-1.1s0.2-1.2,0.7-1.3S261.1,288.3,261.2,289z"/>
	<path class="st5" d="M260.1,287.9l1.4-0.7C261.5,287.2,260.9,288.5,260.1,287.9z"/>
	<path class="st5" d="M269.5,287.9c0.1,0.7-0.2,1.2-0.7,1.3s-0.9-0.5-1-1.1s0.2-1.3,0.7-1.3S269.5,287.2,269.5,287.9z"/>
	<path class="st5" d="M268.4,286.8l1.4-0.7C269.8,286,269.2,287.4,268.4,286.8z"/>
	<path class="st5" d="M257.2,285.2c-0.1,0-0.1,0-0.2,0c-0.2-0.1-0.2-0.3-0.1-0.5c0.9-1.1,2.3-1.8,3.7-1.7c0.2,0,0.3,0.2,0.3,0.4
		c0,0,0,0,0,0c0,0.2-0.2,0.3-0.4,0.3c0,0,0,0,0,0c-1.2,0-2.4,0.5-3.1,1.4C257.4,285.2,257.3,285.2,257.2,285.2z"/>
	<path class="st5" d="M269.8,283.1c-0.1,0-0.1,0-0.2,0c-0.9-0.6-2-0.7-3-0.4c-0.2,0.1-0.4,0-0.5-0.2c0,0,0,0,0,0
		c-0.1-0.2,0-0.4,0.2-0.5c0,0,0,0,0,0c1.2-0.4,2.6-0.3,3.6,0.4c0.2,0.1,0.2,0.3,0.1,0.5C270.1,283.1,270,283.2,269.8,283.1z"/>
	<path class="st5" d="M251.4,292c0,0,3.2-7.1,2.1-12.2c0,0,15.6-8.1,17.9,8.2c0,0,0.2-14.8-13.9-13.8s-12.1,21.5-4.3,27
		C253.3,301.3,249.4,296.4,251.4,292z"/>
	<path class="st24" d="M252.9,293.6c-0.4-2-2.2-3.3-4.2-2.9c-2.5,0.5-3.2,5.8,3.2,6.5C252.8,297.3,253.2,296.3,252.9,293.6z"/>
	<path class="st5" d="M268.2,296.6c-0.4,0.9-0.7,1.8-0.9,2.8h-0.5c-2.3-0.2-3.4-1.1-3.8-2c-0.2-0.4-0.3-0.9-0.2-1.4
		c0-0.3,0.1-0.5,0.1-0.8c1.4,0.8,2.9,1.2,4.5,1.3C267.9,296.6,268.2,296.6,268.2,296.6z"/>
	<path class="st1" d="M267.4,296.5l-0.3,0.8c-2.2-0.2-3.7-0.6-4.4-1.4c0-0.3,0.1-0.5,0.1-0.8C264.3,296,265.8,296.4,267.4,296.5z"/>
	<path class="st25" d="M266.8,299.4c-2.3-0.2-3.4-1.1-3.8-2c0.9,0.1,1.8,0.3,2.5,0.7C266.1,298.4,266.5,298.8,266.8,299.4z"/>
	<path class="st5" d="M244.8,285.7c0,0,3.9-6.3-2.7-8.7s-13.1,6.1-9.1,12c2.2,3.4,6.5,5,10.4,3.8L244.8,285.7z"/>
	<path class="st24" d="M225.2,313.3l-2.8-8.9l8.1-1.1c0,0,2.8,6-0.9,9.9L225.2,313.3z"/>
	<polygon class="st24" points="223.6,297.8 229.8,298.4 230.5,303.2 222.4,304.4 	"/>
	<path class="st5" d="M240.8,315.9c-4.5-0.2-12.1,19.4-12.1,19.4l1-18.2l-7,0.5c0,0-6,29.2-3.8,32.1c2.8,3.6,10,5.1,23.3-12.8
		c0,0,2.9-7.5,2.5-13.4S240.8,315.9,240.8,315.9z"/>
	<polygon class="st8" points="221.2,320.3 222,315.9 230.1,315.5 229.9,319.3 	"/>
	<polygon class="st7" points="221.2,320.3 222,315.9 230.1,315.5 229.9,319.3 	"/>
	<path class="st3" d="M275.5,358.4L275.5,358.4c-0.7,0-1.3-0.6-1.3-1.3V356H235v1.1c0,0.7-0.6,1.3-1.3,1.3l0,0c-2,0-3.7,1.5-4,3.5
		c-0.2,2.1,1.3,4,3.5,4.2c0.1,0,0.3,0,0.4,0h0.2c0.7,0,1.3,0.6,1.3,1.3c0,0,0,0,0,0v1.1h39.2v-1.1c0-0.7,0.6-1.3,1.3-1.3
		c0,0,0,0,0,0h0.2c2.1,0,3.9-1.7,3.9-3.8c0-0.1,0-0.3,0-0.4C279.3,359.9,277.5,358.4,275.5,358.4z"/>
	<path class="st19" d="M276.8,361.2c0.6,0.5,0.6,1.4,0.1,2s-1.4,0.6-2,0.1c-0.6-0.5-0.6-1.4-0.1-2
		C275.3,360.7,276.2,360.7,276.8,361.2C276.8,361.2,276.8,361.2,276.8,361.2z"/>
	
		<rect x="275.7" y="361.2" transform="matrix(0.6669 -0.7451 0.7451 0.6669 -178.0657 326.259)" class="st19" width="0.5" height="2.1"/>
	<path class="st19" d="M233.7,363.6c-0.7,0.2-1.5-0.2-1.7-0.9s0.2-1.5,0.9-1.7s1.5,0.2,1.7,0.9c0,0,0,0,0,0
		C234.9,362.6,234.5,363.4,233.7,363.6z"/>
	<rect x="232.2" y="362" transform="matrix(0.9569 -0.2904 0.2904 0.9569 -95.1336 83.35)" class="st19" width="2.1" height="0.5"/>
	<g class="st22">
		<path class="st1" d="M245.9,366.6c-0.1,0-0.1,0-0.2,0c-0.2-0.1-0.3-0.2-0.4-0.4c-0.2-0.5,0.1-1.1,0.6-2.3c0.3-0.6,0.9-1.9,0.7-2.2
			c-0.6-0.1-1.3-0.1-1.9,0.1l0,0c-0.2,0.5-0.5,1-1,1.1c-0.3,0-0.6-0.1-0.7-0.3c-0.2-0.3-0.2-0.6,0-0.9c0.3-0.3,0.6-0.5,1-0.6
			c0.1-0.4-0.1-0.8-0.3-1.1c-0.4-0.4-2,0-3.1,0.9c-0.7,0.5-1,1.1-0.9,1.3c0.6,1,2.2,0.6,2.2,0.6l0.2,0.9c-0.1,0-2.4,0.5-3.3-1.1
			c-0.4-0.7,0-1.7,1.2-2.5s3.5-1.8,4.4-0.7c0.4,0.4,0.6,0.9,0.6,1.5c0.7-0.1,1.3-0.1,2,0c0.3,0.1,0.5,0.2,0.6,0.5
			c0.2,0.4,0.2,0.9,0,1.3l0.3-0.6c1.5-3.3,2-4.1,2.7-4c1.1,0.1,1.1,2.1,1,2.7c0.3-0.1,0.7-0.2,1.1-0.2c0.7-0.1,1.5,0,2.1,0.5
			c0.2,0.2,0.3,0.3,0.4,0.5c1.1-0.6,2.8-1.4,3.6-1c0.3,0.1,0.5,0.3,0.5,0.5c0.1,0.3,0,0.6-0.1,0.8c0.6,0,1.2-0.1,1.9-0.3
			c0.1-0.2,0.1-0.4,0.3-0.6c0.3-0.5,0.9-0.9,1.4-0.8c0.4,0.1,0.6,0.4,0.6,0.8c0,0.3-0.1,0.7-0.4,0.9c-0.1,0.1-0.3,0.2-0.4,0.3
			c2.9,0,5.7-0.3,8.6-0.8l0.1,1c-4.1,0.6-9.2,1.2-9.9,0.4l-0.1-0.1c-0.9,0.2-1.8,0.3-2.7,0.3c-0.2,0-0.4-0.2-0.5-0.4
			c-0.1-0.3,0-0.6,0.2-0.9l0.1-0.1c-1.2,0.2-2.3,0.7-3.3,1.3l-0.8,0.5l0.1-1l0,0c0-0.2-0.1-0.4-0.2-0.6c-0.4-0.3-0.8-0.4-1.3-0.2
			c-0.4,0-0.9,0.1-1.3,0.3c-0.2,0.7-0.5,1.1-0.9,1.1c-0.4,0-0.7-0.2-0.8-0.6c0,0,0,0,0,0c0-0.4,0.3-0.8,0.9-1.1c0.1-0.7,0-1.3-0.1-2
			c-0.6,1.1-1.2,2.2-1.7,3.4C247.2,365.4,246.6,366.6,245.9,366.6z"/>
	</g>
</g>
<g id="freepik--character-3--inject-30">
	<rect x="193.6" y="121.5" class="st8" width="95.9" height="95.9"/>
	<rect x="193.6" y="121.5" class="st9" width="95.9" height="95.9"/>
	<rect x="198.4" y="126.3" class="st9" width="86.3" height="86.3"/>
	<path class="st24" d="M293.5,192.1l4-5.8l3.9,6.8c0,0-3.9,5-6.4,2.8L293.5,192.1z"/>
	<polygon class="st24" points="304,183.5 305.3,190.5 301.5,193.1 297.6,186.3 	"/>
	<polygon class="st24" points="287.5,199.5 294.6,190.6 298.8,194.2 292.4,202.4 	"/>
	<path class="st5" d="M262.5,181.9c2.7,1.3,14.9,23.4,16,23.4c1.4,0,13.2-11.1,13.2-11.1l4.9,6.1c0,0-14.9,17.7-20.3,16.3
		c-5-1.3-18.9-19.4-18.9-19.4L262.5,181.9z"/>
	<path class="st7" d="M296.7,200.3c0,0-14.9,17.7-20.4,16.3c-2.1-0.5-5.9-4.2-9.5-8.1c-4.9-5.3-9.5-11.3-9.5-11.3l2.8-8.3l2.4-7
		c2.7,1.3,14.9,23.4,16,23.4c1.4,0,13.2-11.1,13.2-11.1L296.7,200.3z"/>
	<path class="st19" d="M266.8,208.5c-4.9-5.3-9.5-11.3-9.5-11.3l2.8-8.3c0.3,0.2,0.6,0.5,0.9,0.9
		C264.5,193.9,266.9,201.1,266.8,208.5z"/>
	<path class="st5" d="M261,211.4c0,0.4,0,0.8-0.1,1.2h-40.5c1.4-11.5,1.9-23.7,1.9-23.7h0.8c0.9,0,2.5-0.1,4.6-0.2
		c1.7,0,3.8-0.1,6.1-0.1c7.5,0,17,0.3,22.7,1.9c1.3,0.3,2.6,0.8,3.7,1.6c0.7,0.4,1.2,1.2,1.4,2C261.8,196.3,261.5,203.1,261,211.4z"
		/>
	<path class="st8" d="M261,211.4c-0.1,0.4-0.1,0.8-0.2,1.2h-40c0.7-4.2,1.3-8.7,1.7-13.5c0.3-3.3,0.6-6.8,0.7-10.3
		c0.1-4.2,0.1-8.6-0.1-12.9c0,0,3.1-0.2,7-0.1c0.8,0,1.7,0,2.5,0.1s1.5,0.1,2.3,0.1l0.7,0.1c5.3,0.4,10.5,1.1,15.6,2.2
		c0.6,0.1,1.2,0.3,1.9,0.5c2.9,0.8,5.7,1.8,8.4,2.9l0,0C261.7,182.1,264,192.7,261,211.4z"/>
	<path class="st9" d="M261,211.4c-0.1,0.4-0.1,0.8-0.2,1.2h-40c0.7-4.2,1.3-8.7,1.7-13.5c0.3-3.3,0.6-6.8,0.7-10.3
		c0.1-4.2,0.1-8.6-0.1-12.9c0,0,3.1-0.2,7-0.1c0.8,0,1.7,0,2.5,0.1s1.5,0.1,2.3,0.1l0.7,0.1c5.3,0.4,10.5,1.1,15.6,2.2
		c0.6,0.1,1.2,0.3,1.9,0.5c2.9,0.8,5.7,1.8,8.4,2.9l0,0C261.7,182.1,264,192.7,261,211.4z"/>
	<path class="st24" d="M242.8,159c-0.3,5.1-1.6,14.4-5.9,16.9c0,0,8.4,6.7,11,6.6c1.8,0,4.4-2.9,4.4-2.9c-5.2-2.6-4-6.7-2.1-10.3
		L242.8,159z"/>
	<path class="st19" d="M245.8,163.2l4.4,6.1c-0.5,0.8-0.9,1.7-1.2,2.6c-2-0.8-4.4-3.8-4-6.1C245.1,164.9,245.4,164,245.8,163.2z"/>
	<path class="st5" d="M261.5,148.6c0.8,2.7,0.4,8.2-3.4,6.4S260.1,144.1,261.5,148.6z"/>
	<path class="st24" d="M242.3,152.2c-0.4,6.9-1,10.9,2,14.8c4.6,5.9,13.4,3.7,15.8-3c2.2-6,2.5-16.2-3.9-19.7
		c-4.6-2.5-10.4-0.8-12.9,3.9C242.7,149.5,242.4,150.8,242.3,152.2z"/>
	<path class="st5" d="M247.1,148.5v-7.7c0,0-8.2-0.6-7.8,3.6c-4.5,2.2-2.4,9.3,3.7,12.7c3.3-2.7,2.9-9.1,2.9-9.1
		C246.3,148.2,246.7,148.4,247.1,148.5z"/>
	<path class="st24" d="M239,157.6c0.3,1.7,1.3,3.2,2.8,4.1c1.9,1.3,3.6-0.3,3.6-2.5c0.1-2-0.9-5-3.1-5.4c-1.6-0.2-3.2,0.9-3.4,2.6
		C238.9,156.9,238.9,157.3,239,157.6z"/>
	<path class="st5" d="M252.4,155.3c-0.1,0.6,0.2,1,0.5,1.1s0.7-0.4,0.8-0.9s-0.2-1-0.5-1.1S252.5,154.8,252.4,155.3z"/>
	<path class="st5" d="M258.7,156c-0.1,0.6,0.2,1,0.5,1.1s0.7-0.4,0.8-0.9s-0.2-1-0.5-1.1S258.8,155.5,258.7,156z"/>
	<path class="st25" d="M256.7,156.1c0.5,1.7,1.2,3.4,2.1,4.9c-0.8,0.4-1.8,0.5-2.7,0.1L256.7,156.1z"/>
	<path class="st5" d="M250.7,153.1c0.1,0,0.2,0,0.3-0.1c0.6-0.6,1.4-0.9,2.2-0.9c0.2,0,0.4-0.1,0.4-0.3c0-0.2-0.1-0.3-0.3-0.4
		c-1.1-0.1-2.1,0.3-2.8,1.1c-0.1,0.1-0.1,0.3,0,0.5c0,0,0,0,0,0C250.6,153,250.7,153.1,250.7,153.1z"/>
	<path class="st5" d="M261.7,154.2c0.1,0,0.1,0,0.2,0c0.2-0.1,0.3-0.2,0.2-0.4c-0.3-1-1.1-1.8-2.1-2.1c-0.2,0-0.4,0.1-0.4,0.2
		c0,0.2,0.1,0.4,0.2,0.4l0,0c0.8,0.2,1.4,0.9,1.7,1.7C261.5,154.1,261.6,154.1,261.7,154.2z"/>
	<path class="st5" d="M239.3,144.4c0,0-4.4-4,9.9-4.2c14.3-0.2,17,7.7,10.5,9.8l-0.4-1.3c-2.2,1.3-4.9,1.5-7.3,0.7l1-0.7
		C253.1,148.7,243.4,150.1,239.3,144.4z"/>
	<path class="st5" d="M255.9,162.9c-0.6,0.8-1.2,1.7-1.7,2.6l-0.5-0.2c-2.4-0.9-3.2-2.1-3.4-3.1c-0.1-0.5,0-1,0.1-1.5
		c0.1-0.3,0.2-0.6,0.4-0.8c1.2,1.2,2.7,2.1,4.3,2.7C255.6,162.8,255.9,162.9,255.9,162.9z"/>
	<path class="st1" d="M255.1,162.6l-0.5,0.8c-2.2-0.8-3.7-1.7-4.1-2.6c0.1-0.3,0.2-0.6,0.4-0.8C252,161.1,253.5,162,255.1,162.6z"/>
	<path class="st25" d="M253.7,165.4c-2.4-0.9-3.2-2.1-3.4-3.1c0.9,0.3,1.7,0.9,2.4,1.5C253.2,164.2,253.5,164.7,253.7,165.4z"/>
	<path class="st8" d="M247.9,182.5c0,0-2,1.9-4.4,3.7c-2.8-1.9-9.4-6.8-8.6-10.5c0.6-1,3.5-1.4,3.5-1.4S241,178.7,247.9,182.5z"/>
	<path class="st8" d="M247.9,182.5c1.3,1.4,2.5,2.9,3.4,4.6c2.4-1.2,2.1-8.3,1.4-9.2c-1.1-0.8-2.4-1.3-3.7-1.5
		C249.7,178.6,249.2,180.8,247.9,182.5z"/>
	<g class="st26">
		<path class="st1" d="M247.9,182.5c0,0-2,1.9-4.4,3.7c-2.8-1.9-9.4-6.8-8.6-10.5c0.6-1,3.5-1.4,3.5-1.4S241,178.7,247.9,182.5z"/>
		<path class="st1" d="M247.9,182.5c1.3,1.4,2.5,2.9,3.4,4.6c2.4-1.2,2.1-8.3,1.4-9.2c-1.1-0.8-2.4-1.3-3.7-1.5
			C249.7,178.6,249.2,180.8,247.9,182.5z"/>
	</g>
	<path class="st5" d="M234.9,175.7v0.3c0,1.2-0.3,6-1.1,12.6c-0.5,4.2-1.3,9.1-2.5,14.3l0,0c-0.7,3.2-1.6,6.4-2.6,9.7h-9.5
		c0.1-0.7,0.1-1.4,0.2-2.1s0.1-1.7,0.2-2.5c0.2-2.6,0.4-5.4,0.5-8.1l0,0v-0.1c0-0.6,0.1-1.2,0.1-1.8c0.1-1.4,0.1-2.7,0.2-4
		c0-0.7,0.1-1.3,0.1-1.9c0-0.9,0.1-1.7,0.1-2.5c0-0.3,0-0.5,0-0.8c0-0.6,0.1-1.3,0.1-1.9s0.1-1.3,0.1-1.9v-0.7c0-0.5,0-0.9,0.1-1.3
		s0-0.7,0-1c0-0.5,0-1,0.1-1.4c0-0.7,0.1-1.3,0.1-1.9c0-0.1,0-0.3,0-0.4c0.1-1.6,0.1-2.4,0.1-2.4c3-0.4,6.1-0.6,9.2-0.4
		C231.8,175.4,233.3,175.5,234.9,175.7z"/>
	<path class="st7" d="M234.9,175.7v0.3c0,1.2-0.3,6-1.1,12.6c-0.5,4.2-1.3,9.1-2.5,14.3l0,0c-0.7,3.2-1.6,6.4-2.6,9.7h-9.5
		c0.1-0.7,0.1-1.4,0.2-2.1s0.1-1.7,0.2-2.5c0.2-2.6,0.4-5.4,0.5-8.1l0,0v-0.1c0-0.6,0.1-1.2,0.1-1.8c0.1-1.4,0.1-2.7,0.2-4
		c0-0.7,0.1-1.3,0.1-1.9c0-0.9,0.1-1.7,0.1-2.5c0-0.3,0-0.5,0-0.8c0-0.6,0.1-1.3,0.1-1.9s0.1-1.3,0.1-1.9v-0.7c0-0.5,0-0.9,0.1-1.3
		s0-0.7,0-1c0-0.5,0-1,0.1-1.4c0-0.7,0-1.3,0.1-1.9c0-0.1,0-0.3,0-0.4c0.1-1.6,0.1-2.4,0.1-2.4c3-0.4,6.1-0.6,9.2-0.4
		C231.8,175.4,233.3,175.5,234.9,175.7z"/>
	<path class="st7" d="M234.9,175.7c-0.4,9.2-1.6,18.3-3.6,27.2l0,0l-4.9-19.4l5.1-0.5l-5.1-3l4.1-4.7
		C231.8,175.4,233.3,175.5,234.9,175.7z"/>
	<path class="st5" d="M262,212.6h-3.9c0-0.9,0-1.8-0.1-2.7c0-1.3-0.1-2.6-0.1-3.8c-0.2-5.2-0.6-10.4-1.4-15.6
		c-1.4-9.4-3.2-11.6-3.4-11.8l3.3,1.1l5.1,1.8l0.9,0.3C263.2,189,262.8,200.6,262,212.6z"/>
	<path class="st7" d="M262,212.6h-3.9c0-0.9,0-1.8-0.1-2.7c0-1.3-0.1-2.6-0.1-3.8c-0.2-5.2-0.6-10.4-1.4-15.6
		c-1.4-9.4-3.2-11.6-3.4-11.8l3.3,1.1l5.1,1.8l0.9,0.3C263.2,189,262.8,200.6,262,212.6z"/>
	<path class="st7" d="M256.7,186.7l3.8,2.4c0,0-1,11.2-2.6,17c-1-23-4.5-27.1-4.8-27.4l3.3,1.1c1.8,1.7,3.4,3.7,4.5,5.9L256.7,186.7
		z"/>
	<path class="st19" d="M222.4,192.3c-0.2,2.6-1,5.2-2.2,7.5c0.2-2.7,0.3-5.3,0.4-7.9C221.2,191.9,221.8,192,222.4,192.3z"/>
	<path class="st5" d="M224.1,183.4c-0.1,3-0.7,6.1-1.7,8.9c0,0-13.9,12.4-13.5,15.5c0.4,1.7,0.9,3.3,1.6,4.8h-10.3
		c-0.7-1.8-1-3.7-0.9-5.6c0.8-7.1,18-30.9,22.1-31.3C221.3,175.7,224.3,178.1,224.1,183.4z"/>
	<path class="st7" d="M224.1,183.4c-0.1,3-0.7,6.1-1.7,8.9c0,0-13.9,12.4-13.5,15.5c0.4,1.7,0.9,3.3,1.6,4.8h-10.3
		c-0.7-1.8-1-3.7-0.9-5.6c0.8-7.1,18-30.9,22.1-31.3C221.3,175.7,224.3,178.1,224.1,183.4z"/>
	<path class="st3" d="M262.5,226L262.5,226c-0.7,0-1.3-0.6-1.3-1.3c0,0,0,0,0,0v-1.1H222v1.1c0,0.7-0.6,1.3-1.3,1.3c0,0,0,0,0,0l0,0
		c-2,0-3.7,1.5-4,3.5c-0.2,2.1,1.4,4,3.5,4.2c0.1,0,0.2,0,0.4,0h0.2c0.7,0,1.3,0.6,1.3,1.3v1.1h39.2V235c0-0.7,0.6-1.3,1.3-1.3h0.2
		c2.1,0,3.9-1.7,3.9-3.8c0-0.1,0-0.3,0-0.4C266.3,227.5,264.5,226,262.5,226z"/>
	<path class="st19" d="M263.8,228.8c0.6,0.5,0.7,1.4,0.2,1.9c0,0,0,0,0,0.1c-0.6,0.5-1.4,0.5-2-0.1c-0.5-0.5-0.5-1.3-0.1-1.8
		C262.4,228.4,263.2,228.3,263.8,228.8C263.8,228.8,263.8,228.8,263.8,228.8z"/>
	
		<rect x="262.7" y="228.8" transform="matrix(0.6668 -0.7452 0.7452 0.6668 -83.7262 272.5289)" class="st19" width="0.5" height="2.1"/>
	<path class="st19" d="M220.7,231.2c-0.7,0.3-1.5-0.1-1.8-0.8c-0.3-0.7,0.1-1.5,0.8-1.8c0.1,0,0.1-0.1,0.2-0.1
		c0.8-0.2,1.5,0.3,1.7,1.1C221.7,230.3,221.3,231,220.7,231.2z"/>
	
		<rect x="219.2" y="229.6" transform="matrix(0.9569 -0.2904 0.2904 0.9569 -57.2549 73.8682)" class="st19" width="2.1" height="0.5"/>
	<g class="st22">
		<path class="st1" d="M228.4,233.7c-0.2,0-0.3-0.1-0.5-0.2c-0.2-0.2-0.8-0.6,0.6-3.9l0.1-0.2c-1,0.5-2.1,1-3.2,1.4l-0.3-0.9
			c1.5-0.5,2.9-1.2,4.2-2c1.1-2.2,1.6-2.1,1.8-2.1c0.3,0.1,0.5,0.3,0.5,0.6c0.1,0.7-0.6,1.4-1.6,2.1c-0.7,1.3-1.2,2.7-1.5,4.1
			c0.7-0.5,1.4-1.1,2-1.8c0.9-1,1.9-1.8,3-2.5c0.5-0.2,1-0.2,1.4,0c0.4,0.4,0.6,1,0.4,1.5c0.5,0,1.9,0.1,5.4,0.1
			c0-0.1,0-0.2-0.1-0.3c-0.2-1.1,0.3-2.2,1.2-2.9c0.5-0.4,1.2-0.4,1.7,0c0.6,0.4,1,1.2,0.7,1.9c-0.3,0.9-1,1.6-1.8,2l0.3,0.1
			c0.8,0.3,1.7,0.2,2.4-0.2c0.4-0.3,0.7-0.8,0.8-1.3c0.1-0.5,0.5-0.8,1-0.8c0.8,0,1.4,0.4,1.8,1.1c2.8-0.3,5.6-0.4,8.4-0.3v1
			c-2.8-0.1-5.6,0-8.3,0.3c-0.1,0.4-0.3,0.7-0.6,0.8c-0.4,0.1-0.8,0-1-0.4c-0.2-0.2-0.2-0.5-0.1-0.7c0.1-0.1,0.2-0.3,0.7-0.5
			c-0.1-0.1-0.2-0.1-0.3-0.2c-0.2-0.1-0.4-0.2-0.7-0.1c-0.1,0.8-0.5,1.5-1.2,1.9c-1,0.6-2.1,0.7-3.2,0.3c-0.5-0.1-0.9-0.4-1.3-0.7
			c-6.6,0-6.6-0.1-6.8-0.4c-0.1-0.2-0.1-0.5-0.1-0.7c0-0.1,0-0.6,0-0.7c-0.2,0-0.3,0.1-0.5,0.1c-1,0.6-1.9,1.4-2.7,2.3
			C230,232.8,229.1,233.7,228.4,233.7z M242.8,227.6c-0.1,0-0.2,0-0.3,0.1c-0.6,0.5-0.9,1.2-0.8,1.9c0,0.1,0.1,0.3,0.1,0.4
			c0.7-0.3,1.3-0.8,1.7-1.5c0.1-0.3,0-0.7-0.3-0.8C243.1,227.6,243,227.6,242.8,227.6L242.8,227.6z"/>
	</g>
</g>
<g id="freepik--character-2--inject-30">
	<rect x="90.2" y="253.9" class="st8" width="95.9" height="95.9"/>
	<rect x="90.2" y="253.9" class="st9" width="95.9" height="95.9"/>
	<rect x="95" y="258.7" class="st9" width="86.3" height="86.3"/>
	<g id="freepik--group--inject-30">
		<path class="st27" d="M178.8,321.2c-2.7-3.5-5.6-6.7-8.7-9.8c-3.5-3.3-9.1-3.2-12.4,0.4c-3.1,3.3-3.2,8.4-0.2,11.9l0.1,0.1
			c2.6,2.9,5.4,5.8,8,8.6c1.3,1.4,2.6,2.8,3.7,4.1c0.5,0.6,1.1,1.3,1.4,1.7c0,0.1,0.1,0.1,0.1,0.2c0,0.1,0,0.1,0,0.2
			c-0.1,0.8-0.2,1.6-0.4,2.3c-0.3,1.3-0.7,2.7-1.1,4.1h12v-20.3C180.5,323.5,179.7,322.3,178.8,321.2z"/>
		<path class="st8" d="M155.9,303c8.1,0.6,18.8,11.4,18.8,11.4c0.7,3.2-3.5,14.4-9.1,18.8c0,0-5.9,0.6-10-6
			C150.9,319.9,147.3,302.4,155.9,303z"/>
		<g class="st28">
			<path class="st1" d="M170.3,327.5c-1.2,2.1-2.9,4-4.8,5.6c-1.7,0.1-3.3-0.3-4.8-1.1c-2.2-1.1-4-2.8-5.2-4.9
				c-4.6-7.2-8.2-24.8,0.4-24.2c8.1,0.6,18.8,11.4,18.8,11.4C175.2,316.6,173.3,322.6,170.3,327.5z"/>
		</g>
		<path class="st19" d="M170.3,327.5c-1.2,2.1-2.9,4-4.8,5.6c-1.7,0.1-3.3-0.3-4.8-1.1c-2.2-4.8-3.7-10.6-3.1-15.7
			C157.7,316.3,166.4,319,170.3,327.5z"/>
		<path class="st8" d="M171.2,345h-62.8c0.3-2.4,0.5-4.9,0.8-7.4c0.2-1.8,0.3-3.6,0.4-5.5l0.1-1.3c0-0.1,0-0.1,0-0.2
			c0.1-0.9,0.1-1.8,0.1-2.6c0.1-1.1,0.1-2.2,0.1-3.3c0.2-4.6,0.1-9.2-0.2-13.8c-0.5-6.2,4.2-11.7,10.4-12.1c0.2,0,0.4,0,0.7,0
			c11.2,0,22.4,1.3,33.3,3.8c3.8,0.9,7.6,3.6,8.1,7.5C164.2,323.6,169.4,333.4,171.2,345z"/>
		<path class="st19" d="M122,319.8c0,0-2.9,13.2-12.8,17.8c0.4-4.2,0.7-8.6,0.8-13C116.4,321.8,122,319.8,122,319.8z"/>
		<path class="st29" d="M148.8,303.7c-0.5-1.5-1.6-2.8-2.9-3.6c-0.4-1.5-0.2-3,0.5-4.4l-15.7-7.4c0.6,5.6,1.1,10-1.3,12.4
			c3,2.4,8.4,6.7,14.9,7.3S149.6,306.1,148.8,303.7z"/>
		<path class="st19" d="M146.1,296.2l-12.1-2.3c3.3,4.6,8.9,6.9,11.8,5.6C145.6,298.4,145.8,297.3,146.1,296.2z"/>
		<path class="st8" d="M144.6,308.1l-2.4-2.6l-3.8,1.3C138.5,306.9,140.5,309.3,144.6,308.1z"/>
		<path class="st6" d="M144.6,308.1l-2.4-2.6l-3.8,1.3C138.5,306.9,140.5,309.3,144.6,308.1z"/>
		<path class="st8" d="M131,297.3c0,0,4.4,7.1,11.3,8.3c-2.6,1-4.7,3.1-5.5,5.8c0,0-8.2-3.7-8.7-13.1
			C128.8,297.5,129.9,297.1,131,297.3z"/>
		<path class="st8" d="M144.6,308.1l3.4-2.3l3.7,1.6C151.7,307.5,148.4,310.4,144.6,308.1z"/>
		<path class="st6" d="M144.6,308.1l3.4-2.3l3.7,1.6C151.7,307.5,148.4,310.4,144.6,308.1z"/>
		<path class="st8" d="M145.9,300.1c0,0,2.3,3.4,2.1,5.7c3.1,1.3,4,6.2,4,6.2s1.5-6.7-3.1-11C148,300.5,147,300.1,145.9,300.1z"/>
		<path class="st9" d="M131,297.3c0,0,4.4,7.1,11.3,8.3c-2.6,1-4.7,3.1-5.5,5.8c0,0-8.2-3.7-8.7-13.1
			C128.8,297.5,129.9,297.1,131,297.3z"/>
		<path class="st9" d="M145.9,300.1c0,0,2.3,3.4,2.1,5.7c3.1,1.3,4,6.2,4,6.2s1.5-6.7-3.1-11C148,300.5,147,300.1,145.9,300.1z"/>
		<path class="st5" d="M144.4,269.1c0,0,3.5,0.8,4.7,3s2.7,10.5,0.4,11.3s-9-1.5-9.3-4.4S144.4,269.1,144.4,269.1z"/>
		<path class="st29" d="M128.5,279.7c1,7.3,1.9,12.2,6.7,15.2c9.5,5.8,14.7,1.6,16-5.8c1.2-6.6-0.7-17.5-8.6-20
			S127.5,272.4,128.5,279.7z"/>
		<path class="st19" d="M140.1,280.3c-0.9-0.4-1.9-0.4-2.8,0C138.3,280.5,139.2,280.5,140.1,280.3z"/>
		<path class="st19" d="M140.1,281c-0.9-0.2-1.8,0.1-2.4,0.6C138.5,281.6,139.3,281.4,140.1,281z"/>
		<path class="st19" d="M147.2,273.7c-2.3-0.3-4.7-0.4-7-0.2C144.2,273.7,147.2,273.7,147.2,273.7z"/>
		<path class="st19" d="M148.2,274.5c0,0-5.3-0.1-7.9,0.7C143,275.1,145.6,274.8,148.2,274.5z"/>
		<path class="st5" d="M142.4,280.5c0,0.6,0.4,1.1,0.8,1.1s0.7-0.6,0.7-1.2s-0.4-1.1-0.8-1.1S142.4,279.9,142.4,280.5z"/>
		<path class="st5" d="M149.1,280.4c0,0.6,0.4,1.1,0.8,1.1s0.7-0.6,0.7-1.2s-0.4-1.1-0.8-1.1S149,279.7,149.1,280.4z"/>
		<path class="st5" d="M138.9,278.9c-0.1,0-0.1,0-0.2-0.1c-0.2-0.1-0.2-0.4-0.1-0.5c0,0,0,0,0,0c0.7-1,1.8-1.7,3-1.8
			c0.2,0,0.4,0.2,0.4,0.4c0,0,0,0,0,0c0,0.2-0.2,0.4-0.4,0.4c0,0,0,0,0,0l0,0c-1,0.1-1.8,0.6-2.4,1.4
			C139.2,278.9,139,278.9,138.9,278.9z"/>
		<path class="st5" d="M151.5,278.5c-0.1,0-0.2-0.1-0.3-0.1c-0.5-0.8-1.4-1.3-2.4-1.3c-0.2,0-0.4-0.1-0.4-0.3c0,0,0,0,0,0
			c0-0.2,0.1-0.4,0.4-0.4c0,0,0,0,0,0c1.2,0,2.3,0.6,3,1.6c0.1,0.2,0.1,0.4-0.1,0.5c0,0,0,0,0,0
			C151.6,278.4,151.6,278.4,151.5,278.5z"/>
		<path class="st5" d="M149.9,288.7c0,0-2.7-0.6-10.2-0.4c0.9,2.2,2.6,4.1,6.5,4c1.9,0.1,3.6-1.3,3.8-3.2
			C149.9,289,149.9,288.8,149.9,288.7z"/>
		<path class="st21" d="M144.3,290.5c1.5-0.1,3,0.2,4.2,1c-0.7,0.5-1.6,0.7-2.4,0.7c-1.5,0.1-3-0.2-4.2-1
			C142.6,290.8,143.5,290.5,144.3,290.5z"/>
		<path class="st1" d="M149.6,288.7c-0.1,0.6-0.6,1-1.2,1.1c-2.2,0-4.5-0.1-6.7-0.4c-0.7,0-1.4-0.5-1.7-1.1
			C143.2,288.2,146.4,288.3,149.6,288.7z"/>
		<path class="st5" d="M142.1,266.1c-2.3-1-12.7,0.6-15.7,5.3c-2.9,4.5-2.9,10.2-0.1,14.8c2.2,0.7,4.3,1.3,6.6,1.7
			c3.3,0.6,3.6-8.7,1.7-11c0,0-0.2-0.1-0.4-0.3c-1.1-0.9-3-2.5-2.9-3.3s3.7-3.9,5.9-3.7s4.7,1.2,6.1,1.3c0.7,0,1.5,0,2.2-0.2
			C145.5,270.5,144.4,267.1,142.1,266.1z"/>
		<path class="st29" d="M126,287.8c1.2,1.6,2.9,2.7,4.9,3c2.6,0.4,3.6-2,2.7-4.3c-0.9-2.1-3.3-4.8-5.8-4.1c-1.8,0.5-2.9,2.3-2.4,4.2
			C125.5,286.9,125.7,287.4,126,287.8z"/>
		<path class="st5" d="M135.6,284c0,0,0.1,3.5,0.7,4.3s2.8-1.8,3.7-2.5s6.4,1,6.4,1c0,0.2,0,0.5-0.1,0.7c-2.1,0.1-4.1,0.1-6.2-0.1
			c-0.6-0.2-2.9,2.6-0.7,5.1s4.4,2.8,5.3,2.5s0.5-1.8,0.5-1.8l1.7,0c0,0-0.1,1.5,0.6,1.9s2.6-3,3-4.9s-0.5-2.7-3.1-2.4l-0.1-1.1
			c0,0,3.4-1,3.7-0.7c0.8,0.7,1,4.2,0.4,6.2s-2.4,6.1-6.9,6s-8.3-1.7-10.6-4.2s0-6.5,0-6.5L135.6,284z"/>
		<path class="st30" d="M146.9,281l0.2,5.4c0.6,0.1,1.3,0.1,1.9,0c0.4-0.1,0.6-0.5,0.5-0.9c0-0.1-0.1-0.3-0.2-0.4
			C148.3,284,147.4,282.5,146.9,281z"/>
		<path class="st27" d="M120.9,318.8l-3.8,5.8c-1.3,1.9-2.5,3.9-3.7,5.8s-2.3,3.8-3.1,5.6c-0.4,0.9-0.8,1.7-1,2.3
			c-0.1,0.3-0.2,0.5-0.2,0.5s0-0.3-0.3-1.2c0-0.1-0.1-0.3-0.2-0.4l-0.1-0.2l-0.2-0.3c-0.1-0.2-0.2-0.4-0.4-0.6
			c-0.2-0.3-0.4-0.5-0.6-0.8c-0.2-0.2-0.3-0.3-0.5-0.5c-0.3-0.3-0.6-0.5-0.9-0.6c-0.2-0.1,0,0.1,0.3,0.2c0.8,0.4,1.7,0.7,2.6,0.9
			c2.1,0.5,4.3,1,6.7,1.5c4.6,0.9,9.5,1.7,14.3,2.7h0.1c2.4,0.5,3.9,2.9,3.4,5.3c-0.4,1.7-1.7,3.1-3.5,3.4c-5,1-10.1,1.6-15.2,1.9
			c-2.7,0.1-5.3,0.1-8-0.1c-1.5-0.1-3.1-0.3-4.6-0.7c-1.1-0.2-2.1-0.6-3.1-1.1c-0.9-0.4-1.7-0.9-2.5-1.6c-0.3-0.3-0.6-0.5-0.8-0.8
			c-0.3-0.4-0.6-0.8-0.9-1.2c-0.2-0.2-0.3-0.5-0.4-0.8l-0.2-0.4l-0.2-0.3c-0.1-0.3-0.2-0.5-0.3-0.8c-0.5-1.6-0.7-3.2-0.6-4.9
			c0.1-1.1,0.2-2.1,0.4-3.1c0.3-1.6,0.8-3.2,1.4-4.7c1-2.6,2.1-5.2,3.4-7.6c1.2-2.4,2.6-4.6,3.9-6.8c0.7-1.1,1.4-2.2,2.1-3.3
			s1.5-2.1,2.3-3.2c3.2-3.7,8.7-4.1,12.4-0.9c3.2,2.7,4,7.3,1.9,10.9L120.9,318.8z"/>
		<path class="st8" d="M117.8,299.1c-9.4,2.8-20.6,17.5-20.6,17.5c0.3,5.2,10.6,14.2,17.2,14.6c0,0,6.5-6.1,9.1-13.3
			C126.1,310.4,121.9,300.2,117.8,299.1z"/>
		<g class="st28">
			<path class="st1" d="M117.8,299.1c-9.4,2.8-20.6,17.5-20.6,17.5c0.3,5.2,10.6,14.2,17.2,14.6c0,0,6.5-6.1,9.1-13.3
				C126.1,310.4,121.9,300.2,117.8,299.1z"/>
		</g>
		<path class="st29" d="M129.6,339.5l-2,4.7c-0.3,5.3,6.6,4.5,6.6,4.5l3.5,0.9c1.3,0.3,2.6-0.4,3.1-1.7l1.4-3.2
			c0.7-1.3,0.2-3-1.1-3.8l-2.9-1.3c-0.8-0.4-1.8-0.6-2.7-0.5L129.6,339.5z"/>
	</g>
	<path class="st3" d="M159.7,358.4L159.7,358.4c-0.7,0-1.3-0.6-1.3-1.3V356h-39.2v1.1c0,0.7-0.6,1.3-1.3,1.3l0,0c-2,0-3.7,1.5-4,3.5
		c-0.2,2.1,1.4,4,3.5,4.2c0.1,0,0.2,0,0.4,0h0.2c0.7,0,1.3,0.6,1.3,1.3c0,0,0,0,0,0v1.1h39.2v-1.1c0-0.7,0.6-1.3,1.3-1.3h0.2
		c2.1,0,3.9-1.7,3.9-3.8c0-0.1,0-0.3,0-0.4C163.4,359.9,161.7,358.4,159.7,358.4z"/>
	<path class="st19" d="M161,361.2c0.6,0.5,0.6,1.4,0,2c-0.5,0.5-1.3,0.6-1.9,0.1c-0.6-0.5-0.6-1.4,0-2
		C159.6,360.8,160.4,360.8,161,361.2z"/>
	
		<rect x="159.8" y="361.2" transform="matrix(0.6669 -0.7451 0.7451 0.6669 -216.6524 239.9124)" class="st19" width="0.5" height="2.1"/>
	<path class="st19" d="M117.8,363.6c-0.7,0.2-1.5-0.2-1.7-0.9s0.2-1.5,0.9-1.7c0.7-0.2,1.5,0.2,1.7,0.9c0,0,0,0,0,0
		C119,362.6,118.6,363.4,117.8,363.6C117.9,363.6,117.9,363.6,117.8,363.6z"/>
	
		<rect x="116.4" y="362" transform="matrix(0.9569 -0.2904 0.2904 0.9569 -100.129 49.7079)" class="st19" width="2.1" height="0.5"/>
	<g class="st22">
		<path class="st1" d="M137.9,365.4c-0.1,0-0.3-0.1-0.4-0.1c-0.4-0.4-0.4-1.5-0.2-2.2c-0.4,0.5-0.7,0.7-1.1,0.6
			c-0.7-0.2-0.7-1-0.6-1.4c0-0.1,0-0.3,0-0.4h-0.1c-0.4,0.1-1.3,1-1.9,1.7c-0.9,1-1.3,1.5-1.9,1.5c-0.2,0-0.4-0.1-0.5-0.3
			c-0.2-0.3-0.2-0.6-0.1-0.9c-0.6,0.1-1.3,0-1.9-0.3c-0.2-0.1-0.5-0.2-0.8-0.3c-0.1,0.3-0.3,0.5-0.4,0.7c-0.2,0.2-0.5,0.3-0.8,0.1
			c-0.3-0.1-0.4-0.4-0.5-0.7c0-0.4,0.2-0.7,0.5-0.9c0.2-0.1,0.3-0.2,0.5-0.2c0.2-0.6,0.3-1.3,0.1-1.9c0-0.2-0.2-0.4-0.5-0.3
			c-1.2,0-2.8,2.8-3.6,4.6l-0.9-0.4c0.2-0.5,2.2-5.2,4.4-5.2c0.6,0,1.2,0.4,1.3,0.9c0.2,0.8,0.2,1.6,0,2.3c0.3,0.1,0.6,0.2,0.9,0.3
			c0.5,0.3,1.2,0.3,1.8,0.1c0.2-0.6,0.5-1.1,0.9-1.6c0.1-0.1,0.5-0.6,0.9-0.4c0.3,0.1,0.4,0.4,0.4,0.7c-0.1,0.8-0.6,1.6-1.4,2
			c0,0.1-0.1,0.2-0.1,0.3c0.2-0.2,0.6-0.6,0.8-0.9c0.8-0.9,1.7-1.9,2.5-2c0.3-0.1,0.6,0,0.9,0.2c0.3,0.3,0.4,0.8,0.3,1.2
			c0,0.1,0,0.1,0,0.2c0.2-0.2,0.4-0.6,0.6-0.8c0.5-0.8,0.9-1.4,1.5-1.5c0.3,0,0.5,0.1,0.7,0.3c0.3,0.4,0.4,0.8,0.4,1.3
			c1.7,0.1,3.4,0.1,5.1-0.1c0.4-0.1,0.5-0.4,0.8-0.8s0.4-0.7,0.8-0.8c0.3-0.1,0.6,0,0.8,0.2c0.7,0.5,0.7,1,0.6,1.3
			c0.2-0.1,0.5-0.1,0.7,0c1.9,0.1,3.9,0.1,5.8,0v1c-0.9,0-5.3,0.2-6.1,0c-0.1,0-0.5,0.3-0.6,0.4s-0.5,0.5-0.9,0.3
			c-0.2-0.2-0.4-0.5-0.3-0.7c0-0.3,0.2-0.6,0.3-0.9c0.1-0.1,0.1-0.2,0.1-0.3l0,0c0,0,0-0.1-0.2-0.2h-0.1c0,0.1-0.1,0.2-0.2,0.3
			c-0.2,0.6-0.8,1.1-1.4,1.2c-1.8,0.2-3.6,0.3-5.4,0.1c-0.1,0.9-0.5,1.8-1.2,2.5C138.1,365.5,138,365.5,137.9,365.4z M138.3,362.8
			c-0.2,0.4-0.3,0.8-0.2,1.2c0.2-0.4,0.3-0.8,0.4-1.2L138.3,362.8z M138.2,361.8h0.1h0.2c0-0.2,0-0.4-0.1-0.5
			c-0.2,0.2-0.3,0.3-0.4,0.5L138.2,361.8z"/>
	</g>
</g>
<g id="freepik--character-1--inject-30">
	<rect x="77.2" y="121.5" class="st8" width="95.9" height="95.9"/>
	<rect x="77.2" y="121.5" class="st9" width="95.9" height="95.9"/>
	<rect x="82" y="126.3" class="st9" width="86.3" height="86.3"/>
	<path class="st16" d="M139.3,187.7c1.2,1.1,2.7,2.4,4,3.6s2.8,2.3,4.2,3.4c1.4,1,2.8,2,4.2,2.9c1.1,0.7,2.4,1.2,3.6,1.6h0.1
		c-0.1,0-0.3,0-0.4,0c-0.3,0-0.5,0.1-0.7,0.3c-0.4,0.2-0.4,0.3-0.3,0.3c0.4-0.4,0.7-0.8,0.9-1.3c0.7-1.5,1.3-3.1,1.7-4.8
		c1-3.5,1.8-7.3,2.6-10.9v-0.1c0.3-1.4,1.7-2.2,3-1.9c1.1,0.2,1.8,1.1,2,2.2c0.4,4.1,0.4,8.1,0,12.2c-0.2,2.2-0.6,4.4-1.3,6.5
		c-0.4,1.4-1.1,2.6-1.9,3.8c-0.7,0.9-1.5,1.6-2.5,2.2c-0.7,0.4-1.4,0.6-2.1,0.7c-0.4,0.1-0.8,0.1-1.2,0.1h-0.6
		c-2.6-0.2-5-0.9-7.3-2.1c-2-1-3.8-2.1-5.6-3.3c-1.7-1.2-3.4-2.4-5-3.8c-1.6-1.4-3.1-2.6-4.6-4.2c-1.9-2-1.9-5.3,0.1-7.2
		c1.9-1.8,4.9-1.9,6.9-0.1L139.3,187.7z"/>
	<path class="st8" d="M130.1,182.8c8.2-1.5,11.4,3.2,21,11.4c-0.5,5.2-3.3,9.9-7.7,12.8C143.3,207,123.3,193.9,130.1,182.8z"/>
	<path class="st19" d="M130.4,193.9c3.5,6.4,10.9,11.7,12.6,12.8c-0.6-2.9-2.4-9.1-7.8-13C133.8,192.6,131.7,192.6,130.4,193.9z"/>
	<path class="st5" d="M131.3,149.7c0,0,7.3,18.3,0,34.3s-27.9,6.4-30,2.6s2.7-11.6,2.7-18.8s-2.3-11.2-0.4-16.9
		C107.6,138.7,131.3,149.7,131.3,149.7z"/>
	<path class="st5" d="M140.5,212.6h-34.7c-0.1-0.7-0.1-1.5-0.2-2.2c-0.3-3.7-0.8-7.2-1.2-10.3c-0.8-5.6-1.8-11.1-3.2-16.5
		c17.8-8.6,34.5-0.7,34.5-0.7C139.9,189,140.7,201.5,140.5,212.6z"/>
	<path class="st23" d="M140.5,212.6h-34.7c-0.1-0.7-0.1-1.5-0.2-2.2c-0.3-3.7-0.8-7.2-1.2-10.3c-0.8-5.6-1.8-11.1-3.2-16.5
		c17.8-8.6,34.5-0.7,34.5-0.7C139.9,189,140.7,201.5,140.5,212.6z"/>
	<path class="st19" d="M104.4,200.1c0.4,3.1,0.9,6.6,1.2,10.3c2.4-5.6,2.7-11.8,0.9-17.6L104.4,200.1z"/>
	<path class="st8" d="M118,177.3c-10.2,0-11.5,8.4-11.5,8.4l4.8-2.1l14,9.4l3.4-9.5l4.3,0.8C133.1,184.4,126.9,177.3,118,177.3z"/>
	<path class="st18" d="M124.9,192.5L111.7,181c3.2-3.3,1.6-12.3,0.2-17.2l10,8c-0.7,3.8-0.5,7.9,5.1,9.2
		C127,181,124.9,192.4,124.9,192.5z"/>
	<path class="st19" d="M116,167.1l5.9,4.7c-0.2,0.9-0.3,1.8-0.3,2.7c-2.1-0.3-5.2-2.6-5.6-4.8C115.9,168.8,115.9,167.9,116,167.1z"
		/>
	<path class="st18" d="M109.3,152c-0.2,8.1-0.4,11.5,3.2,16.2c5.5,7,15.3,6,17.9-1.7c2.3-7,2.2-19-5.2-23.3
		c-4.9-3-11.3-1.5-14.3,3.4C109.9,148.2,109.3,150.1,109.3,152z"/>
	<path class="st5" d="M117.2,147.8c-5.5,4.6,2,12.9-6.8,10.6s-2.5-13.9,3.3-15.6S117.2,147.8,117.2,147.8z"/>
	<path class="st5" d="M121.4,155.9c0,0.7,0.3,1.3,0.7,1.3s0.8-0.4,0.9-1.1s-0.3-1.3-0.7-1.3S121.4,155.2,121.4,155.9z"/>
	<path class="st5" d="M129.4,157.1c0,0.7,0.3,1.3,0.7,1.3s0.8-0.4,0.9-1.1s-0.3-1.3-0.7-1.3S129.5,156.4,129.4,157.1z"/>
	<path class="st5" d="M130.1,156l1.6-0.2C131.7,155.8,130.8,156.9,130.1,156z"/>
	<path class="st20" d="M127.1,157.9c0.5,1.6,1.1,3.2,2,4.6c-0.7,0.4-1.6,0.5-2.4,0.1L127.1,157.9z"/>
	<path class="st5" d="M122.8,164.7c0.4,0.1,0.7,0.2,1.1,0.2c0.1,0,0.2-0.1,0.2-0.2c0,0,0,0,0,0c0-0.1-0.1-0.2-0.2-0.2
		c-1.7-0.2-3.2-1.2-4.1-2.7c0-0.1-0.2-0.1-0.3-0.1c0,0,0,0,0,0c-0.1,0-0.1,0.1-0.1,0.2c0,0,0,0,0,0
		C120.3,163.3,121.4,164.2,122.8,164.7z"/>
	<path class="st18" d="M107,159.3c0.4,1.5,1.3,2.8,2.7,3.6c1.7,0.9,2.9-1,2.8-3.2c-0.2-2-1.2-4.8-3.1-4.7S106.4,157.3,107,159.3z"/>
	<path class="st5" d="M119.9,151.9c0.1,0,0.2,0,0.3-0.1c0.8-0.6,1.8-0.8,2.7-0.4c0.2,0.1,0.4,0,0.5-0.2c0,0,0,0,0-0.1
		c0.1-0.2,0-0.4-0.2-0.5c-1.2-0.4-2.5-0.2-3.4,0.5c-0.2,0.1-0.2,0.4-0.1,0.6C119.7,151.8,119.8,151.9,119.9,151.9z"/>
	<path class="st5" d="M132,153.7c0.1,0,0.2,0,0.3,0c0.2-0.1,0.2-0.4,0.1-0.5c0,0,0,0,0,0c-0.6-1.2-1.7-2-3-2.2
		c-0.2,0-0.4,0.1-0.4,0.3c0,0,0,0,0,0c0,0.2,0.2,0.4,0.4,0.4c1,0.2,1.9,0.8,2.3,1.7C131.8,153.6,131.9,153.7,132,153.7z"/>
	<path class="st5" d="M122,154.8l1.6-0.2C123.6,154.5,122.8,155.7,122,154.8z"/>
	<path class="st5" d="M121.8,144.7c0,0-4.6,9.9-12.5,9.4s-3.7-11.4,7.4-13.4s17.6,8.1,17.6,10.4c-0.1,1.5-1,2.7-2.4,3.3
		C132,154.5,129.8,146.6,121.8,144.7z"/>
	<path class="st16" d="M104.5,196.4c-1.6,3.1-3.2,6.3-4.7,9.4c-0.7,1.6-1.5,3.1-2.1,4.6c-0.3,0.7-0.5,1.4-0.7,2
		c-0.1,0.2-0.1,0.5-0.1,0.4s0-0.1-0.1-0.6c-0.1-0.3-0.2-0.6-0.4-0.9c-0.1-0.2-0.3-0.4-0.5-0.6c-0.1-0.1-0.2-0.2-0.3-0.3
		c-0.8-0.5-0.8-0.4-0.8-0.4c0.2,0.1,0.4,0.1,0.6,0.1c0.7,0.1,1.4,0.1,2.2,0.1c1.6,0,3.3-0.1,5-0.3c3.5-0.3,7-0.8,10.6-1.2h0.1
		c1.4-0.2,2.7,0.8,2.8,2.2c0.1,1.1-0.5,2.2-1.5,2.6c-3.4,1.5-6.9,2.8-10.6,3.8c-1.9,0.5-3.8,1-5.7,1.3c-1.1,0.2-2.2,0.3-3.3,0.3
		c-0.7,0-1.4,0-2.1-0.1c-1.2-0.2-2.3-0.6-3.3-1.4c-0.2-0.2-0.4-0.3-0.6-0.5c-0.3-0.3-0.5-0.6-0.7-0.9c-0.3-0.5-0.5-1-0.7-1.5
		c-0.2-0.6-0.3-1.3-0.3-1.9c0-0.8,0.1-1.5,0.2-2.3c0.2-1.1,0.5-2.2,0.8-3.2c0.6-1.9,1.2-3.7,2-5.5c1.5-3.5,3.1-6.8,5-10.1
		c1.3-2.5,4.4-3.4,6.9-2.1S105.8,193.8,104.5,196.4L104.5,196.4L104.5,196.4z"/>
	<path class="st8" d="M103.2,182.8c-5.5,0.8-8.5,5.1-13,16.1c5.2,8.9,12.9,10.1,12.9,10.1S110.7,195.6,103.2,182.8z"/>
	<path class="st31" d="M125.1,195.9c0,0.4,0.3,0.6,0.6,0.6s0.6-0.3,0.6-0.6c0-0.4-0.3-0.6-0.6-0.6l0,0
		C125.3,195.2,125.1,195.5,125.1,195.9z"/>
	<path class="st31" d="M126.3,205.3c0,0.4,0.3,0.6,0.6,0.6c0.4,0,0.6-0.3,0.6-0.6c0,0,0,0,0,0c0-0.4-0.3-0.6-0.6-0.6
		C126.6,204.7,126.3,205,126.3,205.3C126.3,205.3,126.3,205.3,126.3,205.3z"/>
	<path class="st18" d="M159.5,182.2l-0.6-7.1l7.3,2.8c0,0,0.1,6.3-3.1,6.3L159.5,182.2z"/>
	<polygon class="st18" points="162.1,168.9 167.6,173.4 166.3,177.9 158.9,175.1 	"/>
	<path class="st18" d="M113.6,208.7l8.3-0.7l-1.9,5.5c0,0-6,2-6.9-1.2L113.6,208.7z"/>
	<polygon class="st18" points="126.3,212.6 121.9,215.1 120,213.6 121.9,208.1 	"/>
	<path class="st3" d="M146.1,226L146.1,226c-0.7,0-1.3-0.6-1.3-1.3c0,0,0,0,0,0v-1.1h-39.2v1.1c0,0.7-0.6,1.3-1.3,1.3c0,0,0,0,0,0
		l0,0c-2,0-3.7,1.5-4,3.5c-0.2,2.1,1.3,4,3.5,4.2c0.1,0,0.3,0,0.4,0h0.2c0.7,0,1.3,0.6,1.3,1.3v1.1h39.2V235c0-0.7,0.6-1.3,1.3-1.3
		l0,0h0.2c2.1,0,3.9-1.7,3.9-3.8c0-0.1,0-0.3,0-0.4C149.8,227.5,148.1,226,146.1,226z"/>
	<path class="st19" d="M147.4,228.8c0.6,0.5,0.7,1.4,0.2,1.9c0,0,0,0,0,0.1c-0.5,0.6-1.4,0.6-2,0.1c0,0,0,0,0,0
		c-0.5-0.6-0.5-1.4,0.1-2C146.1,228.5,146.8,228.5,147.4,228.8L147.4,228.8z"/>
	
		<rect x="146.2" y="228.8" transform="matrix(0.6669 -0.7451 0.7451 0.6669 -122.5111 185.7159)" class="st19" width="0.5" height="2.1"/>
	<path class="st19" d="M104.3,231.2c-0.7,0.2-1.5-0.2-1.7-0.9s0.2-1.5,0.9-1.7c0.7-0.2,1.5,0.2,1.7,0.9c0,0,0,0,0,0
		C105.4,230.2,105,231,104.3,231.2z"/>
	
		<rect x="102.8" y="229.6" transform="matrix(0.9569 -0.2904 0.2904 0.9569 -62.2695 40.0649)" class="st19" width="2.1" height="0.5"/>
	<g class="st22">
		<path class="st1" d="M129.6,233.8c-0.1,0-0.3,0-0.4-0.1c-0.2-0.1-0.4-0.3-0.5-0.5c-0.2-0.6,0.2-1.9,0.6-2.8
			c-1.3,0.1-2.6,0.1-3.9-0.1c-0.3,0-0.6-0.1-0.9-0.2c-1.5,0.6-3.1,0.7-4.6,0.3c-0.7,0.4-1.4,0.7-2.2,1c-1.2,0.5-4.2,1.5-4.9,0.8
			c-0.4-0.4-0.3-1.1-0.1-1.9h-4.1v-1h4.4c0.3-0.9,0.8-1.7,1.3-2.4c1.2-1.5,2.1-1.3,2.5-1.1c0.6,0.3,0.9,1.1,0.7,1.8
			c-0.6,1.5-2,2.6-3.6,2.7h-0.3c-0.2,0.4-0.2,0.8-0.2,1.2c1.8-0.2,3.6-0.7,5.3-1.6l0,0c-0.6-0.3-0.8-1.1-0.5-1.6
			c0.4-0.7,1.5-1,2.8-0.3c0.3,0.1,0.5,0.5,0.5,0.8c-0.1,0.4-0.3,0.7-0.6,0.9c0.8,0.1,1.6,0,2.3-0.2c-0.5-0.4-0.7-1.1-0.7-1.7
			c0-0.4,0.2-0.7,0.6-0.8c0.9-0.1,1.7,0.2,2.3,0.9c0.3,0.4,0.3,1,0,1.4l0,0l0,0c1.5,0.1,3,0.1,4.5,0l0.9-0.1l-0.4,0.8
			c-0.5,0.8-0.8,1.7-1,2.7h0.1c1-0.5,2.2-4.3,2.6-5.7c0.4-1.2,0.4-1.3,0.8-1.3h0.4l0.1,0.4c0.1,0.2,0,0.6-0.3,1.6
			c-0.3,0.8-0.5,1.6-0.6,2.4c0.4,0,1-0.1,1.6-0.2c2.1-0.3,4.1-0.5,6.2-0.6v1c-2,0.1-4.1,0.3-6.1,0.6c-0.7,0.1-1.3,0.2-2,0.2
			c-0.2,0-0.3-0.1-0.4-0.1c-0.3,1.1-1,2.1-1.9,2.8C129.9,233.7,129.8,233.8,129.6,233.8z M119.6,228.6c-0.2,0-0.4,0-0.5,0.2
			c0,0.1,0.1,0.3,0.5,0.6c0.1,0,0.1,0.1,0.2,0.1c0.3-0.2,0.5-0.3,0.8-0.6C120.3,228.7,119.9,228.6,119.6,228.6L119.6,228.6z
			 M116.2,226.6c-0.2,0-0.5,0.2-0.6,0.4c-0.7,0.7-1.2,1.5-1.6,2.4c1.1-0.2,2.1-0.9,2.6-2c0.1-0.3,0-0.6-0.3-0.7
			C116.3,226.7,116.2,226.7,116.2,226.6L116.2,226.6z M123.7,228c0,0.5,0.3,1,0.8,1.1c0.1-0.1,0.2-0.2,0.3-0.3c0-0.1,0.1-0.2,0-0.3
			C124.5,228.2,124.1,228,123.7,228L123.7,228z"/>
	</g>
</g>
<g id="freepik--speech-bubble-2--inject-30">
	<path class="st3" d="M335.2,177.8h28c3.2,0,5.8,2.6,5.8,5.8l0,0v16.4c0,3.2-2.6,5.8-5.8,5.8c0,0,0,0,0,0h-5.5l4.6,9.1l-8.5-9.1
		h-18.6c-3.2,0-5.8-2.6-5.8-5.8c0,0,0,0,0,0v-16.4C329.5,180.4,332.1,177.8,335.2,177.8L335.2,177.8z"/>
	<circle class="st1" cx="340.9" cy="192.4" r="1.8"/>
	<circle class="st1" cx="349.2" cy="192.4" r="1.8"/>
	<path class="st1" d="M359.3,192.4c0,1-0.8,1.8-1.8,1.8c-1,0-1.8-0.8-1.8-1.8c0-1,0.8-1.8,1.8-1.8l0,0
		C358.5,190.6,359.3,191.4,359.3,192.4z"/>
</g>
<g id="freepik--speech-bubble-1--inject-30">
	<path class="st3" d="M193.3,245h-28c-3.2,0-5.8,2.6-5.8,5.8v16.4c0,3.2,2.6,5.8,5.8,5.8l0,0h5.5l-4.6,9.1l8.5-9.1h18.6
		c3.2,0,5.8-2.6,5.8-5.8l0,0v-16.4C199,247.6,196.4,245,193.3,245z"/>
	<circle class="st1" cx="187.6" cy="259.6" r="1.8"/>
	<circle class="st1" cx="179.3" cy="259.6" r="1.8"/>
	<circle class="st1" cx="171" cy="259.6" r="1.8"/>
</g>
</svg>
