<?xml version="1.0" encoding="utf-8"?>
<!-- Generator: Adobe Illustrator 26.0.2, SVG Export Plug-In . SVG Version: 6.00 Build 0)  -->
<svg version="1.1" id="Layer_1" xmlns="http://www.w3.org/2000/svg" xmlns:xlink="http://www.w3.org/1999/xlink" x="0px" y="0px"
	 viewBox="0 0 750 500" style="enable-background:new 0 0 750 500;" xml:space="preserve">
<style type="text/css">
	.st0{fill:#E7ECF1;}
	.st1{fill:#E0E0E0;}
	.st2{fill:#F5F5F5;}
	.st3{fill:#FFFFFF;}
	.st4{fill:#FAFAFA;}
	.st5{fill:#263238;}
	.st6{fill:#FFBE9D;}
	.st7{fill:#455A64;}
	.st8{fill:#2F4B59;}
	.st9{opacity:0.3;}
	.st10{fill:#EF3F3D;}
	.st11{fill:#EB996E;}
	.st12{fill:#B78876;}
	.st13{fill:#AA6550;}
	.st14{opacity:0.5;}
	.st15{opacity:0.2;}
</style>
<g id="freepik--background-complete--inject-72">
	<path class="st0" d="M347.3,444.1c12.8-8.9,15.7-25.5,15.2-40.5c-0.1-2.5,0.2-5.1-1-7.3s-4-3.7-6.2-2.6c-1.9,0.9-2.6,3-3.7,4.8
		c-1.4,2.4-3.4,4.3-5.8,5.6c-1.6,0.8-3.5,1.3-5.1,0.5c-2.1-1.2-2.4-4.1-2.4-6.6l0.1-13.8c0.1-2.5-0.1-5-0.8-7.4
		c-0.7-2.4-2.5-4.4-4.8-5.2c-2.4-0.7-5.3,0.7-5.8,3.1c-0.1,1-0.1,2.1-0.1,3.1c0,1.1-0.6,2-1.5,2.5c-1,0.3-2-0.4-2.7-1.1
		c-2.4-2.6-4.4-5.6-5.9-8.9c-1.5-3.3-3.3-6.4-5.5-9.2c-2.3-2.7-5.5-4.9-9.1-5.1s-7.3,2-8.2,5.5s1.1,7,3.4,9.9
		c3.3,4.2,7.2,7.9,11.5,11c0.8,0.5,1.5,1.2,1.9,2.1c0.5,1.7-1,3.3-2.7,3.8c-1.9,0.6-3.9,0.4-5.8,0.6s-4,1.1-4.8,2.9
		c-1,2.5,1.1,5.2,3.2,6.9c4.2,3.5,8.9,6.2,14,8.1c1.9,0.5,3.6,1.4,5.2,2.5c1.5,1.3,2.4,3.5,1.5,5.2s-3.2,2.3-5.1,2s-3.6-1.4-5.4-2.1
		c-3.4-1.3-7.8-1-10,1.9c-1.4,2.1-1.7,4.6-0.8,6.9c0.8,2.3,2.1,4.3,3.8,6.1c5.4,6.5,12.4,11.4,20.3,14.3
		C332.1,446.3,339.4,447,347.3,444.1"/>
	<path class="st1" d="M347.5,455.2c-0.7-6.9-2.1-13.8-4-20.4c-2.5-8.1-5.4-16.1-8.8-23.9c-0.9-2.1-1.8-4.1-2.6-6.1
		c-0.9-2-1.7-4-2.7-5.9c-1.9-3.6-3.9-7.2-6.2-10.6c-2.1-3.3-4.3-6.3-6.3-9.1s-4-5.4-5.8-7.7c-2.9-3.6-6.1-7-9.6-10.1
		c-1.2-1.1-2.2-1.9-2.9-2.5l-0.8-0.6l-0.3-0.2c0.1,0.1,0.2,0.2,0.2,0.2l0.7,0.7c0.6,0.6,1.6,1.4,2.8,2.5c3.4,3.2,6.6,6.6,9.5,10.2
		c1.8,2.3,3.8,4.9,5.8,7.7s4.1,5.9,6.2,9.1c2.2,3.4,4.3,7,6.1,10.6c1,1.9,1.8,3.9,2.7,5.9s1.7,4.1,2.6,6.1
		c3.4,7.8,6.3,15.7,8.8,23.8c2,6.6,3.4,13.4,4.1,20.3"/>
	<path class="st1" d="M329.2,398.8c0.1-0.3,0.2-0.7,0.2-1c0.1-0.7,0.3-1.7,0.5-2.9c0.4-2.5,0.7-5.9,1.1-9.7s0.8-7.2,1.2-9.6
		c0.2-1.2,0.4-2.2,0.5-2.9c0.1-0.4,0.1-0.7,0.1-1.1c-0.1,0.3-0.2,0.7-0.3,1c-0.2,0.7-0.4,1.7-0.6,2.9c-0.5,2.5-0.9,5.9-1.3,9.6
		s-0.7,7.1-1,9.7c-0.1,1.2-0.2,2.1-0.3,2.9C329.1,398.1,329.1,398.4,329.2,398.8z"/>
	<path class="st1" d="M297.3,392.8c0.4,0.1,0.8,0.1,1.3,0.2c0.8,0.1,2,0.2,3.5,0.3c2.9,0.3,6.9,0.9,11.3,1.7s8.4,1.8,11.2,2.5
		c1.4,0.4,2.6,0.7,3.4,0.9c0.4,0.1,0.8,0.2,1.2,0.3c-0.4-0.2-0.8-0.3-1.2-0.5c-0.8-0.3-1.9-0.6-3.3-1.1c-2.8-0.8-6.8-1.8-11.2-2.7
		c-3.8-0.7-7.6-1.2-11.4-1.6c-1.5-0.1-2.7-0.2-3.5-0.2C298.2,392.8,297.7,392.8,297.3,392.8z"/>
	<path class="st1" d="M343,434.2c0.1-0.1,0.2-0.3,0.2-0.4c0.1-0.3,0.3-0.7,0.5-1.1c0.5-1,1.1-2.5,1.9-4.3c1.5-3.6,3.5-8.8,5.6-14.4
		s4-10.8,5.5-14.5c0.7-1.8,1.3-3.3,1.7-4.4l0.5-1.2c0.1-0.1,0.1-0.3,0.1-0.4c-0.1,0.1-0.2,0.3-0.2,0.4c-0.1,0.3-0.3,0.7-0.5,1.1
		c-0.5,1-1.1,2.5-1.9,4.3c-1.5,3.6-3.5,8.8-5.6,14.4s-4,10.8-5.5,14.5c-0.7,1.8-1.3,3.3-1.7,4.4l-0.5,1.2
		C343.1,434,343,434.1,343,434.2z"/>
	<path class="st1" d="M300.7,420.5c0.1,0.1,0.3,0.1,0.4,0.2l1.2,0.4l4.5,1.5c3.8,1.2,9.1,3,14.9,5s11.1,3.7,15,4.9
		c1.9,0.6,3.5,1,4.6,1.3l1.2,0.3c0.1,0.1,0.3,0.1,0.5,0.1c-0.1-0.1-0.3-0.1-0.4-0.2l-1.2-0.4l-4.5-1.5c-3.8-1.2-9.1-3-14.9-5
		s-11.1-3.7-15-4.9c-1.9-0.6-3.5-1-4.6-1.3l-1.2-0.3C301,420.6,300.9,420.5,300.7,420.5z"/>
	<rect x="461.7" y="215.9" class="st0" width="84.4" height="69.5"/>
	<rect x="449.4" y="262.7" class="st2" width="92.3" height="22.9"/>
	<path class="st1" d="M478.6,268.8c0,0.6-0.4,1-1,1s-1-0.4-1-1s0.4-1,1-1S478.6,268.3,478.6,268.8z"/>
	<path class="st1" d="M483.2,268.8c0,0.6-0.4,1-1,1s-1-0.4-1-1c0-0.5,0.4-1,1-1C482.7,267.8,483.2,268.2,483.2,268.8
		C483.2,268.8,483.2,268.8,483.2,268.8z"/>
	<path class="st1" d="M487.8,268.8c0,0.6-0.4,1-1,1s-1-0.4-1-1c0-0.5,0.4-1,1-1C487.3,267.8,487.8,268.2,487.8,268.8
		C487.8,268.8,487.8,268.8,487.8,268.8z"/>
	<path class="st1" d="M492.4,268.8c0,0.6-0.4,1-1,1s-1-0.4-1-1c0-0.5,0.4-1,1-1C491.9,267.8,492.4,268.2,492.4,268.8
		C492.4,268.8,492.4,268.8,492.4,268.8z"/>
	<path class="st1" d="M528.1,268.8c0,0.6-0.4,1-1,1s-1-0.4-1-1s0.4-1,1-1S528.1,268.3,528.1,268.8z"/>
	<path class="st1" d="M532.8,268.8c0,0.6-0.4,1-1,1s-1-0.4-1-1s0.4-1,1-1S532.8,268.3,532.8,268.8z"/>
	<path class="st1" d="M497,268.8c0,0.6-0.4,1-1,1s-1-0.4-1-1s0.4-1,1-1S497,268.3,497,268.8z"/>
	<path class="st1" d="M519.6,268.8c0,0.6-0.4,1-1,1s-1-0.4-1-1s0.4-1,1-1S519.6,268.3,519.6,268.8z"/>
	<path class="st1" d="M501.6,268.8c0,0.6-0.4,1-1,1s-1-0.4-1-1s0.4-1,1-1S501.6,268.3,501.6,268.8z"/>
	<path class="st1" d="M506.2,268.8c0,0.6-0.4,1-1,1s-1-0.4-1-1s0.4-1,1-1S506.2,268.3,506.2,268.8z"/>
	<path class="st1" d="M515.6,268.8c0,0.6-0.4,1-1,1c-0.6,0-1-0.4-1-1c0-0.5,0.4-1,1-1C515.1,267.8,515.5,268.2,515.6,268.8
		C515.6,268.8,515.6,268.8,515.6,268.8z"/>
	<path class="st1" d="M536.6,268.8c0,0.6-0.4,1-1,1s-1-0.4-1-1s0.4-1,1-1S536.6,268.3,536.6,268.8z"/>
	<path class="st1" d="M510.8,268.8c0,0.6-0.4,1-1,1s-1-0.4-1-1s0.4-1,1-1S510.8,268.3,510.8,268.8z"/>
	<path class="st1" d="M524,268.8c0,0.6-0.4,1-1,1s-1-0.4-1-1s0.4-1,1-1S524,268.3,524,268.8z"/>
	<path class="st1" d="M534.5,273.9c0-0.6,0.4-1,1-1s1,0.4,1,1s-0.4,1-1,1S534.5,274.4,534.5,273.9z"/>
	<path class="st1" d="M529.9,273.9c0-0.6,0.4-1,1-1s1,0.4,1,1s-0.4,1-1,1S529.9,274.4,529.9,273.9z"/>
	<path class="st1" d="M525.3,273.9c0-0.6,0.4-1,1-1c0.6,0,1,0.4,1,1c0,0.5-0.4,1-1,1C525.8,274.9,525.3,274.5,525.3,273.9
		C525.3,273.9,525.3,273.9,525.3,273.9z"/>
	<path class="st1" d="M520.7,273.9c0-0.6,0.4-1,1-1s1,0.4,1,1s-0.4,1-1,1S520.7,274.4,520.7,273.9z"/>
	<path class="st1" d="M485,273.9c0-0.6,0.4-1,1-1s1,0.4,1,1s-0.4,1-1,1S485,274.4,485,273.9z"/>
	<path class="st1" d="M480.4,273.9c0-0.6,0.4-1,1-1s1,0.4,1,1s-0.4,1-1,1S480.4,274.4,480.4,273.9z"/>
	<path class="st1" d="M516.1,273.9c0-0.6,0.4-1,1-1s1,0.4,1,1s-0.4,1-1,1S516.1,274.4,516.1,273.9z"/>
	<path class="st1" d="M493.5,273.9c0-0.6,0.4-1,1-1s1,0.4,1,1s-0.4,1-1,1S493.5,274.4,493.5,273.9z"/>
	<path class="st1" d="M511.5,273.9c0-0.6,0.4-1,1-1c0.6,0,1,0.4,1,1s-0.4,1-1,1C511.9,274.9,511.5,274.4,511.5,273.9z"/>
	<path class="st1" d="M506.9,273.9c0-0.6,0.4-1,1-1s1,0.4,1,1s-0.4,1-1,1S506.9,274.4,506.9,273.9z"/>
	<path class="st1" d="M497.6,273.9c0-0.6,0.4-1,1-1s1,0.4,1,1c0,0.5-0.4,1-1,1C498.1,274.9,497.6,274.5,497.6,273.9
		C497.6,273.9,497.6,273.9,497.6,273.9z"/>
	<path class="st1" d="M476.5,273.9c0-0.6,0.4-1,1-1s1,0.4,1,1s-0.4,1-1,1S476.5,274.4,476.5,273.9z"/>
	<path class="st1" d="M502.3,273.9c0-0.6,0.4-1,1-1s1,0.4,1,1s-0.4,1-1,1S502.3,274.4,502.3,273.9z"/>
	<path class="st1" d="M489.1,273.9c0-0.6,0.4-1,1-1s1,0.4,1,1c0,0.5-0.4,1-1,1C489.6,274.9,489.1,274.5,489.1,273.9
		C489.1,273.9,489.1,273.9,489.1,273.9z"/>
	<path class="st1" d="M478.6,278.3c0,0.6-0.4,1-1,1s-1-0.4-1-1s0.4-1,1-1S478.6,277.8,478.6,278.3z"/>
	<path class="st1" d="M483.2,278.3c0,0.6-0.4,1-1,1s-1-0.4-1-1c0-0.5,0.4-1,1-1C482.7,277.3,483.2,277.7,483.2,278.3
		C483.2,278.3,483.2,278.3,483.2,278.3z"/>
	<path class="st1" d="M487.8,278.3c0,0.6-0.4,1-1,1s-1-0.4-1-1c0-0.5,0.4-1,1-1C487.3,277.3,487.8,277.7,487.8,278.3
		C487.8,278.3,487.8,278.3,487.8,278.3z"/>
	<path class="st1" d="M492.4,278.3c0,0.6-0.4,1-1,1s-1-0.4-1-1c0-0.5,0.4-1,1-1C491.9,277.3,492.4,277.7,492.4,278.3
		C492.4,278.3,492.4,278.3,492.4,278.3z"/>
	<circle class="st1" cx="527" cy="278.3" r="1"/>
	<circle class="st1" cx="531.7" cy="278.3" r="1"/>
	<path class="st1" d="M497,278.3c0,0.6-0.4,1-1,1s-1-0.4-1-1s0.4-1,1-1S497,277.8,497,278.3z"/>
	<circle class="st1" cx="518.6" cy="278.3" r="1"/>
	<path class="st1" d="M501.6,278.3c0,0.6-0.4,1-1,1s-1-0.4-1-1s0.4-1,1-1S501.6,277.8,501.6,278.3z"/>
	<path class="st1" d="M506.2,278.3c0,0.6-0.4,1-1,1s-1-0.4-1-1s0.4-1,1-1S506.2,277.8,506.2,278.3z"/>
	<circle class="st1" cx="514.5" cy="278.3" r="1"/>
	<path class="st1" d="M536.6,278.3c0,0.6-0.4,1-1,1s-1-0.4-1-1s0.4-1,1-1S536.6,277.8,536.6,278.3z"/>
	<path class="st1" d="M510.8,278.3c0,0.6-0.4,1-1,1s-1-0.4-1-1s0.4-1,1-1S510.8,277.8,510.8,278.3z"/>
	<circle class="st1" cx="523" cy="278.3" r="1"/>
	<rect x="453.5" y="267.4" class="st1" width="18.2" height="2.8"/>
	<rect x="453.5" y="272.2" class="st1" width="18.2" height="2.8"/>
	<rect x="453.5" y="277.2" class="st1" width="18.2" height="2.8"/>
	<polygon class="st0" points="555.6,285.3 541.7,285.4 541.7,262.7 555.6,262.7 	"/>
	<rect x="449.4" y="235.3" class="st2" width="92.3" height="22.9"/>
	<path class="st1" d="M478.6,241.5c0,0.6-0.4,1-1,1s-1-0.4-1-1s0.4-1,1-1S478.6,240.9,478.6,241.5z"/>
	<path class="st1" d="M483.2,241.5c0,0.6-0.4,1-1,1s-1-0.4-1-1c0-0.5,0.4-1,1-1C482.7,240.5,483.2,240.9,483.2,241.5
		C483.2,241.4,483.2,241.5,483.2,241.5z"/>
	<path class="st1" d="M487.8,241.5c0,0.6-0.4,1-1,1s-1-0.4-1-1c0-0.5,0.4-1,1-1C487.3,240.5,487.8,240.9,487.8,241.5
		C487.8,241.4,487.8,241.5,487.8,241.5z"/>
	<path class="st1" d="M492.4,241.5c0,0.6-0.4,1-1,1s-1-0.4-1-1c0-0.5,0.4-1,1-1C491.9,240.5,492.4,240.9,492.4,241.5
		C492.4,241.4,492.4,241.5,492.4,241.5z"/>
	<path class="st1" d="M528.1,241.5c0,0.6-0.4,1-1,1s-1-0.4-1-1s0.4-1,1-1S528.1,240.9,528.1,241.5z"/>
	<path class="st1" d="M532.8,241.5c0,0.6-0.4,1-1,1s-1-0.4-1-1s0.4-1,1-1S532.8,240.9,532.8,241.5z"/>
	<path class="st1" d="M497,241.5c0,0.6-0.4,1-1,1s-1-0.4-1-1s0.4-1,1-1S497,240.9,497,241.5z"/>
	<path class="st1" d="M519.6,241.5c0,0.6-0.4,1-1,1s-1-0.4-1-1s0.4-1,1-1S519.6,240.9,519.6,241.5z"/>
	<path class="st1" d="M501.6,241.5c0,0.6-0.4,1-1,1s-1-0.4-1-1s0.4-1,1-1S501.6,240.9,501.6,241.5z"/>
	<path class="st1" d="M506.2,241.5c0,0.6-0.4,1-1,1s-1-0.4-1-1s0.4-1,1-1S506.2,240.9,506.2,241.5z"/>
	<path class="st1" d="M515.6,241.5c0,0.6-0.4,1-1,1c-0.6,0-1-0.4-1-1c0-0.5,0.4-1,1-1C515.1,240.5,515.5,240.9,515.6,241.5
		C515.6,241.4,515.6,241.5,515.6,241.5z"/>
	<path class="st1" d="M536.6,241.5c0,0.6-0.4,1-1,1s-1-0.4-1-1s0.4-1,1-1S536.6,240.9,536.6,241.5z"/>
	<path class="st1" d="M510.8,241.5c0,0.6-0.4,1-1,1s-1-0.4-1-1s0.4-1,1-1S510.8,240.9,510.8,241.5z"/>
	<path class="st1" d="M524,241.5c0,0.6-0.4,1-1,1s-1-0.4-1-1s0.4-1,1-1S524,240.9,524,241.5z"/>
	<path class="st1" d="M534.5,246.5c0-0.6,0.4-1,1-1s1,0.4,1,1s-0.4,1-1,1S534.5,247.1,534.5,246.5z"/>
	<path class="st1" d="M529.9,246.5c0-0.6,0.4-1,1-1s1,0.4,1,1s-0.4,1-1,1S529.9,247.1,529.9,246.5z"/>
	<path class="st1" d="M525.3,246.5c0-0.6,0.4-1,1-1c0.6,0,1,0.4,1,1c0,0.5-0.4,1-1,1C525.8,247.5,525.3,247.1,525.3,246.5
		C525.3,246.5,525.3,246.5,525.3,246.5z"/>
	<path class="st1" d="M520.7,246.5c0-0.6,0.4-1,1-1s1,0.4,1,1s-0.4,1-1,1S520.7,247.1,520.7,246.5z"/>
	<path class="st1" d="M485,246.5c0-0.6,0.5-1,1-1c0.6,0,1,0.5,1,1s-0.5,1-1,1C485.5,247.5,485,247.1,485,246.5z"/>
	<path class="st1" d="M480.4,246.5c0-0.6,0.4-1,1-1s1,0.4,1,1s-0.4,1-1,1S480.4,247.1,480.4,246.5z"/>
	<path class="st1" d="M516.1,246.5c0-0.6,0.4-1,1-1s1,0.4,1,1s-0.4,1-1,1S516.1,247.1,516.1,246.5z"/>
	<path class="st1" d="M493.5,246.5c0-0.6,0.4-1,1-1s1,0.4,1,1s-0.4,1-1,1S493.5,247.1,493.5,246.5z"/>
	<path class="st1" d="M511.5,246.5c0-0.6,0.4-1,1-1c0.6,0,1,0.4,1,1s-0.4,1-1,1C511.9,247.5,511.5,247.1,511.5,246.5z"/>
	<path class="st1" d="M506.9,246.5c0-0.6,0.5-1,1-1c0.6,0,1,0.5,1,1s-0.5,1-1,1C507.4,247.5,506.9,247.1,506.9,246.5z"/>
	<path class="st1" d="M497.6,246.5c0-0.6,0.4-1,1-1s1,0.4,1,1c0,0.5-0.4,1-1,1C498.1,247.5,497.6,247.1,497.6,246.5
		C497.6,246.5,497.6,246.5,497.6,246.5z"/>
	<path class="st1" d="M476.5,246.5c0-0.6,0.5-1,1-1c0.6,0,1,0.5,1,1s-0.5,1-1,1C477,247.5,476.5,247.1,476.5,246.5z"/>
	<path class="st1" d="M502.3,246.5c0-0.6,0.5-1,1-1c0.6,0,1,0.5,1,1s-0.5,1-1,1C502.8,247.5,502.3,247.1,502.3,246.5z"/>
	<path class="st1" d="M489.1,246.5c0-0.6,0.4-1,1-1s1,0.4,1,1c0,0.5-0.4,1-1,1C489.6,247.5,489.1,247.1,489.1,246.5
		C489.1,246.5,489.1,246.5,489.1,246.5z"/>
	<path class="st1" d="M478.6,251c0,0.6-0.4,1-1,1s-1-0.4-1-1s0.4-1,1-1S478.6,250.4,478.6,251z"/>
	<path class="st1" d="M483.2,251c0,0.6-0.4,1-1,1s-1-0.4-1-1c0-0.5,0.4-1,1-1C482.7,250,483.2,250.4,483.2,251
		C483.2,251,483.2,251,483.2,251z"/>
	<path class="st1" d="M487.8,251c0,0.6-0.4,1-1,1s-1-0.4-1-1c0-0.5,0.4-1,1-1C487.3,250,487.8,250.4,487.8,251
		C487.8,251,487.8,251,487.8,251z"/>
	<path class="st1" d="M492.4,251c0,0.6-0.4,1-1,1s-1-0.4-1-1c0-0.5,0.4-1,1-1C491.9,250,492.4,250.4,492.4,251
		C492.4,251,492.4,251,492.4,251z"/>
	<path class="st1" d="M528.1,251c0,0.6-0.4,1-1,1s-1-0.4-1-1s0.4-1,1-1S528.1,250.4,528.1,251z"/>
	<path class="st1" d="M532.8,251c0,0.6-0.4,1-1,1s-1-0.4-1-1s0.4-1,1-1S532.8,250.4,532.8,251z"/>
	<path class="st1" d="M497,251c0,0.6-0.4,1-1,1s-1-0.4-1-1s0.4-1,1-1S497,250.4,497,251z"/>
	<path class="st1" d="M519.6,251c0,0.6-0.4,1-1,1s-1-0.4-1-1s0.4-1,1-1S519.6,250.4,519.6,251z"/>
	<path class="st1" d="M501.6,251c0,0.6-0.4,1-1,1s-1-0.4-1-1s0.4-1,1-1S501.6,250.4,501.6,251z"/>
	<path class="st1" d="M506.2,251c0,0.6-0.4,1-1,1s-1-0.4-1-1s0.4-1,1-1S506.2,250.4,506.2,251z"/>
	<path class="st1" d="M515.6,251c0,0.6-0.4,1-1,1c-0.6,0-1-0.4-1-1c0-0.5,0.4-1,1-1C515.1,250,515.5,250.4,515.6,251
		C515.6,251,515.6,251,515.6,251z"/>
	<path class="st1" d="M536.6,251c0,0.6-0.4,1-1,1s-1-0.4-1-1s0.4-1,1-1S536.6,250.4,536.6,251z"/>
	<path class="st1" d="M510.8,251c0,0.6-0.4,1-1,1s-1-0.4-1-1s0.4-1,1-1S510.8,250.4,510.8,251z"/>
	<path class="st1" d="M524,251c0,0.6-0.4,1-1,1s-1-0.4-1-1s0.4-1,1-1S524,250.4,524,251z"/>
	<rect x="453.5" y="240" class="st1" width="18.2" height="2.8"/>
	<rect x="453.5" y="244.8" class="st1" width="18.2" height="2.8"/>
	<rect x="453.5" y="249.8" class="st1" width="18.2" height="2.8"/>
	<polygon class="st0" points="555.6,258 541.7,258 541.7,235.3 555.6,235.3 	"/>
	<rect x="449.4" y="208.8" class="st2" width="92.3" height="22.9"/>
	<path class="st1" d="M478.6,215c0,0.6-0.4,1-1,1s-1-0.4-1-1s0.4-1,1-1S478.6,214.4,478.6,215z"/>
	<path class="st1" d="M483.2,215c0,0.6-0.4,1-1,1s-1-0.4-1-1c0-0.5,0.4-1,1-1C482.7,214,483.2,214.4,483.2,215
		C483.2,215,483.2,215,483.2,215z"/>
	<path class="st1" d="M487.8,215c0,0.6-0.4,1-1,1s-1-0.4-1-1c0-0.5,0.4-1,1-1C487.3,214,487.8,214.4,487.8,215
		C487.8,215,487.8,215,487.8,215z"/>
	<path class="st1" d="M492.4,215c0,0.6-0.4,1-1,1s-1-0.4-1-1c0-0.5,0.4-1,1-1C491.9,214,492.4,214.4,492.4,215
		C492.4,215,492.4,215,492.4,215z"/>
	<path class="st1" d="M528.1,215c0,0.6-0.4,1-1,1s-1-0.4-1-1s0.4-1,1-1S528.1,214.4,528.1,215z"/>
	<path class="st1" d="M532.8,215c0,0.6-0.4,1-1,1s-1-0.4-1-1s0.4-1,1-1S532.8,214.4,532.8,215z"/>
	<path class="st1" d="M497,215c0,0.6-0.4,1-1,1s-1-0.4-1-1s0.4-1,1-1S497,214.4,497,215z"/>
	<path class="st1" d="M519.6,215c0,0.6-0.4,1-1,1s-1-0.4-1-1s0.4-1,1-1S519.6,214.4,519.6,215z"/>
	<path class="st1" d="M501.6,215c0,0.6-0.4,1-1,1s-1-0.4-1-1s0.4-1,1-1S501.6,214.4,501.6,215z"/>
	<path class="st1" d="M506.2,215c0,0.6-0.4,1-1,1s-1-0.4-1-1s0.4-1,1-1S506.2,214.4,506.2,215z"/>
	<path class="st1" d="M515.6,215c0,0.6-0.4,1-1,1c-0.6,0-1-0.4-1-1c0-0.5,0.4-1,1-1C515.1,214,515.5,214.4,515.6,215
		C515.6,215,515.6,215,515.6,215z"/>
	<path class="st1" d="M536.6,215c0,0.6-0.4,1-1,1s-1-0.4-1-1s0.4-1,1-1S536.6,214.4,536.6,215z"/>
	<path class="st1" d="M510.8,215c0,0.6-0.4,1-1,1s-1-0.4-1-1s0.4-1,1-1S510.8,214.4,510.8,215z"/>
	<path class="st1" d="M524,215c0,0.6-0.4,1-1,1s-1-0.4-1-1s0.4-1,1-1S524,214.4,524,215z"/>
	<path class="st1" d="M534.5,220c0-0.6,0.4-1,1-1s1,0.4,1,1s-0.4,1-1,1S534.5,220.6,534.5,220z"/>
	<path class="st1" d="M529.9,220c0-0.6,0.4-1,1-1s1,0.4,1,1s-0.4,1-1,1S529.9,220.6,529.9,220z"/>
	<path class="st1" d="M525.3,220c0-0.6,0.4-1,1-1c0.6,0,1,0.4,1,1c0,0.5-0.4,1-1,1C525.8,221,525.3,220.6,525.3,220
		C525.3,220,525.3,220,525.3,220z"/>
	<path class="st1" d="M520.7,220c0-0.6,0.4-1,1-1s1,0.4,1,1s-0.4,1-1,1S520.7,220.6,520.7,220z"/>
	<path class="st1" d="M485,220c0-0.6,0.4-1,1-1s1,0.4,1,1s-0.4,1-1,1S485,220.6,485,220z"/>
	<path class="st1" d="M480.4,220c0-0.6,0.4-1,1-1s1,0.4,1,1s-0.4,1-1,1S480.4,220.6,480.4,220z"/>
	<path class="st1" d="M516.1,220c0-0.6,0.4-1,1-1s1,0.4,1,1s-0.4,1-1,1S516.1,220.6,516.1,220z"/>
	<path class="st1" d="M493.5,220c0-0.6,0.4-1,1-1s1,0.4,1,1s-0.4,1-1,1S493.5,220.6,493.5,220z"/>
	<path class="st1" d="M511.5,220c0-0.6,0.4-1,1-1c0.6,0,1,0.4,1,1s-0.4,1-1,1C511.9,221,511.5,220.6,511.5,220z"/>
	<path class="st1" d="M506.9,220c0-0.6,0.4-1,1-1s1,0.4,1,1s-0.4,1-1,1S506.9,220.6,506.9,220z"/>
	<path class="st1" d="M497.6,220c0-0.6,0.4-1,1-1s1,0.4,1,1c0,0.5-0.4,1-1,1C498.1,221,497.6,220.6,497.6,220
		C497.6,220,497.6,220,497.6,220z"/>
	<path class="st1" d="M476.5,220c0-0.6,0.4-1,1-1s1,0.4,1,1s-0.4,1-1,1S476.5,220.6,476.5,220z"/>
	<path class="st1" d="M502.3,220c0-0.6,0.4-1,1-1s1,0.4,1,1s-0.4,1-1,1S502.3,220.6,502.3,220z"/>
	<path class="st1" d="M489.1,220c0-0.6,0.4-1,1-1s1,0.4,1,1c0,0.5-0.4,1-1,1C489.6,221,489.1,220.6,489.1,220
		C489.1,220,489.1,220,489.1,220z"/>
	<path class="st1" d="M478.6,224.5c0,0.6-0.4,1-1,1s-1-0.4-1-1s0.4-1,1-1S478.6,224,478.6,224.5z"/>
	<path class="st1" d="M483.2,224.5c0,0.6-0.4,1-1,1s-1-0.4-1-1c0-0.5,0.4-1,1-1C482.7,223.5,483.2,223.9,483.2,224.5
		C483.2,224.5,483.2,224.5,483.2,224.5z"/>
	<path class="st1" d="M487.8,224.5c0,0.6-0.4,1-1,1s-1-0.4-1-1c0-0.5,0.4-1,1-1C487.3,223.5,487.8,223.9,487.8,224.5
		C487.8,224.5,487.8,224.5,487.8,224.5z"/>
	<path class="st1" d="M492.4,224.5c0,0.6-0.4,1-1,1s-1-0.4-1-1c0-0.5,0.4-1,1-1C491.9,223.5,492.4,223.9,492.4,224.5
		C492.4,224.5,492.4,224.5,492.4,224.5z"/>
	<circle class="st1" cx="527" cy="224.5" r="1"/>
	<circle class="st1" cx="531.7" cy="224.5" r="1"/>
	<path class="st1" d="M497,224.5c0,0.6-0.4,1-1,1s-1-0.4-1-1s0.4-1,1-1S497,224,497,224.5z"/>
	<circle class="st1" cx="518.6" cy="224.5" r="1"/>
	<path class="st1" d="M501.6,224.5c0,0.6-0.4,1-1,1s-1-0.4-1-1s0.4-1,1-1S501.6,224,501.6,224.5z"/>
	<path class="st1" d="M506.2,224.5c0,0.6-0.4,1-1,1s-1-0.4-1-1s0.4-1,1-1S506.2,224,506.2,224.5z"/>
	<circle class="st1" cx="514.5" cy="224.5" r="1"/>
	<path class="st1" d="M536.6,224.5c0,0.6-0.4,1-1,1s-1-0.4-1-1s0.4-1,1-1S536.6,224,536.6,224.5z"/>
	<path class="st1" d="M510.8,224.5c0,0.6-0.4,1-1,1s-1-0.4-1-1s0.4-1,1-1S510.8,224,510.8,224.5z"/>
	<circle class="st1" cx="523" cy="224.5" r="1"/>
	<rect x="453.5" y="213.6" class="st1" width="18.2" height="2.8"/>
	<rect x="453.5" y="218.4" class="st1" width="18.2" height="2.8"/>
	<rect x="453.5" y="223.3" class="st1" width="18.2" height="2.8"/>
	<polygon class="st0" points="555.6,231.5 541.7,231.6 541.7,208.9 555.6,208.8 	"/>
	<rect x="209.7" y="214.9" class="st0" width="81" height="66.7"/>
	<rect x="197.8" y="259.8" class="st2" width="88.6" height="22"/>
	<path class="st1" d="M225.9,265.7c0,0.6-0.4,1-1,1s-1-0.4-1-1s0.4-1,1-1S225.9,265.1,225.9,265.7z"/>
	<path class="st1" d="M230.3,265.7c0,0.6-0.4,1-1,1s-1-0.4-1-1s0.4-1,1-1S230.3,265.1,230.3,265.7z"/>
	<path class="st1" d="M234.7,265.7c0,0.6-0.4,1-1,1s-1-0.4-1-1s0.4-1,1-1S234.7,265.1,234.7,265.7z"/>
	<path class="st1" d="M239.1,265.7c0,0.6-0.4,1-1,1s-1-0.4-1-1s0.4-1,1-1S239.1,265.1,239.1,265.7z"/>
	<path class="st1" d="M273.3,265.7c0,0.6-0.4,1-1,1s-1-0.4-1-1s0.4-1,1-1S273.3,265.1,273.3,265.7z"/>
	<path class="st1" d="M277.8,265.7c0,0.6-0.4,1-1,1s-1-0.4-1-1s0.4-1,1-1S277.8,265.1,277.8,265.7z"/>
	<path class="st1" d="M243.5,265.7c0,0.6-0.4,1-1,1s-1-0.4-1-1s0.4-1,1-1S243.5,265.1,243.5,265.7z"/>
	<path class="st1" d="M265.2,265.7c0,0.6-0.4,1-1,1s-1-0.4-1-1s0.4-1,1-1S265.2,265.1,265.2,265.7z"/>
	<path class="st1" d="M248,265.7c0,0.6-0.4,1-1,1s-1-0.4-1-1s0.4-1,1-1S248,265.1,248,265.7z"/>
	<path class="st1" d="M252.4,265.7c0,0.6-0.4,1-1,1s-1-0.4-1-1s0.4-1,1-1S252.4,265.1,252.4,265.7z"/>
	<path class="st1" d="M261.3,265.7c0,0.6-0.4,1-1,1s-1-0.4-1-1s0.4-1,1-1S261.3,265.1,261.3,265.7z"/>
	<path class="st1" d="M281.5,265.7c0,0.6-0.4,1-1,1s-1-0.4-1-1s0.4-1,1-1S281.5,265.1,281.5,265.7z"/>
	<path class="st1" d="M256.8,265.7c0,0.6-0.4,1-1,1c-0.6,0-1-0.4-1-1s0.4-1,1-1C256.3,264.7,256.8,265.1,256.8,265.7z"/>
	<path class="st1" d="M269.4,265.7c0,0.6-0.4,1-1,1s-1-0.4-1-1s0.4-1,1-1S269.4,265.1,269.4,265.7z"/>
	<path class="st1" d="M279.5,270.5c0-0.6,0.4-1,1-1s1,0.4,1,1s-0.4,1-1,1S279.5,271.1,279.5,270.5z"/>
	<path class="st1" d="M275.1,270.5c0-0.6,0.4-1,1-1s1,0.4,1,1s-0.4,1-1,1S275.1,271.1,275.1,270.5z"/>
	<path class="st1" d="M270.7,270.5c0-0.6,0.4-1,1-1s1,0.4,1,1s-0.4,1-1,1S270.7,271.1,270.7,270.5z"/>
	<path class="st1" d="M266.2,270.5c0-0.6,0.4-1,1-1s1,0.4,1,1s-0.4,1-1,1S266.2,271.1,266.2,270.5z"/>
	<circle class="st1" cx="233.1" cy="270.5" r="1"/>
	<path class="st1" d="M227.6,270.5c0-0.6,0.4-1,1-1s1,0.4,1,1s-0.4,1-1,1S227.6,271.1,227.6,270.5z"/>
	<path class="st1" d="M261.8,270.5c0-0.6,0.4-1,1-1s1,0.4,1,1s-0.4,1-1,1S261.8,271.1,261.8,270.5z"/>
	<circle class="st1" cx="241.2" cy="270.5" r="1"/>
	<path class="st1" d="M257.4,270.5c0-0.6,0.4-1,1-1s1,0.4,1,1s-0.4,1-1,1S257.4,271.1,257.4,270.5z"/>
	<path class="st1" d="M253,270.5c0-0.6,0.4-1,1-1s1,0.4,1,1s-0.4,1-1,1S253,271.1,253,270.5z"/>
	<circle class="st1" cx="245.1" cy="270.5" r="1"/>
	<circle class="st1" cx="224.9" cy="270.5" r="1"/>
	<circle class="st1" cx="249.6" cy="270.5" r="1"/>
	<circle class="st1" cx="237" cy="270.5" r="1"/>
	<circle class="st1" cx="224.9" cy="274.8" r="1"/>
	<path class="st1" d="M230.3,274.8c0,0.6-0.4,1-1,1s-1-0.4-1-1s0.4-1,1-1S230.3,274.3,230.3,274.8z"/>
	<path class="st1" d="M234.7,274.8c0,0.6-0.4,1-1,1s-1-0.4-1-1s0.4-1,1-1S234.7,274.3,234.7,274.8z"/>
	<path class="st1" d="M239.1,274.8c0,0.6-0.4,1-1,1s-1-0.4-1-1s0.4-1,1-1S239.1,274.3,239.1,274.8z"/>
	<path class="st1" d="M273.3,274.8c0,0.6-0.4,1-1,1s-1-0.4-1-1s0.4-1,1-1S273.3,274.3,273.3,274.8z"/>
	<path class="st1" d="M277.8,274.8c0,0.6-0.4,1-1,1s-1-0.4-1-1s0.4-1,1-1S277.8,274.3,277.8,274.8z"/>
	<path class="st1" d="M243.5,274.8c0,0.6-0.4,1-1,1s-1-0.4-1-1s0.4-1,1-1S243.5,274.3,243.5,274.8z"/>
	<path class="st1" d="M265.2,274.8c0,0.6-0.4,1-1,1s-1-0.4-1-1s0.4-1,1-1S265.2,274.3,265.2,274.8z"/>
	<path class="st1" d="M248,274.8c0,0.6-0.4,1-1,1s-1-0.4-1-1s0.4-1,1-1S248,274.3,248,274.8z"/>
	<path class="st1" d="M252.4,274.8c0,0.6-0.4,1-1,1s-1-0.4-1-1s0.4-1,1-1S252.4,274.3,252.4,274.8z"/>
	<path class="st1" d="M261.3,274.8c0,0.6-0.4,1-1,1s-1-0.4-1-1s0.4-1,1-1S261.3,274.3,261.3,274.8z"/>
	<path class="st1" d="M281.5,274.8c0,0.6-0.4,1-1,1s-1-0.4-1-1s0.4-1,1-1S281.5,274.3,281.5,274.8z"/>
	<path class="st1" d="M256.8,274.8c0,0.6-0.4,1-1,1c-0.6,0-1-0.4-1-1s0.4-1,1-1C256.3,273.8,256.8,274.3,256.8,274.8z"/>
	<path class="st1" d="M269.4,274.8c0,0.6-0.4,1-1,1s-1-0.4-1-1s0.4-1,1-1S269.4,274.3,269.4,274.8z"/>
	<rect x="201.8" y="264.3" class="st1" width="17.4" height="2.7"/>
	<rect x="201.8" y="268.9" class="st1" width="17.4" height="2.7"/>
	<rect x="201.8" y="273.7" class="st1" width="17.4" height="2.7"/>
	<polygon class="st0" points="299.7,281.5 286.4,281.6 286.4,259.8 299.7,259.8 	"/>
	<rect x="197.8" y="233.5" class="st2" width="88.6" height="22"/>
	<path class="st1" d="M225.9,239.5c0,0.6-0.4,1-1,1s-1-0.4-1-1s0.4-1,1-1S225.9,238.9,225.9,239.5z"/>
	<path class="st1" d="M230.3,239.5c0,0.6-0.4,1-1,1s-1-0.4-1-1s0.4-1,1-1S230.3,238.9,230.3,239.5z"/>
	<path class="st1" d="M234.7,239.5c0,0.6-0.4,1-1,1s-1-0.4-1-1s0.4-1,1-1S234.7,238.9,234.7,239.5z"/>
	<path class="st1" d="M239.1,239.5c0,0.6-0.4,1-1,1s-1-0.4-1-1s0.4-1,1-1S239.1,238.9,239.1,239.5z"/>
	<path class="st1" d="M273.3,239.5c0,0.6-0.4,1-1,1s-1-0.4-1-1s0.4-1,1-1S273.3,238.9,273.3,239.5z"/>
	<path class="st1" d="M277.8,239.5c0,0.6-0.4,1-1,1s-1-0.4-1-1s0.4-1,1-1S277.8,238.9,277.8,239.5z"/>
	<path class="st1" d="M243.5,239.5c0,0.6-0.4,1-1,1s-1-0.4-1-1s0.4-1,1-1S243.5,238.9,243.5,239.5z"/>
	<path class="st1" d="M265.2,239.5c0,0.6-0.4,1-1,1s-1-0.4-1-1s0.4-1,1-1S265.2,238.9,265.2,239.5z"/>
	<path class="st1" d="M248,239.5c0,0.6-0.4,1-1,1s-1-0.4-1-1s0.4-1,1-1S248,238.9,248,239.5z"/>
	<path class="st1" d="M252.4,239.5c0,0.6-0.4,1-1,1s-1-0.4-1-1s0.4-1,1-1S252.4,238.9,252.4,239.5z"/>
	<path class="st1" d="M261.3,239.5c0,0.6-0.4,1-1,1s-1-0.4-1-1s0.4-1,1-1S261.3,238.9,261.3,239.5z"/>
	<path class="st1" d="M281.5,239.5c0,0.6-0.4,1-1,1s-1-0.4-1-1s0.4-1,1-1S281.5,238.9,281.5,239.5z"/>
	<path class="st1" d="M256.8,239.5c0,0.6-0.4,1-1,1c-0.6,0-1-0.4-1-1s0.4-1,1-1C256.3,238.5,256.8,238.9,256.8,239.5z"/>
	<path class="st1" d="M269.4,239.5c0,0.6-0.4,1-1,1s-1-0.4-1-1s0.4-1,1-1S269.4,238.9,269.4,239.5z"/>
	<path class="st1" d="M279.5,244.3c0-0.6,0.4-1,1-1s1,0.4,1,1s-0.4,1-1,1S279.5,244.8,279.5,244.3z"/>
	<path class="st1" d="M275.1,244.3c0-0.6,0.4-1,1-1s1,0.4,1,1s-0.4,1-1,1S275.1,244.8,275.1,244.3z"/>
	<path class="st1" d="M270.7,244.3c0-0.6,0.4-1,1-1s1,0.4,1,1s-0.4,1-1,1S270.7,244.8,270.7,244.3z"/>
	<path class="st1" d="M266.2,244.3c0-0.6,0.4-1,1-1s1,0.4,1,1s-0.4,1-1,1S266.2,244.8,266.2,244.3z"/>
	<circle class="st1" cx="233.1" cy="244.3" r="1"/>
	<path class="st1" d="M227.6,244.3c0-0.6,0.4-1,1-1s1,0.4,1,1s-0.4,1-1,1S227.6,244.8,227.6,244.3z"/>
	<path class="st1" d="M261.8,244.3c0-0.6,0.4-1,1-1s1,0.4,1,1s-0.4,1-1,1S261.8,244.8,261.8,244.3z"/>
	<circle class="st1" cx="241.2" cy="244.3" r="1"/>
	<path class="st1" d="M257.4,244.3c0-0.6,0.4-1,1-1s1,0.4,1,1s-0.4,1-1,1S257.4,244.8,257.4,244.3z"/>
	<path class="st1" d="M253,244.3c0-0.6,0.4-1,1-1s1,0.4,1,1s-0.4,1-1,1S253,244.8,253,244.3z"/>
	<circle class="st1" cx="245.1" cy="244.3" r="1"/>
	<circle class="st1" cx="224.9" cy="244.3" r="1"/>
	<circle class="st1" cx="249.6" cy="244.3" r="1"/>
	<circle class="st1" cx="237" cy="244.3" r="1"/>
	<path class="st1" d="M225.9,248.6c0,0.6-0.4,1-1,1s-1-0.4-1-1s0.4-1,1-1S225.9,248,225.9,248.6z"/>
	<path class="st1" d="M230.3,248.6c0,0.6-0.4,1-1,1s-1-0.4-1-1s0.4-1,1-1S230.3,248,230.3,248.6z"/>
	<path class="st1" d="M234.7,248.6c0,0.6-0.4,1-1,1s-1-0.4-1-1s0.4-1,1-1S234.7,248,234.7,248.6z"/>
	<path class="st1" d="M239.1,248.6c0,0.6-0.4,1-1,1s-1-0.4-1-1s0.4-1,1-1S239.1,248,239.1,248.6z"/>
	<path class="st1" d="M273.3,248.6c0,0.6-0.4,1-1,1s-1-0.4-1-1s0.4-1,1-1S273.3,248,273.3,248.6z"/>
	<path class="st1" d="M277.8,248.6c0,0.6-0.4,1-1,1s-1-0.4-1-1s0.4-1,1-1S277.8,248,277.8,248.6z"/>
	<path class="st1" d="M243.5,248.6c0,0.6-0.4,1-1,1s-1-0.4-1-1s0.4-1,1-1S243.5,248,243.5,248.6z"/>
	<path class="st1" d="M265.2,248.6c0,0.6-0.4,1-1,1s-1-0.4-1-1s0.4-1,1-1S265.2,248,265.2,248.6z"/>
	<path class="st1" d="M248,248.6c0,0.6-0.4,1-1,1s-1-0.4-1-1s0.4-1,1-1S248,248,248,248.6z"/>
	<path class="st1" d="M252.4,248.6c0,0.6-0.4,1-1,1s-1-0.4-1-1s0.4-1,1-1S252.4,248,252.4,248.6z"/>
	<path class="st1" d="M261.3,248.6c0,0.6-0.4,1-1,1s-1-0.4-1-1s0.4-1,1-1S261.3,248,261.3,248.6z"/>
	<path class="st1" d="M281.5,248.6c0,0.6-0.4,1-1,1s-1-0.4-1-1s0.4-1,1-1S281.5,248,281.5,248.6z"/>
	<path class="st1" d="M256.8,248.6c0,0.6-0.4,1-1,1c-0.6,0-1-0.4-1-1s0.4-1,1-1C256.3,247.6,256.8,248,256.8,248.6z"/>
	<path class="st1" d="M269.4,248.6c0,0.6-0.4,1-1,1s-1-0.4-1-1s0.4-1,1-1S269.4,248,269.4,248.6z"/>
	<rect x="201.8" y="238.1" class="st1" width="17.4" height="2.7"/>
	<rect x="201.8" y="242.7" class="st1" width="17.4" height="2.7"/>
	<rect x="201.8" y="247.4" class="st1" width="17.4" height="2.7"/>
	<polygon class="st0" points="299.7,255.3 286.4,255.3 286.4,233.6 299.7,233.5 	"/>
	<rect x="197.8" y="208.1" class="st2" width="88.6" height="22"/>
	<circle class="st1" cx="224.9" cy="214.1" r="1"/>
	<path class="st1" d="M230.3,214.1c0,0.6-0.4,1-1,1s-1-0.4-1-1s0.4-1,1-1S230.3,213.5,230.3,214.1z"/>
	<path class="st1" d="M234.7,214.1c0,0.6-0.4,1-1,1s-1-0.4-1-1s0.4-1,1-1S234.7,213.5,234.7,214.1z"/>
	<path class="st1" d="M239.1,214.1c0,0.6-0.4,1-1,1s-1-0.4-1-1s0.4-1,1-1S239.1,213.5,239.1,214.1z"/>
	<path class="st1" d="M273.3,214.1c0,0.6-0.4,1-1,1s-1-0.4-1-1s0.4-1,1-1S273.3,213.5,273.3,214.1z"/>
	<path class="st1" d="M277.8,214.1c0,0.6-0.4,1-1,1s-1-0.4-1-1s0.4-1,1-1S277.8,213.5,277.8,214.1z"/>
	<path class="st1" d="M243.5,214.1c0,0.6-0.4,1-1,1s-1-0.4-1-1s0.4-1,1-1S243.5,213.5,243.5,214.1z"/>
	<path class="st1" d="M265.2,214.1c0,0.6-0.4,1-1,1s-1-0.4-1-1s0.4-1,1-1S265.2,213.5,265.2,214.1z"/>
	<path class="st1" d="M248,214.1c0,0.6-0.4,1-1,1s-1-0.4-1-1s0.4-1,1-1S248,213.5,248,214.1z"/>
	<path class="st1" d="M252.4,214.1c0,0.6-0.4,1-1,1s-1-0.4-1-1s0.4-1,1-1S252.4,213.5,252.4,214.1z"/>
	<path class="st1" d="M261.3,214.1c0,0.6-0.4,1-1,1s-1-0.4-1-1s0.4-1,1-1S261.3,213.5,261.3,214.1z"/>
	<path class="st1" d="M281.5,214.1c0,0.6-0.4,1-1,1s-1-0.4-1-1s0.4-1,1-1S281.5,213.5,281.5,214.1z"/>
	<path class="st1" d="M256.8,214.1c0,0.6-0.4,1-1,1c-0.6,0-1-0.4-1-1s0.4-1,1-1C256.3,213.1,256.8,213.5,256.8,214.1z"/>
	<path class="st1" d="M269.4,214.1c0,0.6-0.4,1-1,1s-1-0.4-1-1s0.4-1,1-1S269.4,213.5,269.4,214.1z"/>
	<path class="st1" d="M279.5,218.9c0-0.6,0.4-1,1-1s1,0.4,1,1s-0.4,1-1,1S279.5,219.4,279.5,218.9z"/>
	<path class="st1" d="M275.1,218.9c0-0.6,0.4-1,1-1s1,0.4,1,1s-0.4,1-1,1S275.1,219.4,275.1,218.9z"/>
	<path class="st1" d="M270.7,218.9c0-0.6,0.4-1,1-1s1,0.4,1,1s-0.4,1-1,1S270.7,219.4,270.7,218.9z"/>
	<path class="st1" d="M266.2,218.9c0-0.6,0.4-1,1-1s1,0.4,1,1s-0.4,1-1,1S266.2,219.4,266.2,218.9z"/>
	<path class="st1" d="M232.1,218.9c0-0.6,0.4-1,1-1s1,0.4,1,1s-0.4,1-1,1S232.1,219.4,232.1,218.9z"/>
	<path class="st1" d="M227.6,218.9c0-0.6,0.4-1,1-1s1,0.4,1,1s-0.4,1-1,1S227.6,219.4,227.6,218.9z"/>
	<path class="st1" d="M261.8,218.9c0-0.6,0.4-1,1-1s1,0.4,1,1s-0.4,1-1,1S261.8,219.4,261.8,218.9z"/>
	<path class="st1" d="M240.2,218.9c0-0.6,0.4-1,1-1s1,0.4,1,1s-0.4,1-1,1S240.2,219.4,240.2,218.9z"/>
	<path class="st1" d="M257.4,218.9c0-0.6,0.4-1,1-1s1,0.4,1,1s-0.4,1-1,1S257.4,219.4,257.4,218.9z"/>
	<path class="st1" d="M253,218.9c0-0.6,0.4-1,1-1s1,0.4,1,1s-0.4,1-1,1S253,219.4,253,218.9z"/>
	<path class="st1" d="M244.1,218.9c0-0.6,0.4-1,1-1s1,0.4,1,1s-0.4,1-1,1S244.1,219.4,244.1,218.9z"/>
	<path class="st1" d="M223.9,218.9c0-0.6,0.4-1,1-1s1,0.4,1,1s-0.4,1-1,1S223.9,219.4,223.9,218.9z"/>
	<path class="st1" d="M248.6,218.9c0-0.6,0.4-1,1-1s1,0.4,1,1s-0.4,1-1,1S248.6,219.4,248.6,218.9z"/>
	<path class="st1" d="M236,218.9c0-0.6,0.4-1,1-1s1,0.4,1,1s-0.4,1-1,1S236,219.4,236,218.9z"/>
	<path class="st1" d="M225.9,223.2c0,0.6-0.4,1-1,1s-1-0.4-1-1s0.4-1,1-1S225.9,222.6,225.9,223.2z"/>
	<path class="st1" d="M230.3,223.2c0,0.6-0.4,1-1,1s-1-0.4-1-1s0.4-1,1-1S230.3,222.6,230.3,223.2z"/>
	<path class="st1" d="M234.7,223.2c0,0.6-0.4,1-1,1s-1-0.4-1-1s0.4-1,1-1S234.7,222.6,234.7,223.2z"/>
	<path class="st1" d="M239.1,223.2c0,0.6-0.4,1-1,1s-1-0.4-1-1s0.4-1,1-1S239.1,222.6,239.1,223.2z"/>
	<path class="st1" d="M273.3,223.2c0,0.6-0.4,1-1,1s-1-0.4-1-1s0.4-1,1-1S273.3,222.6,273.3,223.2z"/>
	<path class="st1" d="M277.8,223.2c0,0.6-0.4,1-1,1s-1-0.4-1-1s0.4-1,1-1S277.8,222.6,277.8,223.2z"/>
	<path class="st1" d="M243.5,223.2c0,0.6-0.4,1-1,1s-1-0.4-1-1s0.4-1,1-1S243.5,222.6,243.5,223.2z"/>
	<path class="st1" d="M265.2,223.2c0,0.6-0.4,1-1,1s-1-0.4-1-1s0.4-1,1-1S265.2,222.6,265.2,223.2z"/>
	<path class="st1" d="M248,223.2c0,0.6-0.4,1-1,1s-1-0.4-1-1s0.4-1,1-1S248,222.6,248,223.2z"/>
	<path class="st1" d="M252.4,223.2c0,0.6-0.4,1-1,1s-1-0.4-1-1s0.4-1,1-1S252.4,222.6,252.4,223.2z"/>
	<path class="st1" d="M261.3,223.2c0,0.6-0.4,1-1,1s-1-0.4-1-1s0.4-1,1-1S261.3,222.6,261.3,223.2z"/>
	<path class="st1" d="M281.5,223.2c0,0.6-0.4,1-1,1s-1-0.4-1-1s0.4-1,1-1S281.5,222.6,281.5,223.2z"/>
	<path class="st1" d="M256.8,223.2c0,0.6-0.4,1-1,1c-0.6,0-1-0.4-1-1s0.4-1,1-1C256.3,222.2,256.8,222.6,256.8,223.2z"/>
	<path class="st1" d="M269.4,223.2c0,0.6-0.4,1-1,1s-1-0.4-1-1s0.4-1,1-1S269.4,222.6,269.4,223.2z"/>
	<rect x="201.8" y="212.7" class="st1" width="17.4" height="2.7"/>
	<rect x="201.8" y="217.3" class="st1" width="17.4" height="2.7"/>
	<rect x="201.8" y="222.1" class="st1" width="17.4" height="2.7"/>
	<polygon class="st0" points="299.7,229.9 286.4,229.9 286.4,208.2 299.7,208.1 	"/>
	<rect x="579.4" y="219.1" class="st1" width="70.3" height="101.9"/>
	<rect x="575.9" y="219.1" class="st0" width="70.3" height="101.9"/>
	<rect x="584.6" y="230.1" class="st3" width="52.8" height="79.8"/>
	<path class="st1" d="M637.5,310c0,0,0-0.1,0-0.4s0-0.6,0-1.1c0-1,0-2.5,0-4.4c0-3.8,0-9.4,0-16.5c0-14.1,0-34-0.1-57.5l0.2,0.2
		h-52.8l0,0l0.2-0.2c0,30.1,0,57.9,0,79.8l-0.2-0.1l38.5,0.1h10.6h2.8h1h-0.9h-2.8h-10.6l-38.5,0.1h-0.2v0c0-22,0-49.7,0-79.8V230
		h0.2h52.8h0.2v0.2c0,23.5-0.1,43.5-0.1,57.6c0,7,0,12.6,0,16.4c0,1.9,0,3.3,0,4.3c0,0.5,0,0.9,0,1.1S637.5,310,637.5,310z"/>
	<path class="st1" d="M646.4,219.1c-0.4,0.6-0.8,1.3-1.2,1.8c-0.8,1.1-2,2.6-3.3,4.2s-2.6,3-3.5,4c-0.5,0.6-1,1.1-1.5,1.6
		c0.4-0.6,0.8-1.2,1.3-1.8l3.4-4.1c1.3-1.6,2.4-3,3.4-4.1C645.4,220.1,645.9,219.6,646.4,219.1z"/>
	<path class="st3" d="M637.8,309.7c2.6,4.2,5.7,8,9.2,11.5"/>
	<path class="st1" d="M647,321.2c-0.6-0.4-1.1-0.9-1.6-1.5c-2.5-2.5-4.6-5.2-6.5-8.2c-0.4-0.6-0.8-1.2-1.1-1.9
		c0.5,0.5,0.9,1.1,1.3,1.7c0.8,1.1,1.9,2.6,3.1,4.2s2.5,3,3.4,4C646.1,320.1,646.6,320.7,647,321.2z"/>
	<path class="st3" d="M575.9,320.9l9.2-11.4"/>
	<path class="st1" d="M585.1,309.6c-1.4,2-2.9,3.9-4.5,5.8c-1.5,1.9-3.1,3.8-4.8,5.6C578.8,317,581.8,313.2,585.1,309.6z"/>
	<path class="st1" d="M575.9,219.1c1.6,1.7,3.1,3.5,4.5,5.3c1.5,1.8,2.9,3.6,4.2,5.6c-1.6-1.7-3.1-3.5-4.5-5.3
		C578.6,222.9,577.2,221,575.9,219.1z"/>
	<rect x="603.3" y="246.3" class="st0" width="17.7" height="50.2"/>
	<polygon class="st1" points="677.8,121.1 677.8,179.9 593.3,179.9 590.3,121.5 	"/>
	<rect x="590.3" y="121.5" class="st0" width="84.5" height="58.3"/>
	<path class="st1" d="M675.2,180.2h-85.3v-59.1h85.3V180.2z M590.7,179.4h83.7v-57.5h-83.7L590.7,179.4z"/>
	<rect x="599.4" y="128.8" class="st3" width="66.2" height="43.8"/>
	<path class="st1" d="M665.6,128.8h-0.3h-0.9h-3.6h-13.6l-47.6,0.1l0.2-0.2c0,13.4,0,28.2,0,43.8l0,0l-0.2-0.2h66.2l-0.2,0.2
		c0-13.3,0.1-24.2,0.1-31.9l0-8.8c0-1,0-1.8,0-2.3s0-0.8,0-0.8s0,0.3,0,0.8s0,1.3,0,2.3c0,2,0,5,0,8.8c0,7.6,0,18.6,0.1,32v0.2h-0.2
		h-66.2h-0.2v-0.2l0,0c0-15.6,0-30.4,0-43.8v-0.2h0.2l47.8,0.1h13.6h3.6h1.2L665.6,128.8z"/>
	<path class="st1" d="M617.3,106.4c0.5,0.3,1,0.6,1.5,0.9c0.9,0.6,2,1.5,3.3,2.5s2.4,2,3.2,2.7c0.5,0.4,0.9,0.8,1.2,1.2
		c-1.6-1.1-3.2-2.3-4.6-3.6C620.2,109,618.7,107.7,617.3,106.4z"/>
	<path class="st1" d="M701.8,106.5c-1.4,1.4-2.9,2.6-4.4,3.8c-1.5,1.3-3.1,2.4-4.7,3.4c1.4-1.4,2.9-2.6,4.5-3.8
		C698.5,108.7,700.1,107.6,701.8,106.5z"/>
	<path class="st3" d="M701.7,164.8l-9.4-7.6"/>
	<path class="st1" d="M692.3,157.2c3.3,2.3,6.5,4.9,9.4,7.6c-1.7-1.1-3.3-2.3-4.8-3.6C695.2,160,693.7,158.6,692.3,157.2z"/>
	<path class="st1" d="M617.3,164.8c1.4-1.4,2.8-2.6,4.4-3.8c1.5-1.3,3-2.4,4.7-3.4c-1.4,1.4-2.8,2.6-4.4,3.8
		C620.5,162.7,618.9,163.8,617.3,164.8z"/>
	<rect x="612.9" y="142.4" class="st0" width="41.6" height="14.7"/>
	<rect x="88.2" y="163.6" class="st1" width="76.1" height="125.9"/>
	<rect x="85.7" y="163.6" class="st0" width="76.1" height="125.9"/>
	<rect x="88.9" y="166.1" class="st4" width="69.6" height="120.8"/>
	<rect x="102.2" y="181.8" class="st0" width="42.8" height="89.4"/>
	<path class="st0" d="M102.2,239.6c-0.1-8.4,7.4-16.5,15.7-17.7c3.9-0.6,8.1,0.2,11.8-1.3c6.6-2.7,8.7-11.4,15.3-14l0.3,64.6h-43.1
		V239.6z"/>
</g>
<g id="freepik--Floor--inject-72">
	<path class="st5" d="M706.7,456c0,0.1-148.5,0.3-331.7,0.3S43.3,456.1,43.3,456s148.5-0.3,331.7-0.3S706.7,455.8,706.7,456z"/>
</g>
<g id="freepik--character-3--inject-72">
	<path class="st6" d="M524.8,401.8l3.8,12c1.5,5,5.6,8.7,10.7,9.6l25.5,4.8l7-0.2l-7-8.6l-19.2-6.5c-1.9-0.4-3.4-1.8-3.9-3.7
		l-7.6-16.6l-9.7,5.9L524.8,401.8z"/>
	<path class="st5" d="M506.1,322.5c3.4-2.3,9.5-1.9,13.1,0.2s5.4,4.9,6.1,9.8c0.3,1.7,0.5,3.4,0.6,5.2c-0.2,1.5,0.3,3,1.3,4.1
		c1,1,2.7,1.3,3.3,2.6c0.6,1.1,0.2,2.5-0.9,3.2c-0.6,0.3-1.2,0.4-1.9,0.2c0.4,1,0,2.2-1,2.8c-1,0.5-2.1,0.6-3.2,0.3
		c-3.5-1-5.9-4.2-5.9-7.9"/>
	<path class="st5" d="M511.8,455.9c-17.5-5.8-5.5-29-5.5-29l76.7,7.2c6.1,0,11.1,4.9,11.2,11c0,0,0,0.1,0,0.1l0,0
		c0,6.1-5,11.1-11.1,11.1L511.8,455.9"/>
	<path class="st5" d="M493.8,455.9c-17.1-5.8-5.3-29-5.3-29l74.8,7c7.3,0.1,10.9,3.6,10.9,11.1l0,0c0,6.1-2.3,11.3-10.8,11.1
		L493.8,455.9"/>
	<path class="st7" d="M511.2,430.8h0.2h0.6l2.4,0.1l8.8,0.4l29,1.6c1.4,0.1,2.8,0.2,4.2,0.2s2.8,0.1,4.1,0.2s2.7,0.2,3.9,0.3
		c1.3,0.1,2.5,0.3,3.7,0.8c1.2,0.4,2.2,1.1,3.1,2c0.8,0.9,1.5,1.9,1.9,3c0.4,1.1,0.6,2.2,0.8,3.3c0.1,1,0.2,2.1,0.2,3.1
		c0,1.8-0.3,3.6-1,5.2c-0.5,1.2-1.3,2.3-2.3,3.2c-0.6,0.5-1.3,0.9-2.1,1.2c-0.5,0.2-0.5,0.1,0-0.1c0.7-0.3,1.4-0.7,2-1.2
		c1-0.9,1.7-1.9,2.2-3.1c0.6-1.6,1-3.4,0.9-5.1c0-1-0.1-2-0.2-3c-0.1-1.1-0.4-2.2-0.8-3.2c-0.4-1.1-1-2.1-1.8-2.9
		c-0.9-0.8-1.9-1.5-3-1.9c-1.2-0.4-2.4-0.7-3.7-0.7c-1.3-0.1-2.6-0.2-3.9-0.3s-2.7-0.1-4.1-0.1s-2.8-0.1-4.2-0.2l-29-1.7l-8.8-0.6
		l-2.4-0.2h-0.6L511.2,430.8z"/>
	<path class="st7" d="M494.3,438.1c0.2,0.1,0.4,0.2,0.6,0.3c0.6,0.2,1.2,0.3,1.8,0.4c3.9,0.3,7.3-2.6,7.6-6.5c0-0.4,0-0.9,0-1.3
		c-0.1-0.6-0.2-1.2-0.4-1.8c-0.1-0.2-0.2-0.4-0.3-0.6c0.2,0.8,0.4,1.6,0.4,2.4c0.3,3.9-2.6,7.2-6.5,7.5c-0.3,0-0.5,0-0.8,0
		C495.9,438.5,495.1,438.3,494.3,438.1z"/>
	<path class="st8" d="M516.8,363.9c9.5,1.1,11.1,7.5,15.5,13.9l6.4,11.8l-11.7,7.2l0.4,18.2l4.8,16.1l-44.4-2.5l5.5-19l-6.5-19.6
		c-0.4-4-0.2-8.1,0.8-12c3.3-11.6,11.2-12.9,18.1-14.7c3.2-0.4,6.4-0.4,9.6,0"/>
	<g class="st9">
		<path d="M493,403.8c0.8,3.9,1.9,7.7,3.3,11.4c0.9,2.4,2.1,4.6,3.6,6.6c2.3,2.6,5.3,4.4,8.6,5.2c3.3,0.8,6.8,1,10.2,0.5l-16.9-9.5
			l-4.5-15.6L493,403.8z"/>
	</g>
	<path class="st5" d="M527.3,414.5c-0.1-0.4-0.1-0.9-0.1-1.3c0-0.9-0.1-2.1-0.2-3.5c-0.1-3-0.3-7.1-0.4-11.6s-0.2-8.6-0.3-11.6
		c0-1.4,0-2.6,0-3.5c0-0.4,0-0.9,0-1.3c0.1,0.4,0.1,0.9,0.1,1.3c0,0.9,0.1,2.1,0.2,3.5c0.1,3,0.3,7.1,0.4,11.6s0.2,8.6,0.3,11.6
		c0,1.4,0,2.6,0,3.5C527.4,413.7,527.4,414.1,527.3,414.5z"/>
	<path class="st5" d="M487.5,389.9c0,0.1,0.1,0.2,0.1,0.2l0.2,0.8c0.2,0.7,0.5,1.6,0.9,2.9l3.2,10.4l-0.2-0.1l19.8-7.3l0.5-0.2
		l-0.1,0.2c-1.2-4.4-2.7-8.8-4.6-13c-1.5-3.5-3.4-6.7-5.9-9.5c-1-1.1-2.1-2-3.3-2.7c-0.9-0.5-2-0.9-3.1-0.9c-0.2,0-0.4,0-0.6,0
		l-0.5,0.1c-0.2,0-0.3,0-0.5,0l-0.4,0.1l-0.5,0.1h-0.2l0.2-0.1l0.5-0.2l0.4-0.1c0.2,0,0.3-0.1,0.5-0.1l0.6-0.1c0.2,0,0.4,0,0.6,0
		c1.1,0,2.2,0.3,3.1,0.9c1.3,0.7,2.4,1.6,3.4,2.7c2.5,2.9,4.5,6.1,6,9.5c1.9,4.2,3.5,8.5,4.7,13v0.1h-0.1l-0.5,0.2
		c-7.4,2.8-14.3,5.2-19.8,7.2h-0.1V404c-1.3-4.3-2.4-7.9-3.1-10.4c-0.4-1.2-0.7-2.2-0.8-2.9c-0.1-0.3-0.2-0.6-0.2-0.8
		C487.6,389.9,487.6,389.9,487.5,389.9z"/>
	<path class="st6" d="M494.8,403.2l4.3,13.3c1.5,5,5.6,8.8,10.7,9.7l25.5,4.9l7-0.2L540,425l-23.8-9.4c-1.9-0.4-3.4-1.9-3.9-3.7
		l-3.6-13.7L494.8,403.2z"/>
	<polygon class="st10" points="517.6,431.3 517.8,429.6 537.4,428.9 547,404.6 583.7,407.1 571.3,434 	"/>
	<path class="st3" d="M561.5,420.3c-0.6,0.9-1.8,1.2-2.7,0.6c-0.9-0.6-1.2-1.8-0.6-2.7c0.6-0.9,1.7-1.2,2.6-0.6
		C561.8,418.2,562.1,419.4,561.5,420.3C561.5,420.3,561.5,420.3,561.5,420.3z"/>
	<path class="st5" d="M513.4,323.6c-12.1-5.8-18.2,2.4-20.1,7.8c-0.3,1-0.6,2.1-1,3c-0.4,1-1.2,1.8-2.1,2.4
		c-0.7,0.3-1.5,0.4-2.3,0.6c-1.3,0.5-2.2,1.6-2.5,2.9c-0.3,1.3-0.1,2.7,0.7,3.8c0.4,0.5,0.7,1.1,0.9,1.8c0,0.5-0.1,0.9-0.3,1.3
		c-0.5,2,0.7,3.9,2.7,4.4c1.2,0.3,2.4,0,3.3-0.9c0.4,1.2,1.2,2.1,2.2,2.8c1.1,0.5,2.7,0,2.9-1.1c0.7,1.4,2.4,2.1,3.8,1.4
		c0.9-0.4,1.6-1.3,1.6-2.4"/>
	<path class="st6" d="M503.1,329.5c-1.3,0.1-2.3,1.3-2.3,2.6l0,0l1.5,34.7c0.1,4.1,6,6.4,10.4,6.3l0,0c4.4-0.1,4.6-2.3,4.7-6.2
		c0.1-6.5,0.1-9,0.1-8.9s5.6-0.9,6.8-8.2c0.6-3.6,0.4-9.6,0.1-14.5c-0.3-4.4-3.2-9.8-7.5-9.3L503.1,329.5z"/>
	<path class="st5" d="M522.4,340.1c0,0.5-0.4,0.9-0.9,0.9c-0.5,0.1-0.9-0.3-1-0.8c0,0,0,0,0,0c0-0.5,0.4-0.9,0.9-1
		C521.9,339.2,522.3,339.5,522.4,340.1C522.4,340,522.4,340.1,522.4,340.1z"/>
	<path class="st5" d="M523,338.4c-0.1,0.1-0.8-0.4-1.8-0.4s-1.7,0.5-1.8,0.4s0.1-0.3,0.4-0.5c0.4-0.3,1-0.5,1.5-0.5
		c0.5,0,1,0.2,1.5,0.5C522.9,338.2,523,338.4,523,338.4z"/>
	<path class="st5" d="M512.5,340.1c0,0.5-0.4,0.9-0.9,0.9c-0.5,0.1-0.9-0.3-1-0.8c0,0,0,0,0-0.1c0-0.5,0.4-0.9,0.9-1
		C512,339.2,512.5,339.5,512.5,340.1C512.5,340,512.5,340,512.5,340.1z"/>
	<path class="st5" d="M513.1,338.6c-0.1,0.1-0.8-0.4-1.8-0.4s-1.8,0.5-1.9,0.4s0.1-0.3,0.4-0.5c0.9-0.6,2.1-0.6,2.9,0
		C513,338.4,513.1,338.6,513.1,338.6z"/>
	<path class="st5" d="M516.7,346.1c0.5-0.2,1.1-0.3,1.6-0.3c0.3,0,0.5-0.1,0.5-0.3c0-0.3,0-0.5-0.2-0.8c-0.2-0.6-0.5-1.3-0.8-2
		c-0.7-1.7-1.3-3.4-1.7-5.1c0.8,1.6,1.5,3.3,2.1,5c0.3,0.7,0.5,1.3,0.7,2c0.2,0.3,0.2,0.7,0.1,1c-0.1,0.2-0.2,0.3-0.4,0.4
		c-0.1,0-0.3,0.1-0.4,0.1C517.8,346.2,517.3,346.2,516.7,346.1z"/>
	<path class="st11" d="M517.4,358c-3.4,0-6.8-0.9-9.8-2.6c0,0,2.4,5,9.7,4.3L517.4,358z"/>
	<path class="st8" d="M516.3,348.5c-0.4-0.5-1-0.7-1.6-0.7c-0.4,0-0.9,0.3-1.1,0.6c-0.3,0.3-0.3,0.8-0.1,1.2
		c0.3,0.4,0.9,0.5,1.3,0.3c0.5-0.2,0.9-0.4,1.3-0.8c0.1-0.1,0.2-0.2,0.3-0.3C516.4,348.8,516.4,348.7,516.3,348.5"/>
	<path class="st5" d="M513.8,346.8c0.2,0,0.2,1.1,1.1,1.9s2.1,0.7,2.1,0.8s-0.3,0.2-0.8,0.2c-0.6,0-1.3-0.2-1.8-0.6
		c-0.5-0.4-0.8-0.9-0.8-1.6C513.6,347.1,513.7,346.8,513.8,346.8z"/>
	<path class="st5" d="M513.5,336.9c-0.1,0.3-1.1,0.1-2.3,0.3s-2.1,0.5-2.3,0.2s0.1-0.4,0.5-0.6c0.5-0.3,1.1-0.5,1.7-0.6
		c0.6-0.1,1.2,0,1.8,0.2C513.3,336.5,513.6,336.7,513.5,336.9z"/>
	<path class="st5" d="M522.6,335.5c-0.2,0.2-0.9,0-1.7,0s-1.5,0.2-1.7-0.1s0-0.4,0.3-0.6c0.4-0.3,0.9-0.4,1.4-0.4
		c0.5,0,1,0.2,1.4,0.5C522.6,335.2,522.7,335.4,522.6,335.5z"/>
	<path class="st6" d="M501.6,341.2c-0.6-0.3-1.3-0.3-1.9,0.1c-1.6,0.9-2.2,3-1.2,4.6c0.7,1.2,2,1.8,3.4,1.7"/>
	<path class="st5" d="M513.1,323.6c2.5,0.1,4.9,0.9,7,2.2c2.4,1.2,4.2,3.4,5,6c0.2,0.5,0.2,1.1-0.1,1.6c-0.5,0.6-1.3,0.8-2,0.4
		c-0.7-0.4-1.2-0.9-1.6-1.5c-0.4,1.7-2.1,2.7-3.8,2.2c-1.1-0.3-2-1.2-2.3-2.3c-0.1,1.5-1.4,2.6-2.8,2.5c-1.4-0.1-2.7-1.1-3.1-2.5
		c-0.2,1.3-0.6,2.5-1.3,3.6c-0.7,1.1-2,1.6-3.3,1.4c0.3,1.1,0.2,2.2,0,3.3c-0.3,1.1-1.5,1.7-2.6,1.5c-1-0.3-1.4-1.5-1.6-2.6
		c-0.5-2-0.8-4.1-0.8-6.1c0-2.1,0.7-4.1,1.9-5.8c1.4-1.7,3.3-2.8,5.3-3.3c2.1-0.5,4.2-0.7,6.3-0.6"/>
	<path class="st11" d="M501.1,345.4c0,0-0.3,0.1-0.6-0.1c-0.4-0.3-0.7-0.7-0.6-1.2c0-0.5,0.3-1,0.8-1.2c0.4-0.1,0.6-0.1,0.7-0.1
		s-0.2-0.2-0.7-0.1c-0.3,0.1-0.5,0.2-0.7,0.5c-0.2,0.3-0.3,0.6-0.4,1c-0.1,0.7,0.3,1.3,0.9,1.5C500.9,345.7,501.1,345.4,501.1,345.4
		z"/>
	<path class="st8" d="M521.9,324.5c-1.4-0.7-2.9-1.3-4.5-1.6c-1.7-0.3-3.4-0.4-5.1-0.1c-4.2,0.6-7.9,3.2-9.8,7
		c-0.8,1.5-1.3,3.2-1.5,4.9c-0.2,1.6-0.1,3.2,0.1,4.7c-0.2-0.4-0.3-0.8-0.3-1.2c-0.2-1.2-0.3-2.4-0.1-3.5c0.2-1.8,0.7-3.5,1.5-5
		c1.9-4,5.8-6.7,10.1-7.3c1.8-0.3,3.5-0.2,5.3,0.2c1.2,0.3,2.3,0.7,3.3,1.2C521.2,323.9,521.6,324.2,521.9,324.5z"/>
	<path class="st4" d="M510.6,392c-1,0.4-2,0.8-3,1c-1.9,0.5-4.4,1.3-7.2,2.2s-5.3,1.8-7.2,2.5c-1,0.4-2,0.7-3,1
		c0.9-0.5,1.9-1,2.9-1.3c1.8-0.7,4.3-1.7,7.1-2.6s5.4-1.6,7.3-2.1C508.5,392.4,509.6,392.1,510.6,392z"/>
	<path class="st4" d="M508.8,387.1c0,0.1-4.4,1.9-9.9,4s-10,3.7-10.1,3.5s4.4-1.9,9.9-4S508.7,387,508.8,387.1z"/>
	<path class="st4" d="M532.4,379c0,0.1-5.1,2-11.6,4.2s-11.7,3.9-11.8,3.8s5.1-2,11.6-4.2S532.4,378.9,532.4,379z"/>
	<path class="st4" d="M526,386.9c-2.4,1.1-4.8,2-7.3,2.7c-2.4,0.9-4.9,1.7-7.5,2.2c2.4-1.1,4.8-2,7.3-2.7
		C521,388.2,523.5,387.5,526,386.9z"/>
	<path class="st4" d="M534.5,383.2c-1.1,0.8-2.4,1.4-3.7,1.9c-1.2,0.6-2.5,1.1-3.9,1.5C529.3,385.1,531.9,384,534.5,383.2z"/>
</g>
<g id="freepik--character-2--inject-72">
	<path class="st7" d="M435.2,432l-50.2-3c-0.3-0.7-0.5-1.1-0.5-1.1l-13.6,0.3l-4.4-0.3c0,0-0.1,0.1-0.2,0.4l-45.6,1
		c-9.1,0-18.7,5.6-18.6,12.7c-0.1,6.8,3.2,14.1,11.4,13.9l62.2-0.4h62.2c8.1,0.1,10.3-4.8,10.3-10.6C449,434.1,442.2,432,435.2,432z
		"/>
	<path class="st5" d="M319.1,455.9h0.3h0.9h3.4l12.5-0.1l41.8-0.2l-0.2,0.2c-0.1-1.4-0.2-2.8-0.3-4.3c-0.2-3-0.4-6-0.6-8.8l0.1,0.2
		l-38.5-4.2l-11.4-1.3l-3.1-0.4l-0.8-0.1H323c0.1,0,0.2,0,0.3,0l0.8,0.1l3.1,0.3l11.4,1.2l38.5,4.1h0.1v0.1c0.2,2.8,0.4,5.8,0.6,8.8
		c0.1,1.5,0.2,2.9,0.3,4.3v0.2h-0.2l-41.8,0.1h-12.5h-3.4h-0.9L319.1,455.9z"/>
	<path class="st5" d="M331.9,438c0,0-0.7-0.5-1.8-1.1c-1.4-0.9-3-1.5-4.6-2c-1.6-0.5-3.3-0.7-4.9-0.7c-1.3,0-2.1,0.1-2.1,0
		c0.2-0.1,0.4-0.1,0.5-0.1c0.5-0.1,1-0.1,1.5-0.1c1.7,0,3.4,0.2,5,0.6c1.6,0.5,3.2,1.2,4.6,2.1c0.4,0.3,0.8,0.6,1.2,0.9
		C331.7,437.9,331.9,438,331.9,438z"/>
	<path class="st5" d="M431.3,435.1c0,0.1-9.9,2.5-22.1,5.4s-22.1,5.2-22.2,5.1s9.9-2.5,22.1-5.4S431.3,435,431.3,435.1z"/>
	<path class="st5" d="M423,434.2c-1.4,0.5-2.7,1.1-3.9,1.9c-1.1,0.9-2.2,1.9-3.1,3c0.2-0.4,0.4-0.8,0.7-1.1c0.6-0.8,1.4-1.5,2.3-2.1
		c0.9-0.6,1.8-1,2.8-1.3C422.1,434.3,422.6,434.2,423,434.2z"/>
	<polygon class="st12" points="377.3,444.1 386.7,445.4 386.7,455.6 378.1,455.4 	"/>
	<path class="st8" d="M386.7,445.4h4.2c0.8,0,1.6,0.2,2.3,0.6l2.2,1.3c1.3,0.7,2.6,1.3,3.9,1.8c2.6,0.8,6.9,1.9,7.8,2.6
		c2.6,2,1.8,4.4,0.4,4.6c-1.2,0.2-20.8-0.8-20.8-0.8L386.7,445.4z"/>
	<path class="st5" d="M393.6,454.7c-0.3-0.8-0.5-1.7-0.5-2.6c-0.1-0.9,0-1.8,0.3-2.7c0.1,0.9,0.1,1.8,0.1,2.7
		C393.6,452.9,393.7,453.8,393.6,454.7z"/>
	<path class="st5" d="M395.6,454.6c-0.2-0.8-0.2-1.6-0.2-2.4c-0.1-0.8,0-1.6,0.2-2.4c0.2,0.8,0.2,1.6,0.2,2.4
		C395.9,453,395.8,453.8,395.6,454.6z"/>
	<path class="st5" d="M398,455c-0.4-1.6-0.5-3.3-0.4-5c0.2,0.8,0.4,1.6,0.4,2.5C398.1,453.3,398.1,454.2,398,455z"/>
	<path class="st5" d="M391.8,452c-0.3,0-0.6-0.1-0.9-0.3c-0.8-0.3-1.5-0.8-2.1-1.3c-0.2-0.2-0.4-0.4-0.6-0.6
		c-0.2-0.2-0.4-0.5-0.5-0.8c-0.1-0.3-0.1-0.7,0.1-1c0.1-0.2,0.3-0.3,0.5-0.3c0.2,0,0.4,0,0.6,0.1c2.2,0.8,3.3,3.2,2.5,5.4
		c-0.3,0.9-0.9,1.6-1.6,2.1c-0.3,0.2-0.6,0.4-1,0.4c-0.2,0-0.4,0-0.5,0c-0.2-0.1-0.3-0.2-0.4-0.4c-0.1-0.3-0.1-0.7,0.1-1
		c0.2-0.2,0.3-0.5,0.5-0.7c0.6-0.6,1.3-1,2.1-1.4c0.3-0.1,0.6-0.2,0.9-0.2c0,0-0.3,0.1-0.8,0.4c-0.7,0.4-1.4,0.8-2,1.4
		c-0.2,0.2-0.3,0.4-0.5,0.6c-0.1,0.2-0.2,0.5-0.1,0.7c0.1,0.2,0.4,0.3,0.7,0.2c0.3-0.1,0.6-0.2,0.8-0.4c1.8-1.2,2.3-3.6,1.1-5.4
		c-0.5-0.7-1.1-1.2-1.9-1.5c-0.2-0.1-0.5-0.1-0.8,0.1c-0.2,0.2-0.2,0.5-0.1,0.8c0.2,0.5,0.6,0.9,1,1.2
		C389.8,451,390.8,451.6,391.8,452z"/>
	<path class="st5" d="M407.5,456.3c0.2-0.2,0.4-0.4,0.5-0.6c0.2-0.7,0.1-1.5-0.3-2.1c-0.6-1-1.5-1.7-2.6-2c-1.2-0.4-2.6-0.6-4-1.1
		c-2.5-0.7-4.8-1.8-7-3.1c-0.7-0.4-1.3-0.9-1.9-1.3c-0.2-0.2-0.4-0.4-0.6-0.6c0.3,0.1,0.5,0.3,0.7,0.5c0.5,0.3,1.1,0.7,2,1.2
		c2.2,1.3,4.5,2.3,6.9,3c1.4,0.4,2.8,0.6,4,1.1c1.1,0.4,2.1,1.1,2.7,2.1c0.4,0.7,0.5,1.5,0.2,2.3c-0.1,0.2-0.3,0.4-0.4,0.5
		C407.6,456.3,407.5,456.3,407.5,456.3z"/>
	<path class="st5" d="M366.8,321.8c-2.9,1.1-6.2,5.5-6.8,8.6c-0.5,2.7,0.2,5.5,0.5,8.2s0.3,5.8-1.5,7.9c-1.1,1.3-2.7,2.1-4,3.2
		c-3.9,3.4-4.3,9.3-0.9,13.2c0,0,0,0,0,0c-2.2,0.6-3.7,2.7-3.6,4.9c0.2,2.2,1.4,4.3,3.2,5.5c1.8,1.2,3.9,2,6.1,2.4
		c2.3,0.6,4.7,0.5,6.9-0.2c2.6-0.9,4.5-3.1,6.5-4.9c2.5-2.2,5.4-4.1,7.2-6.9c2.1-3.3,2.4-7.4,2.4-11.3c0-8-1-15.9-3-23.6"/>
	<path class="st12" d="M404.1,376.8l16,27.6c2,3.4,2.1,7.6,0.4,11.1l0,0c-2,4.1-6.3,6.6-10.8,6.5l-24.4-0.6l-0.7-8.9l21.4-4.2
		l-14.5-25L404.1,376.8z"/>
	<path class="st12" d="M345,424.3l22.5,5.9l0.5-6.7l-20.7-11.9l15-28.1l-12.7-6.4l-15.8,27.7l0,0c-3.4,6.3-0.9,14.2,5.4,17.6
		c0.7,0.4,1.4,0.7,2.1,0.9L345,424.3z"/>
	<path class="st8" d="M397.4,394.6l15.3-8.1c-1.9-3.8-4.1-7.5-6.6-10.9c-5-6.7-12.3-11.3-20.5-12.9l0,0l-17.6,0.2
		c-2.2,0.2-4.3,0.7-6.3,1.5v-0.1c-9.6,2.1-20.1,23-20.1,23l14,7.3l0.3,2.2c0.4,2.9,1.7,5.6,3.7,7.8l-4,26.7l45.3,0.8l-5.8-19.1
		L397.4,394.6z"/>
	<path class="st5" d="M359.9,404.8c-0.2-0.1-0.5-0.3-0.7-0.5c-0.6-0.5-1.1-1.1-1.5-1.7c-1.5-2.1-2.1-4.7-1.9-7.3
		c0.2-1.4,0.5-2.7,1-4.1c0.4-1.2,0.8-2.3,1.2-3.2s0.7-1.6,0.9-2.1c0.1-0.3,0.2-0.5,0.4-0.8c-0.1,0.3-0.2,0.5-0.3,0.8l-0.8,2.2
		c-0.3,0.9-0.7,2-1.1,3.2c-0.4,1.3-0.8,2.6-1,4c-0.1,1.4,0,2.7,0.4,4c0.3,1.1,0.8,2.1,1.4,3C358.5,403.3,359.2,404.1,359.9,404.8z"
		/>
	<path class="st4" d="M361.3,381.5c-0.9-0.8-1.7-1.8-2.4-2.8c-0.8-0.9-1.5-2-2-3.1C358.6,377.4,360.1,379.4,361.3,381.5L361.3,381.5
		z"/>
	<path class="st4" d="M368.6,369.1c-0.8,0.7-1.7,1.3-2.7,1.8c-0.9,0.6-1.9,1-2.9,1.3c0.8-0.7,1.7-1.3,2.7-1.8
		C366.6,369.9,367.6,369.4,368.6,369.1z"/>
	<path class="st4" d="M350.9,386.8c-0.2-1-0.2-2,0-3c0-1,0.2-2,0.5-2.9c0.2,1,0.2,2,0,3C351.4,384.8,351.3,385.8,350.9,386.8z"/>
	<path class="st4" d="M367.2,392.5c-0.7,0.7-1.6,1.3-2.5,1.7c-0.9,0.6-1.8,1-2.8,1.3c0.7-0.7,1.6-1.3,2.5-1.7
		C365.3,393.2,366.2,392.8,367.2,392.5z"/>
	<path class="st4" d="M372.6,380.4c-0.5,0.9-1.1,1.7-1.8,2.4c-1.1,1.2-2,2.1-2.2,2c0.5-0.9,1.1-1.7,1.8-2.4
		C371.5,381.2,372.5,380.2,372.6,380.4z"/>
	<path class="st4" d="M383.1,384c-0.7-0.6-1.4-1.3-1.9-2.2c-0.6-0.7-1.1-1.6-1.4-2.5c0.7,0.6,1.4,1.3,1.9,2.2
		C382.3,382.3,382.8,383.1,383.1,384z"/>
	<path class="st4" d="M377.6,395.4c-0.6-2.3-0.8-4.6-0.7-7c0.4,1.1,0.6,2.3,0.6,3.5C377.7,393.1,377.7,394.3,377.6,395.4z"/>
	<path class="st4" d="M373.3,405.3c-0.7-0.8-1.3-1.6-1.8-2.6c-0.6-0.9-1-1.8-1.3-2.8c0.7,0.8,1.4,1.6,1.8,2.6
		C372.6,403.4,373,404.3,373.3,405.3z"/>
	<path class="st4" d="M387.4,399.6c-1,1.9-2.4,3.6-3.9,5.1C384.5,402.8,385.8,401.1,387.4,399.6z"/>
	<path class="st4" d="M393.4,393.9c-1.2-0.3-2.3-1-3.2-1.8c-1-0.7-1.9-1.6-2.5-2.7c1,0.7,1.9,1.5,2.8,2.3
		C391.5,392.4,392.5,393.1,393.4,393.9z"/>
	<path class="st4" d="M403.1,385.7c-1.1,0.3-2.3,0.4-3.5,0.4c-1.2,0.1-2.3,0.1-3.5-0.2c1.1-0.3,2.3-0.4,3.5-0.3
		C400.8,385.4,402,385.5,403.1,385.7z"/>
	<g class="st9">
		<path d="M405.6,373.2c2.6,4.2,1.4,9.8-2.9,12.4c-3.5,2.2-8.1,1.7-11-1.2c-0.5-0.5-1-1-1.6-1.3c-0.6-0.2-1.3-0.4-1.9-0.4
			c-3.8-0.6-6.4-4.2-5.8-8c0.2-1.1,0.6-2,1.2-2.9L405.6,373.2z"/>
	</g>
	<polygon class="st10" points="353.2,437.9 350.6,408.1 405.8,407.9 402.2,438.1 	"/>
	<path class="st4" d="M381.8,423.9c0,1.9-1.6,3.5-3.5,3.5c-1.9,0-3.5-1.6-3.5-3.5c0-1.9,1.6-3.5,3.5-3.5c0,0,0,0,0,0
		C380.2,420.4,381.7,421.9,381.8,423.9z"/>
	<path class="st12" d="M379.1,373.2c4.6-0.1,8.4-3.9,8.4-8.5l0.4-34.3l0,0c0-1.4-1-2.6-2.4-2.8L371,324c-4.6-0.5-7.7,5.2-8,9.9
		c-0.3,5.2-0.5,11.5,0.1,15.3c1.2,7.8,7.2,8.7,7.2,8.7s0,3,0,6.7c0,4.8,3.9,8.6,8.7,8.6C379,373.3,379,373.3,379.1,373.2
		L379.1,373.2z"/>
	<path class="st5" d="M366,338.9c0,0.6,0.4,1,1,1c0.5,0,0.9-0.4,1-0.9c0-0.6-0.4-1-1-1C366.5,338,366.1,338.4,366,338.9z"/>
	<path class="st5" d="M364.4,337.2c0.1,0.1,0.9-0.4,1.9-0.4s1.9,0.5,2,0.4s-0.1-0.3-0.4-0.5c-0.5-0.3-1-0.5-1.6-0.5
		c-0.6,0-1.1,0.2-1.5,0.5C364.5,336.9,364.3,337.1,364.4,337.2z"/>
	<path class="st5" d="M376.2,338.9c0,0.6,0.4,1,1,1c0.5,0,1-0.4,1-0.9c0,0,0,0,0,0c0-0.5-0.4-1-1-1
		C376.7,338,376.3,338.4,376.2,338.9z"/>
	<path class="st5" d="M374.9,337.4c0.1,0.1,0.9-0.4,2-0.4s1.9,0.5,2,0.4s-0.1-0.3-0.4-0.5c-0.5-0.3-1-0.5-1.6-0.5
		c-0.6,0-1.1,0.2-1.5,0.5C375,337.1,374.9,337.4,374.9,337.4z"/>
	<path class="st5" d="M371,345.3c-0.6-0.2-1.1-0.3-1.7-0.3c-0.3,0-0.5-0.1-0.6-0.3c0-0.3,0-0.6,0.2-0.8c0.2-0.7,0.5-1.4,0.8-2.1
		c0.7-1.8,1.4-3.6,1.8-5.4c-0.9,1.7-1.6,3.5-2.2,5.3l-0.8,2.1c-0.2,0.3-0.2,0.7-0.1,1.1c0.1,0.2,0.2,0.3,0.5,0.4
		c0.2,0,0.3,0.1,0.5,0.1C369.8,345.4,370.4,345.4,371,345.3z"/>
	<path class="st13" d="M370.3,358c3.7,0.1,7.2-0.9,10.4-2.8c0,0-2.5,5.3-10.3,4.6L370.3,358z"/>
	<path class="st13" d="M371.5,347.9c0.4-0.5,1.1-0.8,1.7-0.7c0.5,0,0.9,0.3,1.2,0.6c0.3,0.4,0.3,0.9,0.1,1.3
		c-0.3,0.4-0.9,0.5-1.4,0.4c-0.5-0.2-1-0.5-1.4-0.8c-0.1-0.1-0.2-0.2-0.3-0.3C371.4,348.2,371.4,348.1,371.5,347.9"/>
	<path class="st5" d="M374.2,346.1c-0.2,0-0.2,1.1-1.2,2s-2.2,0.7-2.2,0.9s0.3,0.2,0.8,0.2c0.7,0,1.3-0.2,1.9-0.6
		c0.5-0.4,0.8-1,0.9-1.7C374.4,346.4,374.3,346.1,374.2,346.1z"/>
	<path class="st5" d="M374.4,335.5c0.1,0.3,1.2,0.2,2.4,0.3s2.3,0.5,2.4,0.2s-0.1-0.4-0.5-0.7c-0.5-0.4-1.2-0.6-1.8-0.6
		c-0.6-0.1-1.3,0-1.9,0.2C374.6,335.2,374.4,335.4,374.4,335.5z"/>
	<path class="st5" d="M364.5,335.2c0.2,0.2,0.9,0,1.8,0s1.6,0.2,1.8-0.1s0-0.4-0.4-0.6c-0.4-0.3-1-0.4-1.5-0.4c-0.5,0-1,0.2-1.4,0.5
		C364.6,334.9,364.5,335.1,364.5,335.2z"/>
	<path class="st5" d="M406.7,369.8c-1.4-2.5-4.6-4.1-4.6-7c0-1.7,1.3-3.3,1.4-5c0.2-3.5-4.3-5.3-5.5-8.6c-1.1-3,0.8-6.3,0.1-9.4
		c-0.8-3.8-4.2-5.3-7-7.8c-1.2-1.1-2.2-2.5-2.9-3.9c-0.1-0.2-0.2-0.4-0.3-0.5c-1.9-3.2-5.3-5.4-9-5.8c-3.4-1.1-7-1.3-10.5-0.5
		c-1.9,0.4-3.6,1.4-4.9,2.8c-1.3,1.4-1.8,3.4-1.4,5.3c0.5,1.9,2.3,3.1,4.3,3c1.4-0.2,2.8-1.2,4.2-0.8s2,2,3.4,2.2s2.5-0.9,3.8-1.1
		s2.8,1.1,3.4,2.4c0.3,0.5,0.5,1.1,0.6,1.6c1.1,5.5,3.2,8,1.7,11.2c-0.8,1.7-2.1,3.2-2.3,5.1c-0.5,4.3,5.1,7.4,4.8,11.7
		c-0.1,1.8-1.3,3.4-2,5.1c-1.3,3.7,0,7.7,3,10.1c1.5,1.2,3.6,1.6,5.5,1c0.2-0.1,0.4-0.2,0.6-0.3c1,1,2.3,1.6,3.6,1.9
		c3.3,0.7,6.7-1.2,8.7-3.9C407.5,376.2,408.3,372.6,406.7,369.8z"/>
	<path class="st7" d="M393.3,380.6c0.9-0.2,1.9-0.5,2.7-0.9c1-0.5,1.9-1.2,2.6-2.1c1-1.1,1.6-2.5,1.9-3.9c0.3-1.8-0.1-3.6-0.9-5.2
		c-1-1.8-2.6-3.2-4.5-3.9c-1.1-0.4-2.1-1-2.9-1.9c-0.8-1-1.1-2.3-0.9-3.5c0.2-1.2,0.7-2.4,1.3-3.5c0.6-1.1,1.2-2.2,1.6-3.4
		c0.4-1.1,0.4-2.4-0.1-3.5c-0.5-1.1-1.2-2.1-2.1-2.9c-0.8-0.9-1.7-1.7-2.4-2.6c-0.7-0.9-1.3-1.9-1.8-3c-0.8-2-1.3-4-1.6-6.1
		c-0.3-1.8-0.7-3.6-1.2-5.3c-0.7-2.5-2.3-4.8-4.4-6.2c-0.8-0.5-1.7-0.8-2.7-1h0.2c0.2,0,0.4,0,0.6,0.1c0.7,0.1,1.4,0.4,2,0.8
		c1,0.6,1.9,1.3,2.6,2.2c0.9,1.2,1.6,2.6,2.1,4c0.5,1.8,1,3.5,1.3,5.3c0.3,2.1,0.9,4.1,1.6,6c0.4,1,1,2,1.7,2.8
		c0.7,0.9,1.6,1.7,2.4,2.5c0.9,0.9,1.6,1.9,2.2,3c0.5,1.2,0.6,2.6,0.1,3.9c-0.8,2.5-2.6,4.4-2.9,6.8c-0.2,1.1,0,2.2,0.7,3.1
		c0.8,0.8,1.7,1.4,2.8,1.7c1,0.4,2,1,2.8,1.7c2.2,2,3.3,4.9,2.8,7.9c-0.3,1.5-1,2.9-2,4.1c-0.8,0.9-1.7,1.6-2.7,2.1
		c-0.7,0.3-1.3,0.5-2.1,0.7c-0.2,0-0.4,0-0.6,0.1S393.3,380.7,393.3,380.6z"/>
</g>
<g id="freepik--character-1--inject-72">
	<path class="st8" d="M144,447.1l1.4-2.2l12.5,7.9l-2.9,4.9l-0.8-0.4c-3.6-1.9-18.3-9.6-20.2-11.7C131.7,443.3,144,447.1,144,447.1z
		"/>
	<g class="st14">
		<path class="st3" d="M150.4,454.9c0.8-1,1.9-1.7,3.2-1.9c1.3-0.2,2.6,0.1,3.6,1l-2.1,3.5L150.4,454.9z"/>
	</g>
	<g class="st14">
		<path class="st3" d="M137.9,445.4c0,0-4.4-1.1-4.3-0.2c0.1,0.9,14.6,9.3,21.4,12.5l0.2-0.3l-17-9.7
			C138.1,447.7,138.6,445.9,137.9,445.4z"/>
	</g>
	<path class="st5" d="M155.3,457.5l-0.2-0.1l-0.6-0.3l-2.4-1.2c-2-1.1-4.7-2.6-7.7-4.3c-3-1.7-5.7-3.4-7.6-4.6l-2.3-1.4l-0.6-0.4
		l-0.2-0.1c0.1,0,0.2,0.1,0.2,0.1l0.6,0.4l2.3,1.4c1.9,1.2,4.6,2.8,7.6,4.5s5.7,3.2,7.7,4.3l2.3,1.3l0.6,0.4
		C155.2,457.5,155.3,457.5,155.3,457.5z"/>
	<path class="st5" d="M138,447.9c0.1-0.4,0.2-0.9,0.2-1.4c0-0.5-0.1-0.9-0.3-1.3c0.3,0.4,0.5,0.9,0.4,1.3
		C138.4,447.1,138.3,447.5,138,447.9z"/>
	<path class="st5" d="M142.8,448.2c-0.1-0.2-0.1-0.5-0.1-0.7c0-0.2,0-0.5,0.1-0.7c0.1,0.2,0.1,0.5,0.1,0.7
		C142.9,447.7,142.9,448,142.8,448.2z"/>
	<path class="st5" d="M144.2,448.2c0,0-0.2-0.2-0.3-0.6c-0.1-0.2-0.1-0.4-0.1-0.6c0,0,0.2,0.2,0.3,0.6
		C144.2,448,144.2,448.2,144.2,448.2z"/>
	<path class="st5" d="M145.5,447.4c-0.3,0-0.5-0.1-0.7-0.3c-0.4-0.2-0.7-0.4-0.6-0.5c0.3,0,0.5,0.2,0.7,0.3
		C145.3,447.2,145.5,447.4,145.5,447.4z"/>
	<path class="st5" d="M146.2,446.7c-0.3,0-0.6,0-0.9-0.2c-0.4-0.2-0.7-0.5-0.7-0.5c0.3,0.1,0.5,0.2,0.8,0.4
		C145.7,446.4,146,446.6,146.2,446.7z"/>
	<path class="st5" d="M143,446.8c-0.3-0.1-0.6-0.3-0.8-0.5c-0.3-0.2-0.5-0.4-0.8-0.7c-0.1-0.2-0.3-0.3-0.4-0.5
		c-0.1-0.1-0.1-0.3-0.1-0.4c0-0.1,0.2-0.2,0.3-0.2c0.8,0.1,1.5,0.7,1.6,1.5c0,0.2,0,0.5-0.1,0.7c0,0.2-0.1,0.2-0.1,0.2
		c0-0.3,0-0.6,0-0.9c-0.1-0.3-0.2-0.6-0.4-0.9c-0.3-0.3-0.6-0.5-1-0.5c-0.2,0-0.2,0.2-0.1,0.4c0.1,0.2,0.2,0.3,0.4,0.5
		c0.2,0.3,0.5,0.5,0.7,0.7C142.7,446.6,143,446.8,143,446.8z"/>
	<path class="st5" d="M142.8,446.8c0-0.2,0.1-0.5,0.2-0.6c0.1-0.2,0.3-0.4,0.6-0.5c0.3-0.1,0.6-0.1,0.9,0c0.1,0.1,0.1,0.4,0,0.5
		c-0.1,0.1-0.2,0.2-0.3,0.3c-0.2,0.1-0.4,0.2-0.7,0.3C143.3,446.8,143.1,446.8,142.8,446.8c0,0,0.3,0,0.7-0.1
		c0.2-0.1,0.4-0.2,0.6-0.3c0.2-0.1,0.5-0.4,0.3-0.5c-0.2-0.1-0.5-0.1-0.7,0c-0.2,0.1-0.4,0.2-0.5,0.4
		C143,446.4,142.9,446.6,142.8,446.8z"/>
	<path class="st5" d="M157.1,453.9c0,0-0.3-0.2-1-0.5c-1.6-0.7-3.5-0.4-4.9,0.7c-0.5,0.4-0.8,0.8-0.8,0.8s0-0.1,0.2-0.3
		c0.2-0.2,0.3-0.4,0.5-0.6c1.4-1.2,3.3-1.5,5-0.8c0.2,0.1,0.5,0.3,0.7,0.4C156.9,453.8,157,453.8,157.1,453.9z"/>
	<path class="st5" d="M149.5,452.8c-0.7-0.2-1.4-0.5-2-0.9c-0.6-0.3-1.2-0.7-1.8-1.2c0,0,0.8,0.5,1.9,1.1S149.5,452.7,149.5,452.8z"
		/>
	<path class="st5" d="M152,454.2c0,0-0.2,0.1-0.4,0.3s-0.3,0.3-0.4,0.3s0-0.2,0.3-0.4S152,454.2,152,454.2z"/>
	<path class="st5" d="M153.6,453.6c0,0-0.1,0.1-0.3,0.2c-0.2,0.1-0.4,0.1-0.4,0c0-0.1,0.1-0.1,0.4-0.2
		C153.4,453.5,153.6,453.5,153.6,453.6z"/>
	<path class="st5" d="M155.3,453.8c0,0-0.2-0.1-0.4-0.1c-0.2,0-0.4,0-0.4-0.1s0.2-0.2,0.5-0.1S155.3,453.8,155.3,453.8z"/>
	<path class="st5" d="M156.4,454.1c0,0-0.1,0.1-0.2,0s-0.2-0.1-0.2-0.1s0.1-0.1,0.2,0C156.3,454,156.4,454.1,156.4,454.1z"/>
	<path class="st5" d="M248.4,437.7l-49.8-47c-3.1-3.2-7.3-4.9-11.7-4.9l0,0c-5.9,0-11.3,3.2-14.2,8.2l-29.9,49.5l18.2,11.2
		l26.9-38.8l24.6,22.2L248.4,437.7z"/>
	<path class="st5" d="M263,440.1c0.2,0.6,1.7,16.7-19.9,16.7h-57.5c-7.3,0-13.2-5.9-13.2-13.2c0,0,0,0,0,0l0,0
		c0-7.3,5.9-13.2,13.2-13.2h53.6c1.9,0,3.8,0.4,5.6,1.2L263,440.1z"/>
	<path class="st7" d="M180.6,430.4c0,0.1,11.9,0.2,26.5,0.2s26.5-0.1,26.5-0.2s-11.9-0.2-26.5-0.2S180.6,430.3,180.6,430.4z"/>
	<path class="st7" d="M189.4,405c-0.1,0-0.1,2.5-0.6,5.5s-1.1,5.4-1,5.5c0.8-1.7,1.3-3.5,1.5-5.4C189.7,408.7,189.7,406.9,189.4,405
		z"/>
	<path class="st7" d="M187,404.7c-0.3,3.8,0.1,7.6,1,11.2c0.1,0-0.2-2.5-0.5-5.6S187.1,404.7,187,404.7z"/>
	<path class="st5" d="M231.6,334c-0.1,0.9,0.5,1.7,1.5,1.9c0.4,0.1,0.9-0.1,1.2-0.4c1-0.8,0.8-2.3,0.4-3.5s-1.1-2.4-0.8-3.6
		c0.4-0.9,0.8-1.7,1.5-2.4c0.9-1.4,1.2-3.2,0.6-4.8c-0.6-1.6-2-2.7-3.7-2.9c-1.7-0.1-3.6,0.7-5-0.2c-1-0.7-1.4-2-2.2-2.9
		c-1.3-1.4-3.6-1.2-5.4-0.6s-3.6,1.6-5.5,1.5c-1.6-0.1-3-0.9-4.6-1.3c-4.5-1.1-9,1.7-10,6.2c-0.6,2.5,0,5.1,1.6,7.1
		c0.8,1,2.5,3.9,6,3.1"/>
	<path class="st6" d="M229.6,320.9l0.5,2.5l7.2,37.3c0.8,4.3-2.2,8.5-6.9,9.4l0,0c-4.7,0.9-9.2-2-10.2-6.3c-1-4.6-2.1-9.4-2.1-9.4
		s-6.1,0.2-8.9-7.2c-1.4-3.7-2.5-10-3.2-15.2c-0.7-4.5,2.5-8.7,7-9.4c0.1,0,0.2,0,0.4,0L229.6,320.9z"/>
	<path class="st5" d="M209.1,337c0.1,0.5,0.6,0.9,1.2,0.8c0.5-0.1,0.9-0.6,0.8-1.1c-0.1-0.5-0.6-0.9-1.1-0.8
		C209.4,336,209,336.5,209.1,337z"/>
	<path class="st5" d="M208.1,335c0.1,0.1,0.8-0.6,1.8-0.8s1.9,0.2,2,0s-0.1-0.3-0.5-0.5c-0.5-0.2-1.1-0.3-1.7-0.2
		c-0.6,0.1-1.1,0.4-1.4,0.8C208.1,334.6,208,334.9,208.1,335z"/>
	<path class="st5" d="M219.5,334.8c0.1,0.5,0.6,0.9,1.2,0.8c0.5-0.1,0.9-0.6,0.8-1.1c-0.1-0.5-0.6-0.9-1.2-0.8
		C219.8,333.8,219.5,334.3,219.5,334.8z"/>
	<path class="st5" d="M218.6,333c0.1,0.1,0.8-0.6,1.8-0.8s2,0.2,2.1,0s-0.1-0.3-0.5-0.5c-0.5-0.2-1.1-0.3-1.7-0.2
		c-0.6,0.1-1.1,0.4-1.4,0.8C218.6,332.7,218.5,332.9,218.6,333z"/>
	<path class="st5" d="M216.4,341.7c-0.6-0.1-1.2-0.1-1.8,0c-0.3,0-0.6,0-0.6-0.1c-0.1-0.3-0.1-0.6,0-0.9c0.1-0.7,0.2-1.5,0.4-2.2
		c0.4-1.9,0.6-3.8,0.7-5.8c-0.5,1.9-0.9,3.8-1.1,5.7c-0.1,0.8-0.2,1.5-0.3,2.2c-0.1,0.4-0.1,0.8,0.1,1.1c0.1,0.2,0.3,0.3,0.5,0.3
		c0.2,0,0.3,0,0.5,0C215.2,342,215.8,341.8,216.4,341.7z"/>
	<path class="st11" d="M218.3,354.4c3.6-0.7,7-2.4,9.7-4.9c0,0-1.4,5.8-9.3,6.7L218.3,354.4z"/>
	<path class="st5" d="M219.7,341.7c-0.2,0,0.1,1.2-0.8,2.2s-2.1,1.1-2,1.3s0.3,0.2,0.8,0.1c0.7-0.1,1.3-0.5,1.7-1
		c0.4-0.5,0.6-1.2,0.6-1.8C219.9,342,219.7,341.7,219.7,341.7z"/>
	<path class="st5" d="M217.5,328.9c0.2,0.3,1.2-0.1,2.5-0.2s2.4,0,2.5-0.3c0-0.1-0.2-0.4-0.6-0.6c-1.2-0.5-2.6-0.3-3.8,0.4
		C217.6,328.5,217.4,328.7,217.5,328.9z"/>
	<path class="st5" d="M207.9,331.8c0.2,0.2,0.9-0.2,1.8-0.4s1.7-0.2,1.8-0.5c0.1-0.1-0.1-0.4-0.5-0.5c-0.5-0.2-1-0.2-1.6-0.1
		c-0.5,0.1-1,0.4-1.3,0.8C207.8,331.4,207.8,331.7,207.9,331.8z"/>
	<path class="st5" d="M205.1,328.6c0,0,4.4,1.2,9.1-2.3c3.1-2.3,7-3.9,8-3.3s1.8,4,5.4,4.5c0,0,0.9,6.8,3.6,6.1s-0.5-14.1-0.5-14.1
		l-7.5,1.1l-7.4-0.1l-6.6,2.1l-5,2.4L205.1,328.6z"/>
	<path class="st5" d="M230.4,317.5c0-0.1-0.7-0.2-1.4,0.2s-0.9,1.1-0.8,1.1s0.4-0.4,1-0.8S230.4,317.7,230.4,317.5z"/>
	<path class="st5" d="M227.8,315.7c0,0.6,0,1.2,0.1,1.8c0.1,0.9-0.2,1.7-0.1,1.7c0.4-0.5,0.6-1.1,0.5-1.8
		C228.3,316.8,228.1,316.2,227.8,315.7z"/>
	<path class="st6" d="M230.5,330.8c0.1-0.1,4.1-2.5,5.1,2s-3.7,4.5-3.8,4.4S230.5,330.8,230.5,330.8z"/>
	<path class="st11" d="M232.8,335.3c0,0,0.1,0,0.2,0.1c0.2,0,0.4,0,0.6-0.1c0.5-0.5,0.7-1.2,0.5-1.9c-0.1-0.4-0.2-0.8-0.5-1.1
		c-0.1-0.3-0.4-0.4-0.7-0.5c-0.2,0-0.4,0.1-0.4,0.3c0,0.1,0,0.2,0,0.2s-0.1,0-0.1-0.2c0-0.1,0-0.2,0.1-0.3c0.1-0.1,0.3-0.2,0.4-0.2
		c0.4,0,0.8,0.2,1,0.5c0.3,0.3,0.5,0.8,0.5,1.2c0.2,0.8-0.1,1.7-0.7,2.2c-0.2,0.1-0.5,0.1-0.7,0
		C232.9,335.4,232.8,335.3,232.8,335.3z"/>
	<polygon class="st10" points="224.3,430 224.3,427.1 182.2,427.9 158,389.2 155.8,390.8 180.6,430.4 	"/>
	<path class="st6" d="M195.2,417.1l-2.2,3.1v6.5c0.6,0.2,1.2-0.1,1.5-0.6c0.4-1.3,0.8-2.6,1-3.9l1,2.6c0.4,1.1,1.6,1.7,2.7,1.4
		l7.8-2l-3.2-9.1L195.2,417.1z"/>
	<path class="st8" d="M232.9,356c2.8-0.9,5.8-0.7,8.4,0.6c3.9,1.9,7.6,6.8,9.8,12.6s7.7,15.6,12,32.5c3.7,14.7,8.6,30.2,4.6,35.7
		l-0.1,0.1c-2.2,2.9-6.1,4.1-9.5,2.9l-3.9-1.4c-8.7-3.1-16.6-7.9-23.4-14.1L217,412.2l5.5-4.2c0,0-4.3-27.4-2.5-37.8
		C221.6,361.2,228.3,357.5,232.9,356z"/>
	<path class="st8" d="M241.9,369.2l7.7,36c1.3,6.3-2.1,12.6-8.2,14.8l-33.4,6.4l-4.2-12.5l0,0l27.1-8.5l-8-34.8L241.9,369.2z"/>
	<path class="st5" d="M249.8,412c0,0.1,0,0.1-0.1,0.2l-0.1,0.6c0,0.1-0.1,0.3-0.1,0.5l-0.2,0.5l-0.2,0.6l-0.4,0.7
		c-0.7,1.1-1.6,2.1-2.7,2.9c-1.5,1-3.2,1.7-4.9,2.1l-33.1,6.1l0.2,0.1c-1.4-4-2.8-8.1-4.4-12.5l-0.1,0.3l27.2-8.4l0.2-0.1l-0.1-0.2
		l-1.5-5.8c-1.6-6.3-3.1-12.5-4.3-18.5c-0.6-3-1.2-5.9-1.6-8.9c-0.1-0.7-0.1-1.4-0.2-2.2c0-0.7,0.1-1.4,0.2-2.1
		c0.3-1.4,1-2.6,1.9-3.7c1.8-2.1,4.4-3.2,7.1-3.2c2.6,0.1,4.9,1.4,6.6,3.3c1.6,1.8,2.7,4,3.4,6.2c0.6,2.1,1.2,4.3,1.5,6.5
		c1.6,8.3,3,15.1,3.9,19.8c0.5,2.3,0.8,4.1,1.1,5.4c0.1,0.6,0.2,1.1,0.3,1.4s0.1,0.5,0.1,0.5s0-0.2-0.1-0.5s-0.1-0.8-0.2-1.4
		c-0.2-1.3-0.6-3.1-1-5.4c-0.9-4.7-2.2-11.5-3.8-19.8c-0.4-2.2-0.9-4.4-1.5-6.5c-0.7-2.3-1.9-4.5-3.4-6.4c-1.7-2.1-4.2-3.3-6.9-3.5
		c-2.8-0.1-5.6,1.1-7.4,3.3c-1,1.1-1.7,2.4-2,3.9c-0.2,0.7-0.2,1.5-0.2,2.2c0.1,0.7,0.1,1.5,0.2,2.2c0.4,2.9,1,5.9,1.6,8.9
		c1.3,6,2.8,12.2,4.3,18.5c0.5,2,1,4,1.5,5.8l0.2-0.3l-27.1,8.5l-0.2,0.1l0.1,0.2c1.5,4.3,3,8.5,4.4,12.5l0.1,0.2h0.2
		c13.7-2.6,25.1-4.6,33.1-6.2c1.8-0.4,3.5-1.2,5-2.2c1.1-0.8,2-1.8,2.7-3l0.4-0.7l0.2-0.6c0.1-0.2,0.1-0.4,0.2-0.5l0.1-0.5l0.1-0.6
		C249.8,412.2,249.8,412.1,249.8,412z"/>
	<path class="st5" d="M235.5,410.1c0.1,0,0.1-0.4-0.1-1.1c-0.2-0.8-0.7-1.6-1.3-2.2c-0.6-0.6-1.4-1-2.3-1.2c-0.7-0.1-1.1-0.1-1.1,0
		s0.4,0.1,1,0.3c0.8,0.3,1.5,0.7,2.1,1.3c0.6,0.6,1,1.2,1.4,2C235.4,409.8,235.5,410.2,235.5,410.1z"/>
	<g class="st15">
		<path d="M242.6,368.7c3.9,12.5,6.6,25.4,8.1,38.4c0.5,3,0.6,6,0.2,9c-0.4,3-2,5.8-4.5,7.6c-2.5,1.4-5.4,1.9-8.2,1.2
			c-2.8-0.5-7.3-1.1-9.8-2.4l15-3.1c0,0,9.6-0.6,5.5-19.1S242.6,368.7,242.6,368.7z"/>
	</g>
	<path class="st8" d="M221,369.2l-2.7-8.5L236,349l2.4,8.3c0,0-9.2,1-11.6,3.5S221,369.2,221,369.2z"/>
	<path class="st5" d="M221.9,364c-0.5-0.7-0.8-1.5-1-2.3c-0.3-0.8-0.5-1.6-0.5-2.4c0.5,0.7,0.8,1.5,1,2.3
		C221.7,362.3,221.9,363.2,221.9,364z"/>
	<path class="st5" d="M225.2,361.9c-0.5-0.7-0.8-1.5-1-2.3c-0.3-0.8-0.5-1.6-0.5-2.4C224.6,358.6,225.1,360.2,225.2,361.9
		L225.2,361.9z"/>
	<path class="st5" d="M228.6,359.8c-0.5-0.7-0.8-1.5-1-2.3c-0.3-0.8-0.5-1.6-0.5-2.4c0.5,0.7,0.8,1.5,1,2.3
		C228.5,358.1,228.6,358.9,228.6,359.8z"/>
	<path class="st5" d="M231.7,357.9c-0.5-0.7-0.8-1.5-1-2.3c-0.3-0.8-0.5-1.6-0.5-2.4c0.5,0.7,0.8,1.5,1,2.3
		C231.6,356.2,231.7,357,231.7,357.9z"/>
	<path class="st5" d="M234.9,355.6c-0.5-0.7-0.8-1.5-1-2.3c-0.3-0.8-0.5-1.6-0.5-2.4C234.2,352.3,234.7,353.9,234.9,355.6
		L234.9,355.6z"/>
	<path class="st1" d="M206.4,421c0.3-0.1,0.5-0.2,0.8-0.3l2.4-0.7l8.9-2.4l13.3-3.5l3.8-1c0.7-0.1,1.3-0.3,1.9-0.6
		c0.6-0.3,1.2-0.7,1.6-1.1c1-1,1.5-2.3,1.5-3.7c0-0.7-0.1-1.4-0.4-2.1c-0.2-0.7-0.4-1.4-0.5-2.2l-7.4-29.6c-0.9-3.8-1.7-6.8-2.2-9
		l-0.6-2.5c-0.1-0.3-0.1-0.6-0.2-0.9c0.1,0.3,0.2,0.5,0.3,0.8c0.2,0.6,0.4,1.4,0.7,2.4c0.6,2.2,1.4,5.2,2.4,8.9
		c2,7.6,4.6,18,7.6,29.5c0.2,0.7,0.4,1.4,0.6,2.1c0.2,0.7,0.3,1.5,0.4,2.2c0,2.3-1.3,4.4-3.4,5.3c-0.6,0.3-1.3,0.5-2,0.6l-3.8,1
		l-13.3,3.4l-9,2.2l-2.4,0.6C207,420.9,206.7,421,206.4,421z"/>
	<path class="st1" d="M207.1,422.9l0.2-0.1l0.6-0.2l2.5-0.7l9.3-2.5l13.8-3.7l4-1.1c0.7-0.2,1.4-0.3,2-0.6c0.7-0.2,1.3-0.6,1.8-1.1
		c1.1-1,1.7-2.3,1.7-3.8c0-0.7-0.1-1.5-0.4-2.2l-0.6-2.2L234,374c-1-3.9-1.8-7.1-2.4-9.3c-0.3-1.1-0.5-1.9-0.6-2.5l-0.1-0.7
		c0-0.1,0-0.2,0-0.2c0,0.1,0.1,0.1,0.1,0.2c0.1,0.2,0.1,0.4,0.2,0.6c0.2,0.6,0.4,1.5,0.7,2.5c0.6,2.2,1.5,5.4,2.6,9.3
		c2.1,7.9,5.1,18.8,8.4,30.7c0.2,0.8,0.4,1.5,0.6,2.2c0.2,0.7,0.4,1.5,0.4,2.3c0,1.6-0.7,3.1-1.9,4.1c-0.6,0.5-1.2,0.9-1.9,1.2
		c-0.7,0.2-1.4,0.4-2.1,0.6l-4,1l-13.9,3.6l-9.4,2.4l-2.6,0.6l-0.7,0.1C207.3,422.9,207.2,422.9,207.1,422.9z"/>
</g>
<g id="freepik--Plants--inject-72">
	<path class="st10" d="M639.6,441.1c-0.6-2.2,0.9-4.4,2.5-6s3.6-3,4.4-5.1c1.4-3.4-0.4-7.9,1.9-10.7c1.4-1.7,3.8-2.2,5.1-4
		c0.6-1,0.9-2.1,1.1-3.2c1.3-5.7,4.2-10.9,8.2-15.1c0.2,5.1-0.9,10.1-3.3,14.6c-1,1.8-2.1,3.5-2.5,5.5c-0.5,3.3,1.3,6.6,0.5,9.8
		c-0.9,3.6-5.1,6.1-5.3,9.9c-0.2,3.2,2.6,6,2.4,9.2c-0.2,1.4-0.7,2.6-1.4,3.8c-2.5,4.1-6.1,6.9-11.6,6.8l-6.7,0.2L639.6,441.1z"/>
	<path class="st5" d="M633.6,456.8c-0.6,0.1-1.2,0.1-1.8,0c-0.7-0.1-1.5-0.3-2.2-0.6c-1-0.3-1.9-0.8-2.7-1.5
		c-0.5-0.4-0.9-0.9-1.1-1.5c-0.2-0.6-0.3-1.3-0.3-2c0-0.7-0.1-1.5-0.1-2.2c-0.1-0.8-0.4-1.5-0.8-2.2c-0.8-1.4-2.1-2.7-2.5-4.6
		c-0.3-2-0.2-4,0.2-5.9c0.5-2.1,0.5-4.3-0.1-6.3c-0.7-2.1-2.2-4-2.9-6.4s-0.4-5-0.5-7.5c0-1.3-0.3-2.6-0.9-3.7
		c-0.5-1.2-1.3-2.3-1.9-3.6c-1.2-2.5-1.4-5.4-1.7-8.2c-0.2-1.4-0.3-2.9-0.5-4.3c-0.1-1.5-0.3-2.9-0.7-4.3c-0.4-1.4-1-2.8-1.6-4.2
		c-0.3-0.7-0.6-1.4-0.8-2.2c-0.1-0.8-0.2-1.5-0.2-2.3c-0.1-1.6,0-3.1,0.2-4.6c0.2-1.5,0.5-3.1,0.7-4.6v-0.3v-0.3l0.3,0.1
		c1.4,0.7,2.7,1.8,3.6,3.1c0.9,1.3,1.7,2.6,2.2,4.1c0.9,2.9,1.6,5.8,2,8.8c0.4,2.9,1.3,5.6,2.7,8.1c0.7,1.2,1.6,2.3,2.4,3.5
		c0.8,1.1,1.4,2.5,1.6,3.8c0.4,2.9-1.2,5.3-0.9,7.9c0.1,1.2,0.6,2.4,1.2,3.5c0.6,1.1,1.3,2.1,2,3.1c0.7,1,1.3,2,1.8,3.1
		c0.5,1.1,0.7,2.2,0.8,3.4c0.2,2.3-0.2,4.4,0,6.5c0.2,1.9,0.7,3.8,1.6,5.5c0.8,1.7,1.7,3.2,2.5,4.6c0.4,0.7,0.7,1.4,1,2.1
		c0.3,0.7,0.5,1.4,0.6,2.1c0.2,1.3,0.2,2.6,0,3.8c-0.2,1.8-0.9,3.5-2,4.9c-0.2,0.2-0.3,0.4-0.5,0.6c-0.1,0.1-0.3,0.3-0.5,0.4
		l-0.4,0.3c0.5-0.4,0.9-0.8,1.3-1.3c1-1.4,1.7-3.1,1.8-4.9c0.2-1.3,0.1-2.5-0.1-3.8c-0.1-0.7-0.3-1.4-0.6-2.1
		c-0.3-0.7-0.6-1.4-1-2.1c-0.8-1.4-1.7-2.9-2.5-4.6c-0.9-1.7-1.5-3.7-1.7-5.6c-0.2-2.1,0.2-4.2,0-6.4c-0.1-1.1-0.3-2.2-0.8-3.3
		c-0.5-1.1-1.1-2.1-1.8-3c-0.7-1-1.4-2-2-3.1c-0.6-1.1-1-2.3-1.2-3.6c-0.3-2.7,1.3-5.2,0.9-7.8c-0.3-1.3-0.8-2.6-1.6-3.7
		c-0.8-1.1-1.7-2.2-2.4-3.5c-1.4-2.6-2.4-5.4-2.8-8.3c-0.4-3-1.1-5.9-2-8.7c-0.5-1.4-1.2-2.8-2.1-4c-0.9-1.3-2.1-2.3-3.5-3l0.3-0.2
		v0.3c-0.2,1.6-0.5,3.1-0.7,4.6c-0.2,1.5-0.3,3.1-0.2,4.6c0,0.7,0.1,1.5,0.2,2.2c0.2,0.7,0.4,1.4,0.8,2.1c0.6,1.4,1.1,2.8,1.6,4.2
		c0.4,1.4,0.6,2.9,0.7,4.4c0.2,1.5,0.3,2.9,0.5,4.3c0.3,2.8,0.5,5.6,1.6,8.1c0.6,1.2,1.3,2.4,1.9,3.6c0.5,1.2,0.8,2.5,0.9,3.9
		c0.1,2.6-0.2,5.1,0.5,7.4s2.1,4.2,2.9,6.4c0.6,2.1,0.6,4.3,0.1,6.5c-0.5,1.9-0.5,3.9-0.2,5.8c0.4,1.8,1.7,3.1,2.5,4.6
		c0.4,0.7,0.7,1.5,0.8,2.2c0.1,0.7,0.1,1.5,0.1,2.2c0,0.7,0.1,1.3,0.3,2c0.2,0.5,0.6,1,1,1.4c0.8,0.6,1.7,1.1,2.6,1.5
		c0.7,0.3,1.4,0.5,2.2,0.6c0.5,0.1,0.9,0.1,1.4,0.1L633.6,456.8z"/>
	<path class="st5" d="M612.8,377.5l0.1,0.2c0,0.2,0.1,0.4,0.1,0.6c0.1,0.5,0.3,1.3,0.5,2.3s0.9,2.1,1.4,3.5s1.1,3,1.6,4.8
		s0.9,3.8,1.4,5.9c0.4,2.3,1.1,4.5,2.1,6.6c0.5,1.1,1.2,2.2,1.7,3.4c0.5,1.2,0.8,2.5,0.9,3.9c0.3,2.7,0.8,5.5,1.4,8.1
		c1.3,5.5,2.6,10.8,3.7,15.5s2.2,9.1,3.1,12.7s1.6,6.5,2.1,8.5l0.5,2.3c0,0.2,0.1,0.4,0.1,0.6c0,0.1,0,0.1,0,0.2
		c0-0.1-0.1-0.1-0.1-0.2l-0.2-0.6c-0.2-0.6-0.3-1.3-0.6-2.3l-2.2-8.5c-0.9-3.6-2-7.9-3.2-12.7s-2.4-10-3.8-15.5
		c-0.6-2.7-1.1-5.4-1.4-8.2c-0.1-1.3-0.4-2.6-0.9-3.8c-0.5-1.2-1.1-2.3-1.6-3.4c-1-2.1-1.7-4.4-2.1-6.7c-0.5-2.1-0.9-4.1-1.4-5.9
		s-1-3.4-1.5-4.8s-1.1-2.5-1.3-3.6s-0.3-1.8-0.5-2.4c0-0.2-0.1-0.5-0.1-0.6C612.8,377.7,612.8,377.6,612.8,377.5z"/>
	<path class="st10" d="M632.4,456.8c-4.4-2.6-5.6-10.6-3.7-15.3s5.1-9.1,5.6-14.2c0.4-3.9-0.8-7.9,0.1-11.7
		c1.3-5.1,6.3-9.1,6.3-14.4c0-3-1.7-5.8-1.5-8.7c0.2-3.6,3-6.5,4.8-9.7c2.7-4.9,2.9-10.7,3.8-16.2s3.1-11.4,8-14.1
		c0.7,4.7,1.9,7.9,1.5,14.2c-0.2,2.3-2.8,6.6-3.2,11.6c-0.2,3-0.4,6-0.6,8.9c0,2.9-0.5,5.8-1.5,8.6c-0.8,2.1-2.1,4-2.7,6.1
		c-1.1,4,0.3,8.4-0.6,12.5c-0.8,3.5-3.2,6.4-3.7,10c-0.7,4.9,2.5,10.1,0.8,14.8c-0.8,2.3-2.8,4.2-3.3,6.6c-0.4,1.9,0,3.9-0.4,5.7
		c-0.6,3-6.4,5.4-9.5,5.1"/>
	<path class="st5" d="M654.4,357.1c0,0.1,0,0.2,0,0.3c0,0.2-0.1,0.5-0.1,0.8c-0.1,0.7-0.2,1.7-0.5,3s-0.9,2.7-1.5,4.5
		s-1.1,3.8-1.6,6s-1,4.7-1.4,7.4c-0.4,2.9-1.1,5.7-2.3,8.4c-0.6,1.4-1.3,2.8-1.8,4.3c-0.5,1.5-0.8,3.1-1,4.7
		c-0.3,3.4-0.7,6.8-1.3,10.2c-1.4,6.9-2.7,13.5-3.9,19.5s-2.4,11.4-3.4,15.9s-1.8,8.1-2.3,10.7c-0.3,1.2-0.5,2.2-0.6,2.9
		c-0.1,0.3-0.1,0.6-0.2,0.8c0,0.2-0.1,0.3-0.1,0.2c0-0.1,0-0.2,0-0.3c0-0.2,0.1-0.4,0.1-0.8c0.1-0.7,0.3-1.7,0.6-2.9
		c0.5-2.6,1.2-6.2,2.2-10.7s2-9.9,3.3-15.9s2.5-12.6,3.9-19.5c0.6-3.4,1.1-6.8,1.3-10.2c0.1-1.6,0.5-3.3,1-4.8
		c0.5-1.5,1.2-2.9,1.9-4.3c1.2-2.6,1.9-5.4,2.3-8.3c0.5-2.7,0.9-5.2,1.5-7.4s1.1-4.3,1.7-6s1.3-3.2,1.5-4.5s0.4-2.2,0.5-2.9
		c0.1-0.3,0.1-0.6,0.2-0.8C654.4,357.3,654.4,357.2,654.4,357.1z"/>
</g>
<g id="freepik--Lines--inject-72">
	<path class="st5" d="M376,315.5c-0.1,0-0.3-17.9-0.3-40s0.1-40,0.3-40s0.3,17.9,0.3,40S376.2,315.5,376,315.5z"/>
	<path class="st5" d="M210.8,313.1c0,0,0-0.2,0-0.5s0-0.9,0-1.6c0-1.5,0-3.7,0-6.7v-0.1h0.1c21.5-0.1,87.5-0.2,165.4-0.2l163,0.2
		h0.1v0.1c0,3.7,0,6.5,0,8.4c0,0.9,0,1.6,0,2.1s0,0.7,0,0.7s0-0.2,0-0.7s0-1.2,0-2.1c0-1.9,0-4.7,0-8.4l0.1,0.1l-163,0.2
		c-77.9,0-143.9-0.1-165.4-0.2l0.1-0.1c0,3,0,5.2,0,6.7c0,0.7,0,1.2,0,1.6S210.8,313.1,210.8,313.1z"/>
	<path class="st5" d="M321.2,130.2c0.1,0,0.3,10.2,0.3,22.8s-0.1,22.8-0.3,22.8s-0.3-10.2-0.3-22.8S321,130.2,321.2,130.2z"/>
	<path class="st5" d="M432.6,130.2c0.1,0,0.3,10.2,0.3,22.8s-0.1,22.8-0.3,22.8s-0.3-10.2-0.3-22.8S432.5,130.2,432.6,130.2z"/>
	<path class="st5" d="M538.6,123.4c0,0,0,0.3,0,0.9s0,1.5,0,2.7c0,2.4,0,5.8,0,10.3c0,9,0,22.1,0.1,38.5v0.2h-0.2l-161,0.1
		L211.4,176h-0.2v-0.2c0-14.9,0.1-26.7,0.1-34.8c0-4,0-7.1,0-9.2c0-1,0-1.8,0-2.4s0-0.8,0-0.8s0,0.3,0,0.8s0,1.3,0,2.4
		c0,2.1,0,5.2,0,9.2c0,8.1,0,19.9,0.1,34.8l-0.2-0.2l166.2-0.1l161,0.1l-0.2,0.2c0-16.4,0.1-29.5,0.1-38.5c0-4.5,0-7.9,0-10.3
		c0-1.2,0-2,0-2.7S538.6,123.4,538.6,123.4z"/>
	<path class="st5" d="M378.6,213.5c-0.1,0-0.3-8.4-0.3-18.9s0.1-18.9,0.3-18.9s0.3,8.4,0.3,18.9S378.7,213.5,378.6,213.5z"/>
</g>
<g id="freepik--Server--inject-72">
	<rect x="325.9" y="210.3" class="st5" width="101.7" height="83.7"/>
	<rect x="311.1" y="232.6" class="st7" width="111.1" height="27.6"/>
	<rect x="316" y="238.3" class="st5" width="21.9" height="3.4"/>
	<rect x="316" y="244.1" class="st5" width="21.9" height="3.4"/>
	<rect x="316" y="250" class="st5" width="21.9" height="3.4"/>
	<path class="st5" d="M346.5,240.3c0,0.7-0.6,1.3-1.2,1.3s-1.3-0.6-1.3-1.2c0-0.7,0.6-1.3,1.2-1.3c0,0,0,0,0,0
		C346,239,346.5,239.6,346.5,240.3C346.5,240.3,346.5,240.3,346.5,240.3z"/>
	<path class="st5" d="M352.1,240.3c0,0.7-0.6,1.3-1.2,1.3s-1.3-0.6-1.3-1.2c0-0.7,0.6-1.3,1.2-1.3c0,0,0,0,0,0
		C351.5,239,352.1,239.6,352.1,240.3C352.1,240.3,352.1,240.3,352.1,240.3z"/>
	<path class="st5" d="M357.6,240.3c0,0.7-0.6,1.3-1.2,1.3s-1.3-0.6-1.3-1.2c0-0.7,0.6-1.3,1.2-1.3c0,0,0,0,0,0
		C357.1,239,357.6,239.6,357.6,240.3C357.6,240.3,357.6,240.3,357.6,240.3z"/>
	<path class="st5" d="M363.2,240.3c0,0.7-0.6,1.3-1.2,1.3s-1.3-0.6-1.3-1.2c0-0.7,0.6-1.3,1.2-1.3c0,0,0,0,0,0
		C362.6,239,363.2,239.6,363.2,240.3C363.2,240.3,363.2,240.3,363.2,240.3z"/>
	<path class="st5" d="M406.1,240.3c0,0.7-0.6,1.3-1.2,1.3c-0.7,0-1.3-0.6-1.3-1.2c0-0.7,0.6-1.3,1.2-1.3c0,0,0,0,0,0
		C405.5,239,406.1,239.6,406.1,240.3z"/>
	<path class="st5" d="M411.7,240.3c0,0.7-0.6,1.3-1.2,1.3s-1.3-0.6-1.3-1.2c0-0.7,0.6-1.3,1.2-1.3c0,0,0,0,0,0
		C411.2,239,411.7,239.6,411.7,240.3C411.7,240.3,411.7,240.3,411.7,240.3z"/>
	<path class="st5" d="M368.7,240.3c0,0.7-0.6,1.3-1.2,1.3s-1.3-0.6-1.3-1.2c0-0.7,0.6-1.3,1.2-1.3c0,0,0,0,0,0
		C368.1,239,368.7,239.6,368.7,240.3z"/>
	<path class="st5" d="M395.9,240.3c0,0.7-0.6,1.3-1.2,1.3s-1.3-0.6-1.3-1.2c0-0.7,0.6-1.3,1.2-1.3c0,0,0,0,0,0
		C395.3,239,395.9,239.6,395.9,240.3C395.9,240.3,395.9,240.3,395.9,240.3z"/>
	<path class="st2" d="M374.2,240.3c0,0.7-0.6,1.2-1.3,1.2s-1.2-0.6-1.2-1.3c0-0.7,0.6-1.2,1.3-1.2
		C373.7,239,374.3,239.6,374.2,240.3C374.3,240.3,374.3,240.3,374.2,240.3z"/>
	<path class="st2" d="M379.8,240.3c0,0.7-0.6,1.3-1.2,1.3c-0.7,0-1.3-0.6-1.3-1.2c0-0.7,0.6-1.3,1.2-1.3c0,0,0,0,0,0
		C379.2,239,379.8,239.6,379.8,240.3z"/>
	<path class="st2" d="M391,240.3c0,0.7-0.6,1.3-1.2,1.3c-0.7,0-1.3-0.6-1.3-1.2c0-0.7,0.6-1.3,1.2-1.3c0,0,0,0,0,0
		C390.4,239,391,239.6,391,240.3z"/>
	<path class="st2" d="M416.3,240.3c0,0.7-0.6,1.3-1.2,1.3s-1.3-0.6-1.3-1.2c0-0.7,0.6-1.3,1.2-1.3c0,0,0,0,0,0
		C415.8,239,416.3,239.6,416.3,240.3z"/>
	<path class="st8" d="M385.3,240.3c0,0.7-0.6,1.3-1.2,1.3c-0.7,0-1.3-0.6-1.3-1.2c0-0.7,0.6-1.3,1.2-1.3c0,0,0,0,0,0
		C384.8,239,385.3,239.6,385.3,240.3z"/>
	<path class="st8" d="M401.2,240.3c0,0.7-0.6,1.3-1.2,1.3c-0.7,0-1.3-0.6-1.3-1.2c0-0.7,0.6-1.3,1.2-1.3c0,0,0,0,0,0
		C400.6,239,401.2,239.6,401.2,240.3z"/>
	<path class="st5" d="M413.8,246.3c0-0.7,0.6-1.3,1.3-1.3c0.7,0,1.3,0.6,1.3,1.3s-0.6,1.3-1.3,1.3S413.8,247,413.8,246.3
		L413.8,246.3z"/>
	<circle class="st5" cx="409.5" cy="246.3" r="1.3"/>
	<path class="st5" d="M402.8,246.3c0-0.7,0.6-1.3,1.3-1.3c0.7,0,1.3,0.6,1.3,1.3c0,0.7-0.6,1.3-1.3,1.3c0,0,0,0,0,0
		C403.3,247.6,402.7,247,402.8,246.3C402.7,246.3,402.7,246.3,402.8,246.3z"/>
	<circle class="st5" cx="398.5" cy="246.3" r="1.3"/>
	<circle class="st5" cx="355.5" cy="246.3" r="1.3"/>
	<path class="st5" d="M348.6,246.3c0-0.7,0.6-1.3,1.3-1.3c0.7,0,1.3,0.6,1.3,1.3c0,0.7-0.6,1.3-1.3,1.3c0,0,0,0,0,0
		C349.2,247.6,348.6,247,348.6,246.3C348.6,246.3,348.6,246.3,348.6,246.3z"/>
	<path class="st5" d="M391.7,246.3c0-0.7,0.6-1.3,1.3-1.3c0.7,0,1.3,0.6,1.3,1.3c0,0.7-0.6,1.3-1.3,1.3c0,0,0,0,0,0
		C392.2,247.6,391.7,247,391.7,246.3C391.7,246.3,391.7,246.3,391.7,246.3z"/>
	<path class="st5" d="M364.5,246.3c0-0.7,0.6-1.3,1.3-1.3c0.7,0,1.3,0.6,1.3,1.3c0,0.7-0.6,1.3-1.3,1.3c0,0,0,0,0,0
		C365,247.6,364.5,247,364.5,246.3C364.5,246.3,364.5,246.3,364.5,246.3z"/>
	<path class="st2" d="M386.1,246.3c0-0.7,0.6-1.3,1.3-1.3c0.7,0,1.3,0.6,1.3,1.3c0,0.7-0.6,1.3-1.3,1.3c0,0,0,0,0,0
		C386.7,247.6,386.1,247,386.1,246.3C386.1,246.3,386.1,246.3,386.1,246.3z"/>
	<path class="st2" d="M380.6,246.3c0-0.7,0.6-1.3,1.3-1.3c0.7,0,1.3,0.6,1.3,1.3s-0.6,1.3-1.3,1.3
		C381.2,247.6,380.6,247.1,380.6,246.3C380.6,246.4,380.6,246.3,380.6,246.3z"/>
	<path class="st2" d="M369.4,246.3c0-0.7,0.6-1.3,1.3-1.3c0.7,0,1.3,0.6,1.3,1.3s-0.6,1.3-1.3,1.3
		C369.9,247.6,369.4,247.1,369.4,246.3C369.3,246.4,369.3,246.3,369.4,246.3z"/>
	<circle class="st2" cx="345.3" cy="246.3" r="1.3"/>
	<path class="st8" d="M375,246.3c0-0.7,0.6-1.3,1.3-1.3c0.7,0,1.3,0.6,1.3,1.3s-0.6,1.3-1.3,1.3C375.6,247.6,375.1,247.1,375,246.3
		C375,246.4,375,246.3,375,246.3z"/>
	<circle class="st8" cx="360.5" cy="246.3" r="1.3"/>
	<circle class="st5" cx="345.3" cy="251.7" r="1.3"/>
	<path class="st5" d="M352.1,251.7c0,0.7-0.6,1.3-1.3,1.3c-0.7,0-1.3-0.6-1.3-1.3s0.6-1.3,1.3-1.3
		C351.5,250.5,352.1,251,352.1,251.7C352.1,251.7,352.1,251.7,352.1,251.7z"/>
	<circle class="st5" cx="356.4" cy="251.7" r="1.3"/>
	<path class="st5" d="M363.2,251.7c0,0.7-0.6,1.3-1.3,1.3c-0.7,0-1.3-0.6-1.3-1.3s0.6-1.3,1.3-1.3
		C362.6,250.5,363.2,251,363.2,251.7C363.2,251.7,363.2,251.7,363.2,251.7z"/>
	<path class="st5" d="M406.1,251.7c0,0.7-0.6,1.3-1.3,1.3c-0.7,0-1.3-0.6-1.3-1.3c0-0.7,0.6-1.3,1.3-1.3c0,0,0,0,0,0
		C405.5,250.5,406.1,251,406.1,251.7C406.1,251.7,406.1,251.7,406.1,251.7z"/>
	<circle class="st5" cx="410.5" cy="251.7" r="1.3"/>
	<circle class="st5" cx="367.5" cy="251.7" r="1.3"/>
	<circle class="st5" cx="394.6" cy="251.7" r="1.3"/>
	<path class="st2" d="M374.2,251.7c0,0.7-0.6,1.3-1.3,1.3c-0.7,0-1.3-0.6-1.3-1.3s0.6-1.3,1.3-1.3S374.2,251,374.2,251.7
		L374.2,251.7z"/>
	<path class="st2" d="M379.8,251.7c0,0.7-0.6,1.3-1.3,1.3c-0.7,0-1.3-0.6-1.3-1.3c0-0.7,0.6-1.3,1.3-1.3c0,0,0,0,0,0
		C379.2,250.5,379.8,251,379.8,251.7C379.8,251.7,379.8,251.7,379.8,251.7z"/>
	<circle class="st2" cx="389.8" cy="251.7" r="1.3"/>
	<path class="st2" d="M416.3,251.7c0,0.7-0.6,1.3-1.3,1.3c-0.7,0-1.3-0.6-1.3-1.3s0.6-1.3,1.3-1.3S416.3,251,416.3,251.7
		L416.3,251.7z"/>
	<circle class="st8" cx="384.1" cy="251.7" r="1.3"/>
	<path class="st8" d="M401.2,251.7c0,0.7-0.6,1.3-1.3,1.3c-0.7,0-1.3-0.6-1.3-1.3c0-0.7,0.6-1.3,1.3-1.3c0,0,0,0,0,0
		C400.6,250.5,401.2,251,401.2,251.7C401.2,251.7,401.2,251.7,401.2,251.7z"/>
	<rect x="311.1" y="266.6" class="st7" width="111.1" height="27.6"/>
	<circle class="st5" cx="345" cy="274" r="1.3"/>
	<path class="st5" d="M351.8,274c0,0.7-0.6,1.3-1.2,1.3s-1.3-0.6-1.3-1.2s0.6-1.3,1.2-1.3c0,0,0,0,0,0
		C351.3,272.8,351.8,273.3,351.8,274z"/>
	<circle class="st5" cx="356.1" cy="274" r="1.3"/>
	<path class="st5" d="M362.9,274c0,0.7-0.6,1.3-1.2,1.3s-1.3-0.6-1.3-1.2s0.6-1.3,1.2-1.3c0,0,0,0,0,0
		C362.3,272.8,362.9,273.3,362.9,274z"/>
	<path class="st5" d="M405.8,274c0,0.7-0.6,1.3-1.2,1.3s-1.3-0.6-1.3-1.2c0-0.7,0.6-1.3,1.2-1.3c0,0,0,0,0,0
		C405.3,272.7,405.8,273.3,405.8,274z"/>
	<circle class="st5" cx="410.2" cy="274" r="1.3"/>
	<circle class="st5" cx="367.2" cy="274" r="1.3"/>
	<circle class="st5" cx="394.4" cy="274" r="1.3"/>
	<path class="st2" d="M374,274c0,0.7-0.6,1.3-1.2,1.3s-1.3-0.6-1.3-1.2s0.6-1.3,1.2-1.3c0,0,0,0,0,0C373.4,272.8,374,273.3,374,274z
		"/>
	<circle class="st2" cx="378.2" cy="274" r="1.3"/>
	<circle class="st2" cx="389.5" cy="274" r="1.3"/>
	<path class="st2" d="M416.1,274c0,0.7-0.6,1.3-1.2,1.3s-1.3-0.6-1.3-1.2c0-0.7,0.6-1.3,1.2-1.3c0,0,0,0,0,0
		C415.5,272.7,416.1,273.3,416.1,274C416.1,274,416.1,274,416.1,274z"/>
	<path class="st8" d="M385,274c0,0.7-0.6,1.3-1.2,1.3s-1.3-0.6-1.3-1.2c0-0.7,0.6-1.3,1.2-1.3c0,0,0,0,0,0
		C384.5,272.7,385,273.3,385,274C385,274,385,274,385,274z"/>
	<path class="st8" d="M400.9,274c0,0.7-0.6,1.3-1.2,1.3s-1.3-0.6-1.3-1.2c0-0.7,0.6-1.3,1.2-1.3c0,0,0,0,0,0
		C400.3,272.7,400.9,273.3,400.9,274C400.9,274,400.9,274,400.9,274z"/>
	<path class="st5" d="M413.5,280.1c0-0.7,0.6-1.3,1.3-1.3c0.7,0,1.3,0.6,1.3,1.3c0,0.7-0.6,1.3-1.3,1.3c0,0,0,0,0,0
		C414.1,281.4,413.5,280.8,413.5,280.1C413.5,280.1,413.5,280.1,413.5,280.1z"/>
	<path class="st5" d="M408,280.1c0-0.7,0.6-1.3,1.3-1.3c0.7,0,1.3,0.6,1.3,1.3c0,0.7-0.6,1.3-1.3,1.3
		C408.6,281.4,408,280.8,408,280.1C408,280.1,408,280.1,408,280.1z"/>
	<path class="st5" d="M402.5,280.1c0-0.7,0.6-1.3,1.3-1.3c0.7,0,1.3,0.6,1.3,1.3c0,0.7-0.6,1.3-1.3,1.3
		C403,281.4,402.5,280.8,402.5,280.1C402.5,280.1,402.5,280.1,402.5,280.1z"/>
	<path class="st5" d="M396.9,280.1c0-0.7,0.6-1.3,1.3-1.3c0.7,0,1.3,0.6,1.3,1.3c0,0.7-0.6,1.3-1.3,1.3
		C397.5,281.4,396.9,280.8,396.9,280.1C396.9,280.1,396.9,280.1,396.9,280.1z"/>
	<path class="st5" d="M354,280.1c0-0.7,0.6-1.3,1.3-1.3c0.7,0,1.3,0.6,1.3,1.3c0,0.7-0.6,1.3-1.3,1.3c0,0,0,0,0,0
		C354.6,281.4,354,280.8,354,280.1C354,280.1,354,280.1,354,280.1z"/>
	<path class="st5" d="M348.4,280.1c0-0.7,0.6-1.3,1.3-1.3c0.7,0,1.3,0.6,1.3,1.3c0,0.7-0.6,1.3-1.3,1.3
		C348.9,281.4,348.4,280.8,348.4,280.1C348.4,280.1,348.4,280.1,348.4,280.1z"/>
	<path class="st5" d="M391.4,280.1c0-0.7,0.6-1.3,1.3-1.3c0.7,0,1.3,0.6,1.3,1.3c0,0.7-0.6,1.3-1.3,1.3
		C392,281.4,391.4,280.8,391.4,280.1C391.4,280.1,391.4,280.1,391.4,280.1z"/>
	<path class="st5" d="M364.2,280.1c0-0.7,0.6-1.3,1.3-1.3c0.7,0,1.3,0.6,1.3,1.3c0,0.7-0.6,1.3-1.3,1.3
		C364.8,281.4,364.2,280.8,364.2,280.1C364.2,280.1,364.2,280.1,364.2,280.1z"/>
	<path class="st2" d="M385.9,280.1c0-0.7,0.6-1.3,1.3-1.3c0.7,0,1.3,0.6,1.3,1.3c0,0.7-0.6,1.3-1.3,1.3
		C386.4,281.4,385.9,280.8,385.9,280.1C385.9,280.1,385.9,280.1,385.9,280.1z"/>
	<path class="st2" d="M380.3,280.1c0-0.7,0.6-1.3,1.3-1.3c0.7,0,1.3,0.6,1.3,1.3c0,0.7-0.6,1.3-1.3,1.3
		C380.9,281.4,380.3,280.8,380.3,280.1C380.3,280.1,380.3,280.1,380.3,280.1z"/>
	<path class="st2" d="M369.1,280.1c0-0.7,0.6-1.3,1.3-1.3c0.7,0,1.3,0.6,1.3,1.3c0,0.7-0.6,1.3-1.3,1.3c0,0,0,0,0,0
		C369.6,281.4,369.1,280.8,369.1,280.1C369.1,280.1,369.1,280.1,369.1,280.1z"/>
	<path class="st2" d="M343.8,280.1c0-0.7,0.6-1.3,1.3-1.3c0.7,0,1.3,0.6,1.3,1.3c0,0.7-0.6,1.3-1.3,1.3
		C344.3,281.4,343.8,280.8,343.8,280.1C343.8,280.1,343.8,280.1,343.8,280.1z"/>
	<path class="st8" d="M374.8,280.1c0-0.7,0.6-1.3,1.3-1.3c0.7,0,1.3,0.6,1.3,1.3c0,0.7-0.6,1.3-1.3,1.3c0,0,0,0,0,0
		C375.3,281.4,374.8,280.8,374.8,280.1C374.8,280.1,374.8,280.1,374.8,280.1z"/>
	<path class="st8" d="M358.9,280.1c0-0.7,0.6-1.3,1.3-1.3c0.7,0,1.3,0.6,1.3,1.3c0,0.7-0.6,1.3-1.3,1.3c0,0,0,0,0,0
		C359.5,281.4,358.9,280.8,358.9,280.1C358.9,280.1,358.9,280.1,358.9,280.1z"/>
	<path class="st5" d="M346.3,285.5c0,0.7-0.6,1.3-1.3,1.3c-0.7,0-1.3-0.6-1.3-1.3c0-0.7,0.6-1.3,1.3-1.3c0,0,0,0,0,0
		C345.7,284.2,346.3,284.8,346.3,285.5C346.3,285.5,346.3,285.5,346.3,285.5z"/>
	<path class="st5" d="M351.8,285.5c0,0.7-0.6,1.3-1.3,1.3c-0.7,0-1.3-0.6-1.3-1.3c0-0.7,0.6-1.3,1.3-1.3c0,0,0,0,0,0
		C351.3,284.2,351.8,284.8,351.8,285.5C351.8,285.5,351.8,285.5,351.8,285.5z"/>
	<path class="st5" d="M357.4,285.5c0,0.7-0.6,1.3-1.3,1.3c-0.7,0-1.3-0.6-1.3-1.3c0-0.7,0.6-1.3,1.3-1.3c0,0,0,0,0,0
		C356.8,284.2,357.4,284.8,357.4,285.5C357.4,285.5,357.4,285.5,357.4,285.5z"/>
	<path class="st5" d="M362.9,285.5c0,0.7-0.6,1.3-1.3,1.3c-0.7,0-1.3-0.6-1.3-1.3c0-0.7,0.6-1.3,1.3-1.3c0,0,0,0,0,0
		C362.3,284.2,362.9,284.8,362.9,285.5C362.9,285.5,362.9,285.5,362.9,285.5z"/>
	<path class="st5" d="M405.8,285.5c0,0.7-0.6,1.3-1.3,1.3c-0.7,0-1.3-0.6-1.3-1.3c0-0.7,0.6-1.3,1.3-1.3
		C405.3,284.2,405.8,284.8,405.8,285.5C405.8,285.5,405.8,285.5,405.8,285.5z"/>
	<path class="st5" d="M411.5,285.5c0,0.7-0.6,1.3-1.3,1.3c-0.7,0-1.3-0.6-1.3-1.3c0-0.7,0.6-1.3,1.3-1.3c0,0,0,0,0,0
		C410.9,284.2,411.5,284.8,411.5,285.5C411.5,285.5,411.5,285.5,411.5,285.5z"/>
	<path class="st5" d="M368.4,285.5c0,0.7-0.6,1.3-1.3,1.3c-0.7,0-1.3-0.6-1.3-1.3c0-0.7,0.6-1.3,1.3-1.3c0,0,0,0,0,0
		C367.9,284.2,368.4,284.8,368.4,285.5C368.4,285.5,368.4,285.5,368.4,285.5z"/>
	<path class="st5" d="M395.6,285.5c0,0.7-0.6,1.3-1.3,1.3c-0.7,0-1.3-0.6-1.3-1.3c0-0.7,0.6-1.3,1.3-1.3c0,0,0,0,0,0
		C395.1,284.2,395.6,284.8,395.6,285.5C395.6,285.5,395.6,285.5,395.6,285.5z"/>
	<path class="st2" d="M374,285.5c0,0.7-0.6,1.3-1.3,1.3c-0.7,0-1.3-0.6-1.3-1.3c0-0.7,0.6-1.3,1.3-1.3c0,0,0,0,0,0
		C373.4,284.2,374,284.8,374,285.5C374,285.5,374,285.5,374,285.5z"/>
	<path class="st2" d="M379.5,285.5c0,0.7-0.6,1.3-1.3,1.3c-0.7,0-1.3-0.6-1.3-1.3c0-0.7,0.6-1.3,1.3-1.3
		C378.9,284.2,379.5,284.8,379.5,285.5C379.5,285.5,379.5,285.5,379.5,285.5z"/>
	<path class="st2" d="M390.8,285.5c0,0.7-0.6,1.3-1.3,1.3c-0.7,0-1.3-0.6-1.3-1.3c0-0.7,0.6-1.3,1.3-1.3
		C390.2,284.2,390.7,284.8,390.8,285.5C390.8,285.5,390.8,285.5,390.8,285.5z"/>
	<path class="st2" d="M416.1,285.5c0,0.7-0.6,1.3-1.3,1.3c-0.7,0-1.3-0.6-1.3-1.3c0-0.7,0.6-1.3,1.3-1.3
		C415.5,284.2,416.1,284.8,416.1,285.5C416.1,285.5,416.1,285.5,416.1,285.5z"/>
	<path class="st8" d="M385,285.5c0,0.7-0.6,1.3-1.3,1.3c-0.7,0-1.3-0.6-1.3-1.3c0-0.7,0.6-1.3,1.3-1.3
		C384.5,284.2,385,284.8,385,285.5C385.1,285.5,385.1,285.5,385,285.5z"/>
	<path class="st8" d="M400.9,285.5c0,0.7-0.6,1.3-1.3,1.3c-0.7,0-1.3-0.6-1.3-1.3c0-0.7,0.6-1.3,1.3-1.3
		C400.3,284.2,400.9,284.8,400.9,285.5C400.9,285.5,400.9,285.5,400.9,285.5z"/>
	<rect x="316" y="272.3" class="st5" width="21.9" height="3.4"/>
	<rect x="316" y="278.1" class="st5" width="21.9" height="3.4"/>
	<rect x="316" y="284.1" class="st5" width="21.9" height="3.4"/>
	<polygon class="st5" points="438.9,260.1 422.2,260.1 422.2,232.6 438.9,232.5 	"/>
	<polygon class="st5" points="438.9,226.6 422.2,226.6 422.2,199.1 438.9,199 	"/>
	<polygon class="st5" points="438.9,293.9 422.2,294 422.2,266.4 438.9,266.4 	"/>
	<rect x="311.9" y="198.8" class="st7" width="111.1" height="27.6"/>
	<rect x="316.8" y="204.5" class="st5" width="21.9" height="3.4"/>
	<rect x="316.8" y="210.3" class="st5" width="21.9" height="3.4"/>
	<rect x="316.8" y="216.3" class="st5" width="21.9" height="3.4"/>
	<path class="st5" d="M347.4,206.5c0,0.7-0.6,1.3-1.2,1.3c-0.7,0-1.3-0.6-1.3-1.2c0-0.7,0.6-1.3,1.2-1.3c0,0,0,0,0,0
		C346.8,205.3,347.4,205.8,347.4,206.5z"/>
	<circle class="st5" cx="351.6" cy="206.5" r="1.3"/>
	<path class="st5" d="M358.4,206.5c0,0.7-0.6,1.3-1.2,1.3c-0.7,0-1.3-0.6-1.3-1.2c0-0.7,0.6-1.3,1.2-1.3c0,0,0,0,0,0
		C357.9,205.3,358.4,205.8,358.4,206.5z"/>
	<circle class="st5" cx="362.7" cy="206.5" r="1.3"/>
	<path class="st5" d="M406.9,206.5c0,0.7-0.6,1.3-1.2,1.3s-1.3-0.6-1.3-1.2c0-0.7,0.6-1.3,1.2-1.3c0,0,0,0,0,0
		C406.3,205.3,406.9,205.8,406.9,206.5z"/>
	<circle class="st5" cx="411.3" cy="206.5" r="1.3"/>
	<path class="st5" d="M369.5,206.5c0,0.7-0.6,1.3-1.2,1.3c-0.7,0-1.3-0.6-1.3-1.2c0-0.7,0.6-1.3,1.2-1.3c0,0,0,0,0,0
		C369,205.3,369.5,205.8,369.5,206.5z"/>
	<circle class="st5" cx="395.5" cy="206.5" r="1.3"/>
	<path class="st2" d="M375,206.5c0,0.7-0.6,1.3-1.2,1.3c-0.7,0-1.3-0.6-1.3-1.2c0-0.7,0.6-1.3,1.2-1.3c0,0,0,0,0,0
		C374.5,205.3,375,205.8,375,206.5z"/>
	<path class="st2" d="M380.6,206.5c0,0.7-0.6,1.3-1.2,1.3s-1.3-0.6-1.3-1.2c0-0.7,0.6-1.3,1.2-1.3c0,0,0,0,0,0
		C380,205.3,380.6,205.8,380.6,206.5C380.6,206.5,380.6,206.5,380.6,206.5z"/>
	<path class="st2" d="M391.8,206.5c0,0.7-0.6,1.3-1.2,1.3s-1.3-0.6-1.3-1.2c0-0.7,0.6-1.3,1.2-1.3c0,0,0,0,0,0
		C391.3,205.3,391.8,205.8,391.8,206.5C391.8,206.5,391.8,206.5,391.8,206.5z"/>
	<path class="st2" d="M417.1,206.5c0,0.7-0.6,1.3-1.2,1.3s-1.3-0.6-1.3-1.2c0-0.7,0.6-1.3,1.2-1.3c0,0,0,0,0,0
		C416.6,205.3,417.1,205.8,417.1,206.5C417.1,206.5,417.1,206.5,417.1,206.5z"/>
	<path class="st8" d="M386.1,206.5c0,0.7-0.6,1.3-1.2,1.3s-1.3-0.6-1.3-1.2c0-0.7,0.6-1.3,1.2-1.3c0,0,0,0,0,0
		C385.6,205.3,386.1,205.8,386.1,206.5C386.1,206.5,386.1,206.5,386.1,206.5z"/>
	<circle class="st8" cx="400.7" cy="206.5" r="1.3"/>
	<path class="st5" d="M414.6,212.6c0-0.7,0.6-1.3,1.2-1.3c0.7,0,1.3,0.6,1.3,1.2c0,0.7-0.6,1.3-1.2,1.3c0,0,0,0,0,0
		C415.2,213.8,414.6,213.3,414.6,212.6z"/>
	<path class="st5" d="M409.1,212.6c0-0.7,0.6-1.3,1.2-1.3s1.3,0.6,1.3,1.2c0,0.7-0.6,1.3-1.2,1.3c0,0,0,0,0,0
		C409.7,213.8,409.1,213.3,409.1,212.6C409.1,212.6,409.1,212.6,409.1,212.6z"/>
	<path class="st5" d="M403.5,212.6c0-0.7,0.6-1.3,1.2-1.3s1.3,0.6,1.3,1.2c0,0.7-0.6,1.3-1.2,1.3c0,0,0,0,0,0
		C404.1,213.8,403.6,213.3,403.5,212.6C403.5,212.6,403.5,212.6,403.5,212.6z"/>
	<path class="st5" d="M398,212.6c0-0.7,0.6-1.3,1.2-1.3s1.3,0.6,1.3,1.2c0,0.7-0.6,1.3-1.2,1.3c0,0,0,0,0,0
		C398.6,213.8,398,213.3,398,212.6C398,212.6,398,212.6,398,212.6z"/>
	<path class="st5" d="M355.1,212.6c0-0.7,0.6-1.3,1.2-1.3c0.7,0,1.3,0.6,1.3,1.2c0,0.7-0.6,1.3-1.2,1.3c0,0,0,0,0,0
		C355.6,213.8,355.1,213.3,355.1,212.6z"/>
	<path class="st5" d="M349.4,212.6c0-0.7,0.6-1.3,1.2-1.3c0.7,0,1.3,0.6,1.3,1.2c0,0.7-0.6,1.3-1.2,1.3c0,0,0,0,0,0
		C350,213.8,349.4,213.3,349.4,212.6z"/>
	<path class="st5" d="M392.5,212.6c0-0.7,0.6-1.3,1.2-1.3s1.3,0.6,1.3,1.2c0,0.7-0.6,1.3-1.2,1.3c0,0,0,0,0,0
		C393,213.8,392.5,213.3,392.5,212.6C392.5,212.6,392.5,212.6,392.5,212.6z"/>
	<path class="st5" d="M365.3,212.6c0-0.7,0.6-1.3,1.2-1.3s1.3,0.6,1.3,1.2c0,0.7-0.6,1.3-1.2,1.3c0,0,0,0,0,0
		C365.8,213.8,365.3,213.3,365.3,212.6C365.3,212.6,365.3,212.6,365.3,212.6z"/>
	<path class="st2" d="M386.9,212.6c0-0.7,0.6-1.3,1.2-1.3s1.3,0.6,1.3,1.2c0,0.7-0.6,1.3-1.2,1.3c0,0,0,0,0,0
		C387.5,213.8,386.9,213.3,386.9,212.6z"/>
	<path class="st2" d="M381.4,212.6c0-0.7,0.6-1.3,1.2-1.3s1.3,0.6,1.3,1.2c0,0.7-0.6,1.3-1.2,1.3c0,0,0,0,0,0
		C382,213.8,381.4,213.3,381.4,212.6z"/>
	<path class="st2" d="M370.2,212.6c0-0.7,0.6-1.3,1.2-1.3c0.7,0,1.3,0.6,1.3,1.2c0,0.7-0.6,1.3-1.2,1.3c0,0,0,0,0,0
		C370.7,213.8,370.2,213.3,370.2,212.6z"/>
	<path class="st2" d="M344.8,212.6c0-0.7,0.6-1.3,1.2-1.3s1.3,0.6,1.3,1.2c0,0.7-0.6,1.3-1.2,1.3c0,0,0,0,0,0
		C345.4,213.8,344.8,213.3,344.8,212.6z"/>
	<path class="st8" d="M375.9,212.6c0-0.7,0.6-1.3,1.2-1.3c0.7,0,1.3,0.6,1.3,1.2c0,0.7-0.6,1.3-1.2,1.3c0,0,0,0,0,0
		C376.4,213.8,375.9,213.3,375.9,212.6z"/>
	<path class="st8" d="M360,212.6c0-0.7,0.6-1.3,1.2-1.3c0.7,0,1.3,0.6,1.3,1.2c0,0.7-0.6,1.3-1.2,1.3c0,0,0,0,0,0
		C360.6,213.8,360,213.3,360,212.6z"/>
	<path class="st5" d="M347.4,218c0,0.7-0.6,1.3-1.3,1.3c-0.7,0-1.3-0.6-1.3-1.3c0-0.7,0.6-1.3,1.3-1.3c0,0,0,0,0,0
		C346.8,216.7,347.4,217.3,347.4,218C347.4,218,347.4,218,347.4,218z"/>
	<path class="st5" d="M352.9,218c0,0.7-0.6,1.3-1.3,1.3c-0.7,0-1.3-0.6-1.3-1.3c0-0.7,0.6-1.3,1.3-1.3c0,0,0,0,0,0
		C352.3,216.7,352.9,217.3,352.9,218C352.9,218,352.9,218,352.9,218z"/>
	<path class="st5" d="M358.4,218c0,0.7-0.6,1.3-1.3,1.3c-0.7,0-1.3-0.6-1.3-1.3c0-0.7,0.6-1.3,1.3-1.3c0,0,0,0,0,0
		C357.9,216.7,358.4,217.3,358.4,218C358.4,218,358.4,218,358.4,218z"/>
	<path class="st5" d="M364,218c0,0.7-0.6,1.3-1.3,1.3c-0.7,0-1.3-0.6-1.3-1.3c0-0.7,0.6-1.3,1.3-1.3c0,0,0,0,0,0
		C363.4,216.7,364,217.3,364,218C364,218,364,218,364,218z"/>
	<path class="st5" d="M406.9,218c0,0.7-0.6,1.3-1.3,1.3c-0.7,0-1.3-0.6-1.3-1.3s0.6-1.3,1.3-1.3S406.9,217.3,406.9,218L406.9,218z"
		/>
	<path class="st5" d="M412.5,218c0,0.7-0.6,1.3-1.3,1.3c-0.7,0-1.3-0.6-1.3-1.3c0-0.7,0.6-1.3,1.3-1.3c0,0,0,0,0,0
		C412,216.7,412.5,217.3,412.5,218C412.5,218,412.5,218,412.5,218z"/>
	<path class="st5" d="M369.5,218c0,0.7-0.6,1.3-1.3,1.3c-0.7,0-1.3-0.6-1.3-1.3c0-0.7,0.6-1.3,1.3-1.3c0,0,0,0,0,0
		C369,216.7,369.5,217.3,369.5,218C369.5,218,369.5,218,369.5,218z"/>
	<path class="st5" d="M396.7,218c0,0.7-0.6,1.3-1.3,1.3c-0.7,0-1.3-0.6-1.3-1.3c0-0.7,0.6-1.3,1.3-1.3c0,0,0,0,0,0
		C396.2,216.7,396.7,217.3,396.7,218C396.7,218,396.7,218,396.7,218z"/>
	<path class="st2" d="M375,218c0,0.7-0.6,1.3-1.3,1.3c-0.7,0-1.3-0.6-1.3-1.3c0-0.7,0.6-1.3,1.3-1.3c0,0,0,0,0,0
		C374.5,216.7,375.1,217.3,375,218C375.1,218,375.1,218,375,218z"/>
	<path class="st2" d="M380.6,218c0,0.7-0.6,1.3-1.3,1.3c-0.7,0-1.3-0.6-1.3-1.3s0.6-1.3,1.3-1.3C380,216.7,380.6,217.3,380.6,218
		C380.6,218,380.6,218,380.6,218z"/>
	<path class="st2" d="M391.8,218c0,0.7-0.6,1.3-1.3,1.3c-0.7,0-1.3-0.6-1.3-1.3s0.6-1.3,1.3-1.3C391.3,216.7,391.8,217.3,391.8,218
		C391.8,218,391.8,218,391.8,218z"/>
	<path class="st2" d="M417.1,218c0,0.7-0.6,1.3-1.3,1.3c-0.7,0-1.3-0.6-1.3-1.3s0.6-1.3,1.3-1.3C416.6,216.7,417.1,217.3,417.1,218
		C417.1,218,417.1,218,417.1,218z"/>
	<path class="st8" d="M386.1,218c0,0.7-0.6,1.3-1.3,1.3c-0.7,0-1.3-0.6-1.3-1.3s0.6-1.3,1.3-1.3C385.6,216.7,386.1,217.3,386.1,218
		C386.1,218,386.1,218,386.1,218z"/>
	<path class="st8" d="M402,218c0,0.7-0.6,1.3-1.3,1.3c-0.7,0-1.3-0.6-1.3-1.3s0.6-1.3,1.3-1.3C401.4,216.7,402,217.3,402,218
		C402,218,402,218,402,218z"/>
</g>
<g id="freepik--Files--inject-72">
	<path class="st10" d="M455.2,135.7h-49.3c-3.4,0-6.2-2.8-6.2-6.2c0,0,0,0,0,0V61.2c0-3.4,2.8-6.2,6.2-6.2l0,0h31.3l24.2,25v49.5
		C461.3,132.9,458.6,135.7,455.2,135.7z"/>
	<g class="st15">
		<path d="M400.9,111.2h59.2c0.7,0,1.2,0.6,1.2,1.2v16.7c0,3.6-2.9,6.5-6.5,6.5l0,0h-48.7c-3.6,0-6.5-2.9-6.5-6.5l0,0v-16.7
			C399.7,111.8,400.2,111.2,400.9,111.2z"/>
	</g>
	<g class="st15">
		<path class="st3" d="M437.1,55.1v19.2c0,3.2,2.6,5.7,5.7,5.7h18.5L437.1,55.1z"/>
	</g>
	<g class="st15">
		<path d="M437.4,76c0,0-0.2,4.7,5.1,6.2c0.2,0.1,0.4,0.1,0.6,0.1c2.4,0.4,18.3,3.3,18.3,2.9V80h-18.5C442.9,80,438.2,79.9,437.4,76
			z"/>
	</g>
	<path class="st4" d="M417.3,121.9c0.2-2.9,2.7-5.1,5.6-4.9c1.4,0.1,2.6,0.7,3.6,1.7l-1.5,1.3c-0.6-0.7-1.5-1.1-2.4-1.1
		c-1.7,0-3.1,1.4-3.1,3.1s1.4,3.1,3.1,3.1c0,0,0,0,0,0c0.9,0,1.8-0.4,2.4-1.1l1.4,1.3c-2,2.1-5.3,2.3-7.4,0.3
		C418,124.5,417.4,123.2,417.3,121.9L417.3,121.9z"/>
	<path class="st4" d="M427.1,125.7l0.8-1.7c0.9,0.6,2,1,3.2,1c1.3,0,1.9-0.4,1.9-1c0-1.8-5.6-0.6-5.6-4.1c0-1.6,1.3-3,4-3
		c1.2,0,2.3,0.3,3.3,0.8l-0.7,1.7c-0.8-0.5-1.7-0.7-2.7-0.8c-1.3,0-1.8,0.5-1.8,1.1c0,1.8,5.6,0.6,5.6,4.1c0,1.6-1.3,3-4.1,3
		C429.6,126.9,428.3,126.5,427.1,125.7z"/>
	<path class="st4" d="M435.9,125.7l0.8-1.7c0.9,0.6,2,1,3.2,1c1.3,0,1.9-0.4,1.9-1c0-1.8-5.6-0.6-5.6-4.1c0-1.6,1.3-3,4-3
		c1.2,0,2.3,0.3,3.3,0.8l-0.7,1.7c-0.8-0.5-1.7-0.7-2.7-0.8c-1.3,0-1.8,0.5-1.8,1.1c0,1.8,5.6,0.6,5.6,4.1c0,1.6-1.3,3-4.1,3
		C438.4,126.9,437,126.5,435.9,125.7z"/>
	<path class="st4" d="M420.5,90.8c1,0.3,1.5,1,1.5,2.5v3.5c-0.1,0.8,0.5,1.5,1.2,1.6c0.1,0,0.2,0,0.4,0h0.4v2.7h-1.3
		c-2.8,0-4.2-1.4-4.2-4v-4c0.1-0.5-0.3-0.9-0.8-1c-0.1,0-0.1,0-0.2,0h-0.7v-2.7h0.7c0.5,0.1,0.9-0.3,1-0.8c0-0.1,0-0.1,0-0.2v-4
		c0-2.5,1.4-4,4.2-4h1.3v2.7h-0.4c-0.8-0.1-1.5,0.5-1.6,1.3c0,0.1,0,0.2,0,0.4v3.5C421.9,89.9,421.5,90.5,420.5,90.8z"/>
	<path class="st4" d="M444.2,89.5v2.7h-0.7c-0.5-0.1-0.9,0.3-1,0.8c0,0.1,0,0.1,0,0.2v4c0,2.5-1.4,4-4.2,4H437v-2.7h0.4
		c0.8,0.1,1.5-0.5,1.6-1.3c0-0.1,0-0.2,0-0.4v-3.5c0-1.5,0.5-2.2,1.5-2.5c-1-0.3-1.5-0.9-1.5-2.5v-3.5c0.1-0.8-0.5-1.5-1.2-1.6
		c-0.1,0-0.2,0-0.4,0H437v-2.7h1.3c2.8,0,4.2,1.4,4.2,4v4c0,0.7,0.4,1,1,1L444.2,89.5z"/>
	<path class="st10" d="M562.9,135.7h-49.3c-3.4,0-6.2-2.8-6.2-6.2c0,0,0,0,0,0V61.2c0-3.4,2.8-6.2,6.2-6.2l0,0h31.3L569,80v49.5
		C569,132.9,566.3,135.7,562.9,135.7z"/>
	<path class="st4" d="M550.5,102.8c0,0,0.4,0,1.2-0.2c1.1-0.3,2.1-0.8,2.9-1.6c0.6-0.6,1-1.3,1.2-2c0.1-0.4,0.2-0.9,0.3-1.3
		c0-0.5,0-1,0-1.5c0-2.1,0-4.5,0-7.1c0-1.3,0-2.7,0-4.1c0-0.7,0-1.4,0-2.2c0-0.7,0-1.5-0.2-2.2c-0.3-1.5-1.2-2.9-2.5-3.8
		c-0.7-0.5-1.4-0.8-2.2-1c-0.8-0.2-1.7-0.2-2.5-0.2l-22.6,0c-1.9,0.2-3.7,1.3-4.6,3c-0.5,0.8-0.8,1.7-0.8,2.6c0,0.9,0,1.9,0,2.8
		c0,3.8,0,7.4,0,10.9c0,0.9,0,1.8,0,2.6c0.1,0.8,0.3,1.6,0.8,2.3c0.8,1.3,2.1,2.3,3.6,2.7c0.7,0.1,1.5,0.2,2.2,0.2h2.2h4.1l12.5,0.1
		h3.4h0.9L550.5,102.8c0-0.1-0.2-0.1-0.2-0.1h-0.9h-3.4l-12.5,0.1h-4.1h-2.2c-0.8,0-1.6,0-2.3-0.2c-1.6-0.4-3-1.4-3.9-2.9
		c-0.4-0.7-0.8-1.4-0.9-2.2c-0.1-0.9,0-1.7,0-2.6c0-3.5,0-7.1,0-10.9c0-1,0-1.9,0-2.9c0.1-1,0.4-2,0.9-2.9c1.1-1.8,2.9-3,5-3.2
		c8.1-0.1,15.7,0,22.7,0c0.9,0,1.8,0,2.6,0.2c2.5,0.6,4.5,2.6,5,5.1c0.1,0.8,0.2,1.5,0.2,2.3c0,0.8,0,1.5,0,2.2c0,1.4,0,2.8,0,4.1
		c0,2.6,0,5,0,7.1c0,0.5,0,1,0,1.5c-0.1,0.5-0.2,0.9-0.3,1.4c-0.3,0.8-0.7,1.5-1.3,2.1c-0.8,0.8-1.9,1.4-3,1.6
		C551.3,102.9,550.9,102.9,550.5,102.8z"/>
	<path class="st4" d="M556,99.6c-0.1-0.1-0.2-0.2-0.3-0.4l-1-1.1l-3.4-4.2L549,91l-1.3-1.6c-0.2-0.3-0.5-0.6-0.7-0.8
		c-0.2-0.2-0.5-0.4-0.8-0.5c-0.7-0.2-1.4,0-1.8,0.5l-1.5,1.9l-3.1,4l-1.4,1.8l-0.2,0.2l-0.2-0.2l-3.4-3.3l-0.8-0.8
		c-0.2-0.3-0.5-0.5-0.8-0.6c-0.6-0.3-1.2-0.2-1.8,0.1c-0.3,0.2-0.5,0.4-0.7,0.7l-0.7,0.7l-1.3,1.3l-2.4,2.4l-3.4,3.4l-0.9,0.9
		c-0.1,0.1-0.2,0.2-0.3,0.3c0,0,0.1-0.1,0.3-0.4s0.5-0.6,0.9-1l3.3-3.6l2.3-2.5l1.3-1.4l0.7-0.7c0.2-0.3,0.5-0.5,0.8-0.7
		c0.7-0.4,1.5-0.5,2.2-0.2c0.4,0.2,0.7,0.4,0.9,0.7l0.8,0.8l3.4,3.2H538c0.4-0.6,0.9-1.2,1.4-1.8l3.1-4l1.5-1.9
		c0.6-0.7,1.5-0.9,2.3-0.7c0.4,0.1,0.7,0.4,1,0.7L548,89l1.3,1.6l2.3,2.9l3.2,4.3l0.9,1.2C555.9,99.5,556,99.6,556,99.6z"/>
	<path class="st4" d="M536.8,86.3c0,0,0.3,0,0.8-0.2c0.7-0.2,1.2-0.6,1.7-1.2c1-1.3,0.7-3.2-0.6-4.2c-1.3-1-3.2-0.7-4.2,0.6
		c-0.8,1.1-0.8,2.5,0,3.6c0.4,0.6,1,1,1.6,1.2C536.5,86.2,536.8,86.3,536.8,86.3c0,0-0.3,0.1-0.8,0c-0.7-0.1-1.4-0.6-1.9-1.2
		c-0.7-0.9-0.9-2.1-0.5-3.2c0.6-1.8,2.6-2.7,4.4-2.1c1,0.3,1.8,1.1,2.1,2.1c0.4,1.1,0.2,2.3-0.5,3.2c-0.5,0.6-1.1,1-1.9,1.2
		C537.3,86.4,537,86.4,536.8,86.3z"/>
	<g class="st15">
		<path d="M507.4,111.2H569l0,0v18.1c0,3.5-2.8,6.4-6.4,6.4h-49c-3.5,0-6.4-2.8-6.4-6.4L507.4,111.2L507.4,111.2z"/>
	</g>
	<g class="st15">
		<path d="M545.1,76c0,0-0.2,4.7,5.1,6.2c0.2,0.1,0.4,0.1,0.6,0.1c2.4,0.4,18.3,3.3,18.3,2.9V80h-18.5C550.6,80,546,79.9,545.1,76z"
			/>
	</g>
	<path class="st4" d="M532.7,122.6h2v3.9c-1.1,0.8-2.5,1.2-3.9,1.2c-2.7,0.3-5.2-1.6-5.6-4.3c-0.3-2.7,1.6-5.2,4.3-5.6
		c0.4-0.1,0.8-0.1,1.3,0c1.5-0.1,3,0.5,4,1.7l-1.4,1.3c-0.6-0.7-1.5-1.1-2.5-1.1c-1.7,0-3.1,1.4-3.1,3.1c0,1.7,1.4,3.1,3.1,3.1
		c0,0,0,0,0,0c0.6,0,1.2-0.1,1.7-0.4L532.7,122.6z"/>
	<path class="st4" d="M536.8,117.9h2.2v9.6h-2.2L536.8,117.9z"/>
	<path class="st4" d="M543.5,119.7v2.5h4.4v1.8h-4.4v3.5h-2.2v-9.6h7.2v1.8L543.5,119.7z"/>
	<path class="st10" d="M345.9,135.7h-49.3c-3.4,0-6.2-2.8-6.2-6.2c0,0,0,0,0,0V61.2c0-3.4,2.8-6.2,6.2-6.2l0,0h31.3L352.1,80v49.5
		C352.1,132.9,349.4,135.7,345.9,135.7C345.9,135.7,345.9,135.7,345.9,135.7z"/>
	<g class="st15">
		<path d="M290.4,111.2h61.7l0,0v17.6c0,3.8-3.1,6.8-6.8,6.8h-48c-3.8,0-6.8-3.1-6.8-6.8L290.4,111.2L290.4,111.2z"/>
	</g>
	<path class="st4" d="M312.3,127l1.6-1.9c0.5,0.8,1.3,1.3,2.2,1.3c1.1,0,1.7-0.7,1.7-2v-5.7h-4.2v-2.2h7v7.8c0,3-1.5,4.5-4.3,4.5
		C314.7,128.8,313.2,128.2,312.3,127z"/>
	<path class="st4" d="M322.2,127.7l0.9-1.9c1,0.6,2.1,0.9,3.2,0.9c1.2,0,1.7-0.3,1.7-0.8c0-1.5-5.6,0-5.6-3.7c0-1.8,1.6-3,4.3-3
		c1.2,0,2.5,0.3,3.6,0.8l-0.9,1.9c-0.8-0.5-1.7-0.7-2.7-0.7c-1.2,0-1.7,0.4-1.7,0.9c0,1.6,5.6,0,5.6,3.7c0,1.7-1.6,3-4.4,3
		C324.8,128.8,323.5,128.4,322.2,127.7z"/>
	<path class="st4" d="M303.5,98.4l1.9-2.3c1,1.7,2.9,2.7,4.9,2.8c2.6,0,4-1.6,4-4.7V81h-8.4v-2.9h11.7V94c0,5.2-2.5,7.8-7.3,7.8
		C307.6,101.8,305.1,100.6,303.5,98.4z"/>
	<path class="st4" d="M321.7,99.6l1.3-2.5c1.8,1.2,4,1.8,6.2,1.8c3,0,4.2-0.9,4.2-2.4c0-4-11.2-0.5-11.2-7.6c0-3.2,2.8-5.3,7.4-5.3
		c2.2,0,4.5,0.5,6.4,1.6l-1.4,2.5c-1.5-1-3.3-1.4-5.1-1.4c-2.8,0-4.2,1-4.2,2.4c0,4.2,11.2,0.8,11.2,7.6c0,3.2-2.9,5.2-7.6,5.2
		C326.4,101.7,323.9,101,321.7,99.6z"/>
	<g class="st15">
		<path d="M328.1,76c0,0-0.2,4.7,5.1,6.2c0.2,0.1,0.4,0.1,0.6,0.1c2.4,0.4,18.3,3.3,18.3,2.9V80h-18.5C333.6,80,329,79.9,328.1,76z"
			/>
	</g>
	<path class="st10" d="M235.7,135.7h-49.3c-3.4,0-6.2-2.8-6.2-6.2V61.2c0-3.4,2.8-6.2,6.2-6.2h31.3l24.2,25v49.5
		C241.8,132.9,239.1,135.7,235.7,135.7z"/>
	<g class="st15">
		<path d="M180.2,111.2h61.7l0,0v17.6c0,3.8-3.1,6.9-6.9,6.9h-47.9c-3.8,0-6.9-3.1-6.9-6.9L180.2,111.2L180.2,111.2z"/>
	</g>
	<g class="st15">
		<path class="st3" d="M217.6,55.1v19.2c0,3.2,2.6,5.7,5.7,5.7h18.5L217.6,55.1z"/>
	</g>
	<g class="st15">
		<path d="M217.9,76c0,0-0.2,4.7,5.1,6.2c0.2,0.1,0.4,0.1,0.6,0.1c2.4,0.4,18.3,3.3,18.3,2.9V80h-18.5C223.4,80,218.8,79.9,217.9,76
			z"/>
	</g>
	<path class="st4" d="M205.5,91l-7.4,2.7l7.4,2.7v2.8l-10.6-4v-2.9l10.6-4V91z"/>
	<path class="st4" d="M213.5,82.8h3.1l-7.3,21h-3.1L213.5,82.8z"/>
	<path class="st4" d="M227.6,92.3v2.9l-10.6,4v-2.8l7.4-2.7L217,91v-2.7L227.6,92.3z"/>
	<path class="st4" d="M203,120.3v8.3h-1.9v-3.4h-3.8v3.4h-1.9v-8.3h1.9v3.3h3.8v-3.3H203z"/>
	<path class="st4" d="M206.7,121.9H204v-1.6h7.2v1.6h-2.6v6.7h-1.9V121.9z"/>
	<path class="st4" d="M219.8,128.6v-5l-2.4,4.1h-0.9l-2.4-4v4.9h-1.8v-8.3h1.6l3.1,5.2l3.1-5.2h1.6v8.3L219.8,128.6z"/>
	<path class="st4" d="M223.6,120.3h1.9v6.7h4.2v1.6h-6.1V120.3z"/>
	<g class="st15">
		<path class="st3" d="M328,55.1v19.2c0,3.2,2.6,5.7,5.7,5.7h18.5L328,55.1z"/>
	</g>
	<g class="st15">
		<path class="st3" d="M544.8,56.1v19.2c0,3.2,2.6,5.7,5.7,5.7H569L544.8,56.1z"/>
	</g>
</g>
</svg>
