<?xml version="1.0" encoding="utf-8"?>
<!-- Generator: Adobe Illustrator 26.0.2, SVG Export Plug-In . SVG Version: 6.00 Build 0)  -->
<svg version="1.1" id="Layer_1" xmlns="http://www.w3.org/2000/svg" xmlns:xlink="http://www.w3.org/1999/xlink" x="0px" y="0px"
	 viewBox="0 0 750 500" style="enable-background:new 0 0 750 500;" xml:space="preserve">
<style type="text/css">
	.st0{fill:#E7ECF1;}
	.st1{fill:#E0E0E0;}
	.st2{opacity:0.3;}
	.st3{fill:#EBEBEB;}
	.st4{fill:#FAFAFA;}
	.st5{fill:#F5F5F5;}
	.st6{fill:#FFFFFF;}
	.st7{fill:#263238;}
	.st8{fill:#2F4B59;}
	.st9{fill:#EF3F3D;}
	.st10{fill:#455A64;}
	.st11{fill:#FFBE9D;}
	.st12{fill:#EB996E;}
	.st13{fill:#B78876;}
	.st14{fill:#AA6550;}
</style>
<g id="freepik--background-complete--inject-40">
	<path class="st0" d="M441.4,419.3v25.4h4v2.8h-4v17h-74.3V449h5.5v-3.4h-5.5v-5h-2.5v-2.3h2.9v-19H441.4z"/>
	<polygon class="st1" points="386.9,419.4 386.9,464.1 367.1,464.1 367.1,448.7 372.6,448.7 372.6,445.6 367.1,445.7 367.1,440.7 
		364.6,440.7 364.7,438.1 367.6,438 367.6,419.3 	"/>
	<path class="st1" d="M385.5,447.1c0,0.2,13.4,0.3,30,0.3s30-0.1,30-0.3s-13.4-0.3-30-0.3S385.5,446.9,385.5,447.1z"/>
	<path class="st1" d="M385.5,444.5c0,0.1,13.4,0.3,30,0.3s30-0.1,30-0.3s-13.4-0.3-30-0.3S385.5,444.3,385.5,444.5z"/>
	<path class="st1" d="M381.6,437.6c0,0.2,13.4,0.3,30,0.3s30-0.1,30-0.3s-13.5-0.3-30-0.3S381.6,437.4,381.6,437.6z"/>
	<path class="st1" d="M381.2,456.5c0,0.2,13.4,0.3,30,0.3s30-0.1,30-0.3s-13.5-0.3-30-0.3S381.2,456.3,381.2,456.5z"/>
	<path class="st0" d="M346.5,402.9l-1.6,30c0,1.1-0.9,1.9-2,1.9l-54.1,0.4c-1.1,0-2-0.9-2-2l-0.2-23.4c0-1.1,0.8-2,1.9-2
		c0,0,0,0,0.1,0h33.2c0.5,0,1.1-0.2,1.4-0.6l5.7-5.7c0.4-0.4,0.9-0.6,1.4-0.6l14-0.1c1.1,0,2,0.8,2.1,1.9
		C346.5,402.7,346.5,402.8,346.5,402.9z"/>
	<g class="st2">
		<path class="st0" d="M346.5,402.9l-1.6,30c0,1.1-0.9,1.9-2,1.9l-54.1,0.4c-1.1,0-2-0.9-2-2l-0.2-23.4c0-1.1,0.8-2,1.9-2
			c0,0,0,0,0.1,0h33.2c0.5,0,1.1-0.2,1.4-0.6l5.7-5.7c0.4-0.4,0.9-0.6,1.4-0.6l14-0.1c1.1,0,2,0.8,2.1,1.9
			C346.5,402.7,346.5,402.8,346.5,402.9z"/>
	</g>
	
		<rect x="286.6" y="404" transform="matrix(1 -7.330285e-03 7.330285e-03 1 -3.0824 2.329)" class="st0" width="59.1" height="35.3"/>
	<path class="st0" d="M350.3,406.9l-4.2,36.9c-0.1,0.7-0.6,1.1-1.3,1.2l-57.6,0.4c-0.7,0-1.2-0.5-1.3-1.2l-3.2-36.8
		c0-0.7,0.5-1.3,1.2-1.4c0,0,0,0,0,0l65-0.5c0.7,0,1.3,0.6,1.3,1.3C350.3,406.9,350.3,406.9,350.3,406.9z"/>
	<path class="st0" d="M362.4,397.2l-1.6,30c0,1.1-0.9,1.9-2,1.9l-54.1,0.4c-1.1,0-2-0.9-2-2l-0.2-23.4c0-1.1,0.8-2,1.9-2
		c0,0,0,0,0.1,0h33.2c0.5,0,1.1-0.2,1.4-0.6l5.7-5.7c0.4-0.4,0.9-0.6,1.4-0.6l14-0.1c1.1,0,2,0.9,2,2
		C362.4,397.1,362.4,397.1,362.4,397.2z"/>
	
		<rect x="302.5" y="398.3" transform="matrix(1 -7.330285e-03 7.330285e-03 1 -3.0405 2.4455)" class="st0" width="59.1" height="35.3"/>
	<path class="st0" d="M366.2,401.3l-4.2,36.8c-0.1,0.7-0.6,1.2-1.3,1.2l-57.6,0.4c-0.7,0-1.3-0.5-1.3-1.2l-3.2-36.8
		c-0.1-0.7,0.5-1.4,1.2-1.4c0,0,0.1,0,0.1,0l65-0.5c0.7,0,1.3,0.6,1.3,1.3C366.2,401.2,366.2,401.2,366.2,401.3z"/>
	<path class="st3" d="M380.3,404.2l-1.6,30.1c0,1.1-0.9,1.9-2,1.9l-54.1,0.4c-1.1,0-2-0.9-2-2l-0.2-23.4c0-1.1,0.9-2,2-2h33.3
		c0.5,0,1.1-0.2,1.4-0.6l5.7-5.7c0.4-0.4,0.9-0.6,1.4-0.6l14-0.1C379.4,402.1,380.3,403,380.3,404.2
		C380.3,404.2,380.3,404.2,380.3,404.2z"/>
	
		<rect x="320.5" y="405.4" transform="matrix(1 -7.330285e-03 7.330285e-03 1 -3.0915 2.5771)" class="st4" width="59.1" height="35.3"/>
	<path class="st0" d="M384.1,408.3l-4.2,36.9c-0.1,0.7-0.6,1.1-1.3,1.1l-57.6,0.4c-0.7,0-1.3-0.5-1.3-1.2l-3.2-36.8
		c-0.1-0.7,0.5-1.3,1.2-1.4c0,0,0.1,0,0.1,0l65-0.5c0.7,0,1.3,0.6,1.3,1.3C384.2,408.2,384.2,408.3,384.1,408.3z"/>
	<path class="st5" d="M316.6,413.3v51.1h73.8v-51.1H316.6z M340.6,422.5c0-2.1,1.7-3.8,3.8-3.8c0,0,0,0,0,0h18
		c2.1,0.1,3.7,1.9,3.6,4c-0.1,1.9-1.6,3.5-3.6,3.6h-18C342.3,426.3,340.6,424.6,340.6,422.5z"/>
	<path class="st0" d="M276.8,413.3v51.1h39.8v-51.1H276.8z"/>
	<rect x="59.4" y="109.8" class="st1" width="101.4" height="105.8"/>
	<rect x="52.5" y="109.8" class="st0" width="101.4" height="105.8"/>
	<path class="st1" d="M154,215.6H52.5V109.8H154V215.6z M52.6,215.5h101.4V109.8H52.5L52.6,215.5z"/>
	<rect x="66.2" y="124" class="st4" width="74.2" height="77.3"/>
	<path class="st1" d="M66.2,201.9c-0.5,0.8-1.1,1.5-1.8,2.1c-1.2,1.2-2.8,2.9-4.7,4.8s-3.6,3.5-4.8,4.6c-0.6,0.7-1.4,1.3-2.2,1.8
		c0.5-0.8,1.1-1.5,1.8-2.1c1.2-1.2,2.9-2.9,4.7-4.8s3.6-3.5,4.8-4.6C64.6,203,65.4,202.4,66.2,201.9z"/>
	<path class="st1" d="M140.3,201.7c0.8,0.5,1.5,1.1,2.1,1.8c1.2,1.2,2.9,2.9,4.8,4.7s3.5,3.6,4.6,4.8c0.7,0.6,1.3,1.4,1.8,2.1
		c-0.8-0.5-1.5-1.1-2.1-1.8c-1.2-1.2-2.9-2.9-4.8-4.7s-3.5-3.6-4.6-4.9C141.4,203.2,140.8,202.5,140.3,201.7z"/>
	<path class="st1" d="M140.1,124.2c0.5-0.8,1.1-1.5,1.8-2.1c1.2-1.2,2.9-2.9,4.7-4.8s3.6-3.5,4.9-4.6c0.6-0.7,1.4-1.3,2.1-1.8
		c-0.5,0.8-1.1,1.5-1.8,2.1c-1.2,1.2-2.9,3-4.7,4.8s-3.6,3.5-4.9,4.7C141.6,123.1,140.9,123.7,140.1,124.2z"/>
	<path class="st1" d="M65.9,124.4c-0.8-0.5-1.5-1.1-2.1-1.8c-1.2-1.2-3-2.8-4.8-4.7s-3.5-3.6-4.6-4.8c-0.7-0.6-1.3-1.4-1.8-2.1
		c0.8,0.5,1.5,1.1,2.1,1.8c1.2,1.2,3,2.8,4.8,4.7s3.5,3.6,4.6,4.9C64.8,122.9,65.4,123.6,65.9,124.4z"/>
	<path class="st1" d="M140.1,201.4c0-0.1,0-0.3,0-0.4c0-0.3,0-0.6,0-1.1c0-1,0-2.4,0-4.2c0-3.7,0-9-0.1-15.8
		c0-13.5-0.1-32.8-0.1-55.9l0.3,0.3l-74,0.1l0,0l0.3-0.3c0,28.4,0,54.9,0,77.3l-0.3-0.3l53.6,0.1l15,0.1h4h1L140.1,201.4l-0.3-0.1
		h-1h-3.9l-15,0.1l-53.7,0.1h-0.3v-0.3c0-22.4,0-48.9-0.1-77.3v-0.3h0.3h74h0.3v0.4c-0.1,23.2-0.1,42.5-0.1,56.1
		c0,6.7-0.1,12-0.1,15.7c0,1.8,0,3.2,0,4.1c0,0.4,0,0.8,0,1S140.1,201.4,140.1,201.4z"/>
	<rect x="90.9" y="150.3" class="st0" width="24.8" height="24.8"/>
	
		<rect x="665.6" y="116" transform="matrix(1 -5.410494e-03 5.410494e-03 1 -0.7335 3.6266)" class="st0" width="8.6" height="42.7"/>
	
		<rect x="591.3" y="116.2" transform="matrix(1 -5.410494e-03 5.410494e-03 1 -0.6836 3.2613)" class="st3" width="22.2" height="23.5"/>
	
		<rect x="613.4" y="116.1" transform="matrix(1 -5.410494e-03 5.410494e-03 1 -0.6826 3.3808)" class="st0" width="22.2" height="23.6"/>
	<path class="st1" d="M591.3,122.8c14.8,0.1,29.5,0,44.3-0.2c0.1,0,0.2-0.2,0.2-0.3c0-0.1-0.1-0.2-0.2-0.2
		c-14.8-0.1-29.5,0-44.3,0.3c-0.1,0-0.2,0.1-0.2,0.2C591.1,122.7,591.2,122.8,591.3,122.8z"/>
	
		<rect x="577.5" y="139.4" transform="matrix(1 -5.410494e-03 5.410494e-03 1 -0.7974 3.2357)" class="st3" width="40.3" height="19.2"/>
	
		<rect x="617.6" y="139.2" transform="matrix(1 -5.410494e-03 5.410494e-03 1 -0.7956 3.4529)" class="st0" width="40.3" height="19.2"/>
	<path class="st1" d="M577.4,144.9c26.8,0.3,53.7,0,80.5-0.4c0.1,0,0.2-0.2,0.2-0.3c0-0.1-0.1-0.2-0.2-0.2
		c-26.8-0.1-53.7-0.1-80.5,0.5c-0.1,0-0.2,0.1-0.2,0.3C577.3,144.8,577.4,144.9,577.4,144.9L577.4,144.9z"/>
	<rect x="562.4" y="158.7" class="st0" width="156.3" height="6.9"/>
	<rect x="587.9" y="162" class="st1" width="6.3" height="23.5"/>
	<rect x="682.6" y="162" class="st0" width="6.3" height="23.5"/>
	
		<rect x="674.1" y="100.1" transform="matrix(1 -5.410494e-03 5.410494e-03 1 -0.6905 3.672)" class="st0" width="8.6" height="58.7"/>
	
		<rect x="683.3" y="107.9" transform="matrix(0.9999 -9.999500e-03 9.999500e-03 0.9999 -1.2823 6.9058)" class="st5" width="13.3" height="47.5"/>
	<path class="st1" d="M695.8,120.2c-4.4,0.3-8.9,0.3-13.3,0C686.9,119.9,691.3,119.9,695.8,120.2z"/>
	<path class="st1" d="M695.8,118.2c-4.4,0.3-8.9,0.3-13.3,0C686.9,117.9,691.3,117.9,695.8,118.2z"/>
	<path class="st1" d="M695.8,151.5c-4.4,0.3-8.9,0.3-13.3,0C686.9,151.2,691.3,151.2,695.8,151.5z"/>
	<path class="st1" d="M695.8,149.5c-4.4,0.3-8.9,0.3-13.3,0C686.9,149.2,691.3,149.2,695.8,149.5z"/>
	<path class="st1" d="M689.3,145.1c-0.1,0-0.2-4.8-0.2-10.7s0.1-10.7,0.2-10.7s0.2,4.8,0.2,10.7S689.4,145.1,689.3,145.1z"/>
	<rect x="695.9" y="122.8" class="st0" width="14.5" height="35.9"/>
	<path class="st4" d="M703.6,149.3c-1.7,0.1-3.2-1.3-3.2-3c0-0.1,0-0.2,0-0.2c0-1,0.4-1.9,1.2-2.4l0.3,0.4c-0.7,0.5-1,1.2-1,2
		c0,1.5,1.2,2.7,2.7,2.7s2.7-1.2,2.7-2.7c0-0.8-0.3-1.5-1-2l0.3-0.4c0.8,0.6,1.2,1.5,1.2,2.4c0.1,1.7-1.3,3.2-3,3.2
		C703.7,149.3,703.6,149.3,703.6,149.3z"/>
	<path class="st4" d="M706,142.8l-0.5-0.3c0.5-0.7,0.8-1.5,0.8-2.3c0-1.4-0.5-1.9-1.2-1.9c-1.9,0-0.5,4.2-3,4.2
		c-1,0-1.8-0.8-1.8-2.4c0-0.8,0.2-1.5,0.7-2.1l0.5,0.3c-0.4,0.6-0.6,1.2-0.6,1.9c0,1.2,0.5,1.8,1.2,1.8c1.9,0,0.6-4.2,3-4.2
		c1,0,1.7,0.9,1.7,2.5C706.9,141.2,706.6,142.1,706,142.8z"/>
	<path class="st4" d="M706,136.9l-0.5-0.3c0.5-0.7,0.8-1.5,0.8-2.3c0-1.3-0.5-1.9-1.2-1.9c-1.9,0-0.5,4.2-3,4.2
		c-1,0-1.8-0.8-1.8-2.4c0-0.8,0.2-1.5,0.6-2.2l0.5,0.3c-0.4,0.6-0.6,1.2-0.6,1.9c0,1.2,0.5,1.8,1.2,1.8c1.9,0,0.6-4.2,3-4.2
		c1,0,1.7,0.9,1.7,2.5C706.8,135.3,706.6,136.2,706,136.9z"/>
	<path class="st1" d="M680.5,110.2c0,1.4-1.1,2.5-2.5,2.5c-1.4,0-2.5-1.1-2.5-2.5c0-1.3,1.1-2.4,2.4-2.5
		C679.4,107.7,680.5,108.8,680.5,110.2C680.5,110.1,680.5,110.2,680.5,110.2z"/>
	<rect x="677.3" y="116.9" class="st1" width="1.5" height="34.9"/>
	<rect x="595.1" y="363.6" class="st3" width="72.6" height="5.6"/>
	<rect x="647.8" y="363.6" class="st1" width="19.9" height="5.6"/>
	<path class="st5" d="M585.9,369.3v25.4h-4v2.8h4v17h74.3v-15.5h-5.5v-3.4h5.5v-5.1h2.5v-2.3h-2.9v-18.9H585.9z"/>
	<polygon class="st0" points="640.5,369.4 640.5,414.1 660.2,414.1 660.2,398.6 654.7,398.6 654.7,395.5 660.2,395.5 660.2,390.5 
		662.7,390.5 662.7,387.9 659.8,387.9 659.8,369.3 	"/>
	<path class="st1" d="M641.9,397c0,0.1-13.4,0.3-30,0.3s-30-0.1-30-0.3s13.4-0.3,30-0.3S641.9,396.9,641.9,397z"/>
	<path class="st1" d="M641.9,394.4c0,0.2-13.4,0.3-30,0.3s-30-0.1-30-0.3s13.4-0.3,30-0.3S641.9,394.3,641.9,394.4z"/>
	<path class="st1" d="M645.8,387.5c0,0.2-13.4,0.3-30,0.3s-30-0.1-30-0.3s13.5-0.3,30-0.3S645.8,387.4,645.8,387.5z"/>
	<path class="st1" d="M646.1,406.4c0,0.2-13.4,0.3-30,0.3s-30-0.1-30-0.3s13.5-0.3,30-0.3S646.1,406.2,646.1,406.4z"/>
	<path class="st5" d="M594.3,419.7v25.4h-4v2.8h4v17h74.3v-15.5h-5.5V446h5.5v-5h2.5v-2.3h-2.9v-19H594.3z"/>
	<polygon class="st0" points="648.9,419.8 648.9,464.5 668.7,464.5 668.7,449.1 663.1,449.1 663.1,446 668.7,446.1 668.7,441.1 
		671.1,441.1 671.1,438.5 668.2,438.4 668.2,419.7 	"/>
	<path class="st1" d="M650.3,447.5c0,0.2-13.4,0.3-30,0.3s-30-0.1-30-0.3s13.4-0.3,30-0.3S650.3,447.3,650.3,447.5z"/>
	<path class="st1" d="M650.3,444.9c0,0.2-13.4,0.3-30,0.3s-30-0.1-30-0.3s13.4-0.3,30-0.3S650.3,444.7,650.3,444.9z"/>
	<path class="st1" d="M654.2,438c0,0.2-13.4,0.3-30,0.3s-30-0.1-30-0.3s13.5-0.3,30-0.3S654.2,437.8,654.2,438z"/>
	<path class="st1" d="M654.5,456.9c0,0.2-13.4,0.3-30,0.3s-30-0.1-30-0.3s13.5-0.3,30-0.3S654.5,456.7,654.5,456.9z"/>
	<path class="st5" d="M593.3,318.6v25.4h-4v2.8h4v17h74.3v-15.5h-5.5v-3.4h5.5v-5h2.4v-2.3h-2.9v-19H593.3z"/>
	<polygon class="st0" points="647.8,318.6 647.8,363.4 667.6,363.4 667.6,347.9 662.1,347.9 662.1,344.8 667.6,344.9 667.6,339.9 
		670.1,339.9 670,337.3 667.1,337.2 667.1,318.6 	"/>
	<path class="st1" d="M649.2,346.3c0,0.2-13.4,0.3-30,0.3s-30-0.1-30-0.3s13.4-0.3,30-0.3S649.2,346.2,649.2,346.3z"/>
	<path class="st1" d="M649.2,343.7c0,0.1-13.4,0.3-30,0.3s-30-0.1-30-0.3s13.4-0.3,30-0.3S649.2,343.6,649.2,343.7z"/>
	<path class="st1" d="M653.1,336.8c0,0.2-13.4,0.3-30,0.3s-30-0.1-30-0.3s13.5-0.3,30-0.3S653.1,336.6,653.1,336.8z"/>
	<path class="st1" d="M653.5,355.7c0,0.2-13.4,0.3-30,0.3s-30-0.1-30-0.3s13.4-0.3,30-0.3S653.5,355.5,653.5,355.7z"/>
	<rect x="590.3" y="414.1" class="st3" width="72.6" height="5.6"/>
	<rect x="642.9" y="414.1" class="st1" width="19.9" height="5.6"/>
</g>
<g id="freepik--Board--inject-40">
	<rect x="140.5" y="53.7" class="st6" width="488.2" height="294.5"/>
	<path class="st7" d="M628.7,348.2c0-1.6-0.1-114.1-0.2-294.5l0.2,0.2L140.5,54l0,0l0.3-0.3c0,104.3,0,203.9,0,294.5l-0.2-0.2
		L628.7,348.2l-488.2,0.2h-0.2v-0.2c0-90.6,0-190.2,0-294.5v-0.3h0.3l488.2,0.1h0.2v0.2C628.8,234.2,628.7,346.6,628.7,348.2z"/>
	<path class="st1" d="M204.4,103.7c0,0-2.6,24,0.8,37.2l32.1-1.4c0,0-6.9-23.7-2.6-34.2L204.4,103.7z"/>
	<path class="st8" d="M204.1,103.7c0,0,0.2,25.9,1.5,33.8l32.5-1.6c0,0-2.9-25.5-1.8-32.3L204.1,103.7z"/>
	<path class="st6" d="M231.5,114.6c0,0.1-4.9,0.6-10.9,0.9s-10.9,0.5-10.9,0.4s4.9-0.6,10.9-0.9S231.5,114.4,231.5,114.6z"/>
	<path class="st6" d="M231.5,120.1c0,0.1-4.9,0.6-10.9,0.9s-10.9,0.5-10.9,0.4s4.9-0.6,10.9-0.9S231.5,120,231.5,120.1z"/>
	<path class="st6" d="M226,125.5c-2,0.4-4.1,0.6-6.2,0.6c-2.1,0.2-4.2,0.2-6.2,0.1c2-0.4,4.1-0.6,6.2-0.6
		C221.8,125.4,223.9,125.3,226,125.5z"/>
	<path class="st8" d="M203.6,142.5c0,0,0.2,25.9,1.5,33.8l32.5-1.5c0,0-2.9-25.5-1.8-32.3H203.6z"/>
	<path class="st6" d="M231,153.4c0,0.1-4.9,0.6-10.9,0.9s-10.9,0.5-10.9,0.4s4.9-0.6,10.9-0.9S231,153.2,231,153.4z"/>
	<path class="st6" d="M231,158.9c0,0.1-4.9,0.6-10.9,0.9s-10.9,0.5-10.9,0.4s4.9-0.6,10.9-0.9S231,158.7,231,158.9z"/>
	<path class="st6" d="M225.4,164.2c-2,0.4-4.1,0.6-6.2,0.6c-2.1,0.2-4.2,0.2-6.2,0.1c2-0.4,4.1-0.6,6.2-0.6
		C221.3,164.2,223.4,164.1,225.4,164.2z"/>
	<path class="st9" d="M203.6,186.4c0,0,0.2,25.9,1.5,33.8l32.5-1.5c0,0-2.9-25.5-1.8-32.3H203.6z"/>
	<path class="st6" d="M231,197.3c0,0.1-4.9,0.6-10.9,0.9s-10.9,0.5-10.9,0.4s4.9-0.6,10.9-0.9S231,197.1,231,197.3z"/>
	<path class="st6" d="M231,202.8c0,0.1-4.9,0.6-10.9,0.9s-10.9,0.5-10.9,0.4s4.9-0.6,10.9-0.9S231,202.6,231,202.8z"/>
	<path class="st6" d="M225.4,208.2c-2,0.4-4.1,0.6-6.2,0.6c-2.1,0.2-4.2,0.3-6.2,0.1c2-0.4,4.1-0.6,6.2-0.6
		C221.3,208.1,223.4,208,225.4,208.2z"/>
	<path class="st10" d="M199.8,237.8c0,0,0.2,25.9,1.5,33.8l32.5-1.5c0,0-2.9-25.5-1.8-32.3H199.8z"/>
	<path class="st6" d="M227.2,248.6c0,0.1-4.9,0.6-10.9,0.9s-10.9,0.5-10.9,0.4s4.9-0.6,10.9-0.9S227.2,248.5,227.2,248.6z"/>
	<path class="st6" d="M227.2,254.1c0,0.1-4.9,0.6-10.9,0.9s-10.9,0.5-10.9,0.4s4.9-0.6,10.9-0.9S227.2,254,227.2,254.1z"/>
	<path class="st6" d="M221.6,259.5c-2,0.4-4.1,0.6-6.2,0.6c-2.1,0.2-4.2,0.3-6.2,0.1c2-0.4,4.1-0.6,6.2-0.6
		C217.5,259.4,219.6,259.4,221.6,259.5z"/>
	<path class="st7" d="M242.9,238c0,0,0.2,25.9,1.5,33.8l32.5-1.5c0,0-2.9-25.5-1.8-32.3H242.9z"/>
	<path class="st6" d="M270.3,248.9c0,0.1-4.9,0.6-10.9,0.9s-10.9,0.5-10.9,0.4s4.9-0.6,10.9-0.9S270.3,248.7,270.3,248.9z"/>
	<path class="st6" d="M270.3,254.4c0,0.1-4.9,0.6-10.9,0.9s-10.9,0.5-10.9,0.4s4.9-0.6,10.9-0.9S270.3,254.2,270.3,254.4z"/>
	<path class="st6" d="M264.8,259.8c-2,0.4-4.1,0.6-6.2,0.6c-2.1,0.2-4.2,0.3-6.2,0.1c2-0.4,4.1-0.6,6.2-0.6
		C260.6,259.7,262.7,259.6,264.8,259.8z"/>
	<path class="st8" d="M278.9,239.8c0,0,0.2,25.9,1.5,33.8l32.5-1.5c0,0-2.9-25.5-1.8-32.3H278.9z"/>
	<path class="st6" d="M306.3,250.7c0,0.1-4.9,0.6-10.9,0.9s-10.9,0.5-10.9,0.4s4.9-0.6,10.9-0.9S306.3,250.6,306.3,250.7z"/>
	<path class="st6" d="M306.4,256.2c0,0.1-4.9,0.5-10.9,0.9s-10.9,0.5-10.9,0.4s4.9-0.5,10.9-0.9S306.3,256.1,306.4,256.2z"/>
	<path class="st6" d="M300.8,261.6c-2,0.4-4.1,0.6-6.2,0.6c-2.1,0.2-4.2,0.3-6.2,0.1c2-0.4,4.1-0.6,6.2-0.6
		C296.7,261.5,298.7,261.5,300.8,261.6z"/>
	<path class="st10" d="M236.8,284.2c0,0,0.2,25.9,1.5,33.8l32.5-1.5c0,0-2.9-25.5-1.8-32.3H236.8z"/>
	<path class="st6" d="M264.2,295.1c0,0.1-4.9,0.5-10.9,0.9s-10.9,0.5-10.9,0.4s4.9-0.5,10.9-0.9S264.2,294.9,264.2,295.1z"/>
	<path class="st6" d="M264.2,300.6c0,0.1-4.9,0.6-10.9,0.9s-10.9,0.5-10.9,0.4s4.9-0.5,10.9-0.9S264.2,300.4,264.2,300.6z"/>
	<path class="st6" d="M258.7,306c-2,0.4-4.1,0.6-6.2,0.6c-2.1,0.2-4.2,0.2-6.2,0.1c2-0.4,4.1-0.6,6.2-0.6
		C254.5,305.9,256.6,305.9,258.7,306z"/>
	<path class="st7" d="M341.2,224.6c0,0,0.2,25.9,1.5,33.8l32.5-1.5c0,0-2.9-25.5-1.8-32.3L341.2,224.6z"/>
	<path class="st6" d="M368.6,235.5c0,0.1-4.9,0.6-10.9,0.9s-10.9,0.5-10.9,0.4s4.9-0.6,10.9-0.9S368.6,235.4,368.6,235.5z"/>
	<path class="st6" d="M368.6,241c0,0.1-4.9,0.6-10.9,0.9s-10.9,0.5-10.9,0.4s4.9-0.6,10.9-0.9S368.6,240.9,368.6,241z"/>
	<path class="st6" d="M363.1,246.4c-2,0.4-4.1,0.6-6.2,0.6c-2.1,0.2-4.2,0.2-6.2,0.1c2-0.4,4.1-0.6,6.2-0.6
		C358.9,246.3,361,246.3,363.1,246.4z"/>
	<path class="st10" d="M411.8,285.5c0,0,0.2,25.9,1.5,33.8l32.5-1.5c0,0-2.9-25.5-1.8-32.3H411.8z"/>
	<path class="st6" d="M439.2,296.4c0,0.1-4.9,0.6-10.9,0.9s-10.9,0.5-10.9,0.4s4.9-0.6,10.9-0.9S439.2,296.2,439.2,296.4z"/>
	<path class="st6" d="M439.2,301.9c0,0.1-4.9,0.5-10.9,0.9s-10.9,0.5-10.9,0.4s4.9-0.5,10.9-0.9S439.2,301.7,439.2,301.9z"/>
	<path class="st6" d="M433.7,307.3c-2,0.4-4.1,0.6-6.2,0.6c-2.1,0.2-4.2,0.3-6.2,0.1c2-0.4,4.1-0.6,6.2-0.6
		C429.5,307.2,431.6,307.1,433.7,307.3z"/>
	<path class="st10" d="M451.9,286c0,0,0.2,25.9,1.5,33.8l32.5-1.5c0,0-2.9-25.5-1.8-32.3L451.9,286z"/>
	<path class="st6" d="M479.3,296.9c0,0.1-4.9,0.5-10.9,0.9s-10.9,0.5-10.9,0.4s4.9-0.5,10.9-0.9S479.3,296.8,479.3,296.9z"/>
	<path class="st6" d="M479.3,302.4c0,0.1-4.9,0.5-10.9,0.9s-10.9,0.5-10.9,0.4s4.9-0.5,10.9-0.9S479.3,302.3,479.3,302.4z"/>
	<path class="st6" d="M473.8,307.8c-2,0.4-4.1,0.6-6.2,0.6c-2.1,0.2-4.2,0.2-6.2,0.1c2-0.4,4.1-0.6,6.2-0.6
		C469.6,307.7,471.7,307.7,473.8,307.8z"/>
	<path class="st7" d="M492.1,286.6c0,0,0.2,25.9,1.5,33.8l32.5-1.5c0,0-2.9-25.5-1.8-32.3H492.1z"/>
	<path class="st6" d="M519.5,297.5c0,0.1-4.9,0.5-10.9,0.9s-10.9,0.5-10.9,0.4s4.9-0.5,10.9-0.9
		C514.6,297.5,519.5,297.4,519.5,297.5z"/>
	<path class="st6" d="M519.5,303c0,0.1-4.9,0.6-10.9,0.9s-10.9,0.5-10.9,0.4s4.9-0.5,10.9-0.9C514.6,303,519.5,302.8,519.5,303z"/>
	<path class="st6" d="M513.9,308.4c-2,0.4-4.1,0.6-6.2,0.6c-2.1,0.2-4.2,0.2-6.2,0.1C505.6,308.5,509.8,308.3,513.9,308.4z"/>
	<path class="st10" d="M540.3,285.1c0,0,0.2,25.9,1.5,33.8l32.5-1.5c0,0-2.8-25.5-1.8-32.3H540.3z"/>
	<path class="st6" d="M567.7,296c0,0.1-4.9,0.5-10.9,0.9s-10.9,0.5-10.9,0.4s4.9-0.6,10.9-0.9S567.7,295.8,567.7,296z"/>
	<path class="st6" d="M567.7,301.5c0,0.1-4.9,0.5-10.9,0.9s-10.9,0.5-10.9,0.4s4.9-0.5,10.9-0.9S567.7,301.3,567.7,301.5z"/>
	<path class="st6" d="M562.2,306.9c-2,0.4-4.1,0.6-6.2,0.6c-2.1,0.2-4.2,0.3-6.2,0.1c2.1-0.4,4.1-0.6,6.2-0.6
		C558.1,306.8,560.1,306.7,562.2,306.9z"/>
	<path class="st10" d="M575.3,288.8c0,0,0.2,25.9,1.5,33.8l32.5-1.5c0,0-2.8-25.5-1.8-32.3H575.3z"/>
	<path class="st6" d="M602.7,299.7c0,0.1-4.9,0.5-10.9,0.9s-10.9,0.5-10.9,0.4s4.9-0.5,10.9-0.9S602.7,299.6,602.7,299.7z"/>
	<path class="st6" d="M602.7,305.2c0,0.1-4.9,0.5-10.9,0.9s-10.9,0.5-10.9,0.4s4.9-0.5,10.9-0.9S602.7,305.1,602.7,305.2z"/>
	<path class="st6" d="M597.2,310.6c-2,0.4-4.1,0.6-6.2,0.6c-2.1,0.2-4.2,0.2-6.2,0.1c2-0.4,4.1-0.6,6.2-0.6
		C593,310.5,595.1,310.5,597.2,310.6z"/>
	<path class="st10" d="M411.6,238.4c0,0,0.2,25.9,1.5,33.8l32.5-1.5c0,0-2.9-25.5-1.8-32.3L411.6,238.4z"/>
	<path class="st6" d="M439,249.3c0,0.1-4.9,0.6-10.9,0.9s-10.9,0.5-10.9,0.4s4.9-0.6,10.9-0.9S439,249.1,439,249.3z"/>
	<path class="st6" d="M439,254.8c0,0.1-4.9,0.6-10.9,0.9s-10.9,0.5-10.9,0.4s4.9-0.6,10.9-0.9S439,254.6,439,254.8z"/>
	<path class="st6" d="M433.5,260.1c-2,0.4-4.1,0.6-6.2,0.6c-2.1,0.2-4.2,0.3-6.2,0.1c2-0.4,4.1-0.6,6.2-0.6
		C429.4,260,431.4,260,433.5,260.1z"/>
	<path class="st9" d="M454.1,238.5c0,0,0.2,25.9,1.5,33.8l32.5-1.5c0,0-2.9-25.5-1.8-32.3L454.1,238.5z"/>
	<path class="st6" d="M481.5,249.4c0,0.1-4.9,0.6-10.9,0.9s-10.9,0.5-10.9,0.4s4.9-0.6,10.9-0.9S481.5,249.2,481.5,249.4z"/>
	<path class="st6" d="M481.5,254.9c0,0.1-4.9,0.6-10.9,0.9c-6,0.4-10.9,0.5-10.9,0.4s4.9-0.6,10.9-0.9S481.5,254.7,481.5,254.9z"/>
	<path class="st6" d="M476,260.3c-2,0.4-4.1,0.6-6.2,0.6c-2.1,0.2-4.2,0.2-6.2,0.1c2-0.4,4.1-0.6,6.2-0.6
		C471.8,260.2,473.9,260.1,476,260.3z"/>
	<path class="st10" d="M537.8,238.5c0,0,0.2,25.9,1.5,33.8l32.5-1.5c0,0-2.9-25.5-1.8-32.3H537.8z"/>
	<path class="st6" d="M565.2,249.4c0,0.1-4.9,0.6-10.9,0.9s-10.9,0.5-10.9,0.4s4.9-0.6,10.9-0.9S565.2,249.3,565.2,249.4z"/>
	<path class="st6" d="M565.2,254.9c0,0.1-4.9,0.6-10.9,0.9c-6,0.4-10.9,0.5-10.9,0.4s4.9-0.6,10.9-0.9S565.2,254.8,565.2,254.9z"/>
	<path class="st6" d="M559.7,260.3c-2,0.4-4.1,0.6-6.2,0.6c-2.1,0.2-4.2,0.3-6.2,0.1c2-0.4,4.1-0.6,6.2-0.6
		C555.5,260.2,557.6,260.2,559.7,260.3z"/>
	<path class="st7" d="M254.1,186.4c0,0,0.2,25.9,1.5,33.8l32.5-1.5c0,0-2.9-25.5-1.8-32.3H254.1z"/>
	<path class="st6" d="M281.5,197.3c0,0.1-4.9,0.6-10.9,0.9s-10.9,0.5-10.9,0.4s4.9-0.6,10.9-0.9S281.4,197.1,281.5,197.3z"/>
	<path class="st6" d="M281.5,202.8c0,0.1-4.9,0.6-10.9,0.9s-10.9,0.5-10.9,0.4s4.9-0.6,10.9-0.9S281.5,202.6,281.5,202.8z"/>
	<path class="st6" d="M275.9,208.2c-2,0.4-4.1,0.6-6.2,0.6c-2.1,0.2-4.2,0.3-6.2,0.1c2-0.4,4.1-0.6,6.2-0.6
		C271.8,208.1,273.9,208,275.9,208.2z"/>
	<path class="st8" d="M241.1,103.7c0,0,0.2,25.9,1.5,33.8l32.5-1.6c0,0-2.9-25.5-1.8-32.3L241.1,103.7z"/>
	<path class="st6" d="M268.5,114.6c0,0.1-4.9,0.6-10.9,0.9s-10.9,0.5-10.9,0.4s4.9-0.6,10.9-0.9S268.5,114.4,268.5,114.6z"/>
	<path class="st6" d="M268.5,120.1c0,0.1-4.9,0.6-10.9,0.9s-10.9,0.5-10.9,0.4s4.9-0.6,10.9-0.9S268.5,120,268.5,120.1z"/>
	<path class="st6" d="M263,125.5c-2,0.4-4.1,0.6-6.2,0.6c-2.1,0.2-4.2,0.2-6.2,0.1c2-0.4,4.1-0.6,6.2-0.6
		C258.8,125.4,260.9,125.3,263,125.5z"/>
	<path class="st8" d="M241.8,142.6c0,0,0.2,25.9,1.5,33.8l32.5-1.5c0,0-2.9-25.5-1.8-32.3H241.8z"/>
	<path class="st6" d="M269.2,153.5c0,0.1-4.9,0.6-10.9,0.9s-10.9,0.5-10.9,0.4s4.9-0.6,10.9-0.9
		C264.3,153.5,269.2,153.4,269.2,153.5z"/>
	<path class="st6" d="M269.2,159c0,0.1-4.9,0.6-10.9,0.9s-10.9,0.5-10.9,0.4s4.9-0.6,10.9-0.9S269.2,158.9,269.2,159z"/>
	<path class="st6" d="M263.7,164.4c-2,0.4-4.1,0.6-6.2,0.6c-2.1,0.2-4.2,0.3-6.2,0.1c2-0.4,4.1-0.6,6.2-0.6
		C259.6,164.3,261.6,164.3,263.7,164.4z"/>
	<path class="st8" d="M281.7,103.7c0,0,0.2,25.9,1.5,33.8l32.5-1.6c0,0-2.9-25.5-1.8-32.3L281.7,103.7z"/>
	<path class="st6" d="M309.1,114.6c0,0.1-4.9,0.6-10.9,0.9s-10.9,0.5-10.9,0.4s4.9-0.6,10.9-0.9S309,114.4,309.1,114.6z"/>
	<path class="st6" d="M309.1,120.1c0,0.1-4.9,0.6-10.9,0.9s-10.9,0.5-10.9,0.4s4.9-0.6,10.9-0.9S309.1,120,309.1,120.1z"/>
	<path class="st6" d="M303.5,125.5c-2,0.4-4.1,0.6-6.2,0.6c-2.1,0.2-4.2,0.2-6.2,0.1c2-0.4,4.1-0.6,6.2-0.6
		C299.4,125.4,301.5,125.3,303.5,125.5z"/>
	<path class="st8" d="M322.2,103.7c0,0,0.2,25.9,1.5,33.8l32.5-1.6c0,0-2.9-25.5-1.8-32.3L322.2,103.7z"/>
	<path class="st6" d="M349.6,114.6c0,0.1-4.9,0.6-10.9,0.9s-10.9,0.5-10.9,0.4s4.9-0.6,10.9-0.9S349.6,114.4,349.6,114.6z"/>
	<path class="st6" d="M349.6,120.1c0,0.1-4.9,0.6-10.9,0.9s-10.9,0.5-10.9,0.4s4.9-0.6,10.9-0.9S349.6,120,349.6,120.1z"/>
	<path class="st6" d="M344.1,125.5c-2,0.4-4.1,0.6-6.2,0.6c-2.1,0.2-4.2,0.2-6.2,0.1C335.7,125.6,339.9,125.4,344.1,125.5z"/>
	<path class="st8" d="M362.7,103.7c0,0,0.2,25.9,1.5,33.8l32.5-1.6c0,0-2.9-25.5-1.8-32.3L362.7,103.7z"/>
	<path class="st6" d="M390.1,114.6c0,0.1-4.9,0.6-10.9,0.9s-10.9,0.5-10.9,0.4s4.9-0.6,10.9-0.9S390.1,114.4,390.1,114.6z"/>
	<path class="st6" d="M390.1,120.1c0,0.1-4.9,0.6-10.9,0.9s-10.9,0.5-10.9,0.4s4.9-0.6,10.9-0.9S390.1,120,390.1,120.1z"/>
	<path class="st6" d="M384.6,125.5c-2,0.4-4.1,0.6-6.2,0.6c-2.1,0.2-4.2,0.2-6.2,0.1c2-0.4,4.1-0.6,6.2-0.6
		C380.4,125.4,382.5,125.3,384.6,125.5z"/>
	<path class="st8" d="M416.9,109.4c0,0,0.2,25.9,1.5,33.8l32.6-1.5c0,0-2.9-25.5-1.8-32.3H416.9z"/>
	<path class="st6" d="M444.3,120.3c0,0.1-4.9,0.6-10.9,0.9s-10.9,0.5-10.9,0.4s4.9-0.6,10.9-0.9S444.3,120.2,444.3,120.3z"/>
	<path class="st6" d="M444.3,125.8c0,0.2-4.9,0.6-10.9,0.9s-10.9,0.5-10.9,0.4s4.9-0.6,10.9-0.9S444.3,125.7,444.3,125.8z"/>
	<path class="st6" d="M438.8,131.2c-2,0.4-4.1,0.6-6.2,0.6c-2.1,0.2-4.2,0.2-6.2,0.1c2-0.4,4.1-0.6,6.2-0.6
		C434.6,131.1,436.7,131.1,438.8,131.2z"/>
	<path class="st9" d="M453.2,110c0,0,0.2,25.9,1.5,33.8l32.5-1.5c0,0-2.9-25.5-1.8-32.3H453.2z"/>
	<path class="st6" d="M480.6,120.9c0,0.2-4.9,0.6-10.9,0.9s-10.9,0.5-10.9,0.4s4.9-0.6,10.9-0.9S480.6,120.8,480.6,120.9z"/>
	<path class="st6" d="M480.6,126.4c0,0.1-4.9,0.6-10.9,0.9s-10.9,0.5-10.9,0.4s4.9-0.6,10.9-0.9S480.6,126.2,480.6,126.4z"/>
	<path class="st6" d="M475.1,131.8c-2,0.4-4.1,0.6-6.2,0.6c-2.1,0.2-4.2,0.3-6.2,0.1c2-0.4,4.1-0.6,6.2-0.6
		C470.9,131.7,473,131.6,475.1,131.8z"/>
	<path class="st8" d="M493.3,111.2c0,0,0.2,25.9,1.5,33.8l32.5-1.5c0,0-2.9-25.5-1.8-32.3H493.3z"/>
	<path class="st6" d="M520.7,122.1c0,0.1-4.9,0.6-10.9,0.9s-10.9,0.5-10.9,0.4s4.9-0.6,10.9-0.9
		C515.8,122.1,520.7,121.9,520.7,122.1z"/>
	<path class="st6" d="M520.7,127.6c0,0.1-4.9,0.6-10.9,0.9s-10.9,0.6-10.9,0.4s4.9-0.6,10.9-0.9
		C515.8,127.6,520.7,127.4,520.7,127.6z"/>
	<path class="st6" d="M515.1,132.9c-2,0.4-4.1,0.6-6.2,0.6c-2.1,0.2-4.2,0.3-6.2,0.1C506.8,133.1,511,132.9,515.1,132.9z"/>
	<path class="st8" d="M540.9,109.8c0,0,0.2,25.9,1.5,33.8l32.6-1.5c0,0-2.8-25.5-1.8-32.3L540.9,109.8z"/>
	<path class="st6" d="M568.3,120.7c0,0.2-4.9,0.6-10.9,0.9s-10.9,0.5-10.9,0.4s4.9-0.6,10.9-0.9S568.3,120.6,568.3,120.7z"/>
	<path class="st6" d="M568.3,126.2c0,0.1-4.9,0.6-10.9,0.9s-10.9,0.5-10.9,0.4s4.9-0.6,10.9-0.9S568.3,126.1,568.3,126.2z"/>
	<path class="st6" d="M562.8,131.6c-2,0.4-4.1,0.6-6.2,0.6c-2.1,0.2-4.2,0.3-6.2,0.1c2-0.4,4.1-0.6,6.2-0.6
		C558.6,131.5,560.7,131.5,562.8,131.6z"/>
	<path class="st8" d="M544.8,152.1c0,0,0.2,25.9,1.5,33.8l32.5-1.5c0,0-2.8-25.5-1.8-32.3H544.8z"/>
	<path class="st6" d="M572.2,163c0,0.1-4.9,0.6-10.9,0.9s-10.9,0.5-10.9,0.4s4.9-0.6,10.9-0.9S572.2,162.8,572.2,163z"/>
	<path class="st6" d="M572.3,168.5c0,0.1-4.9,0.6-10.9,0.9s-10.9,0.5-10.9,0.4s4.9-0.6,10.9-0.9S572.3,168.3,572.3,168.5z"/>
	<path class="st6" d="M566.7,173.9c-4.1,0.6-8.3,0.8-12.4,0.8c2-0.4,4.1-0.6,6.2-0.6C562.6,173.8,564.7,173.7,566.7,173.9z"/>
	<path class="st9" d="M569.5,113.4c0,0,0.2,25.9,1.5,33.8l32.5-1.5c0,0-2.9-25.5-1.8-32.3H569.5z"/>
	<path class="st6" d="M596.9,124.3c0,0.1-4.9,0.6-10.9,0.9s-10.9,0.5-10.9,0.4s4.9-0.6,10.9-0.9S596.9,124.2,596.9,124.3z"/>
	<path class="st6" d="M596.9,129.8c0,0.1-4.9,0.6-10.9,0.9s-10.9,0.5-10.9,0.4s4.9-0.6,10.9-0.9S596.9,129.7,596.9,129.8z"/>
	<path class="st6" d="M591.3,135.2c-2,0.4-4.1,0.6-6.2,0.6c-2.1,0.2-4.2,0.2-6.2,0.1C583,135.4,587.2,135.1,591.3,135.2z"/>
	<path class="st10" d="M425.7,130.6c0,0,0.2,25.9,1.5,33.8l32.5-1.5c0,0-2.9-25.5-1.8-32.3H425.7z"/>
	<path class="st6" d="M453.1,141.5c0,0.1-4.9,0.6-10.9,0.9s-10.9,0.5-10.9,0.4s4.9-0.6,10.9-0.9S453.1,141.4,453.1,141.5z"/>
	<path class="st6" d="M453.1,147c0,0.1-4.9,0.6-10.9,0.9s-10.9,0.5-10.9,0.4s4.9-0.6,10.9-0.9S453.1,146.9,453.1,147z"/>
	<path class="st6" d="M447.6,152.4c-2,0.4-4.1,0.6-6.2,0.6c-2.1,0.2-4.2,0.3-6.2,0.1c2-0.4,4.1-0.6,6.2-0.6
		C443.4,152.3,445.5,152.3,447.6,152.4z"/>
	<path class="st8" d="M421.6,188.2c0,0,0.2,25.9,1.5,33.8l32.5-1.5c0,0-2.9-25.5-1.8-32.3H421.6z"/>
	<path class="st6" d="M449,199.1c0,0.1-4.9,0.6-10.9,0.9s-10.9,0.5-10.9,0.4s4.9-0.6,10.9-0.9S449,198.9,449,199.1z"/>
	<path class="st6" d="M449,204.6c0,0.1-4.9,0.6-10.9,0.9s-10.9,0.5-10.9,0.4s4.9-0.6,10.9-0.9S449,204.4,449,204.6z"/>
	<path class="st6" d="M443.5,209.9c-2,0.4-4.1,0.6-6.2,0.6c-2.1,0.2-4.2,0.2-6.2,0.1c2-0.4,4.1-0.6,6.2-0.6
		C439.3,209.8,441.4,209.8,443.5,209.9z"/>
	<path class="st3" d="M319.7,131.9c0,0,2.6,24-0.8,37.2l-32.1-1.4c0,0,6.9-23.7,2.7-34.2L319.7,131.9z"/>
	<path class="st9" d="M286.6,127.8c0,0-2,27.2-3.8,32.7l29.2,3.1l4.4-4.2c0,0,3.1-24,2.7-30.8L286.6,127.8z"/>
	<polygon class="st7" points="312.8,159.2 312.1,163.6 316.5,159.4 	"/>
	<path class="st6" d="M313.1,141.5c-1.1-0.1-2.2-0.2-3.3-0.4L302,140l-7.9-1c-1.1-0.1-2.2-0.2-3.3-0.5c1.1-0.1,2.2,0,3.3,0.1
		c2,0.1,4.8,0.4,7.9,0.8s5.9,0.9,7.9,1.3C311,140.9,312.1,141.2,313.1,141.5z"/>
	<path class="st6" d="M311.8,147.5c-1.1,0.1-2.1,0-3.2-0.1c-1.9-0.1-4.6-0.4-7.6-0.8s-5.6-0.8-7.5-1.1c-1-0.1-2.1-0.4-3.1-0.7
		c1.1,0,2.1,0.1,3.1,0.3l7.5,1l7.6,0.9C309.7,147.1,310.8,147.3,311.8,147.5z"/>
	<path class="st6" d="M310,153.1c-3.3-0.2-6.6-0.5-9.8-1.1c-3.3-0.4-6.5-0.9-9.8-1.6c3.3,0.2,6.6,0.5,9.8,1.1
		C303.5,151.8,306.8,152.4,310,153.1z"/>
	<path class="st10" d="M217.1,160.6c0,0-2,27.2-3.8,32.7l29.2,3.1l4.4-4.2c0,0,3.1-24,2.7-30.8L217.1,160.6z"/>
	<polygon class="st7" points="243.2,192 242.6,196.4 247,192.2 	"/>
	<path class="st6" d="M243.6,174.4c-1.1,0-2.2-0.2-3.3-0.4l-7.9-1.1l-7.9-1c-1.1-0.1-2.2-0.2-3.3-0.5c1.1-0.1,2.2,0,3.3,0.1
		c2,0.1,4.8,0.4,7.9,0.8s5.9,0.9,7.9,1.3C241.5,173.7,242.5,174,243.6,174.4z"/>
	<path class="st6" d="M242.3,180.4c-1.1,0.1-2.1,0-3.2-0.1c-1.9-0.1-4.6-0.4-7.6-0.8s-5.6-0.8-7.5-1.1c-1-0.1-2.1-0.4-3.1-0.7
		c1.1,0,2.1,0.1,3.1,0.3l7.6,1l7.6,0.9C240.2,180,241.3,180.1,242.3,180.4z"/>
	<path class="st6" d="M240.5,185.9c-3.3-0.2-6.6-0.5-9.8-1c-3.3-0.4-6.5-0.9-9.8-1.6c3.3,0.2,6.6,0.5,9.8,1.1
		C234,184.7,237.3,185.2,240.5,185.9z"/>
	<rect x="162" y="109" class="st8" width="24.4" height="5.6"/>
	<rect x="162" y="242.3" class="st7" width="24.4" height="5.6"/>
	<rect x="162" y="287.4" class="st7" width="24.4" height="5.6"/>
	<rect x="255.2" y="76.1" class="st1" width="84.3" height="5.6"/>
	<rect x="423.1" y="76.1" class="st1" width="84.3" height="5.6"/>
	<rect x="548.3" y="76.1" class="st1" width="40.3" height="5.6"/>
	<path class="st7" d="M599.3,100c0,0.2-98.8,0.3-220.7,0.3s-220.8-0.1-220.8-0.3s98.8-0.3,220.7-0.3S599.3,99.8,599.3,100z"/>
	<path class="st7" d="M599.3,232.7c0,0.1-98.8,0.3-220.7,0.3s-220.8-0.1-220.8-0.3s98.8-0.3,220.8-0.3S599.3,232.5,599.3,232.7z"/>
	<path class="st7" d="M599.3,323.8c0,0.1-98.8,0.3-220.7,0.3s-220.8-0.1-220.8-0.3s98.8-0.3,220.8-0.3S599.3,323.6,599.3,323.8z"/>
	<path class="st7" d="M599.3,279.4c0,0.1-98.8,0.3-220.7,0.3s-220.8-0.1-220.8-0.3s98.8-0.3,220.8-0.3S599.3,279.2,599.3,279.4z"/>
	<path class="st7" d="M195.2,325c-0.1,0-0.3-56.4-0.3-125.9s0.1-126,0.3-126s0.3,56.4,0.3,126S195.4,325,195.2,325z"/>
	<path class="st7" d="M399.2,326.3c-0.1,0-0.3-56.3-0.3-125.8s0.1-125.8,0.3-125.8s0.3,56.3,0.3,125.8S399.3,326.3,399.2,326.3z"/>
	<path class="st7" d="M531.3,327.6c-0.1,0-0.3-56.3-0.3-125.8S531.1,76,531.3,76s0.3,56.3,0.3,125.8S531.4,327.6,531.3,327.6z"/>
	<path class="st7" d="M450.1,182.6l0.4,0.1l1.2,0.5c1.4,0.7,2.8,1.5,4.1,2.5c2,1.5,3.8,3.4,5.2,5.5c0.9,1.3,1.7,2.7,2.3,4.2
		c0.7,1.6,1.2,3.3,1.5,5.1c0.7,4,0.3,8.2-1.1,12.1c-1.6,4.4-4.3,8.4-7.9,11.4c-4,3.3-9,5.3-14.2,5.7c-5.6,0.5-11.2-0.7-16.1-3.4
		c-4.9-2.8-8.7-7-11.1-12.1c-2.3-4.7-2.9-10.1-1.8-15.2c1-4.6,3.3-8.8,6.7-12.1c1.5-1.5,3.3-2.7,5.2-3.7c1.7-0.9,3.6-1.6,5.5-2
		c3.3-0.7,6.7-0.9,10-0.6c2.5,0.2,5,0.5,7.5,1c2,0.4,3.6,0.8,4.7,1l1.2,0.3c0.1,0,0.3,0.1,0.4,0.1l-0.4-0.1l-1.2-0.2
		c-1.1-0.2-2.6-0.6-4.7-0.9c-2.5-0.5-5-0.8-7.5-0.9c-3.3-0.3-6.7,0-9.9,0.7c-1.9,0.4-3.7,1.1-5.4,1.9c-1.9,0.9-3.6,2.2-5.1,3.6
		c-3.3,3.2-5.6,7.4-6.6,12c-1,5-0.4,10.2,1.8,14.9c2.3,5,6.1,9.1,10.9,11.9c4.8,2.7,10.3,3.9,15.8,3.4c5.1-0.4,10-2.3,13.9-5.6
		c3.6-3,6.3-6.8,7.8-11.2c1.4-3.8,1.8-7.9,1.1-11.8c-0.3-1.7-0.8-3.4-1.5-5c-0.6-1.4-1.4-2.8-2.2-4.1c-1.4-2.1-3.1-4-5-5.5
		c-1.2-1-2.6-1.9-4-2.6l-1.1-0.5C450.4,182.8,450.3,182.7,450.1,182.6z"/>
	<path class="st7" d="M460.7,185.7c-0.1-0.1,3.9-3.4,8.9-7.4s9.2-7.1,9.3-7s-3.9,3.4-8.9,7.4S460.8,185.9,460.7,185.7z"/>
	<path class="st7" d="M476.5,186.4c-0.4,0.1-0.8,0.2-1.3,0.2l-3.5,0.3c-3,0.2-7.1,0.5-11.7,0.8h-0.4l0.1-0.4c0-0.1,0.1-0.3,0.1-0.4
		c1.2-3.8,2.9-7.5,5-10.9c0.8-1.3,1.6-2.3,2.1-3c0.3-0.4,0.6-0.7,0.9-1c-0.2,0.4-0.4,0.8-0.7,1.1c-0.5,0.7-1.2,1.7-2,3.1
		c-2,3.4-3.7,7.1-4.9,10.9l-0.1,0.4l-0.3-0.3c4.6-0.3,8.7-0.5,11.7-0.7l3.5-0.1C475.6,186.3,476,186.3,476.5,186.4z"/>
	<path class="st7" d="M589,248.8c0.2-0.7,0.5-1.4,0.9-2.1c6.3-15,2.2-32.4-10.2-43c-1.6-1.4-3.2-2.6-5-3.7c-1.2-0.8-2-1.2-2-1.2
		c0.2,0.1,0.4,0.1,0.5,0.2c0.3,0.2,0.9,0.4,1.5,0.8c1.8,1,3.5,2.2,5.1,3.6c2.4,2,4.5,4.3,6.3,6.8c2.2,3.1,4,6.5,5.2,10.1
		c2.1,6.6,2.4,13.7,0.7,20.5c-0.5,2-1.2,4-2,5.9c-0.3,0.7-0.6,1.2-0.8,1.5C589.2,248.4,589.1,248.6,589,248.8z"/>
	<path class="st7" d="M598.2,243.1c-0.8,0.8-1.7,1.6-2.6,2.3l-3,2.4l-1.8,1.4c-0.6,0.6-1.4,1-2.3,1.1c-0.5,0-0.9-0.3-1.2-0.8
		c-0.2-0.4-0.3-0.8-0.4-1.2c-0.2-0.8-0.4-1.5-0.5-2.2c-0.3-1.4-0.6-2.6-0.9-3.7c-0.3-1.1-0.6-2.3-0.7-3.4c0.4,1.1,0.8,2.2,1.1,3.3
		c0.3,1.1,0.7,2.3,1,3.7c0.2,0.7,0.4,1.4,0.6,2.2s0.4,1.6,1.1,1.6c0.7-0.1,1.4-0.5,1.9-1l1.8-1.4l3-2.3
		C596.2,244.4,597.2,243.7,598.2,243.1z"/>
	<path class="st7" d="M343.3,182.3c0,0.1-9.9,2.8-22.3,5.9s-22.4,5.6-22.4,5.4s9.9-2.8,22.3-5.9S343.3,182.2,343.3,182.3z"/>
	<path class="st7" d="M349.8,187.6c0,0.1-10.9,3.3-24.5,7.1s-24.6,6.7-24.6,6.6s10.9-3.3,24.5-7.1S349.8,187.5,349.8,187.6z"/>
	<path class="st7" d="M353.7,196.4c0,0.1-10.5,2.8-23.4,5.9s-23.5,5.5-23.5,5.4s10.5-2.8,23.4-5.9S353.7,196.2,353.7,196.4z"/>
	<polygon class="st3" points="298.3,288 306.3,330 385.7,314.9 371.9,274 	"/>
	
		<rect x="299.5" y="280.8" transform="matrix(0.9825 -0.186 0.186 0.9825 -49.8619 68.0659)" class="st6" width="76.6" height="37.9"/>
	<path class="st7" d="M378.9,311.2c0,0-0.1-0.2-0.1-0.7s-0.2-1.1-0.4-1.9c-0.3-1.7-0.8-4.2-1.5-7.4c-1.2-6.4-3-15.7-5.2-27.1
		l0.2,0.1l-75.2,14.3l0,0l0.2-0.3c2.5,13.1,4.9,25.7,7,37.2l-0.3-0.2l54-10.1l15.6-2.9l4.2-0.8l1.1-0.2L378.9,311.2
		c-0.2,0-0.3,0.1-0.4,0.1l-1,0.2l-4.1,0.8l-15.5,3l-54.1,10.4h-0.2v-0.2c-2.2-11.5-4.6-24.1-7.1-37.2l0-0.2l0.3,0l0,0l75.2-14.2h0.2
		v0.2l5.1,27.3c0.6,3.2,1,5.7,1.4,7.4c0.1,0.8,0.3,1.5,0.3,1.9S378.9,311.2,378.9,311.2z"/>
	
		<rect x="307.5" y="292.9" transform="matrix(0.9825 -0.186 0.186 0.9825 -50.9034 64.4625)" class="st6" width="21.2" height="21.2"/>
	<path class="st7" d="M330.4,311.9c0-0.1-0.1-0.3-0.1-0.4c-0.1-0.3-0.1-0.7-0.2-1.1c-0.2-1-0.5-2.5-0.9-4.2c-0.7-3.7-1.7-8.8-3-15
		l0.3,0.2l-20.8,4c0,0.1,0.4-0.6,0.2-0.3l0,0v0.1v0.1v0.2l0.1,0.4l0.1,0.7l0.3,1.4c0.2,0.9,0.4,1.9,0.5,2.8c0.4,1.8,0.7,3.6,1,5.4
		c0.6,3.5,1.3,6.8,1.8,9.8l-0.3-0.2l15-2.7l4.3-0.8l1.3-0.2C330.1,312,330.3,312,330.4,311.9c-0.1,0.1-0.3,0.1-0.4,0.1l-1.1,0.2
		l-4.2,0.9l-15.1,3h-0.2v-0.2l-1.9-9.8c-0.3-1.7-0.7-3.5-1-5.4c-0.2-0.9-0.4-1.9-0.5-2.8l-0.3-1.4l-0.1-0.7l-0.1-0.4v-0.2v-0.1l0,0
		l0.2-0.3l20.8-3.9h0.2v0.2c1.1,6.2,2.1,11.5,2.8,15.2c0.3,1.8,0.6,3.2,0.7,4.2c0.1,0.5,0.1,0.8,0.2,1.1
		C330.5,311.7,330.5,311.8,330.4,311.9z"/>
	<path class="st7" d="M330.4,311.9c0,0-0.1-0.5-0.4-1.5c-0.4-1.3-1.1-2.6-2.2-3.5l0,0c-0.7-0.7-1.6-1.2-2.6-1.6
		c-1.1-0.4-2.3-0.5-3.5-0.4h-0.5l0.2-0.4c0.9-1.5,1-3.4,0.2-5c-0.4-0.9-1-1.6-1.8-2.1c-0.9-0.5-1.8-0.7-2.8-0.6
		c-1.1,0-2.2,0.4-3.1,1.1c-0.8,0.7-1.4,1.6-1.6,2.6c-0.4,1.9,0.2,3.9,1.7,5.2l0.2,0.2l-0.3,0.2c-1.3,0.8-2.4,1.9-3.1,3.2
		c-0.6,1-1,2.1-1.2,3.3c-0.1,1-0.2,2-0.1,3.1c-0.1-0.3-0.1-0.5-0.2-0.8c-0.1-0.8-0.1-1.5,0-2.3c0.2-1.2,0.5-2.4,1.1-3.4
		c0.8-1.4,1.9-2.6,3.2-3.4v0.4c-1.6-1.4-2.4-3.6-1.9-5.6c0.2-1.2,0.9-2.2,1.8-2.9c1-0.8,2.1-1.2,3.4-1.2c1.1-0.1,2.2,0.2,3.1,0.7
		c0.9,0.6,1.6,1.4,2,2.3c0.8,1.7,0.7,3.8-0.3,5.4l-0.2-0.4c1.2-0.1,2.5,0,3.7,0.5c1,0.4,1.9,1,2.7,1.7l0,0c1.1,1,1.9,2.3,2.2,3.7
		c0.1,0.4,0.2,0.8,0.2,1.1C330.5,311.8,330.5,311.9,330.4,311.9z"/>
	<path class="st6" d="M334.4,290.4l18-3.4"/>
	<path class="st7" d="M352.5,287c-3,0.8-6,1.5-9,2c-3,0.7-6,1.1-9.1,1.5c3-0.8,6-1.5,9-2C346.4,287.8,349.4,287.3,352.5,287z"/>
	<path class="st6" d="M335.2,294.6l3.6-0.7"/>
	<path class="st7" d="M338.9,293.9c0,0.1-0.8,0.4-1.8,0.6s-1.9,0.2-1.9,0.1s0.8-0.4,1.8-0.6S338.9,293.8,338.9,293.9z"/>
	<path class="st7" d="M368.9,295.8c0,0.1-7.2,1.6-16.1,3.3s-16.1,2.9-16.2,2.8s7.2-1.6,16.1-3.3S368.8,295.6,368.9,295.8z"/>
	<path class="st7" d="M369.7,299.4c0,0.1-7.2,1.6-16.2,3.3s-16.2,3-16.3,2.8s7.2-1.6,16.2-3.3S369.7,299.2,369.7,299.4z"/>
	<path class="st7" d="M370,303.7c-0.4,0.2-0.8,0.3-1.2,0.3l-3.4,0.7c-2.9,0.6-6.9,1.4-11.2,2.2s-8.4,1.6-11.3,2.1l-3.4,0.6
		c-0.4,0.1-0.8,0.1-1.3,0.1c0.4-0.2,0.8-0.3,1.2-0.3l3.4-0.7c2.9-0.6,6.9-1.4,11.3-2.2s8.4-1.6,11.3-2.1l3.4-0.6
		C369.1,303.7,369.6,303.7,370,303.7z"/>
	<path class="st8" d="M337.2,286.3c0.1,0,0.1-0.1,0.2-0.1l0.6-0.3c0.8-0.4,1.6-0.7,2.4-1c3.1-1,6.4-1.3,9.6-0.9
		c2.2,0.3,4.4,0.9,6.4,1.8c1.1,0.6,2.1,1.3,3,2.3c0.9,1.1,1.2,2.5,0.9,3.9c-0.4,1.4-1.3,2.6-2.5,3.4c-1.2,0.9-2.4,1.6-3.7,2.2
		c-2.7,1.3-5.6,2.3-8.6,2.9c-3,0.6-6.1,0.6-9.1-0.1c-1.4-0.3-2.8-0.9-4-1.7c-1.2-0.7-2.2-1.9-2.7-3.2c-0.5-1.3-0.3-2.8,0.4-4
		c0.7-1.1,1.5-2,2.5-2.8c1.8-1.3,3.8-2.4,5.9-3.2c3-1.1,6.2-1.7,9.5-1.7c0.9,0,1.7,0.1,2.6,0.2l0.7,0.1l0.2,0.1h-0.2l-0.7-0.1
		c-0.6,0-1.5-0.1-2.6-0.1c-3.2,0-6.3,0.7-9.3,1.8c-2,0.8-4,1.9-5.7,3.2c-1,0.7-1.8,1.6-2.4,2.6c-0.7,1.1-0.8,2.4-0.4,3.6
		c0.5,1.2,1.4,2.3,2.6,2.9c1.2,0.7,2.5,1.3,3.9,1.6c2.9,0.7,5.9,0.7,8.8,0.1c2.9-0.6,5.8-1.6,8.5-2.9c1.3-0.6,2.5-1.3,3.6-2.1
		c1.1-0.8,1.9-1.9,2.3-3.1c0.3-1.2,0-2.5-0.8-3.5c-0.8-0.9-1.7-1.7-2.8-2.2c-2-1-4.1-1.6-6.3-1.9c-3.2-0.4-6.4-0.2-9.4,0.7
		c-0.9,0.3-1.7,0.6-2.5,1l-0.6,0.3C337.3,286.3,337.2,286.3,337.2,286.3z"/>
	<path class="st8" d="M358.8,285.8c1.7-1.7,3.5-3.3,5.4-4.7c1.8-1.6,3.7-3,5.7-4.3c-1.7,1.7-3.5,3.3-5.4,4.7
		C362.6,283.1,360.7,284.5,358.8,285.8z"/>
	<path class="st8" d="M365.5,284.9c-2,0.7-4.1,1.2-6.2,1.5l-0.8,0.1l-0.4,0.1l0.1-0.4c0.4-1.9,1.1-3.6,2.3-5.2
		c0.1,0.1-1,2.2-1.8,5.3l-0.3-0.3l0.8-0.1C361.2,285.4,363.4,285,365.5,284.9z"/>
	<path class="st8" d="M354.3,289.4c-3.3,0.8-6.6,1.4-9.9,1.8c-3.3,0.6-6.6,1-10,1.3c3.3-0.8,6.6-1.4,9.9-1.8
		C347.6,290.1,350.9,289.7,354.3,289.4z"/>
	<path class="st8" d="M331.7,281.4c0.5,2.5-1.2,4.9-3.7,5.4s-4.9-1.2-5.4-3.7c-0.5-2.5,1.2-4.9,3.7-5.4
		C328.8,277.3,331.3,278.9,331.7,281.4C331.7,281.4,331.7,281.4,331.7,281.4z"/>
	<path class="st7" d="M327.2,286.9c-2.6,0-4.6-2.1-4.6-4.6c0-0.9,0.3-1.8,0.8-2.6c0.7-1.1,1.8-1.8,3-2c0.3-0.1,0.6-0.1,0.9-0.1
		c2.2,0,4.1,1.6,4.6,3.8l0,0c0.5,2.5-1.2,4.9-3.7,5.4C327.8,286.9,327.5,286.9,327.2,286.9z M327.2,277.7c-0.3,0-0.6,0-0.9,0.1
		c-2.5,0.5-4.1,2.9-3.6,5.4c0.5,2.5,2.9,4.1,5.4,3.6c2.5-0.5,4.1-2.9,3.7-5.4l0,0C331.3,279.3,329.4,277.7,327.2,277.7L327.2,277.7z
		"/>
</g>
<g id="freepik--Plants--inject-40">
	<path class="st9" d="M83.5,353.8c-7.7-11.7-7.4-28.9,1.8-39.5c2.8-3.3,6.8-6.1,11.2-5.8s8,4.2,9.4,8.4s0.9,8.9,0.1,13.2
		c-1.1,6.1-3,12.4-7.2,17S89,356.8,83.5,353.8"/>
	<path class="st9" d="M86.9,409.9c-2.8-7-0.8-15,4.9-19.9c1.8-1.4,4.1-2.5,6.3-2s3.8,2.9,4.1,5.2c0.2,2.3-0.2,4.7-1.1,6.8
		c-1.1,3.1-2.7,6.1-5.3,8.1S89.5,411.9,86.9,409.9"/>
	<path class="st9" d="M68.4,405.9c1.9-10.7-3.2-21.5-12.8-26.8c-2.9-1.5-6.5-2.4-9.5-1s-4.5,5.2-4.2,8.6s1.8,6.5,3.6,9.3
		c2.5,4,5.6,7.9,9.8,9.9S65.4,409.5,68.4,405.9"/>
	<path class="st9" d="M69.7,377.7c3.7-11.9-2.6-26.2-12.9-33c-3.2-2.1-7.3-3.6-10.9-2.2s-5.8,5.5-5.9,9.4s1.4,7.8,3.2,11.3
		c2.4,5,5.5,9.8,10.3,12.7S65.8,381.6,69.7,377.7"/>
	<path class="st7" d="M77.1,435.7c-0.1-0.2-0.1-0.4-0.1-0.6c-0.1-0.4-0.1-1-0.2-1.7c-0.1-0.4-0.1-0.8-0.2-1.2s-0.2-0.9-0.3-1.4
		c-0.2-1-0.4-2.2-0.7-3.4c-0.2-0.6-0.3-1.3-0.5-2s-0.4-1.4-0.6-2.1c-0.4-1.5-1-3-1.5-4.6c-1.3-3.5-2.8-6.9-4.6-10.1
		c-1.8-3.3-3.8-6.4-5.9-9.4c-1-1.4-2-2.7-3-3.8l-1.4-1.7l-1.4-1.5c-0.9-1-1.7-1.8-2.5-2.5l-1-1l-0.9-0.8l-1.3-1.1
		c-0.3-0.3-0.4-0.4-0.4-0.4c0.2,0.1,0.3,0.2,0.5,0.3l1.3,1l0.9,0.8l1.1,1c0.8,0.7,1.6,1.5,2.5,2.5l1.4,1.5l1.5,1.6
		c1,1.1,2,2.5,3.1,3.8c2.2,3,4.2,6.2,6,9.5c1.7,3.3,3.3,6.7,4.6,10.2c0.5,1.6,1.1,3.2,1.5,4.7c0.2,0.7,0.4,1.5,0.6,2.1
		s0.3,1.4,0.4,2c0.3,1.3,0.5,2.4,0.7,3.5c0.1,0.5,0.2,1,0.2,1.4s0.1,0.8,0.1,1.2c0.1,0.7,0.1,1.2,0.2,1.7
		C77.1,435.2,77.1,435.5,77.1,435.7z"/>
	<path class="st7" d="M76.8,437.8c0-0.1,0-0.2,0-0.2c0-0.2,0-0.4,0-0.7c0.1-0.7,0.1-1.5,0.2-2.6c0.1-0.6,0.1-1.2,0.2-1.9
		s0.1-1.5,0.1-2.3c0.1-1.6,0.2-3.5,0.2-5.5c0-1,0-2.1,0-3.2s-0.1-2.3-0.2-3.5c-0.1-2.4-0.4-5-0.7-7.7c-0.8-5.8-2-11.6-3.6-17.2
		c-1.7-5.6-3.8-11.1-6.3-16.4c-1.2-2.4-2.3-4.7-3.6-6.8c-0.6-1-1.2-2.1-1.8-3l-1.7-2.7c-1.1-1.8-2.2-3.2-3.2-4.5
		c-0.5-0.7-0.9-1.3-1.3-1.8l-1.1-1.5l-1.7-2.1l-0.4-0.5c-0.1-0.1-0.1-0.1-0.1-0.2c0,0,0.1,0,0.2,0.2l0.5,0.5l1.7,2l1.2,1.5
		c0.4,0.5,0.9,1.2,1.4,1.8c1,1.3,2.1,2.8,3.2,4.5l1.8,2.7c0.6,0.9,1.2,2,1.8,3c1.3,2.1,2.4,4.4,3.6,6.8c2.6,5.3,4.7,10.8,6.4,16.5
		c1.6,5.7,2.8,11.5,3.6,17.3c0.3,2.7,0.6,5.3,0.7,7.7c0.1,1.2,0.2,2.4,0.2,3.5s0,2.2,0,3.2c0,2.1-0.2,3.9-0.2,5.5
		c-0.1,0.8-0.1,1.6-0.2,2.3s-0.2,1.3-0.2,1.9c-0.1,1.1-0.3,2-0.3,2.6c0,0.3-0.1,0.5-0.1,0.7S76.8,437.8,76.8,437.8z"/>
	<path class="st7" d="M96.8,322.7c0,0,0,0.1-0.1,0.2l-0.3,0.6l-1.3,2.4c-0.3,0.5-0.6,1.1-1,1.7l-1,2.1l-1.2,2.4
		c-0.4,0.9-0.8,1.8-1.2,2.7s-0.9,1.9-1.3,3l-1.3,3.3c-0.2,0.6-0.4,1.1-0.7,1.7s-0.4,1.2-0.6,1.8c-0.4,1.2-0.8,2.5-1.3,3.8
		c-1.6,5.3-3.2,11.1-4.5,17.3s-2.2,12.2-2.8,17.7s-1,10.4-1.1,14.6c-0.1,2.1-0.1,4-0.1,5.6s0,3.1,0,4.2s0,2,0,2.7v0.7
		c0,0.1,0,0.2,0,0.2c0-0.1,0-0.2,0-0.2c0-0.2,0-0.4,0-0.7c0-0.7-0.1-1.5-0.1-2.7s-0.1-2.6-0.1-4.2s0-3.5,0.1-5.6
		c0.1-4.2,0.4-9.1,1-14.6s1.5-11.5,2.8-17.7s2.9-12.1,4.5-17.4c0.4-1.3,0.9-2.6,1.3-3.8c0.2-0.6,0.4-1.2,0.6-1.8l0.7-1.7l1.3-3.3
		c0.4-1.1,0.9-2,1.3-3s0.8-1.9,1.2-2.7l1.2-2.4c0.4-0.7,0.7-1.4,1.1-2s0.7-1.2,1-1.7l1.4-2.3l0.4-0.6
		C96.8,322.7,96.8,322.6,96.8,322.7z"/>
	<path class="st7" d="M94.2,394.7c-0.2,0.5-0.5,1-0.8,1.4c-0.6,0.9-1.3,2.2-2.2,3.9s-1.9,3.7-2.9,6s-2,4.9-2.8,7.6s-1.5,5.4-2,7.9
		s-0.8,4.7-1,6.6s-0.3,3.4-0.3,4.5c0,0.5,0,1.1-0.1,1.6c-0.1-0.5-0.1-1.1-0.1-1.6c0-1.1,0-2.6,0.2-4.5c0.2-2.2,0.5-4.4,0.9-6.6
		c0.5-2.7,1.2-5.4,2.1-8c0.8-2.6,1.8-5.2,2.9-7.6c0.9-2,1.9-4,3-6c1-1.6,1.8-3,2.4-3.8C93.5,395.5,93.9,395.1,94.2,394.7z"/>
	<polygon class="st10" points="62,430.4 95.8,430.4 91.7,464.8 66.2,464.8 	"/>
	<polygon class="st7" points="63.3,461.1 66.1,464.8 91.7,464.8 94.6,461.2 	"/>
	<path class="st4" d="M94.4,440.5c0,0.1-7,0.3-15.6,0.3s-15.6-0.1-15.6-0.3s7-0.2,15.6-0.2S94.4,440.4,94.4,440.5z"/>
	<path class="st4" d="M94.4,442.8c0,0.1-7,0.2-15.6,0.2s-15.6-0.1-15.6-0.2s7-0.2,15.6-0.2S94.4,442.7,94.4,442.8z"/>
	<path class="st4" d="M94,445c0,0.1-6.8,0.2-15.1,0.2s-15.1-0.1-15.1-0.2s6.8-0.3,15.1-0.3S94,444.9,94,445z"/>
	<path class="st7" d="M67.2,356.2c0,0.1,0,0.2,0,0.3c0,0.3,0,0.6-0.1,0.9c-0.1,0.9-0.2,2-0.3,3.4c-0.3,2.9-0.8,6.9-1.3,11.3
		c0,0.2,0,0.3-0.1,0.5v0.1h-0.2c-4.3,0.1-8.2,0.1-11,0.1H50c-0.1,0-0.2,0-0.3,0c0.1,0,0.2,0,0.3,0l0.9,0l3.3-0.1
		c2.8-0.1,6.7-0.2,11-0.2l-0.2,0.1c0-0.1,0-0.3,0.1-0.5c0.5-4.4,1-8.4,1.4-11.3c0.2-1.4,0.3-2.6,0.5-3.4c0-0.4,0.1-0.7,0.1-0.9
		C67.1,356.5,67.1,356.3,67.2,356.2z"/>
	<path class="st7" d="M59.5,345.9c0,0.1,0,0.2,0,0.3c0,0.3,0,0.6,0,1c0,0.9,0,2.1,0,3.6c0,3-0.1,7.1-0.2,11.7c0,0.2,0,0.4,0,0.5v0.2
		h-0.2c-3.8-0.3-7.6-0.4-11.3-0.3c-1.4,0-2.6,0.1-3.4,0.1h-0.9h-0.3c0.1,0,0.2-0.1,0.3-0.1l0.9-0.1c0.8-0.1,2-0.2,3.4-0.2
		c3.8-0.2,7.6-0.1,11.4,0.1l-0.2,0.2c0-0.2,0-0.4,0-0.5c0.1-4.6,0.2-8.7,0.3-11.7c0.1-1.5,0.1-2.7,0.1-3.5c0-0.4,0-0.7,0-1
		C59.4,346.1,59.5,346,59.5,345.9z"/>
	<path class="st7" d="M50.6,342.4c0.1,0.3,0.2,0.7,0.2,1c0.1,0.7,0.3,1.6,0.5,2.7c0.4,2.3,1.1,5.4,2.1,8.9l0.1,0.4l-0.3-0.2
		l-0.4-0.2c-2.8-1.4-5.9-2.2-9-2.6c-1.2-0.1-2.2-0.2-2.8-0.2c-0.3,0-0.7,0-1,0c0,0,0.1,0,0.3,0s0.4,0,0.8,0c1,0,1.9,0,2.9,0.1
		c3.2,0.3,6.2,1.2,9.1,2.6l0.4,0.2l-0.2,0.2c-0.8-2.9-1.5-5.9-2-9c-0.2-1.1-0.3-2.1-0.4-2.7C50.6,343.1,50.5,342.8,50.6,342.4z"/>
	<path class="st7" d="M98.2,405.1c0,0.1-1,0-2.5-0.1c-2-0.1-4.1,0-6.1,0.2c-0.5,0-1,0.1-1.4,0.2h-0.2v-0.2c-0.4-2-0.7-3.8-0.9-5.1
		c-0.1-0.7-0.2-1.4-0.3-2.1c0.2,0.7,0.4,1.3,0.5,2c0.3,1.3,0.6,3.1,1,5.1l-0.2-0.1c0.4-0.1,0.9-0.1,1.4-0.2c2.1-0.2,4.1-0.2,6.2-0.1
		c0.8,0.1,1.4,0.1,1.9,0.2C97.7,405,97.9,405,98.2,405.1z"/>
	<path class="st7" d="M101.3,398.8c0,0-1-0.2-2.5-0.4c-2-0.2-4-0.3-6-0.1l-1.1,0.1h-0.2v-0.2c-0.2-2.1-0.4-4-0.5-5.3
		c-0.1-0.7-0.2-1.4-0.2-2.1c0.2,0.7,0.3,1.4,0.3,2.1c0.2,1.3,0.4,3.2,0.6,5.3l-0.2-0.1c0.3,0,0.7-0.1,1.1-0.1c2-0.2,4-0.2,6.1,0.2
		c0.6,0.1,1.2,0.2,1.8,0.4C100.9,398.7,101.1,398.7,101.3,398.8z"/>
	<path class="st7" d="M103.6,338.9c-0.1,0.1-0.2,0.1-0.3,0.2l-1,0.4l-3.6,1.5l-12.1,5l-0.7,0.3l-0.2,0.1l-0.1-0.2l-5.1-11.5
		l-1.5-3.5l-0.4-1c-0.1-0.1-0.1-0.2-0.1-0.3c0.1,0.1,0.1,0.2,0.2,0.3c0.1,0.2,0.3,0.5,0.4,0.9c0.4,0.9,0.9,2,1.6,3.4l5.2,11.5
		l-0.2-0.1l0.7-0.3l12.1-4.9l3.7-1.5l1-0.4L103.6,338.9z"/>
	<path class="st7" d="M106.6,324.3c0,0-0.1,0.1-0.3,0.2l-0.9,0.6l-3.3,2l-11,6.7L91,334l-0.1-0.2c-0.1-0.2-0.1-0.4-0.2-0.5
		l-4.6-12.4c-0.6-1.6-1-2.8-1.4-3.8l-0.3-1c-0.1-0.2-0.1-0.4-0.1-0.4c0.1,0.1,0.1,0.2,0.2,0.3c0.1,0.3,0.2,0.6,0.4,1
		c0.4,0.9,0.9,2.2,1.5,3.7c1.2,3.2,2.9,7.6,4.7,12.4l0.2,0.5l-0.2-0.1l11-6.6l3.3-2l0.9-0.5L106.6,324.3z"/>
	<path class="st7" d="M105.6,316.6c-0.2,0.2-0.5,0.3-0.7,0.4c-0.5,0.3-1.2,0.6-2,1.2c-2.2,1.4-4.3,3-6.1,4.8l-0.4,0.4l0.1-0.6
		c0.2-0.6,0.3-1.2,0.4-1.9c0.5-3,0.3-6.1-0.5-9c-0.2-0.9-0.5-1.8-0.9-2.6c-0.1-0.3-0.3-0.6-0.4-1c0.2,0.3,0.4,0.6,0.5,0.9
		c0.4,0.8,0.7,1.7,1,2.6c0.9,3,1.1,6.1,0.6,9.1c-0.1,0.7-0.2,1.3-0.4,1.9l-0.3-0.2c1.9-1.8,4-3.4,6.2-4.7c0.8-0.5,1.6-0.9,2-1.1
		C105.1,316.7,105.3,316.6,105.6,316.6z"/>
	<path class="st7" d="M67.2,392.1c0,0.3-0.1,0.6-0.2,0.9c-0.1,0.5-0.3,1.4-0.5,2.4c-0.5,2.6-0.8,5.3-0.9,8v0.1h-0.2l-0.8,0
		c-3.3,0.2-6.4,0.4-8.6,0.5l-2.6,0.1c-0.3,0-0.6,0-1,0c0.3-0.1,0.6-0.1,1-0.1l2.6-0.2c2.2-0.2,5.2-0.4,8.6-0.6l0.8,0l-0.2,0.2
		c0.1-2.7,0.5-5.4,1-8c0.2-1,0.4-1.8,0.6-2.4C66.9,392.7,67,392.4,67.2,392.1z"/>
	<path class="st7" d="M60.5,382.6c0,0.3,0,0.6,0,0.9c-0.1,0.6-0.2,1.4-0.3,2.4c-0.2,2-0.6,4.9-1,8v0.1H59l-1.1,0.1
		c-3.4,0.2-6.5,0.6-8.8,0.9l-2.6,0.4c-0.3,0.1-0.7,0.1-1,0.1c0.3-0.1,0.6-0.2,1-0.2c0.6-0.1,1.5-0.3,2.6-0.5c2.2-0.4,5.3-0.7,8.8-1
		l1.1-0.1l-0.2,0.1c0.4-3.2,0.8-6,1.2-8c0.2-1,0.3-1.8,0.4-2.4C60.4,383.2,60.4,382.9,60.5,382.6z"/>
	<path class="st7" d="M52.7,378.5c0,0-0.2,0.9-0.4,2.4c-0.3,2-0.5,4-0.5,6v0.2h-0.2L51,387c-2.1-0.3-4.2-0.4-6.4-0.4h-1.9
		c-0.2,0-0.5,0-0.7,0c0.2-0.1,0.5-0.1,0.7-0.1c0.5,0,1.1-0.1,1.9-0.1c2.1-0.1,4.3,0,6.4,0.3l0.6,0.1l-0.2,0.2c0-2,0.3-4,0.7-6
		c0.2-0.8,0.3-1.4,0.4-1.8C52.5,378.9,52.6,378.7,52.7,378.5z"/>
	<path class="st7" d="M97.1,388c-0.4,1.2-0.9,2.3-1.5,3.4c-0.5,1.2-1,2.3-1.6,3.4C94.7,392.4,95.7,390.1,97.1,388L97.1,388z"/>
	<path class="st7" d="M101.4,392.5c-1.3,0.2-2.6,0.5-3.8,0.8c-1.2,0.4-2.4,1-3.6,1.5c1-0.9,2.2-1.5,3.5-1.9
		C98.7,392.5,100,392.4,101.4,392.5z"/>
	<path class="st9" d="M684.7,428.3c4.2-2.1,9.1-2.4,13.7-1.7c2.5,0.4,5.1,1.1,6.8,3s2,5.1,0.1,6.8c-1.3,0.8-2.8,1.2-4.3,1.1
		c-3.6,0-7.6-0.7-10.5,1.5c-1.7,1.2-2.8,3.3-4.7,3.9c-2,0.5-4.1-0.5-5.1-2.3c-0.9-1.8-1.1-3.9-0.6-5.9
		C680.5,432,682.2,429.6,684.7,428.3z"/>
	<path class="st9" d="M675.2,409.9c2.5,3.6,7.5,2.4,9.8,0.2s3.3-5.4,4.2-8.5c2-7,4.1-14.4,2.6-21.5c-0.4-2.2-1.3-4.2-2.8-5.9
		c-1.5-1.7-3.7-2.4-5.9-2c-2.5,0.7-4,3.1-5.2,5.4c-3.3,6.9-5,14.4-5.1,22C672.8,403.2,673.2,406.9,675.2,409.9"/>
	<path class="st9" d="M668.2,415.1c2.8-3.3,3.3-8.1,2.1-12.2c-1.4-4.1-3.9-7.7-7.2-10.5c-3.8-3.4-8.2-5.9-12.9-7.6
		c-1.8-0.8-3.8-1.1-5.8-1c-2,0.1-3.8,1.2-4.9,3c-1.4,2.6,0,5.7,1.4,8.3c2.5,4.5,5.3,8.8,8.5,12.9c2.5,3.3,5.5,6.5,9.3,8
		s7.9,1.3,10-1.4"/>
	<path class="st7" d="M675,464.8c0.1-0.5,0.2-1.1,0.2-1.6c0.1-1.2,0.3-2.7,0.4-4.5c0.2-2.2,0.6-4.4,1-6.6c0.6-2.7,1.4-5.3,2.4-7.8
		c1-2.5,2.3-4.9,4-7.1c1.3-1.8,3-3.2,5-4.2c1.3-0.7,2.8-1.1,4.2-1.3c0.6,0,1.1-0.1,1.6-0.2c-0.6-0.1-1.1-0.1-1.7,0
		c-1.5,0.1-3,0.5-4.4,1.1c-2.1,1-3.9,2.4-5.3,4.2c-1.7,2.2-3.1,4.6-4.1,7.2c-1,2.6-1.8,5.2-2.4,7.9c-0.4,2.2-0.7,4.5-0.9,6.7
		c-0.1,1.9-0.2,3.5-0.2,4.5C674.9,463.7,674.9,464.3,675,464.8z"/>
	<path class="st7" d="M675.3,461.3c0.1-0.3,0.1-0.5,0-0.8c0-0.6,0-1.3,0-2.2c0-1.9,0-4.7,0.1-8.1c0.2-6.8,0.8-14.1,1.9-24.5
		c1.1-9.7,2.5-21,4-28.4c0.3-1.7,0.7-3.2,1-4.5s0.5-2.5,0.8-3.4s0.4-1.6,0.5-2.1c0.1-0.2,0.1-0.5,0.1-0.8c-0.1,0.2-0.2,0.5-0.3,0.7
		c-0.2,0.5-0.4,1.2-0.6,2.1s-0.6,2-0.9,3.4s-0.7,2.8-1.1,4.5c-1.9,8.7-3.3,17.5-4.2,26.3c-1.1,10.4-1.7,19.8-1.7,26.6
		c0,3.4,0,6.2,0.1,8.1c0,0.9,0.1,1.6,0.1,2.2C675.2,460.8,675.3,461.1,675.3,461.3z"/>
	<path class="st7" d="M675.4,443.2c0.1-0.8,0.1-1.5,0-2.3c-0.1-2.1-0.4-4.2-0.7-6.2c-0.5-3-1.2-6-2-9c-1-3.7-2.2-7.2-3.8-10.7
		c-2.6-6.4-6.4-12.3-11.1-17.3c-0.8-0.9-1.7-1.7-2.6-2.4c-0.4-0.3-0.8-0.7-1.1-0.9l-1-0.7c-0.6-0.5-1.3-0.9-1.9-1.2
		c2.2,1.8,4.3,3.6,6.3,5.6c4.6,5.1,8.2,10.9,10.8,17.2c1.5,3.4,2.7,7,3.7,10.6c0.9,3,1.6,6,2.1,9c0.5,2.6,0.8,4.7,0.9,6.1
		C675.1,441.7,675.2,442.4,675.4,443.2z"/>
</g>
<g id="freepik--character-2--inject-40">
	<path class="st7" d="M559.6,174.2c0,5.9,7.8,9.8,7.5,15.7c-0.1,2.6-1.8,4.8-2.2,7.3c-0.5,3.4,1.3,6.7,1.9,10c1.2,7-3,14.1-9.1,17.7
		s-13.6,4.1-20.5,2.9"/>
	<path class="st7" d="M511.8,171.2c0.1,3.2-2.1,6-4.3,8.3s-4.6,4.7-5.2,7.9c-1,5.6,4.3,11,3,16.5c-0.7,2.9-3.2,5.3-3.7,8.2
		s1,5.8,2.8,8.1s4.1,2,5.7,4.5c1.9,2.7,4.3,5.1,7.2,6.8c6,3.6,13.6-1.1,16.6-1.9"/>
	<path class="st7" d="M560.7,177.6c0.2-2.9-2.4-5.2-5.1-6.4s-5.6-1.6-8-3.3c-2.1-1.5-3.4-3.8-5.2-5.6c-6.7-7.2-17.9-7.7-25.2-1
		c-2.4,2.2-4.1,5-5,8.2c-1.2,4.1-0.6,9,2.5,11.8c3.7,3.3,9.3,2.8,14.1,1.9s10.3-1.6,14.3,1.3c2.4,1.8,3.7,4.6,5.1,7.2s3.2,5.3,6,6.4
		s6.6-0.5,6.8-3.5"/>
	<path class="st11" d="M549.7,176.6l-25.4-7.4c-8.2-1.1-14,8.8-14.8,17c-0.9,9.1-1.6,20.3-0.8,27.2c1.7,13.8,12.2,15.9,12.2,15.9
		s-0.1,4-0.3,8.9c-0.2,8,6,14.8,14,15.2l0,0c8,0.4,14.9-5.7,15.5-13.8l3.7-58.1C553.9,179.1,552.1,176.9,549.7,176.6z"/>
	<path class="st7" d="M511.2,196.2c0,1,0.7,1.8,1.6,1.8c0.9,0.1,1.8-0.6,1.9-1.5c0,0,0,0,0,0c0-1-0.7-1.8-1.6-1.8
		C512.1,194.6,511.3,195.3,511.2,196.2C511.2,196.2,511.2,196.2,511.2,196.2z"/>
	<path class="st7" d="M511.2,193.4c0.2,0.2,1.6-0.7,3.5-0.6s3.2,1.1,3.5,0.9s-0.1-0.5-0.7-1c-0.8-0.6-1.8-1-2.8-1
		c-1,0-2,0.2-2.8,0.8C511.3,192.9,511.1,193.3,511.2,193.4z"/>
	<path class="st7" d="M529.7,196.8c0,1,0.7,1.8,1.6,1.8c0.9,0.1,1.7-0.5,1.9-1.5c0,0,0,0,0-0.1c0-1-0.7-1.8-1.6-1.8
		C530.6,195.1,529.8,195.8,529.7,196.8C529.7,196.7,529.7,196.7,529.7,196.8z"/>
	<path class="st7" d="M529.9,194.4c0.2,0.2,1.6-0.7,3.5-0.6s3.2,1.1,3.5,0.8s-0.1-0.5-0.7-1c-0.8-0.6-1.8-1-2.8-1
		c-1,0-2,0.2-2.8,0.8C530,193.9,529.8,194.3,529.9,194.4z"/>
	<path class="st7" d="M522.5,208.2c-1-0.3-2-0.6-3.1-0.7c-0.5-0.1-0.9-0.2-1-0.5c0-0.5,0.1-1,0.4-1.4l1.6-3.6
		c2.2-5.2,3.8-9.4,3.5-9.5s-2.1,4.1-4.3,9.2l-1.5,3.7c-0.3,0.6-0.4,1.2-0.3,1.9c0.1,0.4,0.4,0.6,0.8,0.7c0.3,0.1,0.5,0.1,0.8,0.1
		C520.4,208.3,521.5,208.3,522.5,208.2z"/>
	<path class="st12" d="M520.8,229.4c6.4,0.4,12.8-1,18.4-4.1c-0.2,0-5.4,9.4-18.5,7.5L520.8,229.4z"/>
	<path class="st8" d="M523.1,212.9c0.8-0.9,1.9-1.3,3.1-1.2c0.8,0.1,1.6,0.6,2.1,1.2c0.5,0.7,0.5,1.6,0.1,2.3
		c-0.6,0.7-1.6,0.9-2.5,0.5c-0.9-0.3-1.7-0.9-2.4-1.5c-0.2-0.2-0.4-0.4-0.5-0.6c-0.1-0.2-0.1-0.5,0-0.7"/>
	<path class="st7" d="M528,209.8c-0.3,0-0.4,2-2.2,3.4s-4,1.1-4,1.4c0,0.1,0.5,0.4,1.4,0.5c1.2,0.1,2.4-0.3,3.4-1
		c0.9-0.7,1.5-1.7,1.7-2.9C528.4,210.3,528.2,209.8,528,209.8z"/>
	<path class="st7" d="M529.1,191.1c0.2,0.5,2.1,0.4,4.3,0.7s4,1,4.3,0.6c0.1-0.2-0.2-0.7-0.9-1.2c-0.9-0.7-2-1.1-3.2-1.2
		c-1.1-0.2-2.3-0.1-3.4,0.3C529.5,190.4,529,190.8,529.1,191.1z"/>
	<path class="st7" d="M512.1,188c0.3,0.4,1.6,0,3.2,0.1s2.9,0.4,3.2-0.1c0.1-0.2-0.1-0.6-0.6-1.1c-0.8-0.5-1.7-0.8-2.6-0.8
		c-0.9,0-1.8,0.3-2.6,0.8C512.2,187.3,512,187.7,512.1,188z"/>
	<path class="st7" d="M553.6,224.1c-3.8,0.6-4.1-1.3-6.8-4c-2.8-2.8-4-6.7-3.5-10.6c0.5-3.4,2.5-6.7,1.4-10c-1.4-4.3-7.3-5.8-8.7-10
		c-0.8-2.5,0.1-5.3-0.9-7.8s-3.2-3.7-5.5-4.6s-4.8-1.6-6.6-3.1s-3-4.5-1.7-6.5c10.2,1.6,20.2,4.3,29.8,8.2c2.2,0.9,4.5,2,5.8,4
		s1.2,4.9,1,7.4c-1,12.3-2,24.7-2.9,37"/>
	<path class="st7" d="M563.1,196.3c0.8-5.8,6-9.9,11.8-9.1c3.6,0.5,6.7,2.8,8.3,6.1c1.8,3.9,1,8.6-0.9,12.5
		c-2.3,4.6-6.8,8.8-11.9,8.4c-4.8-0.4-8.6-4.7-9.8-9.4s-0.5-9.6,0.2-14.4"/>
	<path class="st10" d="M565.2,215.2c0.3-0.2,0.6-0.5,0.8-0.8c0.6-0.8,0.9-1.7,1.1-2.7c0.2-1.4,0.2-2.9,0-4.4
		c-0.2-1.6-0.7-3.3-1.1-5.1c-0.4-1.7-0.4-3.4-0.1-5.1c0.3-1.5,1.1-2.8,1.5-4c0.3-0.9,0.4-2,0.2-2.9c-0.1-0.4-0.2-0.7-0.5-1
		c0,0,0.2,0.4,0.3,1c0.1,0.9,0,1.9-0.4,2.8c-0.6,1.3-1.1,2.6-1.6,4c-0.3,1.8-0.3,3.6,0.1,5.3c0.3,1.9,0.9,3.6,1.1,5.1
		c0.3,1.4,0.3,2.8,0.1,4.2C566.4,212.9,566,214.1,565.2,215.2z"/>
	<path class="st10" d="M565.9,198.7c0.5,0.8,1.2,1.6,2,2.1c4,3,9.3,3.3,13.6,0.7c0.9-0.5,1.7-1.1,2.2-1.9c-0.1-0.1-0.9,0.7-2.5,1.5
		c-2,1.1-4.3,1.6-6.7,1.5c-2.3-0.1-4.5-0.9-6.5-2.2C566.8,199.5,566,198.6,565.9,198.7z"/>
	<path class="st10" d="M566.5,200.9c0.2,0.8,0.6,1.5,1.1,2.2c2.3,3.3,5.8,5.6,9.8,6.3c0.8,0.2,1.6,0.2,2.5,0.1
		c-0.8-0.2-1.6-0.4-2.4-0.5c-3.8-0.9-7.1-3.1-9.5-6.1C567.5,202.1,567.1,201.5,566.5,200.9z"/>
	<path class="st10" d="M562.5,219.7c0,0,0.1-0.1,0.2-0.2c0.1-0.2,0.3-0.4,0.4-0.6c0.5-0.7,0.8-1.5,1-2.4c0.3-1.3,0.3-2.7-0.1-4.1
		c-0.5-1.8-1.5-3.3-3.1-4.4c-1.6-1.2-3.7-2.1-5-3.9c-0.7-1-0.9-2.1-0.6-3.3c0.3-1.2,0.8-2.4,1.3-3.5c1.2-2.6,1.2-5.6,0.1-8.2
		c-0.6-1.4-1.5-2.6-2.7-3.6c-1.2-0.9-2.7-1.6-4.2-1.9c-1.5-0.4-3-0.6-4.3-1.1c-1.3-0.4-2.6-1.1-3.6-2.1c-0.9-1-1.4-2.3-1.5-3.7
		c-0.1-1.3-0.3-2.7-0.5-4c-0.5-2.5-1.7-4.8-3.5-6.6c-1.6-1.6-3.6-2.7-5.8-3.1c-1.8-0.4-3.7-0.1-5.3,0.6c-1.2,0.6-2.3,1.5-3.2,2.6
		c-0.5,0.7-0.9,1.5-1.2,2.3c-0.1,0.3-0.1,0.6-0.2,0.9c0.3-1.1,0.8-2.1,1.5-3c2-2.5,5.2-3.6,8.2-2.9c2.1,0.4,4,1.5,5.5,3
		c1.7,1.8,2.8,4,3.3,6.4c0.2,1.3,0.4,2.7,0.5,4c0.1,1.5,0.6,2.9,1.6,4c1.1,1.1,2.4,1.9,3.8,2.3c1.4,0.5,2.9,0.7,4.4,1.1
		c1.4,0.3,2.8,0.9,3.9,1.8c1.1,0.9,2,2,2.5,3.3c1.1,2.5,1,5.3,0,7.8c-0.6,1.2-1,2.4-1.3,3.6c-0.3,1.3,0,2.6,0.8,3.6
		c1.4,2,3.6,2.9,5.1,4c1.5,1,2.5,2.5,3,4.1c0.4,1.3,0.4,2.6,0.2,3.9C563.5,217.7,563.1,218.8,562.5,219.7z"/>
	<path class="st10" d="M562.8,181.3c0.1-0.2,0.2-0.4,0.2-0.6c0.1-0.6-0.1-1.3-0.4-1.8c-0.5-0.9-1.3-1.6-2.2-2
		c-1.3-0.5-2.6-0.5-3.9-0.2c-1.5,0.2-3,0.8-4.6,1c-1.7,0.4-3.5,0.1-5-0.9c-1.4-1.2-2.1-3.1-2.8-5c-0.7-2.1-1.7-4-3-5.8
		c-2.5-3.4-6.1-5.9-10.2-7.1c-1.8-0.5-3.7-0.5-5.5,0c-1.6,0.4-3,1.3-4.1,2.5c-0.9,1-1.5,2.2-1.6,3.6c-0.1,1,0,2,0.4,3
		c0.2,0.6,0.6,1.1,1,1.6c0.1,0.2,0.3,0.3,0.5,0.4c-0.6-0.6-1-1.3-1.3-2.1c-0.7-2.2-0.2-4.5,1.4-6.2c1.1-1.1,2.4-1.9,3.9-2.3
		c1.7-0.4,3.5-0.4,5.2,0.1c3.9,1.1,7.4,3.6,9.8,6.9c1.3,1.7,2.2,3.6,2.9,5.6c0.7,1.9,1.4,4,3,5.3c0.8,0.6,1.7,1,2.7,1.1
		c0.9,0.1,1.8,0.1,2.7-0.1c1.7-0.3,3.2-0.9,4.6-1.1c1.2-0.3,2.5-0.2,3.7,0.1c0.9,0.3,1.7,1,2.2,1.8c0.3,0.5,0.5,1.1,0.5,1.7
		C562.8,181.1,562.8,181.3,562.8,181.3z"/>
	<path class="st11" d="M452.2,289c0,0-7.6-11.9-8.9-12.9s-13.1-5.1-14.1-4.8s-15.2,3-13.5,4.7s11.6-0.3,11.6-0.3l1.3,0.6
		c0,0-8.5,1.5-10.3,2.6c-1.6,1-1,3,0.5,2.8s9-1.8,9.4-1.5s-8.1,2.1-9,2.7c-1.2,0.8-1.3,3,0.2,2.8c0.9-0.1,8.9-2.3,8.9-2.3
		s-6.4,2.6-6.9,3.1c-1,0.9-0.2,2.3,1.2,2c1-0.2,5.4-2.5,6.7-2.8c0,0,1.2,0.3,2.3,2.7c0.5,1.1,2.9,8.1,7.1,7.9
		c3.7-0.1,7.4,2.9,7.4,2.9L452.2,289z"/>
	<path class="st12" d="M415.6,276c0.8,0.4,1.7,0.6,2.6,0.7c1,0.1,2,0.1,2.9,0.1c1.1-0.1,2.3-0.3,3.5-0.5l2.6-0.4h-0.2
		c2,0.8,4.1,1.4,6.2,1.8c-1.9-1-3.9-1.8-6-2.4h-0.1h-0.1l-2.6,0.4l-3.5,0.6c-0.9,0.1-1.9,0.1-2.8,0.1
		C416.6,276.1,415.6,275.9,415.6,276z"/>
	<path class="st8" d="M520.6,246c0,0-8.1,4.9-11,10.9c-2.9,6-18.5,46.5-18.5,46.5l-38.9-19.3l-9.8,16.6l36.7,29.2
		c4.9,3,10.7,4.2,16.3,3.4l0,0c8.8-1.3,13.1-1.5,16.1-9.9l9.8-27l-2.1-49.5"/>
	<g class="st2">
		<path d="M509.7,269.7c-9,13-10.5,19.1-11.4,34.9c-0.3,5.2,0,10.9,3.1,15.1c1.1,1.5,3.4,2.8,4.8,1.6s0.4-3.4-0.1-5.2
			c-2.8-10.6-3.8-18.8-1.8-28.1s1.5-9.2,5.3-17.9"/>
	</g>
	<path class="st7" d="M495.8,319.7c-0.3-5.7-2-11.3-4.9-16.2c0.6,0.6,1.1,1.3,1.5,2.1c2.1,3.5,3.3,7.5,3.5,11.6
		C496,318,496,318.8,495.8,319.7z"/>
	<path class="st8" d="M508.7,366.7l-5.7,97.8h93.2c0,0-2.8-49-6.2-69.9c-3.6-37-15.2-42.5-23.3-60.3l4.6-86.6l-19.7-9.1l-0.8-4.6
		l-30.6,3.7l-0.9,9.2c0,0-2.8,8.1-4.4,12.3c-4.9,13-11.7,28.6-10.7,40c0.5,5.2,7.5,39.5,7.5,39.5l-2.7,27.8L508.7,366.7z"/>
	<path class="st7" d="M516,254.6c-0.1,0.3-0.1,0.5-0.2,0.8c-0.2,0.5-0.5,1.2-0.8,2.1c-0.7,1.8-1.8,4.5-3.1,7.7s-2.9,7.1-4.3,11.5
		c-1.5,4.8-2.7,9.7-3.3,14.7c-0.7,5-0.7,10,0.2,15c0.8,4.6,2,8.6,2.8,12s1.3,6.2,1.6,8.2c0.1,0.9,0.2,1.7,0.3,2.2
		c0,0.3,0.1,0.5,0.1,0.8c-0.1-0.2-0.1-0.5-0.2-0.8c-0.1-0.6-0.2-1.3-0.4-2.2c-0.4-1.9-0.9-4.7-1.8-8.1s-2.1-7.4-2.9-12
		c-0.9-5-0.9-10.1-0.2-15.1c0.7-5,1.8-10,3.3-14.8c1.5-4.4,3.1-8.3,4.5-11.5l3.3-7.7c0.4-0.9,0.7-1.6,0.9-2.1
		C515.7,255,515.9,254.8,516,254.6z"/>
	<g class="st2">
		<path d="M512.2,344.5c-1,4.8,2.9,9.5,7.5,11.2s9.7,1.1,14.5,0.6l33.8-4c1.8-0.2,3.9-0.6,4.6-2.2c0.4-0.9,0.4-2,0-2.9
			c-1-2.8-3-5-5.7-6.3c-2.7-1.2-5.5-1.9-8.4-2.1c-11.7-1.2-23.3,0.9-34.9,3"/>
	</g>
	<path class="st11" d="M485.8,327.4l8.6,0.8l3.8,1.9c0,0-0.9-1-1.7-2c-1.2-1.2-2.5-2.2-3.8-3.2l-6.4-0.7c0,0-3.6-0.3-3.8-2.8
		l4.9-0.5c0,0-5.1-0.4-5-2.9l3.7-0.7c-0.6,0-1.2-0.5-1.2-1.1c0-0.1,0-0.1,0-0.2l10.3-1.1l9.8,6.9l9.4,8.4l2.1,0.1l0.7,13.6
		c0,0-8.4-1-10.7-2.2s-12.4-10.3-12.4-10.3s-5.3-0.5-6.8-1.7C486.5,329.2,486,328.3,485.8,327.4z"/>
	<path class="st12" d="M519.3,344.2h-0.1h-0.4l-1.5-0.2c-1.3-0.2-3.3-0.4-5.8-0.8c-1.4-0.2-2.8-0.5-4.1-0.9
		c-0.8-0.3-1.5-0.7-2.1-1.2c-0.7-0.5-1.4-1-2-1.6c-2.8-2.2-5.9-4.9-9.2-7.9l0.1,0c-1.6-0.1-3.2-0.4-4.8-0.8
		c-0.4-0.1-0.8-0.3-1.2-0.4c-0.2-0.1-0.4-0.2-0.6-0.3l-0.3-0.2l-0.2-0.2c-0.3-0.3-0.6-0.7-0.9-1c-0.3-0.4-0.4-0.8-0.5-1.3v-0.3h0.3
		l8.6,0.8l0,0l0,0l3.8,1.9l-0.3,0.4l-1.2-1.4l-0.6-0.7c-0.2-0.2-0.4-0.4-0.7-0.6c-0.9-0.8-2-1.6-3-2.4l0.1,0l-3.9-0.4l-2-0.2
		c-0.3,0-0.7-0.1-1-0.1c-0.3-0.1-0.7-0.1-1-0.2c-0.6-0.2-1.2-0.5-1.7-0.9c-0.5-0.4-0.8-1.1-0.9-1.8v-0.2h0.2l4.9-0.5v0.5
		c-1.1-0.1-2.1-0.3-3.1-0.7c-0.5-0.2-1-0.5-1.4-0.9c-0.4-0.4-0.7-1-0.6-1.6v-0.2h0.2l3.9-0.6v0.5c-0.4,0-0.8-0.2-1.1-0.5
		c-0.3-0.3-0.5-0.7-0.4-1.1v-0.2h0.2l10.2-1.2h0.1l0.1,0l9.9,6.9l0,0c3.6,3.2,6.8,6,9.4,8.4h-0.1l8.7,0.5l2.3,0.1l0.6,0
		c0.1,0,0.2,0,0.2,0h-0.8l-2.3-0.1l-8.7-0.4l0,0l0,0l-9.6-8.3l0,0l-9.7-6.9h0.1l-10.1,1.2l0.2-0.2c0,0.3,0.1,0.6,0.3,0.8
		c0.2,0.2,0.5,0.3,0.8,0.4l1.7,0.2l-1.7,0.2l-3.9,0.6l0.2-0.2c0,0.5,0.2,0.9,0.5,1.2c0.4,0.3,0.8,0.6,1.2,0.8c1,0.4,2,0.6,3,0.7v0.5
		l-4.9,0.5l0.2-0.3c0.1,0.6,0.3,1.1,0.7,1.4c0.4,0.4,1,0.7,1.5,0.8c0.3,0.1,0.6,0.2,1,0.2c0.3,0.1,0.7,0.1,1,0.1l2,0.2l3.9,0.4h0.1
		h0c1.1,0.8,2.1,1.5,3,2.4c0.2,0.2,0.5,0.4,0.7,0.7l0.6,0.7l1.2,1.4l0.8,0.9l-1-0.5l-3.8-1.9h0.1l-8.6-0.8l0.2-0.2
		c0.1,0.4,0.2,0.8,0.4,1.1c0.7,1.1,1.8,1.8,3,2c1.5,0.4,3.1,0.7,4.7,0.8h0.1l0,0c3.3,3,6.3,5.6,9.1,7.9c0.7,0.6,1.4,1.1,2,1.6
		c0.6,0.5,1.3,0.9,2,1.2c1.3,0.4,2.7,0.7,4.1,1c2.5,0.5,4.5,0.7,5.8,0.9l1.5,0.2l0.4,0.1L519.3,344.2z"/>
	<path class="st12" d="M499.8,325.2c-0.6-0.3-1.2-0.7-1.8-1.1c-1-0.7-2.5-1.8-4-2.9l-0.4-0.3l0.1,0c-1.8,0.1-3.4,0.1-4.6,0.1
		c-0.6,0-1.3,0-1.9-0.1c0.6-0.2,1.2-0.2,1.9-0.2c1.2-0.1,2.8-0.2,4.6-0.3h0.1l0.1,0l0.4,0.3c1.6,1.1,3,2.2,4,3
		C498.8,324.2,499.4,324.7,499.8,325.2z"/>
	<path class="st12" d="M498.7,320.6c-0.6-0.3-1.1-0.6-1.6-1c-1-0.7-2.3-1.6-3.7-2.7l0.2,0L493,317c-1.9,0.2-3.7,0.4-5,0.4
		c-0.7,0.1-1.4,0.1-2.1,0c0.7-0.2,1.3-0.3,2-0.4c1.3-0.2,3-0.4,5-0.6l0.6-0.1h0.1l0.1,0.1c1.5,1.1,2.7,2.1,3.6,2.8
		C497.8,319.7,498.3,320.1,498.7,320.6z"/>
	<path class="st8" d="M587.9,335.8c3.2-4.9,4.5-10.7,3.7-16.5l-7.5-43.8c-0.8-7.3-1.9-17.3-7-22.7c-3.5-3.7-7.7-6.9-11.9-6.8
		l-8.9,25.4l3.4,49l-45.4,8.1v19.9c0,0,34.7-1.1,54-1.7C576.2,346.5,583.5,342.4,587.9,335.8L587.9,335.8z"/>
	<path class="st7" d="M587.9,335.8l-0.2,0.3l-0.6,1c-0.9,1.2-1.8,2.3-2.9,3.3c-1.7,1.6-3.7,2.9-5.8,4c-2.8,1.4-5.9,2.2-9,2.5
		c-13.9,0.5-33.2,1.1-55,1.8h-0.3v-20.4h0.2l45.4-8.1l-0.2,0.2c-1.2-11.3-2.2-20.6-2.9-27.2c-0.3-3.2-0.6-5.8-0.8-7.5
		c-0.1-0.9-0.1-1.5-0.2-2s0-0.7,0-0.7s0,0.2,0.1,0.7s0.1,1.1,0.2,2c0.2,1.8,0.5,4.3,0.9,7.5c0.7,6.5,1.8,15.8,3,27.1v0.2h-0.2
		l-45.3,8.2l0.2-0.2v19.9l-0.3-0.3l55-1.6c3.1-0.2,6.1-1,8.9-2.4c2.1-1,4-2.3,5.7-3.9c1.1-1,2.1-2.1,3-3.2c0.3-0.4,0.5-0.7,0.7-0.9
		C587.7,336,587.8,335.9,587.9,335.8z"/>
	<path class="st7" d="M570.3,247.7c0,0.1-1.5,0.7-3.8,2.1c-1.3,0.9-2.5,1.8-3.7,2.9c-1.4,1.3-2.6,2.8-3.8,4.3c-1.1,1.6-2,3.2-2.8,5
		c-0.6,1.4-1.1,2.9-1.4,4.5c-0.6,2.6-0.6,4.3-0.7,4.3c0-0.4,0-0.8,0-1.2c0-0.5,0-0.9,0.1-1.4c0-0.6,0.1-1.2,0.3-1.8
		c0.3-1.6,0.7-3.1,1.3-4.6c0.7-1.8,1.7-3.5,2.8-5.1c1.1-1.6,2.4-3.1,3.8-4.4c1.2-1.1,2.5-2,3.8-2.8c0.5-0.3,1.1-0.6,1.6-0.9
		c0.4-0.2,0.8-0.4,1.3-0.6C569.6,247.9,570,247.8,570.3,247.7z"/>
	<path class="st7" d="M551.7,238.4c-0.3,0.3-0.7,0.6-1.1,0.8c-1.1,0.5-2.2,1-3.4,1.4c-2.8,1.1-6.6,3-10.9,4.9
		c-3.6,1.7-7.6,2.7-11.6,3c-1.2,0.1-2.4,0-3.6-0.2c-0.4-0.1-0.8-0.1-1-0.2s-0.3-0.1-0.3-0.1c1.6,0.2,3.3,0.2,4.9,0.1
		c3.9-0.4,7.8-1.5,11.4-3.1c4.3-1.9,8.1-3.7,11-4.7c1.5-0.5,2.6-0.9,3.4-1.2S551.7,238.4,551.7,238.4z"/>
	<polygon class="st8" points="442.4,314.1 437.9,278.8 407.2,280.3 409.3,315.7 	"/>
	<path class="st11" d="M446.6,287.7c-1,0.7-2.3,0.7-3.3,0c-1-0.6-1.8-1.5-2.8-2.2c-2.9-2-7.1-1.4-9.9-3.6c-0.4-0.3-0.8-0.8-0.6-1.2
		s0.7-0.5,1.2-0.5l11.7,0.1"/>
	<path class="st12" d="M443,280.4c-0.4-0.1-0.8-0.2-1.3-0.1c-0.8,0-2-0.1-3.5-0.1l-5.1-0.1h-1.5c-0.6-0.1-1.2,0-1.7,0.4
		c-0.3,0.3-0.3,0.7-0.2,1.1c0.1,0.3,0.3,0.6,0.6,0.8c0.5,0.3,1,0.6,1.5,0.9c2.1,1,4.3,1.1,6.1,1.6c0.9,0.2,1.7,0.6,2.4,1.1
		c0.7,0.5,1.3,1,1.9,1.5c0.9,0.8,2.1,1.2,3.3,1.1c0.9-0.2,1.1-0.7,1.1-0.7c-0.4,0.2-0.7,0.3-1.1,0.4c-1.1,0-2.2-0.4-3-1.2
		c-0.5-0.5-1.1-1-1.8-1.5c-0.8-0.5-1.7-0.9-2.6-1.2c-1.9-0.6-4-0.8-6-1.6c-0.5-0.2-0.9-0.5-1.4-0.8c-0.4-0.3-0.6-0.7-0.4-0.9
		s0.7-0.2,1.2-0.2h1.5h5.1c1.5,0,2.6,0,3.5-0.1C442.1,280.5,442.6,280.5,443,280.4z"/>
	<path class="st6" d="M433.9,290.7c-0.3,0.2-0.6,0.3-0.9,0.4c-0.8,0.3-1.7,0.6-2.5,0.9c-1.3,0.4-2.6,0.5-4,0.4
		c-0.8-0.1-1.6-0.3-2.3-0.6c-0.8-0.4-1.5-0.8-2.1-1.4c-0.3-0.2-0.6-0.4-1-0.4c-0.3,0-0.7,0.1-0.9,0.4c-0.5,0.5-1,1.1-1.3,1.8
		c-0.4,0.7-1.1,1.1-1.8,1.2c-0.7,0-1.3-0.2-1.8-0.6c-0.7-0.6-1.1-1.5-1.3-2.4c-0.1-0.3-0.2-0.7-0.2-1c0.2,0.3,0.3,0.6,0.4,0.9
		c0.2,0.8,0.7,1.6,1.3,2.1c0.4,0.4,1,0.5,1.6,0.5c0.6-0.1,1.2-0.5,1.5-1.1c0.4-0.7,0.8-1.3,1.4-1.9c0.4-0.3,0.8-0.5,1.3-0.5
		c0.5,0,0.9,0.2,1.3,0.5c0.6,0.5,1.3,1,2,1.4c0.7,0.3,1.4,0.5,2.1,0.6c1.3,0.1,2.6,0,3.8-0.3C432.6,291.1,433.9,290.6,433.9,290.7z"
		/>
	<path class="st6" d="M435.4,296c0,0.1-4.6,0.5-10.4,0.7c-3.5,0.2-6.9,0.3-10.4,0.2c0-0.1,4.6-0.5,10.4-0.7
		C428.4,295.9,431.9,295.9,435.4,296z"/>
	<path class="st6" d="M433.2,301c-0.8,0.3-1.5,0.5-2.3,0.6c-1.5,0.3-3.5,0.7-5.7,1s-4.3,0.6-5.8,0.7c-0.8,0.1-1.6,0.2-2.4,0.1
		c0.8-0.2,1.6-0.4,2.4-0.5l5.8-0.9l5.8-0.9C431.6,301.1,432.4,301,433.2,301z"/>
	<path class="st4" d="M555.2,291.1c-0.1,0.1-0.3,0.3-0.4,0.4l-1.3,1c-1.1,0.9-2.8,2.1-4.9,3.5c-2.5,1.7-5.3,2.9-8.2,3.8
		c-3.6,1.1-7.4,0.9-10.9-0.4c-3.7-1.5-6.5-4-9.3-5.9c-2.3-1.8-5-3.1-7.9-3.8c-1.9-0.5-4-0.4-5.9,0.3c-0.7,0.3-1.3,0.6-2,1
		c0.5-0.5,1.2-0.9,1.9-1.2c1.9-0.8,4-0.9,6-0.5c3,0.7,5.7,2,8.1,3.8c2.8,1.9,5.6,4.4,9.2,5.8c3.4,1.3,7.1,1.4,10.6,0.4
		c2.9-0.8,5.6-2,8.1-3.6c2.2-1.3,3.8-2.5,5-3.4l1.3-0.9C554.8,291.2,555,291.1,555.2,291.1z"/>
	<path class="st4" d="M583.7,271.3c0,0.1-1.5-0.4-4-0.7c-1.5-0.2-2.9-0.3-4.4-0.4c-1.8,0-3.6,0.1-5.4,0.3c-1.8,0.3-3.6,0.7-5.3,1.2
		c-1.4,0.4-2.8,1-4.1,1.6c-2.3,1.1-3.6,1.9-3.7,1.8c0.3-0.3,0.6-0.5,0.9-0.7c0.8-0.6,1.7-1.1,2.6-1.5c1.3-0.7,2.7-1.2,4.2-1.7
		c3.5-1.2,7.2-1.7,10.9-1.6c1.5,0,3,0.2,4.5,0.5c1,0.2,2,0.4,3,0.7C583,271,583.3,271.1,583.7,271.3z"/>
	<path class="st4" d="M589.2,307.6c-1.6-0.2-3.1,0-4.6,0.5c-1.6,0.6-3.2,1.3-4.6,2.2c-1.8,1.1-3.8,1.9-5.9,2.5
		c-3.8,0.8-7.8,0.3-11.3-1.6c-1-0.6-2-1.2-2.9-2c-0.3-0.3-0.6-0.6-0.9-0.9c1.2,1,2.5,1.9,3.9,2.6c3.4,1.7,7.3,2.2,11,1.4
		c2-0.5,4-1.3,5.8-2.4c1.5-0.9,3.1-1.6,4.7-2.1c1.1-0.3,2.3-0.5,3.5-0.4C588.4,307.4,588.9,307.4,589.2,307.6z"/>
	<path class="st4" d="M548.3,347.4c-0.1,0,0.6-1.3,1.2-3.5c1.6-5.8,0.5-12-2.8-17c-1.3-1.9-2.3-2.9-2.2-3c0.3,0.2,0.5,0.4,0.8,0.7
		c0.7,0.6,1.2,1.4,1.8,2.1c3.6,5,4.7,11.4,2.9,17.3c-0.3,0.9-0.6,1.7-1,2.6C548.7,346.9,548.5,347.2,548.3,347.4z"/>
	<path class="st4" d="M509.9,266.5c-0.1,0.1-0.6-0.8-1.6-1.3s-1.9-0.5-2-0.7s1.1-0.5,2.2,0.2S510.1,266.5,509.9,266.5z"/>
	<path class="st4" d="M563.2,245.1c0,0.1-0.8-0.1-2.1,0c-1.9,0.2-3.7,0.9-5.3,2c-1.1,0.7-2.1,1.5-3.1,2.4c-1,1-2.1,2.1-3.1,3.3
		c-2.2,2.3-4.5,5.1-8,6.8c-3.2,1.5-6.8,2.1-10.3,1.8c-2.9-0.2-5.7-0.8-8.4-1.6c-2.3-0.7-4.2-1.5-5.4-2l-1.4-0.6
		c-0.2-0.1-0.3-0.1-0.5-0.2c0.2,0,0.4,0.1,0.5,0.1l1.5,0.5c1.3,0.4,3.1,1.1,5.5,1.8c2.7,0.8,5.5,1.3,8.3,1.5c3.4,0.2,6.9-0.4,10-1.8
		c3.3-1.6,5.7-4.3,7.8-6.6c1.1-1.2,2.1-2.3,3.2-3.3c1-0.9,2.1-1.7,3.2-2.4c1.6-1,3.5-1.7,5.5-1.9c0.5,0,1.1,0,1.6,0.1
		C562.8,245,563,245,563.2,245.1z"/>
	<path class="st4" d="M549.9,235.9c-0.3,0.2-0.7,0.4-1.1,0.5c-0.7,0.3-1.8,0.7-3,1.2c-3.4,1.2-6.9,2.3-10.4,3
		c-3.5,0.7-7.1,1.2-10.8,1.5c-1.4,0.1-2.5,0.1-3.3,0.1c-0.4,0-0.8,0-1.2-0.1c0.4-0.1,0.8-0.1,1.2-0.1c0.8-0.1,1.9-0.1,3.3-0.3
		c3.6-0.3,7.1-0.9,10.7-1.6c3.5-0.7,7-1.7,10.4-2.8c1.3-0.4,2.4-0.8,3.1-1.1C549.1,236.1,549.5,236,549.9,235.9z"/>
	<path class="st4" d="M468.9,321.8c0,0-0.1-0.1-0.1-0.3c-0.1-0.3-0.1-0.5-0.2-0.8c-0.1-1-0.1-2.1,0.1-3.1c0.3-1.5,0.9-3,1.6-4.3
		c0.8-1.5,1.8-3.1,2.8-4.9c1-1.6,1.7-3.3,2.2-5.1c0.3-1.5,0.4-3,0.1-4.5c-0.3-1.4-0.8-2.7-1.5-3.9c0.3,0.3,0.5,0.6,0.7,0.9
		c0.5,0.9,0.9,1.9,1.2,2.9c0.3,1.5,0.3,3.1,0,4.6c-0.5,1.8-1.2,3.6-2.2,5.2c-1,1.7-2,3.3-2.9,4.8c-0.7,1.3-1.3,2.7-1.6,4.2
		C468.8,319,468.7,320.4,468.9,321.8z"/>
	<path class="st4" d="M581.8,360c-0.2-0.1-0.5-0.2-0.7-0.4c-0.4-0.3-1.1-0.6-2-1c-2.5-1-5.1-1.6-7.8-1.7c-4-0.1-8,0.4-11.8,1.5
		c-4.3,1.2-9,3.1-13.9,4.8c-4.6,1.8-9.5,2.8-14.5,3c-4,0.1-8.1-0.6-11.9-1.9c-2.6-0.9-5-2.1-7.3-3.6c-0.8-0.5-1.4-1-1.8-1.3
		c-0.2-0.1-0.4-0.3-0.6-0.5c0,0,0.9,0.6,2.5,1.6c2.3,1.4,4.7,2.6,7.3,3.4c3.8,1.3,7.8,1.9,11.8,1.8c4.9-0.2,9.7-1.3,14.3-3
		c4.9-1.7,9.6-3.6,14-4.8c3.9-1.1,8-1.6,12-1.4c2.7,0.1,5.4,0.8,7.9,1.9c0.7,0.3,1.3,0.7,1.9,1.1C581.4,359.7,581.6,359.8,581.8,360
		z"/>
	<path class="st4" d="M588.8,396.8c-0.8,0.8-1.7,1.4-2.7,2c-2.7,1.5-5.7,2.5-8.8,2.8c-2.1,0.2-4.3,0.3-6.4,0.1
		c-2.4-0.2-4.8-0.7-7.2-1.3c-5-1.3-10.2-3.5-15.8-5.4s-11.1-3.3-16.2-3.3c-2.4,0-4.8,0.3-7.2,1c-2.2,0.6-4.2,1.3-6.1,1.7
		c-3,0.9-6.2,0.6-9-0.8c-0.7-0.4-1.4-1-1.9-1.6c-0.2-0.2-0.4-0.5-0.5-0.7c0.2,0.2,0.4,0.4,0.6,0.7c0.6,0.6,1.3,1.1,2,1.5
		c2.8,1.3,5.9,1.5,8.9,0.6c1.9-0.4,3.9-1.2,6.1-1.8c2.4-0.7,4.8-1,7.2-1c5.2,0,10.8,1.3,16.4,3.3s10.8,4.1,15.8,5.4
		c2.3,0.6,4.7,1.1,7.1,1.4c2.1,0.2,4.2,0.2,6.3,0c3-0.3,6-1.2,8.7-2.6c0.4-0.2,0.8-0.5,1.2-0.7c0.4-0.2,0.7-0.4,0.9-0.6
		C588.4,397.1,588.6,396.9,588.8,396.8z"/>
	<path class="st4" d="M593.4,426.2c-0.1,0-0.1-0.1-0.2-0.1l-0.6-0.4c-0.8-0.5-1.6-0.9-2.4-1.3c-3-1.4-6.2-2.2-9.5-2.5
		c-4.9-0.4-9.8-0.1-14.6,1c-5.4,1.1-11.2,2.9-17.5,4.4c-3,0.8-6.1,1.3-9.2,1.7c-7.8,0.8-15.7,0.2-23.3-1.9c-3.2-0.9-6.3-2-9.3-3.4
		c-1.1-0.5-1.9-0.9-2.4-1.2c-0.2-0.1-0.5-0.2-0.6-0.3s-0.2-0.1-0.2-0.1c0.1,0,0.1,0.1,0.2,0.1l0.6,0.3c0.6,0.3,1.4,0.7,2.5,1.1
		c3,1.3,6.2,2.4,9.4,3.2c4.7,1.3,9.6,2,14.5,2.1c2.9,0.1,5.8,0,8.7-0.4c3.1-0.4,6.1-0.9,9.2-1.7c6.2-1.5,12-3.3,17.5-4.4
		c4.8-1,9.8-1.3,14.7-0.9c3.3,0.3,6.6,1.2,9.6,2.7C591.4,424.9,592.4,425.5,593.4,426.2z"/>
	<path class="st4" d="M541.1,323.3c0,0.1-1.7-0.9-4.7-1.9c-1.7-0.6-3.5-1-5.2-1.4c-4.4-0.8-8.9-0.8-13.2,0c-1.8,0.3-3.5,0.8-5.3,1.3
		c-2.9,1-4.6,1.9-4.7,1.8c0.4-0.3,0.8-0.5,1.2-0.7c0.5-0.3,0.9-0.5,1.4-0.7c0.6-0.2,1.2-0.5,1.9-0.8c1.7-0.6,3.5-1.1,5.3-1.5
		c4.4-0.8,9-0.8,13.4,0c1.8,0.4,3.6,0.9,5.3,1.5c0.8,0.2,1.4,0.6,2,0.8c0.5,0.2,1,0.4,1.4,0.7C540.3,322.8,540.7,323.1,541.1,323.3z
		"/>
	<path class="st4" d="M593.7,457.3c0,0-0.1,0-0.2-0.1l-0.6-0.3c-0.3-0.1-0.6-0.3-1-0.5s-0.8-0.4-1.4-0.6c-3-1.3-6.1-2.1-9.3-2.5
		c-4.7-0.5-9.5-0.4-14.3,0.3c-5.4,0.7-11.2,1.9-17.4,2.6c-10.6,1.2-21.4,0.8-31.9-1.3c-3.2-0.6-6.3-1.4-9.4-2.4
		c-1.1-0.3-1.9-0.6-2.5-0.8l-0.6-0.2c-0.1,0-0.2,0-0.2-0.1c0.1,0,0.2,0,0.2,0l0.7,0.2c0.6,0.2,1.4,0.4,2.5,0.7
		c2.2,0.6,5.4,1.4,9.4,2.2c10.5,2,21.2,2.3,31.8,1.1c6.2-0.7,12-1.9,17.4-2.6c4.8-0.7,9.6-0.7,14.4-0.2c3.2,0.4,6.4,1.3,9.3,2.6
		c0.5,0.2,0.9,0.4,1.4,0.7c0.3,0.2,0.7,0.4,1,0.6l0.6,0.4L593.7,457.3z"/>
</g>
<g id="freepik--character-1--inject-40">
	<path class="st7" d="M196.7,464.5l2-91.4l-71-5.9c0,0-3.8,36.6-3.7,41.5c0,2.3,10.7,25.1,10.7,25.1l-0.1,30.7L196.7,464.5z"/>
	<path class="st10" d="M172.6,384c-0.2,0.5-0.4,0.9-0.6,1.3c-0.4,0.8-1.1,2-1.9,3.5c-2.2,3.8-4.9,7.2-8.2,10.1
		c-3.3,2.9-7.4,4.7-11.8,5.4c-1.3,0.2-2.7,0.2-4,0.1c-0.4,0-0.7-0.1-1.1-0.2c-0.1,0-0.3,0-0.4-0.1c1.8,0.1,3.6,0.1,5.3-0.2
		c4.2-0.8,8.2-2.6,11.5-5.4c3.2-2.8,6-6.2,8.3-9.9c0.9-1.4,1.6-2.6,2-3.4C172,384.8,172.2,384.4,172.6,384z"/>
	<path class="st13" d="M146.1,233.1l32,8.3l1.1-27.9c0,0,13.5-1.5,14.3-15s-0.3-44.4-0.3-44.4l0,0c-15.3-7.3-33.3-5.9-47.2,3.9
		l-2,1.5L146.1,233.1z"/>
	<path class="st14" d="M179.3,213.3c-6.2-0.2-12.2-2.1-17.3-5.7c0,0,3.7,9.9,17.2,9.2L179.3,213.3z"/>
	<path class="st13" d="M145.1,173.5c-0.2-0.1-9.1-3.1-9.2,6.1s9.2,7.4,9.2,7.1S145.1,173.5,145.1,173.5z"/>
	<path class="st14" d="M142.2,183.2c0,0-0.2,0.1-0.4,0.2c-0.4,0.2-0.8,0.2-1.2,0c-1-0.4-1.8-1.9-1.8-3.6c0-0.8,0.1-1.6,0.5-2.3
		c0.2-0.6,0.6-1,1.2-1.2c0.4-0.1,0.8,0.1,0.9,0.4c0.1,0.3,0.1,0.4,0.1,0.5s0.2-0.2,0.1-0.5c0-0.2-0.2-0.4-0.4-0.6
		c-0.3-0.2-0.6-0.3-0.9-0.2c-0.8,0.1-1.4,0.7-1.7,1.4c-0.4,0.8-0.6,1.7-0.6,2.6c0,1.9,1,3.6,2.3,4c0.5,0.2,1,0.1,1.5-0.2
		C142.2,183.4,142.3,183.2,142.2,183.2z"/>
	<path class="st7" d="M189.4,174.9c0,1-0.9,1.9-1.9,1.9c-1,0-1.9-0.8-1.9-1.8c0,0,0,0,0,0c0-1,0.9-1.9,1.9-1.9
		C188.5,173,189.4,173.8,189.4,174.9C189.4,174.8,189.4,174.9,189.4,174.9z"/>
	<path class="st7" d="M189.9,173c-0.2,0.2-1.6-0.9-3.7-1s-3.6,0.9-3.8,0.6s0.2-0.6,0.8-1c0.9-0.6,2-0.9,3.1-0.8c1.1,0,2.1,0.4,3,1.1
		C189.8,172.4,190,172.9,189.9,173z"/>
	<path class="st7" d="M169.1,174.7c0,1-0.9,1.9-1.9,1.9c-1,0-1.9-0.7-1.9-1.8c0,0,0,0,0-0.1c0-1,0.9-1.9,1.9-1.9
		C168.3,172.9,169.1,173.7,169.1,174.7C169.1,174.7,169.1,174.7,169.1,174.7z"/>
	<path class="st7" d="M169.6,172.5c-0.2,0.2-1.7-0.9-3.7-1s-3.6,0.9-3.8,0.6s0.1-0.6,0.8-1c0.9-0.6,2-0.9,3.1-0.8
		c1.1,0,2.1,0.4,2.9,1.1C169.5,171.9,169.7,172.4,169.6,172.5z"/>
	<path class="st7" d="M176.4,188.1c1.1-0.3,2.2-0.5,3.4-0.5c0.5,0,1-0.1,1.1-0.5c0.1-0.5,0-1.1-0.3-1.6c-0.4-1.3-0.9-2.7-1.4-4.1
		c-1.9-5.8-3.3-10.6-3-10.6s2,4.6,3.9,10.4l1.3,4.1c0.3,0.6,0.4,1.4,0.2,2.1c-0.2,0.4-0.5,0.6-0.9,0.7c-0.3,0.1-0.6,0.1-0.9,0.1
		C178.7,188.4,177.6,188.3,176.4,188.1z"/>
	<path class="st7" d="M170.4,164.4c-0.2,0.6-2.3,0.2-4.7,0.4s-4.4,0.8-4.7,0.2c-0.1-0.2,0.2-0.8,1-1.3c1.1-0.6,2.3-1,3.5-1.1
		c1.2-0.1,2.5,0.1,3.6,0.6C170.1,163.7,170.6,164.2,170.4,164.4z"/>
	<path class="st7" d="M189.4,167c-0.4,0.5-1.8-0.1-3.5-0.2s-3.2,0.2-3.5-0.3c-0.1-0.2,0.1-0.7,0.8-1.1c0.9-0.5,1.9-0.7,2.9-0.6
		c1,0.1,2,0.4,2.8,1.1C189.4,166.2,189.6,166.7,189.4,167z"/>
	<path class="st7" d="M200.1,146c0.3-1.7-0.4-3.4-1.6-4.5c-1.4-1.1-3.3-1-4.6,0.1c0.6-2.2-0.7-4.4-2.9-5c-0.1,0-0.3-0.1-0.4-0.1
		c-2.2-0.2-4.1,1.3-6.3,1.8c-2.1,0.3-4.3,0-6.2-1c-2-0.9-3.8-2.1-5.8-2.9c-8.7-3.6-18.7,0.5-22.4,9.1c-2.9-1-6.3,0.3-8.2,2.7
		c-1.8,2.5-2.6,5.6-2.3,8.7c0.2,2.1,0.6,4.1,1.3,6.1c0,0.2,0,0.3,0,0.5c-0.2,7.4,0.3,16.1,3.4,16.3c5.5,0.3,4.6-10.1,4.6-10.1
		c6.9-2.3,4.8-12.5,6.5-14s5.4-4.9,19.2,2.9c5.4,3,12.6,3.3,16.7,2.5l0.4-0.1h0.1h0.1c1.3-0.3,2.5-0.7,3.7-1.4
		c1.4-0.7,2.5-1.8,3.1-3.2c0.7-1.4,0.4-3.1-0.6-4.2C199.2,149.2,199.9,147.7,200.1,146z"/>
	<path class="st14" d="M177.5,194.5c-0.3,0.8-0.8,1.6-1.3,2.3c-0.6,0.7-1.4,1.1-2.3,1.2c-1,0-1.8-0.6-2.3-1.4
		c-0.5-0.8-0.7-1.8-0.5-2.7c0.1-0.9,0.5-1.9,1.4-1.9c0.4,0,0.7,0.1,1,0.3l4.4,2"/>
	<path class="st7" d="M175.6,198.1c-0.8,0-1.6-0.1-2.4-0.4c-0.8-0.3-1.4-0.9-1.7-1.7c-0.4-0.9-0.4-2,0.1-2.9
		c0.1-0.2,0.3-0.5,0.4-0.6c0.2-0.2,0.1-0.2,0.3-0.1c0.2,0.1,0.5,0.2,0.7,0.3l0.7,0.3c0.9,0.4,1.8,0.8,2.5,1.1
		c0.7,0.4,1.5,0.7,2.4,0.8c-0.6-0.6-1.4-1-2.1-1.3c-0.7-0.4-1.5-0.8-2.4-1.3l-0.7-0.4c-0.2-0.1-0.4-0.2-0.8-0.4
		c-0.2-0.1-0.4-0.1-0.7,0c-0.2,0.1-0.4,0.2-0.5,0.4c-0.2,0.3-0.4,0.5-0.5,0.8c-0.5,1.1-0.5,2.4,0,3.6c0.4,0.9,1.2,1.6,2.2,1.9
		c0.6,0.2,1.3,0.3,1.9,0.1C175.4,198.3,175.6,198.2,175.6,198.1z"/>
	<path class="st10" d="M154.5,152.6c0-0.5,0-1.1,0.1-1.6c0.3-1.5,1.1-2.8,2.3-3.7c1.7-1.4,3.9-2,6.1-1.7c2.7,0.3,5.3,1,7.8,2.1
		c1.3,0.5,2.6,1,4,1.4c3.5,0.9,7.1,0.9,10.6,0.1c1.5-0.4,2.9-0.9,4.2-1.6c0.4-0.2,0.7-0.4,1.1-0.6c0.1-0.1,0.2-0.1,0.4-0.2
		c0,0-0.5,0.3-1.5,0.7c-1.4,0.6-2.8,1.1-4.2,1.4c-3.4,0.8-7,0.8-10.4-0.2c-1.3-0.4-2.6-0.8-4-1.4c-2.5-1.1-5.2-1.8-7.9-2.1
		c-2.3-0.2-4.5,0.5-6.3,1.9c-1.2,1-2,2.4-2.2,3.9C154.3,151.5,154.3,152,154.5,152.6z"/>
	<path class="st10" d="M143.1,174.8c0,0,0.1-0.1,0.2-0.3s0.3-0.5,0.5-0.8c0.5-1.1,0.9-2.2,1.2-3.3c0.4-1.7,0.6-3.4,0.6-5.2
		c-0.2-2.1-0.5-4.2-0.9-6.3c-0.5-2-0.4-4.2,0.2-6.2c0.3-0.9,0.8-1.6,1.4-2.3c0.6-0.6,1.2-1,2-1.2c1.1-0.4,2.3-0.3,3.3,0.2
		c0.4,0.2,0.7,0.5,1,0.8c-0.2-0.4-0.5-0.7-0.9-0.9c-1.1-0.6-2.3-0.7-3.5-0.4c-0.8,0.2-1.5,0.6-2.1,1.2c-0.7,0.7-1.2,1.5-1.5,2.4
		c-0.7,2.1-0.8,4.2-0.3,6.4c0.5,2.1,0.8,4.1,1,6.2c0.1,1.7-0.1,3.4-0.5,5.1c-0.3,1.1-0.6,2.2-1.1,3.3
		C143.2,174.4,143,174.8,143.1,174.8z"/>
	<path class="st10" d="M153.2,151.4c0-0.2,0-0.4,0-0.5v-1.6c0-1.9,0.3-3.8,0.9-5.6c0.4-1.2,1.1-2.3,1.9-3.3c1-1.1,2.3-1.9,3.7-2.2
		c1.6-0.3,3.3-0.2,4.8,0.4c1.7,0.6,3.2,1.4,4.7,2.4c1.5,1,3,1.9,4.7,2.6c1.5,0.7,3.2,1.1,4.9,1.2c1.5,0.1,3,0,4.5-0.4
		c1.3-0.3,2.5-0.8,3.7-1.4c1.7-0.9,3.2-2.1,4.5-3.5c0.3-0.4,0.7-0.8,0.9-1.2c0.1-0.1,0.2-0.3,0.3-0.5c-0.1,0.1-0.2,0.3-0.4,0.4
		c-0.3,0.4-0.6,0.8-1,1.2c-1.3,1.4-2.8,2.5-4.5,3.4c-1.2,0.6-2.4,1-3.7,1.3c-1.5,0.3-2.9,0.4-4.4,0.3c-1.6-0.1-3.2-0.5-4.7-1.2
		c-1.6-0.8-3.1-1.7-4.6-2.6c-1.5-1-3.1-1.8-4.8-2.4c-1.6-0.6-3.3-0.7-5-0.4c-1.5,0.4-2.9,1.2-3.9,2.4c-0.9,1-1.6,2.2-2,3.4
		c-0.6,1.8-0.8,3.7-0.8,5.6c0,0.7,0,1.2,0.1,1.6C153.1,151.1,153.2,151.3,153.2,151.4z"/>
	<path class="st13" d="M213.8,269.5l40.4-45.4l5.7-8c0,0,14-17.3,15.1-19.1c1.3-2.1,2.6-2,3.4-1.5c1.2,0.8,1.1,2.9,0,4.7
		c-0.4,0.6-6.6,10.5-6.6,10.5c1.2-0.6,2.4-1.1,3.6-1.5c2.6-1,6.7,0.1,10.2,2.4s4.2,3.3,3.4,4.6c-0.3,0.5-0.9,0.9-1.5,0.9
		c-1.2,0.1-2.3-0.2-3.3-0.8c-6.9-4.1-8.5-1.4-8.5-1.4l-0.9,1c0,0,5.1-0.3,7.2,2.4c0.3,0.4,0.5,0.9,0.7,1.4c2.4,1.5,3.2,4.7,1.7,7.2
		c-0.5,0.8-1.1,1.4-1.9,1.8c-0.7,0.5-1.7,0.5-2.5,0c-0.3-0.4-0.5-0.8-0.6-1.2c-0.1-0.2-0.2-0.5-0.3-0.7l-2.5,2.6c0,0-6,5.6-8.3,8.4
		l-35.7,44.6c-4.6,6.7-11.7,12.3-18.3,7.5l0,0C207,284.9,207.6,275.9,213.8,269.5z"/>
	<path class="st13" d="M256.3,224.4c1,0.8,2.4,0.9,3.5,0.2c1.1-0.6,2-1.5,3.1-2.2c3.2-2,7.7-1.1,10.8-3.2c0.4-0.3,0.9-0.8,0.7-1.3
		s-0.8-0.6-1.3-0.6l-12.5-0.6"/>
	<path class="st14" d="M260.6,216.8c0.4-0.1,0.9-0.1,1.4-0.1c0.9,0,2.1,0,3.7,0.1l5.5,0.2l1.6,0.1c0.6-0.1,1.3,0.1,1.8,0.5
		c0.3,0.3,0.3,0.8,0.1,1.2c-0.2,0.3-0.4,0.6-0.7,0.8c-0.5,0.3-1.1,0.6-1.6,0.9c-2.3,0.9-4.7,0.9-6.6,1.4c-0.9,0.2-1.8,0.5-2.6,1
		c-0.8,0.4-1.4,1-2.1,1.4c-1,0.9-2.3,1.2-3.6,1c-0.9-0.2-1.2-0.8-1.1-0.8c0.4,0.2,0.8,0.4,1.2,0.5c1.2,0.1,2.4-0.3,3.3-1.1
		c0.7-0.6,1.3-1.1,2.1-1.6c0.9-0.5,1.8-0.9,2.8-1.1c2-0.5,4.4-0.6,6.5-1.4c0.5-0.2,1-0.5,1.5-0.8c0.4-0.3,0.7-0.7,0.5-0.9
		s-0.8-0.3-1.3-0.3l-1.6-0.1l-5.5-0.3c-1.6-0.1-2.8-0.2-3.7-0.3C261.5,217,261.1,216.9,260.6,216.8z"/>
	<path class="st14" d="M274.8,216c0.5-0.6,1.1-1.2,1.8-1.5c0.8-0.3,1.7-0.4,2.5-0.2c1,0.3,2,0.7,2.9,1.3c0.9,0.6,2,1.1,3,1.5
		c0.9,0.3,1.8,0.4,2.7,0.2c0.6-0.1,1.2-0.5,1.5-1.1c0.1-0.2,0.2-0.4,0.1-0.7c0,0-0.1,0.2-0.3,0.6c-0.3,0.5-0.8,0.8-1.4,0.9
		c-0.9,0.1-1.7,0-2.5-0.3c-1-0.4-2-0.9-2.9-1.5c-0.9-0.6-2-1-3.1-1.3c-0.9-0.2-1.9-0.1-2.7,0.3c-0.6,0.3-1,0.7-1.4,1.2
		C275,215.6,274.9,215.8,274.8,216z"/>
	<path class="st14" d="M278.9,199.4c-0.5,0.6-0.9,1.3-1.2,2c-0.8,1.4-1.8,3-2.9,4.8s-2.1,3.4-3,4.7c-0.4,0.6-0.8,1.3-1.2,2
		c0.6-0.5,1-1.2,1.5-1.8c0.8-1.2,1.9-2.8,3.1-4.7s2.1-3.6,2.8-4.9C278.3,200.9,278.7,200.2,278.9,199.4z"/>
	<path class="st14" d="M275.7,219.6c0,0,0.2,0.1,0.7,0.1c0.6,0.1,1.2,0.4,1.6,0.9c0.2,0.4,0.2,0.8,0,1.1c-0.2,0.4-0.5,0.9-0.9,1.2
		c-0.4,0.5-0.7,1.1-0.7,1.7c0,0.7,0.4,1.3,1,1.7c0.6,0.4,1.3,0.5,2,0.3c0.6-0.1,1.2-0.5,1.6-0.9c0.6-0.8,1.1-1.6,1.5-2.6
		c0.3-0.6,0.5-1.3,0.5-1.9c0-0.3,0-0.5-0.1-0.7c0,0,0,0.3-0.1,0.7c-0.1,0.6-0.3,1.3-0.6,1.8c-0.4,0.9-0.9,1.7-1.5,2.4
		c-0.8,0.8-2,1.1-3,0.5c-0.5-0.3-0.8-0.8-0.8-1.4c0-0.5,0.2-1,0.6-1.4c0.4-0.4,0.7-0.9,0.9-1.3c0.2-0.5,0.2-1-0.1-1.5
		c-0.4-0.6-1.1-0.9-1.8-0.9C276.2,219.5,275.9,219.6,275.7,219.6z"/>
	<path class="st14" d="M279.4,226.3c0,0-0.2,0.2-0.3,0.6c-0.1,0.6,0.1,1.3,0.5,1.7c0.7,0.7,1.7,0.9,2.6,0.7c1.1-0.3,2-1,2.6-2
		c0.6-1,0.9-2.1,0.8-3.2c-0.1-0.9-0.4-1.8-0.9-2.5c-0.3-0.5-0.8-0.9-1.3-1.3c-0.2-0.1-0.4-0.2-0.6-0.3c0.6,0.5,1.1,1.1,1.6,1.7
		c1,1.6,1,3.7,0,5.3c-0.5,0.9-1.3,1.5-2.3,1.9c-0.8,0.2-1.6,0-2.2-0.5c-0.4-0.4-0.6-0.9-0.6-1.5
		C279.3,226.5,279.4,226.3,279.4,226.3z"/>
	<path class="st14" d="M268.4,228.7c-0.3-0.3-0.6-0.5-1-0.6c-0.9-0.3-1.9-0.3-2.8,0l0.3,0.3c0.2-0.5,0.4-1,0.6-1.5
		c0.7-1.7,0.8-3.6,0.5-5.4c-0.2,1.8-0.5,3.5-1,5.2c-0.2,0.5-0.4,1-0.6,1.4l-0.2,0.5l0.5-0.2c0.8-0.3,1.7-0.3,2.6-0.1
		C268,228.6,268.4,228.8,268.4,228.7z"/>
	<path class="st14" d="M279.1,211.9c-0.1,0-0.2,0.9,0.5,1.9s1.5,1.2,1.6,1.1s-0.6-0.5-1.2-1.3S279.2,211.9,279.1,211.9z"/>
	<path class="st8" d="M173.5,228.4l37.5,37.1l27.5-28.3l5.2-2.3l6.9-7l16,18.1l-33.9,44.3c-4.4,5.7-10.6,9.8-17.6,11.6l0,0
		c-10.7,2.6-22-0.4-29.9-8.1l-28.9-28.3"/>
	<path class="st7" d="M214.6,287.1c-0.1-1.1-0.1-2.2-0.1-3.2c0-2.6-0.2-5.2-0.6-7.7c-0.4-2.6-1.1-5.1-1.9-7.5c-0.6-1.9-1.1-3-1-3.1
		c0.2,0.2,0.3,0.5,0.4,0.8c0.2,0.5,0.6,1.2,0.9,2.2c1,2.4,1.6,5,2.1,7.6c0.4,2.6,0.6,5.2,0.5,7.8c0,1-0.1,1.8-0.1,2.4
		C214.8,286.6,214.8,286.9,214.6,287.1z"/>
	<g class="st2">
		<path d="M184.9,240.6c5.9,5.7,7.4,13,10.7,20.5c3.9,8.8,10.9,17.4,13.6,26.7c0.9,2.8,1,5.7,0.1,8.5c-1,2.7-3.8,6-6.7,6.2l-6-1.6
			L184.9,240.6z"/>
	</g>
	<path class="st7" d="M259.1,255.9c-0.1,0.1-3.6-4.1-7.8-9.4s-7.4-9.7-7.3-9.8s3.6,4.1,7.8,9.4S259.2,255.8,259.1,255.9z"/>
	<polygon class="st9" points="243.7,330.4 232.8,363.8 261.7,350.7 271.1,320.1 	"/>
	<path class="st8" d="M145.4,209.1l-4.2,10.2c0,0-5.5,11.7-11.6,19.7c-6.7,8.7-8.2,36.7-8.2,36.7l6.3,85.9l-2.2,4.2
		c-1,1.9-0.5,8.9,1.7,9l71.2,3.3c1.7,0.1,2.9-6,2.8-7.7l-5.7-103.8l-11.6-28.3l-3.7-5.6l-0.1-7l-24.8-7.7
		C150.8,216.7,147.2,213.4,145.4,209.1L145.4,209.1z"/>
	<g class="st2">
		<path d="M129,341.4c10.8,6.9,21.7,13.8,33.8,18.3s25.6,6.2,38,2.8l-0.4-8.9l-68.1-18.9L129,341.4z"/>
	</g>
	<path class="st8" d="M148.5,241.3c0,0-19.5-1.7-23.5,22.7s2.5,77.1,4.3,77.6c0,0,34.9,14.9,71.1,18.4l25.4-4.7l-3-24.2l-18.7,1
		c0,0-0.8-4.7-7.9-6.6c-10.2-2.8-30.6-7.6-30.6-7.6s0.9-24.3,1.1-31.4s2.7-38-13.6-43.8"/>
	<path class="st7" d="M183.8,238.3c0.1,0.2,0.3,0.5,0.4,0.7l0.9,2.1l3.3,7.8c1.4,3.3,3,7.3,4.9,11.6c0.5,1.1,0.9,2.2,1.4,3.4
		c0.5,1.2,0.9,2.4,1.2,3.6c0.3,1.3,0.4,2.6,0.4,4c0.1,1.3,0.1,2.7,0.2,4c0.6,10.9,1.2,20.9,1.5,28c0.1,3.6,0.2,6.5,0.2,8.5
		c0,1,0,1.7,0,2.3c0,0.3,0,0.5,0,0.8c-0.1-0.3-0.1-0.5-0.1-0.8c0-0.6-0.1-1.3-0.1-2.3c-0.1-2.1-0.2-4.9-0.4-8.5
		c-0.4-7.2-1-17.1-1.6-28c-0.1-1.4-0.1-2.7-0.2-4c0-1.3-0.1-2.6-0.4-3.9c-0.3-1.2-0.6-2.4-1.2-3.6l-1.4-3.4
		c-1.8-4.4-3.4-8.3-4.8-11.7s-2.4-6-3.2-7.9l-0.8-2.2C184,238.8,183.9,238.6,183.8,238.3z"/>
	<path class="st7" d="M179.9,225.7c0,0.3-0.1,0.7-0.2,1c-0.2,0.7-0.4,1.6-0.9,2.9c-1.1,3.3-2.6,6.5-4.4,9.6l-0.1,0.2l-0.2-0.2
		c-3.2-2.5-6.9-4.6-10.7-6c-3.4-1.4-6.8-2.6-9.7-4c-2.6-1.2-5.1-2.7-7.4-4.4c-1.5-1.2-2.9-2.6-4-4.2c-0.3-0.4-0.6-0.9-0.9-1.3
		c-0.1-0.2-0.2-0.3-0.2-0.5c0.1,0,0.4,0.6,1.3,1.7c1.2,1.5,2.6,2.9,4.1,4c2.3,1.7,4.7,3.1,7.3,4.3c2.9,1.4,6.2,2.5,9.7,4
		c3.9,1.5,7.5,3.5,10.8,6.1l-0.4,0.1c1.8-3,3.3-6.2,4.6-9.4c0.4-1.2,0.8-2.1,1-2.8C179.7,226.4,179.8,226,179.9,225.7z"/>
	<path class="st7" d="M153.1,242.7c0,0,0.5,0.2,1.4,0.5c0.4,0.2,1,0.5,1.6,0.8c0.7,0.4,1.4,0.9,2,1.5c1.7,1.5,3.1,3.4,4.2,5.4
		c1.4,2.8,2.5,5.7,3.2,8.7c1.6,6.8,2,15.4,1.6,25.2s-0.7,20.9-1.1,33.1l-0.2-0.2c6.2,1.4,12.8,3,19.6,4.7c3.4,0.9,6.9,1.7,10.5,2.7
		c3.7,0.9,6.9,3.5,8.6,6.9l-0.2-0.1l18.7-1h0.2v0.2c1,7.7,2,15.9,3,24.2v0.2h-0.2l-23.7,4.4l-1.8,0.3h-0.1
		c-6.5-0.7-12.9-1.6-19.2-2.9s-12.4-2.7-18.3-4.3c-11.4-3.1-22.7-6.8-33.6-11.3l0,0c-0.1,0-0.1-0.1-0.2-0.1c0,0-0.1-0.1-0.1-0.1
		c-0.1-0.1-0.1-0.1-0.1-0.2c-0.1-0.1-0.1-0.3-0.2-0.4c-0.1-0.2-0.2-0.5-0.2-0.8c-0.1-0.5-0.3-1-0.4-1.5c-0.2-1-0.4-2-0.6-3.1
		c-0.3-2-0.6-4-0.9-6c-0.5-4-1-7.9-1.3-11.8c-0.8-7.7-1.2-15-1.5-21.9s-0.3-13.4-0.1-19.5c0.1-5.6,0.8-11.1,2.1-16.5
		c1.1-4.4,3.3-8.5,6.4-11.9c2.3-2.5,5.1-4.4,8.3-5.5c2-0.7,4-1.1,6.1-1.3c0.5,0,1.1,0,1.6,0c0.2,0,0.4,0,0.5,0H148
		c-0.4,0-0.9,0-1.6,0.1c-2.1,0.2-4.1,0.6-6,1.3c-3.1,1.2-5.9,3-8.2,5.5c-3,3.4-5.1,7.4-6.2,11.8c-1.2,5.4-1.9,10.9-2,16.4
		c-0.2,6-0.2,12.5,0.1,19.4s0.8,14.2,1.6,21.9c0.4,3.8,0.8,7.8,1.4,11.8c0.3,2,0.6,4,0.9,6c0.2,1,0.4,2,0.6,3c0.1,0.5,0.2,1,0.4,1.5
		c0.1,0.2,0.1,0.5,0.2,0.7s0.1,0.2,0.1,0.3c0,0.1,0,0.1,0.1,0.1l0,0l0,0c0,0,0,0.1,0,0.1l0.1-0.1c11,4.5,22.2,8.3,33.6,11.3
		c5.9,1.6,12.1,3,18.3,4.3s12.7,2.2,19.1,2.9h-0.1l1.8-0.3l23.7-4.4l-0.2,0.3c-1-8.3-2.1-16.5-3-24.2l0.3,0.2l-18.7,1H204l-0.1-0.1
		c-1.7-3.3-4.7-5.8-8.3-6.7c-3.5-1-7-1.9-10.4-2.7c-6.8-1.7-13.4-3.3-19.6-4.7h-0.2v-0.2c0.4-12.2,0.9-23.3,1.2-33.1
		s0.1-18.3-1.5-25.1c-0.7-3-1.7-6-3.1-8.7c-1.1-2-2.4-3.8-4.1-5.4c-0.6-0.5-1.3-1-1.9-1.5c-0.6-0.4-1.1-0.6-1.6-0.9
		C153.6,242.9,153.1,242.7,153.1,242.7z"/>
	<path class="st7" d="M202.8,357.4c-0.1,0,0.1-5.1,0.6-11.4s0.9-11.3,1.1-11.3s-0.1,5.1-0.6,11.4S203,357.4,202.8,357.4z"/>
	<path class="st7" d="M149.8,331c0,0,0-0.3,0.2-0.8c0.3-0.7,0.6-1.4,1-2c1.4-2.1,3.1-3.9,5.2-5.4c2-1.4,4.2-2.7,6.5-3.7
		c0.9-0.5,1.9-0.9,2.9-1.2c-0.9,0.6-1.8,1.1-2.7,1.5c-2.2,1.1-4.3,2.4-6.3,3.8c-2,1.4-3.7,3.2-5.2,5.2
		C150.3,329.9,149.9,331,149.8,331z"/>
	<path class="st7" d="M178.4,365.8c-0.2,0.1-0.3,0.1-0.5,0.1l-1.4,0.2c-1.2,0.2-3,0.4-5.2,0.6s-4.9,0.3-7.8,0.3s-6.1-0.2-9.5-0.6
		s-6.5-1-9.4-1.6s-5.4-1.3-7.5-2s-3.8-1.3-4.9-1.8l-1.3-0.5c-0.2-0.1-0.3-0.1-0.4-0.2c0.2,0,0.3,0.1,0.5,0.1l1.4,0.5
		c1.2,0.4,2.9,1,5,1.6s4.7,1.3,7.5,1.9s6,1.1,9.4,1.5s6.6,0.6,9.5,0.6s5.5,0,7.8-0.1s4-0.3,5.2-0.4l1.4-0.1
		C178,365.8,178.2,365.8,178.4,365.8z"/>
	<path class="st13" d="M265.9,326.8c-0.8-1.1-2-0.9-3.1-0.1l-3.5,2.4c-1,0.6-2,1-3.1,1.3l-1.5,0.3c-3,0.5-6-0.1-8.5-1.8l-0.6-0.4
		c0,0,9.7-2.2,11.2-3.5l0,0c0.8-0.7,0.9-2,0.2-2.8c-0.5-0.5-1.2-0.8-1.9-0.6l-12.2,1.9c-4,0.6-7.8,2.2-11,4.6
		c-3.1,2.3-8.3,5.7-8.6,5.6l2.1,18.5l3.5-0.9l6.3,0.6c4.3,0.4,8.5-0.5,12.4-2.5c2.4-1.2,4.6-2.4,4.8-2.8c0.6-1.5,1.1-3,1.5-4.6
		c0,0,2.4-1.5,2.5-2.5c0-1,0-1.9-0.2-2.9c0,0,6.1-3.6,7.7-4.9C266.5,329.4,266.6,327.8,265.9,326.8z"/>
	<path class="st14" d="M248.8,340.1c1.4-0.3,2.7-0.7,3.9-1.4c1.3-0.6,2.5-1.3,3.5-2.3c-0.1-0.1-1.6,0.9-3.7,1.9
		S248.7,340,248.8,340.1z"/>
	<path class="st14" d="M250.1,343.7c0.8,0,1.5-0.2,2.2-0.6c0.7-0.3,1.3-0.8,1.8-1.4c-0.7,0.3-1.4,0.6-2,1
		C251.3,343,250.7,343.3,250.1,343.7z"/>
	<path class="st14" d="M243.7,327.3c0.4,0.4,0.9,0.8,1.5,1c1.2,0.8,2.6,1.4,3.9,1.9c1.4,0.5,2.8,0.7,4.3,0.7c0.6,0,1.2,0,1.8-0.2
		c-2,0-4-0.4-6-0.9c-1.4-0.5-2.7-1.1-3.9-1.8C244.8,327.8,244.3,327.5,243.7,327.3z"/>
	<g class="st2">
		<path d="M144,222.5c2.7,4.6,6.9,8.1,11.3,11.1c4.5,2.9,9.2,5.5,14,7.7c2.2,1.1,4.6,2.1,7,1.9c0.7,0,1.3-0.3,1.9-0.7
			c0.6-0.7,1-1.6,1-2.5c0.7-4.7,0.9-9.5,0.7-14.3c-1.3,4.7-3.2,9.3-5.7,13.4c0,0-3.9-3.4-15.8-8.2C146.3,226.1,144,222.5,144,222.5z
			"/>
	</g>
	<path class="st10" d="M158.6,433.8c-0.1,0-0.3-7.3-0.4-16.2s0-16.2,0.1-16.2s0.3,7.3,0.4,16.2S158.8,433.8,158.6,433.8z"/>
</g>
<g id="freepik--Desk--inject-40">
	<path class="st7" d="M715,464.8c0,0.1-152.2,0.3-340,0.3S35,465,35,464.8s152.2-0.3,340-0.3S715,464.7,715,464.8z"/>
</g>
</svg>
