<?xml version="1.0" encoding="utf-8"?>
<!-- Generator: Adobe Illustrator 26.0.2, SVG Export Plug-In . SVG Version: 6.00 Build 0)  -->
<svg version="1.1" id="Layer_1" xmlns="http://www.w3.org/2000/svg" xmlns:xlink="http://www.w3.org/1999/xlink" x="0px" y="0px"
	 viewBox="0 0 500 500" style="enable-background:new 0 0 500 500;" xml:space="preserve">
<style type="text/css">
	.st0{fill:#F5F5F5;}
	.st1{fill:#E6E6E6;}
	.st2{fill:#E7ECF1;}
	.st3{fill:#B3B3B3;}
	.st4{fill:#455A64;}
	.st5{fill:#E0E0E0;}
	.st6{opacity:0.2;enable-background:new    ;}
	.st7{opacity:0.2;fill:#FFFFFF;enable-background:new    ;}
	.st8{opacity:0.4;fill:#FFFFFF;enable-background:new    ;}
	.st9{opacity:0.7;fill:#FFFFFF;enable-background:new    ;}
	.st10{fill:#2F4B59;}
	.st11{opacity:0.3;fill:#FFFFFF;enable-background:new    ;}
	.st12{opacity:0.5;fill:#FFFFFF;enable-background:new    ;}
	.st13{opacity:0.4;enable-background:new    ;}
	.st14{opacity:0.1;enable-background:new    ;}
	.st15{opacity:0.3;enable-background:new    ;}
	.st16{opacity:0.1;}
	.st17{fill:#EF3F3D;}
	.st18{fill:#FFFFFF;}
	.st19{opacity:0.3;}
	.st20{opacity:0.6;}
	.st21{fill:#EBEBEB;}
	.st22{opacity:0.15;}
	.st23{fill:#F0F0F0;}
	.st24{fill:#263238;}
	.st25{fill:#37474F;}
	.st26{opacity:0.1;fill:#FFFFFF;enable-background:new    ;}
	.st27{fill:#FFA8A7;}
	.st28{fill:#F28F8F;}
</style>
<g id="freepik--Floor--inject-21">
	<path class="st0" d="M411.1,259.5c-89.5-51.7-234.2-51.7-323.2,0s-88.5,135.5,1,187.2s234.2,51.7,323.2,0S500.6,311.2,411.1,259.5z
		"/>
</g>
<g id="freepik--Shadows--inject-21">
	<path class="st1" d="M400.1,283.7l-70.7-40.6c-3-1.7-6.6-1.7-9.5,0l-9.5,5.5c-1.5,0.9-2,2.8-1.2,4.3c0.3,0.5,0.7,0.9,1.2,1.2
		l3.6,2.1l-8.5,4.9c-1.5,0.9-2,2.8-1.2,4.3c0.3,0.5,0.7,0.9,1.2,1.2l7.7,4.4l-9.2,5.3c-1.5,0.9-2,2.8-1.2,4.3
		c0.3,0.5,0.7,0.9,1.2,1.2l70.7,40.7c3,1.7,6.6,1.7,9.6,0l9.5-5.6c1.5-0.9,2-2.8,1.2-4.3c-0.3-0.5-0.7-0.9-1.2-1.2l-7.6-4.4l9.1-5.4
		c1.5-0.9,2-2.8,1.2-4.3c-0.3-0.5-0.7-0.9-1.2-1.2l-3.5-2l8.5-5c1.5-0.9,2-2.8,1.1-4.4C401,284.4,400.6,284,400.1,283.7z"/>
	<path class="st1" d="M329.6,395.4c-22.7-13.1-59.3-13.1-81.8,0c-3.9,2.2-7.5,5.1-10.6,8.4c-1.7-2.3-3.9-4.2-6.4-5.6
		c-11.3-6.5-29.7-6.5-40.9,0s-11.2,17.2,0.1,23.7s29.6,6.5,40.9,0l0.2-0.1c1.1,7.7,6.7,15.2,16.9,21c22.7,13.1,59.3,13.1,81.8,0
		S352.3,408.5,329.6,395.4z"/>
	<path class="st2" d="M218.9,268.8c-37.3-21.5-97.6-21.5-134.6,0s-36.9,56.4,0.4,78s97.6,21.5,134.6,0S256.1,290.4,218.9,268.8z"/>
	<path class="st1" d="M159.7,408.4c-5.2-3-13.7-3-18.9,0s-5.2,7.9,0.1,11s13.7,3,18.9,0S165,411.4,159.7,408.4z"/>
	<path class="st1" d="M135.4,382.5c-11.4-6.6-29.8-6.6-41,0s-11.2,17.2,0.1,23.8s29.8,6.6,41,0S146.8,389.1,135.4,382.5z"/>
	<path class="st1" d="M270.4,344.1c-6.9-4-17.9-4-24.7,0s-6.8,10.4,0.1,14.3s17.9,4,24.7,0S277.2,348,270.4,344.1z"/>
	<path class="st1" d="M405.1,379.3c-10.1-5.8-26.4-5.8-36.4,0s-10,15.2,0.1,21.1s26.4,5.8,36.4,0S415.2,385.1,405.1,379.3z"/>
	<path class="st1" d="M67,351.3c-6.7-3.9-17.5-3.9-24.2,0s-6.6,10.1,0.1,14s17.5,3.9,24.2,0S73.8,355.2,67,351.3z"/>
	<path class="st1" d="M448,331.2c-7.1-4.1-18.5-4.1-25.5,0s-7,10.7,0.1,14.8s18.4,4.1,25.4,0S455,335.2,448,331.2z"/>
</g>
<g id="freepik--palette-2--inject-21">
	<path class="st3" d="M388.6,276.4L388.6,276.4c0.2,0,0.3-0.1,0.5-0.1l0.1-0.1c0.4-0.2,0.8-0.6,1-1c0.2-0.4,0.3-0.9,0.3-1.4
		c-0.1-0.1-0.2-0.1-0.4-0.2c-0.3-0.2-0.6-0.4-0.9-0.6l0,0c-0.3-0.2-0.6-0.5-0.8-0.8c-0.3-0.3-0.5-0.6-0.7-0.9v-0.1
		c-0.2-0.3-0.4-0.6-0.6-0.9v-0.1c-0.2-0.3-0.3-0.7-0.5-1l0,0c-0.1-0.3-0.3-0.7-0.4-1l0,0c-0.1-0.3-0.2-0.7-0.2-1l0,0
		c0-0.3-0.1-0.6-0.1-1l0,0c0-0.1,0-0.2,0-0.3c-0.8-0.5-1.8-0.5-2.7,0c-0.1,0.1-0.2,0.2-0.3,0.2c0,0-0.1,0.1-0.1,0.1l-0.1,0.1
		l-0.1,0.1c-0.1,0.1-0.2,0.2-0.2,0.4c-0.1,0.2-0.2,0.5-0.3,0.8l0,0l0,0l0,0c-0.1,0.3-0.1,0.6-0.1,0.9l0,0l0,0c0,0.3,0,0.7,0.1,1l0,0
		c0.1,0.3,0.1,0.7,0.2,1l0,0c0.1,0.3,0.2,0.7,0.4,1l0,0c0.1,0.3,0.3,0.7,0.5,1v0.1l0,0c0.2,0.3,0.4,0.6,0.6,0.9l0,0v0l0,0
		c0.2,0.3,0.5,0.6,0.7,0.9c0.3,0.3,0.5,0.5,0.8,0.8l0,0l0,0c0.3,0.2,0.5,0.4,0.8,0.6c0.2,0.1,0.4,0.2,0.6,0.3l0,0
		c0.2,0.1,0.4,0.1,0.6,0.2l0,0c0.2,0,0.4,0.1,0.5,0.1l0,0C388.2,276.5,388.4,276.5,388.6,276.4z"/>
	<polygon class="st4" points="371.7,187.2 356.1,218.6 356.1,218.6 395.2,261.2 410.8,229.7 	"/>
	<polygon class="st4" points="374.2,182.2 413.3,224.7 429,193.2 393.2,154.4 389.8,150.7 374.2,182.2 	"/>
	<polygon class="st4" points="407.9,114.3 392.3,145.7 392.3,145.7 431.5,188.2 447.1,156.8 438.5,147.4 	"/>
	<path class="st5" d="M392.6,283.5l0.1-0.1l0.1-0.2c0.1-0.1,0.2-0.3,0.3-0.4l80.2-161.4l-50.3-54.7l-80.2,161.4
		c-1.2,2.4,0,6.8,2.7,9.7l40.6,44c0.6,0.7,1.4,1.3,2.2,1.8c1.1,0.8,2.7,1,3.9,0.3c0.1-0.1,0.3-0.2,0.4-0.3L392.6,283.5z
		 M410.4,109.2L426,77.8l0,0l29,31.5l10.1,11l0,0l-15.6,31.4L410.4,109.2L410.4,109.2z M407.9,114.2L407.9,114.2l30.6,33.2l8.6,9.3
		l-15.6,31.4l-39.1-42.5l0,0L407.9,114.2z M389.8,150.7L389.8,150.7l3.4,3.6l35.8,38.9l0,0l-15.6,31.4l-39.1-42.5l0,0L389.8,150.7z
		 M371.7,187.2L371.7,187.2l39.1,42.5l0,0l-15.6,31.5l-39.1-42.5l0,0L371.7,187.2z M388.1,276.4c-0.2,0-0.4,0-0.5-0.1l0,0
		c-0.2,0-0.4-0.1-0.6-0.2l0,0c-0.2-0.1-0.4-0.2-0.6-0.3c-0.3-0.2-0.6-0.4-0.8-0.6l0,0c-0.3-0.2-0.6-0.5-0.8-0.8
		c-0.3-0.3-0.5-0.6-0.7-0.9v0c-0.2-0.3-0.4-0.6-0.6-0.9v-0.1c-0.2-0.3-0.3-0.7-0.5-1l0,0c-0.1-0.3-0.3-0.7-0.4-1l0,0
		c-0.1-0.3-0.2-0.7-0.2-1l0,0c0-0.3-0.1-0.7-0.1-1l0,0c0-0.3,0-0.6,0.1-0.9l0,0c0.1-0.3,0.1-0.5,0.3-0.8c0.1-0.1,0.1-0.2,0.2-0.4
		l0.2-0.2c0,0,0.1-0.1,0.1-0.1c0.1-0.1,0.2-0.2,0.3-0.2c0.8-0.4,1.7-0.4,2.5,0c0.1,0,0.3,0.1,0.4,0.2c0.6,0.4,1.2,0.9,1.7,1.4
		c1.6,1.7,2.5,3.9,2.5,6.2c0,0.5-0.1,0.9-0.3,1.4c-0.2,0.4-0.6,0.8-1,1l-0.1,0.1c-0.1,0.1-0.3,0.1-0.4,0.1h0
		C388.5,276.4,388.3,276.4,388.1,276.4L388.1,276.4z"/>
	<polygon class="st4" points="449.6,151.8 465.2,120.3 465.2,120.3 455.1,109.3 426,77.8 426,77.8 410.4,109.2 410.4,109.2 
		410.4,109.2 	"/>
	<polygon class="st6" points="371.7,187.2 356.1,218.6 356.1,218.6 395.2,261.2 410.8,229.7 	"/>
	<polygon class="st4" points="374.2,182.2 413.3,224.7 429,193.2 393.2,154.4 389.8,150.7 374.2,182.2 	"/>
	<polygon class="st7" points="407.9,114.3 392.3,145.7 392.3,145.7 431.5,188.2 447.1,156.8 438.5,147.4 	"/>
	<polygon class="st8" points="449.6,151.8 465.2,120.3 465.2,120.3 455.1,109.3 426,77.8 426,77.8 410.4,109.2 410.4,109.2 
		410.4,109.2 	"/>
	<path class="st5" d="M473.3,121.4l-80.2,161.4c-0.1,0.1-0.2,0.3-0.3,0.4l-0.1,0.2l-0.1,0.1c0,0,0,0,0,0c0,0,0,0-0.1,0.1
		c-0.1,0.1-0.2,0.2-0.4,0.3l-0.1,0l3.8-2.2c0.2-0.1,0.4-0.3,0.6-0.5l0.1-0.2c0.1-0.1,0.1-0.2,0.2-0.3l0.2-0.3l80.2-161.4
		L473.3,121.4z"/>
	<polygon class="st5" points="477.1,119.2 426.7,64.5 422.9,66.7 473.3,121.4 	"/>
	<path class="st8" d="M473.3,121.4l-80.2,161.4c-0.1,0.1-0.2,0.3-0.3,0.4l-0.1,0.2l-0.1,0.1c0,0,0,0,0,0c0,0,0,0-0.1,0.1
		c-0.1,0.1-0.2,0.2-0.4,0.3l-0.1,0l3.8-2.2c0.2-0.1,0.4-0.3,0.6-0.5l0.1-0.2c0.1-0.1,0.1-0.2,0.2-0.3l0.2-0.3l80.2-161.4
		L473.3,121.4z"/>
	<polygon class="st9" points="477.1,119.2 426.7,64.5 422.9,66.7 473.3,121.4 	"/>
	<path class="st3" d="M379.4,287.3c-0.3-0.2-0.6-0.5-0.8-0.7l0,0c-0.3-0.3-0.5-0.5-0.7-0.8l0,0c-0.2-0.3-0.4-0.6-0.6-0.9l-0.1-0.1
		c-0.2-0.3-0.4-0.7-0.5-1l0,0c-0.2-0.3-0.3-0.7-0.4-1l0,0c-0.1-0.3-0.2-0.7-0.3-1l0,0c-0.1-0.3-0.1-0.7-0.1-1l0,0c0-0.2,0-0.4,0-0.6
		c-0.8-0.5-1.9-0.5-2.8,0l-0.2,0.1c-0.1,0.1-0.2,0.2-0.3,0.3c0,0-0.1,0.1-0.1,0.1c-0.1,0.2-0.2,0.4-0.3,0.6l0,0
		c-0.1,0.2-0.2,0.5-0.2,0.8c0,0.3,0,0.6,0,0.9l0,0c0,0.3,0,0.7,0.1,1l0,0c0.1,0.3,0.2,0.7,0.3,1l0,0c0.1,0.3,0.2,0.7,0.4,1l0,0
		c0.1,0.3,0.3,0.6,0.5,1l0.1,0.1c0.2,0.3,0.4,0.6,0.6,0.9l0,0c0.2,0.3,0.5,0.6,0.7,0.8l0,0c0.3,0.3,0.5,0.5,0.8,0.7
		c0.2,0.2,0.4,0.3,0.6,0.4l0,0c0.2,0.1,0.5,0.3,0.7,0.4l0,0c0.2,0.1,0.5,0.1,0.7,0.2l0,0c0.2,0,0.4,0,0.6,0l0,0
		c0.2,0,0.4-0.1,0.6-0.1h0.1c0.8-0.4,1.3-1.2,1.4-2.1c0-0.1,0-0.2,0-0.4c-0.1,0-0.2-0.1-0.4-0.2
		C379.8,287.6,379.6,287.4,379.4,287.3z"/>
	<polygon class="st10" points="375.1,221.4 345.1,198.8 339.1,239 339.1,239 381.4,271 387.4,230.7 	"/>
	<polygon class="st10" points="346.1,192.3 346.1,192.3 388.4,224.3 394.4,184.1 352.1,152.1 	"/>
	<polygon class="st10" points="353,145.7 395.3,177.6 401.4,137.4 367.6,111.9 359,105.4 353,145.7 	"/>
	<polygon class="st10" points="402.3,131 408.3,90.7 366,58.8 360,99 384.1,117.2 	"/>
	<polygon class="st7" points="346.1,192.3 346.1,192.3 388.4,224.3 394.4,184.1 352.1,152.1 	"/>
	<polygon class="st11" points="353,145.7 395.3,177.6 401.4,137.4 367.6,111.9 359,105.4 353,145.7 	"/>
	<polygon class="st8" points="402.3,131 408.3,90.7 366,58.8 360,99 384.1,117.2 	"/>
	<path class="st5" d="M383.7,297.4l0.2-0.2c0.1-0.2,0.2-0.3,0.2-0.5c0-0.1,0.1-0.2,0.1-0.2c0.1-0.3,0.2-0.6,0.2-0.9l30.8-206.6
		l-54.4-41.1l-30.8,206.6c-0.5,3.1,1.5,7.4,4.5,9.6l43.8,33.1c0.3,0.2,0.5,0.4,0.8,0.5c1.6,0.9,3,0.9,4,0.2l0.2-0.2
		C383.5,297.6,383.6,297.5,383.7,297.4z M366,58.8L366,58.8l42.3,32l-6,40.2l0,0l-18.2-13.8L360,99L366,58.8z M359,105.4L359,105.4
		l8.6,6.5l33.7,25.5l0,0l-6,40.2l-42.3-32l0,0L359,105.4z M352,152.1L352,152.1l42.3,32l0,0l-6,40.2l-42.3-32l0,0L352,152.1z
		 M380.3,288.2c-0.1,0.9-0.6,1.7-1.4,2.1h-0.1c-0.2,0.1-0.4,0.1-0.6,0.1l0,0c-0.2,0-0.4,0-0.6,0l0,0c-0.2,0-0.5-0.1-0.7-0.2l0,0
		c-0.3-0.1-0.5-0.2-0.7-0.4l0,0c-0.2-0.1-0.4-0.3-0.6-0.4c-0.3-0.2-0.6-0.5-0.8-0.7l0,0c-0.3-0.3-0.5-0.5-0.7-0.8l0,0
		c-0.2-0.3-0.4-0.6-0.6-0.9l-0.1-0.1c-0.2-0.3-0.4-0.6-0.5-1l0,0c-0.2-0.3-0.3-0.7-0.4-1l0,0c-0.1-0.3-0.2-0.7-0.3-1l0,0
		c-0.1-0.3-0.1-0.7-0.1-1l0,0c0-0.3,0-0.6,0-0.9c0-0.3,0.1-0.5,0.2-0.8l0,0c0.1-0.2,0.2-0.4,0.3-0.6c0-0.1,0.1-0.1,0.1-0.1
		c0.1-0.1,0.2-0.2,0.3-0.3l0.2-0.1c0.8-0.5,1.9-0.5,2.8,0l0.4,0.2c0.2,0.1,0.4,0.3,0.6,0.4c2.2,1.7,3.5,4.4,3.5,7.2
		C380.4,288,380.4,288.1,380.3,288.2L380.3,288.2z M381.4,271l-42.3-32l0,0l6-40.2l0,0l30,22.7l12.3,9.3L381.4,271z"/>
	<path class="st5" d="M384.5,295.5c0,0.3-0.1,0.6-0.2,0.8v0l0,0c0,0-0.1,0.2-0.1,0.2c0,0.1-0.1,0.2-0.2,0.4c0,0,0,0,0,0.1
		c0,0,0,0,0,0.1l-0.2,0.2l-0.1,0.1c0,0-0.1,0.1-0.1,0.2l-0.1,0.1l-0.2,0.2c-0.1,0-0.1,0.1-0.2,0.1l3.8-2.2c0.2-0.1,0.4-0.2,0.5-0.4
		c0,0,0.1-0.1,0.1-0.2c0.1-0.1,0.2-0.2,0.3-0.3l0,0c0,0,0-0.1,0-0.1c0-0.1,0.1-0.2,0.1-0.2c0-0.1,0.1-0.2,0.1-0.3c0,0,0-0.1,0-0.1v0
		c0,0,0-0.1,0-0.1c0-0.1,0.1-0.2,0.1-0.3l0.1-0.3c0,0,0-0.1,0-0.1l30.8-206.6l-3.8,2.2L384.5,295.5z"/>
	<polygon class="st5" points="364.7,45.5 360.9,47.7 415.3,88.9 419.1,86.7 419.1,86.7 	"/>
	<path class="st12" d="M384.5,295.5c0,0.3-0.1,0.6-0.2,0.8v0l0,0c0,0-0.1,0.2-0.1,0.2c0,0.1-0.1,0.2-0.2,0.4c0,0,0,0,0,0.1
		c0,0,0,0,0,0.1l-0.2,0.2l-0.1,0.1c0,0-0.1,0.1-0.1,0.2l-0.1,0.1l-0.2,0.2c-0.1,0-0.1,0.1-0.2,0.1l3.8-2.2c0.2-0.1,0.4-0.2,0.5-0.4
		c0,0,0.1-0.1,0.1-0.2c0.1-0.1,0.2-0.2,0.3-0.3l0,0c0,0,0-0.1,0-0.1c0-0.1,0.1-0.2,0.1-0.2c0-0.1,0.1-0.2,0.1-0.3c0,0,0-0.1,0-0.1v0
		c0,0,0-0.1,0-0.1c0-0.1,0.1-0.2,0.1-0.3l0.1-0.3c0,0,0-0.1,0-0.1l30.8-206.6l-3.8,2.2L384.5,295.5z"/>
	<polygon class="st9" points="364.7,45.5 360.9,47.7 415.3,88.9 419.1,86.7 419.1,86.7 	"/>
	<path class="st5" d="M368.9,305.8L368.9,305.8c1-0.5,1.5-1.4,1.5-2.4l-0.4-0.2c-0.3-0.2-0.5-0.3-0.8-0.5l0,0
		c-0.3-0.2-0.5-0.4-0.7-0.7l0,0c-0.2-0.2-0.5-0.5-0.7-0.8l0,0c-0.2-0.2-0.4-0.5-0.5-0.8l-0.1-0.1c-0.2-0.3-0.3-0.6-0.5-0.9l0,0
		c-0.2-0.3-0.3-0.7-0.4-1l0,0c-0.1-0.3-0.2-0.7-0.3-1l0,0c-0.1-0.3-0.1-0.7-0.1-1c0-0.3,0-0.6,0-0.9h-0.1c-0.9-0.5-2-0.5-2.8,0.1
		l-0.1,0.1c-0.1,0.1-0.3,0.3-0.4,0.4l0,0c-0.1,0.2-0.2,0.4-0.3,0.7l0,0c-0.1,0.3-0.1,0.5-0.1,0.8l0,0c0,0.3,0,0.7,0,1
		c0,0.3,0.1,0.7,0.1,1l0,0l0,0l0,0c0.1,0.3,0.2,0.7,0.3,1l0,0l0,0c0.1,0.3,0.2,0.6,0.4,1l0,0l0,0l0,0c0.1,0.3,0.3,0.6,0.5,0.9l0,0
		c0,0.1,0.1,0.1,0.1,0.2l0,0c0.2,0.3,0.3,0.5,0.5,0.8l0,0l0,0l0,0c0.2,0.3,0.4,0.5,0.7,0.8l0,0c0.2,0.2,0.5,0.5,0.7,0.6l0,0
		c0.2,0.2,0.5,0.4,0.8,0.5l0,0c0.1,0.1,0.3,0.2,0.5,0.2l0,0c0.3,0.1,0.5,0.2,0.8,0.3l0,0c0.2,0,0.5,0.1,0.7,0.1l0,0
		C368.5,305.9,368.7,305.9,368.9,305.8z"/>
	<path class="st6" d="M368.9,305.8L368.9,305.8c1-0.5,1.5-1.4,1.5-2.4l-0.4-0.2c-0.3-0.2-0.5-0.3-0.8-0.5l0,0
		c-0.3-0.2-0.5-0.4-0.7-0.7l0,0c-0.2-0.2-0.5-0.5-0.7-0.8l0,0c-0.2-0.2-0.4-0.5-0.5-0.8l-0.1-0.1c-0.2-0.3-0.3-0.6-0.5-0.9l0,0
		c-0.2-0.3-0.3-0.7-0.4-1l0,0c-0.1-0.3-0.2-0.7-0.3-1l0,0c-0.1-0.3-0.1-0.7-0.1-1c0-0.3,0-0.6,0-0.9h-0.1c-0.9-0.5-2-0.5-2.8,0.1
		l-0.1,0.1c-0.1,0.1-0.3,0.3-0.4,0.4l0,0c-0.1,0.2-0.2,0.4-0.3,0.7l0,0c-0.1,0.3-0.1,0.5-0.1,0.8l0,0c0,0.3,0,0.7,0,1
		c0,0.3,0.1,0.7,0.1,1l0,0l0,0l0,0c0.1,0.3,0.2,0.7,0.3,1l0,0l0,0c0.1,0.3,0.2,0.6,0.4,1l0,0l0,0l0,0c0.1,0.3,0.3,0.6,0.5,0.9l0,0
		c0,0.1,0.1,0.1,0.1,0.2l0,0c0.2,0.3,0.3,0.5,0.5,0.8l0,0l0,0l0,0c0.2,0.3,0.4,0.5,0.7,0.8l0,0c0.2,0.2,0.5,0.5,0.7,0.6l0,0
		c0.2,0.2,0.5,0.4,0.8,0.5l0,0c0.1,0.1,0.3,0.2,0.5,0.2l0,0c0.3,0.1,0.5,0.2,0.8,0.3l0,0c0.2,0,0.5,0.1,0.7,0.1l0,0
		C368.5,305.9,368.7,305.9,368.9,305.8z"/>
	<polygon class="st10" points="320.8,217.6 321.5,225.6 324.8,263.9 324.8,263.9 324.8,263.9 367.4,283.2 363.4,236.9 	"/>
	<polygon class="st10" points="310.8,102.8 310.8,102.8 353.4,122.1 349.4,75.8 306.8,56.5 310.8,102.8 	"/>
	<polygon class="st10" points="311.5,110.2 315.5,156.5 315.5,156.5 315.5,156.5 358.1,175.8 354.1,129.5 	"/>
	<path class="st5" d="M374.6,312.5c0.1-0.1,0.2-0.2,0.3-0.4l0.1-0.1l0,0l0.1-0.2c0-0.1,0.1-0.2,0.1-0.3s0-0.1,0.1-0.2l0.1-0.3
		l0.1-0.2l0.1-0.4v-0.2c0-0.1,0-0.3,0-0.4s0-0.1,0-0.2s0-0.4,0-0.7l0,0L354.9,71.2L300,46.4L320.7,284c0.4,3.5,2.4,6.6,5.3,8.6
		c0.2,0.1,0.4,0.2,0.6,0.3l44.1,20c1,0.6,2.2,0.6,3.2,0.1c0.2-0.1,0.3-0.2,0.5-0.3L374.6,312.5z M306.8,56.5L306.8,56.5l42.6,19.3
		l4,46.3l-42.6-19.3l0,0L306.8,56.5z M315.1,152.4l-3.7-42.3l0,0l42.6,19.3l0,0l4,46.3l0,0l-42.6-19.3L315.1,152.4z M320.1,210.2
		L320.1,210.2l-4-46.3l0,0l42.6,19.3l4,46.3L320.1,210.2z M320.8,217.6L320.8,217.6l42.6,19.3l0,0l4,46.3l-42.6-19.3l0,0
		L320.8,217.6z M368.3,305.9c-0.2,0-0.5,0-0.7-0.1l0,0c-0.3-0.1-0.6-0.2-0.8-0.3l0,0c-0.2-0.1-0.3-0.2-0.5-0.2l0,0
		c-0.3-0.2-0.5-0.3-0.8-0.5l0,0c-0.2-0.2-0.5-0.4-0.7-0.6l0,0c-0.2-0.2-0.5-0.5-0.7-0.8l0,0c-0.2-0.2-0.4-0.5-0.5-0.8
		c0,0-0.1-0.1-0.1-0.2c-0.2-0.3-0.3-0.6-0.5-0.9l0,0c-0.2-0.3-0.3-0.6-0.4-1l0,0c-0.1-0.3-0.2-0.7-0.3-1l0,0c-0.1-0.3-0.1-0.7-0.1-1
		c0-0.3,0-0.7,0-1l0,0c0-0.3,0.1-0.6,0.1-0.8l0,0c0.1-0.2,0.2-0.5,0.3-0.7l0,0c0.1-0.2,0.2-0.3,0.4-0.4l0.1-0.1
		c0.8-0.6,1.9-0.6,2.8-0.1h0.1l0.4,0.2c2.3,1.5,3.8,4,4.2,6.7c0,0.3,0,0.6,0,0.9c0,1-0.5,2-1.4,2.4H369c-0.2,0.1-0.4,0.1-0.6,0.1
		L368.3,305.9z"/>
	<polygon class="st10" points="358.7,183.2 316.1,163.9 316.1,163.9 320.1,210.2 320.1,210.2 320.1,210.2 320.1,210.2 362.8,229.5 	
		"/>
	<polygon class="st13" points="320.8,217.6 321.5,225.6 324.8,263.9 324.8,263.9 324.8,263.9 367.4,283.2 363.4,236.9 	"/>
	<polygon class="st14" points="310.8,102.8 310.8,102.8 353.4,122.1 349.4,75.8 306.8,56.5 310.8,102.8 	"/>
	<polygon class="st6" points="311.5,110.2 315.5,156.5 315.5,156.5 315.5,156.5 358.1,175.8 354.1,129.5 	"/>
	<polygon class="st15" points="358.7,183.2 316.1,163.9 316.1,163.9 320.1,210.2 320.1,210.2 320.1,210.2 320.1,210.2 362.8,229.5 	
		"/>
	<path class="st5" d="M379.4,307.1c0-0.1,0-0.2,0-0.3c0-0.1,0-0.1,0-0.2L358.7,69l0,0l-3.8,2.2l20.7,237.7l0,0c0,0.2,0,0.5,0,0.7
		l0,0l0,0c0,0.1,0,0.1,0,0.2s0,0.3,0,0.4v0.1v0.1l-0.1,0.4c0,0,0,0.1,0,0.1l0,0v0.1l-0.1,0.3c0,0,0,0.1,0,0.1s0,0,0,0c0,0,0,0,0,0
		c0,0.1-0.1,0.2-0.1,0.3l0,0L375,312l0,0l-0.1,0.2c-0.1,0.1-0.2,0.2-0.3,0.4l-0.1,0.1c-0.1,0.1-0.3,0.2-0.5,0.3l0,0l3.8-2.2
		c0.2-0.1,0.3-0.2,0.5-0.3l0.1-0.1c0.1-0.1,0.2-0.2,0.3-0.3l0.1-0.1v-0.1l0.1-0.1c0,0,0-0.1,0.1-0.1c0-0.1,0.1-0.2,0.1-0.2v0l0,0
		c0-0.1,0.1-0.2,0.1-0.3c0-0.1,0-0.1,0-0.2v-0.1c0-0.1,0-0.2,0-0.2c0-0.1,0-0.2,0-0.3V308c0-0.1,0-0.1,0-0.2c0-0.1,0-0.2,0-0.3
		s0-0.1,0-0.2l0,0l0,0C379.2,307.3,379.3,307.2,379.4,307.1z"/>
	<polygon class="st5" points="358.7,69 303.9,44.2 300,46.4 354.9,71.2 354.9,71.2 358.7,69 	"/>
	<path class="st12" d="M379.4,307.1c0-0.1,0-0.2,0-0.3c0-0.1,0-0.1,0-0.2L358.7,69l0,0l-3.8,2.2l20.7,237.7l0,0c0,0.2,0,0.5,0,0.7
		l0,0l0,0c0,0.1,0,0.1,0,0.2s0,0.3,0,0.4v0.1v0.1l-0.1,0.4c0,0,0,0.1,0,0.1l0,0v0.1l-0.1,0.3c0,0,0,0.1,0,0.1s0,0,0,0c0,0,0,0,0,0
		c0,0.1-0.1,0.2-0.1,0.3l0,0L375,312l0,0l-0.1,0.2c-0.1,0.1-0.2,0.2-0.3,0.4l-0.1,0.1c-0.1,0.1-0.3,0.2-0.5,0.3l0,0l3.8-2.2
		c0.2-0.1,0.3-0.2,0.5-0.3l0.1-0.1c0.1-0.1,0.2-0.2,0.3-0.3l0.1-0.1v-0.1l0.1-0.1c0,0,0-0.1,0.1-0.1c0-0.1,0.1-0.2,0.1-0.2v0l0,0
		c0-0.1,0.1-0.2,0.1-0.3c0-0.1,0-0.1,0-0.2v-0.1c0-0.1,0-0.2,0-0.2c0-0.1,0-0.2,0-0.3V308c0-0.1,0-0.1,0-0.2c0-0.1,0-0.2,0-0.3
		s0-0.1,0-0.2l0,0l0,0C379.2,307.3,379.3,307.2,379.4,307.1z"/>
	<polygon class="st9" points="358.7,69 303.9,44.2 300,46.4 354.9,71.2 354.9,71.2 358.7,69 	"/>
</g>
<g id="freepik--palette-1--inject-21">
	<path class="st5" d="M215.4,126.4c17.3,41.6,27.1,94.6,13.8,144.3c-2.8,10.3-7.1,20-12.9,29c-3.7,6-8.1,11.6-13.3,14.6
		c-0.9,0.5-1.9,1-2.9,1.4c-14.7,5.2-26.9-13.3-41.8-12.8c-4,0.3-7.9,1.6-11.4,3.7c-4.4,2.7-8.6,5.8-12.5,9.1
		c-3.9,3.4-8.1,6.4-12.4,9.1c-3.4,2.1-7.2,3.4-11.2,3.7c-7.1,0.4-13.6-3.7-19.5-8.2C52.8,291,25.5,234.9,27.8,172.1
		c1.3-34,12.5-69.2,32.6-92.9c6.7-8,14.8-14.9,23.9-20.2c20.5-11.8,43.9-13.9,64.4-6.3C177.8,63.6,201,91.9,215.4,126.4z
		 M129.7,277.5c8.1-6.3,10.7-21.7,5.7-34.4c-4.6-11.8-14.3-17.1-22.2-12.5c-0.6,0.3-1.1,0.7-1.6,1.1c-8.1,6.3-10.7,21.7-5.7,34.4
		c4.7,11.8,14.3,17.1,22.1,12.5C128.7,278.3,129.2,277.9,129.7,277.5"/>
	<path class="st0" d="M219.5,128.9c17.3,41.6,27.1,94.6,13.8,144.3c-2.8,10.3-7.1,20-12.9,29c-3.7,6-8.1,11.6-13.3,14.6
		c-0.9,0.5-1.9,1-2.9,1.4c-14.7,5.2-26.9-13.3-41.8-12.8c-4,0.3-7.9,1.5-11.4,3.7c-4.4,2.7-8.6,5.8-12.5,9.2
		c-3.9,3.4-8.1,6.4-12.4,9.1c-3.4,2.1-7.2,3.4-11.1,3.7c-7.1,0.4-13.6-3.7-19.5-8.2C57,293.5,29.6,237.4,32,174.6
		c1.3-34,12.5-69.2,32.6-92.9c6.7-8,14.8-14.8,23.9-20.1c20.5-11.8,43.9-13.9,64.3-6.3C181.9,66.1,205.1,94.4,219.5,128.9z
		 M133.9,280c8.1-6.3,10.7-21.7,5.7-34.4c-4.6-11.8-14.2-17.1-22.2-12.5c-0.6,0.3-1.1,0.7-1.6,1.1c-8.1,6.3-10.7,21.7-5.7,34.4
		c4.7,11.8,14.3,17.1,22.2,12.5C132.8,280.8,133.3,280.4,133.9,280"/>
	<path class="st10" d="M71,125.3c0.4-0.3,0.9-0.4,1.4-0.5c1.9-0.3,3.7,0.6,4.7,2.2c0.5,0.7,0.8,1.5,1.3,2.2s1.5,1.6,2.2,1.4
		c1.1-0.4,2.1-0.9,3.2-1.5c5.5-3.4,9.7-8.5,12-14.5c0.3-1,0.8-2,1.5-2.9c0.2-0.3,0.5-0.6,0.9-0.8c0.5-0.3,1.1-0.4,1.6-0.1
		c1,0.5,1.3,2.1,1.1,3.4c-0.3,1.2-0.9,2.4-1.7,3.3c-1.6,2.1-3.4,3.8-5,5.9c-1.7,2.2-2.9,4.7-3.4,7.5c-0.4,2.9,0.3,6.1,2.2,7.6
		c0.8,0.6,1.8,1.1,2,2.3c0.2,1.6-1.4,2.7-2,4.2c-0.6,1.9,0.6,3.7,1.1,5.6c0.7,2.3,0.6,4.8-0.4,7c-0.6,1.3-1.5,2.4-2.8,3.1
		c-0.6,0.3-1.2,0.5-1.8,0.6c-0.4,0.1-0.9,0.2-1.2,0.4c-1.9,1.1-3.1,4.1-3.3,7c-0.2,3.4,0.6,6.7,2.2,9.6c0.6,1,1.2,2.4,0.6,3.4
		c-0.1,0.2-0.3,0.3-0.4,0.4c-0.8,0.4-1.9-0.4-2.4-1.5c-0.6-1.3-0.8-3-1.8-3.7c-0.7-0.4-1.5-0.4-2.2,0.1c-0.8,0.5-1.5,1.2-2.1,2
		c-0.6,0.9-1.4,1.6-2.3,2.2c-0.6,0.4-1.3,0.5-1.9,0.2c-2.5-1.2-1.5-7.3-4-8.4c-0.6-0.3-1.4-0.2-1.9,0.2c-0.9,0.5-1.8,1.5-2.7,2.1
		c-0.1,0.1-0.3,0.2-0.4,0.2c-2,1.2-4.5,0.7-6.1-1c-1.8-2.3-2.5-5.3-1.7-8.1c0.7-2.5,2.4-4.8,2.2-7.4c-0.2-2-1.6-3.7-3.5-4.3
		c-1.7-0.3-3.5-0.2-5.1,0.2c-1.7,0.5-3.5,0.4-5.1-0.3c-0.6-0.3-1.1-0.8-1.4-1.4c-0.3-0.7-0.2-1.5,0.2-2.1c0.1-0.1,0.2-0.1,0.3-0.2
		c0.7-0.4,1.5,0.2,2.2,0.7c3.4,2.6,8,2.9,11.7,0.7c1-0.6,1.2-2.5,1.1-3.8s-0.5-2.5-0.7-3.8c-0.3-2.8,1.1-5.8,3.1-6.9
		c0.8-0.5,1.7-0.6,2.4-1.1c0.2-0.1,0.4-0.3,0.6-0.5c0.9-1,1.5-2.3,1.7-3.6c0.2-1.4,0.6-2.8,1-4.2C68.8,127.3,69.7,126.1,71,125.3z"
		/>
	<g class="st16">
		<path d="M71,125.3c0.4-0.3,0.9-0.4,1.4-0.5c1.9-0.3,3.7,0.6,4.7,2.2c0.5,0.7,0.8,1.5,1.3,2.2s1.5,1.6,2.2,1.4
			c1.1-0.4,2.1-0.9,3.2-1.5c5.5-3.4,9.7-8.5,12-14.5c0.3-1,0.8-2,1.5-2.9c0.2-0.3,0.5-0.6,0.9-0.8c0.5-0.3,1.1-0.4,1.6-0.1
			c1,0.5,1.3,2.1,1.1,3.4c-0.3,1.2-0.9,2.4-1.7,3.3c-1.6,2.1-3.4,3.8-5,5.9c-1.7,2.2-2.9,4.7-3.4,7.5c-0.4,2.9,0.3,6.1,2.2,7.6
			c0.8,0.6,1.8,1.1,2,2.3c0.2,1.6-1.4,2.7-2,4.2c-0.6,1.9,0.6,3.7,1.1,5.6c0.7,2.3,0.6,4.8-0.4,7c-0.6,1.3-1.5,2.4-2.8,3.1
			c-0.6,0.3-1.2,0.5-1.8,0.6c-0.4,0.1-0.9,0.2-1.2,0.4c-1.9,1.1-3.1,4.1-3.3,7c-0.2,3.4,0.6,6.7,2.2,9.6c0.6,1,1.2,2.4,0.6,3.4
			c-0.1,0.2-0.3,0.3-0.4,0.4c-0.8,0.4-1.9-0.4-2.4-1.5c-0.6-1.3-0.8-3-1.8-3.7c-0.7-0.4-1.5-0.4-2.2,0.1c-0.8,0.5-1.5,1.2-2.1,2
			c-0.6,0.9-1.4,1.6-2.3,2.2c-0.6,0.4-1.3,0.5-1.9,0.2c-2.5-1.2-1.5-7.3-4-8.4c-0.6-0.3-1.4-0.2-1.9,0.2c-0.9,0.5-1.8,1.5-2.7,2.1
			c-0.1,0.1-0.3,0.2-0.4,0.2c-2,1.2-4.5,0.7-6.1-1c-1.8-2.3-2.5-5.3-1.7-8.1c0.7-2.5,2.4-4.8,2.2-7.4c-0.2-2-1.6-3.7-3.5-4.3
			c-1.7-0.3-3.5-0.2-5.1,0.2c-1.7,0.5-3.5,0.4-5.1-0.3c-0.6-0.3-1.1-0.8-1.4-1.4c-0.3-0.7-0.2-1.5,0.2-2.1c0.1-0.1,0.2-0.1,0.3-0.2
			c0.7-0.4,1.5,0.2,2.2,0.7c3.4,2.6,8,2.9,11.7,0.7c1-0.6,1.2-2.5,1.1-3.8s-0.5-2.5-0.7-3.8c-0.3-2.8,1.1-5.8,3.1-6.9
			c0.8-0.5,1.7-0.6,2.4-1.1c0.2-0.1,0.4-0.3,0.6-0.5c0.9-1,1.5-2.3,1.7-3.6c0.2-1.4,0.6-2.8,1-4.2C68.8,127.3,69.7,126.1,71,125.3z"
			/>
	</g>
	<path class="st17" d="M183.7,101.2c0.7-0.2,1.2,0.3,1.4,1c0.1,0.7,0.1,1.4,0,2.1c-0.4,3.3-0.5,6.7-0.2,10c0.1,1.1,0.3,2.2,0.7,3.2
		c0.3,0.9,1,1.7,1.9,2c0.7,0.1,1.4-0.1,2-0.5l0.6-0.3l0.5-0.3c1-0.6,2-1,3.2,0c1.1,1,1.7,2.4,1.7,3.9c0.1,2.7-0.9,5.1-2,7.4
		c-0.9,1.9-0.6,4.1,0.6,5.7c0.5,0.6,1.1,1.3,1.6,2.1c1.2,1.7,3.4,1.8,5.2,0.7c0.5-0.3,0.9-0.6,1.2-1c0.3-0.4,0.8-0.8,1.2-1.2
		c0.1-0.1,0.2-0.1,0.3-0.1c0.9-0.2,1.8,0.9,1.7,2.1c-0.1,0.7-0.5,1.4-1.2,1.7c-0.3,0.1-0.5,0.2-0.8,0.3c-0.9,0-1.8,0-2.7-0.1
		c-0.5,0-1,0.1-1.4,0.4c-1.7,1-2.6,3.8-1.8,6.1c1.2,3.2,2.1,6.4,2.6,9.8c0.7,4.6,0.2,9.8-2,13.6c-1.3,2.2-3,3.9-4.4,5.9
		s-2.4,5-1.7,7.5c0.4,1.6,1.4,2.8,1.4,4.6c0,0.8-0.3,1.5-0.9,1.9c-0.9,0.5-1.6-0.3-2-1.2c-0.4-1.1-0.6-2.3-0.6-3.5
		c-0.1-1.2-0.4-2.3-0.9-3.4c-0.4-0.9-1.4-1.3-2.3-0.9l-0.2,0.1c-0.7,0.8-1.1,1.8-1.2,2.8c-0.1,0.9-0.6,1.7-1.2,2.3
		c-0.1,0.1-0.2,0.1-0.3,0.1c-0.8,0.2-1.6-0.6-2-1.5c-0.3-0.9-0.9-1.8-1.5-2.5c-1.1-0.9-2.6-0.1-3.9,0.2c-4.1,1-8.2-2.8-9.5-7.8
		c-0.9-3.9-0.7-8,0.6-11.8c1-3.1,1.3-6.3,1-9.6c-0.1-1-0.2-2-0.2-3c0.1-0.7-0.1-1.4-0.4-2c-0.6-0.9-1.6-0.5-2.5,0
		c-3.1,1.8-6.2,3.7-8.4,6.8c-0.4,0.6-0.8,1.1-1.4,1.6l-0.2,0.1c-0.5,0.3-1.1,0.3-1.5-0.1c-0.6-0.8-0.6-1.9,0.1-2.8
		c0.2-0.2,0.4-0.4,0.6-0.6c0.5-0.3,1.1-0.4,1.6-0.3c2.3-1.7,4.8-3.3,7.1-5c2.2-1.5,4.2-3.2,5.9-5.2c1.9-2.2,3.1-5,3.5-7.9
		c0.2-1.8-1.6-2.9-2.4-4.4c-1.1-2.4-1.4-5.1-0.7-7.7c0.5-2.3,1.9-4.3,3.9-5.5l0.3-0.2c0.8-0.5,1.8-0.6,2.6-0.3
		c0.7,0.4,1.4,1,1.9,1.7c0.8,1,2.2,1.3,3.3,0.6c0.6-0.4,1.1-0.9,1.4-1.6c0.6-1.4,1-2.9,1.1-4.4c0.1-3-0.2-6-0.8-9
		C183,102.9,183,101.6,183.7,101.2z"/>
	<path class="st10" d="M115.4,74c0.4-0.2,0.9-0.3,1.4-0.3c1.8,0.2,3,1.9,4.4,2.9c1.9,1.2,4.3,1.3,6.2,0.1c1.2-0.7,2.1-1.7,2.8-2.8
		c-0.1-1.7,0.7-3.2,2-4.2c0.1-0.1,0.3-0.2,0.4-0.3c1.1-0.7,2.6-0.5,3.6,0.3c0.6,0.5,1,1.1,1.6,1.6c1.3,1,3,0.8,4.5,1
		c1.4,0.1,2.7,0.8,3.7,1.8c0.6,0.7,1.6,0.9,2.4,0.5c0.4-0.3,0.7-0.6,0.9-1.1c0.4-1.3,0.9-2.5,1.5-3.7c0.3-0.5,0.7-0.9,1.1-1.2
		c0.5-0.4,1.1-0.4,1.6,0c0.9,0.7,0.9,2.6,0.2,3.7c-0.7,1-1.6,1.9-2.6,2.5c-1.1,0.7-1.9,1.7-2.3,2.8c-0.6,2,0.4,4,1.3,5.7
		c1.3,2.4,3,4.9,4.3,7.3c0.4,0.1,0.9,0,1.3-0.2c0.4-0.3,0.8-0.6,1.1-1c0.6-0.8,1.2-1.4,2-2c0.7-0.5,1.7-0.3,2.2,0.4
		c0.1,0.1,0.2,0.3,0.2,0.4c0.2,1.1-0.3,2.2-1.2,2.8l-0.2,0.1c-0.9,0.4-1.9,0.4-2.8,0.9c-1,0.6-1.5,1.9-1.1,3c0.5,1,1.7,0.8,2.6,0.4
		l4.3-1.6c0.7-0.3,1.6-0.6,2.2,0.2c0.6,0.9,0.6,2.1,0,3c-0.2,0.4-0.5,0.7-0.9,0.9c-0.8,0.4-1.7,0.5-2.5,0.3
		c-1.1-0.3-2.2-0.4-3.2-0.2c-0.3,0.1-0.6,0.2-0.9,0.3c-1.9,1.1-3,3.9-3.9,6.4c-0.7,1.7-1,3.6-1,5.4c0.2,2.7,2,5,1.6,7.6
		c-0.2,1.4-1.1,2.5-2.3,3.2c-0.4,0.3-0.9,0.4-1.4,0.5c-1.6,0.3-3.3-0.1-5,0c-1,0-1.9,0.3-2.8,0.7c-0.7,0.4-1.3,1-1.7,1.7
		c-0.5,1.2-0.9,2.5-1.1,3.9c-0.2,1.2-0.8,2.2-1.8,3l-0.2,0.1c-1.5,0.6-2.9-1-3.7-2.6s-1.7-4.4-3.2-4c-4.1,1.1-8.5-1.1-11-5.4
		c-0.5-1-1-1.9-1.7-2.8c-0.6-0.8-1.6-1.1-2.6-0.7c-0.9,0.5-1.3,1.8-1.7,2.9c-0.3,0.7-0.7,1.4-1.4,1.8c-0.3,0.2-0.7,0.2-1.1,0
		c-0.8-0.6-1.1-1.7-0.8-2.7c0.6-2,2.2-2.5,3.4-3.4c1.2-0.8,1.9-2.1,1.9-3.6c-0.3-3.1-3.5-2.6-5-3.9c-0.3-0.2-0.5-0.5-0.6-0.9
		c-0.1-0.4-0.1-0.8,0.1-1.2c0.1-0.1,0.2-0.2,0.3-0.2c0.2-0.1,0.4-0.1,0.6-0.1c0.3,0,0.6,0.1,0.9,0.2c0.3,0,0.6,0,0.9-0.2
		c1-0.6,1.5-2.5,1.6-3.9s-0.1-2.9,0-4.4c0.1-1.6,0.5-3.2,1.1-4.6c1-2.2,2.8-4.2,2.4-6.7c-0.2-1.9-1.6-3.1-2.7-4.3s-2.3-3.7-1.1-5.4
		C114.8,74.4,115.1,74.2,115.4,74z"/>
	<g class="st16">
		<path class="st18" d="M115.4,74c0.4-0.2,0.9-0.3,1.4-0.3c1.8,0.2,3,1.9,4.4,2.9c1.9,1.2,4.3,1.3,6.2,0.1c1.2-0.7,2.1-1.7,2.8-2.8
			c-0.1-1.7,0.7-3.2,2-4.2c0.1-0.1,0.3-0.2,0.4-0.3c1.1-0.7,2.6-0.5,3.6,0.3c0.6,0.5,1,1.1,1.6,1.6c1.3,1,3,0.8,4.5,1
			c1.4,0.1,2.7,0.8,3.7,1.8c0.6,0.7,1.6,0.9,2.4,0.5c0.4-0.3,0.7-0.6,0.9-1.1c0.4-1.3,0.9-2.5,1.5-3.7c0.3-0.5,0.7-0.9,1.1-1.2
			c0.5-0.4,1.1-0.4,1.6,0c0.9,0.7,0.9,2.6,0.2,3.7c-0.7,1-1.6,1.9-2.6,2.5c-1.1,0.7-1.9,1.7-2.3,2.8c-0.6,2,0.4,4,1.3,5.7
			c1.3,2.4,3,4.9,4.3,7.3c0.4,0.1,0.9,0,1.3-0.2c0.4-0.3,0.8-0.6,1.1-1c0.6-0.8,1.2-1.4,2-2c0.7-0.5,1.7-0.3,2.2,0.4
			c0.1,0.1,0.2,0.3,0.2,0.4c0.2,1.1-0.3,2.2-1.2,2.8l-0.2,0.1c-0.9,0.4-1.9,0.4-2.8,0.9c-1,0.6-1.5,1.9-1.1,3c0.5,1,1.7,0.8,2.6,0.4
			l4.3-1.6c0.7-0.3,1.6-0.6,2.2,0.2c0.6,0.9,0.6,2.1,0,3c-0.2,0.4-0.5,0.7-0.9,0.9c-0.8,0.4-1.7,0.5-2.5,0.3
			c-1.1-0.3-2.2-0.4-3.2-0.2c-0.3,0.1-0.6,0.2-0.9,0.3c-1.9,1.1-3,3.9-3.9,6.4c-0.7,1.7-1,3.6-1,5.4c0.2,2.7,2,5,1.6,7.6
			c-0.2,1.4-1.1,2.5-2.3,3.2c-0.4,0.3-0.9,0.4-1.4,0.5c-1.6,0.3-3.3-0.1-5,0c-1,0-1.9,0.3-2.8,0.7c-0.7,0.4-1.3,1-1.7,1.7
			c-0.5,1.2-0.9,2.5-1.1,3.9c-0.2,1.2-0.8,2.2-1.8,3l-0.2,0.1c-1.5,0.6-2.9-1-3.7-2.6s-1.7-4.4-3.2-4c-4.1,1.1-8.5-1.1-11-5.4
			c-0.5-1-1-1.9-1.7-2.8c-0.6-0.8-1.6-1.1-2.6-0.7c-0.9,0.5-1.3,1.8-1.7,2.9c-0.3,0.7-0.7,1.4-1.4,1.8c-0.3,0.2-0.7,0.2-1.1,0
			c-0.8-0.6-1.1-1.7-0.8-2.7c0.6-2,2.2-2.5,3.4-3.4c1.2-0.8,1.9-2.1,1.9-3.6c-0.3-3.1-3.5-2.6-5-3.9c-0.3-0.2-0.5-0.5-0.6-0.9
			c-0.1-0.4-0.1-0.8,0.1-1.2c0.1-0.1,0.2-0.2,0.3-0.2c0.2-0.1,0.4-0.1,0.6-0.1c0.3,0,0.6,0.1,0.9,0.2c0.3,0,0.6,0,0.9-0.2
			c1-0.6,1.5-2.5,1.6-3.9s-0.1-2.9,0-4.4c0.1-1.6,0.5-3.2,1.1-4.6c1-2.2,2.8-4.2,2.4-6.7c-0.2-1.9-1.6-3.1-2.7-4.3s-2.3-3.7-1.1-5.4
			C114.8,74.4,115.1,74.2,115.4,74z"/>
	</g>
	<path class="st10" d="M59.2,198.2c0.5-0.2,0.9,0.4,1.2,0.9c0.8,1.7,1.2,3.7,2.2,5.3s2.6,2.6,3.9,1.9c0.6-0.4,1.1-1,1.6-1.3
		c0.2-0.1,0.4-0.2,0.6-0.2c0.6,0,1.1,0.6,1.7,0.6c0.2,0,0.5,0,0.7-0.2c0.4-0.2,0.7-0.5,1-0.9c0.3-0.3,0.6-0.6,1-0.9
		c0.1-0.1,0.3-0.1,0.4-0.2c1-0.2,1.8,0.9,2.8,1.1s2-0.3,3-0.6c1.7-0.5,3.5-0.2,4.9,0.9c1.6,1.3,2.6,3,3,5c0.2,1.2,1.2,2.1,2.4,2.2
		c0.6,0,1.3-0.2,1.8-0.5c0.3-0.2,0.7-0.4,1-0.7c0.1-0.1,0.3-0.2,0.4-0.3c0.1-0.1,0.2-0.1,0.3-0.1c0.3-0.1,0.6,0,0.7,0.3
		c0.1,0.3,0.1,0.7-0.1,1c-0.2,0.3-0.5,0.5-0.7,0.6l-2.1,1.2c-0.5,0.2-1,0.7-1.2,1.2c-0.1,0.7,0.2,1.5,0.8,1.9
		c0.5,0.4,1.1,0.5,1.6,0.9c0.8,0.7,1.2,1.6,1.3,2.7c-1.3,1.5-1.4,4.7-0.8,6.7c0.4,1,0.7,2.1,0.7,3.2c-0.2,1.6-1.5,2.6-1.6,4.2
		s1,3.1,0.5,4.6c-0.4,1.3-1.9,1.5-2.4,2.8c-0.3,1-0.1,2.1,0.7,2.9c0.6,0.5,1.3,0.8,2,1c0.6,0.2,1.1,0.2,1.7,0.1
		c0.4-0.1,1-0.2,1.3,0.4c0.1,0.5-0.1,1-0.5,1.2c-0.4,0.1-0.9,0.1-1.3-0.1c-0.8-0.5-1.7-1-2.6-1.2c-0.4,0-0.8,0.1-1.1,0.2
		c-0.6,0.3-1,1-1,1.6c0,0.7,0.3,1.3,0.8,1.8c0.4,0.4,0.9,0.8,1.3,1.3c0.7,1.2,1,2.6,0.8,4c-0.2,2.4-1.4,4.6-3.3,6.1
		c-0.2,0.1-0.3,0.2-0.4,0.3c-1.6,1-3.6,1-5.2,0c-0.8-0.5-1.6-1.2-2.5-1c-0.1,0-0.2,0.1-0.3,0.1c-0.6,0.4-1,1-1.3,1.7
		c-0.3,0.7-0.7,1.2-1.3,1.7c-0.1,0.1-0.2,0.1-0.3,0.1c-0.8,0.2-1.5-0.4-2.1-1.1c-0.5-0.7-1-1.4-1.7-2c-1.7-1.3-4.1,0.2-5.8-1.1
		c-1.3-1-1.6-3.3-1.4-5.3c0.3-1.9,0.6-3.9,0.6-5.9c0-0.5-0.1-1-0.3-1.4c-0.2-0.4-0.6-0.6-1-0.5c-0.4,0.3-0.7,0.8-0.8,1.3
		c-0.1,0.5-0.3,1-0.7,1.4c-0.4,0.2-1-0.4-0.7-0.8c1.4-2.4,0-6.4-2-7.8c-1-0.7-2.3-0.9-3-1.9c-0.7-1.3-0.9-2.7-0.7-4.1
		c0.2-1.4,0.2-2.9-0.1-4.3c-0.6-2.1-2.5-3.2-3.3-5.2c-0.6-2.1-0.2-4.4,1-6.3c1.2-1.6,2.5-3,4.1-4.3c1.4-1.6,2.6-3.4,3.3-5.3
		c0.5-1.6,0.3-3.4-0.6-4.8c-0.8-1.4-1.9-2.4-2.7-3.7c-0.2-0.4-0.4-0.8-0.4-1.2C58.7,198.9,58.9,198.5,59.2,198.2z"/>
	<g class="st19">
		<path d="M59.2,198.2c0.5-0.2,0.9,0.4,1.2,0.9c0.8,1.7,1.2,3.7,2.2,5.3s2.6,2.6,3.9,1.9c0.6-0.4,1.1-1,1.6-1.3
			c0.2-0.1,0.4-0.2,0.6-0.2c0.6,0,1.1,0.6,1.7,0.6c0.2,0,0.5,0,0.7-0.2c0.4-0.2,0.7-0.5,1-0.9c0.3-0.3,0.6-0.6,1-0.9
			c0.1-0.1,0.3-0.1,0.4-0.2c1-0.2,1.8,0.9,2.8,1.1s2-0.3,3-0.6c1.7-0.5,3.5-0.2,4.9,0.9c1.6,1.3,2.6,3,3,5c0.2,1.2,1.2,2.1,2.4,2.2
			c0.6,0,1.3-0.2,1.8-0.5c0.3-0.2,0.7-0.4,1-0.7c0.1-0.1,0.3-0.2,0.4-0.3c0.1-0.1,0.2-0.1,0.3-0.1c0.3-0.1,0.6,0,0.7,0.3
			c0.1,0.3,0.1,0.7-0.1,1c-0.2,0.3-0.5,0.5-0.7,0.6l-2.1,1.2c-0.5,0.2-1,0.7-1.2,1.2c-0.1,0.7,0.2,1.5,0.8,1.9
			c0.5,0.4,1.1,0.5,1.6,0.9c0.8,0.7,1.2,1.6,1.3,2.7c-1.3,1.5-1.4,4.7-0.8,6.7c0.4,1,0.7,2.1,0.7,3.2c-0.2,1.6-1.5,2.6-1.6,4.2
			s1,3.1,0.5,4.6c-0.4,1.3-1.9,1.5-2.4,2.8c-0.3,1-0.1,2.1,0.7,2.9c0.6,0.5,1.3,0.8,2,1c0.6,0.2,1.1,0.2,1.7,0.1
			c0.4-0.1,1-0.2,1.3,0.4c0.1,0.5-0.1,1-0.5,1.2c-0.4,0.1-0.9,0.1-1.3-0.1c-0.8-0.5-1.7-1-2.6-1.2c-0.4,0-0.8,0.1-1.1,0.2
			c-0.6,0.3-1,1-1,1.6c0,0.7,0.3,1.3,0.8,1.8c0.4,0.4,0.9,0.8,1.3,1.3c0.7,1.2,1,2.6,0.8,4c-0.2,2.4-1.4,4.6-3.3,6.1
			c-0.2,0.1-0.3,0.2-0.4,0.3c-1.6,1-3.6,1-5.2,0c-0.8-0.5-1.6-1.2-2.5-1c-0.1,0-0.2,0.1-0.3,0.1c-0.6,0.4-1,1-1.3,1.7
			c-0.3,0.7-0.7,1.2-1.3,1.7c-0.1,0.1-0.2,0.1-0.3,0.1c-0.8,0.2-1.5-0.4-2.1-1.1c-0.5-0.7-1-1.4-1.7-2c-1.7-1.3-4.1,0.2-5.8-1.1
			c-1.3-1-1.6-3.3-1.4-5.3c0.3-1.9,0.6-3.9,0.6-5.9c0-0.5-0.1-1-0.3-1.4c-0.2-0.4-0.6-0.6-1-0.5c-0.4,0.3-0.7,0.8-0.8,1.3
			c-0.1,0.5-0.3,1-0.7,1.4c-0.4,0.2-1-0.4-0.7-0.8c1.4-2.4,0-6.4-2-7.8c-1-0.7-2.3-0.9-3-1.9c-0.7-1.3-0.9-2.7-0.7-4.1
			c0.2-1.4,0.2-2.9-0.1-4.3c-0.6-2.1-2.5-3.2-3.3-5.2c-0.6-2.1-0.2-4.4,1-6.3c1.2-1.6,2.5-3,4.1-4.3c1.4-1.6,2.6-3.4,3.3-5.3
			c0.5-1.6,0.3-3.4-0.6-4.8c-0.8-1.4-1.9-2.4-2.7-3.7c-0.2-0.4-0.4-0.8-0.4-1.2C58.7,198.9,58.9,198.5,59.2,198.2z"/>
	</g>
	<path class="st5" d="M132.2,164.9c0.6,0.6,1,1.5,1,2.4c0,0.9,0.3,1.8,0.9,2.5c0.5,0.5,1.3,0.6,1.9,0.1c0.2-0.1,0.4-0.3,0.6-0.5
		c0.7-0.9,1.2-1.9,1.5-3c0.2-0.8,0.6-1.5,1.2-2.1c0.6-0.4,1.3,0.1,1.4,1c0.2,2.1,0.7,4.2,1.6,6.1c1,1.8,2.8,3,4.5,2.3l0.3-0.1
		c0.4-0.2,0.7-0.5,1-0.8c0.3-0.3,0.7-0.5,1.1-0.8c0.5-0.3,1.1-0.4,1.6-0.2c0.8,0.4,1.4,1.1,1.5,2c0.5,2,0,4-0.4,5.9
		c-0.5,1.6-0.5,3.2-0.2,4.8c0.5,1.3,1.2,2.5,2.1,3.6c0.9,1.2,1.2,2.6,1,4.1c-0.4,1.2-1.2,2.2-2.2,3c-0.9,0.8-1.8,1.8-1.6,3.2
		c0.2,0.9,0.3,1.9,0.3,2.9c0,0.9-0.4,1.8-1.1,2.5l-0.1,0.1c-0.5,0.2-1.1,0.3-1.7,0.3c-0.6-0.1-1.2,0-1.7,0.3c-1.2,0.9-1.5,3-2.6,3.7
		c-1,0.5-2-0.2-2.9,0.2l-0.2,0.1c-1,0.6-1.5,2.1-2.4,2.9c-0.1,0.1-0.2,0.2-0.3,0.2c-1.3,0.7-2.8,0-4-0.9s-2.9-2-4.3-1.4l-0.2,0.1
		c-1.4,0.8-2.1,3-3.1,4.6c-0.6,0.8-1.3,1.6-2.2,2.1c-1.4,0.8-3,0.9-4.5,0.3c-0.6-0.4-1.3-0.7-2-0.9c-0.4-0.1-0.9,0-1.3,0.2
		c-0.2,0.1-0.4,0.3-0.6,0.5c-0.4,0.4-0.8,0.8-1.3,1.1c-0.7,0.4-1.6,0.6-2.4,0.4c-1.5-0.4-2.7-1.5-3.1-3c-0.5-1.3-0.6-3-1.4-4
		s-2-1.2-2.4-2.4s0.3-2.6,0.3-3.9c-0.1-1.4-0.7-2.6-1.7-3.6c-0.9-1-1.5-2.3-1.4-3.7c0.2-1.6,1.3-2.6,2.4-3.5
		c1.2-0.8,2.1-2.1,2.2-3.6c0-0.5-0.1-0.9-0.1-1.4c0-0.4,0.1-0.9,0.4-1.2c0.3-0.1,0.6-0.1,0.8-0.2c0.5-0.3,0.4-1.1,0.3-1.7
		c-0.2-0.5-0.3-1.1-0.2-1.7c0.1-0.3,0.2-0.5,0.4-0.6c0.5-0.2,1.1-0.1,1.5,0.2c0.6,0.5,1.2,1.4,1.9,1.5c0.3,0,0.6,0,0.9-0.2
		c0.6-0.4,1-0.9,1.4-1.5c0.4-0.9,1-1.7,1.8-2.3l0.2-0.1c1.2-0.6,2.4,0.5,3.5,1.4c0.3,0.3,0.6,0.5,0.9,0.8c0.5,0.4,1.1,0.4,1.6,0.1
		c1.1-0.8,1.5-2.3,0.9-3.5c-0.6-1-1.4-1.9-2.2-2.7c-0.5-0.4-0.7-1-0.7-1.6c0-0.4,0.3-0.7,0.6-0.9c0.2-0.1,0.5-0.2,0.8-0.1
		c0.6,0.3,1.1,0.7,1.3,1.3c0.3,0.6,0.7,1.1,1.2,1.6c0.6,0.5,1.4,0.5,2,0.2c0.1-0.1,0.2-0.1,0.3-0.2c0.7-0.7,1.1-1.7,1-2.7
		c-0.1-0.7-0.3-1.3-0.4-1.9c-0.1-0.6,0.1-1.2,0.6-1.6c0.6-0.2,1,0.2,1.5,0.5c0.5,0.2,1,0.2,1.5-0.1c0.7-0.4,1.2-1.2,1.3-2.1
		c0-0.8-0.1-1.5-0.2-2.3C131.4,166.2,131.7,165.4,132.2,164.9z"/>
	<path class="st10" d="M186.3,216.4c0.1,0,0.2-0.1,0.2-0.1c2.3-0.9,4,3.9,6.4,3.3c0.2,0,0.3-0.1,0.5-0.2c0.5-0.3,0.9-0.7,1.3-1.2
		c0.4-0.4,0.8-0.8,1.3-1.2l0.2-0.1c1.2-0.5,2.4,0.4,3.3,1.5c0.8,1.2,1.6,2.3,2.6,3.3c1,0.9,2.5,1.1,3.7,0.5
		c3.9-2.7,6.8-6.7,8.2-11.3c0.4-1.5,0.9-3,1.7-4.4c0.3-0.5,0.7-0.9,1.2-1.1c0.6-0.5,1.5-0.5,2.2,0c1.2,1,1.1,3.4,0.3,4.9
		c-0.9,1.3-2,2.5-3.4,3.4c-3.7,3.2-6.3,7.4-7.6,12.1c-0.4,1.5,0,3,1,4.2c0.9,0.9,2,1.3,2.8,2.4c1,1.4,1,3.7,1.7,5.4
		c1,2.9,3.8,4.5,6.2,3.6c0.6-0.3,1.2-0.6,1.9-0.8c0.7-0.2,1.4,0,1.8,0.6c0.5,1,0.3,2.2-0.4,3.1c-0.3,0.3-0.7,0.6-1.1,0.9
		c-0.4,0.2-0.9,0.4-1.4,0.6c-0.2,0.1-0.4,0.2-0.6,0.3c-0.7,0.4-1.2,0.9-1.6,1.6c-0.5,1.5-0.2,3.1,0.9,4.3c1,0.9,2.2,1.3,3.5,1.2
		c1.2-0.1,2.5-0.1,3.7,0c0.7,0,1.3,0.5,1.4,1.2c0.1,0.7-0.2,1.3-0.8,1.7c-0.6,0.2-1.3,0.2-1.8-0.1c-1.2-0.6-2.4-0.9-3.7-0.9
		c-0.4,0-0.8,0.2-1.2,0.4c-0.9,0.5-1.5,1.5-1.6,2.6c0,1.2,0.5,2.4,0.1,3.4c-0.1,0.3-0.3,0.5-0.6,0.6c-0.5,0.3-1.2,0.2-1.7-0.2
		c-0.7-0.7-1.3-1.5-1.7-2.4c-0.5-0.9-1.2-1.7-2-1.7c-0.3,0-0.6,0.1-0.8,0.2c-0.7,0.5-1.2,1.2-1.3,2.1c-0.2,1.2,0.1,2.5,0.7,3.6
		c1.1,1.6,2.5,3,4.2,3.9c1.7,1,3.1,2.5,3.9,4.3c0.8,2,0.4,5-1.2,5.9s-3.4-0.6-4.3-2.5s-1.3-4.2-2.2-6s-2.7-3.2-4.2-2.3
		c-1.3,0.9-1.9,2.8-3,3.4c-0.1,0.1-0.3,0.1-0.4,0.2c-1.5,0.4-2.6-1.6-4-2.1c-1.1-0.4-2.2,0.1-3.3,0.8l-0.4,0.2l-0.5,0.3
		c-0.8,0.6-1.8,0.9-2.7,0.9c-2-0.1-3.4-2.6-4.2-5s-1-5.1-2.2-7.2c-1.6-2.9-4.9-4.6-7.5-3.2c-0.6,0.3-1.2,0.6-1.8,1
		c-1.5,0.8-2.8,1.9-3.7,3.3c-0.3,0.4-0.5,0.9-0.9,1.3c-0.2,0.2-0.4,0.4-0.7,0.6c-0.3,0.2-0.7,0.3-1.1,0.3c-0.7,0-1.4-0.4-1.8-1
		c-0.4-0.6-0.7-1.3-0.7-2c0-1,0.5-2,1.4-2.5c0.1-0.1,0.3-0.1,0.4-0.2c0.6-0.2,1.3-0.1,1.9,0.3c0.9,0.5,2,0.5,2.9-0.1
		c0.1-0.1,0.3-0.2,0.4-0.3c1.1-0.9,1.9-2,2.3-3.4c0.8-2.4,0.5-5.1-0.8-7.3c-0.8-1.2-2-2-2.9-3.2c-1-1.2-1.4-2.9-1-4.5
		c0.6-1.6,2-2.1,3-3.2c1.8-2,1.7-6.2-0.2-8c-0.6-0.5-1.4-0.9-1.6-1.8c-0.2-0.8,0.1-1.7,0.8-2.1c0.2-0.1,0.5-0.2,0.7-0.2
		c1.2-0.1,2.1,0.9,3,1.8s1.8,1.4,2.8,1c0.1,0,0.2-0.1,0.2-0.1c1.1-0.7,1.6-2.6,1.8-4.2S185.1,217,186.3,216.4z"/>
	<g class="st20">
		<path class="st17" d="M186.3,216.4c0.1,0,0.2-0.1,0.2-0.1c2.3-0.9,4,3.9,6.4,3.3c0.2,0,0.3-0.1,0.5-0.2c0.5-0.3,0.9-0.7,1.3-1.2
			c0.4-0.4,0.8-0.8,1.3-1.2l0.2-0.1c1.2-0.5,2.4,0.4,3.3,1.5c0.8,1.2,1.6,2.3,2.6,3.3c1,0.9,2.5,1.1,3.7,0.5
			c3.9-2.7,6.8-6.7,8.2-11.3c0.4-1.5,0.9-3,1.7-4.4c0.3-0.5,0.7-0.9,1.2-1.1c0.6-0.5,1.5-0.5,2.2,0c1.2,1,1.1,3.4,0.3,4.9
			c-0.9,1.3-2,2.5-3.4,3.4c-3.7,3.2-6.3,7.4-7.6,12.1c-0.4,1.5,0,3,1,4.2c0.9,0.9,2,1.3,2.8,2.4c1,1.4,1,3.7,1.7,5.4
			c1,2.9,3.8,4.5,6.2,3.6c0.6-0.3,1.2-0.6,1.9-0.8c0.7-0.2,1.4,0,1.8,0.6c0.5,1,0.3,2.2-0.4,3.1c-0.3,0.3-0.7,0.6-1.1,0.9
			c-0.4,0.2-0.9,0.4-1.4,0.6c-0.2,0.1-0.4,0.2-0.6,0.3c-0.7,0.4-1.2,0.9-1.6,1.6c-0.5,1.5-0.2,3.1,0.9,4.3c1,0.9,2.2,1.3,3.5,1.2
			c1.2-0.1,2.5-0.1,3.7,0c0.7,0,1.3,0.5,1.4,1.2c0.1,0.7-0.2,1.3-0.8,1.7c-0.6,0.2-1.3,0.2-1.8-0.1c-1.2-0.6-2.4-0.9-3.7-0.9
			c-0.4,0-0.8,0.2-1.2,0.4c-0.9,0.5-1.5,1.5-1.6,2.6c0,1.2,0.5,2.4,0.1,3.4c-0.1,0.3-0.3,0.5-0.6,0.6c-0.5,0.3-1.2,0.2-1.7-0.2
			c-0.7-0.7-1.3-1.5-1.7-2.4c-0.5-0.9-1.2-1.7-2-1.7c-0.3,0-0.6,0.1-0.8,0.2c-0.7,0.5-1.2,1.2-1.3,2.1c-0.2,1.2,0.1,2.5,0.7,3.6
			c1.1,1.6,2.5,3,4.2,3.9c1.7,1,3.1,2.5,3.9,4.3c0.8,2,0.4,5-1.2,5.9s-3.4-0.6-4.3-2.5s-1.3-4.2-2.2-6s-2.7-3.2-4.2-2.3
			c-1.3,0.9-1.9,2.8-3,3.4c-0.1,0.1-0.3,0.1-0.4,0.2c-1.5,0.4-2.6-1.6-4-2.1c-1.1-0.4-2.2,0.1-3.3,0.8l-0.4,0.2l-0.5,0.3
			c-0.8,0.6-1.8,0.9-2.7,0.9c-2-0.1-3.4-2.6-4.2-5s-1-5.1-2.2-7.2c-1.6-2.9-4.9-4.6-7.5-3.2c-0.6,0.3-1.2,0.6-1.8,1
			c-1.5,0.8-2.8,1.9-3.7,3.3c-0.3,0.4-0.5,0.9-0.9,1.3c-0.2,0.2-0.4,0.4-0.7,0.6c-0.3,0.2-0.7,0.3-1.1,0.3c-0.7,0-1.4-0.4-1.8-1
			c-0.4-0.6-0.7-1.3-0.7-2c0-1,0.5-2,1.4-2.5c0.1-0.1,0.3-0.1,0.4-0.2c0.6-0.2,1.3-0.1,1.9,0.3c0.9,0.5,2,0.5,2.9-0.1
			c0.1-0.1,0.3-0.2,0.4-0.3c1.1-0.9,1.9-2,2.3-3.4c0.8-2.4,0.5-5.1-0.8-7.3c-0.8-1.2-2-2-2.9-3.2c-1-1.2-1.4-2.9-1-4.5
			c0.6-1.6,2-2.1,3-3.2c1.8-2,1.7-6.2-0.2-8c-0.6-0.5-1.4-0.9-1.6-1.8c-0.2-0.8,0.1-1.7,0.8-2.1c0.2-0.1,0.5-0.2,0.7-0.2
			c1.2-0.1,2.1,0.9,3,1.8s1.8,1.4,2.8,1c0.1,0,0.2-0.1,0.2-0.1c1.1-0.7,1.6-2.6,1.8-4.2S185.1,217,186.3,216.4z"/>
	</g>
</g>
<g id="freepik--Plants--inject-21">
	<path class="st18" d="M71.2,329L55,329.5L38.7,329c-0.7,11,1.4,22.1,4.4,27.6l0,0c0.7,1.4,1.8,2.5,3.2,3.3c4.8,2.8,12.5,2.8,17.3,0
		c1.4-0.7,2.5-1.9,3.2-3.4C69.8,351.1,71.9,340,71.2,329z"/>
	<path class="st21" d="M66.4,322.4c6.4,3.7,6.4,9.6,0.1,13.3s-16.6,3.7-23,0s-6.4-9.6-0.1-13.3S60.1,318.7,66.4,322.4z"/>
	<path class="st5" d="M63.9,323.8c5,2.9,5,7.5,0.1,10.4s-13,2.9-17.9,0s-5-7.5-0.1-10.4S58.9,321,63.9,323.8z"/>
	<g class="st22">
		<path d="M63.9,323.8c5,2.9,5,7.5,0.1,10.4s-13,2.9-17.9,0s-5-7.5-0.1-10.4S58.9,321,63.9,323.8z"/>
	</g>
	<path class="st17" d="M46.7,295.8c-2.7-3.3-5.7-6.2-8.1-9.7c-1.7-2.4-3-5.2-2.3-8c0.8-2.6,3-4.5,5.7-5c2.7-0.4,5.4,0.2,7.6,1.7
		c2.2,1.5,4.2,3.3,5.8,5.5c9.1,11.6,13.5,26.2,12.1,40.9c0,1.7-0.6,3.3-1.5,4.7c-1.2,1.4-3.1,2-4.9,1.5c-4.4-1.3-3.8-7.3-4.6-10.8
		c-1-4.8-2.7-9.5-5.1-13.8C50,300.3,48.5,298,46.7,295.8z"/>
	<path class="st23" d="M61.3,323c-0.2,0-0.3-0.2-0.3-0.4c-0.3-7.1-2.6-31.3-19.3-45.1c-0.2-0.1-0.2-0.4,0-0.5c0.1-0.2,0.4-0.2,0.5,0
		c17,14,19.3,38.5,19.6,45.6c0,0.2-0.1,0.4-0.4,0.4C61.4,323,61.4,323,61.3,323L61.3,323z"/>
	<path class="st17" d="M63.7,323.7c-0.7,3.1-2.7,5.9-5.4,7.5c-2.6,1.2-5.4,1.7-8.2,1.4c-2.8-0.3-5.6-1-8.3-2c-1.3-0.5-2.8-1.1-3-2.7
		c0-0.9,0.3-1.8,1-2.3c0.3-0.3,0.6-0.5,0.9-0.7c0.4-0.3,0.4-0.8,0.2-1.2c-0.1-0.2-0.4-0.3-0.6-0.3c-0.8-0.1-1.6-0.1-2.4-0.3
		c-1.8-0.3-3.6-1.1-5-2.3c-1-0.9-1.8-2.1-2.3-3.4c-0.5-1.1-0.4-2.4,0.3-3.4c0.5-0.4,1.2-0.7,1.8-0.8c0.6-0.1,1.2-0.2,1.8-0.3
		c0.4-0.1,0.7-0.5,0.7-0.9c0-0.3-0.2-0.5-0.5-0.6l-2.5-1c-0.7-0.2-1.4-0.6-1.9-1.2c-0.7-1-0.8-2.3-0.5-3.5c0.3-1.6,0.9-3.1,1.2-4.7
		c0.4-1.6,0.5-3.2,0.2-4.8c4.7-0.5,9.5-0.2,14.1,0.9c1.4,0.3,2.7,0.9,3.9,1.7c1.6,1.3,2,3.1,1.8,5.2c0,0.2,0.1,0.4,0.3,0.4
		c0.1,0,0.3-0.1,0.3-0.2l1.6-3c0.5-0.9,1.6-1.2,2.5-0.8c1.4,0.7,2.7,1.7,3.7,2.9c1.1,1.3,1.7,3,1.6,4.7c-0.2,2.4-0.6,4.7-1.2,7
		c-0.1,0.3,0.1,0.7,0.5,0.8c0.2,0.1,0.4,0,0.5-0.1l0.1-0.1c0.4-0.3,1-0.5,1.5-0.4c1.4,0.2,1.8,1.6,1.9,2.9
		C64.3,319.9,64.1,321.9,63.7,323.7z"/>
	<path class="st6" d="M63.7,323.1c-0.7,3.1-2.7,5.9-5.4,7.5c-2.6,1.2-5.4,1.7-8.2,1.4c-2.8-0.3-5.6-1-8.3-2c-1.3-0.5-2.8-1.1-3-2.7
		c0-0.9,0.3-1.8,1-2.3c0.3-0.3,0.6-0.5,0.9-0.7c0.4-0.3,0.4-0.8,0.2-1.2c-0.1-0.2-0.4-0.3-0.6-0.3c-0.8-0.1-1.6-0.1-2.4-0.3
		c-1.8-0.3-3.6-1.1-5-2.3c-1-0.9-1.8-2.1-2.3-3.4c-0.5-1.1-0.4-2.4,0.3-3.4c0.5-0.4,1.2-0.7,1.8-0.8c0.6-0.1,1.2-0.2,1.8-0.3
		c0.4-0.1,0.7-0.5,0.7-0.9c0-0.3-0.2-0.5-0.5-0.6l-2.5-1c-0.7-0.2-1.4-0.6-1.9-1.2c-0.7-1-0.8-2.3-0.5-3.5c0.3-1.6,0.9-3.1,1.2-4.7
		c0.4-1.6,0.5-3.2,0.2-4.8c4.7-0.5,9.5-0.2,14.1,0.9c1.4,0.3,2.7,0.9,3.9,1.7c1.6,1.3,2,3.1,1.8,5.2c0,0.2,0.1,0.4,0.3,0.4
		c0.1,0,0.3-0.1,0.3-0.2l1.6-3c0.5-0.9,1.6-1.2,2.5-0.8c1.4,0.7,2.7,1.7,3.7,2.9c1.1,1.3,1.7,3,1.6,4.7c-0.2,2.4-0.6,4.7-1.2,7
		c-0.1,0.3,0.1,0.7,0.5,0.8c0.2,0.1,0.4,0,0.5-0.1l0.1-0.1c0.4-0.3,1-0.5,1.5-0.4c1.4,0.2,1.8,1.6,1.9,2.9
		C64.3,319.4,64.1,321.3,63.7,323.1z"/>
	<path class="st23" d="M56.2,330.9c-0.9-3.8-2.2-7.5-3.8-11c0-0.1,0-0.2-0.1-0.3l-0.3-0.6c0.5-4.4,1.7-8.7,3.8-12.6
		c0.1-0.2,0.1-0.4-0.1-0.5c0,0,0,0,0,0c-0.2-0.1-0.4,0-0.5,0.1c-1.9,3.7-3.1,7.6-3.7,11.7c-3.2-6.4-8.3-14-16.2-19.5
		c-0.2-0.1-0.4-0.1-0.5,0.1c-0.1,0.2-0.1,0.4,0.1,0.5c8.2,5.7,13.3,13.6,16.4,20.1c-4.2-1.9-8.9-2.5-13.5-1.8
		c-0.2,0-0.3,0.3-0.3,0.5c0,0.1,0.1,0.3,0.3,0.3h0.2c0.1,0,7.5-1.4,13.8,2.2c1.6,3.5,2.9,7.1,3.8,10.9c0,0.2,0.2,0.3,0.3,0.3H56
		C56.2,331.2,56.3,331,56.2,330.9z"/>
	<path class="st18" d="M452.4,307.7l-17.1,0.5l-17.1-0.5c-0.7,11.6,1.5,23.3,4.6,29.1l0,0c0.7,1.5,1.9,2.7,3.4,3.4
		c5,2.9,13.2,2.9,18.2,0c1.5-0.8,2.7-2,3.4-3.5C450.9,330.9,453.1,319.2,452.4,307.7z"/>
	<path class="st21" d="M447.3,300.7c6.7,3.9,6.7,10.1,0.1,14s-17.5,3.9-24.2,0s-6.7-10.1-0.1-14S440.6,296.8,447.3,300.7z"/>
	<path class="st5" d="M444.6,302.2c5.2,3,5.3,7.9,0.1,10.9s-13.6,3-18.9,0s-5.3-7.9-0.1-10.9S439.4,299.2,444.6,302.2z"/>
	<g class="st22">
		<path d="M444.6,302.2c5.2,3,5.3,7.9,0.1,10.9s-13.6,3-18.9,0s-5.3-7.9-0.1-10.9S439.4,299.2,444.6,302.2z"/>
	</g>
	<path class="st17" d="M463.4,234.6c-38.6,12.6-38.9,38.4-30.2,56.8c2.2,3.7,8.8,5.7,14.6-17.1l-10.1,1.3l11.8-6l3.1-9.2l-9.8,0.7
		l12.5-5.3C457.4,248.7,460.2,241.6,463.4,234.6z"/>
	<path class="st7" d="M463.4,233.8c-38.6,12.6-38.9,38.4-30.2,56.8c2.2,3.7,8.8,5.7,14.6-17.1l-10.1,1.3l11.8-6l3.1-9.2l-9.8,0.7
		l12.5-5.3C457.4,247.8,460.2,240.7,463.4,233.8z"/>
	<path class="st18" d="M452.5,241.1c-20.3,15.4-22.2,33.1-16.4,51.6C434,276.4,431.8,260,452.5,241.1z"/>
	<path class="st17" d="M398,260.9c38,5.4,42.6,29.3,37.6,47.9c-1.4,3.8-7.3,6.8-16.4-13.5l9.6-0.5l-12-3.6l-4.4-8l9.3-1l-12.5-2.8
		C405.9,272.9,402.2,266.8,398,260.9z"/>
	<path class="st18" d="M409.3,265.1c21.5,11,26.2,27.2,23.9,45.3C432.4,294.9,431.7,279.2,409.3,265.1z"/>
	<path class="st17" d="M474.5,269.8c-34.9,0.6-41.7,21.7-39.2,39c0.9,3.6,5.8,6.9,16.3-10.4l-8.6-1.6l11.2-1.9l4.9-6.8l-8.3-1.9
		l11.6-1.1C466.1,279.8,470.1,274.7,474.5,269.8z"/>
	<path class="st18" d="M463.9,272.4c-20.6,7.5-26.6,21.6-26.6,38.2C439.8,296.7,442.1,282.6,463.9,272.4z"/>
</g>
<g id="freepik--paint-cans--inject-21">
	<path class="st4" d="M139.2,333.5c0.4,0.4,0.7,0.8,1,1.3C139.9,334.3,139.6,333.9,139.2,333.5z"/>
	<path class="st4" d="M90.7,333.3c1.4-1.5,3.1-2.8,4.9-3.8C93.7,330.5,92.1,331.8,90.7,333.3z"/>
	<path class="st4" d="M134.2,329.5c0.7,0.4,1.3,0.8,1.9,1.2C135.5,330.3,134.9,329.9,134.2,329.5z"/>
	<path class="st4" d="M140.3,334.8c0.3,0.4,0.6,0.9,0.8,1.4C140.9,335.7,140.6,335.3,140.3,334.8z"/>
	<path class="st4" d="M137.9,332.1c0.4,0.4,0.9,0.8,1.3,1.2C138.7,332.9,138.3,332.5,137.9,332.1z"/>
	<path class="st4" d="M87.7,339.2c0.4-2.1,1.3-4,2.7-5.5C89,335.2,88.1,337.1,87.7,339.2z"/>
	<path class="st4" d="M136.3,330.9c0.5,0.4,1,0.7,1.4,1.1C137.3,331.6,136.8,331.2,136.3,330.9z"/>
	<path class="st4" d="M87.6,340.7c0-0.5,0-1,0.1-1.5C87.6,339.7,87.6,340.2,87.6,340.7z"/>
	<path class="st4" d="M136.1,330.7l0.2,0.1L136.1,330.7z"/>
	<path class="st4" d="M90.4,333.7c0.1-0.1,0.2-0.2,0.3-0.3C90.6,333.4,90.5,333.6,90.4,333.7z"/>
	<path class="st4" d="M87.7,339.2L87.7,339.2z"/>
	<path class="st24" d="M97.7,341.7c9.4-5.5,24.9-5.5,34.4,0c2,1.1,3.8,2.7,5.2,4.5c3.7-5.1,2-11.3-5.2-15.5
		c-9.5-5.5-24.9-5.5-34.4,0c-7.2,4.1-8.8,10.3-5.1,15.4C93.9,344.3,95.7,342.8,97.7,341.7z"/>
	<path class="st17" d="M97.8,350.7c9.5,5.5,24.9,5.5,34.4,0c2-1.1,3.8-2.6,5.1-4.4c-1.4-1.9-3.2-3.4-5.2-4.5
		c-9.5-5.5-24.9-5.5-34.4,0c-2,1.1-3.8,2.6-5.1,4.4C94,348,95.8,349.5,97.8,350.7z"/>
	<path class="st4" d="M137.7,332l0.1,0.1L137.7,332z"/>
	<path class="st4" d="M141.1,336.2L141.1,336.2z"/>
	<path class="st25" d="M142.3,340.7L142.3,340.7c0,4.1-2.6,8.1-7.9,11.2c-10.6,6.2-28,6.2-38.7,0c-5.3-3.1-8-7.1-8.1-11.2l0,0v51.5
		l0,0c0,4.1,2.7,8.1,8.1,11.2c10.7,6.2,28.1,6.2,38.7,0c5.3-3.1,8-7.1,7.9-11.2l0,0V340.7L142.3,340.7z"/>
	<path class="st4" d="M140.3,334.7l0.1,0.1L140.3,334.7z"/>
	<path class="st4" d="M139.1,333.3l0.1,0.1L139.1,333.3z"/>
	<path class="st4" d="M95.6,351.9c10.7,6.2,28.1,6.2,38.7,0c5.3-3.1,8-7.1,7.9-11.2c0-1.6-0.4-3.1-1.1-4.5l0,0
		c-0.2-0.5-0.5-0.9-0.8-1.4l-0.1-0.1c-0.3-0.4-0.6-0.9-1-1.3l-0.1-0.1c-0.4-0.4-0.8-0.8-1.3-1.2l-0.1-0.1c-0.4-0.4-0.9-0.8-1.4-1.1
		l-0.2-0.1c-0.6-0.4-1.2-0.8-1.9-1.2c-10.7-6.2-28.1-6.2-38.7,0c-1.8,1-3.4,2.3-4.9,3.8c-0.1,0.1-0.2,0.2-0.3,0.3
		c-1.4,1.6-2.3,3.5-2.7,5.5v0c-0.1,0.5-0.1,1-0.1,1.5C87.6,344.8,90.3,348.8,95.6,351.9z M97.7,330.8c9.4-5.5,24.9-5.5,34.4,0
		s9.6,14.4,0.1,19.9s-24.9,5.5-34.4,0S88.2,336.2,97.7,330.8z"/>
	<path class="st4" d="M406.4,339.9c0.3,0.3,0.6,0.7,0.8,1C407,340.6,406.7,340.2,406.4,339.9z"/>
	<path class="st4" d="M367.5,339.8c1.1-1.2,2.4-2.3,3.9-3.1C369.9,337.6,368.6,338.6,367.5,339.8z"/>
	<path class="st4" d="M402.4,336.7c0.5,0.3,1,0.6,1.5,1C403.5,337.4,402.9,337,402.4,336.7z"/>
	<path class="st4" d="M407.3,341c0.2,0.3,0.5,0.7,0.7,1.1C407.8,341.7,407.5,341.3,407.3,341z"/>
	<path class="st4" d="M405.3,338.8c0.4,0.3,0.7,0.6,1,1C406,339.5,405.7,339.1,405.3,338.8z"/>
	<path class="st4" d="M365.1,344.5c0.3-1.6,1.1-3.2,2.2-4.4C366.2,341.3,365.4,342.9,365.1,344.5z"/>
	<path class="st4" d="M404.1,337.8c0.4,0.3,0.8,0.6,1.2,0.9C404.9,338.4,404.5,338.1,404.1,337.8z"/>
	<path class="st4" d="M365,345.7c0-0.4,0-0.8,0.1-1.2C365,344.9,365,345.3,365,345.7z"/>
	<path class="st4" d="M403.9,337.7l0.1,0.1L403.9,337.7z"/>
	<path class="st4" d="M367.3,340.1c0.1-0.1,0.1-0.2,0.2-0.3C367.4,339.9,367.4,340,367.3,340.1z"/>
	<path class="st4" d="M365.1,344.5L365.1,344.5z"/>
	<path class="st24" d="M373.1,346.5c7.6-4.4,19.9-4.4,27.5,0c1.6,0.9,3.1,2.1,4.2,3.6c3-4.1,1.6-9-4.2-12.4c-7.6-4.4-20-4.4-27.5,0
		c-5.7,3.3-7.1,8.2-4.1,12.3C370.1,348.6,371.5,347.4,373.1,346.5z"/>
	<path class="st17" d="M373.2,353.7c7.6,4.4,20,4.4,27.5,0c1.6-0.9,3-2.1,4.1-3.6c-1.1-1.5-2.6-2.7-4.2-3.6c-7.6-4.4-20-4.4-27.5,0
		c-1.6,0.9-3,2.1-4.1,3.6C370.2,351.6,371.6,352.8,373.2,353.7z"/>
	<path class="st4" d="M405.2,338.7L405.2,338.7L405.2,338.7z"/>
	<path class="st4" d="M408,342.1L408,342.1L408,342.1z"/>
	<path class="st25" d="M408.9,345.7L408.9,345.7c0,3.2-2.1,6.5-6.4,9c-8.5,5-22.5,5-31,0c-4.3-2.5-6.4-5.7-6.5-9l0,0V387l0,0
		c0,3.3,2.2,6.5,6.5,9c8.6,5,22.5,5,31,0c4.2-2.5,6.4-5.7,6.4-9l0,0V345.7L408.9,345.7z"/>
	<path class="st4" d="M407.2,340.9C407.2,340.9,407.2,341,407.2,340.9C407.2,341,407.3,341,407.2,340.9z"/>
	<path class="st4" d="M406.3,339.8L406.3,339.8L406.3,339.8z"/>
	<path class="st4" d="M371.5,354.7c8.6,5,22.5,5,31,0c4.2-2.5,6.4-5.7,6.4-9c0-1.3-0.3-2.5-0.9-3.6l0,0c-0.2-0.4-0.4-0.7-0.7-1.1
		c0,0,0,0,0-0.1c-0.3-0.3-0.5-0.7-0.8-1l-0.1-0.1c-0.3-0.3-0.7-0.7-1-1l-0.1-0.1c-0.4-0.3-0.8-0.6-1.2-0.9l-0.1-0.1
		c-0.5-0.3-1-0.6-1.5-1c-8.6-5-22.5-5-31,0c-1.4,0.8-2.8,1.9-3.9,3.1c-0.1,0.1-0.1,0.2-0.2,0.3c-1.1,1.2-1.9,2.8-2.2,4.4l0,0
		c-0.1,0.4-0.1,0.8-0.1,1.2C365,349,367.2,352.2,371.5,354.7z M373.1,337.8c7.6-4.4,19.9-4.4,27.5,0s7.7,11.5,0.1,16
		s-19.9,4.4-27.5,0S365.6,342.1,373.1,337.8L373.1,337.8z"/>
	<path class="st4" d="M161,385.5c0.2,0.2,0.3,0.4,0.5,0.6C161.3,385.9,161.2,385.7,161,385.5z"/>
	<path class="st4" d="M139.6,385.5c0.6-0.7,1.3-1.2,2.1-1.7C140.9,384.2,140.2,384.8,139.6,385.5z"/>
	<path class="st4" d="M158.8,383.8c0.3,0.2,0.6,0.4,0.8,0.5C159.4,384.1,159.1,383.9,158.8,383.8z"/>
	<path class="st4" d="M161.5,386.1c0.1,0.2,0.3,0.4,0.4,0.6C161.8,386.5,161.6,386.3,161.5,386.1z"/>
	<path class="st4" d="M160.4,384.9c0.2,0.2,0.4,0.3,0.6,0.5C160.8,385.3,160.6,385.1,160.4,384.9z"/>
	<path class="st4" d="M138.2,388c0.2-0.9,0.6-1.8,1.2-2.4C138.8,386.2,138.4,387.1,138.2,388z"/>
	<path class="st4" d="M159.7,384.4c0.2,0.2,0.4,0.3,0.6,0.5C160.1,384.7,159.9,384.5,159.7,384.4z"/>
	<path class="st4" d="M138.2,388.7c0-0.2,0-0.4,0.1-0.6C138.2,388.3,138.2,388.5,138.2,388.7z"/>
	<path class="st4" d="M159.6,384.3L159.6,384.3L159.6,384.3z"/>
	<path class="st4" d="M139.4,385.6c0-0.1,0.1-0.1,0.1-0.1C139.5,385.5,139.5,385.5,139.4,385.6z"/>
	<path class="st4" d="M138.2,388.1L138.2,388.1z"/>
	<path class="st4" d="M142.7,389.1c4.8-2.4,10.4-2.4,15.2,0c0.9,0.5,1.7,1.2,2.3,2c1.6-2.3,0.9-5-2.3-6.8c-4.8-2.4-10.4-2.4-15.2,0
		c-3.1,1.8-3.9,4.5-2.3,6.8C141,390.3,141.8,389.6,142.7,389.1z"/>
	<path class="st17" d="M142.7,393.1c4.2,2.4,11,2.4,15.2,0c0.9-0.5,1.7-1.2,2.3-2c-0.6-0.8-1.4-1.5-2.3-2c-4.8-2.4-10.4-2.4-15.2,0
		c-0.9,0.5-1.7,1.2-2.3,2C141,391.9,141.8,392.6,142.7,393.1z"/>
	<path class="st4" d="M160.4,384.9L160.4,384.9L160.4,384.9z"/>
	<path class="st4" d="M161.9,386.7L161.9,386.7z"/>
	<path class="st4" d="M162.4,388.7L162.4,388.7c0,1.8-1.1,3.6-3.5,5c-4.7,2.7-12.4,2.7-17.1,0c-2.4-1.4-3.6-3.2-3.6-5l0,0v22.7l0,0
		c0,1.8,1.2,3.6,3.6,5c4.7,2.7,12.4,2.7,17.1,0c2.4-1.4,3.5-3.2,3.5-5l0,0V388.7z"/>
	<path class="st4" d="M161.5,386.1L161.5,386.1L161.5,386.1z"/>
	<path class="st4" d="M161,385.5L161,385.5L161,385.5z"/>
	<path class="st4" d="M141.8,393.7c4.7,2.7,12.4,2.7,17.1,0c2.4-1.4,3.5-3.2,3.5-5c0-0.7-0.2-1.4-0.5-2l0,0
		c-0.1-0.2-0.2-0.4-0.4-0.6v0c-0.1-0.2-0.3-0.4-0.5-0.6v0c-0.2-0.2-0.4-0.4-0.6-0.5l-0.1,0c-0.2-0.2-0.4-0.4-0.6-0.5l-0.1-0.1
		c-0.3-0.2-0.5-0.4-0.8-0.5c-4.7-2.7-12.4-2.7-17.1,0c-0.8,0.4-1.5,1-2.1,1.7c0,0-0.1,0.1-0.1,0.1c-0.6,0.7-1,1.5-1.2,2.4l0,0
		c0,0.2,0,0.4-0.1,0.6C138.2,390.5,139.4,392.3,141.8,393.7z M142.7,384.3c4.8-2.4,10.4-2.4,15.2,0c4.2,2.4,4.2,6.4,0.1,8.8
		s-11,2.4-15.2,0S138.5,386.7,142.7,384.3z"/>
	<path class="st11" d="M141.8,393.7c4.7,2.7,12.4,2.7,17.1,0c2.4-1.4,3.5-3.2,3.5-5c0-0.7-0.2-1.4-0.5-2l0,0
		c-0.1-0.2-0.2-0.4-0.4-0.6v0c-0.1-0.2-0.3-0.4-0.5-0.6v0c-0.2-0.2-0.4-0.4-0.6-0.5l-0.1,0c-0.2-0.2-0.4-0.4-0.6-0.5l-0.1-0.1
		c-0.3-0.2-0.5-0.4-0.8-0.5c-4.7-2.7-12.4-2.7-17.1,0c-0.8,0.4-1.5,1-2.1,1.7c0,0-0.1,0.1-0.1,0.1c-0.6,0.7-1,1.5-1.2,2.4l0,0
		c0,0.2,0,0.4-0.1,0.6C138.2,390.5,139.4,392.3,141.8,393.7z M142.7,384.3c4.8-2.4,10.4-2.4,15.2,0c4.2,2.4,4.2,6.4,0.1,8.8
		s-11,2.4-15.2,0S138.5,386.7,142.7,384.3z"/>
	<path class="st4" d="M270.5,317.7c0.2,0.2,0.4,0.4,0.5,0.7C270.9,318.2,270.7,317.9,270.5,317.7z"/>
	<path class="st4" d="M245.6,317.7c0.7-0.8,1.6-1.5,2.5-2C247.2,316.2,246.3,316.9,245.6,317.7z"/>
	<path class="st4" d="M267.9,315.7c0.4,0.2,0.7,0.4,1,0.6C268.6,316.1,268.3,315.9,267.9,315.7z"/>
	<path class="st4" d="M271,318.4c0.2,0.2,0.3,0.5,0.4,0.7C271.3,318.9,271.2,318.7,271,318.4z"/>
	<path class="st4" d="M269.8,317c0.2,0.2,0.5,0.4,0.6,0.6C270.2,317.5,270,317.2,269.8,317z"/>
	<path class="st4" d="M244.1,320.7c0.2-1,0.7-2,1.4-2.8C244.7,318.6,244.3,319.6,244.1,320.7z"/>
	<path class="st4" d="M269,316.4c0.3,0.2,0.5,0.4,0.8,0.6C269.5,316.8,269.2,316.6,269,316.4z"/>
	<path class="st4" d="M244,321.5c0-0.3,0-0.5,0.1-0.8C244,320.9,244,321.2,244,321.5z"/>
	<path class="st4" d="M268.9,316.3L268.9,316.3L268.9,316.3z"/>
	<path class="st4" d="M245.5,317.9c0-0.1,0.1-0.1,0.1-0.2C245.6,317.7,245.5,317.8,245.5,317.9z"/>
	<path class="st4" d="M244.1,320.7L244.1,320.7z"/>
	<path class="st4" d="M249.2,322c4.8-2.8,12.7-2.8,17.6,0c1.1,0.6,2,1.4,2.7,2.3c1.9-2.6,1-5.8-2.7-7.9c-4.9-2.8-12.8-2.8-17.6,0
		c-3.7,2.1-4.5,5.3-2.6,7.9C247.3,323.3,248.2,322.6,249.2,322z"/>
	<path class="st17" d="M249.3,326.5c4.9,2.8,12.8,2.8,17.6,0c1-0.6,1.9-1.3,2.6-2.3c-0.7-1-1.6-1.7-2.7-2.3
		c-4.9-2.8-12.8-2.8-17.6,0c-1,0.6-1.9,1.3-2.6,2.3C247.3,325.2,248.2,326,249.3,326.5z"/>
	<path class="st4" d="M269.7,317L269.7,317L269.7,317z"/>
	<path class="st4" d="M271.5,319.1L271.5,319.1z"/>
	<path class="st4" d="M272.1,321.5L272.1,321.5c0,2.1-1.3,4.2-4.1,5.8c-5.5,3.2-14.4,3.2-19.9,0c-2.7-1.6-4.1-3.7-4.1-5.8l0,0v26.4
		l0,0c0,2.1,1.4,4.2,4.1,5.8c5.5,3.2,14.4,3.2,19.9,0c2.7-1.6,4.1-3.7,4.1-5.8l0,0V321.5L272.1,321.5z"/>
	<path class="st4" d="M271,318.4L271,318.4L271,318.4z"/>
	<path class="st4" d="M270.4,317.7L270.4,317.7L270.4,317.7z"/>
	<path class="st4" d="M248.1,327.2c5.5,3.2,14.4,3.2,19.8,0c2.7-1.6,4.1-3.7,4.1-5.8c0-0.8-0.2-1.6-0.6-2.3l0,0
		c-0.1-0.2-0.3-0.5-0.4-0.7v0c-0.2-0.2-0.3-0.4-0.5-0.7v-0.1c-0.2-0.2-0.4-0.4-0.6-0.6l-0.1-0.1c-0.2-0.2-0.5-0.4-0.8-0.6l-0.1-0.1
		c-0.3-0.2-0.6-0.4-1-0.6c-5.5-3.2-14.4-3.2-19.8,0c-0.9,0.5-1.8,1.2-2.5,2c0,0.1-0.1,0.1-0.1,0.2c-0.7,0.8-1.2,1.8-1.4,2.8l0,0
		c0,0.2-0.1,0.5-0.1,0.8C244,323.5,245.4,325.6,248.1,327.2z M249.2,316.4c4.8-2.8,12.7-2.8,17.6,0s4.9,7.4,0.1,10.2
		s-12.7,2.8-17.6,0S244.4,319.2,249.2,316.4z"/>
	<path class="st11" d="M248.1,327.2c5.5,3.2,14.4,3.2,19.8,0c2.7-1.6,4.1-3.7,4.1-5.8c0-0.8-0.2-1.6-0.6-2.3l0,0
		c-0.1-0.2-0.3-0.5-0.4-0.7v0c-0.2-0.2-0.3-0.4-0.5-0.7v-0.1c-0.2-0.2-0.4-0.4-0.6-0.6l-0.1-0.1c-0.2-0.2-0.5-0.4-0.8-0.6l-0.1-0.1
		c-0.3-0.2-0.6-0.4-1-0.6c-5.5-3.2-14.4-3.2-19.8,0c-0.9,0.5-1.8,1.2-2.5,2c0,0.1-0.1,0.1-0.1,0.2c-0.7,0.8-1.2,1.8-1.4,2.8l0,0
		c0,0.2-0.1,0.5-0.1,0.8C244,323.5,245.4,325.6,248.1,327.2z M249.2,316.4c4.8-2.8,12.7-2.8,17.6,0s4.9,7.4,0.1,10.2
		s-12.7,2.8-17.6,0S244.4,319.2,249.2,316.4z"/>
</g>
<g id="freepik--Character--inject-21">
	<path class="st10" d="M252.8,407c2.3,2.2,5.4,3.3,8.5,3.1c3.1-0.2,6.2-1,9-2.3c2.9-1.2,6.5-4.5,9.6-4.4c3.1,0,6.1-0.2,9.1-0.6
		c0.1-4.2-0.3-8.3-1.3-12.4l-14.5-0.4c-3.9,5.4-11.6,9.9-17.4,11.5c-1.8,0.5-3.2,2-3.6,3.8c0,0,0,0.1,0,0.1
		C252.4,406,252.6,406.5,252.8,407z"/>
	<path class="st10" d="M280,403.4c-3.1-0.1-6.7,3.3-9.6,4.4c-2.8,1.3-5.9,2.1-9,2.3c-3.2,0.2-6.2-1-8.5-3.1c-0.2-0.5-0.4-1-0.5-1.5
		c0,0,0-0.1,0-0.1c-0.1,0.6-0.1,1.3,0,1.9c0.1,0.5,0.3,1,0.5,1.5c2.3,2.2,5.4,3.3,8.5,3.1c3.1-0.2,6.2-1,9-2.3
		c2.9-1.2,6.5-4.5,9.6-4.4c3,0,6-0.2,9-0.5c0.1-0.6,0.1-1.3,0.1-2C286.1,403.1,283.1,403.4,280,403.4z"/>
	<path class="st14" d="M252.8,407c2.3,2.2,5.4,3.3,8.5,3.1c3.1-0.2,6.2-1,9-2.3c2.9-1.2,6.5-4.5,9.6-4.4c3.1,0,6.1-0.2,9.1-0.6
		c0.1-4.2-0.3-8.3-1.3-12.4l-14.5-0.4c-3.9,5.4-11.6,9.9-17.4,11.5c-1.8,0.5-3.2,2-3.6,3.8c0,0,0,0.1,0,0.1
		C252.4,406,252.6,406.5,252.8,407z"/>
	<path class="st26" d="M252.8,407c2.3,2.2,5.4,3.3,8.5,3.1c3.1-0.2,6.2-1,9-2.3c2.9-1.2,6.5-4.5,9.6-4.4c3.1,0,6.1-0.2,9.1-0.6
		c0.1-4.2-0.3-8.3-1.3-12.4l-14.5-0.4c-3.9,5.4-11.6,9.9-17.4,11.5c-1.8,0.5-3.2,2-3.6,3.8c0,0,0,0.1,0,0.1
		C252.4,406,252.6,406.5,252.8,407z"/>
	<path class="st15" d="M280,403.4c-3.1-0.1-6.7,3.3-9.6,4.4c-2.8,1.3-5.9,2.1-9,2.3c-3.2,0.2-6.2-1-8.5-3.1c-0.2-0.5-0.4-1-0.5-1.5
		c0,0,0-0.1,0-0.1c-0.1,0.6-0.1,1.3,0,1.9c0.1,0.5,0.3,1,0.5,1.5c2.3,2.2,5.4,3.3,8.5,3.1c3.1-0.2,6.2-1,9-2.3
		c2.9-1.2,6.5-4.5,9.6-4.4c3,0,6-0.2,9-0.5c0.1-0.6,0.1-1.3,0.1-2C286.1,403.1,283.1,403.4,280,403.4z"/>
	<path class="st10" d="M324.9,415.1c0,1.6-0.1,3.2-0.5,4.7c-0.5,2.8-2.1,5.2-4.3,6.9c-2.1,1.2-4.5,1.8-6.9,1.8
		c-2.1,0.2-4.3,0-6.3-0.6c-1.5-0.5-2.8-1.6-3.7-3c0,0,0,0.1,0,0.1c0.6,2.1,2.2,3.7,4.2,4.4c2,0.7,4.2,0.9,6.3,0.6
		c2.4,0,4.8-0.6,6.9-1.8c2.3-1.7,3.8-4.1,4.3-6.9c0.3-1.6,0.5-3.2,0.5-4.8c0-2.2,0.9-4.3,2.5-5.8c0.4-0.4,0.8-0.8,1.1-1.1
		c0.5-0.6,0.7-1.3,0.7-2.1c0-0.3-0.1-0.6-0.1-0.9c-0.6,0.7-1.9,2.3-2.3,2.6C325.8,410.8,324.9,412.9,324.9,415.1z"/>
	<path class="st10" d="M312.9,398.6c0.5,3.3,0.1,6.6-1.2,9.6c-1.3,3-3,5.8-5.1,8.4c-1,1.2-1.9,2.5-2.7,3.9c-0.7,1.4-1,2.9-0.8,4.5
		c0.9,1.4,2.2,2.5,3.7,3c2,0.7,4.2,0.9,6.3,0.6c2.4,0,4.8-0.6,6.9-1.8c2.3-1.7,3.8-4.1,4.3-6.9c0.3-1.6,0.5-3.1,0.5-4.7
		c0-2.2,0.9-4.3,2.5-5.8c0.3-0.3,1.7-1.9,2.3-2.6c-0.3-2.4-1.1-4.6-2.3-6.7L312.9,398.6z"/>
	<path class="st15" d="M324.9,415.1c0,1.6-0.1,3.2-0.5,4.7c-0.5,2.8-2.1,5.2-4.3,6.9c-2.1,1.2-4.5,1.8-6.9,1.8
		c-2.1,0.2-4.3,0-6.3-0.6c-1.5-0.5-2.8-1.6-3.7-3c0,0,0,0.1,0,0.1c0.6,2.1,2.2,3.7,4.2,4.4c2,0.7,4.2,0.9,6.3,0.6
		c2.4,0,4.8-0.6,6.9-1.8c2.3-1.7,3.8-4.1,4.3-6.9c0.3-1.6,0.5-3.2,0.5-4.8c0-2.2,0.9-4.3,2.5-5.8c0.4-0.4,0.8-0.8,1.1-1.1
		c0.5-0.6,0.7-1.3,0.7-2.1c0-0.3-0.1-0.6-0.1-0.9c-0.6,0.7-1.9,2.3-2.3,2.6C325.8,410.8,324.9,412.9,324.9,415.1z"/>
	<path class="st14" d="M312.9,398.6c0.5,3.3,0.1,6.6-1.2,9.6c-1.3,3-3,5.8-5.1,8.4c-1,1.2-1.9,2.5-2.7,3.9c-0.7,1.4-1,2.9-0.8,4.5
		c0.9,1.4,2.2,2.5,3.7,3c2,0.7,4.2,0.9,6.3,0.6c2.4,0,4.8-0.6,6.9-1.8c2.3-1.7,3.8-4.1,4.3-6.9c0.3-1.6,0.5-3.1,0.5-4.7
		c0-2.2,0.9-4.3,2.5-5.8c0.3-0.3,1.7-1.9,2.3-2.6c-0.3-2.4-1.1-4.6-2.3-6.7L312.9,398.6z"/>
	<path class="st26" d="M312.9,398.6c0.5,3.3,0.1,6.6-1.2,9.6c-1.3,3-3,5.8-5.1,8.4c-1,1.2-1.9,2.5-2.7,3.9c-0.7,1.4-1,2.9-0.8,4.5
		c0.9,1.4,2.2,2.5,3.7,3c2,0.7,4.2,0.9,6.3,0.6c2.4,0,4.8-0.6,6.9-1.8c2.3-1.7,3.8-4.1,4.3-6.9c0.3-1.6,0.5-3.1,0.5-4.7
		c0-2.2,0.9-4.3,2.5-5.8c0.3-0.3,1.7-1.9,2.3-2.6c-0.3-2.4-1.1-4.6-2.3-6.7L312.9,398.6z"/>
	<path class="st25" d="M272.7,262.3c0,0-3.7,48.4-3.4,61.9s1.7,66.7,1.7,66.7c7.5,4.4,18.4,1.1,18.4,1.1c0.9-42.5,4.9-51.6,2.2-67.1
		c1.9-11.5,4.6-38.4,4.6-38.4c3.8,32.3,6.5,49,6.5,49l9,64.7c7.4,3.9,16.7,0,16.7,0c0-36.9,0.8-52.5-3-76.9
		c-0.2-37.5-2.1-60.3-2.1-60.3L272.7,262.3z"/>
	<path class="st6" d="M281.6,274.8c2.6,6.3,10.6,6.3,10.6,6.3l1.4,7.2l-0.5,25.5c1.5-12.4,3-27.4,3-27.4l-1-7.7
		C290.3,279,285.5,277.6,281.6,274.8z"/>
	<path class="st27" d="M245.2,193.7l-7.5,2.1l-8.4-28.4c-0.7-2.2-0.8-4.5-0.3-6.7l0.8-3.8c0.2-1,0.3-2,0.2-3
		c-0.1-1.6-0.3-3.1-0.3-4.6c0-0.5-0.1-0.9-0.4-1.3c-0.4-0.4-1-0.5-1.5-0.3c-0.5,0.2-0.9,0.6-1.1,1.1c-0.2,0.5-0.4,1-0.4,1.6
		l-0.5,2.5c-0.1,0.3-0.2,0.7-0.3,1c-0.2,0.3-0.5,0.5-0.8,0.6c-0.8,0.1-5.7-12.5-5.3-17c0.1-1.2-3.4-2.2-3.4,2.9
		c-1,0.2-1.8,0.9-2.1,1.8c-0.6,1.1-1.2,2.2-1.8,3.3c-0.6,1-1.1,2.2-1.5,3.4c-0.3,1.8-0.2,3.7,0.4,5.4c0.9,3.2,2.5,6.2,4.7,8.7
		c1.6,1.9,2.7,4.3,3,6.8l5.2,33.4c0.8,6,6.4,10.2,12.4,9.4c0.3,0,0.6-0.1,1-0.2l10.1-2.3L245.2,193.7z"/>
	<path class="st10" d="M279.5,186.4c-7.6-1.9-14,0.1-20.5,2s-15.3,4.9-15.3,4.9c-2.1,6-1,12.7,2.9,17.7l25.9-3.9L279.5,186.4z"/>
	<path class="st26" d="M279.5,186.4c-7.6-1.9-14,0.1-20.5,2s-15.3,4.9-15.3,4.9c-2.1,6-1,12.7,2.9,17.7l25.9-3.9L279.5,186.4z"/>
	<path class="st10" d="M324.4,266c0,0-29.3,10.7-53-2.6c0,0,1.4-17,1.9-26.9s-3-29.1-3.5-34.2s0.2-14,6.2-15.4
		c11.2-2.4,32.3,0,32.3,0l12.6,13.9C326.2,227.9,325.3,256.5,324.4,266z"/>
	<path class="st11" d="M324.4,266c0,0-29.3,10.7-53-2.6c0,0,1.4-17,1.9-26.9s-3-29.1-3.5-34.2s0.2-14,6.2-15.4
		c11.2-2.4,32.3,0,32.3,0l12.6,13.9C326.2,227.9,325.3,256.5,324.4,266z"/>
	<path class="st25" d="M271,164.7c-4.1-3.8-4.6-10.1-1.1-14.5c-1.1-0.7-2-1.7-2.5-3c-0.5-1.7,0.4-3.4,2.1-3.9
		c0.8-0.3,1.7-0.2,2.5,0.3c-0.4-2,0.6-4,2.4-4.9c1.8-0.7,3.9,0,5,1.6c0.1-1.2,1-2.3,2.3-2.5c1.2-0.2,2.5,0.1,3.5,0.7
		c1.1,0.5,2.1,1.2,3.2,1.8c1.9,0.8,3.9,1.3,6,1.6c2,0.3,4,1.1,5.6,2.3c1.6,1.3,2.7,4.1,1.5,6.2c0.7-0.7,1.6-1.1,2.6-1
		c0.9,0.1,1.8,0.6,2.4,1.4c-1.4,0.6-2.7,1.3-4.1,1.9c1.4-0.4,3.1,0.7,3.7,2c0.4,1.4,0.5,2.8,0.1,4.2c-0.9,5.3-2.5,10.5-4.9,15.3
		c-1.2,2.5-2.8,5.1-5.5,6L271,164.7z"/>
	<path class="st27" d="M284.4,179.8l0.6,6.3c0,0.5-0.1,1-0.4,1.4c-0.7,1.3-0.5,3,0.5,4.1c0.8,0.6,1.8,1,2.8,1
		c3.9,0.2,7.7-1.2,10.4-4c0.6-0.6,0.8-1.4,0.8-2.2l-0.4-16L284.4,179.8z"/>
	<path class="st15" d="M297.5,171.2l-13.1,8.6l0.5,5.6c3-0.7,6.1-1.6,8.5-3.6C296.5,179.2,298.1,175.2,297.5,171.2z"/>
	<path class="st27" d="M272,151.8c-1.9,7.1-2.4,14.6-1.4,21.9c0.2,1.6,0.5,3.2,1.1,4.7c0.6,1.5,1.7,2.8,3.1,3.6
		c1.8,0.9,3.8,0.9,5.8,0.8c3.6-0.2,7.3-0.4,10.6-1.8s6.2-4.5,6.4-8.1c1.6,1.3,3.8,1.7,5.8,1.1c2-0.8,3.4-2.5,3.9-4.6
		c0.4-2-0.5-4.4-2.4-5c-1.2-0.3-2.5-0.1-3.5,0.6c-1,0.7-2,1.5-2.8,2.5c-0.4,0.5-0.8,0.8-1.4,1.1c-0.5,0.3-1.2,0.2-1.6-0.2
		c-0.4-0.6-0.4-1.2-0.2-1.9l0.8-4.5c0.1-0.7-0.2-1.4-0.8-1.8c-0.9-0.6-1.5-1.6-1.7-2.6c-0.2-0.9-0.3-1.9-0.2-2.8
		c0-0.6-0.4-1.2-1.1-1.2c-0.1,0-0.2,0-0.3,0C285.6,155.1,278,154.2,272,151.8z"/>
	<polygon class="st28" points="280.5,164.1 275.5,170.4 280.3,171.9 	"/>
	<path class="st28" d="M284.6,174.9l-3.9,1.3c0.5,0.9,1.6,1.4,2.7,1.2C284.4,177,284.9,175.9,284.6,174.9z"/>
	<path class="st15" d="M284.6,174.9l-3.9,1.3c0.5,0.9,1.6,1.4,2.7,1.2C284.4,177,284.9,175.9,284.6,174.9z"/>
	<path class="st28" d="M282.1,177.4c0.4,0.1,0.9,0.1,1.3,0c0.7-0.3,1.2-1,1.2-1.8c-0.5-0.1-1.1,0-1.5,0.3
		C282.6,176.2,282.2,176.7,282.1,177.4z"/>
	<path class="st24" d="M287.5,164.1c0,0.8-0.7,1.4-1.4,1.4c-0.8,0-1.4-0.7-1.4-1.4c0-0.8,0.7-1.4,1.4-1.4
		C286.9,162.7,287.5,163.3,287.5,164.1C287.5,164.1,287.5,164.1,287.5,164.1z"/>
	<path class="st24" d="M276.4,162.5c0,0.8-0.7,1.4-1.4,1.4c-0.8,0-1.4-0.7-1.4-1.4c0-0.8,0.7-1.4,1.4-1.4
		C275.8,161.1,276.4,161.8,276.4,162.5C276.4,162.5,276.4,162.5,276.4,162.5z"/>
	<path class="st24" d="M276.8,158.4l-3.7,1c0-0.8,0.5-1.6,1.3-1.9C275.3,157.3,276.3,157.7,276.8,158.4z"/>
	<path class="st24" d="M285.3,159.7l3.4,1.7c0.2-0.8-0.2-1.7-0.9-2.1C286.9,158.9,286,159.1,285.3,159.7z"/>
	<path class="st27" d="M321.6,274.7l19-33.3c1.7-3.5,1.9-7.6,0.3-11.2l-10.6-24.8c-3.5-8.1-10.1-14.5-18.4-17.6l-3.6-1
		c-1.5,14.9,3.9,22.1,17.6,48c0,0-7.2,24.1-12.8,34.8c-4.5,2.1-8.6,5.1-12,8.7c-0.7,0.8-0.8,2-0.1,2.9l0,0c0.6,0.8,1.7,1,2.5,0.5
		c1.8-0.9,3.6-1.9,5.5-2.8c-1.9,4.2-4.3,8.1-7.1,11.8c-0.7,0.9-0.6,2.1,0.1,2.9l0,0c0.5,0.5,1.3,0.8,2,0.7l5.9-0.9
		c3.5-0.5,6.5-2.7,8.1-5.9C319.9,283.5,321.2,279.2,321.6,274.7z"/>
	<path class="st10" d="M308.3,186.8c14.5,0.7,19,6.6,28.2,31.5c-4.6,7.1-17.2,6.1-17.2,6.1C302.9,199.6,308.3,186.8,308.3,186.8z"/>
	<path class="st26" d="M308.3,186.8c14.5,0.7,19,6.6,28.2,31.5c-4.6,7.1-17.2,6.1-17.2,6.1C302.9,199.6,308.3,186.8,308.3,186.8z"/>
	<path class="st25" d="M237.8,183.5l-9.8-1.4l-9.8-1.4c-15.8,58-31.1,228.1-22.4,229.3S236.9,243.6,237.8,183.5z"/>
	<path class="st5" d="M239.7,184.2c2.3-16.4,5.7-63,5.7-63L237,120l-8.4-1.2c0,0-9.6,45.7-11.9,62.2l0,0c-0.2,1.7,0.6,3.6,2.7,5.2
		c4.1,3.2,11.4,4.3,16.2,2.3C238.1,187.5,239.4,186,239.7,184.2L239.7,184.2z"/>
	<path class="st8" d="M222.5,188c0-0.2,0-0.4,0-0.6l0,0c2.3-16.4,10.9-67.8,10.9-67.8l-2.9-0.4c0,0-9.2,49.2-11.7,66.7
		c0.2,0.1,0.3,0.3,0.5,0.4C220.3,186.9,221.4,187.5,222.5,188z"/>
	<path class="st8" d="M232.4,188.7c2.3-16.4,8.2-68.2,8.2-68.2l-1.4-0.2c0,0-6.5,51.7-8.8,68.1l0,0c0,0.3-0.1,0.7-0.2,1
		c0.7,0,1.3-0.1,2-0.1C232.3,189.1,232.4,188.9,232.4,188.7L232.4,188.7z"/>
	<path class="st8" d="M236.4,119.9l-1.1-0.2h-0.3c0,0-8.1,51.4-10.4,67.9c-0.1,0.4-0.1,0.7-0.1,1c0.6,0.2,1.2,0.3,1.9,0.5
		c0-0.4,0.1-0.8,0.1-1.2C228.8,171.4,236.4,119.9,236.4,119.9z"/>
	<path class="st24" d="M236.4,124c-2.3-0.3-4.5-1.2-6.4-2.5c-0.9-0.6-1.5-1.5-1.9-2.5l-0.2-0.5h-0.1c-4.1-7.6-3.5-16.9,1.7-23.8
		c3-4,7.4-6.9,11.7-9.7l3-2c3.9-2.7,8.5-6.3,11-11.1c0.7,7.9,1.3,15.5,0.6,23.2c-1.1,12.2-4.4,21-10.2,26.8l-0.1,0.1
		c-0.6,0.6-1.3,1.1-2.1,1.3C241.1,124.2,238.7,124.4,236.4,124z"/>
	<path class="st17" d="M235.8,90.4c0.5,0.5,1.3,0.6,1.9,1.1c0.8,0.8,0.5,2.2-0.1,3.1c-0.7,0.8-1.4,1.8-1.9,2.8
		c-0.5,1.6,0.3,3.4,1.9,3.9c1.1,0.4,2.2,0.1,3.1-0.6c0.6-0.6,1-1.3,1.4-2c0.4-0.7,1.1-1.2,1.9-1.3c1,0,2,0.6,2.3,1.6
		c0.3,1,0.3,2,0,3c-0.3,1-0.4,2-0.4,3c0,1,0.4,2,1.3,2.6c1.2,0.6,2.5,0.3,3.4-0.7c0.8-1,1.1-2.3,0.9-3.5c-0.2-1.2-0.4-2.5-0.8-3.7
		c-0.3-1.2-0.4-2.5-0.2-3.7c0.1-0.5,0.4-1,0.7-1.3c0.4-0.4,0.9-0.5,1.4-0.3c0.7,0.3,0.8,1.2,0.9,2s0.4,1.7,1.2,1.7
		c0.4,0,0.8-0.2,1.1-0.6c0.2-0.4,0.4-0.8,0.5-1.2l0.1-0.2l0.1-0.9c0.7-7.8,0.1-15.4-0.6-23.2c0-0.5-0.5-0.9-1-0.8
		c-0.3,0-0.6,0.2-0.7,0.5c-2.3,4.4-6.5,7.8-10.6,10.7c-2.5,1.7-5.1,3.3-7.6,5.1c-0.1,0.1-0.2,0.2-0.2,0.4
		C235.2,88.6,235.2,89.7,235.8,90.4z"/>
	<path class="st17" d="M233.1,107.5c0.1,0.8,0.5,1.6,1.3,2c0.7,0.3,1.5,0.1,2.1-0.4c1.2-1.3,1.4-3.2,0.5-4.7
		c-0.7-0.9-1.9-1.1-2.9-0.6C233,104.5,232.9,106.4,233.1,107.5z"/>
	<path class="st7" d="M245.1,84.5c-0.8,0.4-1.6,1-2.1,1.7c-0.6,0.8-0.4,1.9,0.4,2.5c0.5,0.2,1.2,0.2,1.7-0.1
		c0.5-0.3,0.9-0.7,1.2-1.2c1.2-1.6,2.4-3.2,3.4-4.9c0.9-1.4,2.5-3.4,2.8-5.1C250.5,80.2,248,82.6,245.1,84.5z"/>
	<path class="st7" d="M240,92.7c0.1,0.4,0.4,0.7,0.8,0.8c0.6,0,1.1-0.3,1.3-0.8c0.4-0.7,0.6-2.4-0.6-2.3
		C240.6,90.4,239.8,91.9,240,92.7z"/>
</g>
</svg>
