<?xml version="1.0" encoding="utf-8"?>
<!-- Generator: Adobe Illustrator 26.0.2, SVG Export Plug-In . SVG Version: 6.00 Build 0)  -->
<svg version="1.1" id="Layer_1" xmlns="http://www.w3.org/2000/svg" xmlns:xlink="http://www.w3.org/1999/xlink" x="0px" y="0px"
	 viewBox="0 0 500 500" style="enable-background:new 0 0 500 500;" xml:space="preserve">
<style type="text/css">
	.st0{fill:#F5F5F5;}
	.st1{fill:#FAFAFA;}
	.st2{fill:#E0E0E0;}
	.st3{fill:#E7ECF1;}
	.st4{fill:#E7ECEB;}
	.st5{fill:#FFFFFF;}
	.st6{fill:#263238;}
	.st7{opacity:0.4;}
	.st8{fill:#EF3F3D;}
	.st9{fill:#2F4B59;}
	.st10{opacity:0.1;}
	.st11{opacity:0.2;}
	.st12{opacity:0.3;}
	.st13{opacity:0.6;}
	.st14{fill:#455A64;}
	.st15{fill:#FFBF9D;}
	.st16{fill:#FF9A6C;}
</style>
<g id="freepik--background-complete--inject-29">
	<path class="st0" d="M341.3,113.8c-0.1-1.1-0.2-2.1-0.4-3.2s-0.3-2.2-0.5-3.3c0.2,1.1,0.4,2.2,0.5,3.3S341.2,112.7,341.3,113.8z"/>
	<path class="st1" d="M332.9,126.8c-0.9-2.1-1.1-4.3-1.7-6.5c-0.2-1.2-0.9-2.3-2-2.9c-0.8-0.2-1.5-0.4-2.3-0.5
		c-2.8-0.8-3.5-4.7-6.1-5.8c-0.8-0.3-1.7-0.5-2.6-0.6c-3.5-0.4-7.1-1.6-9.3-4.3c-0.6-1-1.3-1.8-2.1-2.7c-0.9-0.8-2.2-0.9-3.1-0.3
		c0.7,1.5,1.5,2.9,2.2,4.4c0.6,1.4,1.4,2.6,2.4,3.7c1.1,1.1,2.7,1.4,4.1,0.9c0.4-0.3,0.9-0.5,1.4-0.5c0.4,0.1,0.7,0.3,0.9,0.6
		c1.9,2.1,1.3,5.6-0.6,7.7s-4.6,3.2-7.2,4.3c-0.9,0.5-1.9,0.6-2.9,0.6c-1.8-0.3-2.8-2.3-3.3-4.1c-1.2-3.9-1.8-8.2-4.2-11.6
		c-0.9-1-1.6-2.1-2.2-3.2c-0.5-1.3-0.4-2.9-1.2-4s-2.6-1.9-2.7-3.4c0.1-1.1,0.8-2,1.8-2.4c0.9-0.4,2-0.6,3-1
		c0.4-0.2,0.8-0.4,0.8-0.9c0-0.6-0.9-0.9-1.1-1.4s0.4-1.2,0.7-1.9c0.6-1.4-0.9-2.9-2.4-3.5s-3.2-1-3.9-2.4c-0.2-0.7-0.4-1.4-0.5-2.1
		c-0.3-1.8-1.6-3.3-3.5-3.8c-1.8-0.3-3.8,1.3-3.5,3.1c0.3,0.9,0.8,1.8,1.3,2.7c0.4,0.9,0.3,2.3-0.6,2.6c-1.5,0.5-3-2.4-4.3-1.4
		c0.5,1.8,1,3.6,1.6,5.4c-2,1-4.5-0.8-5.3-3s-0.9-4.5-1.9-6.6s-3.8-3.6-5.6-2.1c-0.1,2.6,3.4,3.7,4.9,5.8c1.1,1.5,1,4-0.7,5
		s-4.2-0.7-3.6-2.5c0.2-0.6,0.7-1.1,0.8-1.8c0.1-0.8-0.6-1.5-1.3-2c-1-0.8-2-1.7-3-2.5c-0.6-0.6-1.3-1-2.1-1.3
		c-2-0.6-4.1,1.1-5.1,2.9s-1.7,4-3.2,5.5c-2.1,2.2-6.2,2.3-8.2,0s-1-6.6,2-7.5c1.1-0.3,2.5-0.3,3.1-1.3c1-1.8-1.9-4-0.9-5.8
		c0.8-1.3,2.8-0.7,4.3-1.2s2.3-2,3.2-3.2s2.2-2.6,3.8-2.2c-0.2-0.9-0.2-1.8,0.2-2.7c0.4-0.8,1.3-1.2,2.1-0.9c0,0,0.1,0,0.1,0
		c-0.8,1.2,0.1,3,1.5,3.6c1.4,0.5,2.9,0.6,4.3,0.3c1.4-0.2,3.2-0.7,3.4-2.2c0-0.5-0.1-1,0-1.4c0.6-1.7,3.8,0.6,5-0.7
		c0.7-0.7-0.1-2-1.1-2.2c-1-0.1-2,0-3,0.1c-1,0-2.2-0.5-2.3-1.5s1.1-1.7,1.2-2.7c0.2-1.7-2.6-2.1-3.6-0.7s-0.6,3.2-0.3,4.8
		s0.5,3.6-0.8,4.7c-0.5,0.8-1.9,0.4-2.3-0.5c-0.3-0.9-0.5-1.8-0.4-2.8c0-1-0.5-1.9-1.4-2.2c-0.7-0.1-1.4,0-2,0.2
		c-2.5,0.3-4.3-3-3.5-5.4s3.1-4,5.4-5.3c1.6-0.9,3.7-1.8,5.3-0.8c0.8,0.4,1.3,1.2,2,1.6c1.3,0.8,2.9,0.5,4.4,0.5
		c2.4,0.1,4.6,0.9,6.4,2.5c0.7,0.6,1.3,1.6,0.8,2.3s-2.2,0.9-1.9,1.8c1.7,0.5,3.5-0.5,3.9-2.2c0-0.1,0.1-0.2,0.1-0.3
		c0.9,0.4,1.6,1.3,1.7,2.3c1.9-1.8,4.9-1.7,6.7,0.3c0.1,0.1,0.2,0.2,0.3,0.3c0.3,0.6,0.8,1.2,1.3,1.7c0.6,0.4,1.6,0.2,1.7-0.5
		c0-0.2,0-0.4-0.1-0.7c-0.4-1-0.7-2-1.1-3c1.4-0.7,3,0.4,3.9,1.7c3.4,4.6,5.9,1.8,10.8,2.6c3.3,0.5,4.7,2.6,6.6,5.1
		c5.7,7.8,13.2,14.2,18.3,22.4c0.5,0.8,1,1.7,1.5,2.6c-0.1-0.2-0.2-0.4-0.2-0.7c-2-5.3-4.5-10.4-7.5-15.2c-0.6-1-1.3-2-1.9-3
		c-0.4-0.6-0.8-1.2-1.3-1.8c-0.5-0.8-1.1-1.6-1.7-2.3s-0.9-1.2-1.4-1.8c-0.3-0.4-0.7-0.8-1-1.2s-0.7-0.9-1.1-1.4l-1.2-1.4
		c-0.1-0.1-0.2-0.3-0.4-0.4c-0.4-0.5-0.9-1-1.3-1.5c0-0.1-0.1-0.1-0.1-0.2l-0.4-0.4c-0.4-0.4-0.8-0.8-1.1-1.2
		c-0.6-0.7-1.3-1.3-1.9-1.9s-1.1-1.1-1.7-1.6s-1-0.9-1.5-1.4s-1-0.9-1.5-1.3s-1.2-1-1.9-1.6l0,0c-1.8-1.4-3.6-2.8-5.5-4
		c-0.5-0.3-0.9-0.6-1.4-1s-1-0.6-1.4-0.9s-1-0.6-1.4-0.9s-1-0.6-1.5-0.9s-0.8-0.5-1.2-0.7c-0.2-0.1-0.4-0.2-0.6-0.3
		c-0.8-0.5-1.7-0.9-2.5-1.3c-0.4-0.2-0.9-0.4-1.3-0.7s-1.1-0.5-1.7-0.8c-0.1,0-0.2-0.1-0.2-0.1c-0.5-0.2-1-0.5-1.5-0.7
		c-0.7-0.3-1.4-0.6-2.2-0.9s-1.6-0.7-2.5-1s-1.9-0.7-2.8-1s-1.9-0.6-2.9-0.9s-1.9-0.6-2.9-0.8c-1.9-0.5-3.9-1-5.8-1.4
		c0,0-0.1,0-0.1,0c-0.8-0.1-1.5-0.3-2.2-0.4h-0.1l-1-0.2c-1.4-0.2-2.8-0.4-4.2-0.6c-0.2,0-0.3,0-0.5-0.1l-1.2-0.1
		c-0.9-0.1-1.9-0.2-2.8-0.2s-2-0.1-3-0.1s-2.1,0-3.1,0c-2.8,0-5.5,0.1-8.2,0.4c-0.6,0-1.3,0.1-1.9,0.2s-1.3,0.1-2,0.2
		s-1.3,0.2-2,0.3l-2,0.3c-0.6,0.1-1.1,0.2-1.7,0.3c-1.4,0.3-2.8,0.6-4.1,0.9l-1.9,0.5l-1.9,0.5c-1,0.3-2.1,0.6-3.1,0.9l0,0l-2.5,0.8
		h-0.1c-0.8,0.3-1.6,0.6-2.5,0.9H215c-0.8,0.3-1.5,0.6-2.2,0.9c-0.9,0.4-1.8,0.8-2.7,1.2s-1.5,0.7-2.2,1.1s-1.6,0.8-2.4,1.2h-0.1
		c-0.8,0.4-1.5,0.8-2.2,1.2s-1.5,0.9-2.3,1.3l0,0c-0.7,0.4-1.4,0.9-2.1,1.3l-0.8,0.5c-0.7,0.5-1.4,1-2.2,1.5
		c-0.9,0.6-1.7,1.2-2.6,1.9s-1.5,1.1-2.2,1.7c-4.2,3.3-8,7-11.6,11c-1.2,1.4-2.4,2.8-3.6,4.2c-1,1.2-1.9,2.5-2.8,3.8
		c-0.8,1.1-1.6,2.3-2.3,3.4c0.8-1.2,1.5-2.3,2.3-3.4l0.7-0.1c1.3,0,2.7-0.2,3.9-0.6c1-0.7,2-1.4,2.9-2.2c2.6-1.8,6.8-2.2,7.4-5.2
		c0.2-1,0-2.2,0.3-3.1c0.7-1.8,3.2-2.1,5.1-2.1c0.8,0,1.8,0.1,2.2,0.8c0.2,0.6,0.2,1.2-0.1,1.7c-1.2,3.5-3.6,6.4-6.8,8.3
		c-2.6,1.6-5.9,2.8-6.6,5.7c0.4,1,2.1,0.9,2.3,1.9c0.1,0.8-1,1.2-1.3,2c-0.6,1.1,0.7,2.4,1.9,2.3c1.2-0.2,2.3-0.8,3.1-1.8
		c2.7-2.5,5.5-5.2,6.5-8.7c0.4-1.5,0.6-3.2,1.7-4.1c1.3-0.9,3.1-0.6,4,0.7c0.2,0.2,0.3,0.5,0.4,0.7c1.2-0.6,3-1.1,3.6,0.1
		c0.1,0.5,0.2,0.9,0.2,1.4c0.4,1.9,2.9,2.7,3.2,4.6c0.3,2.2-2.5,3.3-4.7,3.7c-2,0.3-4,0.6-6,0.9c-0.9,0.1-1.7,0.3-2.5,0.8
		c-0.8,0.5-1.1,1.5-0.7,2.3c0.3,0.4,0.6,0.7,1,1.1c1.6,1.7,0.3,5-2,5.1c-0.8,0-1.6-0.3-2.4-0.3c-2.4-0.1-4.2,2-5.3,4s-2,4.4-3.8,5.8
		c-3,2.3-8.2,1.8-9.7,5.2c-0.6,1.4-0.3,3,0,4.5s0.3,3.2-0.5,4.4s-3.1,1.5-3.8,0.1c-0.2-0.6-0.3-1.3-0.1-2c0.4-2.2,0.7-4.3,1-6.5
		c0.2-1.6,0.5-3.4-0.5-4.8c-1.3-1.8-4.3-1.7-6.1-0.2s-2.4,3.8-2.9,6c-0.3,2-0.9,4-1.7,5.8l0,0c-0.3,1.8-0.6,3.7-0.8,5.6
		c-0.2,1.9-0.3,3.8-0.4,5.8c0.3-0.2,0.5-0.5,0.8-0.7c0.9-1,2.8-5,4.5-3c0.4,0.5,0.4,1.3,0,1.8c-0.5,0.7-1.5,0.8-1.9,1.5
		s0.2,1.9,1,2.5c0.9,0.4,1.7,1,2.3,1.7c1.1,1.6,0,3.9,1.1,5.5c0.9,1.4,2.8,1.4,4.4,1.6l0.6,0.1c0.4-3.2,2-5.9,6.4-6.9
		c6.1-1.4,14.1,3.7,17.5,8.2c3.8,5.1,5.6,12.4,11.5,15c4.2,1.8,10.1,1.2,12.2,5.3c1.8,3.7-1.4,7.8-1.8,11.9
		c-0.3,2.7,0.6,5.4,0.8,8.1s-0.6,5.9-3.1,7c-1.4,0.6-3.1,0.5-4.2,1.6c-2,1.9-0.4,5.7-2.3,7.5c-0.8,0.6-1.6,1-2.5,1.3
		c-4.4,2.2-4.3,8.7-2.2,13.2c0.1,0.2,0.1,0.3,0.2,0.5c27.9,16.7,62.5,17.6,91.3,2.3l0,0c2.8-1.5,5.6-3.2,8.2-5
		c4.1-2.7,8-5.8,11.5-9.2c2.5-2.3,4.8-4.8,7-7.4c1.6-1.8,3-3.7,4.5-5.6c0.7-1,1.4-2,2.1-3c8.1-11.8,13.3-25.3,15.2-39.4
		c0.3-2.1,0.5-4.2,0.6-6.3c-1,1-2.3,1.6-3.7,1.7C335.6,130.7,333.8,128.9,332.9,126.8z"/>
	<path class="st2" d="M156,121.3c0,0.6,0,1.1,0,1.7s0,0.9,0,1.4c0-0.4,0-0.9,0-1.4S156,121.8,156,121.3z"/>
	<path class="st2" d="M197.1,200.1c0.8,0.5,1.6,1.1,2.4,1.6c0.6,0.4,1.1,0.7,1.7,1c-0.6-0.3-1.1-0.7-1.7-1
		C198.7,201.2,197.9,200.7,197.1,200.1z"/>
	<path class="st2" d="M156.1,119.1L156.1,119.1c0,0.2,0,0.3,0,0.5c0,0.6,0,1.1,0,1.7c0-0.6,0-1.1,0-1.7
		C156,119.4,156,119.3,156.1,119.1z"/>
	<path class="st2" d="M156,124.3c0,0.5,0,0.9,0,1.4l0,0C156,125.2,156,124.8,156,124.3z"/>
	<path class="st0" d="M341.8,121.7c0-1.3,0-2.7-0.1-4C341.7,119,341.8,120.3,341.8,121.7c0,0.4,0,0.9,0,1.3c0,2.1-0.1,4.1-0.2,6.1
		c0.1-2,0.2-4.1,0.2-6.1C341.8,122.5,341.8,122.1,341.8,121.7z"/>
	<path class="st0" d="M336,90.5c0.4,1.2,0.9,2.4,1.2,3.6C336.9,92.9,336.4,91.7,336,90.5L336,90.5L336,90.5z"/>
	<path class="st3" d="M296,151.8c1.2-3,3.9-4.9,6.8-6.8c1.3-0.9,2.5-1.8,3.7-2.8c2.5-2.2,3.8-5.6,3.4-8.9c-0.2-1.6-1.3-3-2.9-3.6
		c-0.9-0.3-1.8-0.4-2.8-0.4c-0.9,0-1.8-0.1-2.6-0.4c-2.1-0.8-3.1-3.2-3.9-5.4l-6.4-17.8c-1.3-3.6-3.3-7.9-7.2-8.4
		c-1.5-0.1-3,0.1-4.4,0.6c-0.7,0.2-1.4,0.4-2,0.5c-2.7,0.5-6.1-1.7-9.7-4.1c-4-2.6-8-5.2-11.4-4.3c-1.7,0.6-3.1,1.8-3.8,3.5
		c-0.4-0.8-1.2-1.3-2.1-1.4c-2.3-0.2-4.6,0.9-5.8,2.9c-0.6,1.1-1.1,2.2-1.5,3.3c-0.8,2-1.5,4-3.1,5.2c-0.9,0.6-1.9,1.1-2.9,1.4
		c-1.4,0.4-2.7,1.1-3.8,2.1c-1.3,1.5-1.4,3.6-1.6,5.2l-0.8,10.1c-0.2,2.5-0.5,5.7,1,8.2c0.9,1.5,2.4,2.5,4.1,2.8
		c1.2,0.2,2.4-0.1,3.3-0.9c0.6-0.6,1-1.2,1.3-1.9c0.2-0.4,0.5-0.9,0.8-1.3c1.2-1.5,3.2-2.2,5.1-1.8c1.6,0.5,3,1.5,4,2.8
		c8.1,8.8,12.7,22,13.2,38.4v0.6c-0.3,3.7,0.7,7.5,2.9,10.5c1,1.3,1.7,2.8,2.2,4.4c0.2,0.9,0.3,1.8,0.3,2.8c0,1.4,0.2,2.8,0.7,4.1
		c0.8,1.6,2.3,2.8,4.1,3.1c0.6,0.1,1.1,0.2,1.7,0.2c2,0,3.9-0.7,5.5-1.9c3.3-2.8,4.4-7.4,5.1-11.5l0.2-1.4c0.5-3.7,1.1-7.5,3.1-10.5
		c0.6-0.8,1.2-1.6,1.9-2.4c1.1-1.2,2-2.5,2.8-4c0.6-1.8,0.9-3.7,0.9-5.6C295.2,155.2,295.5,153.4,296,151.8z"/>
	<path class="st3" d="M192,196.4L192,196.4c0.9,0.8,1.9,1.4,2.9,2.1c0.8,0.6,1.5,1.1,2.3,1.6s1.6,1.1,2.4,1.6c0.6,0.4,1.1,0.7,1.7,1
		c-0.1-0.2-0.1-0.3-0.2-0.5c-2.1-4.5-2.2-11,2.2-13.2c0.9-0.3,1.7-0.8,2.5-1.3c1.9-1.9,0.4-5.7,2.3-7.5c1.1-1,2.8-1,4.2-1.6
		c2.4-1.1,3.2-4.3,3.1-7s-1.1-5.4-0.8-8.1c0.5-4.1,3.7-8.2,1.8-11.9c-2-4.1-8-3.4-12.2-5.3c-5.9-2.6-7.7-9.8-11.5-15
		c-3.4-4.6-11.4-9.6-17.5-8.2c-4.4,1-5.9,3.6-6.4,6.9l-0.6-0.1c-1.6-0.2-3.5-0.3-4.4-1.6c-1-1.6,0-3.9-1.1-5.5
		c-0.7-0.7-1.5-1.3-2.3-1.7c-0.8-0.6-1.5-1.6-1-2.5s1.4-0.9,1.9-1.5c0.4-0.5,0.4-1.3,0-1.8c-1.7-2-3.5,2.1-4.5,3
		c-0.2,0.3-0.5,0.5-0.8,0.7l0,0c0,0.2,0,0.3,0,0.5c0,0.6,0,1.1,0,1.7s0,1.1,0,1.7s0,0.9,0,1.4s0,0.9,0,1.4c0,0.2,0,0.4,0,0.7
		c0.4,10.1,2.4,20,5.9,29.5c1.6,4.2,3.4,8.3,5.6,12.3c0.9,1.7,1.9,3.4,3,5c1.3,2,2.6,4,4.1,5.9s2.8,3.6,4.3,5.3
		c2.1,2.4,4.3,4.6,6.6,6.8C187.6,192.9,189.8,194.7,192,196.4c-0.3-0.8-0.6-1.7-1-2.5"/>
	<path class="st3" d="M161.8,95.9c1.7-1.5,4.7-1.7,6.1,0.2c1,1.3,0.7,3.1,0.5,4.8c-0.3,2.2-0.7,4.4-1,6.5c-0.2,0.7-0.1,1.4,0.1,2
		c0.6,1.4,2.9,1.1,3.8-0.1s0.8-2.9,0.5-4.4s-0.5-3.1,0-4.5c1.5-3.5,6.7-3,9.7-5.2c1.9-1.4,2.7-3.8,3.8-5.8s3-4.2,5.3-4
		c0.8,0,1.6,0.3,2.4,0.3c2.3-0.1,3.7-3.5,2-5.1c-0.4-0.3-0.7-0.7-1-1.1c-0.3-0.8,0-1.8,0.7-2.3c0.7-0.5,1.6-0.7,2.5-0.8
		c2-0.3,4-0.6,6-0.9c2.2-0.3,5-1.5,4.7-3.7c-0.3-1.9-2.8-2.8-3.2-4.6c0-0.5-0.1-0.9-0.2-1.4c-0.6-1.2-2.4-0.7-3.6-0.1
		c-0.5-1.5-2.1-2.3-3.6-1.8c-0.3,0.1-0.5,0.2-0.7,0.4c-1.2,1-1.3,2.7-1.7,4.1c-1,3.5-3.8,6.2-6.5,8.7c-0.8,0.9-1.9,1.6-3.1,1.8
		c-1.2,0.1-2.5-1.2-1.9-2.3c0.4-0.7,1.4-1.2,1.3-2c-0.1-1-1.9-1-2.3-1.9c0.7-2.9,4-4.1,6.6-5.7c3.1-1.9,5.5-4.8,6.8-8.3
		c0.3-0.5,0.3-1.1,0.1-1.7c-0.4-0.7-1.4-0.8-2.2-0.8c-2,0-4.4,0.2-5.1,2.1c-0.4,1-0.1,2.1-0.3,3.1c-0.7,3.1-4.9,3.4-7.4,5.2
		c-0.9,0.8-1.9,1.6-2.9,2.2c-1.3,0.4-2.6,0.7-3.9,0.6l-0.7,0.1c-0.8,1.1-1.6,2.3-2.3,3.4s-1.5,2.3-2.2,3.6c-3.3,5.7-6,11.7-8.1,18
		c-0.7,2.2-1.4,4.4-1.9,6.7s-1,4.6-1.4,6.9c0.8-1.9,1.3-3.8,1.7-5.8C159.4,99.7,160.1,97.4,161.8,95.9z"/>
	<path class="st3" d="M239.8,52.8c0.9-1.2,0.6-2.8,1.2-4.1c0.9-2.2,3.9-3,4.9-5.2c0.4-0.8,0.5-1.9,1.2-2.5s1.4-0.6,2-1.1
		c1.4-1,0.8-3.4-0.7-4.4c-3.6-2.3-10.4,0.4-13.5,2.7c-4.1,2.9-8,6.5-13.4,6.1c-1.5-0.1-3-0.5-4.4,0s-2.2,2.6-1.1,3.5
		c0.7,0.5,1.6,0.3,2.4,0.7c1.4,0.7,1.5,2.7,0.9,4s-1.9,2.4-2.7,3.7c-0.8,1.3-1.1,2.8-1,4.3c0,1,0.5,2,1.3,2.7
		c1.7,1.3,4.2,0.2,5.6-1.4s2.4-3.7,4.2-4.8c0.9-0.5,2-0.9,3-1l7-1.7C237.8,54.1,238.9,53.6,239.8,52.8z"/>
	<path class="st3" d="M341.8,121.7c0-1.3,0-2.7-0.1-4s-0.2-2.6-0.3-3.9c-0.1-1.1-0.2-2.1-0.4-3.2s-0.3-2.2-0.5-3.3
		c-0.5-3.3-1.3-6.5-2.2-9.7c-0.3-1.2-0.7-2.4-1.1-3.6s-0.8-2.4-1.2-3.6l0,0c-0.5-0.9-1-1.8-1.5-2.6c-5.2-8.2-12.7-14.6-18.3-22.4
		c-1.9-2.5-3.3-4.6-6.6-5.1c-4.9-0.8-7.3,2-10.8-2.6c-0.9-1.2-2.5-2.4-3.9-1.7c0.4,1,0.7,2,1.1,3c0.1,0.2,0.1,0.4,0.1,0.7
		c-0.1,0.7-1.1,0.9-1.7,0.5c-0.5-0.5-1-1-1.3-1.7c-1.6-2.1-4.6-2.5-6.7-0.9c-0.1,0.1-0.2,0.2-0.3,0.3c-0.1-0.9-0.7-1.8-1.5-2.2
		c-0.3,1.7-1.9,2.9-3.7,2.6c-0.1,0-0.2,0-0.3-0.1c-0.3-0.9,1.3-1.1,1.9-1.8s-0.1-1.7-0.8-2.3c-1.8-1.5-4-2.4-6.4-2.5
		c-1.5,0-3.1,0.2-4.4-0.5c-0.8-0.4-1.3-1.2-2-1.6c-1.6-0.9-3.7-0.1-5.3,0.8c-2.2,1.2-4.6,2.8-5.4,5.3s1,5.8,3.5,5.4
		c0.6-0.2,1.3-0.3,2-0.2c0.9,0.4,1.4,1.3,1.4,2.2c-0.1,0.9,0.1,1.9,0.4,2.8c0.5,0.8,1.8,1.2,2.3,0.5c1.2-1.2,1.1-3.1,0.8-4.7
		s-0.6-3.5,0.3-4.8s3.8-0.9,3.6,0.7c-0.1,1-1.2,1.7-1.2,2.7s1.3,1.5,2.3,1.5c1-0.2,2-0.2,3-0.1c1,0.2,1.8,1.5,1.1,2.2
		c-1.2,1.4-4.4-1-5,0.7c-0.2,0.4,0,0.9,0,1.4c-0.1,1.4-1.9,2-3.4,2.2c-1.4,0.3-2.9,0.2-4.3-0.3c-1.3-0.6-2.2-2.3-1.5-3.6
		c-0.8-0.4-1.8-0.1-2.2,0.7c0,0,0,0.1,0,0.1c-0.3,0.9-0.4,1.8-0.2,2.7c-1.5-0.3-2.9,1-3.8,2.2s-1.7,2.8-3.2,3.2s-3.6-0.2-4.3,1.2
		c-1,1.8,1.9,4,0.9,5.8c-0.6,1-2,1-3.1,1.3c-3,0.8-4,5.2-2,7.5s6,2.2,8.2,0c1.5-1.5,2.1-3.7,3.2-5.5s3.1-3.5,5.1-2.9
		c0.7,0.3,1.4,0.7,1.9,1.3c1,0.8,2,1.7,3,2.5c0.6,0.5,1.3,1.2,1.3,2c-0.1,0.7-0.6,1.2-0.8,1.8c-0.6,1.8,2,3.5,3.6,2.5s1.8-3.5,0.7-5
		c-1.5-2.1-5-3.2-4.9-5.8c1.8-1.4,4.5,0.1,5.6,2.1s1.1,4.4,1.9,6.6s3.3,4,5.3,3c-0.5-1.8-1-3.6-1.6-5.4c1.3-1,2.8,1.9,4.3,1.4
		c0.9-0.3,1.1-1.6,0.6-2.6c-0.5-0.8-1-1.7-1.3-2.7c-0.3-1.8,1.7-3.4,3.5-3.1c1.8,0.5,3.2,2,3.5,3.8c0.1,0.7,0.2,1.4,0.5,2.1
		c0.7,1.4,2.4,1.8,3.9,2.4s3,2,2.4,3.5c-0.3,0.6-0.9,1.2-0.7,1.9s1.1,0.8,1.1,1.4c0,0.4-0.5,0.7-0.8,0.9c-1,0.4-2,0.5-3,1
		c-1,0.4-1.7,1.3-1.7,2.4c0.1,1.5,1.9,2.2,2.7,3.4s0.7,2.7,1.2,4c0.6,1.2,1.3,2.3,2.2,3.2c2.4,3.3,3,7.6,4.2,11.6
		c0.5,1.8,1.5,3.8,3.3,4.1c1,0.1,2-0.1,2.9-0.6c2.6-1,5.4-2.2,7.2-4.3s2.5-5.6,0.6-7.7c-0.2-0.3-0.5-0.5-0.9-0.6
		c-0.5,0-1,0.2-1.4,0.5c-1.4,0.5-3,0.2-4.1-0.9c-1-1.1-1.9-2.3-2.4-3.7c-0.7-1.4-1.5-2.9-2.2-4.4c1-0.6,2.3-0.5,3.1,0.3
		c0.8,0.8,1.5,1.7,2.1,2.7c2.2,2.7,5.8,3.9,9.3,4.3c0.9,0,1.8,0.2,2.6,0.6c2.6,1.2,3.4,5,6.1,5.8c0.8,0.1,1.6,0.3,2.3,0.5
		c1.1,0.6,1.8,1.7,2,2.9c0.6,2.2,0.8,4.4,1.7,6.5c0.9,2.1,2.7,3.9,5,4c1.4,0,2.8-0.6,3.7-1.7l0,0c0.1-2,0.2-4.1,0.2-6.1
		C341.8,122.5,341.8,122.1,341.8,121.7z"/>
	<path class="st3" d="M304.1,160.3c-1.4,0.3-1.7,1.1-2.4,2.1c-1,1.3-2.4,2.7-3.3,4c-1.5,2.2-0.1,5.7-2.1,7.6
		c-0.4,0.4-0.9,0.6-1.3,1.1c-0.8,1-0.5,2.5,0.5,3.2c1,0.7,2.4,0.7,3.5,0.1c1-0.7,1.8-1.7,2.1-2.9c0.1-0.9,0.5-1.7,1.1-2.4
		c1.1-1,2.9-0.2,4.4-0.5C313,171.7,310.2,159.1,304.1,160.3z"/>
	<path class="st2" d="M341.8,122.8c0,0,0-0.5-0.1-1.5s0-2.5-0.2-4.4c-0.6-9.7-2.8-19.3-6.4-28.4c-1.8-4.5-4-8.8-6.5-13
		c-6.1-10.2-14.1-19.1-23.5-26.3c-11.5-8.7-24.8-14.6-39-17.3c-7.9-1.5-15.9-1.9-23.8-1.3c-4.1,0.3-8.3,0.9-12.3,1.7
		c-4.2,0.9-8.3,2.1-12.4,3.5c-17.2,6.3-32.2,17.5-43,32.2c-2.8,3.8-5.4,7.9-7.5,12.1c-1.1,2.1-2.1,4.3-3.1,6.5s-1.8,4.5-2.6,6.8
		c-1.6,4.7-2.7,9.4-3.5,14.3c-1.6,9.9-1.6,19.9,0,29.8c0.8,4.9,1.9,9.7,3.5,14.3c0.7,2.3,1.7,4.6,2.6,6.8s2,4.4,3.1,6.5
		c2.2,4.2,4.7,8.3,7.5,12.1c10.8,14.8,25.8,26,43,32.2c4.1,1.4,8.2,2.6,12.4,3.5c4.1,0.9,8.2,1.4,12.3,1.8c8,0.6,16,0.2,23.9-1.3
		c14.1-2.6,27.5-8.6,38.9-17.3c9.4-7.2,17.4-16.1,23.5-26.3c2.5-4.2,4.7-8.5,6.5-13c3.6-9,5.8-18.6,6.4-28.4
		c0.2-1.9,0.1-3.4,0.2-4.4S341.8,122.8,341.8,122.8c0,0,0,0.6,0,1.6s0,2.5-0.1,4.4c-0.3,5.7-1.2,11.3-2.5,16.8
		c-2.2,8.7-5.6,17-10.2,24.8c-6.1,10.2-14.1,19.2-23.5,26.4c-11.5,8.8-24.9,14.7-39.1,17.4c-12.1,2.2-24.4,2.1-36.4-0.4
		c-4.2-0.9-8.4-2.1-12.4-3.5c-17.3-6.3-32.3-17.6-43.2-32.4c-2.9-3.9-5.4-7.9-7.6-12.2c-1.1-2.1-2.1-4.4-3.1-6.6s-1.8-4.5-2.6-6.9
		c-1.6-4.7-2.8-9.5-3.5-14.4c-0.8-5-1.2-10-1.2-15c0-5,0.4-10,1.2-15c0.8-4.9,2-9.7,3.6-14.4c0.7-2.3,1.7-4.6,2.6-6.9s2-4.4,3.1-6.6
		c2.2-4.3,4.7-8.3,7.6-12.2c10.9-14.8,25.9-26.1,43.2-32.4c4.1-1.4,8.2-2.6,12.4-3.5c12-2.5,24.4-2.6,36.4-0.4
		c14.2,2.7,27.6,8.6,39.1,17.4c9.5,7.2,17.4,16.2,23.5,26.5c2.5,4.2,4.6,8.6,6.4,13.1c1.5,3.8,2.8,7.7,3.8,11.7
		c1.4,5.5,2.2,11.1,2.5,16.8c0.2,1.9,0.1,3.4,0.1,4.4S341.8,122.8,341.8,122.8z"/>
	<path class="st4" d="M433.2,188.6c3.5-1.6,5.8-5.1,5.8-8.9c0-5.3-4-9.7-9-9.7s-9.1,4.3-9.1,9.6c-0.1,3.9,2.2,7.4,5.8,9
		c-13.9,2.1-13.3,17.2-13.3,17.2l32.9,0.1C446.3,205.9,447,190.7,433.2,188.6z"/>
	<path class="st5" d="M179,39.4c-1.5-11.1-11.6-18.9-22.7-17.4c-11.1,1.5-18.9,11.6-17.4,22.7c1.3,9.8,9.5,17.2,19.4,17.6
		c0.2,2.2,0,4.4-0.5,6.5c2.6-1.7,4.7-4.1,5.9-7C173.7,59.4,180.4,49.7,179,39.4z"/>
	<path class="st2" d="M179,39.4c0,0.2,0.1,0.4,0.1,0.5c0,0.3,0.1,0.9,0.1,1.6c0.1,2-0.2,4-0.7,6c-0.2,0.7-0.4,1.3-0.6,2l-0.4,1
		l-0.5,1c-2.7,5.3-7.6,9.1-13.4,10.5l0.1-0.1c-1.2,2.9-3.3,5.4-6,7.1c-0.1,0.1-0.2,0-0.3-0.1c0,0,0,0,0,0c0-0.1,0-0.1,0-0.2
		c0.5-2.1,0.7-4.3,0.6-6.5l0.2,0.2c-1.9-0.1-3.7-0.4-5.5-1c-1.8-0.6-3.6-1.4-5.2-2.5c-7.5-5-10.9-14.4-8.2-23c0.6-2.2,1.7-4.2,3-6
		c1.2-1.7,2.8-3.3,4.5-4.5c1.6-1.2,3.5-2.1,5.4-2.8c0.5-0.2,0.9-0.3,1.4-0.4l0.7-0.2l0.7-0.1c0.5-0.1,0.9-0.2,1.4-0.2l1.4-0.1
		c6.4-0.4,12.5,2.3,16.7,7.1c1.4,1.6,2.5,3.5,3.3,5.4l0.4,1.2c0.1,0.4,0.2,0.7,0.3,1c0.2,0.5,0.3,1.1,0.4,1.7c0.1,0.4,0.1,0.8,0.2,1
		c0,0.1,0,0.2,0,0.3l-0.2-0.3c-0.1-0.3-0.1-0.6-0.2-1c-0.1-0.6-0.2-1.1-0.4-1.6c-0.1-0.3-0.2-0.7-0.3-1s-0.3-0.7-0.5-1.1
		c-1.9-4.5-5.5-8.2-9.9-10.3c-3.1-1.5-6.4-2.1-9.8-1.9l-1.4,0.1c-0.5,0.1-0.9,0.2-1.4,0.2l-0.7,0.1l-0.7,0.2
		c-0.4,0.1-0.9,0.3-1.4,0.4c-1.9,0.7-3.6,1.6-5.2,2.8c-1.7,1.3-3.1,2.8-4.4,4.4c-1.3,1.8-2.3,3.7-2.9,5.8c-2.6,8.4,0.7,17.6,8,22.5
		c1.6,1.1,3.3,1.9,5.1,2.5c1.7,0.5,3.5,0.9,5.3,0.9c0.1,0,0.2,0.1,0.2,0.2c0.2,2.2,0,4.4-0.5,6.6l-0.4-0.2c2.6-1.6,4.6-4.1,5.8-6.9
		c0-0.1,0.1-0.1,0.1-0.1c4.9-1.2,9.1-4.1,12-8.1c0.5-0.7,0.9-1.4,1.2-2.1l0.5-1c0.1-0.3,0.3-0.7,0.4-1c0.3-0.6,0.5-1.3,0.7-1.9
		c0.5-1.9,0.8-3.9,0.8-5.9c0-0.7-0.1-1.2-0.1-1.6C179,39.8,179,39.6,179,39.4z"/>
	<rect x="149" y="32.7" class="st3" width="5.6" height="17.5"/>
	<rect x="157.4" y="36.7" class="st3" width="5.6" height="13.5"/>
	<rect x="165.1" y="42.2" class="st3" width="3.3" height="8"/>
	<rect x="386.9" y="32.2" class="st3" width="9" height="28"/>
	<rect x="400.3" y="38.6" class="st3" width="9" height="21.6"/>
	<rect x="412.7" y="47.4" class="st3" width="9" height="12.8"/>
	<path class="st5" d="M191,272.5c-1.1,19.9-18,35.1-37.9,34c-19.9-1.1-35.1-18-34-37.9c1-17.6,14.5-31.9,32-33.8
		c0-3.9-0.6-7.7-1.8-11.4c4.9,2.6,8.9,6.7,11.3,11.7C178.9,237.9,192,254,191,272.5z"/>
	<path class="st2" d="M191,272.5c0,0,0-0.3,0-1s0-1.6,0-2.8c-0.2-3.5-0.9-7-2.1-10.4c-0.4-1.1-0.9-2.2-1.4-3.3
		c-0.3-0.6-0.6-1.2-0.9-1.7c-0.3-0.6-0.7-1.1-1.1-1.7c-0.8-1.2-1.6-2.4-2.5-3.5c-0.5-0.6-1-1.1-1.5-1.7l-0.8-0.9l-0.9-0.8
		c-0.6-0.5-1.1-1.1-1.8-1.6l-2-1.6c-1.4-1-3-1.9-4.5-2.7c-3.4-1.7-7-2.9-10.8-3.5c-0.1,0-0.1-0.1-0.2-0.1
		c-2.5-4.9-6.4-8.9-11.3-11.5l0.3-0.3c1.2,3.7,1.8,7.6,1.8,11.5c0,0.1-0.1,0.2-0.2,0.2c-3.2,0.4-6.4,1.2-9.4,2.4
		c-3.1,1.3-6,3-8.7,5.1c-9,7-14,17.9-13.6,29.3c0.2,4,1,8,2.4,11.7c0.4,0.9,0.7,1.8,1.2,2.7l1.4,2.6c0.5,0.8,1.1,1.6,1.6,2.4
		s1.2,1.5,1.8,2.3c2.4,2.9,5.2,5.3,8.3,7.3c3,1.9,6.3,3.3,9.7,4.2c0.8,0.2,1.7,0.4,2.5,0.5l1.2,0.2l1.2,0.1c0.8,0.1,1.6,0.2,2.5,0.2
		h2.4c0.4,0,0.8,0,1.2,0l1.2-0.1c0.8-0.1,1.6-0.1,2.4-0.2l2.3-0.5l1.1-0.2l1.1-0.3l2.1-0.6c0.7-0.2,1.4-0.5,2-0.8
		c1.3-0.5,2.6-1.1,3.8-1.9c4.3-2.5,8.1-5.8,11-9.8c2.2-3,4-6.3,5.2-9.9l0.7-2.1c0.2-0.7,0.3-1.3,0.4-1.9s0.2-1.1,0.4-1.6
		s0.1-0.9,0.2-1.4c0.1-0.8,0.2-1.4,0.2-1.8S191,272.4,191,272.5c0,0,0,0.2,0,0.6s-0.1,1-0.2,1.9c-0.1,0.4-0.1,0.9-0.1,1.4l-0.3,1.6
		c-0.1,0.6-0.2,1.2-0.4,1.9s-0.4,1.4-0.7,2.1c-1.2,3.6-2.9,7-5.1,10c-3,4-6.7,7.4-11.1,9.9c-1.2,0.7-2.5,1.4-3.8,1.9
		c-0.7,0.3-1.3,0.6-2,0.8l-2.1,0.7l-1.1,0.3l-1.1,0.2l-2.3,0.5c-0.8,0.1-1.6,0.2-2.4,0.2l-1.2,0.1c-0.4,0-0.8,0-1.2,0h-2.5
		c-0.8-0.1-1.7-0.2-2.5-0.2l-1.3-0.1l-1.3-0.3c-0.8-0.2-1.7-0.3-2.5-0.5c-3.5-1-6.8-2.4-9.8-4.3c-3.2-2-6-4.5-8.5-7.4
		c-0.6-0.8-1.3-1.5-1.8-2.3l-1.7-2.4l-1.4-2.6c-0.5-0.9-0.8-1.8-1.2-2.7c-1.5-3.8-2.3-7.8-2.5-11.9c-0.4-11.6,4.7-22.6,13.9-29.7
		c2.7-2.1,5.7-3.8,8.8-5.1c3.1-1.2,6.3-2,9.5-2.4l-0.2,0.2c0-3.8-0.6-7.7-1.8-11.3c0-0.1,0-0.3,0.2-0.3c0.1,0,0.1,0,0.2,0
		c4.9,2.6,9,6.7,11.5,11.7l-0.2-0.1c3.8,0.6,7.5,1.8,10.9,3.6c1.6,0.8,3.1,1.7,4.6,2.8l2,1.6c0.7,0.5,1.2,1.1,1.8,1.7l0.9,0.8
		c0.3,0.3,0.5,0.6,0.8,0.9c0.5,0.6,1,1.1,1.5,1.7c0.9,1.1,1.7,2.3,2.5,3.6c0.4,0.6,0.7,1.2,1.1,1.8s0.6,1.2,0.9,1.8
		c0.5,1.1,1,2.2,1.4,3.4c1.2,3.4,1.8,6.9,2,10.5c0,1.2,0,2.2,0,2.8S191,272.5,191,272.5z"/>
	<path class="st3" d="M173.5,265.3c0-9.9-8-18-17.9-18.1c-9.9,0-18,8-18.1,17.9c0,7,4,13.4,10.4,16.4v4.5h15.7c0,0,0.1-2.5,0.1-4.8
		C169.7,278.2,173.5,272,173.5,265.3z"/>
	<path class="st3" d="M163.6,289H148c-0.6,0-1.1-0.4-1.2-1l0,0c0.1-0.6,0.6-1,1.2-1h15.6c0.6,0,1.1,0.4,1.2,1l0,0
		C164.7,288.6,164.2,289,163.6,289z"/>
	<path class="st3" d="M162.4,289.9h-13.5c-0.6,0-1,0.4-1,1s0.4,1,1,1h1.5l2,3.7c0.2,0.4,0.7,0.7,1.2,0.7h4.8c0.5,0,0.9-0.3,1.2-0.7
		l1.9-3.7h1c0.6,0,1-0.4,1-1S163,289.9,162.4,289.9L162.4,289.9z"/>
	<path class="st2" d="M159.2,295.9c0,0-0.4-0.1-0.9-0.3c-0.7-0.2-1.5-0.3-2.3-0.3c-0.8,0-1.5,0.2-2.3,0.4c-0.6,0.2-0.9,0.4-0.9,0.3
		c0.2-0.2,0.5-0.4,0.9-0.5c1.5-0.6,3.2-0.7,4.7-0.1C158.7,295.6,159,295.7,159.2,295.9z"/>
	<path class="st2" d="M161.4,291.9c0,0.1-2.4,0.1-5.5,0.1s-5.5,0-5.5-0.1s2.4-0.1,5.5-0.1S161.4,291.9,161.4,291.9z"/>
	<path class="st2" d="M160.6,293.5c-0.4,0.1-0.9,0.1-1.3,0.1c-0.8,0-2,0.1-3.2,0.1s-2.4,0-3.2,0c-0.4,0-0.9,0-1.3-0.1
		c0.4,0,0.9-0.1,1.3-0.1h3.2l3.2-0.1C159.7,293.5,160.2,293.5,160.6,293.5z"/>
	<path class="st5" d="M150.8,250.8c0.1,0.2-1.2,0.5-3,1.6c-4.8,2.7-7.5,7.9-7.1,13.4c0.1,2.1,0.6,3.3,0.4,3.4s-0.9-1.1-1.2-3.3
		c-0.9-5.9,2.1-11.7,7.5-14.2C149.4,250.7,150.8,250.7,150.8,250.8z"/>
	<path class="st5" d="M156,249.9c0.1,0.3-0.3,0.6-0.7,0.7s-0.9-0.1-0.9-0.4s0.3-0.6,0.7-0.7S155.9,249.5,156,249.9z"/>
	<path class="st5" d="M160,285.5c0,0-0.1-0.2-0.1-0.6l-0.2-1.8c-0.2-1.6-0.5-3.9-0.8-6.7c-0.1-1.4-0.4-3-0.5-4.7
		c0-0.5,0.1-0.9,0.5-1.2c0.3-0.4,0.9-0.5,1.4-0.2c0.4,0.3,0.6,0.8,0.7,1.2c0.1,0.5,0,1-0.2,1.4c-0.4,0.9-1.1,1.7-2,2.1
		c-1,0.4-2.1,0.4-3-0.1c-1-0.5-1.7-1.4-2.1-2.4c-0.2-0.5-0.2-1.1-0.2-1.6c0-0.3,0.1-0.6,0.3-0.8c0.2-0.3,0.5-0.4,0.8-0.4
		c0.3,0,0.6,0.1,0.8,0.4c0.2,0.2,0.4,0.4,0.5,0.7c0.2,0.5,0.3,1.1,0.3,1.6c0.1,1.1-0.4,2.2-1.1,3c-0.8,0.8-2,1.1-3,0.7
		c-0.9-0.4-1.7-1.1-2.2-2c-0.2-0.4-0.4-0.9-0.6-1.3c-0.2-0.4-0.2-0.9-0.1-1.4c0-0.2,0.2-0.5,0.3-0.7c0.2-0.2,0.5-0.2,0.8-0.1
		c0.4,0.3,0.6,0.7,0.6,1.2c0.4,1.5,0.7,3.1,0.9,4.6c0.2,2.3,0.1,4.5-0.3,6.8c-0.2,0.8-0.4,1.6-0.6,2.4c0,0,0-0.2,0.1-0.6
		s0.2-1,0.4-1.8c0.4-2.2,0.5-4.5,0.3-6.8c-0.1-1.5-0.4-3.1-0.9-4.6c-0.1-0.4-0.2-0.9-0.5-1c-0.1-0.1-0.3-0.1-0.5,0
		c-0.1,0.1-0.2,0.3-0.2,0.5c-0.1,0.4,0,0.9,0.1,1.3c0.1,0.4,0.3,0.9,0.5,1.3c0.4,0.8,1.1,1.5,2,1.9c0.9,0.3,2,0,2.7-0.7
		c0.7-0.7,1.1-1.7,1-2.8c0-0.5-0.1-1-0.3-1.5c-0.2-0.5-0.6-0.9-1-0.9s-0.8,0.5-0.8,1c0,0.5,0,1,0.2,1.5c0.3,1,1,1.8,1.9,2.3
		c0.9,0.5,1.9,0.5,2.8,0.1c0.9-0.4,1.6-1.1,1.9-2c0.2-0.4,0.2-0.9,0.2-1.3c0-0.4-0.3-0.8-0.6-1.1c-0.3-0.2-0.8-0.2-1.1,0.1
		c-0.3,0.3-0.4,0.7-0.4,1.1c0.1,1.6,0.3,3.2,0.5,4.6c0.3,2.8,0.5,5.1,0.7,6.8c0.1,0.8,0.1,1.4,0.2,1.8S160,285.5,160,285.5z"/>
	<path class="st5" d="M412.4,257.1c8.6,14.6,3.7,33.3-10.8,41.9c-14.6,8.6-33.3,3.7-41.9-10.8c-7.6-12.9-4.8-29.4,6.7-39
		c-1.8-2.8-4.1-5.2-6.7-7.2c4.7-0.5,9.4,0.5,13.5,2.9C387.5,238.2,404.4,243.5,412.4,257.1z"/>
	<path class="st2" d="M412.4,257.1c0,0-0.2-0.2-0.5-0.7s-0.7-1.1-1.3-1.9c-1.8-2.4-4-4.5-6.4-6.3c-0.8-0.6-1.7-1.2-2.6-1.7l-1.4-0.8
		l-1.6-0.7c-1.1-0.5-2.3-0.9-3.4-1.3c-0.6-0.2-1.2-0.3-1.9-0.5c-0.3-0.1-0.6-0.2-1-0.2l-1-0.2c-0.7-0.1-1.4-0.3-2.1-0.3l-2.1-0.2
		c-1.5,0-3,0-4.5,0.2c-3.2,0.4-6.4,1.2-9.3,2.6c-0.1,0-0.1,0-0.2,0c-4.1-2.3-8.8-3.3-13.4-2.8l0.1-0.4c2.6,2,4.9,4.5,6.7,7.3
		c0.1,0.1,0,0.2,0,0.3c-2.1,1.8-3.9,3.9-5.5,6.1c-1.6,2.4-2.9,5-3.8,7.7c-3,9.2-1.5,19.3,4.2,27.2c2,2.8,4.5,5.2,7.2,7.2
		c0.7,0.5,1.4,1,2.1,1.4l2.2,1.2l2.3,1c0.8,0.3,1.5,0.5,2.3,0.8c3,0.9,6.2,1.3,9.4,1.2c3-0.1,6-0.6,8.9-1.6c0.7-0.2,1.4-0.5,2-0.8
		l1-0.4l1-0.5c0.6-0.3,1.3-0.6,1.9-1l1.7-1.1c0.3-0.2,0.6-0.4,0.9-0.6l0.8-0.6l1.6-1.3l1.4-1.4l0.7-0.7l0.6-0.7l1.2-1.5
		c0.4-0.5,0.7-1,1-1.5c0.7-1,1.3-2,1.8-3.1c1.9-3.8,3-7.9,3.2-12.1c0.2-3.2-0.2-6.4-1-9.5c-0.2-0.6-0.3-1.2-0.5-1.8s-0.4-1-0.6-1.5
		l-0.5-1.3c-0.2-0.4-0.4-0.7-0.5-1l-0.7-1.4C412.4,257.3,412.3,257.1,412.4,257.1c-0.1,0.1,0,0.2,0.2,0.5l0.8,1.4
		c0.2,0.3,0.4,0.6,0.5,1s0.4,0.8,0.5,1.3s0.4,1,0.6,1.5s0.3,1.2,0.5,1.8c0.9,3.1,1.2,6.3,1.1,9.5c-0.2,4.3-1.3,8.4-3.2,12.3
		c-0.5,1.1-1.1,2.1-1.8,3.1c-0.4,0.5-0.7,1-1,1.6l-1.2,1.5l-0.6,0.8l-0.7,0.7l-1.4,1.4l-1.6,1.3l-0.8,0.6c-0.3,0.2-0.6,0.4-0.9,0.6
		l-1.8,1.2c-0.6,0.4-1.3,0.7-1.9,1l-1,0.5l-1,0.4c-0.7,0.3-1.4,0.6-2.1,0.8c-2.9,0.9-5.9,1.5-9,1.6c-3.2,0.1-6.4-0.4-9.5-1.2
		c-0.8-0.3-1.6-0.4-2.4-0.8l-2.3-1c-0.7-0.4-1.5-0.8-2.2-1.2s-1.4-0.9-2.1-1.4c-2.8-2-5.3-4.5-7.4-7.3c-2.1-2.9-3.7-6.2-4.6-9.6
		c-1.7-5.9-1.5-12.2,0.4-18c0.9-2.8,2.2-5.4,3.8-7.8c1.6-2.3,3.5-4.4,5.6-6.2l0,0.3c-1.8-2.7-4-5.1-6.6-7.2c-0.1-0.1-0.1-0.2,0-0.3
		c0,0,0.1-0.1,0.2-0.1c4.8-0.5,9.5,0.5,13.7,2.9h-0.2c3-1.3,6.2-2.2,9.4-2.6c1.5-0.2,3-0.2,4.5-0.2l2.2,0.2c0.7,0,1.4,0.2,2.1,0.3
		l1,0.2c0.3,0.1,0.6,0.2,1,0.2c0.6,0.2,1.3,0.3,1.9,0.5c1.2,0.4,2.3,0.8,3.5,1.4l1.6,0.8l1.4,0.8c0.9,0.5,1.8,1.1,2.6,1.7
		c2.4,1.8,4.6,4,6.4,6.4c0.6,0.9,1,1.6,1.3,2S412.4,257.1,412.4,257.1z"/>
	<path class="st3" d="M387.8,260.1l2.9,5.9c0.3,0.5,0.8,0.9,1.4,1l6.5,0.9c1,0.2,1.8,1.1,1.6,2.2c-0.1,0.4-0.3,0.8-0.5,1.1l-4.7,4.5
		c-0.4,0.4-0.7,1.1-0.5,1.7l1.1,6.4c0.2,1-0.5,2-1.6,2.2c-0.4,0.1-0.8,0-1.2-0.2l-5.8-3c-0.6-0.3-1.2-0.3-1.8,0l-5.8,3
		c-0.9,0.5-2.1,0.1-2.6-0.8c-0.2-0.4-0.3-0.8-0.2-1.2l1.1-6.4c0.1-0.6-0.1-1.2-0.5-1.7l-4.7-4.5c-0.8-0.7-0.8-1.9-0.1-2.7
		c0.3-0.3,0.7-0.5,1.1-0.6l6.4-0.9c0.6-0.1,1.1-0.5,1.4-1l2.9-5.9c0.4-1,1.6-1.4,2.5-0.9C387.2,259.4,387.6,259.7,387.8,260.1z"/>
	<polygon class="st3" points="301,435 301,468.4 349.9,468.4 403.8,468.4 403.8,435 	"/>
	<polygon class="st3" points="296.7,425.7 296.7,435 407.4,435 407.4,425.7 349.9,425.7 	"/>
	<polygon class="st3" points="352,468.4 403.8,468.4 403.8,435 407.4,435 407.4,425.7 349.9,425.7 349.9,434.1 	"/>
	<rect x="315.4" y="440.4" class="st2" width="20.9" height="5"/>
	<rect x="312.7" y="451.7" class="st5" width="26.8" height="10.6"/>
	<polygon class="st3" points="308,401.4 308,425.9 343.9,425.9 383.4,425.9 383.4,401.4 	"/>
	<polygon class="st3" points="304.9,394.6 304.9,401.4 386,401.4 386,394.6 343.9,394.6 	"/>
	<polygon class="st3" points="345.4,425.9 383.4,425.9 383.4,401.4 386,401.4 386,394.6 343.9,394.6 343.9,400.8 	"/>
	<rect x="318.6" y="405.4" class="st2" width="15.3" height="3.7"/>
	<rect x="316.6" y="413.7" class="st5" width="19.6" height="7.8"/>
</g>
<g id="freepik--Floor--inject-29">
	<path class="st6" d="M464.2,468.7c0,0.1-95.9,0.3-214.2,0.3s-214.2-0.1-214.2-0.3s95.9-0.3,214.2-0.3S464.2,468.6,464.2,468.7z"/>
</g>
<g id="freepik--plant-2--inject-29">
	<polygon class="st6" points="396.2,441.3 400.3,468.4 424.2,468.4 429.8,441.7 	"/>
	<path class="st1" d="M426.1,459c0,0.1-6.1,0.1-13.7,0.1s-13.7-0.1-13.7-0.1s6.1-0.1,13.7-0.1S426.1,458.9,426.1,459z"/>
	<path class="st1" d="M426.2,457.6c0,0.1-6.2,0.1-13.8,0.1s-13.8-0.1-13.8-0.1s6.2-0.1,13.8-0.1S426.2,457.6,426.2,457.6z"/>
	<path class="st1" d="M426.2,456.1c0,0.1-6.2,0.1-13.8,0.1s-13.8-0.1-13.8-0.1s6.2-0.1,13.8-0.1S426.2,456.1,426.2,456.1z"/>
	<path class="st1" d="M402.8,467.1c-0.3-1.1-0.6-2.3-0.7-3.4c-0.2-1.1-0.4-2.3-0.5-3.5c0.3,1.1,0.6,2.3,0.7,3.4
		C402.5,464.8,402.7,466,402.8,467.1z"/>
	<path class="st1" d="M404.4,466.9c-0.2-2.2-0.4-4.4-0.5-6.6C404.4,462.4,404.5,464.6,404.4,466.9z"/>
	<path class="st1" d="M407.4,466.9c-0.3-1.1-0.5-2.3-0.6-3.4c-0.2-1.1-0.2-2.3-0.2-3.5c0.2,1.1,0.4,2.3,0.5,3.4
		C407.2,464.6,407.3,465.7,407.4,466.9z"/>
	<path class="st1" d="M409.4,467c-0.2-1.1-0.3-2.3-0.3-3.5c-0.1-1.2-0.1-2.3,0.1-3.5c0.1,1.2,0.2,2.3,0.2,3.5
		C409.5,464.7,409.5,465.8,409.4,467z"/>
	<path class="st1" d="M413.1,466.9c-0.2-1.1-0.3-2.2-0.2-3.3c-0.1-1.1-0.1-2.2,0-3.3C413.1,462.5,413.2,464.7,413.1,466.9
		L413.1,466.9z"/>
	<path class="st1" d="M415.8,467c-0.1-1.1-0.2-2.3-0.1-3.4c0-1.1,0-2.3,0.2-3.4c0.1,1.1,0.2,2.3,0.1,3.4
		C416,464.7,416,465.9,415.8,467z"/>
	<path class="st1" d="M418.3,466.6c0-2.4,0.3-4.7,0.7-7.1c0,1.2-0.1,2.4-0.2,3.6C418.7,464.3,418.6,465.5,418.3,466.6z"/>
	<path class="st1" d="M421.6,466.3c0-1,0.1-2,0.4-3c0.2-1,0.5-2,0.9-2.9c-0.2,1-0.4,2-0.6,3C421.9,465,421.7,466.3,421.6,466.3z"/>
	<path class="st6" d="M393.4,436v5c0,1.1,0.9,2,2,2h34.6c1.1,0,2-0.9,2-2v-5H393.4z"/>
	<g class="st7">
		<polygon points="396.1,443.3 396.4,444.9 428.4,447.2 429.2,443.3 		"/>
	</g>
	<path class="st8" d="M398.4,436.3c0,0-13.5-15.5-12-16.1s13.5,8,13.5,8s-10.3-23-8.2-24.7s12.9,20.4,12.9,20.4s-1.7-32.2,0-32.5
		s7.9,32.2,7.9,32.2s9.2-29.7,11.8-29.7s-2.8,28.6-2.8,28.6s10.9-18.3,12.5-15.9s-7.7,22.3-7.7,22.3s13.7-11.4,14.2-9.9
		s-14.8,17.4-14.8,17.4L398.4,436.3z"/>
	<path class="st6" d="M396.5,412.9c0.1,0,2.5,5.1,5.3,11.4s5.1,11.5,5,11.6s-2.5-5.1-5.3-11.4S396.4,413,396.5,412.9z"/>
	<path class="st6" d="M407.4,415.8c0.1,0,0.5,4.5,0.9,10.1s0.6,10.1,0.5,10.1s-0.5-4.5-0.9-10.1S407.3,415.8,407.4,415.8z"/>
	<path class="st6" d="M422.4,401.4c0,0.1,0,0.2-0.1,0.4l-0.3,1l-1.1,3.7c-1,3.2-2.2,7.5-3.5,12.4s-2.4,9.3-3.1,12.5
		c-0.4,1.6-0.7,2.9-0.9,3.8c-0.1,0.4-0.2,0.8-0.2,1s-0.1,0.4-0.1,0.4c0-0.1,0-0.2,0-0.4c0-0.3,0.1-0.6,0.2-1
		c0.2-0.9,0.4-2.2,0.8-3.8c0.7-3.2,1.7-7.7,3-12.6s2.6-9.3,3.6-12.4c0.5-1.6,0.9-2.9,1.2-3.7c0.1-0.4,0.3-0.7,0.4-1
		C422.2,401.6,422.3,401.5,422.4,401.4z"/>
	<path class="st6" d="M428.9,418c0.1,0.1-2.5,4-5.9,8.8s-6.1,8.6-6.2,8.5s2.5-4,5.9-8.8S428.8,417.9,428.9,418z"/>
	<path class="st6" d="M402.9,436c-0.4-0.2-0.8-0.5-1.2-0.8c-0.9-0.7-1.7-1.5-2.6-2.4c-0.8-0.8-1.6-1.7-2.3-2.6
		c-0.3-0.4-0.6-0.8-0.8-1.2c0.1-0.1,1.5,1.6,3.4,3.6S403,435.9,402.9,436z"/>
	<path class="st6" d="M411.1,429.8c0.3,1,0.4,2.1,0.5,3.2c0.2,1.1,0.2,2.2,0.1,3.2c-0.3-1-0.4-2.1-0.5-3.2
		C411,432,411,430.9,411.1,429.8z"/>
</g>
<g id="freepik--plant-1--inject-29">
	<path class="st6" d="M102.1,440c0,0-4.3-29.8-4-47.1s0-36.8,0-36.8h2c0,0-1.3,34.4,0.1,55.1s5.3,28.8,5.3,28.8L102.1,440"/>
	<path class="st8" d="M115,322.7c-0.3-1.1-0.9-2-1.8-2.7c-1.3-0.8-2.9-0.5-4.3,0c-6,2.1-11.4,13.4-13.8,19.3l8,27
		C117.5,352.9,120,335.3,115,322.7z"/>
	<path class="st6" d="M112.7,321.1c0,0.1-0.1,0.2-0.1,0.4c-0.1,0.3-0.2,0.6-0.4,1c-0.4,0.8-0.8,2.1-1.4,3.6c-1.2,3.1-2.7,7.3-4,12.2
		s-2.2,9.3-2.8,12.5c-0.3,1.6-0.5,2.9-0.6,3.8c-0.1,0.4-0.1,0.8-0.2,1c0,0.1,0,0.2-0.1,0.4c0-0.1,0-0.2,0-0.4c0-0.3,0.1-0.6,0.1-1
		c0.1-0.9,0.3-2.2,0.5-3.9c1.4-8.4,3.7-16.7,6.9-24.7c0.6-1.5,1.1-2.7,1.5-3.6l0.4-1C112.6,321.3,112.7,321.2,112.7,321.1z"/>
	<path class="st8" d="M99.5,372.8c-7.4-4.2-12.1-12-12.3-20.5c-0.3-6,1.6-11.9,3.6-17.5c0.1-0.5,0.4-1,0.8-1.3
		c0.7-0.2,1.4-0.1,2,0.3c5.4,3.1,8.8,9,10.5,15c1.3,4,1.7,8.2,1.2,12.4C104.7,365.6,102.6,369.6,99.5,372.8"/>
	<path class="st6" d="M99.5,372.8c0-0.1,0-0.2,0-0.4c0-0.3,0-0.6,0-1c0-0.9,0-2.2-0.1-3.8c-0.2-4.2-0.7-8.4-1.4-12.5
		c-0.8-4.8-1.8-9.1-2.6-12.3c-0.4-1.5-0.7-2.8-0.9-3.7c-0.1-0.4-0.2-0.7-0.2-1c0-0.1-0.1-0.2-0.1-0.4c0.1,0.1,0.1,0.2,0.1,0.3
		c0.1,0.3,0.2,0.6,0.3,1c0.2,0.9,0.6,2.1,1,3.7c0.8,3.1,1.8,7.4,2.7,12.3c0.7,4.1,1.2,8.3,1.3,12.5c0.1,1.6,0.1,2.9,0,3.8
		c0,0.4,0,0.8,0,1C99.6,372.5,99.6,372.7,99.5,372.8z"/>
	<path class="st8" d="M108,418.3c7.4,1.6,13.5,6.8,20.6,9.4c4.7,1.7,10,2.3,13.8,5.6c-0.9-2.3-3-3.8-5.1-5.1
		c-5.9-3.7-12.1-6.6-18.7-8.9c-3.3-1.1-7-2.1-10.4-1.2"/>
	<path class="st6" d="M108.2,418c0.1,0,0.1,0,0.2-0.1c0.2-0.1,0.4-0.1,0.6-0.1c0.7-0.2,1.5-0.2,2.2-0.2c2.7,0.1,5.5,0.7,8,1.7
		c3.8,1.3,7.6,2.9,11.2,4.7c2,1,4.1,2.2,6.3,3.5c1.1,0.6,2.2,1.3,3.2,2.1c1.1,0.8,1.9,1.8,2.6,3l0.2,0.5l0.3,0.8l-0.6-0.6
		c-2-1.6-4.2-2.7-6.7-3.4c-2.3-0.7-4.6-1.3-6.8-2c-2-0.7-4-1.6-5.9-2.6c-1.8-0.9-3.4-1.9-4.9-2.7c-2.3-1.3-4.8-2.5-7.3-3.4
		c-0.9-0.3-1.6-0.5-2.1-0.7l-0.6-0.1l-0.2-0.1h0.2l0.6,0.1c0.5,0.1,1.2,0.3,2.1,0.6c2.5,0.9,5,2,7.3,3.3c1.5,0.8,3.1,1.7,4.9,2.6
		c1.9,1,3.8,1.9,5.8,2.6c2.1,0.7,4.4,1.3,6.8,2c2.5,0.7,4.8,1.9,6.8,3.5l-0.3,0.2c-0.1-0.1-0.1-0.3-0.2-0.5
		c-0.6-1.1-1.4-2.1-2.4-2.9c-1-0.8-2-1.5-3.1-2.1c-2.1-1.3-4.2-2.5-6.2-3.5c-3.6-1.8-7.3-3.4-11.1-4.8c-2.5-1-5.2-1.6-7.9-1.8
		c-0.7,0-1.5,0-2.2,0.2C108.7,417.9,108.4,418,108.2,418z"/>
	<path class="st8" d="M97.3,424.9c-9.2-0.1-19-8-28.2-8.5C78.7,413.3,92.5,415.8,97.3,424.9"/>
	<path class="st8" d="M100.9,402.7c4.8-1.6,9.8-1.9,14.8-1c4.9,0.9,9.7,2.2,14.4,3.9c-0.5-3.2-3.1-5.6-5.5-7.8
		c-1.8-1.7-3.7-3.1-5.8-4.5c-2.1-1.3-4.5-2-7-2c-3,0.2-5.7,1.6-7.7,3.9C102.3,397.3,101.1,399.9,100.9,402.7"/>
	<path class="st6" d="M100.9,402.7c0,0,0-0.1,0-0.2s0-0.3,0-0.5c0.1-0.7,0.2-1.3,0.4-2c0.8-2.5,2.3-4.6,4.3-6.3
		c1.4-1.1,3-1.9,4.8-2.2c2-0.3,4.1-0.1,6,0.7c2.1,0.9,4,2.1,5.7,3.5c0.9,0.7,1.8,1.5,2.7,2.3c0.9,0.8,1.8,1.6,2.6,2.5
		c1.4,1.4,2.3,3.2,2.7,5.1v0.3l-0.3-0.1c-3.7-1.3-7.5-2.4-11.3-3.4c-3.1-0.7-6.2-1.1-9.4-1.1c-2.1,0-4.2,0.3-6.2,0.7
		c-0.7,0.2-1.3,0.3-1.6,0.5L100.9,402.7c-0.1,0-0.1,0-0.1,0L100.9,402.7l0.4-0.2c0.4-0.1,0.9-0.3,1.6-0.5c2-0.5,4.1-0.8,6.2-0.9
		c3.2,0,6.4,0.3,9.4,1c3.9,0.9,7.7,2,11.4,3.3l-0.2,0.2c-0.4-1.9-1.3-3.6-2.6-4.9c-0.8-0.9-1.7-1.7-2.6-2.5
		c-0.9-0.8-1.8-1.6-2.7-2.3c-1.7-1.4-3.6-2.6-5.6-3.5c-1.8-0.8-3.9-1-5.8-0.7c-1.7,0.3-3.3,1.1-4.7,2.1c-1.1,0.9-2.1,2-2.9,3.2
		c-0.6,0.9-1.1,1.9-1.4,2.9c-0.2,0.7-0.4,1.3-0.5,2C100.9,402.2,100.9,402.5,100.9,402.7z"/>
	<path class="st8" d="M81.9,392.5c-5.8-5-14.6-4.5-22.3-4.3c12.3,5.9,23.9,13.1,34.6,21.5C94.5,404.3,89.3,398.8,81.9,392.5z"/>
	<path class="st8" d="M103.5,385.6c2.9-2,5.9-3.7,9-5.2c3.1-1.4,5.9-3.6,8.9-5.2c3.8-2.1,7.2-5,10.7-7.5s7.4-4.9,11.7-5.6
		c-3.5-0.6-7.2-0.4-10.6,0.6c-3.4,1-6.8,2.3-10,3.9c-4.5,2-9.2,4.1-12.9,7.5S103.2,380.7,103.5,385.6"/>
	<path class="st6" d="M103.5,385.6v-0.2c0-0.2,0-0.4,0-0.7c0-1,0.2-1.9,0.5-2.8c0.5-1.4,1.3-2.7,2.2-3.9c1.3-1.5,2.7-2.9,4.2-4.2
		c1.8-1.6,3.9-2.9,6-4.1c2.3-1.2,4.8-2.4,7.4-3.6c2.8-1.3,5.6-2.4,8.5-3.4c3.1-1,6.4-1.4,9.7-1.1c0.6,0.1,1.2,0.1,1.8,0.3l1,0.2
		l-1,0.2c-3.1,0.6-6,1.8-8.7,3.5c-2.6,1.6-4.9,3.5-7.1,5.2c-2.1,1.6-4.3,3.1-6.6,4.4c-2.2,1.2-4.1,2.5-5.9,3.6
		c-0.9,0.5-1.8,1-2.7,1.4s-1.7,0.8-2.4,1.2c-1.5,0.8-2.7,1.5-3.7,2.1l-2.3,1.4l-0.6,0.4l-0.2,0.1c0.1-0.1,0.1-0.1,0.2-0.1l0.6-0.4
		c0.5-0.4,1.3-0.9,2.3-1.5s2.2-1.4,3.7-2.2s3.3-1.5,5-2.6s3.7-2.4,5.9-3.6c2.3-1.3,4.5-2.8,6.6-4.4c2.2-1.7,4.5-3.6,7.1-5.2
		c2.7-1.8,5.7-3,8.8-3.6v0.4c-0.5-0.1-1.1-0.2-1.7-0.3c-3.2-0.3-6.5,0.1-9.6,1.1c-2.9,0.9-5.7,2-8.5,3.3c-2.7,1.2-5.2,2.3-7.4,3.5
		c-2.1,1.1-4.1,2.5-5.9,4c-1.5,1.3-2.9,2.7-4.2,4.1c-1,1.1-1.7,2.4-2.2,3.8C103.7,383.1,103.5,384.4,103.5,385.6z"/>
	<path class="st6" d="M128.4,424.9c-0.1,0-0.2-0.1-0.3-0.1l-0.8-0.4c-0.7-0.4-1.7-0.9-3-1.5c-0.6-0.3-1.3-0.7-2.1-1
		s-1.6-0.7-2.4-1.1c-1.8-0.8-3.7-1.5-5.7-2c-1.9-0.5-4-0.6-5.9-0.1c-0.9,0.2-1.7,0.4-2.5,0.8c-0.7,0.3-1.4,0.6-2,1
		c-0.9,0.6-1.8,1.3-2.6,2.1c-0.5,0.6-0.8,0.9-0.8,0.9c0-0.1,0.1-0.2,0.2-0.3c0.1-0.2,0.3-0.4,0.6-0.7c0.7-0.9,1.6-1.6,2.5-2.2
		c0.6-0.4,1.3-0.8,2.1-1.1c0.8-0.3,1.7-0.6,2.6-0.8c2-0.5,4.1-0.4,6.1,0.1c2,0.5,3.9,1.2,5.7,2c0.9,0.4,1.7,0.8,2.4,1.1
		s1.4,0.7,2.1,1.1c1.2,0.7,2.2,1.2,2.9,1.6l0.8,0.5L128.4,424.9z"/>
	<path class="st6" d="M90.4,420.3c0.2,0,0.4,0.1,0.6,0.2c0.5,0.2,1,0.4,1.5,0.6c3.3,1.6,6,4.2,7.7,7.4c0.3,0.5,0.5,1,0.7,1.5
		c0.1,0.2,0.2,0.4,0.2,0.6c0,0-0.4-0.8-1.1-1.9c-0.9-1.5-2-2.9-3.3-4.2c-1.3-1.2-2.7-2.3-4.3-3.2C91.2,420.7,90.4,420.4,90.4,420.3z
		"/>
	<path class="st6" d="M69.9,392c0.1,0,0.3,0.1,0.4,0.1l1.1,0.4l1.8,0.6c0.7,0.2,1.4,0.6,2.3,1c4.3,2,8.4,4.6,12,7.7
		c2,1.7,3.9,3.6,5.6,5.5c1.4,1.6,2.8,3.3,4,5c1,1.5,1.8,2.7,2.4,3.6l0.6,1c0.1,0.1,0.2,0.2,0.2,0.4c-0.1-0.1-0.2-0.2-0.3-0.3
		c-0.2-0.2-0.4-0.5-0.7-1c-0.6-0.8-1.4-2.1-2.5-3.5s-2.4-3.2-4-5c-1.8-1.9-3.6-3.8-5.6-5.5c-3.6-3.1-7.6-5.6-11.9-7.7
		c-0.8-0.4-1.6-0.8-2.2-1l-1.7-0.7l-1.1-0.5C70.2,392.1,70.1,392.1,69.9,392z"/>
	<path class="st6" d="M114.8,397.5c-0.2,0-0.5,0-0.7-0.1l-0.8-0.2c-0.3-0.1-0.7-0.1-1.1-0.1c-3.4-0.3-6.8,0.9-9.2,3.4
		c-0.7,0.7-1.3,1.5-1.9,2.3c-0.5,0.8-0.9,1.6-1.3,2.4c0-0.2,0.1-0.5,0.2-0.7c0.2-0.6,0.5-1.3,0.9-1.8c0.5-0.9,1.1-1.7,1.8-2.4
		c2.5-2.6,6-3.8,9.5-3.4c0.4,0.1,0.8,0.1,1.2,0.2l0.8,0.2C114.3,397.3,114.6,397.4,114.8,397.5z"/>
	<path class="st6" d="M124.1,368.7c-0.1,0.1-0.2,0.2-0.3,0.2l-1,0.6c-0.9,0.5-2.2,1.2-3.8,2.1s-3.4,2.1-5.4,3.5
		c-2.1,1.5-4.1,3.2-6,5c-0.9,0.9-1.8,2-2.4,3.2c-0.6,1.2-1.2,2.3-1.7,3.4c-1,1.9-1.8,3.8-2.6,5.8c-0.5,1.3-0.9,2.7-1.2,4.1
		c-0.2,1-0.3,1.5-0.3,1.5c0-0.1,0-0.3,0-0.4c0-0.3,0.1-0.7,0.2-1.2c0.3-1.4,0.7-2.8,1.2-4.2c0.7-2,1.6-4,2.5-5.9
		c0.5-1.1,1.1-2.2,1.7-3.4c0.7-1.2,1.5-2.3,2.5-3.2c1.8-1.8,3.9-3.5,6-5c2-1.4,3.8-2.5,5.4-3.4s2.9-1.6,3.8-2l1.1-0.5
		C123.8,368.8,123.9,368.7,124.1,368.7z"/>
	<path class="st6" d="M98.1,396.7c-0.1-0.3-0.1-0.5-0.2-0.8c-0.1-0.6-0.2-1.3-0.4-2.1c-0.9-4.7-2.3-9.3-4.4-13.6l-0.9-2
		c-0.1-0.2-0.2-0.5-0.3-0.7c0.2,0.2,0.3,0.4,0.4,0.7c0.2,0.5,0.6,1.1,1,1.9c2.2,4.3,3.7,8.9,4.4,13.6c0.1,0.9,0.2,1.6,0.3,2.1
		C98.1,396.1,98.2,396.4,98.1,396.7z"/>
	<path class="st8" d="M97.5,375.6c-0.3-3.5-1.3-6.9-3-10c-4.6-8.6-12.8-14.7-22.3-16.6l20.7,30.8l2.7,5.5
		C97.2,382.4,97.9,379,97.5,375.6z"/>
	<rect x="79.1" y="436.4" class="st6" width="48.1" height="8.5"/>
	<polygon class="st6" points="82.7,443.2 86.7,469.6 118.7,469.6 123.5,443.2 	"/>
	<path class="st6" d="M127.1,444.9c0,0.1-10.8,0.2-24.2,0.2s-24.2-0.1-24.2-0.2s10.8-0.2,24.2-0.2S127.1,444.8,127.1,444.9z"/>
</g>
<g id="freepik--speech-bubble-4--inject-29">
	<path class="st5" d="M390,154.6c13.4,13.8,13,35.8-0.8,49.2c-13.8,13.4-35.8,13-49.2-0.8c-11.8-12.2-13.1-31.2-3-44.9
		c-2.7-2.6-5.9-4.7-9.3-6.2c5.1-1.8,10.6-1.9,15.7-0.4C357.5,140.4,377.6,141.8,390,154.6z"/>
	<path class="st6" d="M390,154.6l-0.7-0.6c-0.5-0.4-1.1-1.1-2-1.8c-2.7-2.2-5.6-3.9-8.8-5.3c-1.1-0.5-2.2-0.9-3.3-1.2l-1.8-0.5
		l-1.9-0.4c-1.4-0.3-2.8-0.4-4.2-0.6c-0.7,0-1.5,0-2.2,0c-0.4,0-0.8,0-1.1,0l-1.1,0.1c-0.8,0.1-1.6,0.1-2.4,0.2l-2.4,0.4
		c-1.7,0.4-3.3,0.8-4.9,1.4c-3.5,1.3-6.7,3.1-9.6,5.4c-0.1,0-0.1,0-0.2,0c-5.1-1.5-10.6-1.3-15.6,0.5v-0.4c3.4,1.6,6.6,3.7,9.4,6.2
		c0.1,0.1,0.1,0.2,0,0.3c-1.8,2.5-3.3,5.3-4.5,8.2c-1.1,3.1-1.8,6.3-2.1,9.5c-0.9,11,3.5,21.8,11.9,29c3,2.5,6.3,4.6,9.9,6
		c0.9,0.3,1.8,0.7,2.7,0.9l2.7,0.7l2.8,0.4c0.9,0.2,1.9,0.1,2.8,0.2c3.6,0.2,7.2-0.2,10.7-1.2c3.3-0.9,6.5-2.3,9.4-4.1
		c0.7-0.4,1.4-1,2-1.4l1-0.7l0.9-0.8c0.6-0.5,1.2-1,1.8-1.6l1.6-1.7c0.3-0.3,0.5-0.6,0.8-0.9l0.7-0.9c0.5-0.6,0.9-1.2,1.4-1.8
		l1.2-1.9l0.6-0.9l0.5-1l0.9-1.9c0.3-0.7,0.5-1.3,0.8-2c0.5-1.3,0.9-2.6,1.2-3.9c1.1-4.7,1.2-9.5,0.3-14.3c-0.7-3.6-1.9-7-3.6-10.2
		l-1-1.8c-0.4-0.6-0.7-1.1-1.1-1.5l-0.9-1.3c-0.3-0.4-0.6-0.7-0.9-1l-1.2-1.4C390.1,154.7,390,154.6,390,154.6c0,0,0.1,0.1,0.4,0.4
		s0.7,0.8,1.2,1.3c0.3,0.3,0.6,0.6,0.9,1l0.9,1.3c0.3,0.5,0.7,1,1.1,1.5l1.1,1.8c1.8,3.2,3.1,6.6,3.7,10.2c0.9,4.8,0.9,9.7-0.2,14.4
		c-0.3,1.4-0.7,2.7-1.2,4c-0.2,0.7-0.5,1.3-0.7,2s-0.6,1.3-1,2l-0.5,1l-0.6,1l-1.2,1.9c-0.4,0.6-0.9,1.2-1.4,1.8l-0.7,0.9
		c-0.2,0.3-0.5,0.6-0.8,0.9l-1.6,1.8c-0.6,0.6-1.2,1.1-1.8,1.6l-0.9,0.8l-1,0.7c-0.7,0.5-1.4,1-2,1.4c-3,1.8-6.2,3.2-9.5,4.2
		c-3.5,0.9-7.2,1.3-10.8,1.1c-0.9-0.1-1.9-0.1-2.8-0.2l-2.8-0.5l-2.8-0.7c-0.9-0.2-1.8-0.6-2.7-1c-3.7-1.5-7.1-3.5-10.1-6.1
		c-8.5-7.3-13-18.2-12.1-29.4c0.3-3.3,1-6.5,2.1-9.6c1.2-3,2.7-5.8,4.6-8.3v0.3c-2.7-2.5-5.8-4.6-9.2-6.2c-0.1-0.1-0.2-0.2-0.1-0.3
		c0-0.1,0.1-0.1,0.1-0.1c5.1-1.8,10.7-2,15.9-0.4h-0.2c4.3-3.3,9.3-5.7,14.7-6.8l2.4-0.4c0.8-0.1,1.6-0.1,2.4-0.2l1.2-0.1
		c0.4,0,0.8,0,1.1,0c0.8,0,1.5,0,2.2,0.1c1.4,0.1,2.8,0.3,4.2,0.6l2,0.4l1.8,0.6c1.1,0.3,2.2,0.7,3.3,1.2c3.2,1.4,6.1,3.2,8.8,5.4
		c0.9,0.8,1.5,1.4,2,1.9S390,154.6,390,154.6z"/>
	<path class="st8" d="M352.2,172.3c0.6-1.1,1.4-2.2,2.3-3.1l-1.2-3.4l5.1-3.1l2.5,2.6c1.2-0.4,2.5-0.6,3.8-0.6l1.6-3.2l5.8,1.4v3.6
		c1.2,0.6,2.2,1.4,3.2,2.3l3.4-1.2l3.1,5.1l-2.6,2.6c0.4,1.2,0.6,2.5,0.6,3.9l3.2,1.6l-1.4,5.8h-3.6c-0.6,1.1-1.4,2.2-2.3,3.1
		l1.2,3.4l-5.1,3.1l-2.5-2.6c-1.2,0.4-2.5,0.6-3.8,0.6l-1.6,3.2l-5.8-1.4v-3.6c-1.1-0.6-2.2-1.4-3.2-2.3l-3.4,1.2l-3.1-5.1l2.6-2.5
		c-0.4-1.2-0.6-2.5-0.6-3.8l-3.2-1.6l1.4-5.8L352.2,172.3L352.2,172.3z M359.4,176.3c-1.5,3.2-0.1,7,3.2,8.5s7,0.1,8.5-3.2
		c1.5-3.2,0.1-7-3.2-8.5c-0.8-0.4-1.6-0.5-2.4-0.6C362.9,172.4,360.5,173.9,359.4,176.3L359.4,176.3z"/>
</g>
<g id="freepik--speech-bubble-3--inject-29">
	<path class="st5" d="M414,78.7c16.1,2.1,27.4,16.7,25.4,32.8s-16.7,27.4-32.8,25.4c-14.2-1.8-25-13.6-25.6-27.8
		c-3.1-0.2-6.3,0-9.4,0.8c2.4-3.8,5.9-6.8,10.1-8.6C385.1,86.5,399,76.8,414,78.7z"/>
	<path class="st6" d="M414,78.7c0,0-0.3,0-0.8,0s-1.3-0.1-2.3-0.1c-2.9,0-5.8,0.4-8.5,1.2c-0.9,0.3-1.9,0.6-2.8,1l-1.5,0.6l-1.5,0.8
		c-1,0.6-2,1.2-3,1.8c-0.5,0.4-1,0.8-1.5,1.1c-0.2,0.2-0.5,0.4-0.8,0.6l-0.7,0.7c-2.1,1.9-3.8,4-5.3,6.4c-1.6,2.7-2.8,5.5-3.5,8.6
		c0,0.1-0.1,0.1-0.1,0.2c-4.1,1.7-7.6,4.7-10,8.5l-0.3-0.3c3.1-0.8,6.3-1.1,9.5-0.8c0.1,0,0.2,0.1,0.2,0.2c0.1,2.6,0.6,5.2,1.4,7.8
		c0.9,2.6,2.1,5.1,3.6,7.3c5.2,7.7,13.7,12.4,23,12.7c3.3,0.1,6.5-0.3,9.7-1.3c0.8-0.3,1.5-0.5,2.3-0.8l2.2-1l2-1.2
		c0.7-0.4,1.3-0.9,1.9-1.3c2.4-1.8,4.6-3.9,6.4-6.4c1.7-2.3,3-4.9,4-7.6c0.2-0.7,0.4-1.3,0.6-2l0.3-1l0.2-1c0.1-0.7,0.2-1.3,0.3-2
		l0.1-2c0-0.3,0.1-0.7,0.1-1v-1c0-0.7,0-1.3,0-1.9s-0.2-1.3-0.2-1.9l-0.1-0.9l-0.2-0.9c-0.1-0.6-0.3-1.2-0.4-1.8s-0.4-1.1-0.6-1.7
		c-0.4-1.1-0.8-2.1-1.3-3.2c-1.7-3.6-4.2-6.9-7.3-9.5c-2.3-2-4.9-3.6-7.8-4.8l-1.6-0.7c-0.5-0.2-1-0.3-1.5-0.4l-1.3-0.3
		c-0.4-0.1-0.8-0.2-1.1-0.2l-1.5-0.3L414,78.7c-0.1,0,0.1,0,0.4,0.1L416,79c0.3,0.1,0.7,0.1,1.1,0.2l1.3,0.4l1.5,0.4l1.7,0.7
		c2.9,1.1,5.5,2.7,7.9,4.7c3.1,2.6,5.7,5.9,7.5,9.6c0.5,1,1,2.1,1.3,3.2c0.2,0.6,0.4,1.1,0.6,1.7s0.3,1.2,0.4,1.8l0.2,0.9l0.1,0.9
		c0.1,0.6,0.2,1.2,0.2,1.9l0.1,1.9v1c0,0.3,0,0.7-0.1,1l-0.1,2c-0.1,0.7-0.2,1.3-0.3,2l-0.2,1l-0.3,1c-0.2,0.7-0.4,1.4-0.6,2
		c-1,2.8-2.3,5.4-4,7.8c-1.8,2.5-4,4.7-6.5,6.5c-0.7,0.4-1.3,1-2,1.3l-2.1,1.2l-2.2,1c-0.8,0.3-1.5,0.5-2.3,0.8
		c-3.2,1-6.5,1.4-9.8,1.3c-9.4-0.3-18.1-5.2-23.4-13c-1.6-2.3-2.8-4.8-3.7-7.5c-0.8-2.6-1.3-5.2-1.4-7.9l0.2,0.2
		c-3.1-0.2-6.3,0-9.3,0.8c-0.1,0-0.3,0-0.3-0.2c0-0.1,0-0.1,0-0.2c2.4-3.9,6-6.9,10.2-8.7l-0.1,0.2c0.7-3.1,1.9-6,3.6-8.7
		c1.5-2.4,3.3-4.5,5.4-6.4l0.7-0.7c0.2-0.2,0.5-0.4,0.8-0.6c0.5-0.4,1-0.8,1.5-1.1c1-0.7,2-1.3,3-1.8L398,81l1.5-0.6
		c0.9-0.4,1.9-0.7,2.8-1c2.8-0.8,5.7-1.1,8.6-1.1c1,0,1.8,0.2,2.3,0.2L414,78.7z"/>
	<circle class="st9" cx="410" cy="107.8" r="18.3"/>
	<g class="st10">
		<path class="st5" d="M411.2,89.5c-10.1-0.7-18.8,7-19.5,17c0,0,0,0,0,0c0,0,12.8,1.4,16.3-3.6S411.2,89.5,411.2,89.5z"/>
	</g>
	<path class="st9" d="M423.6,108.4c-0.5,7.7-7.1,13.5-14.8,13c-7.7-0.5-13.5-7.1-13-14.8c0.5-7.7,7.1-13.4,14.8-13
		C418.3,94.1,424.1,100.7,423.6,108.4C423.6,108.3,423.6,108.4,423.6,108.4z"/>
	<g class="st11">
		<path d="M423.6,108.4c-0.5,7.7-7.1,13.5-14.8,13c-7.7-0.5-13.5-7.1-13-14.8c0.5-7.7,7.1-13.4,14.8-13
			C418.3,94.1,424.1,100.7,423.6,108.4C423.6,108.3,423.6,108.4,423.6,108.4z"/>
	</g>
	<path class="st9" d="M424,109c-0.5,7.6-7,13.3-14.6,12.8c-7.6-0.5-13.3-7-12.8-14.6c0.5-7.6,7-13.3,14.6-12.8c0,0,0,0,0,0
		C418.8,94.9,424.5,101.4,424,109C424,109,424,109,424,109z"/>
	<g class="st11">
		<path class="st5" d="M424,109c-0.5,7.6-7,13.3-14.6,12.8c-7.6-0.5-13.3-7-12.8-14.6c0.5-7.6,7-13.3,14.6-12.8c0,0,0,0,0,0
			C418.8,94.9,424.5,101.4,424,109C424,109,424,109,424,109z"/>
	</g>
	<path class="st9" d="M410.9,106.9l0.2-3.5l0,0c0.7,0.1,1.3,0.3,1.9,0.6c0.3,0.2,0.6,0.4,0.8,0.6l0-0.1l0.6-1.2l0.1-0.3l-0.6-0.7
		l-0.3,0.1c-0.8-0.5-1.6-0.8-2.5-0.9l0.1-1.9l-0.6-0.5v0.5l-0.8-0.1l-0.1,2c-2.7,0.1-4.1,1.5-4.2,3.3c-0.2,2.4,1.9,3.2,3.8,3.8
		l-0.2,3.5c-1.3-0.2-2.4-0.7-3.4-1.5l-0.9,1.7c1.2,1,2.6,1.6,4.1,1.7l-0.1,1.4h-0.7l0.6,0.5l1.4,0.1l0.1-1.9
		c2.7-0.1,4.1-1.6,4.3-3.3C414.8,108.3,412.8,107.5,410.9,106.9z M409.5,106.5c-1-0.4-1.7-0.8-1.6-1.6s0.6-1.3,1.9-1.5L409.5,106.5z
		 M410.5,112.1l0.2-3.1c1,0.4,1.8,0.8,1.7,1.7S411.8,112,410.5,112.1L410.5,112.1z"/>
	<g class="st12">
		<path d="M410.9,106.9l0.2-3.5l0,0c0.7,0.1,1.3,0.3,1.9,0.6c0.3,0.2,0.6,0.4,0.8,0.6l0-0.1l0.6-1.2l0.1-0.3l-0.6-0.7l-0.3,0.1
			c-0.8-0.5-1.6-0.8-2.5-0.9l0.1-1.9l-0.6-0.5v0.5l-0.8-0.1l-0.1,2c-2.7,0.1-4.1,1.5-4.2,3.3c-0.2,2.4,1.9,3.2,3.8,3.8l-0.2,3.5
			c-1.3-0.2-2.4-0.7-3.4-1.5l-0.9,1.7c1.2,1,2.6,1.6,4.1,1.7l-0.1,1.4h-0.7l0.6,0.5l1.4,0.1l0.1-1.9c2.7-0.1,4.1-1.6,4.3-3.3
			C414.8,108.3,412.8,107.5,410.9,106.9z M409.5,106.5c-1-0.4-1.7-0.8-1.6-1.6s0.6-1.3,1.9-1.5L409.5,106.5z M410.5,112.1l0.2-3.1
			c1,0.4,1.8,0.8,1.7,1.7S411.8,112,410.5,112.1L410.5,112.1z"/>
	</g>
	<path class="st9" d="M409.9,113.5l-0.1,2l-1.4-0.1l0.1-1.9c-1.5-0.1-3-0.7-4.2-1.7l0.9-1.7c1,0.8,2.1,1.4,3.4,1.6l0.2-3.5
		c-1.9-0.6-3.9-1.4-3.8-3.8c0.1-1.8,1.5-3.2,4.2-3.3l0.1-2l1.4,0.1l-0.1,1.9c1.2,0.1,2.4,0.6,3.5,1.3l-0.8,1.7
		c-0.8-0.6-1.8-0.9-2.8-1.1l-0.2,3.5c1.9,0.6,4,1.3,3.8,3.8C414,111.9,412.6,113.4,409.9,113.5z M408.9,105.9l0.2-3.1
		c-1.2,0.1-1.8,0.7-1.9,1.5S407.9,105.6,408.9,105.9z M411.9,110.2c0.1-0.8-0.7-1.3-1.7-1.7l-0.2,3.1
		C411.3,111.5,411.8,110.9,411.9,110.2L411.9,110.2z"/>
	<path class="st5" d="M393.9,115.3c0,0-0.1-0.1-0.1-0.2l-0.2-0.4c-0.1-0.2-0.2-0.4-0.3-0.7s-0.2-0.6-0.3-0.9l-0.2-0.6
		c-0.1-0.2-0.1-0.4-0.1-0.6c-0.1-0.4-0.2-0.9-0.3-1.4c-0.1-1-0.2-2.1-0.2-3.2c0-1.1,0.2-2.1,0.4-3.1c0.1-0.5,0.2-0.9,0.3-1.3
		c0.1-0.2,0.1-0.4,0.2-0.6l0.2-0.5c0.1-0.3,0.3-0.7,0.4-0.9s0.2-0.5,0.3-0.7l0.2-0.4l0.1-0.1c0,0,0,0.1-0.1,0.2l-0.2,0.4
		c-0.1,0.2-0.2,0.4-0.3,0.7c-0.1,0.3-0.2,0.6-0.3,0.9c-0.1,0.2-0.1,0.4-0.2,0.5s-0.1,0.4-0.2,0.6c-0.1,0.4-0.2,0.9-0.3,1.3
		c-0.2,1-0.3,2.1-0.4,3.1c0,1,0,2.1,0.2,3.1c0.1,0.5,0.1,0.9,0.2,1.3c0,0.2,0.1,0.4,0.1,0.6l0.1,0.6c0.1,0.3,0.2,0.7,0.3,0.9
		s0.2,0.5,0.2,0.7l0.2,0.4C393.9,115.2,393.9,115.3,393.9,115.3z"/>
	<path class="st5" d="M406.1,105.8c-0.2-0.1-0.3-0.3-0.4-0.4c-0.5-0.8-0.4-1.9,0.3-2.6c0.2-0.3,0.5-0.4,0.5-0.3s-0.2,0.1-0.4,0.4
		c-0.3,0.3-0.5,0.8-0.5,1.2c0,0.4,0.1,0.9,0.2,1.3C406,105.6,406.1,105.8,406.1,105.8z"/>
	<path class="st5" d="M409.6,100.7c0,0,0-0.3,0-0.6s0.1-0.6,0.1-0.6s0,0.3,0,0.6C409.7,100.3,409.6,100.5,409.6,100.7z"/>
	<path class="st5" d="M411.9,93.3c-0.1,0-0.3,0-0.4,0c-0.1,0-0.3,0-0.5-0.1s-0.4,0-0.7-0.1h-0.8c-0.3,0-0.6,0-1,0
		c-0.7,0.1-1.5,0.2-2.2,0.3c-0.7,0.2-1.4,0.4-2.1,0.7c-0.3,0.1-0.6,0.2-0.9,0.4s-0.5,0.3-0.7,0.4s-0.4,0.2-0.6,0.3l-0.5,0.3
		l-0.4,0.2c0.1-0.1,0.2-0.2,0.4-0.3c0.1-0.1,0.3-0.2,0.4-0.3s0.4-0.2,0.6-0.4s0.5-0.3,0.7-0.4s0.6-0.3,0.9-0.4
		c0.7-0.3,1.4-0.5,2.1-0.7c0.7-0.2,1.5-0.3,2.2-0.3c0.3,0,0.7,0,1,0s0.6,0,0.8,0s0.5,0,0.7,0.1c0.2,0,0.3,0,0.5,0.1
		C411.6,93.2,411.8,93.2,411.9,93.3z"/>
	<path class="st5" d="M411.1,125.2l-0.3,0.1c-0.3,0.1-0.6,0.1-0.9,0.1c-1,0.1-2,0-3-0.2c-1-0.2-2-0.5-2.9-0.8
		c-0.4-0.2-0.6-0.3-0.8-0.4s-0.3-0.2-0.3-0.2l0.3,0.1c0.2,0.1,0.5,0.2,0.8,0.3c1.9,0.7,3.9,1.1,5.9,1c0.4,0,0.7,0,0.9-0.1
		C410.9,125.2,411,125.2,411.1,125.2z"/>
</g>
<g id="freepik--speech-bubble-2--inject-29">
	<path class="st5" d="M365.3,86.6c8.2-21.6-2.7-45.7-24.3-53.9c-21.6-8.2-45.7,2.7-53.9,24.3c-7.2,19.1,0.4,40.6,18,50.9
		c-1.8,4.1-4.3,7.9-7.3,11.3c6.4-0.4,12.6-2.9,17.6-7C336.1,117.7,357.7,106.7,365.3,86.6z"/>
	<path class="st6" d="M365.3,86.6c0,0-0.1,0.4-0.4,1s-0.7,1.7-1.3,3c-1.9,3.7-4.3,7.1-7.1,10.1c-1,1-2,2-3.1,2.9l-1.8,1.5l-2,1.4
		c-1.4,1-2.8,1.8-4.3,2.6c-0.8,0.4-1.6,0.7-2.4,1.1c-0.4,0.2-0.8,0.4-1.2,0.6l-1.3,0.5c-0.9,0.3-1.8,0.7-2.7,0.9l-2.9,0.7
		c-2,0.4-4.1,0.7-6.1,0.8c-4.5,0.3-8.9-0.2-13.3-1.3h0.2c-5,4.1-11.2,6.6-17.7,7.1c-0.1,0-0.2-0.1-0.2-0.2c0-0.1,0-0.1,0.1-0.2
		c3-3.3,5.4-7.1,7.2-11.2l0.1,0.3c-3.3-1.9-6.3-4.3-9-7c-2.8-2.9-5.1-6.1-7-9.6c-3.9-7.4-5.6-15.8-4.7-24.1c0.5-4.9,1.9-9.6,4-14
		c2.1-4.2,4.9-8.1,8.3-11.5c0.9-0.8,1.6-1.6,2.5-2.3l2.7-2.1l2.9-1.8c0.5-0.3,1-0.6,1.5-0.8l1.5-0.8c3.9-1.9,8.1-3.2,12.5-3.9
		c4.1-0.6,8.3-0.5,12.4,0.1c1,0.2,2,0.4,3,0.6l1.5,0.3l1.4,0.5c0.9,0.3,1.9,0.6,2.8,0.9l2.6,1.2c0.4,0.2,0.9,0.4,1.3,0.6l1.2,0.7
		c0.8,0.5,1.6,0.9,2.4,1.4l2.2,1.5l1.1,0.8l1,0.9l2,1.7c0.6,0.6,1.2,1.2,1.8,1.8c1.1,1.2,2.2,2.5,3.2,3.8c3.5,4.7,5.9,10.1,7.1,15.8
		c1,4.3,1.2,8.7,0.8,13c-0.1,0.9-0.2,1.7-0.3,2.5s-0.3,1.5-0.5,2.2s-0.3,1.3-0.4,1.9s-0.3,1.1-0.5,1.5l-0.7,2
		C365.4,86.3,365.3,86.5,365.3,86.6c0-0.1,0.1-0.3,0.2-0.8s0.4-1.2,0.6-2.1c0.1-0.4,0.3-1,0.5-1.5l0.4-1.9c0.1-0.7,0.3-1.4,0.4-2.2
		s0.2-1.6,0.3-2.5c0.4-4.3,0.1-8.7-0.8-13c-1.3-5.6-3.7-11-7.1-15.6c-1-1.3-2-2.6-3.1-3.8c-0.6-0.6-1.1-1.2-1.8-1.8l-2-1.7l-1-0.9
		l-1.1-0.8l-2.2-1.5c-0.8-0.5-1.6-0.9-2.4-1.4l-1.1-0.6c-0.4-0.2-0.9-0.4-1.3-0.6l-2.6-1.1c-0.9-0.3-1.8-0.6-2.7-0.9l-1.4-0.4
		l-1.4-0.3c-1-0.2-1.9-0.4-2.9-0.6c-4.1-0.6-8.2-0.6-12.3,0c-4.3,0.6-8.4,1.9-12.3,3.9l-1.5,0.8c-0.5,0.2-1,0.5-1.5,0.8l-2.8,1.8
		l-2.7,2.1c-0.9,0.7-1.7,1.5-2.5,2.3c-3.3,3.3-6.1,7.1-8.1,11.3c-5.8,11.9-5.5,25.9,0.7,37.6c1.8,3.5,4.2,6.7,6.9,9.5
		c2.6,2.7,5.6,5,8.9,7c0.1,0.1,0.2,0.2,0.1,0.3c-1.8,4.1-4.3,7.9-7.4,11.3l-0.2-0.4c6.4-0.4,12.5-2.9,17.5-6.9c0.1,0,0.1,0,0.2,0
		c4.3,1.1,8.7,1.6,13.1,1.3c2-0.1,4.1-0.4,6.1-0.8l2.9-0.7c0.9-0.2,1.8-0.6,2.7-0.9l1.3-0.5c0.4-0.2,0.8-0.4,1.2-0.6
		c0.8-0.4,1.6-0.7,2.4-1.1c1.5-0.8,2.9-1.6,4.3-2.6l2-1.3l1.7-1.4c1.1-0.9,2.1-1.9,3.1-2.9c2.8-3,5.2-6.3,7.1-10
		c0.6-1.3,1-2.3,1.4-3S365.3,86.6,365.3,86.6z"/>
	<path class="st0" d="M345.9,65.4c0-0.2,0-0.4-0.1-0.6s-0.1-0.4-0.1-0.6c0,0.2,0.1,0.4,0.1,0.6S345.9,65.2,345.9,65.4z"/>
	<path class="st0" d="M344.3,67.8c-0.1-0.4-0.2-0.8-0.3-1.2c0-0.2-0.2-0.4-0.4-0.6c-0.1,0-0.3-0.1-0.4-0.1c-0.5-0.2-0.7-0.9-1.1-1.1
		c-0.2-0.1-0.3-0.1-0.5-0.1c-0.7,0-1.3-0.3-1.8-0.8c-0.1-0.2-0.2-0.3-0.4-0.5c-0.2-0.2-0.4-0.2-0.6-0.1l0.4,0.8
		c0.1,0.3,0.3,0.5,0.5,0.7c0.2,0.2,0.5,0.3,0.8,0.2c0.1-0.1,0.2-0.1,0.3-0.1c0.1,0,0.1,0.1,0.2,0.1c0.3,0.4,0.3,1.1-0.1,1.5
		c-0.4,0.4-0.8,0.7-1.4,0.8c-0.2,0.1-0.4,0.1-0.5,0.1c-0.4-0.1-0.5-0.4-0.6-0.8c-0.1-0.8-0.4-1.5-0.8-2.2c-0.2-0.2-0.3-0.4-0.4-0.6
		c0-0.3-0.1-0.5-0.2-0.8c-0.1-0.2-0.5-0.4-0.5-0.6c0-0.2,0.1-0.4,0.3-0.5c0.2-0.1,0.4-0.1,0.6-0.2s0.1-0.1,0.2-0.2s-0.2-0.2-0.2-0.3
		s0.1-0.2,0.1-0.3c0.1-0.3-0.2-0.5-0.5-0.7s-0.6-0.2-0.7-0.5c0-0.1-0.1-0.3-0.1-0.4c0-0.3-0.3-0.6-0.6-0.7c-0.3-0.1-0.6,0.1-0.7,0.5
		c0,0,0,0.1,0,0.1c0.1,0.2,0.1,0.3,0.2,0.5c0.1,0.2,0,0.4-0.1,0.5s-0.6-0.5-0.8-0.3l0.3,1c-0.4,0.2-0.9-0.2-1-0.5s-0.2-0.9-0.4-1.2
		s-0.7-0.7-1.1-0.4c0,0.5,0.6,0.7,0.9,1.1c0.2,0.3,0.2,0.7-0.1,1c0,0,0,0-0.1,0c-0.3,0.2-0.8-0.1-0.7-0.5c0.1-0.1,0.1-0.2,0.1-0.3
		c0-0.2-0.1-0.3-0.2-0.4l-0.5-0.5c-0.1-0.1-0.3-0.2-0.4-0.2c-0.4-0.1-0.8,0.2-1,0.5c-0.2,0.4-0.4,0.7-0.6,1c-0.4,0.4-1.1,0.4-1.5,0
		c-0.3-0.4-0.2-1,0.2-1.3c0.1-0.1,0.1-0.1,0.2-0.1c0.2,0,0.5,0,0.6-0.2s-0.4-0.8-0.2-1.1s0.5-0.1,0.8-0.2s0.4-0.4,0.6-0.6
		s0.4-0.5,0.7-0.4c-0.1-0.2-0.1-0.3,0-0.5c0.1-0.2,0.2-0.2,0.4-0.2c0,0,0,0,0,0c-0.1,0.3,0,0.6,0.3,0.7c0,0,0,0,0,0
		c0.3,0.1,0.5,0.1,0.8,0.1c0.3,0,0.6-0.1,0.6-0.4c0-0.1,0-0.2,0-0.3c0.1-0.3,0.7,0.1,1-0.1s0-0.4-0.2-0.4c-0.2,0-0.4,0-0.6,0
		c-0.2,0-0.4-0.1-0.4-0.3s0.2-0.3,0.2-0.5s-0.5-0.4-0.7-0.1c-0.1,0.3-0.2,0.6-0.1,0.9c0.1,0.3,0,0.6-0.1,0.9
		c-0.1,0.2-0.4,0.1-0.4-0.1c-0.1-0.2-0.1-0.3-0.1-0.5c0-0.2-0.1-0.4-0.3-0.4c-0.1,0-0.2,0-0.4,0c-0.5,0.1-0.8-0.6-0.7-1
		c0.2-0.4,0.6-0.8,1-1c0.3-0.2,0.7-0.3,1-0.2c0.1,0.1,0.2,0.2,0.4,0.3c0.3,0.1,0.5,0.1,0.8,0.1c0.4,0,0.9,0.2,1.2,0.5
		c0.1,0.1,0.2,0.3,0.1,0.4s-0.4,0.2-0.4,0.3c0.3,0.1,0.7-0.1,0.7-0.4c0,0,0,0,0-0.1c0.2,0.1,0.3,0.2,0.3,0.4c0.4-0.3,0.9-0.3,1.3,0
		c0,0,0,0,0.1,0.1c0.1,0.1,0.1,0.2,0.2,0.3c0.1,0.1,0.3,0,0.3-0.1c0,0,0-0.1,0-0.1c-0.1-0.2-0.1-0.4-0.2-0.6
		c0.3-0.1,0.6,0.1,0.7,0.3c0.6,0.9,1.1,0.3,2,0.5c0.5,0.1,1,0.5,1.2,1c1.1,1.5,2.5,2.7,3.5,4.2c0.1,0.2,0.2,0.3,0.3,0.5
		c0,0,0-0.1,0-0.1c-0.4-1-0.8-1.9-1.3-2.8l-0.4-0.6l-0.2-0.3c-0.1-0.2-0.2-0.3-0.3-0.4l-0.3-0.3L342,56l-0.2-0.3l-0.2-0.3l-0.1-0.1
		c-0.1-0.1-0.2-0.2-0.2-0.3l0,0l-0.1-0.1l-0.2-0.2l-0.4-0.4l-0.3-0.3l-0.3-0.2l-0.3-0.2l-0.4-0.3l0,0c-0.3-0.3-0.7-0.5-1-0.8
		l-0.3-0.2l-0.3-0.2l-0.3-0.2l-0.3-0.2l-0.2-0.1l-0.1-0.1c-0.2-0.1-0.3-0.2-0.5-0.3l-0.2-0.1l-0.3-0.2h0l-0.3-0.1l-0.4-0.2l-0.5-0.2
		l-0.5-0.2l-0.5-0.2l-0.5-0.2c-0.4-0.1-0.7-0.2-1.1-0.3l0,0l-0.4-0.1l0,0h-0.2l-0.8-0.1h-0.1h-0.2h-0.5h-0.6h-0.6
		c-0.5,0-1,0-1.5,0.1h-0.4h-0.4l-0.4,0l-0.4,0.1h-0.3l-0.8,0.2l-0.4,0.1l-0.4,0.1c-0.2,0-0.4,0.1-0.6,0.2l0,0l-0.5,0.2l0,0
		c-0.2,0.1-0.3,0.1-0.5,0.2l0,0l-0.4,0.2l-0.5,0.2l-0.4,0.2l-0.5,0.2l0,0l-0.4,0.2l-0.4,0.2l0,0l-0.4,0.2l-0.1,0.1l-0.4,0.3
		l-0.5,0.4c-0.1,0.1-0.3,0.2-0.4,0.3c-0.8,0.6-1.5,1.3-2.2,2.1c-0.2,0.3-0.5,0.5-0.7,0.8s-0.4,0.5-0.5,0.7s-0.3,0.4-0.4,0.7
		c0.1-0.2,0.3-0.4,0.4-0.7h0.1c0.2,0,0.5,0,0.7-0.1c0.2-0.1,0.4-0.3,0.5-0.4c0.5-0.3,1.3-0.4,1.4-1c0-0.2,0-0.4,0.1-0.6
		c0.1-0.3,0.6-0.4,1-0.4c0.2,0,0.3,0,0.4,0.2c0,0.1,0,0.2,0,0.3c-0.2,0.7-0.7,1.2-1.3,1.6c-0.5,0.3-1.1,0.5-1.2,1.1
		c0.1,0.2,0.4,0.2,0.4,0.4s-0.2,0.2-0.2,0.4s0.1,0.5,0.4,0.4c0.2,0,0.4-0.2,0.6-0.3c0.5-0.4,1-1,1.2-1.7c0-0.3,0.1-0.6,0.3-0.8
		c0.3-0.2,0.6-0.1,0.8,0.1c0,0,0,0.1,0.1,0.1c0.2-0.1,0.6-0.2,0.7,0c0,0.1,0,0.2,0,0.3c0.1,0.4,0.6,0.5,0.6,0.9s-0.5,0.6-0.9,0.7
		l-1.1,0.2c-0.2,0-0.3,0.1-0.5,0.2c-0.1,0.1-0.2,0.3-0.1,0.4c0.1,0.1,0.1,0.1,0.2,0.2c0.2,0.2,0.2,0.6,0,0.8
		c-0.1,0.1-0.2,0.1-0.3,0.2c-0.1,0-0.3,0-0.4-0.1c-0.5,0-0.8,0.4-1,0.8c-0.2,0.4-0.4,0.8-0.7,1.1c-0.6,0.4-1.5,0.3-1.8,1
		c-0.1,0.3-0.1,0.6,0,0.9c0.1,0.3,0,0.6-0.1,0.8c-0.2,0.2-0.6,0.3-0.7,0c0-0.1,0-0.2,0-0.4c0.1-0.4,0.1-0.8,0.2-1.2
		c0.1-0.3,0.1-0.6-0.1-0.9c-0.2-0.4-0.7-0.5-1.1-0.3c-0.1,0-0.2,0.1-0.2,0.2c-0.3,0.3-0.5,0.7-0.5,1.1c-0.1,0.4-0.2,0.7-0.3,1.1l0,0
		c-0.1,0.3-0.1,0.7-0.1,1s-0.1,0.7-0.1,1.1l0.1-0.1c0.2-0.2,0.5-0.9,0.8-0.6c0.1,0.1,0.1,0.2,0,0.3c-0.1,0.1-0.3,0.2-0.4,0.3
		s0,0.4,0.2,0.5c0.2,0.1,0.3,0.2,0.4,0.3c0.2,0.3,0,0.7,0.2,1s0.5,0.3,0.8,0.3h0.1c0-0.7,0.5-1.2,1.2-1.3c1.3-0.1,2.5,0.5,3.3,1.6
		c0.7,1,1.1,2.3,2.2,2.8c0.8,0.3,1.9,0.2,2.3,1s-0.3,1.5-0.4,2.2c0,0.5,0.1,1,0.1,1.5c0.1,0.5-0.1,1-0.6,1.3
		c-0.3,0.1-0.6,0.1-0.8,0.3c-0.4,0.3-0.1,1.1-0.4,1.4c-0.1,0.1-0.3,0.2-0.5,0.2c-0.8,0.4-0.8,1.6-0.4,2.5c0,0,0,0.1,0,0.1
		c2.7,1.6,5.8,2.5,9,2.5c2.9,0,5.7-0.7,8.2-2l0,0c0.5-0.3,1.1-0.6,1.5-0.9c0.8-0.5,1.5-1.1,2.2-1.7c0.5-0.4,0.9-0.9,1.3-1.4
		c0.3-0.3,0.6-0.7,0.8-1l0.4-0.6c0.9-1.4,1.7-2.9,2.2-4.5c0.3-1,0.5-2,0.7-3c0-0.4,0.1-0.8,0.1-1.2c-0.2,0.2-0.4,0.3-0.7,0.3
		C344.8,68.5,344.4,68.2,344.3,67.8z"/>
	<path class="st8" d="M313.2,71.7c0-0.5,0.1-1,0.1-1.5c0-0.3,0-0.7,0-1.1c-0.3,0-0.6-0.1-0.9-0.1c-0.1,0-0.1,0-0.2-0.1
		c0-0.1,0-0.1,0-0.2c0-0.4-0.4-0.7-0.7-0.8c-0.2-0.1-0.4-0.2-0.5-0.3v0.1c0,1.9,0.4,3.8,1.1,5.6c0.3,0.8,0.7,1.6,1.1,2.3
		c0.2,0.3,0.4,0.6,0.6,0.9s0.5,0.8,0.8,1.1s0.5,0.7,0.8,1c0.4,0.5,0.8,0.9,1.2,1.3c0.4,0.4,0.8,0.7,1.2,1c-0.8-2.6-2-5.1-3.5-7.4
		C313.7,73.1,313.3,72.4,313.2,71.7z"/>
	<path class="st2" d="M310.9,66.8c0,0.1,0,0.2,0,0.3l0,0C310.9,67,310.9,66.9,310.9,66.8z"/>
	<g class="st13">
		<path class="st2" d="M318.6,81.7l0.4,0.3l0.3,0.2l-0.3-0.2L318.6,81.7z"/>
	</g>
	<path class="st8" d="M333.5,80.6c-0.1,0-0.2,0-0.3,0c-0.3-0.1-0.6-0.3-0.8-0.6c-0.1-0.2-0.1-0.5-0.1-0.8c0-0.2,0-0.4,0-0.5
		c-0.1-0.3-0.2-0.6-0.4-0.8c-0.1-0.2-0.3-0.4-0.4-0.6c-0.1-0.4-0.2-0.9-0.2-1.3v-0.1c0.1-2.6-0.8-5.2-2.5-7.2
		c-0.2-0.3-0.5-0.4-0.8-0.5c-0.4-0.1-0.8,0-1,0.3c0,0.1-0.1,0.2-0.1,0.2c-0.1,0.1-0.2,0.3-0.3,0.4c-0.2,0.2-0.4,0.2-0.6,0.2
		c-0.3-0.1-0.6-0.2-0.8-0.5c-0.2-0.5-0.3-1-0.2-1.6l0.2-1.9c0-0.4,0.1-0.7,0.3-1c0.2-0.2,0.4-0.3,0.7-0.4c0.2-0.1,0.4-0.1,0.5-0.3
		c0.3-0.3,0.5-0.6,0.6-1c0.1-0.2,0.2-0.4,0.3-0.6c0.2-0.4,0.7-0.6,1.1-0.5c0.2,0,0.3,0.1,0.4,0.3c0.1-0.3,0.4-0.6,0.7-0.7
		c0.6-0.2,1.4,0.3,2.2,0.8s1.3,0.9,1.8,0.8l0.4-0.1c0.3-0.1,0.5-0.1,0.8-0.1c0.7,0.1,1.1,0.9,1.4,1.6l1.2,3.3c0,0.6,0.6,1.1,1.2,1.1
		c0,0,0,0,0,0c0.2,0,0.4,0,0.5,0.1c0.3,0.1,0.5,0.4,0.5,0.7c0.1,0.6-0.2,1.3-0.6,1.7l0,0c-0.2,0.2-0.5,0.4-0.7,0.5
		c-0.5,0.3-1,0.7-1.3,1.3c-0.1,0.3-0.2,0.7-0.1,1c0.1,0.7-0.2,1.3-0.7,1.8c-0.6,0.7-1,1.5-1,2.4c0,0.1,0,0.2,0,0.3
		c0,0.8-0.4,1.6-1,2.2C334.2,80.4,333.9,80.6,333.5,80.6z"/>
	<g class="st13">
		<path class="st2" d="M310.9,66.4L310.9,66.4C310.9,66.4,310.9,66.5,310.9,66.4L310.9,66.4C310.9,66.5,310.9,66.4,310.9,66.4z"/>
	</g>
	<g class="st13">
		<path class="st2" d="M310.9,67.4c0,0.1,0,0.2,0,0.2l0,0C310.9,67.5,310.9,67.5,310.9,67.4z"/>
	</g>
	<path class="st2" d="M313.3,68.5h-0.1c-0.3,0-0.7,0-0.8-0.3s0-0.7-0.2-1c-0.1-0.1-0.3-0.2-0.4-0.3c-0.1-0.1-0.3-0.3-0.2-0.5
		s0.3-0.2,0.4-0.3c0.1-0.1,0.1-0.2,0-0.3c-0.3-0.4-0.7,0.4-0.8,0.6l-0.1,0.1l0,0c0,0,0,0.1,0,0.1v0.3c0,0.1,0,0.2,0,0.3v0.3
		c0,0.1,0,0.2,0,0.2c0.2,0.1,0.4,0.2,0.5,0.3c0.3,0.2,0.7,0.5,0.7,0.8c0,0.1,0,0.1,0,0.2c0,0,0.1,0.1,0.2,0.1
		c0.3,0.1,0.6,0.1,0.9,0.1"/>
	<path class="st8" d="M313.3,69.2c0,0.3,0,0.7,0,1.1c-0.1,0.5-0.1,1-0.1,1.5c0.2,0.7,0.5,1.3,1,1.9c1.5,2.3,2.7,4.8,3.5,7.4l0,0
		l0.5,0.4l0.4,0.3l0.4,0.3l0.3,0.2c0,0,0-0.1,0-0.1c-0.4-0.8-0.4-2.1,0.4-2.5c0.2-0.1,0.3-0.1,0.5-0.2c0.4-0.3,0.1-1.1,0.4-1.4
		c0.2-0.2,0.5-0.2,0.8-0.3c0.4-0.3,0.7-0.8,0.6-1.3c-0.1-0.5-0.1-1-0.1-1.5c0.1-0.8,0.7-1.6,0.4-2.2s-1.5-0.7-2.3-1
		c-1.1-0.5-1.5-1.8-2.2-2.8c-0.8-1-2-1.6-3.3-1.6c-0.7,0.1-1.2,0.6-1.2,1.3"/>
	<path class="st8" d="M312,62c0.3-0.3,0.8-0.3,1.1,0c0.1,0.3,0.2,0.6,0.1,0.9c-0.1,0.4-0.1,0.8-0.2,1.2c0,0.1,0,0.2,0,0.4
		c0.1,0.3,0.5,0.2,0.7,0c0.1-0.3,0.2-0.6,0.1-0.8c-0.1-0.3-0.1-0.6,0-0.9c0.3-0.7,1.3-0.6,1.8-1c0.3-0.3,0.6-0.7,0.7-1.1
		c0.2-0.4,0.6-0.8,1-0.8c0.1,0,0.3,0.1,0.4,0.1c0.3,0,0.6-0.3,0.5-0.7c0-0.1-0.1-0.3-0.2-0.3c-0.1-0.1-0.1-0.1-0.2-0.2
		c-0.1-0.2,0-0.3,0.1-0.4c0.1-0.1,0.3-0.1,0.5-0.2l1.1-0.2c0.4-0.1,1-0.3,0.9-0.7s-0.5-0.5-0.6-0.9c0-0.1,0-0.2,0-0.3
		c-0.1-0.2-0.5-0.1-0.7,0c-0.1-0.3-0.4-0.4-0.7-0.3c0,0-0.1,0-0.1,0.1c-0.2,0.2-0.3,0.5-0.3,0.8c-0.2,0.7-0.6,1.3-1.2,1.7
		c-0.2,0.2-0.4,0.3-0.6,0.3c-0.2,0-0.5-0.2-0.4-0.4s0.3-0.2,0.2-0.4s-0.4-0.2-0.4-0.4c0.1-0.5,0.8-0.8,1.2-1.1
		c0.6-0.4,1-0.9,1.3-1.6c0-0.1,0-0.2,0-0.3c-0.1-0.1-0.3-0.2-0.4-0.2c-0.4,0-0.8,0-1,0.4c-0.1,0.2,0,0.4-0.1,0.6
		c-0.1,0.6-0.9,0.6-1.4,1c-0.2,0.2-0.4,0.3-0.5,0.4c-0.2,0.1-0.5,0.1-0.7,0.1h-0.1c-0.1,0.2-0.3,0.4-0.4,0.7s-0.3,0.4-0.4,0.7
		c-0.6,1.1-1.1,2.2-1.5,3.4c-0.1,0.4-0.3,0.8-0.4,1.3s-0.2,0.9-0.3,1.3c0.2-0.4,0.3-0.7,0.3-1.1C311.5,62.7,311.7,62.3,312,62z"/>
	<path class="st8" d="M326.7,53.9c0.2-0.2,0.1-0.5,0.2-0.8c0.2-0.4,0.7-0.6,0.9-1c0.1-0.2,0.1-0.3,0.2-0.5s0.3-0.1,0.4-0.2
		c0.2-0.2,0.2-0.6,0-0.7c0,0-0.1-0.1-0.1-0.1c-0.7-0.4-2,0.1-2.5,0.5c-0.7,0.7-1.6,1.1-2.5,1.2c-0.3-0.1-0.6-0.1-0.8,0
		c-0.3,0.1-0.4,0.5-0.2,0.7s0.3,0.1,0.5,0.1c0.2,0.2,0.3,0.5,0.2,0.8c-0.1,0.3-0.4,0.5-0.5,0.7c-0.2,0.2-0.2,0.5-0.2,0.8
		c0,0.2,0.1,0.4,0.2,0.5c0.3,0.2,0.8,0,1.1-0.3c0.2-0.3,0.5-0.6,0.8-0.9c0.2-0.1,0.4-0.2,0.6-0.2l1.3-0.3
		C326.3,54.1,326.5,54,326.7,53.9z"/>
	<g class="st13">
		<path class="st0" d="M346,66.9c0-0.3,0-0.5,0-0.8C346,66.4,346,66.6,346,66.9c0,0.1,0,0.2,0,0.2c0,0.4,0,0.8,0,1.2
			c0-0.4,0-0.8,0-1.2C346,67,346,67,346,66.9z"/>
	</g>
	<g class="st13">
		<path class="st0" d="M344.9,61c0.1,0.2,0.2,0.5,0.2,0.7C345,61.4,344.9,61.2,344.9,61z"/>
	</g>
	<path class="st8" d="M346,66.9c0-0.3,0-0.5,0-0.8s0-0.5-0.1-0.7s0-0.4-0.1-0.6s-0.1-0.4-0.1-0.6c-0.1-0.6-0.2-1.2-0.4-1.8
		c-0.1-0.2-0.1-0.5-0.2-0.7s-0.1-0.5-0.2-0.7l0,0c-0.1-0.2-0.2-0.3-0.3-0.5c-1-1.5-2.4-2.8-3.5-4.2c-0.2-0.5-0.7-0.9-1.2-1
		c-0.9-0.1-1.4,0.4-2-0.5c-0.2-0.2-0.5-0.5-0.7-0.3c0.1,0.2,0.1,0.4,0.2,0.6c0,0,0,0.1,0,0.1c0,0.1-0.2,0.2-0.3,0.1
		c-0.1-0.1-0.2-0.2-0.2-0.3c-0.3-0.4-0.9-0.5-1.2-0.2c0,0,0,0-0.1,0.1c0-0.2-0.1-0.3-0.3-0.4c-0.1,0.3-0.4,0.5-0.7,0.5
		c0,0,0,0-0.1,0c0-0.2,0.2-0.2,0.4-0.3s0-0.3-0.1-0.4c-0.3-0.3-0.8-0.5-1.2-0.5c-0.3,0-0.6,0-0.8-0.1c-0.1-0.1-0.2-0.2-0.4-0.3
		c-0.3-0.1-0.7-0.1-1,0.2c-0.4,0.2-0.8,0.6-1,1c-0.1,0.5,0.2,1.1,0.7,1c0.1,0,0.2,0,0.4,0c0.2,0.1,0.3,0.2,0.3,0.4
		c0,0.2,0,0.4,0.1,0.5c0.1,0.2,0.3,0.2,0.4,0.1c0.2-0.3,0.2-0.6,0.1-0.9c-0.1-0.3-0.1-0.6,0.1-0.9c0.2-0.2,0.7-0.2,0.7,0.1
		s-0.2,0.3-0.2,0.5s0.2,0.3,0.4,0.3c0.2,0,0.4,0,0.6,0c0.2,0,0.3,0.3,0.2,0.4s-0.8-0.2-1,0.1c0,0.1,0,0.2,0,0.3
		c0,0.3-0.4,0.4-0.6,0.4c-0.3,0.1-0.5,0-0.8-0.1c-0.3-0.1-0.4-0.4-0.3-0.7c0,0,0,0,0,0c-0.1-0.1-0.3,0-0.4,0.1c0,0,0,0,0,0
		c-0.1,0.2-0.1,0.3,0,0.5c-0.3-0.1-0.5,0.2-0.7,0.4s-0.3,0.5-0.6,0.6s-0.7,0-0.8,0.2s0.4,0.8,0.2,1.1s-0.4,0.2-0.6,0.2
		c-0.5,0.2-0.7,0.7-0.5,1.2c0,0.1,0.1,0.2,0.1,0.2c0.4,0.4,1.1,0.4,1.5,0c0.2-0.3,0.4-0.6,0.6-1c0.2-0.3,0.6-0.7,1-0.5
		c0.1,0.1,0.3,0.1,0.4,0.2l0.5,0.5c0.1,0.1,0.2,0.2,0.2,0.4c0,0.1-0.1,0.2-0.1,0.3c-0.1,0.3,0.4,0.7,0.7,0.5
		c0.3-0.2,0.4-0.6,0.2-0.9c0,0,0,0,0-0.1c-0.3-0.4-0.9-0.6-0.9-1.1c0.3-0.3,0.9,0,1.1,0.4s0.2,0.8,0.4,1.2s0.6,0.8,1,0.5l-0.3-1
		c0.2-0.2,0.5,0.3,0.8,0.3s0.2-0.3,0.1-0.5c-0.1-0.2-0.2-0.3-0.2-0.5c0-0.3,0.2-0.6,0.5-0.6c0,0,0.1,0,0.1,0
		c0.3,0.1,0.6,0.4,0.6,0.7c0,0.1,0,0.3,0.1,0.4c0.1,0.3,0.5,0.3,0.7,0.5s0.6,0.4,0.5,0.7c-0.1,0.1-0.2,0.2-0.1,0.3s0.2,0.2,0.2,0.3
		s-0.1,0.1-0.2,0.2s-0.4,0.1-0.6,0.2c-0.2,0.1-0.3,0.2-0.3,0.5c0,0.3,0.4,0.4,0.5,0.6c0.1,0.2,0.2,0.5,0.2,0.8
		c0.1,0.2,0.2,0.4,0.4,0.6c0.4,0.7,0.7,1.4,0.8,2.2c0.1,0.3,0.3,0.7,0.6,0.8c0.2,0,0.4,0,0.5-0.1c0.5-0.2,1-0.4,1.4-0.8
		c0.4-0.4,0.4-1,0.1-1.5c0-0.1-0.1-0.1-0.2-0.1c-0.1,0-0.2,0-0.3,0.1c-0.3,0.1-0.6,0-0.8-0.2c-0.2-0.2-0.4-0.4-0.5-0.7l-0.4-0.8
		c0.2-0.1,0.4-0.1,0.6,0.1c0.2,0.2,0.3,0.3,0.4,0.5c0.5,0.5,1.1,0.8,1.8,0.8c0.2,0,0.3,0,0.5,0.1c0.5,0.2,0.6,1,1.1,1.1
		c0.1,0,0.3,0.1,0.4,0.1c0.2,0.1,0.3,0.3,0.4,0.6c0.1,0.4,0.2,0.8,0.3,1.2c0.1,0.4,0.5,0.7,0.9,0.8c0.3,0,0.5-0.1,0.7-0.3l0,0
		c0-0.4,0-0.8,0-1.2C346.1,67.1,346,67,346,66.9z"/>
	<path class="st8" d="M338.9,74.2c-0.3,0-0.3,0.2-0.5,0.4s-0.5,0.5-0.6,0.8c-0.3,0.4,0,1.1-0.4,1.4c-0.1,0.1-0.2,0.1-0.2,0.2
		c-0.1,0.2-0.1,0.5,0.1,0.6c0.2,0.1,0.5,0.1,0.6,0c0.2-0.1,0.3-0.3,0.4-0.6c0-0.2,0.1-0.3,0.2-0.4c0.2-0.2,0.5,0,0.8-0.1
		C340.5,76.3,340,73.9,338.9,74.2z"/>
	<path class="st6" d="M346,67.1c-0.1-1.4-0.3-2.9-0.6-4.2c-0.4-1.6-1.1-3.2-2-4.6c-1.2-1.9-2.7-3.6-4.4-4.9
		c-4.7-3.5-10.8-4.5-16.4-2.4c-1.6,0.6-3,1.3-4.4,2.3c-0.7,0.5-1.3,1.1-2,1.7c-0.6,0.6-1.2,1.3-1.7,2c-4.5,6.1-4.5,14.3,0,20.4
		c0.5,0.7,1.1,1.4,1.7,2c0.6,0.6,1.2,1.2,1.9,1.7c1.3,1,2.8,1.8,4.4,2.3c7.8,2.8,16.5-0.2,20.8-7.3c0.9-1.4,1.5-3,2-4.6
		C345.6,70,345.9,68.6,346,67.1c0,0.1,0,0.2,0,0.3c0,0.2,0,0.5,0,0.8c0,0.5,0,0.9-0.1,1.3c-0.1,0.6-0.2,1.2-0.3,1.8
		c-0.4,1.7-1,3.2-1.9,4.7c-2.6,4.4-6.9,7.4-11.9,8.4c-3.1,0.6-6.3,0.3-9.3-0.7c-1.6-0.6-3.1-1.4-4.5-2.4c-0.7-0.5-1.4-1.1-2-1.7
		c-0.6-0.6-1.2-1.3-1.7-2.1c-4.6-6.2-4.6-14.8,0-21c0.5-0.7,1.1-1.4,1.7-2c0.6-0.6,1.3-1.2,2-1.7c1.4-1,2.9-1.8,4.5-2.4
		c3-1.1,6.2-1.3,9.3-0.7c5,1,9.3,4,11.9,8.4c0.9,1.5,1.5,3.1,1.9,4.7c0.2,0.6,0.3,1.2,0.3,1.8c0.1,0.4,0.1,0.9,0.1,1.3
		c0,0.3,0,0.6,0,0.8C346,66.9,346,67,346,67.1z"/>
	<path class="st9" d="M322.7,84.6c0,0,5.8,2.8,8.1,3.6s6.8-2.1,2.3-4.4c-2.1-1.1-9.9-4.8-12.1-5.3S310,80.6,310,80.6v12.3l5.5-1.9
		c0,0,9,4.4,12,4.6s19.2-8.8,19.5-11.5c0,0,0-0.1,0-0.1c0.1-1.6-1.1-2.9-2.7-3c-0.5,0-1.1,0.1-1.5,0.3l-7.8,4.2"/>
	<path class="st6" d="M335,85.5c0.1-0.1,0.1-0.1,0.2-0.2l0.6-0.4l2.5-1.4l4.1-2.2c0.9-0.6,2-0.6,2.9-0.2c1.1,0.5,1.8,1.6,1.8,2.7
		c0,0.3-0.1,0.6-0.2,0.9c-0.2,0.3-0.4,0.5-0.6,0.7c-0.4,0.4-0.9,0.9-1.3,1.3c-1,0.8-2,1.5-3.2,2.3c-2.4,1.6-4.9,3-7.5,4.3
		c-1.4,0.7-2.8,1.4-4.3,1.9c-0.8,0.3-1.6,0.5-2.5,0.6c-0.8-0.1-1.7-0.3-2.5-0.6c-3.3-1.1-6.5-2.5-9.6-4h0.2l-4.3,1.4l-1.3,0.4
		c-0.1,0.1-0.3,0-0.3-0.1c0,0,0,0,0,0c0,0,0-0.1,0-0.1V80.6c0-0.1,0.1-0.2,0.2-0.2c2.8-0.8,5.6-1.4,8.5-1.9c0.7-0.1,1.4-0.2,2.1-0.2
		c0.7,0.1,1.4,0.2,2,0.5c1.3,0.5,2.5,1,3.6,1.5c2.3,1,4.5,2.1,6.4,3.1c1.1,0.4,1.9,1.1,2.5,2c0.2,0.5,0.1,1.1-0.2,1.6
		c-0.3,0.4-0.7,0.8-1.1,1c-0.8,0.5-1.7,0.6-2.6,0.5c-0.8-0.2-1.5-0.5-2.2-0.8c-1.4-0.6-2.5-1.1-3.4-1.6l-2.1-1l-0.5-0.3
		c-0.1,0-0.1-0.1-0.2-0.1l0.2,0.1l0.5,0.2l2.1,1c0.9,0.4,2.1,0.9,3.4,1.5c0.7,0.3,1.4,0.6,2.2,0.8c0.8,0.1,1.7-0.1,2.5-0.5
		c0.4-0.2,0.7-0.5,1-0.9c0.3-0.4,0.3-0.8,0.1-1.3c-0.6-0.9-1.4-1.5-2.4-1.8c-2-1-4.1-2-6.4-3c-1.1-0.5-2.3-1-3.6-1.5
		c-0.6-0.3-1.2-0.4-1.9-0.5c-0.7,0-1.3,0.1-2,0.2c-2.8,0.5-5.7,1.2-8.4,2l0.2-0.2c0,3.9,0,8,0,12.3l-0.4-0.2l1.3-0.4l4.3-1.4
		c0.1,0,0.1,0,0.2,0c3.1,1.5,6.3,2.9,9.5,4c0.8,0.3,1.5,0.5,2.4,0.6c0.8-0.1,1.5-0.2,2.3-0.5c1.5-0.5,2.9-1.2,4.3-1.9
		c2.6-1.3,5.1-2.7,7.5-4.2c1.1-0.7,2.2-1.4,3.2-2.2c0.5-0.4,0.9-0.8,1.4-1.2c0.4-0.3,0.7-0.9,0.7-1.4c0-1.1-0.6-2-1.6-2.4
		c-0.9-0.4-1.9-0.3-2.6,0.2l-4.1,2.2l-2.6,1.3l-0.7,0.3C335.2,85.6,335.1,85.6,335,85.5z"/>
	<path class="st9" d="M304.8,78.5h4.8c0.6,0,1.1,0.5,1.1,1.2v14.8c0,0.6-0.5,1.2-1.1,1.2h-4.8c-0.6,0-1.1-0.5-1.1-1.2V79.6
		C303.7,79,304.2,78.5,304.8,78.5z"/>
	<path class="st6" d="M309.6,95.6c0,0,0.2,0,0.4-0.2c0.4-0.2,0.6-0.6,0.6-1c0-1.3,0-2.9-0.1-5s0-4.6,0-7.4c0-0.7,0-1.4,0-2.1
		c0.1-0.3,0-0.6-0.2-0.9c-0.2-0.2-0.5-0.4-0.8-0.3h-4.7c-0.3,0-0.6,0.2-0.8,0.4c-0.1,0.1-0.1,0.3-0.1,0.4v0.6c0,0.8,0,1.6,0,2.3
		c0,1.5,0,3,0,4.3c0,2.8,0,5.2-0.1,7.4c-0.1,0.4,0.1,0.9,0.5,1.1c0.4,0.1,0.8,0.2,1.2,0.1h2.1h1.4c0.2,0,0.3,0,0.5,0.1
		c-0.2,0-0.3,0-0.5,0l-1.4,0.1h-2.1H305c-0.3,0-0.5,0-0.7-0.1c-0.5-0.3-0.8-0.8-0.8-1.4c0-2.1,0-4.6,0-7.4c0-1.4,0-2.8,0-4.3v-2.7
		c0-0.2,0.1-0.5,0.2-0.7c0.3-0.4,0.7-0.7,1.2-0.7h4.7c0.5,0,0.9,0.2,1.2,0.5c0.1,0.2,0.2,0.4,0.3,0.6c0,0.2,0,0.4,0,0.6v2.1
		c0,2.8,0,5.2-0.1,7.4s-0.1,3.7-0.1,5c0,0.5-0.3,0.9-0.8,1.1C309.9,95.6,309.8,95.6,309.6,95.6z"/>
	<path class="st5" d="M309.2,82.7c0,1.1-0.9,1.9-1.9,1.9c-1.1,0-1.9-0.9-1.9-1.9c0-1.1,0.9-1.9,1.9-1.9
		C308.3,80.7,309.2,81.6,309.2,82.7C309.2,82.7,309.2,82.7,309.2,82.7z"/>
</g>
<g id="freepik--speech-bubble-1--inject-29">
	<path class="st5" d="M54.8,183.5c0,21.1,17.1,38.1,38.1,38.1s38.1-17.1,38.1-38.1c0-18.6-13.5-34.5-31.8-37.6
		c0.2-4.1,1.1-8.2,2.6-12c-5.4,2.4-9.8,6.5-12.7,11.6C69.6,147.5,54.8,163.9,54.8,183.5z"/>
	<path class="st6" d="M54.8,183.5c0,0,0-0.3,0-1s0-1.7,0.1-3c0.4-3.8,1.3-7.4,2.8-10.9c0.5-1.2,1-2.4,1.7-3.5l1-1.8l1.2-1.8
		c0.9-1.3,1.8-2.5,2.9-3.6c0.5-0.6,1.1-1.1,1.7-1.7c0.3-0.3,0.6-0.6,0.9-0.9l1-0.8c0.7-0.5,1.3-1.2,2-1.6l2.2-1.6
		c5.1-3.2,10.8-5.2,16.7-5.9l-0.2,0.1c2.9-5.2,7.4-9.3,12.8-11.7c0.1-0.1,0.3,0,0.3,0.1c0,0,0,0,0,0c0,0.1,0,0.1,0,0.2
		c-1.5,3.8-2.3,7.8-2.6,11.9l-0.2-0.3c3.4,0.6,6.8,1.7,9.9,3.1c3.3,1.6,6.3,3.6,9,5.9c9.2,8.1,14,20.1,12.9,32.2
		c-0.4,4.3-1.5,8.5-3.3,12.4c-0.5,0.9-0.9,1.9-1.4,2.8l-1.6,2.7l-1.9,2.5c-0.6,0.8-1.4,1.5-2,2.3c-2.7,2.9-5.9,5.4-9.4,7.3
		c-3.3,1.8-6.9,3.2-10.6,4c-0.9,0.2-1.8,0.3-2.7,0.4l-1.3,0.2l-1.3,0.1c-0.9,0-1.8,0.1-2.7,0.1l-2.6-0.1c-0.4,0-0.9,0-1.3-0.1
		l-1.3-0.2c-0.8-0.1-1.7-0.2-2.5-0.4l-2.4-0.6l-1.2-0.3l-1.1-0.4l-2.2-0.8c-0.7-0.3-1.4-0.7-2.1-1c-1.4-0.7-2.7-1.4-3.9-2.2
		c-4.5-2.9-8.3-6.7-11.2-11.1c-2.2-3.3-3.8-7-4.8-10.9l-0.6-2.2c-0.1-0.7-0.2-1.4-0.3-2s-0.2-1.2-0.2-1.7s0-1-0.1-1.4
		c0-0.9,0-1.5-0.1-2S54.7,183.5,54.8,183.5c-0.1,0-0.1,0.2,0,0.7s0.1,1.1,0.1,2c0,0.4,0,0.9,0.1,1.4s0.2,1.1,0.3,1.7s0.2,1.3,0.3,2
		s0.4,1.4,0.6,2.2c1,3.8,2.7,7.5,4.9,10.8c2.9,4.4,6.7,8.2,11.1,11c1.3,0.8,2.6,1.5,3.9,2.2c0.7,0.3,1.4,0.7,2.1,1l2.2,0.8l1.1,0.4
		l1.2,0.3l2.4,0.6c0.8,0.1,1.6,0.2,2.5,0.4l1.2,0.2c0.4,0.1,0.8,0.1,1.3,0.1l2.6,0.1c0.9,0,1.8-0.1,2.6-0.1l1.3-0.1L98,221
		c0.9-0.1,1.8-0.3,2.7-0.4c3.7-0.8,7.2-2.1,10.5-3.9c3.4-1.9,6.6-4.4,9.3-7.3c0.7-0.8,1.4-1.5,2-2.3l1.8-2.5l1.6-2.6
		c0.5-0.9,0.9-1.9,1.4-2.8c1.7-3.9,2.8-8,3.3-12.3c1.1-12-3.6-23.9-12.7-31.8c-2.7-2.4-5.7-4.3-8.9-5.9c-3.1-1.4-6.4-2.5-9.8-3.1
		c-0.1,0-0.2-0.1-0.2-0.2c0.2-4.1,1.1-8.2,2.6-12l0.3,0.3c-5.3,2.4-9.7,6.5-12.6,11.5c0,0.1-0.1,0.1-0.2,0.1
		c-4,0.4-7.9,1.5-11.6,3.1c-1.7,0.8-3.4,1.6-4.9,2.6l-2.2,1.4c-0.7,0.5-1.3,1.1-2,1.6l-1,0.8c-0.3,0.3-0.6,0.6-0.9,0.9
		c-0.6,0.6-1.2,1.1-1.7,1.7c-1,1.1-2,2.3-2.8,3.6l-1.2,1.8l-1,1.8c-0.6,1.1-1.2,2.3-1.7,3.4c-1.5,3.5-2.4,7.1-2.9,10.9
		c-0.1,1.3-0.1,2.3-0.2,3S54.8,183.5,54.8,183.5z"/>
	<circle class="st8" cx="105.1" cy="173.1" r="4.8"/>
	<path class="st8" d="M111,178.5H99.2c-1.8,0-3.3,1.3-3.8,3c-0.1,0.4-0.2,0.9-0.2,1.3v8.2c0,1,0.7,1.9,1.7,2c1,0.1,1.9-0.6,2-1.7
		c0-0.1,0-0.1,0-0.2l0.2-7.4h0.6l-0.1,20.3c0,1.2,0.9,2.3,2.2,2.4c1.3,0.1,2.3-0.9,2.4-2.1c0,0,0-0.1,0-0.1V196
		c-0.1-0.6,0.1-1.3,0.4-1.8c0.3-0.3,0.7-0.4,1.1-0.1c0.1,0,0.1,0.1,0.1,0.1c0.3,0.5,0.5,1.2,0.4,1.8v8.2c0,1.1,0.7,2.1,1.8,2.3
		c1.2,0.2,2.4-0.6,2.7-1.8c0-0.1,0-0.3,0-0.4l-0.1-20.4h0.6l0.1,7.4c0,1,0.8,1.8,1.8,1.8c0.1,0,0.1,0,0.2,0c0.9-0.1,1.6-1,1.6-1.9
		v-7.8c0-1-0.2-2-0.7-2.8C113.6,179.3,112.4,178.5,111,178.5z"/>
	<circle class="st8" cx="80.3" cy="173.1" r="4.8"/>
	<path class="st8" d="M86.2,178.5H74.4c-1.8,0.1-3.3,1.3-3.8,3c-0.1,0.4-0.2,0.9-0.2,1.3v8.2c0,1,0.7,1.9,1.7,2c1,0.1,1.9-0.6,2-1.6
		c0-0.1,0-0.1,0-0.2l0.1-7.4h0.6l-0.1,20.3c0,1.2,0.9,2.3,2.2,2.4c1.3,0.1,2.3-0.9,2.4-2.1c0,0,0-0.1,0-0.1V196
		c-0.1-0.6,0.1-1.3,0.4-1.8c0.3-0.3,0.7-0.4,1.1-0.1c0.1,0,0.1,0.1,0.1,0.1c0.3,0.5,0.5,1.2,0.4,1.8v8.2c0,1.1,0.7,2.1,1.8,2.3
		c1.2,0.2,2.4-0.5,2.7-1.8c0-0.2,0-0.3,0-0.5l-0.1-20.4h0.6l0.1,7.4c0,1,0.8,1.8,1.8,1.8c0.1,0,0.1,0,0.2,0c1-0.1,1.7-1,1.6-1.9
		v-7.8c0-1-0.2-2-0.7-2.8C88.8,179.3,87.6,178.6,86.2,178.5z"/>
	<path class="st8" d="M98.1,159.4H87.7c-1.4,0-2.6,1.2-2.6,2.6c0,0,0,0,0,0v4.6c0,1.4,1.2,2.6,2.6,2.6h1.6c0,0,0.1,0,0.1,0.1l0,0
		v1.8c0,0.3,0.2,0.6,0.5,0.6c0.2,0,0.4-0.1,0.5-0.2l1.9-2.2h0.1h5.8c1.4,0,2.6-1.2,2.6-2.6V162C100.7,160.6,99.6,159.4,98.1,159.4
		C98.1,159.4,98.1,159.4,98.1,159.4z"/>
	<circle class="st5" cx="89.4" cy="164.1" r="1.3"/>
	<circle class="st5" cx="92.9" cy="164.1" r="1.3"/>
	<circle class="st5" cx="96.4" cy="164.1" r="1.3"/>
</g>
<g id="freepik--Character--inject-29">
	<path class="st6" d="M235.4,436.1l1.2,21.7c0,0-21.6,8.5-21.8,12.5l42.1-0.8l-0.5-33.8L235.4,436.1z"/>
	<path class="st2" d="M249.6,455.7c0.8,0.2,1.4,1.1,1.2,1.9c-0.2,0.9-1,1.4-1.9,1.2c-0.9-0.2-1.5-1.1-1.3-2.1
		c0.3-0.9,1.3-1.3,2.1-1.1"/>
	<path class="st14" d="M256.9,469.5l-0.2-3.4l-40.3,2c0,0-1.9,0.9-1.6,2.2L256.9,469.5z"/>
	<path class="st5" d="M235.9,457.6c0,0.2,1,0.3,2.1,0.9s1.6,1.5,1.8,1.4s-0.1-1.3-1.4-2S235.9,457.4,235.9,457.6z"/>
	<path class="st5" d="M231.5,459.5c0,0.2,0.9,0.5,1.6,1.4s0.9,1.8,1.1,1.8s0.3-1.2-0.6-2.2S231.5,459.3,231.5,459.5z"/>
	<path class="st5" d="M229.1,464.8c0.2,0,0.5-1-0.1-2.1s-1.5-1.5-1.6-1.4s0.5,0.8,1,1.7S228.9,464.8,229.1,464.8z"/>
	<path class="st5" d="M236.2,452.6c0.1,0.2,1-0.1,2.2-0.1s2.1,0.4,2.2,0.2s-0.8-0.9-2.1-0.9S236.1,452.5,236.2,452.6z"/>
	<path class="st6" d="M286.4,434l2.3,26.1l-4.2,21.2c-0.3,1.5,0.7,2.9,2.1,3.2c0.1,0,0.1,0,0.2,0l0,0c0.9,0.1,1.7-0.2,2.3-0.8
		c3.8-4.1,17.5-19.2,17.2-21.1c-0.3-2.2-0.6-27.8-0.6-27.8L286.4,434z"/>
	<path class="st14" d="M286.8,484.5l19.4-23.7l0.1,1.1c0.1,1-0.2,1.9-0.8,2.7c-1.5,2.1-5.9,7.7-16.3,19.1
		C288.6,484.4,287.7,484.7,286.8,484.5L286.8,484.5z"/>
	<g class="st13">
		<path class="st5" d="M300.3,452.7c-0.6,0.5-0.8,1.5-0.3,2.1c0.5,0.6,1.4,0.8,2.1,0.3c0.7-0.6,0.8-1.6,0.3-2.3
			c-0.6-0.6-1.6-0.7-2.2-0.1"/>
	</g>
	<path class="st5" d="M292,472.7c-0.7-0.8-1.5-1.4-2.4-1.9c-1-0.3-2-0.5-3.1-0.4c0-0.1,0.3-0.3,0.9-0.4c0.8-0.1,1.6-0.1,2.4,0.3
		c0.8,0.3,1.4,0.8,1.9,1.5C292,472.3,292.1,472.7,292,472.7z"/>
	<path class="st5" d="M290.4,476.3c-0.8-0.4-1.6-0.7-2.4-1c-0.9-0.1-1.7-0.2-2.6-0.2c0.8-0.6,1.8-0.7,2.7-0.4
		C289.7,475.1,290.5,476.2,290.4,476.3z"/>
	<path class="st5" d="M295.2,468c-1.2-0.7-2.4-1.3-3.6-1.8c-2.1-0.7-3.9-0.5-4-0.7c1.3-0.5,2.8-0.4,4.1,0.1
		C293.2,466,294.4,466.8,295.2,468z"/>
	<path class="st5" d="M295.2,460c-0.1,0.2-1.5-0.4-3.4-0.3s-3.4,0.6-3.4,0.4c1-0.7,2.2-1.1,3.4-1C293,459,294.2,459.3,295.2,460z"/>
	<path class="st5" d="M294.7,452.3c-1.2-0.3-2.4-0.4-3.6-0.4c-1.2,0.2-2.3,0.6-3.4,1.1c0,0,0.2-0.4,0.8-0.8c1.6-1,3.5-1.2,5.2-0.5
		C294.4,451.9,294.8,452.2,294.7,452.3z"/>
	<path class="st5" d="M291.1,450.4c-0.1-0.3-0.1-0.7-0.1-1c0-0.9,0.2-1.8,0.6-2.6c0.2-0.6,0.7-1.2,1.2-1.5c0.4-0.2,0.9-0.1,1.2,0.2
		c0.3,0.3,0.5,0.7,0.5,1.1c0,1.8-1.3,3.4-3.1,3.7c-1.8,0.3-3.5-0.5-4.5-2c-0.2-0.4-0.3-0.8-0.1-1.3c0.2-0.4,0.6-0.7,1.1-0.6
		c0.7,0.1,1.3,0.4,1.8,0.8c0.7,0.5,1.4,1.2,1.9,1.9c0.2,0.3,0.4,0.6,0.5,0.9c-0.7-0.9-1.6-1.8-2.6-2.5c-0.5-0.3-1-0.6-1.6-0.6
		c-0.2,0-0.5,0.1-0.6,0.3c-0.1,0.3,0,0.6,0.1,0.8c0.9,1.3,2.4,2,3.9,1.7c1.5-0.3,2.6-1.6,2.7-3.1c0-0.3-0.1-0.6-0.3-0.8
		c-0.2-0.2-0.5-0.2-0.7-0.1c-0.5,0.3-0.8,0.8-1,1.3C291.5,448,291.2,449.2,291.1,450.4z"/>
	<path class="st6" d="M214.6,254.1c-2,9-2.7,18.2-2,27.4c0.4,5.8,20.1,167,20.1,167h26.5L251.7,297l2.2,0.5c0,0,14.5,64.6,15.7,75.1
		c1.1,9.4,13.3,77.7,13.3,77.7l24.3,0.3l-7.8-90.4l-9-86.7l-3.4-25.2L214.6,254.1z"/>
	<path class="st14" d="M255.9,281.6c-0.3,0.3-0.7,0.5-1.1,0.6c-1,0.5-2.1,0.9-3.3,1.1c-0.8,0.1-1.6,0.1-2.4,0
		c-0.9-0.2-1.8-0.6-2.6-1.2c-0.7-0.8-1.3-1.7-1.6-2.7c-0.3-1-0.5-2.1-0.7-3.2c-0.8-4.4-1.4-8.4-1.8-11.3c-0.2-1.5-0.3-2.6-0.3-3.4
		c-0.1-0.4-0.1-0.8,0-1.3c0.1,0.4,0.2,0.8,0.2,1.2c0.1,0.9,0.3,2.1,0.5,3.4c0.4,2.9,1.1,6.9,1.9,11.2c0.4,2.1,0.7,4.4,2.1,5.6
		c1.3,1.1,3,1.5,4.6,1.2c1.1-0.2,2.2-0.5,3.3-1C255.1,281.8,255.5,281.7,255.9,281.6z"/>
	<path class="st14" d="M247.9,261.1c0,0,0.2-0.1,0.6-0.2c0.5,0,1.1,0.2,1.5,0.5c0.7,0.5,1.1,1.2,1.1,2c-0.1,1.4-1.4,2.5-2.8,2.4
		c-0.6,0-1.2-0.3-1.7-0.8c-0.5-0.6-0.7-1.5-0.5-2.3c0.1-0.5,0.4-1,0.8-1.3c0.3-0.2,0.5-0.3,0.5-0.2c-0.5,0.4-0.8,1-0.9,1.6
		c-0.1,0.7,0.1,1.3,0.5,1.9c0.9,0.8,2.3,0.7,3-0.2c0.3-0.3,0.5-0.7,0.5-1.2c0-0.7-0.3-1.3-0.9-1.7
		C249.2,261.3,248.5,261.1,247.9,261.1z"/>
	<path class="st6" d="M226.2,71.4c4.3-1,8.4,3,12.8,2.4c2.6-0.3,4.8-2.3,7.2-3.5c3.8-1.8,8.3-1.7,12,0.3c3.4,2,5.6,4.1,5.8,8.1
		c3.4-1.7,8.5,2.8,10.1,6.8s0.9,8.1-0.4,12.2c-2.3,7.2-5.9,13.8-10.8,19.6c-0.4,0.5-1.1,1.1-1.7,0.7c-0.4-0.3-0.6-0.7-0.5-1.2
		c-0.4-3.9,0.4-7.8,1-11.7s1-7.9,0-11.7s-3.7-7.3-7.5-8.3c-2.9-0.6-5.8-0.1-8.4,1.2c-2.6,1.2-4.9,3-7.4,4.5
		c-2.4,1.6-5.3,2.5-8.2,2.6c-2.9-0.1-5.9-1.6-7-4.3s0.6-6.3,3.4-6.7c-3.1-0.5-5.2-3.4-4.7-6.5C222.2,73.8,223.9,71.9,226.2,71.4
		L226.2,71.4z"/>
	<path class="st15" d="M225.9,117.6c0.5-5.3,2.3-16.2,4.1-26.1c1.9-10.6,11.6-17.9,22.4-16.9l1.1,0.1c11.4,1.8,14.9,12.8,12.8,24.2
		l-3.6,38.1l-23.8,16.5l-3.3-8.1v-14C235.5,131.4,224.9,128.7,225.9,117.6z"/>
	<path class="st16" d="M235.5,131.4c5.2,0.7,10.4-0.2,15.1-2.6c0,0-4.2,7.4-15.1,5.3V131.4z"/>
	<path class="st6" d="M231.3,102.3c-0.1,0.9,0.5,1.6,1.4,1.7c0.8,0.1,1.6-0.4,1.8-1.2c0,0,0,0,0,0c0.1-0.9-0.5-1.6-1.4-1.7
		C232.3,100.9,231.5,101.5,231.3,102.3C231.3,102.3,231.3,102.3,231.3,102.3z"/>
	<path class="st6" d="M231.8,97.2c0.2,0.2,1.4-0.5,3.1-0.4s2.9,1.1,3.1,1s-0.1-0.5-0.6-0.9c-0.7-0.6-1.5-0.9-2.4-1
		c-0.9-0.1-1.8,0.1-2.5,0.6C231.9,96.7,231.7,97.1,231.8,97.2z"/>
	<path class="st6" d="M246.3,103.8c-0.1,0.9,0.5,1.6,1.4,1.7c0.8,0.1,1.6-0.4,1.8-1.2c0,0,0,0,0,0c0.1-0.9-0.5-1.6-1.4-1.7
		C247.2,102.4,246.4,103,246.3,103.8C246.3,103.8,246.3,103.8,246.3,103.8z"/>
	<path class="st6" d="M248.4,99.1c0.2,0.2,1.5-0.5,3.1-0.4s2.9,1.2,3.1,1s-0.1-0.5-0.6-0.9c-0.7-0.6-1.5-0.9-2.4-1
		c-0.9-0.1-1.8,0.1-2.5,0.6C248.6,98.7,248.3,99,248.4,99.1z"/>
	<path class="st6" d="M241,111.1c-0.9-0.4-1.8-0.6-2.7-0.8c-0.4-0.1-0.8-0.2-0.9-0.5c0-0.5,0.2-0.9,0.4-1.3c0.5-1,1-2.1,1.6-3.2
		c2.2-4.5,3.9-8.2,3.7-8.3s-2.1,3.5-4.4,8l-1.6,3.2c-0.3,0.5-0.5,1.1-0.4,1.7c0.1,0.3,0.3,0.6,0.6,0.7c0.2,0.1,0.5,0.1,0.7,0.2
		C239.1,111,240.1,111.1,241,111.1z"/>
	<path class="st6" d="M249.1,90.4c0.1,0.5,1.8,0.4,3.8,0.9s3.5,1.1,3.8,0.8c0.1-0.2-0.1-0.7-0.7-1.2c-0.8-0.6-1.8-1.1-2.8-1.3
		c-1-0.2-2.1-0.2-3.1,0.1C249.5,89.9,249.1,90.2,249.1,90.4z"/>
	<path class="st6" d="M232.9,92.3c0.3,0.4,1.5,0.1,2.9,0.2s2.6,0.5,2.9,0.1c0.1-0.2,0-0.6-0.5-1c-1.3-1-3.2-1.2-4.6-0.3
		C233,91.8,232.8,92.1,232.9,92.3z"/>
	<path class="st15" d="M264.9,106.6c0.2-0.1,8.7-1.3,7.7,6.2s-8.3,5-8.3,4.8S264.9,106.6,264.9,106.6z"/>
	<path class="st16" d="M267,114.9c0,0,0.1,0.1,0.3,0.2c0.3,0.2,0.7,0.2,1,0.2c1.1-0.5,1.8-1.5,1.9-2.7c0.1-0.6,0.1-1.3-0.1-1.9
		c-0.1-0.5-0.4-0.9-0.9-1.1c-0.3-0.1-0.6,0-0.8,0.3c-0.1,0.2-0.1,0.3-0.1,0.4s-0.1-0.2,0-0.4c0.1-0.2,0.2-0.3,0.4-0.4
		c0.2-0.1,0.5-0.2,0.8-0.1c0.6,0.2,1.1,0.7,1.2,1.3c0.2,0.7,0.3,1.4,0.2,2.2c-0.2,1.5-1.2,2.8-2.3,3c-0.4,0.1-0.9-0.1-1.2-0.3
		C267,115.1,266.9,115,267,114.9z"/>
	<path class="st6" d="M230.9,81.2c1.3-2,3.1-3.7,5.1-4.9c4.4-2.8,9.6-4,14.8-3.7c5.2,0.4,10,2.8,13.5,6.7c2.6,3.2,4.3,7.1,4.7,11.2
		c0.6,4.5,0.3,9.1-0.7,13.5c-0.5,1.7-1.6,2.3-2.9,3.5c-0.9,0.7-2.2,1.1-3.1,0.4c-0.4-0.5-0.7-1.2-0.7-1.8c-0.9-6-1.7-12.4,1-17.8
		c-1.2-2.1-2.8-3.9-4.7-5.3c-1.9-1.4-4.4-2-6.8-1.6c-3.5,0.7-5.9,3.8-8.8,5.8c-4.3,2.9-9.6,3.5-14.5,1.8L230.9,81.2z"/>
	<path class="st2" d="M274.4,95.2c0-0.1-0.8-0.1-2.1-0.3c-3.3-0.6-6.3-2.3-8.4-5c-0.8-1-1.2-1.7-1.2-1.7c0.2,0.7,0.5,1.3,1,1.9
		c1,1.4,2.3,2.6,3.8,3.5c1.5,0.9,3.1,1.4,4.9,1.6C273,95.4,273.7,95.4,274.4,95.2z"/>
	<path class="st2" d="M274,98.9c0-0.1-0.9-0.2-2.2-0.7c-1.7-0.6-3.3-1.5-4.7-2.6c-1.4-1.1-2.7-2.5-3.7-4c-0.4-0.7-0.8-1.3-1.2-1.9
		c0.2,0.7,0.5,1.5,0.9,2.1c1.9,3.2,5,5.7,8.6,6.7C272.5,98.8,273.2,98.9,274,98.9z"/>
	<path class="st2" d="M224.6,84.8c0,0.5,0.1,0.9,0.3,1.3c0.4,1,1.1,1.9,2,2.5c0.9,0.6,1.9,1,3,1.1c0.4,0.1,0.9,0,1.3-0.1
		c-0.4-0.1-0.9-0.2-1.3-0.2c-1-0.2-2-0.6-2.8-1.2c-0.8-0.6-1.5-1.4-2-2.3C224.8,85.3,224.6,84.8,224.6,84.8z"/>
	<path class="st2" d="M223.5,86.3c0,0.4,0.1,0.9,0.3,1.2c0.9,2,2.6,3.4,4.6,4c0.4,0.2,0.9,0.2,1.3,0.1c-1.3-0.4-2.6-1.1-3.7-2
		C225,88.7,224.1,87.6,223.5,86.3z"/>
	<path class="st16" d="M245.7,113.6c-1.7,0.5-3.3,1.1-4.9,1.8l-1.7,0.8c0.6,0.9,1.3,2.4,2.2,2.9c1.1,0.5,2.3,0.4,3.3-0.2
		c0.6-0.7,1-1.5,1.1-2.4C245.8,115.5,245.8,114.5,245.7,113.6z"/>
	<path class="st6" d="M239.8,117.3c0,0,0.1,0.2,0.4,0.6c0.4,0.5,0.9,0.9,1.5,1.1c0.9,0.2,1.9,0.1,2.7-0.3c0.9-0.7,1.3-1.9,1.2-3
		c0-0.7-0.1-1.3-0.3-2l0.3,0.2c-1.9,0.8-3.6,1.4-4.8,1.8c-0.6,0.3-1.3,0.5-1.9,0.6c0.6-0.4,1.2-0.7,1.8-0.9c1.2-0.5,2.8-1.2,4.7-2
		l0.3-0.1l0.1,0.3c0.2,0.7,0.3,1.4,0.4,2.2c0.3,1.8-0.8,3.5-2.6,3.9c-0.6,0.1-1.3,0.1-1.9-0.2c-0.7-0.2-1.2-0.7-1.6-1.3
		C239.9,117.8,239.8,117.5,239.8,117.3z"/>
	<path class="st15" d="M326.9,263.8c0.1,0.7,0,1.4-0.4,2.1c-1.4,2.3-5,8-5.1,9.3c-0.2,1.7-0.4,5.6,0,6.3s4,1.3,4,1.3s-0.5,2.9,0.9,4
		s7.3-1.2,7.3-1.2c1.7-0.2,3.4-0.6,5.1-1.1c0,0,3.5,0.5,4-2.6s-1.6-13.1-1.7-15.6s-1.9-8.7-1.9-8.7l-12.8,2.2L326.9,263.8z"/>
	<path class="st16" d="M329.8,277c0.1,0.1-1.3,1-2.6,2.5s-1.9,3-2.1,3C325.7,280,327.4,277.9,329.8,277z"/>
	<path class="st16" d="M328.4,279.1c0,0,0.4-0.1,1,0.1c0.9,0.2,1.6,0.7,2.3,1.3l1.5,1.4l-1.8-1c-0.8-0.5-1.9-0.2-2.3,0.6
		c-0.1,0.2-0.2,0.3-0.2,0.5l-0.3,1.5l-0.2-1.5c0-0.5-0.2-0.9-0.4-1.3c-0.2-0.3-0.5-0.5-0.8-0.6c-0.3-0.1-0.7,0-1,0.1
		c0,0,0-0.1,0.2-0.2c0.2-0.2,0.5-0.2,0.8-0.2c0.5,0,0.9,0.3,1.1,0.7c0.3,0.5,0.5,1,0.6,1.5h-0.5c0.1-0.7,0.5-1.2,1.1-1.5
		c0.7-0.3,1.5-0.3,2.1,0.1l-0.3,0.4C330.5,280.1,329.5,279.5,328.4,279.1z"/>
	<path class="st16" d="M339.6,280.5c0.1,0,0.2,0.2,0.3,0.7c0.1,0.6,0.1,1.2,0,1.7c-0.1,0.6-0.5,1.2-1,1.5c-0.4,0.3-0.7,0.2-0.7,0.2
		s0.2-0.2,0.5-0.5c0.3-0.4,0.6-0.8,0.7-1.3C339.6,281.6,339.5,280.5,339.6,280.5z"/>
	<path class="st15" d="M154.2,133.7c1,3.4,2.7,6.6,4.8,9.5l3.6,2.6l0.5,7.7l13.9-5.9l-0.4-7.7l-0.9-10.3l-9-7.7L154.2,133.7z"/>
	<path class="st6" d="M194.1,111.4l-6.5,15.5l-3.9-0.8l-23.4,22l-7.9-13.1c0,0,14.2-7.4,16.6-12.8s-0.1-5.2-0.1-5.2l5.6-9.6
		L194.1,111.4z"/>
	<path class="st2" d="M183.6,91.8c0,0-7.8-1.8-20.6-9.8c-7.3-4.7-14-10.1-20.1-16.3c-1.6-1.6-4.2-1.7-5.9-0.2
		c-2.6,2.4-6,8.2-9.3,22.8c-5.8,25.7-0.4,30.2,1.7,29.7s16.1-5.9,25.4-6.8s23.7,1.1,23.7,1.1L183.6,91.8z"/>
	<path class="st6" d="M183.6,91.8c0,0,0,0.1-0.1,0.3l-0.2,1c-0.2,0.9-0.5,2.3-0.9,4c-0.9,3.6-2.1,8.7-3.7,15.2v0.1h-0.1
		c-4.1-0.5-8.7-1-13.9-1.2c-2.6-0.1-5.3-0.1-8,0c-2.9,0.2-5.7,0.7-8.5,1.3c-5.8,1.3-11.8,3.4-18.2,5.5l-0.3,0.1h-0.4
		c-0.2,0-0.5,0-0.7-0.1c-0.2-0.1-0.4-0.2-0.6-0.3l-0.5-0.4c-0.6-0.7-1-1.4-1.3-2.3c-0.6-1.6-0.9-3.4-1-5.1c-0.2-3.5,0-7.1,0.5-10.6
		l0.3-2.3c0.1-0.8,0.3-1.6,0.4-2.3c0.3-1.6,0.6-3.1,0.9-4.6c0.6-3,1.3-6,2.2-8.8c0.8-2.8,1.7-5.6,2.9-8.3c1-2.7,2.5-5.1,4.3-7.3
		c0.5-0.5,1-1,1.7-1.3c0.7-0.3,1.4-0.4,2.1-0.4c0.7,0,1.4,0.2,2,0.6c0.6,0.4,1.1,0.8,1.5,1.3c1.8,1.8,3.7,3.6,5.5,5.2
		c3.4,3,6.9,5.8,10.6,8.4c5.4,3.7,11.1,6.9,17.1,9.6c2.1,0.9,3.8,1.6,5,2l1.3,0.4l0.4,0.1c-0.2,0-0.3,0-0.5-0.1
		c-0.3-0.1-0.8-0.2-1.3-0.4c-1.2-0.4-2.9-1-5-1.9c-6.1-2.6-11.9-5.8-17.4-9.5c-3.7-2.6-7.3-5.4-10.7-8.4c-1.8-1.6-3.7-3.3-5.5-5.2
		c-0.4-0.5-0.9-0.9-1.4-1.2c-0.5-0.3-1.2-0.5-1.8-0.6c-1.3-0.1-2.6,0.5-3.4,1.5c-1.8,2.1-3.2,4.5-4.2,7.1c-1.1,2.7-2,5.5-2.8,8.3
		c-0.8,2.9-1.5,5.8-2.2,8.8c-0.3,1.5-0.6,3-0.9,4.6c-0.1,0.8-0.3,1.5-0.4,2.3s-0.2,1.6-0.3,2.3c-0.5,3.5-0.7,7-0.5,10.4
		c0.1,1.7,0.4,3.4,1,5c0.3,0.8,0.7,1.5,1.2,2.1l0.4,0.4c0.2,0.1,0.3,0.2,0.5,0.3c0.3,0.1,0.7,0.1,1.1,0c6.3-2,12.4-4.2,18.2-5.5
		c2.8-0.7,5.7-1.1,8.6-1.3c2.8-0.2,5.5-0.1,8.1,0c5.1,0.2,9.8,0.7,13.9,1.3l-0.2,0.1c1.6-6.4,2.9-11.6,3.8-15.1c0.4-1.8,0.8-3.1,1-4
		l0.3-1.1C183.5,92.1,183.6,92,183.6,91.8z"/>
	<polygon class="st9" points="204.8,112.2 199.8,111.7 202.3,105 206.6,107 	"/>
	<path class="st9" d="M202.9,104.3l-2,5.2l-1.1,2.8c-1.5,3.9-5.7,6-9.7,4.7l-20.6-4.4l6.9-25.8l20.9,6.4
		C201.8,95,204.3,99.8,202.9,104.3z"/>
	<g class="st12">
		<path d="M129.6,89.6c-3,13.7-3,25.3,0.1,26s8-9.9,11-23.6s3-25.3-0.1-26S132.6,75.9,129.6,89.6z"/>
	</g>
	<path class="st5" d="M142.1,84c0,0-7.4-2.7-9.1,6.9s5.5,9.6,5.5,9.6C140.4,95.2,141.7,89.6,142.1,84z"/>
	<path class="st6" d="M181.1,96.6c2.6,1,5.2,1.8,7.9,2.4c2.6,0.8,5.3,1.5,8.1,1.9c-2.6-1-5.2-1.8-7.9-2.4
		C186.5,97.7,183.8,97,181.1,96.6z"/>
	<path class="st6" d="M180.3,99.4c2.6,1,5.2,1.8,7.9,2.4c2.6,0.8,5.3,1.5,8.1,1.9c-2.6-1-5.2-1.8-7.9-2.4
		C185.7,100.5,183.1,99.9,180.3,99.4z"/>
	<path class="st6" d="M179.6,102.2c2.6,1,5.2,1.8,7.9,2.4c2.6,0.8,5.3,1.5,8.1,1.9c-2.6-1-5.2-1.8-7.9-2.4
		C185,103.4,182.3,102.7,179.6,102.2z"/>
	<path class="st6" d="M178.8,105.1c2.6,1,5.2,1.8,7.9,2.4c2.6,0.8,5.3,1.5,8.1,1.9c-2.6-1-5.2-1.8-7.9-2.4
		C184.2,106.2,181.6,105.6,178.8,105.1z"/>
	<path class="st15" d="M171.9,128.8l-2.8-6.3c-0.6-1.5-2.4-2.3-3.9-1.6c-0.1,0.1-0.3,0.1-0.4,0.2c-0.8,0.5-1.2,1.3-1.1,2.2
		c0,0-4.5-1.2-3.8,3.1c0,0-3.3-0.1-3,2.9c0,0-4.1-0.7-3.5,3.3s5.6,5.7,6.9,5.1c0,0,1.4-0.5,0.7-2.7c0,0,3.6,4.3,5.6,3.2
		s0.1-2.9,0.1-2.9s1.4,1.2,2.6,0.6s-0.5-4.9-0.5-4.9c0.8,0.3,1.6,0.3,2.4,0.1C172.2,130.7,171.9,128.8,171.9,128.8z"/>
	<path class="st16" d="M160.9,135.1c-0.1,0.1-0.9-1.3-2.2-2.7c-0.8-0.8-1.5-1.8-2-2.9c0.9,0.8,1.7,1.6,2.4,2.6
		C160,132.9,160.6,133.9,160.9,135.1z"/>
	<path class="st16" d="M160.1,126.3c1.5,1.3,2.8,2.7,3.9,4.4c1.2,1.5,2.2,3.2,2.9,5c-0.1,0.1-1.5-2.2-3.3-4.7S160,126.4,160.1,126.3
		z"/>
	<path class="st16" d="M168.9,131.5c-0.6-1.5-1.3-3-2.1-4.4c-1-1.3-2-2.6-3.1-3.8c1.5,0.8,2.7,2,3.6,3.5
		C168.2,128.2,168.8,129.8,168.9,131.5z"/>
	<path class="st15" d="M182.6,128.8l-1.8-1.8c-0.6-0.6-1.5-0.9-2.3-0.7c-2.2,0.4-4.4,1.2-6.4,2.1c-0.9,0.8-0.3,2.7,3.2,2.6
		s0.4,0,0.4,0s-7.5,3.4-5.3,10.1l5.8-0.4c0,0,6.4-8,6.8-9.4C183.3,130.4,183.1,129.5,182.6,128.8z"/>
	<path class="st16" d="M177.1,130.7c0,0.1-0.8,0.2-1.9,0.8c-1.5,0.7-2.8,1.9-3.6,3.3c-0.9,1.4-1.3,3.1-1.3,4.7
		c0,1.3,0.2,2.1,0.1,2.1c-0.3-0.6-0.5-1.4-0.5-2.1c-0.1-1.8,0.3-3.5,1.2-5c0.9-1.5,2.3-2.7,3.9-3.3
		C175.7,130.8,176.4,130.7,177.1,130.7z"/>
	<path class="st6" d="M111.7,103.1c0,0.1-6.4,2.9-14.5,6.2s-14.7,5.8-14.7,5.7s6.4-2.9,14.5-6.2S111.6,103,111.7,103.1z"/>
	<path class="st6" d="M113.5,87.6c0,0.2-10.7-0.8-23.8-2S66,83.2,66,83.1s10.7,0.8,23.8,2S113.6,87.5,113.5,87.6z"/>
	<path class="st6" d="M115.1,71.7c-0.1,0.1-4-3-8.7-6.9s-8.4-7.1-8.3-7.2s4,3,8.7,6.9S115.2,71.6,115.1,71.7z"/>
	<path class="st6" d="M142,67.4c0,0.2,0.1,0.3,0.1,0.5c0.1,0.4,0.1,0.8,0.2,1.4s0.2,1.4,0.2,2.2s0.1,1.9,0.1,3
		c0.1,2.6,0,5.2-0.2,7.7c-0.3,3.1-0.7,6.3-1.3,9.4c-0.7,3.1-1.5,6.1-2.5,9.1c-0.8,2.4-1.8,4.8-2.9,7.2c-0.4,1-0.9,1.9-1.3,2.7
		s-0.8,1.4-1.1,2l-0.7,1.2c-0.2,0.3-0.3,0.4-0.3,0.4c0-0.2,0.1-0.3,0.2-0.5c0.2-0.3,0.4-0.8,0.6-1.3s0.6-1.2,1-2s0.8-1.7,1.2-2.7
		c0.9-2,1.9-4.4,2.8-7.2c1-3,1.8-6,2.5-9.1c0.6-3.1,1.1-6.2,1.4-9.3c0.2-2.9,0.3-5.5,0.3-7.7c0-1.1-0.1-2.1-0.1-3s-0.1-1.6-0.1-2.2
		s-0.1-1-0.1-1.4C142,67.8,142,67.6,142,67.4z"/>
	<path class="st6" d="M179.7,145.8l1,21.2l0.7,3.3l19.5-10.2c0,0,4.8-8.7,7.2-12.8s5.1-5.4,5.1-5.4l-6.5,45.2c0,0-19.8,8.4-25,9.7
		s-16.6,5.9-17.9-7s-5-35.2-5-35.2L179.7,145.8z"/>
	<path class="st14" d="M177.1,188c-0.1-0.1,0.7-0.9,1.7-2.3c2.6-3.9,3.7-8.5,3-13.1c-0.3-1.8-0.6-2.8-0.5-2.8s0.1,0.2,0.3,0.7
		c0.2,0.7,0.4,1.4,0.6,2.1c0.2,1,0.3,2.1,0.3,3.1c0,2.6-0.6,5.2-1.7,7.5c-0.5,1-1,1.9-1.6,2.7c-0.4,0.6-0.9,1.1-1.4,1.6
		C177.5,187.7,177.3,187.9,177.1,188z"/>
	<path class="st2" d="M264.4,191.8c0.1-2.7,4.3-22.3,4.3-22.7s-4.2-29.1-4.2-29.1l-0.9-9l-20.2,12.1c0,0-8.6-6.5-8.4-6.8l-4.8,28.5
		l-9.6,89.2c0,0,3.3,4,15.9,5.9c15.7,2.3,38.5-5.9,38.5-5.9S264.3,194.6,264.4,191.8z"/>
	<g class="st12">
		<path d="M217.5,285.3c0,0,3,2.2,4.8-11.3s7.2-70.2,7.2-70.2l3.9-58.7l-11.6,34.2L217.5,285.3z"/>
	</g>
	<g class="st12">
		<path d="M262.6,241.3c0,0,5.3,51.9,7.3,50.9s21.4-8.7,21.4-8.7l-2-16.8L262.6,241.3z"/>
	</g>
	<path class="st6" d="M264.2,131.8c0.7,0.6,8.7,8.3,8.7,8.3s18.3,2.1,18.9,2.6s-1.1,77.1-1.1,77.1l12,55.1l-31.5,13
		c0,0-6.4-32.3-9.4-49.8s-2.1-22.4-1.8-39.3s4-58.7,4-58.7L264.2,131.8z"/>
	<path class="st14" d="M261.8,216c0-0.3,0-0.5,0.1-0.8c0.1-0.5,0.1-1.3,0.3-2.3c0.3-2,0.8-5,1.5-8.6c1.4-7.2,3.5-17.1,6-28.1
		c2-8.8,3.9-16.8,5.4-23.3l0.1,0.2l-3.7-3.2l-0.2-0.1l0.1-0.1l3.8-3.6v0.2c-0.8-1.9-1.4-3.4-1.8-4.5c-0.2-0.5-0.3-0.9-0.5-1.2
		c-0.1-0.1-0.1-0.3-0.1-0.4c0.1,0.1,0.2,0.3,0.2,0.4c0.1,0.3,0.3,0.7,0.5,1.2c0.5,1.1,1.1,2.6,1.9,4.5v0.1l-0.1,0.1l-3.7,3.6v-0.3
		l3.8,3.1l0.1,0.1v0.1c-1.5,6.5-3.3,14.6-5.3,23.3c-2.5,10.9-4.7,20.8-6.2,28c-0.8,3.6-1.3,6.5-1.7,8.5c-0.2,1-0.3,1.8-0.4,2.3
		C262,215.5,261.9,215.7,261.8,216z"/>
	<path class="st6" d="M290.7,142.4c0,0,7.3,1.6,10.9,10.1c1.6,3.7,20,43.6,23.9,51.6S342,257,342,257l-21.5,3.7l-11.9-45.6
		l-19.7-35.7l1.9-17.8L290.7,142.4z"/>
	<path class="st14" d="M294,159.6c0.1,0-0.4,6.6-1.1,14.8s-1.5,14.8-1.6,14.7s0.4-6.6,1.1-14.8S293.9,159.6,294,159.6z"/>
	<polygon class="st2" points="321.6,260.5 322.2,263 341.7,259.6 341.1,257.2 	"/>
	<path class="st14" d="M302.8,275c-0.2,0.1-0.4,0.2-0.6,0.3l-1.7,0.8l-6.5,2.8l-22.5,9.4l-0.3,0.1L271,288
		c-0.7-3.6-1.4-7.5-2.1-11.6c-2.3-12.4-4.3-23.7-5.8-31.9c-0.7-4-1.3-7.4-1.7-9.7c-0.2-1.1-0.3-2-0.4-2.6c0-0.3-0.1-0.5-0.1-0.7
		c0-0.1,0-0.2,0-0.2c0,0.1,0.1,0.2,0.1,0.2l0.1,0.7c0.1,0.6,0.3,1.5,0.5,2.6c0.5,2.3,1.1,5.6,1.9,9.6c1.5,8.2,3.6,19.4,6,31.9
		c0.7,4,1.5,7.9,2.1,11.6l-0.3-0.2l22.6-9.2l6.6-2.6l1.8-0.7C302.4,275.1,302.6,275.1,302.8,275z"/>
	<polygon class="st9" points="238.4,150.7 240.9,154.4 244.7,154.4 246.7,150.7 244.5,146 241.5,146.1 	"/>
	<path class="st14" d="M263,143.1c-0.3,0.3-0.6,0.5-0.9,0.7l-2.5,1.7c-2.1,1.4-5.1,3.3-8.5,5.4l-3.1,2l-0.2,0.1l-0.1-0.2
		c-1.3-2.2-2.4-4.5-3.3-6.8c-0.4-0.9-0.6-1.6-0.8-2.1c-0.1-0.2-0.2-0.5-0.2-0.8c0.5,0.9,0.9,1.8,1.3,2.7c1,2.3,2.1,4.5,3.4,6.7
		l-0.3-0.1l3.1-2c3.3-2.1,6.3-3.9,8.5-5.3l2.6-1.6C262.3,143.4,262.6,143.3,263,143.1z"/>
	<path class="st14" d="M234.1,146.9c0.4,0.4,0.8,0.8,1.1,1.3c0.6,0.9,1.5,2.1,2.5,3.5h-0.4c0.4-0.6,0.8-1.2,1.3-1.9
		c1.3-1.9,2.4-3.6,3.3-4.9c0.4-0.7,1-1.3,1.6-1.9c-0.4,0.7-0.8,1.4-1.2,2.1c-0.8,1.3-1.9,3-3.2,4.9c-0.4,0.7-0.9,1.3-1.3,1.9
		l-0.2,0.3l-0.2-0.3c-1-1.4-1.8-2.7-2.4-3.6C234.6,148,234.3,147.4,234.1,146.9z"/>
	<polygon class="st9" points="240.9,154.4 229.5,240.4 236.8,255.4 249,239.6 244.7,154.4 	"/>
	<path class="st6" d="M214.2,283.7c1.5,0.9,3.5,0.3,4.4-1.2c0.2-0.4,0.4-0.9,0.4-1.3l6.3-64.2l9.4-79.4l-3.3,2.8
		c0,0-17.8,1.3-18.2,1.6s-4,11.2-5.6,24.6s-0.4,55.3-0.4,55.3l-6.7,52.7L214.2,283.7z"/>
	<path class="st14" d="M206.5,155c0.1,0.5,0.1,0.9,0.1,1.4c0,1,0.1,2.3,0.1,3.8c0.1,3.2,0.1,7.7,0.2,12.6s0.1,9.4,0,12.6
		c0,1.5,0,2.8-0.1,3.8c0,0.5,0,0.9-0.1,1.4c-0.1-0.5-0.1-0.9-0.1-1.4c0-1-0.1-2.3-0.1-3.8c-0.1-3.2-0.1-7.7-0.2-12.6s0-9.4,0-12.6
		c0-1.5,0-2.8,0-3.8C206.4,155.9,206.5,155.5,206.5,155z"/>
	<path class="st14" d="M223.6,218.5c0-0.3,0-0.6,0-0.9c0-0.6,0.1-1.4,0.1-2.5c0-2.2,0.1-5.3,0-9.1c0-7.7-0.2-18.4-0.5-30.1
		c-0.2-8-0.4-15.5-0.5-21.9v-0.1l0.1-0.1l4.3-2.3l-0.1,0.3c-1.1-1.6-2-3-2.9-4.3l-0.1-0.1l0.1-0.1l5.7-5.4l1.5-1.4
		c0.2-0.2,0.4-0.3,0.6-0.5c-0.1,0.2-0.3,0.4-0.5,0.5l-1.5,1.5l-5.6,5.5v-0.2l3,4.2l0.1,0.2l-0.2,0.1l-4.3,2.4l0.1-0.2
		c0.2,6.3,0.4,13.9,0.6,21.9c0.3,11.8,0.4,22.4,0.3,30.1c0,3.9-0.1,7-0.2,9.1c0,1.1-0.1,1.9-0.2,2.5
		C223.7,217.9,223.6,218.2,223.6,218.5z"/>
	<path class="st14" d="M221.6,255.1c0,0.2,0,0.3,0,0.5c0,0.4-0.1,0.8-0.1,1.4c-0.1,1.3-0.4,3-0.6,5.1c-0.5,4.3-1.3,10.2-2.1,16.7
		c-0.3,2.3-0.6,4.5-0.9,6.6v0.4l-0.3-0.2l-10.8-6.1l-3.1-1.8c-0.4-0.2-0.7-0.4-1.1-0.7c0.4,0.1,0.8,0.3,1.2,0.5l3.2,1.7l10.8,5.9
		l-0.4,0.2c0.3-2.1,0.6-4.3,0.9-6.6c0.9-6.5,1.7-12.4,2.3-16.7c0.3-2.1,0.6-3.8,0.8-5c0.1-0.5,0.2-1,0.2-1.4
		C221.5,255.4,221.5,255.2,221.6,255.1z"/>
	<polygon class="st2" points="160.1,154 160.3,150.2 177.6,144.1 178.6,146.3 	"/>
	<path class="st8" d="M220.6,141.2c0,0,5.2,74.1,75.4,88.6l0.7,17.4c0,0-46.4-0.8-72.8-42.3c-19.9-31.3-13.1-62.6-13.1-62.6
		C213.9,141,217.3,140.6,220.6,141.2z"/>
	<path class="st5" d="M219,174.9l-0.7-3.8l-1.9-0.4l-0.2-1.4l8.1,2l0.2,1.4l-6.9,4.7l-0.3-1.4L219,174.9z M220,174.2l3-2l-3.5-0.8
		L220,174.2z"/>
	<path class="st5" d="M220.3,185.6l4.8-1.6l-4.8-1l-0.2-0.6l3.1-3.7l-4.7,1.6l-0.4-1.3l7.2-2.4l0.4,1.1l-3.8,4.5l5.7,1.2l0.4,1.1
		l-7.2,2.4L220.3,185.6z"/>
	<path class="st5" d="M226.8,194.5c-1.2,0.6-2.3,0-3.2-1.7l-1.7-3.4l6.8-3.4l1.6,3.2c0.8,1.6,0.6,2.9-0.5,3.4
		c-0.6,0.3-1.4,0.3-1.9-0.1C228,193.2,227.5,194.1,226.8,194.5z M226.2,193.1c0.7-0.3,0.7-1,0.2-2l-1-2l-2,1l1,2
		C225,193.1,225.6,193.5,226.2,193.1L226.2,193.1z M228.3,187.7l-1.9,0.9l0.9,1.8c0.4,0.9,1,1.2,1.6,0.9s0.7-1,0.2-1.9L228.3,187.7z
		"/>
	<path class="st5" d="M230.2,200.3l-2.1-3.2l-1.9,0.3l-0.8-1.2l8.2-1.3l0.8,1.2l-4.5,7.1l-0.8-1.2L230.2,200.3z M230.8,199.3l2-3
		l-3.6,0.6L230.8,199.3z"/>
	<path class="st5" d="M231.1,203.2l1.2-0.3c0,0.9,0.4,1.8,0.9,2.5c0.8,0.9,1.4,1,1.8,0.7c1.3-1-2.4-3.9-0.2-5.6
		c1-0.8,2.4-0.7,3.7,0.9c0.6,0.7,0.9,1.5,1.1,2.4l-1.1,0.4c-0.1-0.7-0.4-1.4-0.9-2c-0.7-0.9-1.4-1-1.8-0.6c-1.3,1,2.4,3.9,0.2,5.6
		c-0.9,0.8-2.4,0.7-3.7-1C231.6,205.3,231.1,204.3,231.1,203.2z"/>
	<path class="st5" d="M235.6,208.8l1.1-0.4c0.1,0.9,0.5,1.7,1.1,2.4c0.8,0.9,1.5,0.9,1.9,0.5c1.2-1.1-2.8-3.6-0.7-5.6
		c0.9-0.9,2.3-0.9,3.8,0.6c0.6,0.6,1.1,1.4,1.3,2.3L243,209c-0.2-0.7-0.5-1.4-1-1.9c-0.8-0.8-1.5-0.9-1.9-0.5
		c-1.2,1.1,2.7,3.6,0.7,5.6c-0.9,0.9-2.3,0.9-3.8-0.6C236.3,210.8,235.8,209.8,235.6,208.8z"/>
	<path class="st5" d="M245.5,216.8l-2.9-2.5l-1.7,0.8l-1.1-0.9l7.6-3.5l1.1,0.9l-2.4,8l-1.1-1L245.5,216.8z M245.9,215.7l1.1-3.5
		l-3.2,1.6L245.9,215.7z"/>
	<path class="st5" d="M251.6,214.2l2.7,1.9c2,1.4,2.5,3.7,1.1,5.5s-3.6,2.1-5.6,0.7l-2.7-1.9L251.6,214.2z M250.5,221.4
		c1.1,0.9,2.8,0.8,3.7-0.3s0.8-2.8-0.3-3.7c-0.1-0.1-0.2-0.2-0.3-0.2l-1.5-1.1l-3.1,4.2L250.5,221.4z"/>
	<path class="st5" d="M256.3,222.3c1.1-2,3.6-2.7,5.6-1.7c2,1.1,2.7,3.6,1.7,5.6c-1.1,2-3.6,2.7-5.6,1.7c-0.1,0-0.1-0.1-0.2-0.1
		c-1.9-1-2.6-3.4-1.6-5.3C256.2,222.4,256.3,222.3,256.3,222.3z M262.1,225.8c0.8-1.3,0.4-2.9-0.9-3.7c-1.3-0.8-2.9-0.4-3.7,0.9
		c-0.8,1.3-0.4,2.9,0.9,3.7c0,0,0,0,0,0c1.2,0.8,2.8,0.4,3.6-0.8C262.1,225.9,262.1,225.8,262.1,225.8L262.1,225.8z"/>
	<path class="st5" d="M267.4,232.9l-0.4-2.7c-0.1,0-0.2-0.1-0.3-0.1l-1.5-0.8l-1,2l-1.3-0.7l3.5-6.8l2.8,1.4
		c1.8,0.9,2.4,2.4,1.7,3.9c-0.4,1-1.5,1.5-2.5,1.4l0.4,3L267.4,232.9z M268.6,226.3l-1.5-0.8l-1.4,2.7l1.5,0.8
		c1.1,0.6,1.9,0.4,2.4-0.5S269.7,226.9,268.6,226.3z"/>
	<rect x="267.6" y="173.1" class="st9" width="14.9" height="10"/>
	<rect x="267.6" y="177.9" class="st5" width="14.9" height="5.1"/>
	<path class="st14" d="M282.5,183.1c0-0.2-0.1-0.5,0-0.8c0-0.5,0-1.2-0.1-2c0-1.8-0.1-4.2-0.1-7.2l0.2,0.2l-14.9,0.1
		c-0.1,0.1,0.5-0.5,0.3-0.3l0,0v2.6c0,0.9,0,1.7,0,2.6c0,1.7,0,3.3,0,4.8l-0.3-0.3c4.3,0,8,0.1,10.6,0.1l3.1,0.1
		C281.8,183,282.1,183,282.5,183.1c-0.3,0-0.6,0.1-1,0.1l-3,0.1c-2.6,0-6.4,0.1-10.8,0.1h-0.3v-0.3c0-1.5,0-3.1,0-4.8
		c0-0.8,0-1.7,0-2.6v-2.6l0,0l0.3-0.3l14.9,0.1h0.2v0.2c0,3.1-0.1,5.6-0.1,7.3c0,0.8,0,1.4-0.1,2
		C282.6,182.6,282.6,182.9,282.5,183.1z"/>
</g>
</svg>
